<svg width="28" height="12" viewBox="0 0 28 12" fill="none" xmlns="http://www.w3.org/2000/svg">
<path d="M5.48752 2.6494C4.81931 2.6494 4.28025 3.0537 3.93211 3.0537C3.56712 3.0537 3.0786 2.67186 2.50023 2.67186C1.39965 2.67186 0.282227 3.58714 0.282227 5.29978C0.282227 6.37228 0.697751 7.50094 1.20873 8.23653C1.64111 8.84858 2.02855 9.35395 2.57884 9.35395C3.12352 9.35395 3.36497 8.99458 4.04441 8.99458C4.72947 8.99458 4.88669 9.34272 5.48752 9.34272C6.08834 9.34272 6.48702 8.79805 6.86324 8.25899C7.27877 7.6357 7.45845 7.02926 7.46407 7.00118C7.43038 6.98995 6.28488 6.52389 6.28488 5.20993C6.28488 4.07566 7.18331 3.57029 7.23385 3.53099C6.64425 2.67186 5.7402 2.6494 5.48752 2.6494ZM5.17868 1.92504C5.44821 1.59374 5.63913 1.14453 5.63913 0.689696C5.63913 0.627929 5.63351 0.566162 5.62228 0.515625C5.1843 0.532471 4.64524 0.807615 4.32517 1.18383C4.0781 1.47021 3.84226 1.92504 3.84226 2.37987C3.84226 2.44725 3.85349 2.52025 3.85911 2.54271C3.88719 2.54833 3.93211 2.55394 3.97703 2.55394C4.37571 2.55394 4.88108 2.28441 5.17868 1.92504Z" fill="black"/>
<path d="M5.48752 2.6494C4.81931 2.6494 4.28025 3.0537 3.93211 3.0537C3.56712 3.0537 3.0786 2.67186 2.50023 2.67186C1.39965 2.67186 0.282227 3.58714 0.282227 5.29978C0.282227 6.37228 0.697751 7.50094 1.20873 8.23653C1.64111 8.84858 2.02855 9.35395 2.57884 9.35395C3.12352 9.35395 3.36497 8.99458 4.04441 8.99458C4.72947 8.99458 4.88669 9.34272 5.48752 9.34272C6.08834 9.34272 6.48702 8.79805 6.86324 8.25899C7.27877 7.6357 7.45845 7.02926 7.46407 7.00118C7.43038 6.98995 6.28488 6.52389 6.28488 5.20993C6.28488 4.07566 7.18331 3.57029 7.23385 3.53099C6.64425 2.67186 5.7402 2.6494 5.48752 2.6494ZM5.17868 1.92504C5.44821 1.59374 5.63913 1.14453 5.63913 0.689696C5.63913 0.627929 5.63351 0.566162 5.62228 0.515625C5.1843 0.532471 4.64524 0.807615 4.32517 1.18383C4.0781 1.47021 3.84226 1.92504 3.84226 2.37987C3.84226 2.44725 3.85349 2.52025 3.85911 2.54271C3.88719 2.54833 3.93211 2.55394 3.97703 2.55394C4.37571 2.55394 4.88108 2.28441 5.17868 1.92504Z" fill="black"/>
<path d="M5.48752 2.6494C4.81931 2.6494 4.28025 3.0537 3.93211 3.0537C3.56712 3.0537 3.0786 2.67186 2.50023 2.67186C1.39965 2.67186 0.282227 3.58714 0.282227 5.29978C0.282227 6.37228 0.697751 7.50094 1.20873 8.23653C1.64111 8.84858 2.02855 9.35395 2.57884 9.35395C3.12352 9.35395 3.36497 8.99458 4.04441 8.99458C4.72947 8.99458 4.88669 9.34272 5.48752 9.34272C6.08834 9.34272 6.48702 8.79805 6.86324 8.25899C7.27877 7.6357 7.45845 7.02926 7.46407 7.00118C7.43038 6.98995 6.28488 6.52389 6.28488 5.20993C6.28488 4.07566 7.18331 3.57029 7.23385 3.53099C6.64425 2.67186 5.7402 2.6494 5.48752 2.6494ZM5.17868 1.92504C5.44821 1.59374 5.63913 1.14453 5.63913 0.689696C5.63913 0.627929 5.63351 0.566162 5.62228 0.515625C5.1843 0.532471 4.64524 0.807615 4.32517 1.18383C4.0781 1.47021 3.84226 1.92504 3.84226 2.37987C3.84226 2.44725 3.85349 2.52025 3.85911 2.54271C3.88719 2.54833 3.93211 2.55394 3.97703 2.55394C4.37571 2.55394 4.88108 2.28441 5.17868 1.92504Z" fill="white"/>
<path d="M9.67131 1.15014V9.25288H11.12V6.59689H12.8776C14.5172 6.59689 15.6627 5.49631 15.6627 3.89036C15.6627 2.25634 14.5565 1.15014 12.9394 1.15014H9.67131ZM11.12 2.36303H12.5575C13.602 2.36303 14.1915 2.89647 14.1915 3.89036C14.1915 4.85618 13.5851 5.39524 12.5519 5.39524H11.12V2.36303Z" fill="black"/>
<path d="M9.67131 1.15014V9.25288H11.12V6.59689H12.8776C14.5172 6.59689 15.6627 5.49631 15.6627 3.89036C15.6627 2.25634 14.5565 1.15014 12.9394 1.15014H9.67131ZM11.12 2.36303H12.5575C13.602 2.36303 14.1915 2.89647 14.1915 3.89036C14.1915 4.85618 13.5851 5.39524 12.5519 5.39524H11.12V2.36303Z" fill="black"/>
<path d="M9.67131 1.15014V9.25288H11.12V6.59689H12.8776C14.5172 6.59689 15.6627 5.49631 15.6627 3.89036C15.6627 2.25634 14.5565 1.15014 12.9394 1.15014H9.67131ZM11.12 2.36303H12.5575C13.602 2.36303 14.1915 2.89647 14.1915 3.89036C14.1915 4.85618 13.5851 5.39524 12.5519 5.39524H11.12V2.36303Z" fill="white"/>
<path d="M18.381 8.25899C17.7633 8.25899 17.3197 7.95015 17.3197 7.43355C17.3197 6.9338 17.6847 6.65304 18.4652 6.6025L19.8521 6.51266V7.00118C19.8521 7.71431 19.2232 8.25899 18.381 8.25899ZM17.971 9.35395C18.774 9.35395 19.4478 9.00581 19.7904 8.4106H19.8858V9.25288H21.2279V5.05832C21.2279 3.7556 20.3407 2.98631 18.7628 2.98631C17.3028 2.98631 16.2865 3.67698 16.1742 4.76072H17.4881C17.6173 4.34519 18.0553 4.12058 18.6954 4.12058C19.4478 4.12058 19.8521 4.4575 19.8521 5.05832V5.57492L18.2687 5.67038C16.775 5.76022 15.9383 6.40036 15.9383 7.51217C15.9383 8.63521 16.7862 9.35395 17.971 9.35395Z" fill="black"/>
<path d="M18.381 8.25899C17.7633 8.25899 17.3197 7.95015 17.3197 7.43355C17.3197 6.9338 17.6847 6.65304 18.4652 6.6025L19.8521 6.51266V7.00118C19.8521 7.71431 19.2232 8.25899 18.381 8.25899ZM17.971 9.35395C18.774 9.35395 19.4478 9.00581 19.7904 8.4106H19.8858V9.25288H21.2279V5.05832C21.2279 3.7556 20.3407 2.98631 18.7628 2.98631C17.3028 2.98631 16.2865 3.67698 16.1742 4.76072H17.4881C17.6173 4.34519 18.0553 4.12058 18.6954 4.12058C19.4478 4.12058 19.8521 4.4575 19.8521 5.05832V5.57492L18.2687 5.67038C16.775 5.76022 15.9383 6.40036 15.9383 7.51217C15.9383 8.63521 16.7862 9.35395 17.971 9.35395Z" fill="black"/>
<path d="M18.381 8.25899C17.7633 8.25899 17.3197 7.95015 17.3197 7.43355C17.3197 6.9338 17.6847 6.65304 18.4652 6.6025L19.8521 6.51266V7.00118C19.8521 7.71431 19.2232 8.25899 18.381 8.25899ZM17.971 9.35395C18.774 9.35395 19.4478 9.00581 19.7904 8.4106H19.8858V9.25288H21.2279V5.05832C21.2279 3.7556 20.3407 2.98631 18.7628 2.98631C17.3028 2.98631 16.2865 3.67698 16.1742 4.76072H17.4881C17.6173 4.34519 18.0553 4.12058 18.6954 4.12058C19.4478 4.12058 19.8521 4.4575 19.8521 5.05832V5.57492L18.2687 5.67038C16.775 5.76022 15.9383 6.40036 15.9383 7.51217C15.9383 8.63521 16.7862 9.35395 17.971 9.35395Z" fill="white"/>
<path d="M22.7781 11.4821C24.1539 11.4821 24.8108 10.9767 25.333 9.44941L27.5511 3.10985H26.0799L24.648 7.90523H24.5525L23.115 3.10985H21.5877L23.7833 9.28095L23.7103 9.55048C23.5306 10.1176 23.1993 10.3422 22.6097 10.3422C22.5142 10.3422 22.3065 10.3366 22.2278 10.3198V11.4597C22.3177 11.4765 22.6939 11.4821 22.7781 11.4821Z" fill="black"/>
<path d="M22.7781 11.4821C24.1539 11.4821 24.8108 10.9767 25.333 9.44941L27.5511 3.10985H26.0799L24.648 7.90523H24.5525L23.115 3.10985H21.5877L23.7833 9.28095L23.7103 9.55048C23.5306 10.1176 23.1993 10.3422 22.6097 10.3422C22.5142 10.3422 22.3065 10.3366 22.2278 10.3198V11.4597C22.3177 11.4765 22.6939 11.4821 22.7781 11.4821Z" fill="black"/>
<path d="M22.7781 11.4821C24.1539 11.4821 24.8108 10.9767 25.333 9.44941L27.5511 3.10985H26.0799L24.648 7.90523H24.5525L23.115 3.10985H21.5877L23.7833 9.28095L23.7103 9.55048C23.5306 10.1176 23.1993 10.3422 22.6097 10.3422C22.5142 10.3422 22.3065 10.3366 22.2278 10.3198V11.4597C22.3177 11.4765 22.6939 11.4821 22.7781 11.4821Z" fill="white"/>
</svg>
