<svg width="28" height="13" viewBox="0 0 28 13" fill="none" xmlns="http://www.w3.org/2000/svg">
<path d="M5.48752 3.1494C4.81931 3.1494 4.28025 3.5537 3.93211 3.5537C3.56712 3.5537 3.0786 3.17186 2.50023 3.17186C1.39965 3.17186 0.282227 4.08714 0.282227 5.79978C0.282227 6.87228 0.697751 8.00094 1.20873 8.73653C1.64111 9.34858 2.02855 9.85395 2.57884 9.85395C3.12352 9.85395 3.36497 9.49458 4.04441 9.49458C4.72947 9.49458 4.88669 9.84272 5.48752 9.84272C6.08834 9.84272 6.48702 9.29805 6.86324 8.75899C7.27877 8.1357 7.45845 7.52926 7.46407 7.50118C7.43038 7.48995 6.28488 7.02389 6.28488 5.70993C6.28488 4.57566 7.18331 4.07029 7.23385 4.03099C6.64425 3.17186 5.7402 3.1494 5.48752 3.1494ZM5.17868 2.42504C5.44821 2.09374 5.63913 1.64453 5.63913 1.1897C5.63913 1.12793 5.63351 1.06616 5.62228 1.01562C5.1843 1.03247 4.64524 1.30762 4.32517 1.68383C4.0781 1.97021 3.84226 2.42504 3.84226 2.87987C3.84226 2.94725 3.85349 3.02025 3.85911 3.04271C3.88719 3.04833 3.93211 3.05394 3.97703 3.05394C4.37571 3.05394 4.88108 2.78441 5.17868 2.42504Z" fill="black"/>
<path d="M5.48752 3.1494C4.81931 3.1494 4.28025 3.5537 3.93211 3.5537C3.56712 3.5537 3.0786 3.17186 2.50023 3.17186C1.39965 3.17186 0.282227 4.08714 0.282227 5.79978C0.282227 6.87228 0.697751 8.00094 1.20873 8.73653C1.64111 9.34858 2.02855 9.85395 2.57884 9.85395C3.12352 9.85395 3.36497 9.49458 4.04441 9.49458C4.72947 9.49458 4.88669 9.84272 5.48752 9.84272C6.08834 9.84272 6.48702 9.29805 6.86324 8.75899C7.27877 8.1357 7.45845 7.52926 7.46407 7.50118C7.43038 7.48995 6.28488 7.02389 6.28488 5.70993C6.28488 4.57566 7.18331 4.07029 7.23385 4.03099C6.64425 3.17186 5.7402 3.1494 5.48752 3.1494ZM5.17868 2.42504C5.44821 2.09374 5.63913 1.64453 5.63913 1.1897C5.63913 1.12793 5.63351 1.06616 5.62228 1.01562C5.1843 1.03247 4.64524 1.30762 4.32517 1.68383C4.0781 1.97021 3.84226 2.42504 3.84226 2.87987C3.84226 2.94725 3.85349 3.02025 3.85911 3.04271C3.88719 3.04833 3.93211 3.05394 3.97703 3.05394C4.37571 3.05394 4.88108 2.78441 5.17868 2.42504Z" fill="black"/>
<path d="M5.48752 3.1494C4.81931 3.1494 4.28025 3.5537 3.93211 3.5537C3.56712 3.5537 3.0786 3.17186 2.50023 3.17186C1.39965 3.17186 0.282227 4.08714 0.282227 5.79978C0.282227 6.87228 0.697751 8.00094 1.20873 8.73653C1.64111 9.34858 2.02855 9.85395 2.57884 9.85395C3.12352 9.85395 3.36497 9.49458 4.04441 9.49458C4.72947 9.49458 4.88669 9.84272 5.48752 9.84272C6.08834 9.84272 6.48702 9.29805 6.86324 8.75899C7.27877 8.1357 7.45845 7.52926 7.46407 7.50118C7.43038 7.48995 6.28488 7.02389 6.28488 5.70993C6.28488 4.57566 7.18331 4.07029 7.23385 4.03099C6.64425 3.17186 5.7402 3.1494 5.48752 3.1494ZM5.17868 2.42504C5.44821 2.09374 5.63913 1.64453 5.63913 1.1897C5.63913 1.12793 5.63351 1.06616 5.62228 1.01562C5.1843 1.03247 4.64524 1.30762 4.32517 1.68383C4.0781 1.97021 3.84226 2.42504 3.84226 2.87987C3.84226 2.94725 3.85349 3.02025 3.85911 3.04271C3.88719 3.04833 3.93211 3.05394 3.97703 3.05394C4.37571 3.05394 4.88108 2.78441 5.17868 2.42504Z" fill="black"/>
<path d="M9.67131 1.65014V9.75288H11.12V7.09689H12.8776C14.5172 7.09689 15.6627 5.99631 15.6627 4.39036C15.6627 2.75634 14.5565 1.65014 12.9394 1.65014H9.67131ZM11.12 2.86303H12.5575C13.602 2.86303 14.1915 3.39647 14.1915 4.39036C14.1915 5.35618 13.5851 5.89524 12.5519 5.89524H11.12V2.86303Z" fill="black"/>
<path d="M9.67131 1.65014V9.75288H11.12V7.09689H12.8776C14.5172 7.09689 15.6627 5.99631 15.6627 4.39036C15.6627 2.75634 14.5565 1.65014 12.9394 1.65014H9.67131ZM11.12 2.86303H12.5575C13.602 2.86303 14.1915 3.39647 14.1915 4.39036C14.1915 5.35618 13.5851 5.89524 12.5519 5.89524H11.12V2.86303Z" fill="black"/>
<path d="M9.67131 1.65014V9.75288H11.12V7.09689H12.8776C14.5172 7.09689 15.6627 5.99631 15.6627 4.39036C15.6627 2.75634 14.5565 1.65014 12.9394 1.65014H9.67131ZM11.12 2.86303H12.5575C13.602 2.86303 14.1915 3.39647 14.1915 4.39036C14.1915 5.35618 13.5851 5.89524 12.5519 5.89524H11.12V2.86303Z" fill="black"/>
<path d="M18.381 8.75899C17.7633 8.75899 17.3197 8.45015 17.3197 7.93355C17.3197 7.4338 17.6847 7.15304 18.4652 7.1025L19.8521 7.01266V7.50118C19.8521 8.21431 19.2232 8.75899 18.381 8.75899ZM17.971 9.85395C18.774 9.85395 19.4478 9.50581 19.7904 8.9106H19.8858V9.75288H21.2279V5.55832C21.2279 4.2556 20.3407 3.48631 18.7628 3.48631C17.3028 3.48631 16.2865 4.17698 16.1742 5.26072H17.4881C17.6173 4.84519 18.0553 4.62058 18.6954 4.62058C19.4478 4.62058 19.8521 4.9575 19.8521 5.55832V6.07492L18.2687 6.17038C16.775 6.26022 15.9383 6.90036 15.9383 8.01217C15.9383 9.13521 16.7862 9.85395 17.971 9.85395Z" fill="black"/>
<path d="M18.381 8.75899C17.7633 8.75899 17.3197 8.45015 17.3197 7.93355C17.3197 7.4338 17.6847 7.15304 18.4652 7.1025L19.8521 7.01266V7.50118C19.8521 8.21431 19.2232 8.75899 18.381 8.75899ZM17.971 9.85395C18.774 9.85395 19.4478 9.50581 19.7904 8.9106H19.8858V9.75288H21.2279V5.55832C21.2279 4.2556 20.3407 3.48631 18.7628 3.48631C17.3028 3.48631 16.2865 4.17698 16.1742 5.26072H17.4881C17.6173 4.84519 18.0553 4.62058 18.6954 4.62058C19.4478 4.62058 19.8521 4.9575 19.8521 5.55832V6.07492L18.2687 6.17038C16.775 6.26022 15.9383 6.90036 15.9383 8.01217C15.9383 9.13521 16.7862 9.85395 17.971 9.85395Z" fill="black"/>
<path d="M18.381 8.75899C17.7633 8.75899 17.3197 8.45015 17.3197 7.93355C17.3197 7.4338 17.6847 7.15304 18.4652 7.1025L19.8521 7.01266V7.50118C19.8521 8.21431 19.2232 8.75899 18.381 8.75899ZM17.971 9.85395C18.774 9.85395 19.4478 9.50581 19.7904 8.9106H19.8858V9.75288H21.2279V5.55832C21.2279 4.2556 20.3407 3.48631 18.7628 3.48631C17.3028 3.48631 16.2865 4.17698 16.1742 5.26072H17.4881C17.6173 4.84519 18.0553 4.62058 18.6954 4.62058C19.4478 4.62058 19.8521 4.9575 19.8521 5.55832V6.07492L18.2687 6.17038C16.775 6.26022 15.9383 6.90036 15.9383 8.01217C15.9383 9.13521 16.7862 9.85395 17.971 9.85395Z" fill="black"/>
<path d="M22.7781 11.9821C24.1539 11.9821 24.8108 11.4767 25.333 9.94941L27.5511 3.60985H26.0799L24.648 8.40523H24.5525L23.115 3.60985H21.5877L23.7833 9.78095L23.7103 10.0505C23.5306 10.6176 23.1993 10.8422 22.6097 10.8422C22.5142 10.8422 22.3065 10.8366 22.2278 10.8198V11.9597C22.3177 11.9765 22.6939 11.9821 22.7781 11.9821Z" fill="black"/>
<path d="M22.7781 11.9821C24.1539 11.9821 24.8108 11.4767 25.333 9.94941L27.5511 3.60985H26.0799L24.648 8.40523H24.5525L23.115 3.60985H21.5877L23.7833 9.78095L23.7103 10.0505C23.5306 10.6176 23.1993 10.8422 22.6097 10.8422C22.5142 10.8422 22.3065 10.8366 22.2278 10.8198V11.9597C22.3177 11.9765 22.6939 11.9821 22.7781 11.9821Z" fill="black"/>
<path d="M22.7781 11.9821C24.1539 11.9821 24.8108 11.4767 25.333 9.94941L27.5511 3.60985H26.0799L24.648 8.40523H24.5525L23.115 3.60985H21.5877L23.7833 9.78095L23.7103 10.0505C23.5306 10.6176 23.1993 10.8422 22.6097 10.8422C22.5142 10.8422 22.3065 10.8366 22.2278 10.8198V11.9597C22.3177 11.9765 22.6939 11.9821 22.7781 11.9821Z" fill="black"/>
</svg>
