<svg width="56" height="24" viewBox="0 0 56 24" fill="none" xmlns="http://www.w3.org/2000/svg">
<path d="M10.9751 5.30078C9.63867 5.30078 8.56055 6.10938 7.86426 6.10938C7.13428 6.10938 6.15723 5.3457 5.00049 5.3457C2.79932 5.3457 0.564453 7.17627 0.564453 10.6016C0.564453 12.7466 1.39551 15.0039 2.41748 16.4751C3.28223 17.6992 4.05713 18.71 5.15771 18.71C6.24707 18.71 6.72998 17.9912 8.08887 17.9912C9.45898 17.9912 9.77344 18.6875 10.9751 18.6875C12.1768 18.6875 12.9741 17.5981 13.7266 16.52C14.5576 15.2734 14.917 14.0605 14.9282 14.0044C14.8608 13.9819 12.5698 13.0498 12.5698 10.4219C12.5698 8.15332 14.3667 7.14258 14.4678 7.06396C13.2886 5.3457 11.4805 5.30078 10.9751 5.30078ZM10.3574 3.85205C10.8965 3.18945 11.2783 2.29102 11.2783 1.38135C11.2783 1.25781 11.2671 1.13428 11.2446 1.0332C10.3687 1.06689 9.29053 1.61719 8.65039 2.36963C8.15625 2.94238 7.68457 3.85205 7.68457 4.76172C7.68457 4.89648 7.70703 5.04248 7.71826 5.0874C7.77441 5.09863 7.86426 5.10986 7.9541 5.10986C8.75146 5.10986 9.76221 4.5708 10.3574 3.85205Z" fill="white"/>
<path d="M19.3427 2.30225V18.5078H22.2402V13.1958H25.7553C29.0346 13.1958 31.3256 10.9946 31.3256 7.78271C31.3256 4.51465 29.1132 2.30225 25.8789 2.30225H19.3427ZM22.2402 4.72803H25.1152C27.2041 4.72803 28.3833 5.79492 28.3833 7.78271C28.3833 9.71436 27.1704 10.7925 25.104 10.7925H22.2402V4.72803Z" fill="white"/>
<path d="M36.7621 16.52C35.5268 16.52 34.6396 15.9023 34.6396 14.8691C34.6396 13.8696 35.3696 13.3081 36.9306 13.207L39.7045 13.0273V14.0044C39.7045 15.4307 38.4467 16.52 36.7621 16.52ZM35.9423 18.71C37.5483 18.71 38.8959 18.0137 39.581 16.8232H39.7719V18.5078H42.456V10.1187C42.456 7.51318 40.6816 5.97461 37.5258 5.97461C34.6059 5.97461 32.5732 7.35596 32.3486 9.52344H34.9765C35.2348 8.69238 36.1108 8.24316 37.391 8.24316C38.8959 8.24316 39.7045 8.91699 39.7045 10.1187V11.1519L36.5375 11.3428C33.5502 11.5225 31.8769 12.8027 31.8769 15.0264C31.8769 17.2725 33.5727 18.71 35.9423 18.71Z" fill="white"/>
<path d="M45.5565 22.9663C48.308 22.9663 49.622 21.9556 50.6664 18.9009L55.1024 6.22168H52.16L49.2963 15.8125H49.1054L46.2304 6.22168H43.1757L47.5668 18.564L47.4208 19.103C47.0614 20.2373 46.3988 20.6865 45.2196 20.6865C45.0287 20.6865 44.6132 20.6753 44.4559 20.6416V22.9214C44.6356 22.9551 45.3881 22.9663 45.5565 22.9663Z" fill="white"/>
</svg>
