<svg width="62" height="24" viewBox="0 0 62 24" fill="none" xmlns="http://www.w3.org/2000/svg">
<path d="M28.9649 11.6725V18.7485H26.7192V1.27478H32.6725C34.1812 1.27478 35.4678 1.77771 36.5204 2.78356C37.5965 3.78941 38.1345 5.01748 38.1345 6.46777C38.1345 7.95316 37.5965 9.18123 36.5204 10.1754C35.4795 11.1695 34.1929 11.6608 32.6725 11.6608H28.9649V11.6725ZM28.9649 3.42683V9.52041H32.7193C33.6081 9.52041 34.3567 9.21632 34.9415 8.61982C35.538 8.02333 35.8421 7.29818 35.8421 6.47947C35.8421 5.67245 35.538 4.959 34.9415 4.36251C34.3567 3.74262 33.6198 3.43853 32.7193 3.43853H28.9649V3.42683Z" fill="white"/>
<path d="M44.0057 6.39758C45.6665 6.39758 46.9765 6.84203 47.9355 7.73092C48.8946 8.61981 49.3741 9.83619 49.3741 11.38V18.7485H47.2338V17.0877H47.1402C46.2162 18.4561 44.9765 19.1344 43.4326 19.1344C42.111 19.1344 41.0115 18.7485 40.1226 17.9649C39.2338 17.1812 38.7893 16.2105 38.7893 15.0409C38.7893 13.8011 39.2571 12.8186 40.1928 12.0935C41.1285 11.3567 42.38 10.9941 43.9355 10.9941C45.2688 10.9941 46.3683 11.2397 47.2221 11.7309V11.2163C47.2221 10.4327 46.918 9.7777 46.2981 9.22799C45.6782 8.67829 44.9531 8.40928 44.1227 8.40928C42.8712 8.40928 41.877 8.9356 41.1519 9.99993L39.1753 8.76016C40.263 7.18121 41.877 6.39758 44.0057 6.39758ZM41.1051 15.076C41.1051 15.6608 41.3507 16.152 41.8536 16.5379C42.3449 16.9239 42.9297 17.1227 43.5963 17.1227C44.5437 17.1227 45.3858 16.7719 46.1227 16.0701C46.8595 15.3684 47.2338 14.5496 47.2338 13.6023C46.532 13.0526 45.5612 12.7719 44.3098 12.7719C43.3975 12.7719 42.6373 12.9941 42.0291 13.4268C41.4092 13.883 41.1051 14.4327 41.1051 15.076Z" fill="white"/>
<path d="M61.5846 6.78369L54.0992 24.0001H51.7834L54.567 17.9767L49.6313 6.78369H52.0758L55.6314 15.3685H55.6781L59.1401 6.78369H61.5846Z" fill="white"/>
<path d="M20.0326 10.2457C20.0326 9.51355 19.9671 8.81297 19.8455 8.13928H10.4326V11.9989L15.8537 12.0001C15.6338 13.2843 14.9262 14.3791 13.842 15.1089V17.613H17.0689C18.9531 15.8691 20.0326 13.2913 20.0326 10.2457Z" fill="#4285F4"/>
<path d="M13.8433 15.1089C12.9451 15.7148 11.7883 16.0692 10.4351 16.0692C7.82107 16.0692 5.60353 14.3077 4.80937 11.9335H1.48071V14.5159C3.12984 17.7885 6.51932 20.0341 10.4351 20.0341C13.1416 20.0341 15.4152 19.144 17.0702 17.6118L13.8433 15.1089Z" fill="#34A853"/>
<path d="M4.49575 10.0176C4.49575 9.35094 4.60686 8.7065 4.8092 8.10065V5.51819H1.48054C0.798664 6.87141 0.415039 8.3989 0.415039 10.0176C0.415039 11.6363 0.799833 13.1638 1.48054 14.517L4.8092 11.9346C4.60686 11.3287 4.49575 10.6843 4.49575 10.0176Z" fill="#FABB05"/>
<path d="M10.4351 3.96492C11.9123 3.96492 13.2351 4.47369 14.2796 5.46785L17.1392 2.61053C15.4024 0.992985 13.138 0 10.4351 0C6.52049 0 3.12984 2.24562 1.48071 5.51814L4.80937 8.1006C5.60353 5.72633 7.82107 3.96492 10.4351 3.96492Z" fill="#E94235"/>
</svg>
