<svg width="24" height="24" viewBox="0 0 24 24" fill="none" xmlns="http://www.w3.org/2000/svg">
<mask id="mask0_5063_219581" style="mask-type:alpha" maskUnits="userSpaceOnUse" x="0" y="0" width="24" height="24">
<rect width="24" height="24" rx="4.8" fill="#FFE600"/>
</mask>
<g mask="url(#mask0_5063_219581)">
<rect x="0.00012207" width="24" height="24" rx="4.8" fill="#F3D2BB"/>
<path d="M13.8289 9.23577C13.9706 9.14764 14.0985 9.06035 14.2386 8.99566C14.3248 8.95582 14.4245 8.81507 14.5138 8.7826C14.6205 8.7438 14.7343 8.73366 14.8341 8.68379C15.0819 8.55987 15.2773 8.45736 15.4457 8.21528C15.6042 7.98736 15.5304 7.7143 15.4849 7.46398C15.4038 7.01788 15.249 6.69557 14.921 6.37535C14.5437 6.00705 13.9171 5.9063 13.6313 5.43324C13.5667 5.32633 13.5707 5.18054 13.4916 5.0857C13.4045 4.98117 13.1394 4.97035 13.0384 4.95281C12.6033 4.87723 12.1654 4.81587 11.7266 4.76541C10.7897 4.65766 9.91498 4.66498 8.98037 4.82674C8.26323 4.95086 7.62333 5.1647 6.94963 5.42642C6.36683 5.65284 5.80123 6.01263 5.36014 6.45372C5.12491 6.68895 4.9342 6.96461 4.67527 7.17606C4.41861 7.38567 4.13914 7.56711 3.88308 7.77745C3.68609 7.93926 3.51657 8.14979 3.37199 8.36009C3.26969 8.50889 3.24732 8.68648 3.16755 8.84393C2.88775 9.39617 2.48097 9.91305 2.01589 10.3159C1.65607 10.6275 1.28789 10.9295 0.932373 11.2461C0.659291 11.4892 0.368879 11.7098 0.162328 12.0161C-0.0405974 12.317 -0.203479 12.614 -0.330025 12.9514C-0.492223 13.3839 -0.437354 13.7378 -0.437354 14.1797C-0.437354 14.5729 -0.406688 14.9575 -0.406688 15.3518C-0.406688 16.0353 -0.376023 16.7039 -0.376023 17.386V18.3519C-0.376023 18.5699 -0.392459 18.824 -0.307877 19.0249C-0.230614 19.2084 -0.19203 19.5445 -0.19203 19.7455C-0.19203 19.9256 -0.103643 20.1619 -0.014851 20.3128C0.217826 20.7084 0.64722 20.9676 0.896597 21.3555C1.08748 21.6524 1.46001 21.7541 1.79101 21.7541C3.63401 21.7541 5.56171 21.1214 7.13703 20.1902C7.94541 19.7123 8.70061 19.1356 9.56302 18.7523C10.3739 18.3919 11.2663 18.3576 12.1219 18.5274C12.4432 18.5912 12.7655 18.5681 13.0879 18.6433C13.4374 18.7248 13.7943 18.804 14.139 18.9039C14.4152 18.984 14.6814 19.0974 14.9584 19.1765C15.171 19.2373 15.3832 19.2755 15.582 19.3775C16.0155 19.6002 15.8804 19.2498 15.7915 19.001C15.6919 18.7221 15.5807 18.3563 15.3861 18.1339C15.2696 18.0008 15.2104 17.8328 15.1033 17.6926C15.0019 17.5601 14.8748 17.471 14.7574 17.3536C14.5484 17.1446 14.3236 16.9168 14.1594 16.6705C14.0518 16.509 13.9476 16.3172 13.8681 16.1406C13.7643 15.9098 13.6531 15.7893 13.478 15.6142C13.1048 15.241 12.8611 14.7633 12.6551 14.2871C12.5159 13.9651 12.4232 13.6748 12.3502 13.3313C12.2926 13.0602 12.3195 12.7676 12.3195 12.4914C12.3195 12.2091 12.3212 11.9479 12.374 11.672C12.4178 11.4433 12.4767 11.2252 12.5274 10.9973C12.6432 10.4759 12.9491 10.0828 13.2838 9.68723C13.3599 9.59723 13.4477 9.56079 13.5393 9.4879C13.6406 9.40737 13.7179 9.30488 13.8289 9.23577Z" fill="#01B6D0"/>
<path d="M21.9456 20.9861C22.4223 20.9796 22.9392 20.8923 23.3836 20.6968C23.5468 20.625 23.7413 20.5884 23.8248 20.7459C23.8623 20.8168 23.9512 20.7445 23.9982 20.7993C24.0355 20.8428 24.0069 20.9421 24.0554 21.0013C24.1312 21.094 24.1145 21.1424 24.1487 21.2529C24.1903 21.3867 24.244 21.4528 24.244 21.6036V22.101C24.244 22.5844 24.0357 22.8903 23.6761 23.2083C23.4241 23.4311 23.1624 23.6297 22.8528 23.7686C22.4766 23.9374 22.0693 24.029 21.6864 24.1803C21.229 24.3609 20.8546 24.593 20.3676 24.6929C19.9204 24.7847 19.4858 24.8942 19.0259 24.8968C18.4401 24.9002 17.8596 24.7967 17.2725 24.7939C16.5134 24.7903 15.7542 24.7939 14.9951 24.7939C14.1968 24.7939 13.4165 24.6902 12.6223 24.6376C11.8355 24.5856 11.0246 24.7094 10.2419 24.7768C9.31386 24.8567 8.38703 24.9832 7.45369 24.9102C7.02917 24.877 6.61931 24.7734 6.20347 24.6872C5.75787 24.5948 5.29395 24.535 4.85795 24.4013C4.4539 24.2775 4.07223 24.1346 3.65728 24.0468C3.37622 23.9874 3.11561 23.942 2.86065 23.8029C2.50751 23.6103 2.19073 23.476 1.90392 23.1892C1.7276 23.0129 1.64573 22.8367 1.53419 22.6137C1.41804 22.3814 1.26183 22.1598 1.1759 21.9142C1.07182 21.6169 1.12645 21.3745 0.882398 21.1233C0.803003 21.0416 -0.0556096 20.3998 0.384977 20.3019C0.500737 20.2762 0.602432 20.3283 0.710874 20.3343C0.882811 20.3438 1.0839 20.3527 1.26166 20.3705C1.55492 20.3998 1.84307 20.5021 2.14024 20.5058C2.78587 20.514 3.39768 20.664 4.03273 20.7593C4.90956 20.8908 5.79781 20.8257 6.67993 20.8908C6.90982 20.9078 7.13349 20.9738 7.36412 20.9804C7.60646 20.9873 7.85513 20.9367 8.09024 20.8832C8.52708 20.7836 8.94661 20.5754 9.29853 20.3C9.69145 19.9925 10.0106 19.6259 10.4363 19.3566C10.7664 19.1478 11.1171 19.0468 11.4826 18.9202C12.4293 18.5922 13.3474 18.5732 14.3223 18.7982C14.9489 18.9428 15.3975 19.4624 16.0356 19.5948C16.3715 19.6645 16.7206 19.6416 17.0572 19.7035C17.2785 19.7441 17.4895 19.8324 17.707 19.8883C18.0446 19.9751 18.4252 20.0317 18.7381 20.1799C18.8849 20.2494 19.0459 20.3684 19.2012 20.4029C19.4451 20.4571 19.6666 20.6122 19.914 20.6697C20.1752 20.7305 20.4154 20.8572 20.6744 20.9327C21.0679 21.0475 21.5405 20.9916 21.9456 20.9861Z" fill="#01B6D0"/>
<path d="M21.6368 20.8507C22.1859 20.841 22.7806 20.711 23.2947 20.4206C23.5003 20.3045 23.742 20.2649 23.8306 20.4838C23.8744 20.5921 23.9782 20.4815 24.033 20.5654C24.0766 20.6318 24.0432 20.7835 24.0998 20.874C24.1883 21.0155 24.1688 21.0896 24.2088 21.2583C24.2573 21.4627 24.3201 21.5637 24.3201 21.7941V22.554C24.3201 23.2925 24.0769 23.76 23.657 24.2457C23.3628 24.5861 23.0573 24.8895 22.6959 25.1018C22.2567 25.3596 21.7812 25.4996 21.3342 25.7307C20.8002 26.0067 20.3631 26.3613 19.7945 26.5139C19.2725 26.6541 18.7651 26.8215 18.2282 26.8255C17.5443 26.8305 16.8667 26.6725 16.1813 26.6682C15.295 26.6627 14.4087 26.6682 13.5225 26.6682C12.5906 26.6682 11.6795 26.5097 10.7524 26.4295C9.83388 26.35 8.88716 26.5391 7.97347 26.642C6.89002 26.7641 5.808 26.9574 4.71839 26.8458C4.22278 26.7951 3.7443 26.6369 3.25883 26.5052C2.73862 26.3641 2.19702 26.2726 1.68803 26.0684C1.21632 25.8792 0.770739 25.6609 0.286316 25.5269C-0.0418081 25.4361 -0.346056 25.3666 -0.643707 25.1542C-1.05597 24.8599 -1.42579 24.6548 -1.76062 24.2166C-1.96647 23.9472 -2.06204 23.6781 -2.19226 23.3373C-2.32786 22.9824 -2.51022 22.6438 -2.61055 22.2687C-2.73205 21.8144 -2.66828 21.4442 -2.95319 21.0603C-3.04588 20.9355 -4.04826 19.955 -3.5339 19.8054C-3.39876 19.7661 -3.28003 19.8457 -3.15343 19.8549C-2.95271 19.8695 -2.71795 19.8831 -2.51043 19.9102C-2.16806 19.955 -1.83166 20.1112 -1.48473 20.117C-0.731001 20.1294 -0.0167577 20.3587 0.724628 20.5042C1.74827 20.7051 2.78525 20.6056 3.81506 20.7051C4.08345 20.731 4.34457 20.8319 4.61381 20.842C4.89674 20.8525 5.18704 20.7753 5.46151 20.6935C5.97151 20.5414 6.46127 20.2233 6.87212 19.8025C7.33083 19.3327 7.70341 18.7727 8.20041 18.3612C8.58575 18.0422 8.99521 17.8879 9.4219 17.6944C10.5271 17.1934 11.5989 17.1644 12.7371 17.5081C13.4686 17.729 13.9923 18.5228 14.7373 18.7252C15.1294 18.8317 15.5369 18.7967 15.9298 18.8911C16.1883 18.9533 16.4346 19.0881 16.6885 19.1736C17.0826 19.3062 17.527 19.3927 17.8922 19.6191C18.0636 19.7253 18.2516 19.907 18.4329 19.9597C18.7176 20.0425 18.9762 20.2795 19.265 20.3674C19.5699 20.4602 19.8504 20.6538 20.1528 20.7692C20.6121 20.9445 21.1638 20.8591 21.6368 20.8507Z" fill="#01B6D0"/>
<path d="M12.7545 9.24793C13.039 9.01449 13.3934 8.88239 13.7553 8.82121C13.7892 8.87818 13.9307 8.7704 13.9629 8.74662C14.0062 8.71473 14.0605 8.6882 14.1111 8.67135C14.177 8.64939 14.1927 8.58103 14.2328 8.53041C14.3278 8.41057 14.4111 8.32984 14.4018 8.17084C14.3957 8.06714 14.3721 8.01594 14.2801 7.96824C14.0934 7.87144 13.9006 7.73235 13.6907 7.70237C13.4167 7.66323 13.1445 7.73709 12.8794 7.79526C12.7038 7.83382 12.5415 7.91025 12.3749 7.97624C12.2164 8.03904 12.0618 8.11115 11.9433 8.23731C11.8408 8.34646 11.733 8.44852 11.6302 8.55603C11.5646 8.62457 11.5203 8.79077 11.494 8.87956C11.432 9.08933 11.3185 9.27731 11.2426 9.48177C11.1971 9.60419 11.1923 9.729 11.1593 9.85334C11.092 10.1065 11.0389 10.3699 10.9439 10.6133C10.8401 10.8792 10.791 11.1587 10.8246 11.4422C10.8602 11.7432 10.845 12.0518 10.9062 12.3495C10.9353 12.4907 10.8951 12.6247 10.9719 12.7563C11.0489 12.8883 11.082 13.0631 11.1353 13.2055C11.2031 13.387 11.2442 13.5785 11.3034 13.7629C11.3699 13.9698 11.3967 14.1892 11.4844 14.3891C11.5577 14.5563 11.6425 14.7198 11.7054 14.8912C11.753 15.0206 11.8028 15.1838 11.808 15.3229C11.8139 15.4834 11.949 15.6005 11.9777 15.7521C12.0345 16.0512 12.146 16.3574 12.3013 16.6202C12.3718 16.7396 12.4714 16.8298 12.5719 16.9229C12.6717 17.0153 12.7638 17.1155 12.865 17.2064C13.1942 17.5019 13.5513 17.7443 13.9781 17.8791C14.1021 17.9182 14.2306 17.9143 14.3585 17.9143C14.3998 17.9143 14.423 17.9221 14.3946 17.8775C14.318 17.7571 14.2604 17.634 14.2072 17.5035C14.1459 17.3532 14.121 17.1846 14.0534 17.0382C14.0067 16.9369 13.9196 16.8578 13.8436 16.7788C13.7608 16.6926 13.689 16.5949 13.6306 16.4905C13.5014 16.2593 13.3599 16.0401 13.235 15.8082C13.1866 15.7184 13.1776 15.6132 13.1309 15.5215C13.0857 15.4327 13.0548 15.3363 13.0156 15.2444C12.9795 15.1597 12.9448 15.0674 12.8858 14.9962C12.8234 14.9207 12.7663 14.8379 12.7305 14.7463C12.664 14.5764 12.6493 14.3849 12.5223 14.2458C12.3713 14.0805 12.2516 13.8871 12.1427 13.694C11.9053 13.2732 11.8498 12.7877 11.8096 12.315C11.7932 12.123 11.8243 11.9218 11.84 11.7304C11.8565 11.5289 11.8412 11.3242 11.8832 11.125C11.9214 10.9441 11.9549 10.7375 12.0258 10.5669C12.0911 10.4096 12.1371 10.2376 12.2132 10.0856C12.2962 9.91944 12.4045 9.76206 12.4966 9.60029C12.5314 9.5392 12.5782 9.4894 12.6184 9.43212C12.6626 9.36904 12.694 9.2976 12.7545 9.24793Z" fill="#1B90A0"/>
<path d="M11.8429 8.05341C12.1737 7.91264 12.4659 7.74529 12.8341 7.73729C12.82 7.73024 13.0807 7.54848 13.105 7.53208C13.1784 7.4825 13.3034 7.40637 13.3068 7.30786C13.3157 7.04948 13.0195 6.89129 12.8199 6.79694C12.6321 6.70816 12.4671 6.77913 12.2834 6.81135C12.0829 6.84653 11.9159 6.93912 11.7292 7.01636C11.5149 7.10507 11.3468 7.24528 11.1703 7.39114C11.1039 7.44594 11.0217 7.51728 10.9797 7.59375C10.9426 7.66118 10.9259 7.7252 10.87 7.78114C10.8082 7.84291 10.733 7.88752 10.6978 7.97093C10.6675 8.0427 10.6375 8.10993 10.5969 8.17674C10.5017 8.33316 10.4147 8.50582 10.3086 8.65322C10.1844 8.82575 10.1414 9.01477 10.1068 9.22259C10.0763 9.40539 9.98819 9.58182 9.97785 9.76795C9.9651 9.99741 9.98894 10.2344 10.0059 10.4631C10.0301 10.7903 10.0196 11.1102 10.1212 11.4264C10.1742 11.5912 10.1957 11.7505 10.2221 11.9205C10.2487 12.0921 10.3029 12.2469 10.3094 12.4218C10.3206 12.7258 10.355 13.0331 10.4351 13.3267C10.4735 13.4676 10.4914 13.6163 10.5544 13.7488C10.6207 13.8879 10.6942 14.0189 10.7843 14.1436C10.9307 14.3463 11.0529 14.5654 11.1446 14.797C11.1838 14.8959 11.2467 15.1273 11.3865 15.1174C11.5334 15.1069 11.4387 14.8426 11.4041 14.7714C11.3778 14.7174 11.3477 14.6688 11.3248 14.6129C11.2948 14.5394 11.2361 14.4924 11.2055 14.4223C11.1209 14.228 11.0844 14.0124 11.0037 13.8168C10.9565 13.7026 10.9321 13.5884 10.9068 13.4677C10.8836 13.3569 10.8409 13.2523 10.8131 13.1426C10.7518 12.9008 10.7049 12.659 10.6609 12.4138C10.6408 12.3015 10.6271 12.1933 10.6257 12.0791C10.6245 11.9791 10.5934 11.8859 10.5825 11.7876C10.5534 11.5256 10.5445 11.2628 10.5544 10.9988C10.5739 10.4838 10.6222 9.97525 10.7707 9.48046C10.7861 9.42901 10.8222 9.38543 10.8387 9.33391C10.869 9.23963 10.8756 9.14442 10.9132 9.05042C11.007 8.81601 11.0761 8.58565 11.2599 8.40176C11.4303 8.23138 11.6249 8.14619 11.8429 8.05341Z" fill="#1B90A0"/>
<path d="M11.3417 7.03755C11.6484 6.86718 11.9585 6.73107 12.3021 6.67464C12.3888 6.66041 12.4726 6.60568 12.5541 6.57308C12.6545 6.53292 12.7628 6.49965 12.8681 6.46177C12.9297 6.43959 12.983 6.40313 13.0474 6.38969C13.1394 6.37054 13.2413 6.35702 13.3245 6.31041C13.4533 6.23829 13.2296 5.98404 13.174 5.93563C13.0882 5.86089 12.9982 5.77069 12.8937 5.72422C12.7933 5.67958 12.6889 5.66032 12.5814 5.63933C12.4148 5.60684 12.2368 5.63286 12.0673 5.6041C11.9271 5.58031 11.8024 5.51026 11.6652 5.47597C11.3258 5.3911 10.9573 5.3779 10.6098 5.34784C9.9989 5.29499 9.42864 5.42986 8.82878 5.52241C8.64341 5.55101 8.4596 5.58175 8.28102 5.64093C8.15086 5.68407 8.03067 5.75325 7.90624 5.80991C7.68614 5.91013 7.45212 5.96885 7.23997 6.08779C7.03587 6.2022 6.85781 6.35525 6.65858 6.47538C6.4639 6.59276 6.28974 6.75221 6.12524 6.90782C5.96971 7.05494 5.85536 7.2342 5.70882 7.3899C5.54408 7.56494 5.4287 7.70343 5.37568 7.93926C5.33174 8.1347 5.28346 8.33136 5.27878 8.53266C5.27424 8.72805 5.24732 8.96367 5.2956 9.15409C5.34933 9.36604 5.59425 9.50286 5.80011 9.52246C6.09257 9.55032 6.2717 9.32512 6.31583 9.0652C6.33705 8.94028 6.34837 8.8204 6.36228 8.69523C6.3756 8.57529 6.45558 8.46257 6.51043 8.35809C6.61173 8.16513 6.69494 7.96931 6.7739 7.76629C6.82835 7.62627 6.84917 7.51726 6.84917 7.36908C6.84917 7.20455 6.9831 6.98084 7.07981 6.85336C7.17964 6.72176 7.41904 6.63142 7.54107 6.77088C7.59359 6.8309 7.64251 6.87341 7.60193 6.95907C7.57112 7.02412 7.5558 7.09618 7.52345 7.16087C7.48113 7.24553 7.42009 7.3227 7.38251 7.40912C7.34414 7.49739 7.28311 7.56503 7.22395 7.63976C7.16958 7.70844 7.13092 7.78819 7.07981 7.85918C6.98325 7.99328 6.94553 8.16667 6.88921 8.32045C6.82157 8.50516 6.74617 8.68285 6.66178 8.86099L6.65927 8.8663C6.57401 9.04627 6.47655 9.25197 6.54086 9.4592C6.57444 9.5674 6.62233 9.67177 6.65538 9.78193C6.68638 9.88526 6.74153 10.0152 6.86679 9.99734C7.00423 9.97771 7.06877 9.85125 7.12465 9.73948C7.16204 9.66471 7.21596 9.5975 7.22315 9.51125C7.23003 9.42868 7.24538 9.36054 7.2672 9.27982C7.29513 9.17644 7.30664 9.08985 7.31044 8.98352C7.31359 8.89522 7.35945 8.79992 7.38251 8.71445C7.40185 8.64277 7.40563 8.57046 7.42576 8.49823C7.44215 8.43941 7.42999 8.37663 7.44898 8.31965C7.50392 8.15483 7.57875 8.02851 7.6644 7.8768C7.74838 7.72802 7.83811 7.56256 7.94548 7.42834C8.05836 7.28725 8.21475 7.16468 8.34268 7.03675C8.43571 6.94372 8.54094 6.85654 8.6558 6.7917C8.83061 6.69302 8.99723 6.57933 9.17313 6.48339C9.24052 6.44663 9.9297 6.03144 9.88985 6.31041C9.87739 6.39763 9.74906 6.47311 9.68885 6.52663C9.62748 6.58118 9.55193 6.61644 9.48064 6.65636C9.3355 6.73764 9.2004 6.83877 9.07222 6.94465C8.93676 7.05656 8.82529 7.20606 8.69104 7.31943C8.54923 7.43918 8.41991 7.57775 8.28903 7.70863C8.16745 7.83021 8.02707 7.91739 7.93027 8.06259C7.85742 8.17185 7.79341 8.29145 7.73487 8.40854C7.66284 8.55259 7.61604 8.71053 7.61315 8.8698C7.61129 8.97169 7.61378 9.10974 7.59072 9.20855C7.54217 9.41664 7.51292 9.62053 7.49463 9.83398C7.48006 10.0039 7.47181 10.21 7.52025 10.3761C7.57033 10.5478 7.71959 10.8099 7.92786 10.7925C8.09545 10.7786 8.10162 10.4806 8.10324 10.3609C8.10449 10.2687 8.10464 10.1761 8.10324 10.0838C8.10205 10.0049 8.06167 9.93631 8.06 9.85961C8.05661 9.7038 8.16061 9.546 8.21215 9.40074C8.26076 9.26377 8.27622 9.16423 8.27622 9.02036C8.27622 8.96686 8.2828 8.8684 8.30825 8.82175C8.33894 8.76548 8.32582 8.71969 8.33708 8.65999C8.34979 8.59261 8.38149 8.52364 8.39954 8.45658C8.44041 8.30481 8.51238 8.13692 8.59654 8.00493C8.7118 7.82418 8.88406 7.67951 9.03378 7.52764C9.19677 7.36233 9.37767 7.21957 9.56472 7.08239C9.66266 7.01057 9.73677 6.91456 9.82819 6.83574C9.90672 6.76805 10.0098 6.72341 10.0989 6.67078C10.3051 6.54891 10.5284 6.40401 10.7523 6.32002C10.8398 6.28722 10.9243 6.24812 11.015 6.22392C11.1064 6.19954 11.179 6.13967 11.26 6.09339C11.383 6.02313 11.4968 5.88209 11.6492 5.87797C11.7205 5.87605 11.8078 5.86759 11.8078 5.95725C11.8078 6.01376 11.7751 6.07725 11.7357 6.11662C11.574 6.27837 11.3201 6.31211 11.1159 6.41131C10.923 6.50501 10.7164 6.56695 10.5313 6.67798C10.4458 6.72929 10.3553 6.7627 10.2943 6.84696C10.2024 6.97384 10.0963 7.08387 10.014 7.21853C9.98937 7.25879 9.98205 7.30181 9.97634 7.34746C9.96848 7.41033 9.86279 7.47046 9.82739 7.52044C9.74865 7.63159 9.65705 7.72535 9.58474 7.84156C9.53926 7.91467 9.47213 7.97056 9.43259 8.04817C9.38872 8.13427 9.34751 8.2168 9.29645 8.29963C9.22424 8.41676 9.1493 8.52851 9.07222 8.64237C9.01433 8.7279 8.99646 8.84832 8.96171 8.94428C8.91624 9.06987 8.87822 9.18843 8.84399 9.31746C8.81328 9.43322 8.75558 9.5365 8.73028 9.6546C8.69083 9.83868 8.7005 10.0192 8.68303 10.2056C8.65695 10.4837 8.65409 10.7508 8.66461 11.0296C8.67489 11.3021 8.65932 11.5823 8.68303 11.8536C8.69759 12.0203 8.73177 12.1843 8.76582 12.3478L8.76631 12.3501C8.79363 12.4812 8.83701 12.6074 8.83839 12.7425C8.84063 12.9624 8.94837 13.1957 9.07623 13.3736C9.22741 13.5839 9.36079 13.8116 9.53749 14.0014C9.67182 14.1457 9.74295 14.3536 9.85061 14.5187C9.89826 14.5918 9.95376 14.6295 9.94831 14.7221C9.94582 14.7644 9.84805 14.7394 9.82499 14.7285C9.74247 14.6896 9.69138 14.5771 9.6392 14.5059C9.46789 14.2723 9.24228 14.0786 9.03939 13.8757C8.97271 13.809 8.96279 13.7513 8.93128 13.6683C8.90764 13.6059 8.85921 13.5516 8.82317 13.4953C8.71917 13.3328 8.58352 13.1902 8.52127 13.0052C8.44815 12.7879 8.42993 12.561 8.36831 12.3429C8.34589 12.2636 8.2801 11.8819 8.14649 11.8744C8.01523 11.8672 7.91585 11.9526 7.91585 12.0939C7.91585 12.2339 7.97625 12.3499 8.00875 12.4799C8.02663 12.5514 8.01671 12.623 8.03838 12.6953C8.05975 12.7665 8.08319 12.8384 8.10645 12.9091C8.15473 13.0558 8.21063 13.2004 8.26901 13.3431C8.3088 13.4404 8.39207 13.5048 8.4564 13.5834C8.54218 13.6882 8.56803 13.8347 8.66221 13.9325C8.82825 14.105 8.94826 14.3573 9.05461 14.57C9.17348 14.8077 9.30413 15.043 9.45821 15.2587C9.53473 15.3658 9.65081 15.3442 9.74651 15.4348C9.79136 15.4773 9.78971 15.5213 9.82178 15.5614C9.84007 15.5842 9.90518 15.611 9.9339 15.6294C10.0244 15.6877 10.0628 15.7947 10.1934 15.744C10.3363 15.6884 10.4714 15.6799 10.6258 15.6799C10.7873 15.6799 10.9663 15.7002 11.1159 15.6254C11.1832 15.5918 11.1524 15.5372 11.1439 15.4781C11.1346 15.4127 11.0716 15.3623 11.0438 15.3051L11.0385 15.2941C10.9901 15.1948 10.9407 15.0933 10.9069 14.988C10.8637 14.8538 10.7873 14.7093 10.7115 14.5908C10.6122 14.4357 10.5445 14.2645 10.456 14.1039C10.4107 14.0217 10.3481 13.9523 10.3087 13.8669C10.2644 13.7708 10.2342 13.6654 10.1789 13.5754C10.1246 13.4869 10.094 13.3886 10.0348 13.3015C9.98696 13.2311 9.95618 13.1731 9.92589 13.0933C9.89718 13.0176 9.85011 12.9739 9.79411 12.9219L9.78975 12.9179C9.73171 12.864 9.72244 12.761 9.67523 12.6961C9.61548 12.6139 9.62143 12.5063 9.58714 12.4142C9.55773 12.3351 9.50787 12.2568 9.49025 12.1739C9.4232 11.8588 9.35731 11.5305 9.35731 11.2082C9.35731 11.0299 9.38297 10.8554 9.38614 10.678C9.38841 10.5512 9.43477 10.427 9.45821 10.3033C9.48163 10.1797 9.47808 10.0572 9.51587 9.93568C9.55619 9.80609 9.52845 9.67654 9.55351 9.54569C9.57249 9.44658 9.60733 9.34925 9.63119 9.25099C9.65838 9.13904 9.69361 9.03291 9.73209 8.92426C9.76819 8.82234 9.76833 8.71746 9.79856 8.61515C9.84503 8.45787 9.9339 8.30516 10.0052 8.15788C10.0569 8.05102 10.1241 7.96523 10.2078 7.8816C10.2892 7.80021 10.3657 7.71591 10.444 7.63175C10.5133 7.55737 10.5943 7.51376 10.6738 7.45237C10.7751 7.37415 10.8611 7.29282 10.9749 7.22974C11.0957 7.16281 11.2208 7.1047 11.3417 7.03755Z" fill="#1B90A0"/>
<path d="M7.67406 12.4199C7.69871 12.4885 7.71219 12.5524 7.72964 12.6254C7.7502 12.7114 7.82347 12.7655 7.83538 12.8584C7.86052 13.0545 7.96155 13.2106 8.00025 13.4041C8.01584 13.4821 8.05018 13.5523 8.08896 13.6209C8.12361 13.6823 8.18334 13.7209 8.21799 13.7822C8.30118 13.9294 8.38014 14.0563 8.4429 14.2132C8.47129 14.2842 8.53112 14.3362 8.56118 14.4068C8.59316 14.4818 8.62637 14.567 8.649 14.6451C8.6945 14.8023 8.7692 14.9476 8.85509 15.0887C8.92444 15.2026 9.02728 15.2798 9.08896 15.4032C9.14727 15.5198 9.22621 15.5969 9.31925 15.6899C9.40371 15.7744 9.4826 15.8583 9.56477 15.9444C9.59475 15.9758 9.6274 16.0053 9.65796 16.0358C9.68277 16.0606 9.58293 16.0789 9.55581 16.0887C9.44316 16.1292 9.34812 16.1774 9.22606 16.1774C9.07231 16.1774 8.99251 15.9913 8.91602 15.8835C8.79473 15.7126 8.69275 15.533 8.55581 15.3745C8.42779 15.2264 8.32015 15.0385 8.25025 14.8557C8.17602 14.6616 8.03763 14.4961 7.91244 14.3351C7.86232 14.2707 7.79962 14.2116 7.75294 14.1451C7.70616 14.0786 7.69891 13.9779 7.65437 13.905C7.62794 13.8617 7.59638 13.8195 7.57373 13.7742C7.55856 13.7438 7.53003 13.7323 7.51638 13.7016C7.48225 13.6248 7.45902 13.5358 7.43215 13.4552C7.41294 13.3976 7.39806 13.3035 7.35509 13.258C7.27135 13.1694 7.29727 13.0739 7.28251 12.9588C7.26768 12.8431 7.27491 12.718 7.24935 12.6048C7.22798 12.5101 7.18524 12.4104 7.17857 12.3136C7.1736 12.2416 7.16278 12.2127 7.12928 12.1541C7.10424 12.1103 7.03518 12.1888 7.02892 12.2132C6.98207 12.3964 6.9546 12.5665 6.95186 12.758C6.94904 12.9559 6.99288 13.1479 7.04057 13.3387C7.09352 13.5505 7.09023 13.7498 7.20993 13.9426C7.35634 14.1785 7.42879 14.4397 7.56118 14.681C7.78739 15.0932 8.1142 15.4333 8.37839 15.8208C8.47483 15.9622 8.53204 16.1229 8.62122 16.267C8.67527 16.3543 8.75831 16.4569 8.75831 16.5645C8.75831 16.6687 8.68494 16.7117 8.63824 16.7984C8.58467 16.8979 8.59427 17.0742 8.51638 17.1613C8.47281 17.21 8.38809 17.2878 8.31925 17.2903C8.22769 17.2937 8.1019 17.2704 8.04147 17.1935C7.9683 17.1004 7.89202 17.0833 7.79774 17.0233C7.71763 16.9723 7.66114 16.8939 7.58448 16.8387C7.52443 16.7955 7.51001 16.729 7.43573 16.6899C7.35119 16.6454 7.28553 16.5595 7.21889 16.4928C7.05201 16.3259 6.96858 16.1152 6.86763 15.9032C6.78707 15.734 6.6938 15.5288 6.6938 15.3396C6.6938 15.2953 6.67819 15.2535 6.73502 15.2589C6.8283 15.2678 6.8871 15.336 6.9438 15.4032C7.05158 15.5309 7.17451 15.6614 7.32283 15.7419C7.37653 15.7711 7.42833 15.7969 7.48412 15.8226C7.55292 15.8542 7.58882 15.8638 7.52892 15.7903C7.3621 15.5856 7.24053 15.318 7.12839 15.0797C6.99511 14.7965 7.0198 14.479 6.89452 14.1926C6.87215 14.1415 6.83752 14.098 6.81477 14.0475C6.79044 13.9934 6.79227 13.9354 6.74219 13.896C6.69919 13.8623 6.64758 13.7998 6.64541 13.7455C6.64407 13.7121 6.57895 13.6077 6.54864 13.5806C6.52376 13.5584 6.47054 13.5786 6.45545 13.5484C6.44164 13.5208 6.47192 13.4677 6.42767 13.4677C6.33801 13.4677 6.17231 13.577 6.12928 13.6523C6.0798 13.7389 5.8984 13.3079 5.89093 13.2813C5.85242 13.1442 5.84527 12.9903 5.82283 12.8494C5.80445 12.734 5.76015 12.621 5.75832 12.5036C5.75528 12.309 5.76885 12.0631 5.85778 11.8853C5.95951 11.6818 6.16933 11.5176 6.38824 11.4597C6.48797 11.4333 6.64133 11.4034 6.72606 11.4839C6.7704 11.526 6.84184 11.6582 6.90348 11.6613C7.07395 11.6698 7.24209 11.4706 7.41244 11.5842C7.50816 11.648 7.56697 11.7533 7.62928 11.8468C7.6761 11.917 7.71934 11.9602 7.72516 12.0475C7.72862 12.0993 7.73451 12.1654 7.72516 12.2168C7.71768 12.258 7.66634 12.2608 7.649 12.2903C7.62461 12.3318 7.58174 12.4193 7.65348 12.4193C7.65558 12.4193 7.65764 12.4194 7.65962 12.4194C7.66004 12.4079 7.66197 12.3996 7.66735 12.4018C7.66804 12.4021 7.66879 12.4026 7.66961 12.4032C7.68765 12.4176 7.68522 12.4199 7.67406 12.4199Z" fill="#1B90A0"/>
<path d="M5.28221 14.6839C5.22775 14.5456 5.22516 14.3907 5.22562 14.241C5.20531 14.2005 5.20657 14.2317 5.20963 14.1767C5.2107 14.1575 5.21659 14.1456 5.2258 14.1351C5.23338 14.1264 5.2432 14.1187 5.25443 14.1086C5.29488 14.0722 5.37364 14.1128 5.42827 14.088C5.48568 14.0619 5.61451 14.0681 5.66124 14.1122C5.74636 14.1926 5.72882 14.3746 5.76608 14.4823C5.79438 14.564 5.84739 14.6189 5.85389 14.7099C5.86044 14.8015 5.82933 14.8911 5.83956 14.9832C5.84767 15.0562 5.86618 15.1559 5.91931 15.209C5.95912 15.2488 5.99408 15.2894 6.01966 15.338C6.07998 15.4526 6.16506 15.56 6.26429 15.6436C6.37014 15.7327 6.48997 15.8753 6.6254 15.9061C6.75395 15.9353 6.88448 16.0546 6.96411 16.1534C7.02296 16.2265 7.09787 16.2925 7.14511 16.3739C7.20344 16.4743 7.2483 16.5702 7.33149 16.6534C7.42944 16.7514 7.52306 16.8612 7.63615 16.942C7.7203 17.0021 7.75377 17.0879 7.82253 17.1606C7.86884 17.2095 7.90547 17.2847 7.95873 17.3255C8.01257 17.3666 8.07219 17.3814 8.11196 17.4411C8.13535 17.4761 8.13621 17.4776 8.14601 17.5217C8.15576 17.5656 8.23061 17.5809 8.24905 17.6283C8.27933 17.7062 8.19355 17.8406 8.12898 17.8703C7.99456 17.932 7.7743 17.9161 7.63615 17.8774C7.44568 17.8241 7.27458 17.7246 7.08956 17.6606C7.01697 17.6355 6.9686 17.5912 6.90318 17.5566C6.80887 17.5069 6.75657 17.4355 6.67737 17.3739C6.53827 17.2657 6.40064 17.1581 6.27414 17.0316C6.21443 16.9718 6.14145 16.9109 6.08956 16.8452C6.02803 16.7672 6.01456 16.697 5.92827 16.6373C5.75488 16.5173 5.60362 16.3635 5.43723 16.235C5.35988 16.1752 5.28296 16.1576 5.21769 16.0808C5.1511 16.0025 5.05341 15.9485 4.97755 15.8792C4.82477 15.7397 4.66601 15.6208 4.49457 15.5065C4.3976 15.4418 4.32877 15.3471 4.24189 15.2699C4.15826 15.1956 4.13431 15.0854 4.07074 14.9984C4.01722 14.9252 3.92671 14.8299 3.8306 14.8228C3.75346 14.8171 3.64837 14.8334 3.64511 14.9312C3.64278 15.0013 3.70631 15.0459 3.70963 15.1122C3.71181 15.1559 3.72913 15.1859 3.7383 15.2287C3.76622 15.359 3.88841 15.482 3.99905 15.554C4.12451 15.6355 4.26632 15.692 4.39063 15.7735C4.50613 15.8492 4.57983 15.913 4.66124 16.0235C4.72858 16.1149 4.77427 16.185 4.86465 16.2583C4.97374 16.3467 5.0542 16.4588 5.16214 16.5477C5.25687 16.6257 5.37314 16.6701 5.47038 16.743C5.60584 16.8446 5.73481 16.9487 5.86733 17.0531C5.97057 17.1344 6.10117 17.1747 6.20963 17.2484C6.31029 17.3168 6.3626 17.4343 6.45873 17.5056L6.46629 17.5112C6.64105 17.6409 6.80309 17.7611 6.99995 17.8577C7.09992 17.9068 7.21298 17.9287 7.32253 17.9473C7.37096 17.9556 7.51218 17.9614 7.51608 18.0316C7.52158 18.1306 7.2946 18.1886 7.22576 18.2009C7.14269 18.2157 7.05264 18.2412 6.96859 18.2412C6.9065 18.2412 6.8502 18.2107 6.79027 18.209C6.72085 18.2069 6.65377 18.1673 6.58776 18.1445C6.48629 18.1094 6.37569 18.0804 6.28042 18.0307C6.09131 17.932 5.8709 17.8965 5.66124 17.8703C5.54099 17.8552 5.40454 17.7707 5.29655 17.7153C5.28255 17.7081 5.19288 17.6635 5.11701 17.628C5.06191 17.6114 5.00824 17.5936 5.00712 17.5835C5.00649 17.5779 5.05751 17.6002 5.11701 17.628C5.16779 17.6434 5.21978 17.6577 5.23293 17.6642C5.35956 17.7263 5.45119 17.7735 5.59672 17.7735C5.77397 17.7735 5.93744 17.8318 6.11644 17.821C6.20066 17.8159 6.14695 17.8103 6.11285 17.7932C6.1003 17.7869 6.12144 17.747 6.10927 17.7251C6.07604 17.6653 5.97083 17.66 5.91931 17.6247C5.8236 17.5593 5.70175 17.5374 5.60927 17.467C5.5434 17.4169 5.47825 17.3763 5.41124 17.3299C5.34014 17.2807 5.27402 17.2801 5.19171 17.2726C5.1135 17.2655 5.01488 17.2225 4.9444 17.1893C4.82321 17.1321 4.67903 17.0956 4.57164 17.0154C4.51337 16.9719 4.47931 16.9077 4.43185 16.8541C4.38679 16.8033 4.33262 16.7631 4.2831 16.717C4.06808 16.5169 3.93569 16.2403 3.75891 16.0083C3.67997 15.9047 3.60162 15.8457 3.5564 15.717C3.51677 15.6042 3.45799 15.5077 3.40318 15.4025C3.3225 15.2477 3.19841 15.1528 3.06984 15.0405C2.96829 14.9519 2.87351 14.8414 2.79207 14.7341C2.62329 14.5116 2.65617 14.2107 2.55551 13.9617C2.4871 13.7925 2.35951 13.768 2.1935 13.7287C2.10616 13.708 1.89742 13.671 1.81447 13.717C1.74598 13.7551 1.84082 13.8947 1.85837 13.9473C1.88822 14.0369 1.88705 14.1314 1.88705 14.2269C1.88705 14.7862 2.37694 15.0772 2.6487 15.4993C2.68578 15.5569 2.7369 15.6032 2.77414 15.6606C2.81447 15.7227 2.83767 15.7934 2.87809 15.8559C2.97492 16.0057 3.09146 16.1276 3.20067 16.2663C3.44208 16.573 3.66771 16.8915 3.97665 17.1373C4.21712 17.3286 4.43972 17.5358 4.65766 17.7538C4.77688 17.873 4.89667 17.9894 5.01429 18.1104C5.1141 18.2131 5.23819 18.306 5.18454 18.4572C5.14546 18.5673 5.00752 18.6689 4.88705 18.6086C4.79462 18.5624 4.72649 18.467 4.63615 18.4178C4.49235 18.3393 4.33888 18.2736 4.1935 18.1928C4.067 18.1226 3.98933 17.9297 3.92737 17.8058C3.8568 17.6646 3.7549 17.5725 3.65766 17.4509C3.59567 17.3734 3.50671 17.3152 3.45156 17.2341C3.39591 17.1521 3.36017 17.068 3.27325 17.0145C3.17109 16.9517 3.09589 16.856 3.01698 16.7672C2.89005 16.6244 2.73157 16.5108 2.61196 16.3613C2.52491 16.2525 2.43685 16.1443 2.34583 16.0387C2.27115 15.9521 2.23056 15.8501 2.16124 15.761C2.02699 15.5883 1.92966 15.3955 1.80551 15.217C1.72446 15.1005 1.66087 14.9639 1.54834 14.8739C1.51966 14.8509 1.42625 14.7563 1.38705 14.7771C1.35573 14.7937 1.37092 14.8789 1.37092 14.9061C1.37092 15.0516 1.42035 15.2029 1.50085 15.3237C1.54853 15.3952 1.57879 15.4769 1.62898 15.5486C1.67207 15.6101 1.73016 15.6526 1.77414 15.7126C1.94781 15.9494 2.10336 16.1908 2.26255 16.4378L2.26698 16.4446C2.46469 16.7514 2.74683 16.9751 3.02504 17.2027C3.14626 17.3019 3.22532 17.415 3.3064 17.5477C3.39437 17.6916 3.51128 17.8167 3.61285 17.9509C3.72309 18.0966 3.843 18.2446 3.98741 18.3577C4.13999 18.4772 4.31018 18.5698 4.45963 18.6928C4.58224 18.7938 4.74157 18.8717 4.853 18.9832C4.90085 19.031 4.93472 19.1425 4.91572 19.209C4.87553 19.3496 4.62205 19.3409 4.51608 19.2932C4.47107 19.273 4.4513 19.2082 4.40318 19.1803C4.34774 19.1482 4.30417 19.0982 4.24905 19.0629C4.0933 18.9632 4.06904 18.7599 3.98382 18.6032C3.91627 18.4791 3.76151 18.4568 3.65407 18.3792C3.53897 18.2961 3.3989 18.2502 3.29027 18.1597C3.16763 18.0575 3.03021 17.9301 2.93006 17.8058C2.83189 17.6839 2.76326 17.5599 2.6469 17.4518C2.3924 17.2155 2.23897 16.8876 2.02862 16.6158C1.91079 16.4635 1.78801 16.3197 1.67379 16.1642C1.61308 16.0815 1.51732 16.0253 1.46859 15.9339C1.39688 15.7994 1.37248 15.6451 1.3064 15.5083C1.26082 15.4138 1.19328 15.3698 1.13257 15.2896C0.9932 15.1055 0.900126 14.8973 0.822531 14.6839C0.793356 14.6037 0.783404 14.4988 0.729341 14.4312C0.712356 14.41 0.656533 14.2745 0.662137 14.2493C0.672628 14.2021 0.756427 14.1128 0.797441 14.0997C0.910436 14.0635 1.01473 14.1753 1.12092 14.1911C1.31934 14.2205 1.17737 14.1107 1.17737 13.9993C1.17737 13.8671 1.28313 13.7926 1.30551 13.6696C1.31728 13.6048 1.25604 13.5465 1.23472 13.4903C1.1933 13.3811 1.17238 13.2649 1.1254 13.157C1.06049 13.008 0.956981 12.8608 0.971277 12.6893C0.982555 12.5539 1.08682 12.3914 1.1935 12.3093C1.26274 12.2561 1.4179 12.3342 1.49278 12.3541C1.63186 12.3912 1.68022 12.56 1.77056 12.657C1.85524 12.748 1.82253 12.9232 1.82253 13.0396C1.82253 13.0723 1.8064 13.0876 1.8064 13.1203C1.8064 13.1696 1.82719 13.1962 1.83866 13.2421C1.8912 13.4523 2.10952 13.4496 2.27056 13.39C2.35721 13.3579 2.3064 13.223 2.3064 13.1525C2.3064 13.063 2.32253 12.9794 2.32253 12.89C2.32253 12.7837 2.33752 12.6765 2.28669 12.5799C2.2199 12.453 2.14727 12.3334 2.05551 12.2233C1.97184 12.1229 1.83478 12.0065 1.72576 11.9384C1.67929 11.9093 1.67479 11.8162 1.74189 11.8066C1.88132 11.7867 2.03648 11.8065 2.16931 11.847C2.29299 11.8846 2.33789 11.9567 2.41931 12.0477C2.45104 12.0832 2.46253 12.1283 2.51608 12.1283C2.56789 12.1283 2.61163 12.1303 2.66124 12.1445C2.74142 12.1674 2.77736 12.2823 2.81447 12.3452C2.87078 12.4407 2.95673 12.5482 3.04834 12.6122C3.16865 12.6962 3.22947 12.7576 3.29386 12.8864C3.3777 13.0541 3.48358 13.216 3.58418 13.3739C3.64367 13.4672 3.71398 13.5566 3.75802 13.6588C3.79653 13.7482 3.81596 13.8441 3.85121 13.9348C3.88724 14.0275 3.95158 14.0583 4.0331 14.1041C4.23098 14.2154 4.32512 14.3817 4.46052 14.5558C4.49751 14.6033 4.52509 14.7611 4.57164 14.7744C4.59476 14.781 4.64787 14.9585 4.66124 14.9832C4.69268 15.0411 4.76214 15.0678 4.79386 15.1283C4.82481 15.1874 4.85501 15.2253 4.90228 15.2726C5.02266 15.393 5.12854 15.5596 5.20963 15.709C5.2452 15.7745 5.3356 15.8067 5.40318 15.8255C5.48675 15.8487 5.54233 15.9575 5.58956 16.0244C5.66852 16.1363 5.7814 16.2324 5.87809 16.3291C5.98287 16.4338 6.07456 16.5635 6.1944 16.6516C6.36348 16.776 6.54441 16.8912 6.7383 16.967C6.95237 17.0508 7.13497 17.203 7.3297 17.321C7.42926 17.3813 7.54353 17.4449 7.66572 17.4178C7.68683 17.4131 7.59364 17.3186 7.58956 17.3138C7.50673 17.2159 7.41767 17.1533 7.3064 17.0961C7.20522 17.044 7.14862 16.9222 7.07164 16.8452C7.00118 16.7747 6.92012 16.7144 6.84762 16.6454C6.77812 16.5792 6.72078 16.4998 6.66483 16.4222C6.59914 16.3312 6.50882 16.2841 6.43185 16.2054C6.34501 16.1166 6.27622 16.0106 6.1926 15.9187C6.05339 15.7655 5.93938 15.6068 5.82253 15.4348C5.75733 15.3388 5.67853 15.2564 5.61285 15.1606C5.55958 15.0828 5.47831 15.0284 5.42737 14.95C5.37347 14.8671 5.31839 14.7757 5.28221 14.6839Z" fill="#1B90A0"/>
<path d="M0.628905 9.79465C0.287103 9.99311 -0.00652254 10.2469 -0.359573 10.4301C-0.586367 10.4301 -0.508289 10.659 -0.498905 10.8373C-0.490273 11.0013 -0.437574 11.158 -0.437574 11.3279C-0.437574 11.5044 -0.406909 11.6768 -0.406909 11.8492V13.1304C-0.406909 13.3023 -0.426505 13.4864 -0.405205 13.6568C-0.394267 13.7443 -0.344978 13.7395 -0.291061 13.788C-0.234456 13.8389 -0.225542 13.7771 -0.168399 13.7573C-0.0327383 13.7104 0.173482 13.7689 0.250697 13.8902C0.371203 14.0796 0.537018 14.1163 0.741346 14.2241C0.942134 14.3301 1.02668 14.7905 1.29333 14.6381C1.43774 14.5556 1.49065 14.4186 1.45687 14.2582C1.44248 14.1898 1.37936 13.9308 1.47391 13.9106C1.60122 13.8835 2.12218 13.9204 2.03782 13.6926C1.95736 13.4753 1.78279 13.2942 1.64768 13.1099C1.52039 12.9364 1.13927 12.433 1.40236 12.224C1.62897 12.0441 2.84912 12.0944 2.77549 12.4626C2.75013 12.5893 2.72098 12.695 2.72098 12.8271C2.72098 12.9643 2.87835 12.9393 2.97823 12.9873C3.11028 13.0507 3.27296 13.2992 3.27296 13.4507C3.27296 13.5462 3.21135 13.6221 3.18777 13.713C3.11869 13.9795 3.69064 14.0631 3.41095 14.1969C3.18224 14.3062 3.37433 14.5536 3.36495 14.7318C3.36108 14.8053 3.21591 14.9296 3.14859 14.9431C3.00465 14.9718 3.02103 14.9841 3.07363 15.1185C3.22119 15.4956 3.47745 15.715 3.8556 15.4678C3.96728 15.3948 4.05592 15.2967 4.06856 15.1577C4.08479 14.9791 4.08948 14.9465 4.27129 14.9465C4.38831 14.9465 4.53113 14.9762 4.62224 14.8851C4.69419 14.8132 4.67367 14.6509 4.77557 14.616C4.90236 14.5725 4.96505 14.6768 5.06689 14.6994C5.12985 14.7134 5.13262 14.5745 5.17422 14.5359C5.27497 14.4423 5.46422 14.4849 5.5865 14.4865C5.70398 14.488 5.77025 14.5495 5.85568 14.6228C6.00672 14.7522 6.19868 14.9981 6.24751 15.1935C6.2844 15.3411 6.28299 15.7122 6.45536 15.7676C6.63744 15.8261 7.04677 15.7989 7.20837 15.6961C7.3095 15.6317 7.12965 15.2224 7.29014 15.2224C7.41271 15.2224 7.50729 15.3106 7.63257 15.2667C7.70572 15.2411 7.89134 15.1941 7.87108 15.0828C7.82488 14.8286 7.60255 14.6902 7.54228 14.4558C7.5107 14.333 7.49986 14.3352 7.61383 14.2701C7.74881 14.193 7.87205 14.1791 8.01419 14.1287C8.31063 14.0235 8.28959 13.7389 7.99545 13.6653C7.93654 13.6506 7.29392 13.4741 7.40088 13.3672C7.49802 13.27 7.87095 13.3219 7.75694 13.1065C7.68969 12.9795 7.36668 13.061 7.26118 13.0742C7.00478 13.1062 6.65216 13.1655 6.41788 13.0452C6.12699 12.8958 6.00842 12.741 6.03456 12.4012C6.05432 12.1443 6.22857 11.8472 6.46217 12.0946C6.54508 12.1823 6.76002 12.7269 6.89149 12.6142C6.96675 12.5497 7.27592 11.9798 7.29014 12.3637C7.29561 12.5115 7.24941 12.7079 7.44517 12.7079C7.59213 12.7079 7.8353 12.5913 7.90345 12.4626C8.0193 12.2437 8.23772 12.1673 8.40773 12.3859C8.53129 12.5447 8.4484 12.8919 8.72461 12.8919C8.89238 12.8919 8.98495 12.9003 9.10111 13.0299C9.174 13.1112 9.26935 13.1929 9.36688 13.2445C9.48525 13.3072 9.6214 13.2909 9.74338 13.3519C9.82478 13.3925 9.9526 13.4111 10.0432 13.4132C10.1132 13.4148 10.7438 13.2323 10.5526 13.1048C10.4441 13.0325 10.3639 12.9535 10.3942 12.8135C10.4129 12.727 10.4103 12.5664 10.4862 12.5103C10.8013 12.2769 11.0669 12.3092 11.4453 12.3092C11.5566 12.3092 11.6494 12.3323 11.5697 12.2104C11.4986 12.1017 11.5246 11.9766 11.5152 11.8492C11.5048 11.7093 11.5406 11.4261 11.3959 11.3296C11.2743 11.2486 10.9928 11.2846 10.849 11.299C10.7176 11.3121 10.6229 11.4334 10.5032 11.4813C10.3634 11.5372 10.2365 11.5457 10.0875 11.5426C9.88351 11.5383 9.55565 11.459 9.69739 11.207C9.77341 11.0718 9.90194 10.96 10.0432 10.8986C10.1278 10.8618 10.2647 10.8419 10.2647 10.7385C10.2647 10.4542 9.86671 10.4288 9.66502 10.5153C9.33388 10.6572 9.02084 10.8468 8.63942 10.7998C8.45361 10.7769 8.22762 10.7184 8.16581 10.5153C8.12432 10.379 8.22256 10.327 8.3481 10.3177C8.52607 10.3045 8.70338 10.3348 8.87794 10.2853C9.0216 10.2446 9.00741 10.1774 9.00741 10.0468C9.00741 9.8169 8.88876 9.77368 8.71609 9.66858C8.49568 9.53442 8.36136 9.30125 8.05678 9.34148C7.75669 9.38111 7.4234 9.54874 7.12148 9.51696C6.97077 9.50109 6.85249 9.21432 6.70579 9.13364C6.40166 8.96636 6.28233 8.73027 6.09419 8.44537C5.95357 8.23243 5.77506 7.5254 6.20151 7.5254C6.32919 7.5254 6.47345 7.58061 6.55417 7.68554C6.61003 7.75816 6.64503 7.71978 6.71431 7.67873C6.87772 7.58189 7.19814 7.66056 7.19814 7.37378C7.19814 7.25988 7.11065 7.07455 7.20496 6.98023C7.2773 6.90789 7.47401 6.85997 7.57295 6.88824C7.75775 6.94104 7.93129 7.09608 8.11981 7.09608C8.27412 7.09608 9.04688 7.1572 8.67009 6.87461C8.52105 6.76283 8.20844 6.39585 8.3941 6.21019C8.45203 6.15226 8.56889 6.17711 8.64283 6.17612C8.76584 6.17445 8.87802 6.14545 9.0006 6.14545C9.24325 6.14545 9.59006 6.10688 9.59006 6.43677C9.59006 6.52911 9.5656 6.65529 9.62072 6.73491C9.68552 6.82851 9.866 6.791 9.96486 6.78943C10.0391 6.78825 10.4491 6.74942 10.4708 6.65143C10.4735 6.63941 10.2126 6.41658 10.1931 6.36011C10.028 5.87954 10.961 6.42049 10.97 6.26811C10.98 6.09903 10.6643 5.83237 11.0024 5.80983C11.1445 5.80036 11.3979 5.76353 11.522 5.85924C11.6378 5.94859 11.6684 6.17093 11.7298 6.29878C11.8057 6.45665 11.8189 6.41072 11.999 6.42314C12.1225 6.43166 12.405 6.48846 12.4385 6.63951C12.5 6.91585 12.2946 7.14624 12.2886 7.40955C12.2803 7.77775 12.7413 7.80679 13.0382 7.83205C13.1836 7.84443 13.554 7.82045 13.6243 7.9922C13.6696 8.10295 13.6534 8.31218 13.6072 8.42151C13.5461 8.56632 13.4232 8.648 13.4232 8.81506C13.4232 8.90835 13.4431 9.07911 13.5476 9.1183C13.609 9.14133 13.8443 9.11821 13.8764 9.15749C13.9172 9.20735 13.7631 9.38173 13.7606 9.45051C13.7539 9.63176 14.2034 9.43313 14.2819 9.41133C14.3978 9.37913 14.4893 9.41699 14.6022 9.42666C14.7521 9.43952 14.7378 9.61213 14.7419 9.7265C14.7481 9.90174 14.9976 9.82828 15.0945 9.90368C15.2344 10.0125 15.1652 10.0895 15.2087 10.2308C15.2973 10.5189 15.4282 10.5306 15.7351 10.5306C16.0816 10.5306 15.8666 10.2649 15.914 10.0332C15.9444 9.88431 16.1165 9.89136 16.2394 9.93435C16.334 9.96746 16.3415 10.064 16.3671 10.1473L16.3697 10.1555C16.4175 10.3111 16.4806 10.5165 16.6738 10.4148C16.9568 10.2658 16.9768 10.3718 17.1934 10.5613C17.3378 10.6877 17.3912 10.9036 17.4336 11.0826C17.4729 11.2483 17.3368 11.5733 17.5972 11.5733C17.8127 11.5733 18.1725 11.6497 18.2616 11.3824C18.3367 11.1572 18.1185 10.9082 18.1185 10.6857C18.1185 10.4914 18.5653 10.5606 18.6671 10.5681C18.7999 10.5779 19.1074 10.6888 19.0589 10.5C19.0282 10.3805 19.0376 10.2486 18.9873 10.1337C18.9357 10.0157 18.7088 9.99737 18.6108 9.91901C18.354 9.71357 18.5383 9.40168 18.834 9.396C19.0909 9.39106 19.6029 9.68341 19.8153 9.47096C20.1226 9.16371 19.7639 9.0242 19.57 8.7895C19.4336 8.62445 19.3613 8.39823 19.1884 8.2733C18.9471 8.09902 18.8948 7.82732 19.1339 7.6174C19.3432 7.43356 19.0427 7.39123 18.8817 7.35844C18.6645 7.31419 18.4892 7.23699 18.2837 7.17445C17.9733 7.07997 17.6494 7.28818 17.3314 7.18808C16.9721 7.07495 16.5876 7.10709 16.2326 6.98875C15.9372 6.89029 15.6618 6.6152 15.6618 6.29878C15.6618 5.90238 15.8148 5.71143 16.1542 5.53044C16.5452 5.32187 16.2127 5.22765 16.0162 5.04149C15.9262 4.95621 15.8182 4.91068 15.7385 4.8132C15.6633 4.72129 15.5889 4.56856 15.4915 4.50655C15.2261 4.33768 15.0119 4.12632 14.7351 3.96138C14.4768 3.80753 14.2443 3.59677 13.9752 3.46222C13.8514 3.40029 13.7777 3.33581 13.6924 3.23222C13.565 3.07749 13.2867 3.09845 13.1098 3.06527C12.7519 2.99817 12.4346 2.78035 12.0586 2.80461C11.2894 2.85424 10.5038 2.82348 9.74338 2.9392C9.33836 3.00083 8.96186 3.09038 8.60194 3.29355C8.19772 3.52175 7.73833 3.64695 7.3191 3.84553C6.91558 4.03668 6.58647 4.30052 6.24751 4.58832C5.90968 4.87516 5.66832 5.21794 5.28155 5.45377C4.89185 5.69139 4.60864 6.03534 4.26107 6.32944C3.81778 6.70453 3.4164 7.10594 3.00583 7.51653L2.98163 7.54073C2.6586 7.86377 2.31172 8.15791 1.985 8.47603C1.85732 8.60035 1.78688 8.75133 1.67835 8.89002C1.59162 9.00083 1.48125 9.07987 1.38703 9.18134C1.1577 9.42831 0.922999 9.62389 0.628905 9.79465Z" fill="white"/>
<path d="M0.420557 14.5869C0.372122 14.3962 0.417704 14.1904 0.377324 14.0025C0.360471 13.924 0.424111 14.0156 0.419661 13.9355C0.415465 13.86 0.357022 13.8572 0.322887 13.7975C0.285253 13.7316 0.288997 13.6736 0.229697 13.6165C0.183335 13.5719 0.0921167 13.516 0.0325643 13.4928C-0.152801 13.4208 -0.260353 13.7419 -0.297185 13.8629C-0.330835 13.9735 -0.339053 14.0726 -0.325859 14.1864C-0.310921 14.3152 -0.336873 14.437 -0.362597 14.5627C-0.419223 14.8396 -0.516869 15.1421 -0.385894 15.4122C-0.31904 15.5501 -0.286984 15.7085 -0.30973 15.862C-0.324766 15.9635 -0.354532 16.0665 -0.354532 16.1694C-0.354532 16.2882 -0.322274 16.4011 -0.322274 16.5197C-0.322274 16.6837 -0.313872 16.8514 -0.305249 17.0152C-0.300755 17.1006 -0.248041 17.1635 -0.232669 17.2455C-0.217505 17.3264 -0.221823 17.4183 -0.229084 17.5C-0.243088 17.6576 -0.270436 17.8236 -0.249694 17.9812C-0.214329 18.25 -0.254355 18.5268 -0.257758 18.7957C-0.260924 19.0458 -0.133506 19.2801 -0.0444967 19.509C0.0332956 19.709 0.139982 19.9461 0.294213 20.1004C0.339279 20.1454 0.383211 20.2196 0.444751 20.2419C0.545632 20.2786 0.595361 20.3968 0.701023 20.4391C0.865958 20.5051 1.01918 20.5575 1.17773 20.4436C1.28928 20.3634 1.36534 20.2705 1.28346 20.1326C1.19412 19.9822 1.02268 19.8967 0.937582 19.7419C0.88921 19.654 0.87913 19.5524 0.831847 19.4642C0.785678 19.378 0.722058 19.302 0.661597 19.2258C0.568126 19.108 -0.119024 18.0701 0.213568 18.0484C0.412725 18.0354 0.470045 18.209 0.58364 18.3405C0.724634 18.5038 0.867358 18.6655 1.00927 18.828C1.20411 19.051 1.37669 19.2945 1.58095 19.5081C1.65965 19.5903 1.74758 19.6526 1.8426 19.7133C1.96146 19.7891 2.06339 19.8868 2.18489 19.9597C2.32716 20.045 2.60681 20.0929 2.75837 19.9928C2.82079 19.9516 2.8874 19.9075 2.8874 19.8316C2.8874 19.7163 2.73612 19.5789 2.65353 19.509C2.48542 19.3667 2.32055 19.2076 2.19296 19.0242C2.05879 18.8313 1.85531 18.7726 1.69385 18.6111C1.63566 18.5529 1.59855 18.4808 1.54511 18.4194C1.49211 18.3585 1.41582 18.3268 1.35873 18.2706C1.23723 18.151 1.15483 17.9836 1.05586 17.845C0.934718 17.6754 0.93834 17.4641 0.835432 17.2903C0.726059 17.1056 0.656285 16.91 0.646363 16.6918C0.644346 16.6474 0.666706 16.3839 0.718944 16.5332C0.751368 16.6258 0.782267 16.7747 0.858729 16.8387C0.902654 16.8755 0.953491 16.8926 0.992242 16.9364C1.02732 16.976 1.04899 17.0216 1.08095 17.0627C1.15107 17.1529 1.22938 17.2357 1.30317 17.3226C1.41489 17.4542 1.50565 17.5911 1.63203 17.7115C1.72705 17.802 1.90246 17.98 2.04869 17.9839C2.1574 17.9867 2.07347 17.8935 2.05676 17.8378C2.02326 17.7262 1.98318 17.6419 1.93579 17.5359C1.89357 17.4414 1.81743 17.3748 1.76644 17.2885C1.70492 17.1844 1.65664 17.07 1.59708 16.9642C1.55318 16.8861 1.54396 16.7946 1.49224 16.7204C1.45215 16.6629 1.39696 16.6327 1.34708 16.586C1.22619 16.4729 1.13668 16.302 1.05228 16.1613C1.00315 16.0794 0.978142 15.9866 0.933998 15.9023C0.896318 15.8304 0.839066 15.7674 0.814822 15.6891C0.761581 15.5171 0.71279 15.3694 0.632923 15.2097C0.535512 15.0149 0.473979 14.7973 0.420557 14.5869Z" fill="#1B90A0"/>
<path d="M22.4945 21.2131C22.4546 21.2842 22.454 21.3255 22.4966 21.4126C22.6148 21.6542 22.7284 21.9139 22.9124 22.1142C23.1152 22.335 23.374 22.5018 23.5808 22.7217C23.6268 22.7706 23.8705 22.9535 23.8514 23.0318C23.8374 23.0893 23.7325 23.1024 23.6892 23.1115C23.5198 23.1472 23.3406 23.1611 23.1677 23.1581C22.7411 23.1508 22.3667 22.9864 22.0459 22.7137C21.7863 22.493 21.5271 22.2643 21.2511 22.064C21.1721 22.0067 21.0983 21.9559 21.0335 21.897C21.0362 21.9007 21.0388 21.9044 21.0414 21.9081C21.1103 22.0065 21.1667 22.1099 21.2251 22.2146C21.2966 22.3428 21.353 22.4759 21.4195 22.6052C21.4307 22.627 21.4732 22.642 21.4966 22.6447C21.556 22.6515 21.6133 22.7532 21.6444 22.7979C21.698 22.8749 21.7456 22.9673 21.7914 23.0497C21.8545 23.1633 21.8882 23.2982 21.959 23.4063C22.0223 23.5033 22.1153 23.577 22.1973 23.6572C22.2526 23.7113 22.3751 23.7821 22.4025 23.8552C22.4849 24.0751 21.861 23.8699 21.7762 23.8275C21.5783 23.7285 21.4286 23.5919 21.2869 23.4242C21.1058 23.2098 20.9337 23.01 20.7206 22.8248C20.5365 22.6647 20.3764 22.4985 20.269 22.2764C20.1851 22.1028 20.0973 21.9371 19.9876 21.7773C19.8216 21.5355 19.6287 21.3321 19.3953 21.1536C19.1935 20.9993 18.9425 20.9264 18.6937 20.8902C18.5575 20.8704 18.6226 21.021 18.665 21.0963C18.7783 21.2972 18.9229 21.4783 19.0817 21.6447C19.2951 21.8682 19.4838 22.1122 19.7027 22.331C19.7946 22.423 19.8853 22.5152 19.984 22.5999C20.0649 22.6691 20.1937 22.7905 20.1937 22.9027C20.1937 22.998 20.0114 22.9221 19.9787 22.9036C19.7369 22.7671 19.551 22.5104 19.3783 22.297C19.274 22.168 19.1816 22.0284 19.0647 21.9099C18.9506 21.7943 18.8209 21.6987 18.709 21.5801C18.5934 21.4578 18.5037 21.3189 18.4025 21.185C18.2937 21.041 18.1604 20.9435 18.0324 20.8221C17.8947 20.6915 17.7449 20.6316 17.5701 20.564C17.5529 20.5574 17.2284 20.4459 17.2278 20.4475C17.1918 20.5464 17.2506 20.6513 17.3165 20.7172C17.4627 20.8634 17.6182 20.9988 17.76 21.15C17.8982 21.2975 18.0337 21.4591 18.1812 21.5963C18.3644 21.7667 18.5882 21.8855 18.7681 22.0586C18.918 22.2029 19.0818 22.3431 19.2179 22.5004C19.3652 22.6705 19.5226 22.7883 19.6955 22.9278C19.9412 23.126 20.1179 23.3616 20.2905 23.6205C20.3452 23.7025 20.3615 23.7608 20.3541 23.8606C20.3513 23.8985 20.2984 23.9767 20.2511 23.9637C20.1708 23.9416 20.0963 23.8823 20.0297 23.8355C19.8672 23.7213 19.7211 23.5916 19.5826 23.4493C19.2969 23.1558 19.0704 22.8033 18.7645 22.5309C18.4453 22.2466 18.0445 22.0703 17.726 21.7862C17.5882 21.6633 17.4641 21.5255 17.3263 21.4027C17.1322 21.2297 16.8833 21.161 16.6543 21.0479C16.502 20.9726 16.317 20.9248 16.2824 20.7405C16.2567 20.6035 16.207 20.471 16.1292 20.3543C16.0186 20.1885 15.8129 20.0604 15.6597 19.935C15.643 19.9213 15.627 19.9096 15.6118 19.8986C15.6288 19.9368 15.6447 19.9754 15.6615 20.012C15.7348 20.1722 15.8347 20.3196 15.9124 20.478C15.9919 20.6403 16.0657 20.8055 16.1444 20.9681C16.2213 21.1269 16.2565 21.2974 16.3514 21.4475C16.5244 21.7209 16.7588 21.9102 17.0495 22.047C17.1282 22.0841 17.2019 22.0668 17.2815 22.0891C17.3516 22.1087 17.4138 22.1447 17.4876 22.1447C17.5366 22.1447 17.5824 22.1285 17.6292 22.1285C17.7178 22.1285 17.8201 22.1875 17.9025 22.2163C17.9928 22.2479 18.0967 22.23 18.1866 22.2737C18.3066 22.332 18.1454 22.3501 18.0889 22.3624C18.0303 22.3751 17.9829 22.361 18.0244 22.4117C18.05 22.443 18.0471 22.4848 18.0521 22.5228C18.0675 22.6389 18.1097 22.7499 18.1615 22.8543C18.2627 23.0587 18.4217 23.2278 18.545 23.4189C18.6617 23.5997 18.7921 23.7536 18.9276 23.9197C18.9916 23.9982 19.1979 24.3763 18.9321 24.2307C18.63 24.0652 18.3812 23.7643 18.131 23.5335C17.9295 23.3477 17.7365 23.1306 17.4921 22.9995C17.3814 22.9401 17.2764 22.8831 17.1624 22.8301C17.1015 22.8019 17.0465 22.7631 16.9984 22.7163C16.9967 22.7147 16.9207 22.6217 16.9303 22.6626C16.9519 22.7548 17.015 22.8441 17.0674 22.9206C17.1696 23.07 17.28 23.2145 17.3926 23.3561C17.6078 23.6266 17.8807 23.8481 18.0593 24.1473C18.0934 24.2044 18.2329 24.4206 18.1104 24.4574C17.8569 24.5334 17.6459 24.1631 17.5091 24.0156C16.9358 23.3971 16.1543 22.9934 15.7744 22.2065C15.6805 22.0121 15.6033 21.8406 15.4527 21.6796C15.3031 21.5197 15.1531 21.3566 15.0002 21.2002C14.8957 21.0934 14.8244 20.9648 14.7224 20.8579C14.6883 20.8222 14.6487 20.7724 14.6068 20.7459C14.5589 20.7156 14.59 20.8567 14.5934 20.8696C14.6707 21.1634 14.8436 21.4194 15.0593 21.6285C15.1952 21.7603 15.3416 21.8813 15.4679 22.0228C15.6465 22.2228 15.793 22.45 15.9428 22.6715C16.1224 22.937 16.3396 23.1715 16.5235 23.4332C16.6922 23.6733 16.8635 23.9184 17.0163 24.1689C17.1037 24.312 17.1919 24.4822 17.1919 24.6554C17.1919 24.7879 16.7968 24.4964 16.7815 24.4834C16.385 24.1435 16.1023 23.6669 15.7833 23.2576C15.6849 23.1313 15.5841 23.0093 15.4742 22.8929C15.3266 22.7365 15.1891 22.5604 15.0127 22.435C14.8118 22.2922 14.6156 22.1955 14.493 21.9672C14.3977 21.7898 14.3295 21.6235 14.1937 21.4708C14.0032 21.2565 13.8112 21.0522 13.5808 20.8794C13.5088 20.8254 13.4261 20.788 13.355 20.7325C13.3391 20.72 13.1738 20.5646 13.165 20.6106C13.117 20.8629 13.3775 21.1364 13.5091 21.3185C13.6545 21.5195 13.8153 21.709 13.9581 21.9117C14.0951 22.1063 14.2188 22.3108 14.3487 22.5103C14.5452 22.8118 14.7398 23.0997 14.9984 23.3516C15.1711 23.5199 15.3399 23.7018 15.5217 23.8597C15.6844 24.001 15.8051 24.1815 15.9715 24.3185C16.0908 24.4168 16.321 24.4928 16.321 24.6769C16.321 24.8385 16.1771 24.8579 16.0468 24.8266C15.9158 24.795 15.8095 24.6877 15.7134 24.5999C15.5424 24.4433 15.3958 24.2656 15.2529 24.0837C15.0809 23.8648 14.9047 23.6243 14.6991 23.435C14.5754 23.321 14.4167 23.2767 14.2851 23.1769C14.19 23.1048 14.1088 23.0049 14.0163 22.9269C13.9095 22.8368 13.8208 22.7305 13.7224 22.6321C13.6026 22.5123 13.504 22.3977 13.4124 22.254C13.3132 22.0983 13.1523 21.9973 13.0674 21.831C12.9959 21.6911 12.9821 21.5457 12.8801 21.4206C12.8484 21.3818 12.7851 21.3001 12.7224 21.3257C12.4819 21.4237 13.2528 22.1392 13.3335 22.2137C13.5475 22.4111 13.6795 22.6736 13.8873 22.8785C14.1049 23.0932 14.2472 23.3621 14.4482 23.5909C14.7366 23.9191 14.95 24.3289 15.1131 24.7343C15.1173 24.7448 15.1614 24.8304 15.1418 24.8427C15.1124 24.861 14.9699 24.7535 14.9518 24.7432C14.6359 24.563 14.3759 24.3535 14.1122 24.1034C13.958 23.9572 13.7946 23.8104 13.674 23.6339C13.6058 23.534 13.5529 23.4243 13.484 23.3248C13.3884 23.1866 13.2982 23.0713 13.2296 22.9153C13.1598 22.7567 13.1103 22.594 13.0288 22.4404C12.9437 22.2798 12.852 22.1346 12.7412 21.9905C12.5624 21.758 12.3348 21.5676 12.165 21.3257C12.1194 21.2607 12.0962 21.1851 12.0459 21.1223C11.9906 21.0532 11.92 20.998 11.855 20.9386C11.7032 20.7998 11.8056 20.6238 11.8694 20.4672C11.9402 20.2933 11.8983 20.146 12.1059 20.0748C12.2123 20.0383 12.3635 20.2389 12.4357 20.297C12.514 20.36 12.5966 20.4221 12.6677 20.4932C12.7467 20.5722 12.7969 20.6675 12.8631 20.7558C12.9331 20.8491 13.0085 20.9212 13.0656 21.0246C13.1274 21.1366 13.1991 21.2408 13.2582 21.3543C13.2925 21.4202 13.3537 21.4765 13.39 21.5429C13.363 21.4718 13.3232 21.4035 13.2905 21.3382C13.0514 20.8599 12.9034 20.3082 12.9034 19.7701C12.9034 19.7161 12.8848 19.602 12.9679 19.6644C13.1107 19.7714 13.2487 19.9189 13.3702 20.0488C13.5263 20.2156 13.6073 20.4286 13.7744 20.5873C13.9194 20.7251 14.0524 20.8743 14.1937 21.0156C14.2786 21.1005 14.3468 21.1982 14.4231 21.2898C14.4592 21.3332 14.5031 21.3683 14.5451 21.4051C14.4498 21.2851 14.3454 21.1639 14.2833 21.03C14.2298 20.9146 14.2116 20.7845 14.1364 20.6805C14.0809 20.6038 14.0504 20.4712 14.0504 20.3785C14.0504 20.2982 14.105 20.1393 14.1937 20.1151C14.3025 20.0854 14.4958 20.1967 14.5683 20.2683C14.7237 20.4219 14.8157 20.6263 14.9679 20.7827C15.0781 20.8958 15.1635 21.04 15.2824 21.1429C15.3982 21.243 15.4344 21.3587 15.5244 21.4807C15.6168 21.6059 15.7583 21.6794 15.8514 21.8024C15.9292 21.905 16.0409 21.9897 16.1095 22.0963C16.1879 22.2181 16.2407 22.343 16.3407 22.452C16.4122 22.53 16.4612 22.6245 16.5333 22.7002C16.5925 22.7623 16.6685 22.8109 16.7296 22.874C16.7442 22.8892 16.7564 22.904 16.7665 22.919C16.744 22.8525 16.7188 22.7866 16.691 22.7226C16.6279 22.5775 16.526 22.4583 16.4616 22.3167C16.4517 22.2947 16.6609 22.3509 16.6812 22.3579C16.7987 22.3986 16.8963 22.4554 17.0199 22.4834C17.1699 22.5173 17.3144 22.5605 17.459 22.6124C17.5489 22.6447 17.638 22.6799 17.7331 22.693C17.8233 22.7055 17.8402 22.7505 17.9034 22.7988C17.9259 22.816 17.9108 22.7135 17.9097 22.7092C17.8924 22.64 17.8478 22.5821 17.803 22.5282C17.691 22.3931 17.5563 22.3703 17.3882 22.3543C17.2532 22.3415 17.1395 22.2809 17.0091 22.2504C16.8553 22.2144 16.7305 22.1903 16.5862 22.1196C16.4891 22.072 16.3794 22.04 16.3012 21.9619C16.2163 21.8769 16.1685 21.7485 16.1131 21.6438C16.0275 21.4822 15.9067 21.3382 15.8129 21.1796C15.7516 21.076 15.6711 21.0029 15.6453 20.883C15.5959 20.6534 15.6677 20.4448 15.5235 20.2387C15.4534 20.1386 15.4573 20.0507 15.4509 19.935C15.4437 19.8062 15.3779 19.692 15.3514 19.5676C15.3368 19.4987 15.2002 19.4067 15.2833 19.3382C15.3437 19.2885 15.4083 19.286 15.484 19.2907C15.6188 19.2991 15.6715 19.3635 15.7529 19.4583C15.8626 19.586 15.9715 19.7204 16.0898 19.84C16.2018 19.9532 16.3366 20.0368 16.4518 20.1456C16.6136 20.2984 16.7802 20.4572 16.9688 20.5806C16.9113 20.5165 16.8613 20.4464 16.8299 20.3651C16.7539 20.1684 17.172 20.1413 17.2771 20.2038C17.3901 20.2711 17.4981 20.3238 17.6238 20.3633C17.7308 20.3969 17.8111 20.476 17.9159 20.5156C18.0612 20.5705 18.2387 20.6215 18.3389 20.7495C18.3709 20.7904 18.4203 20.8623 18.467 20.8857C18.5297 20.917 18.5371 20.828 18.5521 20.7755C18.577 20.689 18.5765 20.5954 18.6292 20.5192C18.6692 20.4615 18.7994 20.5409 18.8478 20.5559C18.9638 20.5919 19.0782 20.6313 19.1937 20.6689C19.3363 20.7152 19.5192 20.7228 19.6489 20.797C19.7519 20.8558 19.8278 20.992 19.8837 21.0927C19.9474 21.2073 20.0225 21.3184 20.0808 21.435C20.2071 21.6875 20.3826 21.8957 20.5647 22.107C20.6438 22.1989 20.6832 22.3139 20.7869 22.383C20.8671 22.4365 20.902 22.5304 20.9688 22.5972C21.0239 22.6523 21.1058 22.7056 21.1122 22.7889C21.1165 22.8452 21.1227 22.8543 21.1776 22.8543C21.2699 22.8543 21.385 22.9032 21.4581 22.9601C21.4874 22.9829 21.505 23.0187 21.5387 23.0389C21.5645 23.0544 21.502 22.9914 21.484 22.9672C21.4252 22.8881 21.3766 22.8041 21.3353 22.7146C21.2666 22.5658 21.2138 22.4106 21.1453 22.2611C21.0796 22.1177 20.9756 22.0047 20.9195 21.8552C20.8679 21.7175 20.7924 21.5971 20.7663 21.4511C20.7597 21.4142 20.7114 21.317 20.7905 21.3454C20.9471 21.4015 21.0825 21.5787 21.2134 21.6769C21.3373 21.7698 21.4529 21.9252 21.5961 21.9825C21.739 22.0396 21.8907 22.0466 22.0297 22.1205C22.1108 22.1635 22.1865 22.2223 22.2708 22.2576C22.3557 22.2931 22.4321 22.3581 22.5082 22.4108C22.5854 22.4642 22.7046 22.49 22.7905 22.5282C22.9737 22.6096 22.798 22.2532 22.7815 22.2092C22.7359 22.0875 22.6397 22.0008 22.5826 21.8866C22.5409 21.8032 22.4937 21.6963 22.4715 21.6052C22.4485 21.5107 22.398 21.3988 22.4204 21.2979C22.4258 21.2739 22.4679 21.2207 22.4945 21.2131Z" fill="#1B90A0"/>
<path d="M22.7863 20.2802C22.8962 20.2517 23.0037 20.2171 23.1105 20.182C23.4716 20.0632 24.0754 20.0174 23.9279 20.3678C23.9012 20.4313 23.9012 20.4839 23.9012 20.5524V20.5584C23.9012 20.6648 23.8348 20.6915 23.7792 20.7719C23.7317 20.8405 23.6617 20.8694 23.6115 20.9339C23.5449 21.0195 23.5506 21.1512 23.4895 21.2445C23.3418 21.4705 23.1168 21.9025 22.7615 21.801C22.5439 21.7388 22.3947 21.6701 22.1859 21.5685C21.9019 21.4303 22.1558 21.8522 22.2012 21.9306C22.3017 22.1042 22.2718 22.3498 22.4146 22.5024C22.4878 22.5806 22.6702 22.6639 22.4756 22.5805C22.2375 22.4785 21.9707 22.4124 21.7228 22.3385C21.383 22.2371 21.004 22.1576 20.688 21.9954C20.4781 21.8877 20.3225 21.6548 20.1257 21.519C19.7324 21.2473 19.4403 20.8728 19.0223 20.6347C18.9383 20.5868 18.3907 20.1948 18.4543 20.5699C18.492 20.7914 18.5779 21.0028 18.6411 21.2178C18.721 21.4894 18.927 21.7385 18.988 22.0068C19.0249 22.1692 18.8944 21.9798 18.8736 21.9459C18.795 21.8172 18.6591 21.7434 18.5992 21.5952C18.4783 21.2962 18.2706 21.0867 18.1208 20.7986C18.0228 20.6101 17.8463 20.4729 17.7263 20.2992C17.6611 20.2049 17.564 19.9824 17.4195 20.0095C17.1729 20.0558 16.9643 20.2549 17.0612 20.5241C17.0646 20.5336 17.0686 20.5438 17.073 20.5545C17.1092 20.5933 17.1437 20.6317 17.1774 20.6594C17.2021 20.6797 17.4388 20.8873 17.3756 20.8824C17.2425 20.8722 17.1246 20.6789 17.073 20.5545C17.0042 20.4809 16.9293 20.4062 16.842 20.4021C16.772 20.3989 16.6363 20.3684 16.6819 20.4727C16.75 20.6284 16.8618 20.7556 16.9297 20.9091C16.9539 20.9637 16.9875 21.2153 16.8515 21.1397C16.7795 21.0997 16.748 21.1304 16.6895 21.0539C16.6153 20.9569 16.5539 20.8688 16.4551 20.7947C16.3307 20.7014 16.2544 20.5799 16.1483 20.4708C15.9963 20.3144 15.8118 20.1957 15.6528 20.0458C15.5522 19.9509 15.294 19.8015 15.1611 19.9295C15.0979 19.9903 15.1177 20.1182 15.1191 20.1963C15.125 20.5075 15.2774 20.7236 15.4355 20.9777C15.6797 21.3701 16.2046 21.474 16.5942 21.6714C16.8906 21.8216 17.1795 21.9648 17.49 22.085C17.915 22.2495 18.3447 22.3397 18.7783 22.4757C19.1549 22.5938 19.4797 22.8193 19.8532 22.9388C20.0339 22.9966 20.4295 23.0198 20.5488 23.1789C20.5886 23.2319 20.375 23.1604 20.3487 23.1542C20.2184 23.1233 20.0958 23.0983 19.9733 23.0417C19.5515 22.847 19.0568 22.8352 18.6373 22.6339C18.5335 22.584 18.5201 22.5107 18.4391 22.4604C18.2131 22.3202 17.8474 22.2924 17.5929 22.2222C17.3445 22.1537 17.0873 22.1361 16.8382 22.0678C16.6541 22.0174 16.5145 21.9125 16.3541 21.8163C16.1375 21.6863 15.9037 21.6191 15.6928 21.4694C15.6671 21.4512 15.4926 21.2471 15.4698 21.2674C15.3981 21.3312 15.5283 21.6776 15.546 21.7438C15.5742 21.8488 15.6206 21.9399 15.6871 22.0259C15.708 22.053 15.7899 22.1021 15.7557 22.1021C15.6925 22.1021 15.5212 21.9344 15.4812 21.8906C15.3776 21.7771 15.3775 21.6282 15.325 21.4923C15.255 21.3112 15.1383 21.2555 14.98 21.153C14.8127 21.0448 14.7481 20.8837 14.6122 20.7528C14.5597 20.7022 14.4549 20.6973 14.3854 20.7128C14.3151 20.7284 14.3888 21.0466 14.3987 21.0882C14.4335 21.2336 14.48 21.3811 14.5512 21.5132C14.5769 21.5609 14.617 21.6248 14.5283 21.5952C14.295 21.5174 14.2486 21.2514 14.09 21.0882C13.9059 20.8989 13.7866 20.6671 13.6116 20.4746C13.4535 20.3006 13.2583 19.8397 12.9598 19.8895C12.727 19.9283 12.7697 20.3335 12.8055 20.4917C12.8419 20.6532 12.8951 20.813 12.916 20.9777C12.9288 21.0782 12.9778 21.4047 12.9065 21.4904C12.8629 21.5427 12.6164 21.1415 12.6073 21.0997C12.5764 20.9579 12.5463 20.8064 12.5463 20.6613C12.5463 20.5137 12.506 20.5051 12.3671 20.5051C11.9538 20.5051 11.9288 20.8863 11.9288 21.2178C11.9288 21.6643 12.1233 22.0118 12.4357 22.3308C12.6025 22.5012 12.8 22.6024 12.9408 22.8035C13.0637 22.9791 13.1945 23.1797 13.3582 23.32C13.7096 23.6212 13.9827 24.0043 14.374 24.2595C14.5559 24.3782 14.4198 24.7327 14.1758 24.6388C13.8791 24.5247 13.5631 24.6532 13.2667 24.5873C13.0625 24.542 13.1038 24.2817 12.855 24.2462C12.7514 24.2314 12.6488 24.1909 12.6225 24.0804C12.5877 23.9342 12.4984 23.8499 12.411 23.7297C12.2299 23.4808 12.176 23.3906 11.8564 23.4705C11.7586 23.495 11.6093 23.5251 11.5514 23.421C11.4961 23.3213 11.4601 23.172 11.3304 23.1484C11.1093 23.1083 10.9296 23.3686 10.7205 23.2342C10.4177 23.0396 10.2108 23.0396 9.85143 23.0855C9.51878 23.1281 9.37822 23.318 9.46645 23.6268C9.50931 23.7768 9.70366 23.8485 9.83809 23.8841C10.0831 23.9489 10.2943 24.0693 10.5223 24.1757C10.756 24.2848 11.0198 24.3018 11.2541 24.4158C11.2855 24.4311 11.5046 24.5956 11.3971 24.5359C11.2287 24.4424 11.0013 24.4158 10.8101 24.4158C10.4161 24.4158 10.0162 24.3322 9.62654 24.3491C8.64849 24.3916 7.67624 24.4501 6.69538 24.4501C6.66406 24.4501 6.48611 24.4737 6.47621 24.4292C6.43679 24.2518 6.48567 24.0446 6.46668 23.8631C6.42374 23.4528 6.12616 23.6268 5.86444 23.6268C5.77297 23.6268 5.64688 23.5046 5.55188 23.4743C5.42839 23.435 5.30265 23.3973 5.17834 23.36C5.00522 23.308 4.87744 23.4823 4.76668 23.5849C4.6753 23.6695 4.48379 23.6268 4.36837 23.6268C4.25645 23.6268 4.15376 23.6924 4.03866 23.6954C3.95679 23.6976 3.83459 23.6652 3.77756 23.7354C3.68682 23.8471 3.53075 24.0142 3.37162 23.9965C3.28377 23.9868 2.70224 23.8449 2.777 23.6954C2.81933 23.6108 2.93429 23.5934 2.99236 23.522C3.0798 23.4144 3.17011 23.3253 3.2992 23.2685C3.51943 23.1716 3.90144 23.0917 3.90144 22.8168C3.90144 22.4723 3.91644 22.169 3.71085 21.8753C3.57588 21.6825 3.40145 21.4874 3.18485 21.6886C3.07528 21.7903 3.2202 22.069 3.14673 22.2203C3.10424 22.3078 3.03647 22.376 2.99426 22.4604C2.95207 22.5448 2.9899 22.6456 2.96758 22.7349C2.90132 22.9999 2.55585 23.0766 2.33104 23.0017C2.16812 22.9474 2.17243 22.625 2.07565 22.4947C1.92025 22.2855 1.61718 22.412 1.46579 22.5634C1.41608 22.6131 1.38604 22.7289 1.32857 22.6929C1.28203 22.6639 1.26525 22.6229 1.2085 22.5977C1.10398 22.5512 0.967836 22.2803 0.899759 22.186C0.659773 21.8537 0.642292 21.4498 0.505253 21.073C0.433185 20.8748 0.370194 20.6302 0.247966 20.4536C0.145913 20.3062 0.0821267 20.0521 -0.060778 19.9409C-0.121809 19.8935 0.0826001 19.9219 0.145051 19.9219H0.615791C1.17042 19.9219 1.69109 19.7921 2.23574 19.6894C2.42412 19.6538 2.6105 19.5932 2.79606 19.5445C2.9923 19.493 3.19725 19.5056 3.39639 19.4607C3.5017 19.4369 3.60443 19.4073 3.71276 19.4073C4.26517 19.4073 4.82582 19.1897 5.32318 18.9766C5.56464 18.8731 5.79129 18.7181 5.97688 18.5325C6.08861 18.4208 6.25938 18.2656 6.41332 18.2143C6.8095 18.0822 7.27176 18.0469 7.63305 17.8102C7.91446 17.6258 8.20711 17.2282 8.3687 16.9373C8.45472 16.7825 8.64035 16.6876 8.78036 16.5943C8.90472 16.5114 9.13531 16.3854 9.19201 16.2436C9.24573 16.1093 9.40936 15.9873 9.49314 15.8663C9.60425 15.7058 9.67204 15.5456 9.76757 15.3784C9.988 14.9926 10.3952 15.0622 10.7605 15.1535C10.9545 15.202 11.1414 15.2773 11.3304 15.3403C11.5359 15.4088 11.7494 15.3936 11.9631 15.3936C12.0984 15.3936 12.2299 15.4326 12.3404 15.5042C12.4424 15.5701 12.4828 15.7365 12.5806 15.7977C12.8008 15.9353 12.9661 16.2287 13.1123 16.4399C13.2664 16.6626 13.3675 16.9227 13.524 17.1394C13.6509 17.3151 13.8654 17.4178 14.0385 17.5377C14.3323 17.7411 14.7048 17.7039 15.0296 17.8121C15.1937 17.8668 15.3502 17.9162 15.5136 17.9665C15.8876 18.0816 16.1452 18.5412 16.4227 18.7879C16.6748 19.012 16.8469 19.419 17.1927 19.5178C17.6845 19.6584 18.1751 19.8212 18.6602 19.9829C18.8598 20.0494 19.0716 20.095 19.2777 20.1353C19.5047 20.1798 19.7808 20.2992 20.0076 20.2992C20.1203 20.2992 20.2477 20.3266 20.3602 20.3412C20.6313 20.3761 20.9025 20.3678 21.1759 20.3678C21.4587 20.3678 21.7456 20.3335 22.0316 20.3335C22.2881 20.3335 22.5362 20.345 22.7863 20.2802Z" fill="white"/>
</g>
</svg>
