<svg width="32" height="32" viewBox="0 0 32 32" fill="none" xmlns="http://www.w3.org/2000/svg">
<path d="M16 32C24.8366 32 32 24.8366 32 16C32 7.16344 24.8366 0 16 0C7.16344 0 0 7.16344 0 16C0 24.8366 7.16344 32 16 32Z" fill="#00BFEC"/>
<path d="M15.9709 23.1504C12.0139 23.1504 8.79492 19.9514 8.79492 16.0204C8.79492 12.0884 12.0149 8.89038 15.9709 8.89038C19.9279 8.89038 23.1469 12.0884 23.1469 16.0204C23.1469 19.9514 19.9279 23.1504 15.9709 23.1504ZM15.9709 10.2864C12.7899 10.2864 10.2009 12.8584 10.2009 16.0204C10.2009 19.1814 12.7899 21.7534 15.9709 21.7534C19.1529 21.7534 21.7409 19.1814 21.7409 16.0204C21.7409 12.8584 19.1529 10.2864 15.9709 10.2864ZM20.9959 7.87138C19.4821 6.94959 17.7433 6.46309 15.9709 6.46538C14.3394 6.46471 12.7343 6.87683 11.3049 7.66338L10.6209 6.44338C12.2595 5.54051 14.1 5.06714 15.9709 5.06738C18.0109 5.06738 20.0029 5.62538 21.7319 6.68138L20.9959 7.87138ZM23.0909 24.3814L22.1819 23.3144C23.2478 22.4211 24.1051 21.3052 24.6934 20.045C25.2816 18.7849 25.5866 17.4111 25.5869 16.0204H26.9929C26.9929 19.2464 25.5709 22.2934 23.0909 24.3804V24.3814ZM15.9709 26.9714C13.4139 26.9714 10.9219 26.0814 8.95492 24.4664L9.85092 23.3904C11.5777 24.8031 13.7399 25.5751 15.9709 25.5754C17.5309 25.5754 19.0189 25.2154 20.3929 24.5074L21.0399 25.7474C19.4714 26.5522 17.7339 26.9721 15.9709 26.9724V26.9714Z" fill="white"/>
<path opacity="0.5" d="M25.3504 13.4254C24.9828 12.1068 24.3362 10.8825 23.4544 9.83545L24.3544 9.08945C25.3429 10.2634 26.0676 11.636 26.4794 13.1144L25.3514 13.4254H25.3504ZM6.86039 21.9764C5.68843 20.2114 5.06461 18.1392 5.06739 16.0204C5.06739 13.0584 6.24739 10.2924 8.39039 8.23145L9.20439 9.06845C8.26364 9.96494 7.51546 11.0438 7.00551 12.239C6.49556 13.4343 6.23454 14.7209 6.23839 16.0204C6.23839 17.9194 6.79239 19.7574 7.83839 21.3364L6.86039 21.9764Z" fill="white"/>
</svg>
