<svg width="32" height="32" viewBox="0 0 32 32" fill="none" xmlns="http://www.w3.org/2000/svg">
<path d="M16 32C24.8366 32 32 24.8366 32 16C32 7.16344 24.8366 0 16 0C7.16344 0 0 7.16344 0 16C0 24.8366 7.16344 32 16 32Z" fill="#3FBADF"/>
<path d="M11 22.1188L16 19.2988V24.9338L11 22.1188ZM11 13.1188L16 10.2988V15.9338L11 13.1188Z" fill="white" fill-opacity="0.4"/>
<path d="M26 19.2297L21 22.1157V16.4297L26 19.2297ZM26 10.2297L21 13.1157V7.42969L26 10.2297Z" fill="white" fill-opacity="0.7"/>
<path d="M11 22.1156V16.4326L16 19.3026L11 22.1156ZM11 13.1156V7.43262L16 10.3026L11 13.1156Z" fill="white" fill-opacity="0.8"/>
<path d="M21 22.1157L16 19.3037L21 16.4297V22.1157ZM21 13.1157L16 10.3037L21 7.42969V13.1157Z" fill="white"/>
<path d="M21 22.1157L16 24.9337V19.3037L21 22.1157ZM21 13.1157L16 15.9337V10.3037L21 13.1157Z" fill="white" fill-opacity="0.6"/>
<path d="M11 16.4326V22.1156L6 19.2306L11 16.4326ZM11 7.43262V13.1156L6 10.2306L11 7.43262Z" fill="white" fill-opacity="0.5"/>
</svg>
