<svg width="32" height="32" viewBox="0 0 32 32" fill="none" xmlns="http://www.w3.org/2000/svg">
<path d="M16 32C24.8366 32 32 24.8366 32 16C32 7.16344 24.8366 0 16 0C7.16344 0 0 7.16344 0 16C0 24.8366 7.16344 32 16 32Z" fill="#00FFBA"/>
<path d="M10.8711 10.9043C10.5965 11.1853 10.4272 11.5525 10.3919 11.9438C10.3566 12.3351 10.4573 12.7266 10.6771 13.0523C10.8325 13.2862 11.0437 13.4778 11.2916 13.6098C11.5395 13.7417 11.8163 13.81 12.0971 13.8083C12.6775 13.8084 13.2341 14.0392 13.6445 14.4497C14.0548 14.8602 14.2852 15.4169 14.2851 15.9973C14.285 16.5777 14.0543 17.1343 13.6438 17.5447C13.2332 17.955 12.6765 18.1854 12.0961 18.1853C10.8888 18.1858 9.70856 17.8271 8.70562 17.155C7.70268 16.4828 6.92232 15.5275 6.4638 14.4107C6.00527 13.2938 5.88931 12.0658 6.13064 10.8828C6.37198 9.6998 6.95972 8.61534 7.8191 7.76732C8.89564 6.70248 10.3306 6.07735 11.8435 6.0141C13.3563 5.95086 14.8384 6.45404 16.0001 7.42532C15.3164 7.99693 14.7666 8.71174 14.3895 9.51922C14.0125 10.3267 13.8174 11.2071 13.8181 12.0983C13.8178 12.6765 14.0464 13.2314 14.454 13.6415C14.8615 14.0517 15.4149 14.2839 15.9931 14.2873C15.7057 14.2873 15.4211 14.2307 15.1556 14.1207C14.89 14.0107 14.6488 13.8494 14.4456 13.6461C14.2424 13.4428 14.0813 13.2015 13.9714 12.9359C13.8615 12.6704 13.805 12.3857 13.8051 12.0983C13.8068 11.758 13.7057 11.4252 13.5151 11.1433C13.3289 10.8677 13.0671 10.6517 12.7611 10.5213C12.5505 10.4332 12.3244 10.3878 12.0961 10.3878C11.8678 10.3878 11.6417 10.4332 11.4311 10.5213C11.2208 10.6104 11.0304 10.7406 10.8711 10.9043ZM25.5111 17.5323C25.9762 18.6348 26.1064 19.8498 25.8855 21.0258C25.6647 22.2018 25.1025 23.2867 24.2691 24.1453C23.4253 25.0148 22.3412 25.6125 21.1556 25.8619C19.9699 26.1113 18.7369 26.0011 17.6143 25.5453C16.4917 25.0895 15.5308 24.3089 14.8547 23.3036C14.1785 22.2982 13.8179 21.1139 13.8191 19.9023C13.8129 19.6111 13.8649 19.3216 13.972 19.0508C14.0791 18.7799 14.2393 18.5332 14.443 18.325C14.6467 18.1169 14.89 17.9515 15.1585 17.8386C15.427 17.7257 15.7153 17.6675 16.0066 17.6675C16.2979 17.6675 16.5862 17.7257 16.8547 17.8386C17.1232 17.9515 17.3665 18.1169 17.5702 18.325C17.7739 18.5332 17.9341 18.7799 18.0412 19.0508C18.1483 19.3216 18.2003 19.6111 18.1941 19.9023C18.1925 20.2391 18.2909 20.5688 18.477 20.8496C18.663 21.1304 18.9283 21.3495 19.2391 21.4793C19.6691 21.6593 20.1521 21.6573 20.5801 21.4743C20.9893 21.2971 21.3138 20.968 21.4851 20.5563C21.656 20.1388 21.6557 19.6708 21.4843 19.2535C21.3129 18.8362 20.9841 18.5032 20.5691 18.3263C20.3587 18.2373 20.1325 18.1917 19.9041 18.1923C19.3237 18.1923 18.767 17.9617 18.3566 17.5513C17.9462 17.1409 17.7156 16.5842 17.7156 16.0038C17.7156 15.4234 17.9462 14.8667 18.3566 14.4563C18.767 14.0459 19.3237 13.8153 19.9041 13.8153C21.1006 13.8147 22.2706 14.167 23.2678 14.8282C24.265 15.4893 25.045 16.43 25.5101 17.5323H25.5111Z" fill="white"/>
<path opacity="0.7" d="M15.9939 17.7146C17.2019 17.7146 18.1819 18.6946 18.1819 19.9026C18.1827 21.1161 17.8206 22.3021 17.1423 23.3082C16.4639 24.3144 15.5002 25.0947 14.375 25.549C13.2498 26.0033 12.0144 26.1108 10.8276 25.8577C9.64083 25.6046 8.55682 25.0024 7.71487 24.1286C6.88552 23.2688 6.32747 22.184 6.11026 21.0094C5.89305 19.8347 6.02628 18.6221 6.49334 17.5226C6.9604 16.4232 7.74066 15.4854 8.73689 14.8262C9.73312 14.167 10.9013 13.8156 12.0959 13.8156C12.6763 13.8156 13.2329 14.0462 13.6434 14.4566C14.0538 14.867 14.2844 15.4237 14.2844 16.0041C14.2844 16.5845 14.0538 17.1412 13.6434 17.5516C13.2329 17.962 12.6763 18.1926 12.0959 18.1926C11.7559 18.1916 11.4239 18.2926 11.1419 18.4826C10.8661 18.669 10.6501 18.9312 10.5199 19.2376C10.3898 19.5462 10.3533 19.8863 10.4148 20.2155C10.4763 20.5448 10.6332 20.8487 10.8659 21.0896V21.0916C11.1446 21.3809 11.5164 21.5626 11.9159 21.6047C12.3155 21.6468 12.717 21.5465 13.0499 21.3216C13.2831 21.1656 13.4742 20.9543 13.6059 20.7065C13.7376 20.4587 13.806 20.1822 13.8049 19.9016C13.8049 18.6946 14.7849 17.7146 15.9939 17.7146ZM25.3199 9.31858C25.7957 10.2468 26.0251 11.2816 25.9861 12.3239C25.9472 13.3663 25.6412 14.3811 25.0975 15.2712C24.5538 16.1613 23.7905 16.8969 22.8809 17.4074C21.9714 17.9178 20.9459 18.1862 19.9029 18.1866C19.3223 18.1866 18.7655 17.956 18.355 17.5454C17.9445 17.1349 17.7139 16.5781 17.7139 15.9976C17.7139 15.417 17.9445 14.8602 18.355 14.4497C18.7655 14.0392 19.3223 13.8086 19.9029 13.8086C20.2394 13.8089 20.5685 13.7099 20.849 13.524C21.1296 13.3381 21.349 13.0736 21.4799 12.7636C21.5761 12.5334 21.6211 12.285 21.6118 12.0356C21.6024 11.7863 21.539 11.542 21.4259 11.3196C21.3164 11.1038 21.1622 10.9137 20.9736 10.7621C20.7849 10.6105 20.5662 10.5008 20.3319 10.4402C20.0976 10.3797 19.8531 10.3697 19.6146 10.411C19.3761 10.4523 19.1492 10.5438 18.9489 10.6796C18.7153 10.8353 18.524 11.0466 18.392 11.2944C18.2601 11.5422 18.1917 11.8188 18.1929 12.0996C18.199 12.3908 18.147 12.6803 18.0398 12.9511C17.9326 13.2219 17.7724 13.4686 17.5686 13.6767C17.3648 13.8848 17.1215 14.0501 16.853 14.163C16.5845 14.2758 16.2961 14.3339 16.0049 14.3338C15.7136 14.3338 15.4253 14.2756 15.1568 14.1626C14.8883 14.0496 14.6451 13.8842 14.4414 13.676C14.2377 13.4678 14.0776 13.2211 13.9706 12.9502C13.8635 12.6793 13.8116 12.3898 13.8179 12.0986C13.8172 10.9702 14.1302 9.86387 14.722 8.90317C15.3139 7.94247 16.1612 7.16525 17.1693 6.65835C18.1774 6.15145 19.3066 5.93483 20.4307 6.0327C21.5548 6.13057 22.6295 6.53908 23.5349 7.21258L23.5389 7.21558C24.2847 7.77173 24.8936 8.49106 25.3189 9.31858H25.3199Z" fill="white"/>
</svg>
