<svg width="32" height="32" viewBox="0 0 32 32" fill="none" xmlns="http://www.w3.org/2000/svg">
<path d="M16 32C24.8366 32 32 24.8366 32 16C32 7.16344 24.8366 0 16 0C7.16344 0 0 7.16344 0 16C0 24.8366 7.16344 32 16 32Z" fill="#00D4D5"/>
<path d="M16.5186 5V10.457L21.2566 7.732L16.5186 5Z" fill="white"/>
<path opacity="0.9" d="M21.2568 7.73242V13.1894L25.9938 10.4574L21.2568 7.73242Z" fill="white"/>
<path opacity="0.8" d="M16.5186 10.457V15.914L21.2566 13.189L16.5186 10.457ZM21.2566 13.19V18.646L25.9936 15.914L21.2566 13.19Z" fill="white"/>
<path opacity="0.8" d="M16.5186 15.9141V21.3711L21.2566 18.6461L16.5186 15.9141Z" fill="white"/>
<path d="M21.2568 18.6465V24.1035L25.9938 21.3715L21.2568 18.6465Z" fill="white"/>
<path opacity="0.4" d="M4.27344 10.2734V15.7304L9.01144 12.9984L4.27344 10.2734Z" fill="white"/>
<path opacity="0.2" d="M10.25 12.3018V17.7588L14.98 15.0338L10.25 12.3018Z" fill="white"/>
<path opacity="0.3" d="M6.73828 15.7529V21.2099L11.4753 18.4779L6.73828 15.7529Z" fill="white"/>
<path opacity="0.9" d="M9.86035 19.8711V25.3281L14.5904 22.5961L9.86035 19.8711Z" fill="white"/>
<path opacity="0.7" d="M16.4805 22.2197V27.6777L21.2105 24.9447L16.4805 22.2197Z" fill="white"/>
<path opacity="0.9" d="M11.0391 9.60742V15.0654L15.7691 12.3404L11.0391 9.60742Z" fill="white"/>
<path opacity="0.8" d="M16.5192 5V10.457L11.7812 7.732L16.5192 5Z" fill="white"/>
<path opacity="0.6" d="M11.0388 7.32031V12.7763L6.2998 10.0443L11.0388 7.32031Z" fill="white"/>
<path opacity="0.6" d="M15.7771 10.0195V15.4775L11.0391 12.7445L15.7771 10.0195Z" fill="white"/>
<path opacity="0.95" d="M10.2282 12.3018V17.7588L5.49023 15.0338L10.2282 12.3018Z" fill="white"/>
<path opacity="0.6" d="M16.5191 15.9141V21.3711L11.7891 18.6461L16.5191 15.9141Z" fill="white"/>
<path opacity="0.55" d="M6.738 17.1846V22.6416L2 19.9086L6.738 17.1846Z" fill="white"/>
<path d="M25.9938 10.457V15.914L21.2568 13.189L25.9938 10.457Z" fill="white"/>
<path opacity="0.95" d="M21.2566 13.1904V18.6464L16.5186 15.9144L21.2566 13.1904Z" fill="white"/>
<path opacity="0.9" d="M25.9938 15.9141V21.3711L21.2568 18.6461L25.9938 15.9141Z" fill="white"/>
<path opacity="0.7" d="M21.2566 18.6465V24.1035L16.5186 21.3715L21.2566 18.6465Z" fill="white"/>
<path opacity="0.4" d="M15.4704 20.9199V26.3769L10.7334 23.6519L15.4704 20.9199Z" fill="white"/>
<path d="M21.2566 7.73242V13.1894L16.5186 10.4574L21.2566 7.73242Z" fill="white"/>
</svg>
