<svg width="32" height="32" viewBox="0 0 32 32" fill="none" xmlns="http://www.w3.org/2000/svg">
<path d="M16 32C24.8366 32 32 24.8366 32 16C32 7.16344 24.8366 0 16 0C7.16344 0 0 7.16344 0 16C0 24.8366 7.16344 32 16 32Z" fill="#964B9C"/>
<path opacity="0.6" d="M20.5062 16.4058L16.0342 20.8768H24.9762L20.5062 16.4058Z" fill="white"/>
<path opacity="0.7" d="M11.5276 16.4099L15.9996 11.9399H7.05664L11.5286 16.4109L11.5276 16.4099Z" fill="white"/>
<path opacity="0.4" d="M16.0343 20.878L20.4943 16.418L16.0143 11.936L7.07129 20.878L16.0133 29.821L24.9563 20.878H24.9543H16.0343Z" fill="white"/>
<path opacity="0.8" d="M16.0552 3L7.11816 11.937H15.9992L11.5532 16.383L16.0552 20.884L24.9972 11.942L16.0552 3Z" fill="white"/>
</svg>
