<svg width="32" height="32" viewBox="0 0 32 32" fill="none" xmlns="http://www.w3.org/2000/svg">
<path d="M16 32C24.8366 32 32 24.8366 32 16C32 7.16344 24.8366 0 16 0C7.16344 0 0 7.16344 0 16C0 24.8366 7.16344 32 16 32Z" fill="#00ADED"/>
<path d="M10.0967 23.6032L10.0987 23.5992L13.2867 15.9832L10.0967 8.36816L15.9817 15.9832L10.1007 23.5982L10.0967 23.6032ZM21.8727 23.6032L21.8687 23.5982L15.9877 15.9832L21.8727 8.36816L18.6827 15.9832L21.8707 23.5992L21.8727 23.6032Z" fill="white"/>
<path d="M15.9847 15.9843V21.2903L10.0947 23.6003L15.9847 15.9803V10.6743L21.8747 8.36426L15.9847 15.9843Z" fill="white" fill-opacity="0.8"/>
<path d="M15.9847 21.2904V25.9414L10.0947 23.5974L15.9847 21.2824V15.9844L10.0947 8.36444L15.9847 10.6744V6.02344L21.8747 8.36644L15.9847 10.6814V15.9804L21.8747 23.6004L15.9847 21.2904Z" fill="white" fill-opacity="0.5"/>
<path d="M10.0947 8.36644L15.9847 6.02344V10.6814L10.0947 8.36644ZM21.8747 23.5974L15.9847 25.9414V21.2824L21.8747 23.5974Z" fill="white" fill-opacity="0.145"/>
</svg>
