<svg width="32" height="32" viewBox="0 0 32 32" fill="none" xmlns="http://www.w3.org/2000/svg">
<path d="M16 32C24.8366 32 32 24.8366 32 16C32 7.16344 24.8366 0 16 0C7.16344 0 0 7.16344 0 16C0 24.8366 7.16344 32 16 32Z" fill="#5592D7"/>
<path d="M20.2456 12.667V25.64L9.28955 19.333C6.04955 17.436 6.25555 16.256 6.25555 13.693L17.5186 20.205V14.256L20.2446 12.666L20.2456 12.667Z" fill="white"/>
<path opacity="0.6" d="M17.5198 20.2046L6.25684 13.6916L17.2108 7.38457C20.4508 5.53757 21.3768 6.30757 23.6398 7.58957L12.3768 14.1026L17.5198 17.0766V20.2046Z" fill="white"/>
<path opacity="0.2" d="M12.377 14.1028L23.64 7.58984V20.2048C23.64 23.9488 22.509 24.3588 20.246 25.6408V12.6668L15.05 15.6398L12.376 14.1018L12.377 14.1028Z" fill="white"/>
</svg>
