<svg width="32" height="32" viewBox="0 0 32 32" fill="none" xmlns="http://www.w3.org/2000/svg">
<path d="M16 32C24.8366 32 32 24.8366 32 16C32 7.16344 24.8366 0 16 0C7.16344 0 0 7.16344 0 16C0 24.8366 7.16344 32 16 32Z" fill="#121747"/>
<path d="M18.032 22.8699C18.032 24.0149 17.112 24.9439 15.976 24.9439C14.84 24.9439 13.921 24.0149 13.921 22.8689V9.07986C13.921 7.93486 14.841 7.00586 15.976 7.00586C17.111 7.00586 18.032 7.93486 18.032 9.08086V22.8699ZM11.112 22.8749C11.1187 23.2408 11.0282 23.6021 10.85 23.9217C10.6717 24.2414 10.4119 24.5082 10.097 24.6949C9.78386 24.88 9.42676 24.9776 9.063 24.9776C8.69924 24.9776 8.34215 24.88 8.029 24.6949C7.71432 24.5081 7.45472 24.2413 7.27662 23.9216C7.09851 23.6019 7.00824 23.2407 7.015 22.8749V19.7749C7.00824 19.409 7.09851 19.0478 7.27662 18.7281C7.45472 18.4085 7.71432 18.1417 8.029 17.9549C8.34215 17.7698 8.69924 17.6721 9.063 17.6721C9.42676 17.6721 9.78386 17.7698 10.097 17.9549C10.4117 18.1417 10.6713 18.4085 10.8494 18.7281C11.0275 19.0478 11.1178 19.409 11.111 19.7749L11.112 22.8749Z" fill="white"/>
<path opacity="0.5" d="M24.9557 17.3998C24.9557 18.5448 24.0357 19.4738 22.8997 19.4738C21.7637 19.4738 20.8438 18.5438 20.8438 17.3988V12.1658C20.8438 11.0198 21.7637 10.0908 22.8997 10.0908C24.0357 10.0908 24.9557 11.0198 24.9557 12.1658V17.3998Z" fill="white"/>
</svg>
