<svg width="32" height="32" viewBox="0 0 32 32" fill="none" xmlns="http://www.w3.org/2000/svg">
<path d="M16 32C24.8366 32 32 24.8366 32 16C32 7.16344 24.8366 0 16 0C7.16344 0 0 7.16344 0 16C0 24.8366 7.16344 32 16 32Z" fill="#6916FF"/>
<path d="M17.1448 6.42337C17.0892 6.38327 17.0502 6.32416 17.0353 6.25726C17.0204 6.19036 17.0305 6.1203 17.0638 6.06037C17.1103 6.03052 17.1645 6.01465 17.2198 6.01465C17.2751 6.01465 17.3292 6.03052 17.3758 6.06037C18.0805 6.35292 18.7184 6.78569 19.2508 7.33237C19.5538 7.61337 19.8078 7.94137 20.0008 8.30237C20.2048 8.67037 20.3718 9.05537 20.5008 9.45437C20.6238 9.86737 20.6878 10.2964 20.6888 10.7264C20.6258 11.1514 20.5638 13.2114 19.3758 14.1814C19.2246 14.2723 19.0451 14.304 18.8719 14.2704C18.6986 14.2368 18.544 14.1402 18.4378 13.9994C18.3529 13.8998 18.3013 13.7762 18.2901 13.6458C18.279 13.5154 18.309 13.3849 18.3758 13.2724C18.8809 12.4905 19.1599 11.5841 19.1819 10.6535C19.204 9.7229 18.9682 8.80434 18.5008 7.99937C18.1008 7.43337 17.6468 6.90637 17.1448 6.42337ZM15.3008 25.0054C15.4258 25.1264 15.4258 25.2474 15.3638 25.3084C15.3018 25.3694 15.1758 25.4294 15.1138 25.3684C14.409 25.0758 13.7711 24.6431 13.2388 24.0964C12.9367 23.8169 12.6832 23.4891 12.4888 23.1264C12.2852 22.7598 12.1177 22.3743 11.9888 21.9754C11.8652 21.5623 11.8019 21.1335 11.8008 20.7024C11.8638 20.2784 11.9258 18.2174 13.1138 17.2474C13.2649 17.1567 13.4442 17.1252 13.6172 17.1588C13.7901 17.1924 13.9446 17.2888 14.0508 17.4294C14.1418 17.5288 14.1923 17.6586 14.1923 17.7934C14.1923 17.9281 14.1418 18.058 14.0508 18.1574C13.5459 18.9392 13.267 19.8453 13.245 20.7757C13.2229 21.7061 13.4585 22.6245 13.9258 23.4294C14.3308 23.9964 14.7918 24.5244 15.3008 25.0054Z" fill="white" fill-opacity="0.5"/>
<path d="M20.6943 20.0058C20.6038 18.8423 20.1437 17.7383 19.3813 16.8548C18.6095 16.0791 17.7244 15.4249 16.7563 14.9148C15.9119 14.448 15.1162 13.898 14.3813 13.2728C13.7769 12.7047 13.3624 11.9641 13.1943 11.1518C13.045 10.3131 13.1517 9.449 13.5003 8.67179C13.918 7.80712 14.5169 7.04248 15.2563 6.42979C15.2979 6.3927 15.3264 6.34323 15.3378 6.28868C15.3491 6.23413 15.3426 6.17738 15.3193 6.12679C15.3015 6.0949 15.2766 6.06746 15.2467 6.04654C15.2167 6.02561 15.1824 6.01174 15.1463 6.00597C15.1102 6.0002 15.0733 6.00267 15.0383 6.0132C15.0033 6.02374 14.9712 6.04206 14.9443 6.06679C13.9483 6.50128 13.1009 7.21727 12.5063 8.12679C11.8413 9.0823 11.5298 10.2396 11.6253 11.3998C11.6752 11.986 11.8232 12.5597 12.0633 13.0968C12.3231 13.6284 12.66 14.1188 13.0633 14.5518C13.858 15.3111 14.7641 15.9444 15.7503 16.4298C16.5983 16.8698 17.3953 17.3988 18.1253 18.0058C18.7675 18.5693 19.1885 19.3426 19.3133 20.1878C19.4893 21.0668 19.3793 21.9778 19.0003 22.7938C18.5749 23.6529 17.9539 24.4002 17.1873 24.9758C17.1619 24.9904 17.14 25.0101 17.1228 25.0338C17.1056 25.0575 17.0937 25.0845 17.0877 25.1131C17.0818 25.1418 17.082 25.1713 17.0883 25.1999C17.0946 25.2284 17.1069 25.2553 17.1243 25.2788C17.1593 25.3428 17.2243 25.3888 17.2973 25.3998C17.3703 25.4108 17.4463 25.3898 17.5003 25.3398C18.4295 24.8033 19.238 24.0809 19.8753 23.2178C20.4953 22.2598 20.7813 21.1338 20.6943 20.0058Z" fill="white"/>
</svg>
