<svg width="32" height="32" viewBox="0 0 32 32" fill="none" xmlns="http://www.w3.org/2000/svg">
<path d="M16 32C24.8366 32 32 24.8366 32 16C32 7.16344 24.8366 0 16 0C7.16344 0 0 7.16344 0 16C0 24.8366 7.16344 32 16 32Z" fill="#F58634"/>
<path d="M13.288 22.7321H13.292C14.481 22.5881 15.481 22.2281 16.292 21.6521C17.366 20.8821 17.903 19.9041 17.903 18.7181C17.903 17.7181 17.51 16.8811 16.725 16.1961C15.938 15.5131 14.872 15.0981 13.527 14.9541C13.07 14.8951 12.422 14.8521 11.59 14.8041C9.77598 14.6941 8.59898 14.4461 8.05298 14.0571C7.85888 13.9178 7.6955 13.7401 7.57298 13.5351C7.46919 13.3486 7.41545 13.1385 7.41698 12.9251C7.41698 12.3641 7.74098 11.8901 8.39398 11.5171C9.04598 11.1451 9.86998 10.9551 10.872 10.9551C11.821 10.9551 12.762 11.1171 13.652 11.4351C17.478 12.7991 21.132 17.5671 23.565 20.9811C21.582 22.1861 18.881 22.9291 15.905 22.9291C15.029 22.9291 14.154 22.8641 13.288 22.7321ZM9.00898 20.7901C5.51598 19.5151 3.98698 16.3641 5.71198 13.3041C5.75998 13.7341 5.91898 14.1471 6.17498 14.5041C6.49498 14.9531 6.96498 15.3181 7.58198 15.6051C9.73698 16.5411 13.7 15.9431 15.332 17.1321C15.881 17.5321 16.156 18.0431 16.156 18.6661C16.156 19.4491 15.773 20.0901 15.007 20.5881C14.242 21.0861 13.246 21.3351 12.02 21.3351C10.9926 21.3293 9.97413 21.1449 9.00998 20.7901H9.00898Z" fill="white"/>
<path opacity="0.5" d="M25.9121 18.875V13.021C26.5691 13.91 26.9361 14.903 26.9361 15.948C26.9361 16.994 26.5691 17.985 25.9121 18.875ZM24.2631 11.415L24.2681 18.876C21.9251 15.55 18.4241 11.365 14.1211 9.96705C13.3767 9.72396 12.6077 9.56399 11.8281 9.49005C13.1621 9.16131 14.5312 8.99676 15.9051 9.00005C19.2451 9.00005 22.2401 9.93605 24.2631 11.415Z" fill="white"/>
</svg>
