<svg width="32" height="32" viewBox="0 0 32 32" fill="none" xmlns="http://www.w3.org/2000/svg">
<path d="M16 32C24.8366 32 32 24.8366 32 16C32 7.16344 24.8366 0 16 0C7.16344 0 0 7.16344 0 16C0 24.8366 7.16344 32 16 32Z" fill="#0576B4"/>
<path d="M24.6679 18.8626L23.6089 18.1996L25.9189 18.1726L25.9669 18.1466V18.1716L26.9209 18.1616L25.3019 20.7956L25.1569 19.5256L17.7929 23.5886L14.9999 19.8596L7.16992 23.9856V23.0456L15.2429 18.7926L18.0349 22.5216L24.6689 18.8626H24.6679ZM14.5559 17.9576L11.4959 19.5686V8.64355H14.5559V17.9576ZM23.2089 18.4386L20.1489 20.1386V8.64355H23.2089V18.4386Z" fill="white"/>
<path opacity="0.5" d="M18.8829 20.8426L18.2259 21.2066L15.8219 17.9966V9.89355H18.8819V20.8426H18.8829ZM10.2289 20.2356L7.16895 21.8476V11.3116H10.2289V20.2356Z" fill="white"/>
</svg>
