<svg width="32" height="32" viewBox="0 0 32 32" fill="none" xmlns="http://www.w3.org/2000/svg">
<path d="M16 32C24.8366 32 32 24.8366 32 16C32 7.16344 24.8366 0 16 0C7.16344 0 0 7.16344 0 16C0 24.8366 7.16344 32 16 32Z" fill="#372D2C"/>
<path d="M9.96541 18.4871L10.0664 18.4121H10.0324L9.56641 18.8421C9.67623 18.6997 9.81193 18.5792 9.96641 18.4871H9.96541Z" fill="black"/>
<path d="M26.9502 13.4398C26.9008 13.3629 26.8239 13.3079 26.7352 13.2858C26.3897 13.2009 26.043 13.1209 25.6952 13.0458L25.7892 12.5818L25.8492 12.2898L25.8772 12.1418L25.9042 11.9818C25.9421 11.7444 25.9156 11.5013 25.8272 11.2778C25.7338 11.0395 25.5804 10.8294 25.3819 10.6678C25.1834 10.5063 24.9465 10.3988 24.6942 10.3558C24.6111 9.85168 24.4962 9.35335 24.3502 8.86376L24.3332 8.80376L21.8472 5.78376L21.7542 5.75676C21.6532 5.72976 19.4132 5.06776 16.3642 5.06676L16.3982 4.46476C16.6785 4.37254 16.9166 4.18307 17.0693 3.93063C17.2221 3.67818 17.2795 3.37941 17.2312 3.08831C17.1829 2.79722 17.032 2.53301 16.8059 2.34345C16.5798 2.1539 16.2933 2.0515 15.9982 2.05476C15.7037 2.05225 15.418 2.15498 15.1925 2.34446C14.967 2.53394 14.8166 2.79771 14.7683 3.08826C14.7201 3.37881 14.7772 3.67703 14.9293 3.92922C15.0815 4.1814 15.3187 4.37096 15.5982 4.46376L15.6332 5.06876C12.5712 5.07176 10.3192 5.72976 10.2232 5.76176L10.1302 5.78876L7.64422 8.80876L7.62822 8.86876C7.48222 9.35876 7.36722 9.85576 7.28422 10.3588H7.27622L7.10022 10.4028C6.77152 10.5029 6.4892 10.7168 6.30378 11.0061C6.11836 11.2954 6.04195 11.6413 6.08822 11.9818L6.11522 12.1408L6.14322 12.2888L6.20322 12.5808L6.29722 13.0468C5.95222 13.1228 5.60722 13.2008 5.26322 13.2848C5.17448 13.3067 5.09753 13.3618 5.04822 13.4388C5.01374 13.4965 4.99711 13.5632 5.00041 13.6303C5.00371 13.6975 5.0268 13.7622 5.06678 13.8163C5.10675 13.8703 5.16182 13.9114 5.22507 13.9343C5.28831 13.9571 5.3569 13.9608 5.42222 13.9448C5.75822 13.8628 6.09422 13.7848 6.43122 13.7118L6.45622 13.8398C5.67087 16.3307 5.8515 19.0259 6.96222 21.3898C8.47022 24.6078 11.9402 28.0778 16.0002 28.0778C20.0592 28.0778 23.5302 24.6078 25.0422 21.3848C26.1493 19.0188 26.326 16.323 25.5372 13.8328L25.5612 13.7148C25.8992 13.7888 26.2372 13.8668 26.5742 13.9488C26.6395 13.9648 26.7081 13.9611 26.7714 13.9383C26.8346 13.9154 26.8897 13.8743 26.9297 13.8203C26.9696 13.7662 26.9927 13.7015 26.996 13.6343C26.9993 13.5672 26.9827 13.5005 26.9482 13.4428L26.9502 13.4398ZM15.1122 3.29776C15.113 3.04025 15.2149 2.79334 15.3959 2.61022C15.577 2.4271 15.8227 2.32243 16.0802 2.31876C16.6202 2.31876 16.6202 4.27176 16.0802 4.27676C15.8227 4.27309 15.577 4.16843 15.3959 3.98531C15.2149 3.80219 15.113 3.55528 15.1122 3.29776ZM15.7602 4.50776C15.8392 4.52276 15.9182 4.53076 15.9982 4.53076H16.0362L16.1122 6.63276C16.1614 6.69817 16.1852 6.77915 16.1793 6.86075C16.1734 6.94235 16.1382 7.01907 16.0802 7.07676C16.0485 7.10855 16.0107 7.13376 15.9692 7.15092C15.9277 7.16808 15.8832 7.17686 15.8382 7.17676C15.3322 7.17676 14.9252 7.02276 14.9252 6.83676C14.9252 6.66476 15.2672 6.52176 15.7152 6.49776L15.8382 6.49476H15.8722L15.7602 4.50776ZM8.15622 9.34476L8.44722 9.24076L8.94222 9.07576L9.59222 8.88376C9.82822 8.81176 10.0922 8.74576 10.3672 8.67376L11.2412 8.47676C11.5442 8.41676 11.8572 8.34976 12.1812 8.29476C12.5062 8.23976 12.8312 8.19576 13.1612 8.14076C13.4912 8.08576 13.8212 8.05876 14.1452 8.02076C14.4702 7.98076 14.7892 7.96476 15.1022 7.93776C15.2672 7.92276 15.4362 7.91576 15.5972 7.90976H15.6142L15.9992 11.3368L16.3892 7.88076H16.8072C17.0552 7.88076 17.2862 7.86976 17.4892 7.88076L18.0172 7.90276L18.4792 7.91876L18.0232 7.87476L17.4952 7.82476C17.2912 7.80376 17.0652 7.79776 16.8132 7.78176C16.544 7.76184 16.2742 7.75083 16.0042 7.74876H16.0002C15.7162 7.74876 15.4102 7.73176 15.0982 7.74276C14.7872 7.75376 14.4602 7.74876 14.1302 7.77076L13.1292 7.83676C12.7932 7.86376 12.4582 7.89176 12.1282 7.93576C11.7982 7.97976 11.4732 8.02876 11.1652 8.06776C10.8682 8.10476 10.5752 8.16176 10.2992 8.21076L9.80722 8.17176L10.7862 6.83576L15.6752 5.76976L15.7052 6.29976C15.0452 6.35176 14.5502 6.57076 14.5502 6.83376C14.5502 7.13376 15.2002 7.37776 16.0022 7.37776C16.8042 7.37776 17.4542 7.13476 17.4542 6.83376C17.4542 6.57076 16.9592 6.35176 16.2992 6.29976L16.3292 5.77176L21.1972 6.83476L22.1772 8.17076L20.8152 8.28076L20.7902 8.27776L20.8052 8.28176H20.7852L23.3922 9.57376C23.3922 9.57376 24.5162 13.1838 22.9672 16.2518C22.7904 16.5985 22.5847 16.9296 22.3522 17.2418C22.3522 17.2418 19.9462 18.3528 16.2472 18.5488L16.0002 17.5318C16.3027 17.5418 16.604 17.4894 16.8852 17.3778L17.6552 17.1248C19.2192 16.6428 20.7852 16.1678 22.3522 15.7008L22.5062 15.6568L22.5562 15.5138L22.6062 15.3708L22.6442 15.2328L22.7152 14.9628C22.8412 14.4328 22.9312 13.8948 22.9852 13.3518L23.0292 12.8018L23.0392 12.5268V12.2468L23.0452 11.9608L23.0182 11.6748L22.9742 11.3888C22.9554 11.2958 22.9314 11.204 22.9022 11.1138L22.8582 10.9708L22.8082 10.7998L22.7732 10.7948L22.7592 10.7508L22.7092 10.5798L22.5122 10.5528C20.8885 10.3634 19.2566 10.2513 17.6222 10.2168L17.4522 10.2118L17.3802 10.3548L16.4842 12.1108L16.0002 12.1188L15.4702 12.1288L14.5102 10.4088L14.4602 10.3158L14.3602 10.3218C13.5472 10.3668 12.7352 10.4328 11.9242 10.5198C11.1162 10.6055 10.3111 10.7172 9.51022 10.8548H9.52622H9.51622L9.48222 10.9648C9.47328 10.9932 9.46528 11.0218 9.45822 11.0508C9.47422 10.9858 9.49322 10.9218 9.51322 10.8548C9.48161 10.9432 9.44489 11.0296 9.40322 11.1138C9.38522 11.1838 9.36522 11.2528 9.35222 11.3228L9.34222 11.3498L9.28222 11.6198L9.23822 11.8888L9.21022 12.1638C9.20022 12.3458 9.19422 12.5328 9.20022 12.7138L9.22122 13.2638C9.25822 13.8138 9.33122 14.3618 9.44122 14.9028L9.50122 15.1728L9.57922 15.4478L9.60122 15.5138L9.67822 15.5408L12.7912 16.5638C13.7072 16.8618 14.6222 17.1688 15.5352 17.4828C15.6132 17.4988 15.6922 17.5098 15.7722 17.5158L15.8272 17.5208H15.8432L15.8712 17.5268L15.9862 17.5318H16.0032L15.7492 18.5668C14.8414 18.5933 13.9328 18.5606 13.0292 18.4688C10.8072 18.1708 9.34522 17.6388 8.96522 17.4878C7.73201 14.957 7.44539 12.0685 8.15722 9.34476H8.15622ZM19.9562 10.8748L17.0152 16.4198L16.8182 16.7898L16.6752 16.8388C16.504 16.9007 16.3242 16.9358 16.1422 16.9428C15.8633 16.9708 15.5816 16.937 15.3172 16.8438L15.2172 16.8058L15.3432 16.5708L18.4232 10.7708L18.5622 10.5078C19.0622 10.5298 19.5742 10.5688 20.0962 10.6128L19.9562 10.8748ZM20.8602 10.9648L21.0042 10.6928L21.4272 10.7318L21.8292 10.7758L21.8792 10.7808H21.9112L21.7632 11.0608L19.3232 15.6588L19.1232 16.0358L17.9792 16.3988L18.1762 16.0258L20.8602 10.9648ZM6.51022 12.2348L6.49422 12.0868L6.48322 11.9438C6.46809 11.7178 6.53135 11.4936 6.66233 11.3089C6.79331 11.1241 6.984 10.9902 7.20222 10.9298C7.00986 12.5658 7.15276 14.2238 7.62222 15.8028L7.57722 15.7888C7.4148 15.7313 7.26728 15.6383 7.14547 15.5165C7.02366 15.3947 6.93064 15.2472 6.87322 15.0848C6.82953 14.9471 6.80201 14.8048 6.79122 14.6608L6.54322 12.5348L6.51022 12.2348ZM9.26422 23.6878L9.24922 23.6758L9.25622 23.6858C9.20045 23.6707 9.14904 23.6426 9.10622 23.6038C8.48926 22.8386 7.96495 22.0031 7.54422 21.1148C6.68048 19.2719 6.41474 17.2051 6.78422 15.2038L6.78822 15.2138C6.87386 15.377 6.99443 15.5193 7.14135 15.6306C7.28827 15.7419 7.45791 15.8195 7.63822 15.8578C7.85122 16.5598 8.12722 17.2408 8.46322 17.8928L8.51322 17.9808L8.60622 18.0248C8.95822 18.1688 9.31722 18.2948 9.68222 18.4038H9.69122L9.66522 18.4118C9.58439 18.4389 9.50466 18.4693 9.42622 18.5028C9.36025 18.5303 9.2949 18.5593 9.23022 18.5898L8.80622 18.7928L8.66922 18.8588L8.65222 18.9968C8.53273 20.0427 8.63703 21.1022 8.95822 22.1048C9.11322 22.6038 9.33122 23.0808 9.60722 23.5248L9.61222 23.5348L9.62922 23.5788C9.65322 23.6898 9.43922 23.7348 9.26422 23.6888V23.6878ZM13.0442 25.8998C12.27 25.6166 11.5623 25.1771 10.9652 24.6088C10.6247 24.2759 10.3341 23.8956 10.1022 23.4798C9.87191 23.0635 9.69453 22.62 9.57422 22.1598C9.45622 21.6987 9.38421 21.227 9.35922 20.7518C9.32939 20.3349 9.34246 19.916 9.39822 19.5018L9.65622 19.3988C9.92122 19.3118 10.1892 19.2348 10.4592 19.1688L10.8722 19.0858C11.2292 19.0258 11.5882 18.9828 11.9502 18.9588H11.9932L12.0092 18.9608C11.7002 19.803 11.5444 20.6937 11.5492 21.5908C11.5492 23.3808 12.1392 24.9038 13.0762 25.9188L13.0442 25.8998ZM17.3442 24.7568C16.9302 24.9911 16.4619 25.1125 15.9862 25.1088C15.4906 25.1111 15.0037 24.978 14.5782 24.7238C14.3762 24.5051 14.204 24.2606 14.0662 23.9968C14.2993 24.2672 14.587 24.4854 14.9103 24.6371C15.2335 24.7887 15.5852 24.8703 15.9422 24.8767C16.2992 24.883 16.6536 24.8138 16.982 24.6738C17.3105 24.5337 17.6057 24.3258 17.8482 24.0638C17.7113 24.3161 17.5419 24.5495 17.3442 24.7578V24.7568ZM15.9862 24.3388C15.7287 24.3399 15.4736 24.2904 15.2352 24.1929C14.9969 24.0955 14.7801 23.952 14.5973 23.7707C14.4144 23.5894 14.2691 23.3739 14.1696 23.1364C14.07 22.899 14.0183 22.6442 14.0172 22.3868V22.3798C14.0168 21.9925 14.1312 21.6137 14.3459 21.2913C14.5606 20.969 14.866 20.7175 15.2235 20.5685C15.581 20.4196 15.9746 20.3799 16.3547 20.4545C16.7348 20.5291 17.0842 20.7146 17.3589 20.9876C17.6336 21.2607 17.8213 21.609 17.8982 21.9886C17.9751 22.3682 17.9378 22.762 17.7911 23.1205C17.6443 23.4789 17.3947 23.7858 17.0736 24.0025C16.7526 24.2191 16.3745 24.3358 15.9872 24.3378V24.3388H15.9862ZM18.4742 21.9998C18.3735 21.4048 18.0629 20.8656 17.5987 20.48C17.1345 20.0945 16.5475 19.888 15.9441 19.8982C15.3408 19.9083 14.761 20.1344 14.3101 20.5354C13.8591 20.9364 13.5668 21.4857 13.4862 22.0838C13.4564 21.8572 13.4381 21.6292 13.4312 21.4008C13.6325 20.8874 13.9845 20.447 14.4409 20.1377C14.8974 19.8283 15.4368 19.6645 15.9882 19.6678H15.9982C16.5388 19.6665 17.0675 19.8258 17.5174 20.1254C17.9673 20.425 18.318 20.8515 18.5252 21.3508C18.5184 21.5681 18.5014 21.785 18.4742 22.0008V21.9998ZM18.9062 25.9308H18.9162L18.8962 25.9378C19.8462 24.9218 20.4462 23.3888 20.4462 21.5848C20.4516 20.6875 20.2954 19.7967 19.9852 18.9548H19.9992C21.4142 19.1588 22.1512 19.8848 22.1512 19.8848C22.1512 19.8848 22.3012 24.0308 18.9082 25.9308H18.9062ZM25.3692 16.9908V17.2048C25.3692 17.2538 25.3652 17.3018 25.3642 17.3498C25.3608 17.4592 25.3548 17.5686 25.3462 17.6778C25.3462 17.7118 25.3402 17.7468 25.3372 17.7808C25.3312 17.8518 25.3252 17.9238 25.3172 17.9938C25.3172 18.0098 25.3142 18.0258 25.3122 18.0418C25.3046 18.1105 25.2963 18.1792 25.2872 18.2478V18.2578L25.2592 18.4558V18.4628C25.1007 19.4944 24.7772 20.4939 24.3012 21.4228L24.2672 21.4888C24.2322 21.5558 24.1972 21.6238 24.1602 21.6908C23.7975 22.3673 23.3723 23.0084 22.8902 23.6058C22.8496 23.6445 22.8002 23.6726 22.7462 23.6878L22.7522 23.6778L22.7372 23.6898C22.5642 23.7398 22.3432 23.6968 22.3672 23.5798L22.3842 23.5358L22.3942 23.5258C22.6672 23.0798 22.8842 22.6038 23.0392 22.1058C23.355 21.1041 23.4578 20.0475 23.3412 19.0038L23.3252 18.8668L23.1872 18.8008C23.0442 18.7288 22.9072 18.6578 22.7642 18.5968L22.3292 18.4208L22.2902 18.4068L22.3002 18.4038C22.6632 18.2968 23.0202 18.1688 23.3692 18.0228L23.4622 17.9788L23.5122 17.8908C23.8472 17.2388 24.1222 16.5588 24.3342 15.8588C24.7092 15.7818 25.0292 15.5418 25.2072 15.2038C25.3122 15.7658 25.3672 16.3368 25.3722 16.9088C25.3704 16.9361 25.3694 16.9634 25.3692 16.9908Z" fill="white"/>
<path d="M9.6461 11.1355L9.8771 10.8555H9.9541H9.8391C9.7231 11.0255 9.5811 11.1885 9.4541 11.3555C9.5271 11.2815 9.5841 11.2125 9.6461 11.1355Z" fill="black"/>
<path d="M16.9505 6.20996C17.4345 6.33696 17.7535 6.56796 17.7535 6.83696C17.7535 7.10696 17.4295 7.33696 16.9505 7.46396C17.6105 7.40396 18.1055 7.14496 18.1055 6.83696C18.1055 6.52896 17.6105 6.26796 16.9505 6.20996ZM15.3595 8.68196C15.4262 8.68197 15.4902 8.65576 15.5377 8.60899C15.5852 8.56221 15.6124 8.49863 15.6135 8.43196C15.6135 8.39849 15.6069 8.36534 15.594 8.33444C15.5811 8.30355 15.5623 8.27551 15.5385 8.25196C15.5148 8.22866 15.4866 8.21043 15.4557 8.19839C15.4247 8.18636 15.3917 8.18077 15.3585 8.18196C15.2929 8.18275 15.2303 8.20951 15.1843 8.25636C15.1384 8.30322 15.1129 8.36636 15.1135 8.43196C15.1135 8.56996 15.2235 8.68196 15.3595 8.68196ZM8.71447 9.52396C8.66486 9.52443 8.61648 9.53953 8.57542 9.56738C8.53435 9.59522 8.50242 9.63457 8.48362 9.68049C8.46483 9.72641 8.46001 9.77686 8.46976 9.82551C8.47952 9.87416 8.50342 9.91884 8.53847 9.95396C8.58547 10.001 8.64847 10.026 8.71447 10.024C8.76409 10.0235 8.81246 10.0084 8.85353 9.98055C8.8946 9.9527 8.92653 9.91335 8.94532 9.86743C8.96412 9.82151 8.96894 9.77106 8.95918 9.72241C8.94942 9.67377 8.92552 9.62908 8.89047 9.59396C8.86753 9.57082 8.84005 9.55266 8.80977 9.54061C8.77949 9.52857 8.74705 9.5229 8.71447 9.52396ZM9.40747 17.597C9.45709 17.5965 9.50546 17.5814 9.54653 17.5535C9.5876 17.5257 9.61953 17.4864 9.63832 17.4404C9.65712 17.3945 9.66194 17.3441 9.65218 17.2954C9.64242 17.2468 9.61852 17.2021 9.58347 17.167C9.56053 17.1438 9.53305 17.1257 9.50277 17.1136C9.47249 17.1016 9.44005 17.0959 9.40747 17.097C9.34133 17.0975 9.27805 17.124 9.23127 17.1708C9.1845 17.2175 9.158 17.2808 9.15747 17.347C9.16247 17.487 9.27247 17.597 9.40747 17.597ZM15.4795 18.554C15.5291 18.5535 15.5775 18.5384 15.6185 18.5105C15.6596 18.4827 15.6915 18.4433 15.7103 18.3974C15.7291 18.3515 15.7339 18.3011 15.7242 18.2524C15.7144 18.2038 15.6905 18.1591 15.6555 18.124C15.6325 18.1008 15.6051 18.0827 15.5748 18.0706C15.5445 18.0586 15.512 18.0529 15.4795 18.054C15.4127 18.0553 15.3491 18.0827 15.3024 18.1304C15.2556 18.1781 15.2295 18.2422 15.2295 18.309C15.2338 18.3734 15.2617 18.4339 15.3078 18.4791C15.3539 18.5243 15.415 18.5509 15.4795 18.554ZM16.8445 8.68696C16.9112 8.68697 16.9752 8.66076 17.0227 8.61399C17.0702 8.56721 17.0974 8.50363 17.0985 8.43696C17.0985 8.40349 17.0919 8.37034 17.079 8.33945C17.0661 8.30855 17.0473 8.28051 17.0235 8.25696C16.9998 8.23366 16.9716 8.21543 16.9407 8.20339C16.9097 8.19136 16.8767 8.18577 16.8435 8.18696C16.7779 8.18775 16.7153 8.2145 16.6693 8.26136C16.6234 8.30822 16.5979 8.37136 16.5985 8.43696C16.5985 8.57596 16.7085 8.68696 16.8445 8.68696ZM16.7225 18.06C16.6565 18.061 16.5935 18.0877 16.5468 18.1343C16.5002 18.181 16.4735 18.244 16.4725 18.31C16.4825 18.447 16.5895 18.555 16.7225 18.56C16.7721 18.5595 16.8205 18.5444 16.8615 18.5165C16.9026 18.4887 16.9345 18.4493 16.9533 18.4034C16.9721 18.3575 16.9769 18.3071 16.9672 18.2584C16.9574 18.2098 16.9335 18.1651 16.8985 18.13C16.8755 18.1068 16.8481 18.0887 16.8178 18.0766C16.7875 18.0646 16.755 18.0589 16.7225 18.06ZM9.94547 19.743C9.9019 19.7398 9.85832 19.749 9.81976 19.7695C9.78119 19.7901 9.7492 19.8211 9.72747 19.859C9.70439 19.8978 9.6917 19.942 9.69065 19.9872C9.6896 20.0324 9.70022 20.0771 9.72147 20.117C9.76547 20.197 9.84747 20.246 9.93547 20.242H9.94547C10.0109 20.2407 10.0732 20.2137 10.119 20.167C10.1648 20.1202 10.1905 20.0574 10.1905 19.992C10.1912 19.9283 10.1676 19.8668 10.1245 19.82C10.1015 19.7953 10.0736 19.7757 10.0426 19.7624C10.0116 19.7492 9.97819 19.7425 9.94447 19.743H9.94547ZM11.4545 19.292C11.4219 19.2922 11.3897 19.2989 11.3597 19.3116C11.3297 19.3243 11.3025 19.3428 11.2797 19.366C11.2569 19.3892 11.2388 19.4167 11.2266 19.4469C11.2144 19.4771 11.2082 19.5094 11.2085 19.542C11.2085 19.68 11.3185 19.792 11.4545 19.792C11.5212 19.792 11.5852 19.7658 11.6327 19.719C11.6802 19.6722 11.7074 19.6086 11.7085 19.542C11.7085 19.5085 11.7019 19.4753 11.689 19.4444C11.6761 19.4135 11.6573 19.3855 11.6335 19.362C11.6098 19.3387 11.5816 19.3204 11.5507 19.3084C11.5197 19.2964 11.4867 19.2908 11.4535 19.292H11.4545ZM20.7505 19.292C20.7176 19.2932 20.6854 19.3009 20.6555 19.3146C20.6257 19.3283 20.5988 19.3478 20.5765 19.3719C20.5541 19.396 20.5368 19.4243 20.5254 19.4551C20.514 19.4859 20.5087 19.5186 20.51 19.5515C20.5112 19.5843 20.5189 19.6166 20.5326 19.6464C20.5464 19.6763 20.5658 19.7031 20.5899 19.7255C20.614 19.7478 20.6423 19.7652 20.6731 19.7766C20.7039 19.788 20.7366 19.7932 20.7695 19.792C20.8358 19.7893 20.8983 19.7604 20.9433 19.7117C20.9883 19.6629 21.0121 19.5983 21.0095 19.532C21.0068 19.4657 20.9779 19.4031 20.9292 19.3581C20.8804 19.3131 20.8158 19.2893 20.7495 19.292H20.7505Z" fill="white"/>
</svg>
