<svg width="32" height="32" viewBox="0 0 32 32" fill="none" xmlns="http://www.w3.org/2000/svg">
<path d="M16 32C24.8366 32 32 24.8366 32 16C32 7.16344 24.8366 0 16 0C7.16344 0 0 7.16344 0 16C0 24.8366 7.16344 32 16 32Z" fill="white"/>
<path d="M18.65 0.226C17.7745 0.0772534 16.8881 0.00165898 16 0C7.16 0 0 7.16 0 16C0 19.394 1.067 22.53 2.86 25.131C3.96 23.515 6.497 22.4 9.438 22.4C11.458 22.4 13.285 22.933 14.594 23.79L18.65 0.226ZM27.152 4.541C29.915 10.651 27.491 13.915 27.491 13.915C25.616 8.275 20.186 7.451 20.186 7.451C20.186 7.451 16.614 26.699 16.614 26.941C16.614 29.026 14.4 30.788 11.394 31.321C12.888 31.7706 14.4398 31.9993 16 32C24.84 32 32 24.84 32 16C32 11.507 30.141 7.45 27.152 4.541Z" fill="#FBBF02"/>
</svg>
