<svg width="32" height="32" viewBox="0 0 32 32" fill="none" xmlns="http://www.w3.org/2000/svg">
<g clip-path="url(#clip0_16_12791)">
<path d="M16 32C24.8366 32 32 24.8366 32 16C32 7.16344 24.8366 0 16 0C7.16344 0 0 7.16344 0 16C0 24.8366 7.16344 32 16 32Z" fill="#F0F0F0"/>
<path d="M16.0004 0C9.12098 0 3.25629 4.342 0.995605 10.4348H31.0053C28.7445 4.342 22.8799 0 16.0004 0V0Z" fill="#D80027"/>
<path d="M16.0004 32.0002C22.8798 32.0002 28.7445 27.6582 31.0052 21.5654H0.995605C3.25629 27.6582 9.12098 32.0002 16.0004 32.0002Z" fill="black"/>
<path d="M9.55972 12.1738L10.423 14.8308H13.217L10.9567 16.4732L11.82 19.1303L9.55972 17.4881L7.2994 19.1303L8.16278 16.4732L5.90247 14.8308H8.6964L9.55972 12.1738Z" fill="#6DA544"/>
<path d="M22.4395 12.1738L23.3028 14.8308H26.0968L23.8364 16.4732L24.6998 19.1303L22.4395 17.4881L20.1792 19.1303L21.0425 16.4732L18.7822 14.8308H21.5762L22.4395 12.1738Z" fill="#6DA544"/>
</g>
<defs>
<clipPath id="clip0_16_12791">
<rect width="32" height="32" fill="white"/>
</clipPath>
</defs>
</svg>
