<svg width="32" height="32" viewBox="0 0 32 32" fill="none" xmlns="http://www.w3.org/2000/svg">
<path d="M16 32C24.8366 32 32 24.8366 32 16C32 7.16344 24.8366 0 16 0C7.16344 0 0 7.16344 0 16C0 24.8366 7.16344 32 16 32Z" fill="#338AF3"/>
<path d="M15.9539 10.4351C12.8802 10.4351 10.3887 12.9267 10.3887 16.0002C10.3887 19.0738 12.8802 21.5654 15.9539 21.5654C19.0274 21.5654 21.519 19.0738 21.519 16.0002C21.519 12.9267 19.0273 10.4351 15.9539 10.4351ZM14.5625 16.0002C14.5625 15.2319 15.1854 14.6089 15.9539 14.6089C16.7222 14.6089 17.3452 15.2319 17.3452 16.0002C17.3452 16.7687 16.7222 17.3916 15.9539 17.3916C15.1854 17.3916 14.5625 16.7687 14.5625 16.0002V16.0002ZM17.3964 13.6203C17.1804 13.4891 16.945 13.3872 16.6958 13.3184V11.8934C17.3234 12.0061 17.902 12.2585 18.3986 12.6181L17.3964 13.6203ZM15.3045 13.2946C15.0435 13.3571 14.7969 13.4562 14.5702 13.5864L13.5634 12.5796C14.0724 12.2232 14.6641 11.977 15.3045 11.8768V13.2946ZM14.5702 18.4141C14.7968 18.5442 15.0434 18.6434 15.3045 18.7058V20.1236C14.664 20.0235 14.0724 19.7772 13.5634 19.4208L14.5702 18.4141ZM16.6959 18.6821C16.945 18.6132 17.1805 18.5114 17.3964 18.3802L18.3985 19.3824C17.9019 19.742 17.3234 19.9945 16.6958 20.1071V18.6821H16.6959V18.6821ZM18.3676 17.384C18.4902 17.1707 18.586 16.9399 18.6488 16.6959H20.0689C19.9644 17.3186 19.7223 17.8941 19.3745 18.3907L18.3676 17.384ZM18.6488 15.3046C18.586 15.0606 18.4902 14.83 18.3676 14.6166L19.3745 13.6097C19.7222 14.1064 19.9644 14.6819 20.0689 15.3046H18.6487V15.3046H18.6488ZM12.5717 13.5556L13.5739 14.5577C13.4345 14.7871 13.3275 15.0381 13.2589 15.3046H11.8387C11.947 14.6592 12.2032 14.0644 12.5717 13.5556ZM11.8387 16.6959H13.2589C13.3274 16.9624 13.4345 17.2134 13.5739 17.4427L12.5717 18.4449C12.2032 17.9361 11.947 17.3413 11.8387 16.6959Z" fill="#F0F0F0"/>
<path d="M24.997 16.0002C24.997 13.5264 24.0034 11.2851 22.394 9.65234L20.9183 11.128C22.1501 12.383 22.9101 14.1028 22.9101 16.0002C22.9101 19.8422 19.7955 22.9567 15.9536 22.9567C12.1115 22.9567 8.99709 19.8422 8.99709 16.0002C8.99709 14.0791 9.77566 12.34 11.0346 11.0812L9.55891 9.60547C7.92234 11.242 6.91016 13.5029 6.91016 16.0002C6.91016 20.1386 9.68997 23.6278 13.4843 24.7023C13.0683 25.4926 13.1317 26.4875 13.7259 27.2291C14.5064 26.6036 15.3145 25.956 16 25.4067C16.6855 25.956 17.4936 26.6036 18.274 27.2291C18.8742 26.4802 18.9332 25.4726 18.5034 24.6785C22.2562 23.5776 24.997 20.1092 24.997 16.0002V16.0002Z" fill="#F0F0F0"/>
</svg>
