<svg width="32" height="32" viewBox="0 0 32 32" fill="none" xmlns="http://www.w3.org/2000/svg">
<path d="M16 32C24.8366 32 32 24.8366 32 16C32 7.16344 24.8366 0 16 0C7.16344 0 0 7.16344 0 16C0 24.8366 7.16344 32 16 32Z" fill="#D80027"/>
<path d="M16.0005 23.652C20.2266 23.652 23.6526 20.226 23.6526 15.9998C23.6526 11.7737 20.2266 8.34766 16.0005 8.34766C11.7743 8.34766 8.34827 11.7737 8.34827 15.9998C8.34827 20.226 11.7743 23.652 16.0005 23.652Z" fill="#F0F0F0"/>
<path d="M16.9435 13.0737L18.2563 14.8828L20.3824 14.1934L19.0675 16.0009L20.3802 17.8099L18.2548 17.1179L16.94 18.9254L16.9414 16.6904L14.816 15.9984L16.9422 15.309L16.9435 13.0737Z" fill="#D80027"/>
<path d="M17.7396 20.5216C15.2424 20.5216 13.2179 18.4971 13.2179 15.9998C13.2179 13.5026 15.2424 11.4781 17.7396 11.4781C18.5182 11.4781 19.2509 11.6749 19.8906 12.0216C18.8871 11.0403 17.5149 10.4346 16.0005 10.4346C12.927 10.4346 10.4353 12.9262 10.4353 15.9998C10.4353 19.0733 12.927 21.5649 16.0005 21.5649C17.5149 21.5649 18.8872 20.9593 19.8906 19.9779C19.2509 20.3247 18.5182 20.5216 17.7396 20.5216Z" fill="#D80027"/>
</svg>
