<svg width="32" height="32" viewBox="0 0 32 32" fill="none" xmlns="http://www.w3.org/2000/svg">
<g clip-path="url(#clip0_16_13059)">
<path d="M30.4124 22.9567C31.4296 20.8532 32 18.4933 32 16.0002C32 13.507 31.4296 11.1472 30.4124 9.04366L16 7.65234L1.58763 9.04366C0.570438 11.1472 0 13.507 0 16.0002C0 18.4933 0.570438 20.8532 1.58763 22.9567L16 24.348L30.4124 22.9567Z" fill="#0052B4"/>
<path d="M16.0003 32C22.3436 32 27.8246 28.3085 30.4126 22.9565H1.58789C4.17589 28.3085 9.65689 32 16.0003 32Z" fill="#D80027"/>
<path d="M27.7105 19.1408L26.8654 19.8012L27.2322 20.8087L26.343 20.2092L25.4979 20.8694L25.7934 19.8385L24.9043 19.2387L25.9761 19.2013L26.2719 18.1704L26.6387 19.1782L27.7105 19.1408Z" fill="#F0F0F0"/>
<path d="M25.5467 15.3926L24.9785 16.3021L25.6679 17.1235L24.6272 16.8644L24.0589 17.7737L23.9839 16.7039L22.9434 16.4443L23.9379 16.0425L23.8631 14.9726L24.5524 15.7943L25.5467 15.3926Z" fill="#F0F0F0"/>
<path d="M22.2312 12.6104L22.0083 13.6594L22.937 14.1957L21.8705 14.3081L21.6475 15.3569L21.2112 14.3772L20.1445 14.4892L20.9417 13.7715L20.5055 12.7919L21.4342 13.328L22.2312 12.6104Z" fill="#F0F0F0"/>
<path d="M18.1641 11.1304L18.3136 12.1924L19.3696 12.3786L18.4057 12.8489L18.5551 13.9109L17.8101 13.1394L16.8459 13.6096L17.3496 12.6625L16.6045 11.8911L17.6607 12.0773L18.1641 11.1304Z" fill="#F0F0F0"/>
<path d="M13.8363 11.1304L14.3399 12.0773L15.3959 11.891L14.651 12.6627L15.1544 13.6097L14.1905 13.1394L13.4454 13.9107L13.5948 12.8489L12.6309 12.3788L13.687 12.1924L13.8363 11.1304Z" fill="#F0F0F0"/>
<path d="M9.76916 12.6104L10.5663 13.328L11.4949 12.7919L11.0588 13.7719L11.8557 14.4894L10.7892 14.3772L10.3528 15.3569L10.1301 14.3079L9.06348 14.1959L9.99223 13.6595L9.76916 12.6104Z" fill="#F0F0F0"/>
<path d="M6.45395 15.3924L7.44851 15.7942L8.13763 14.9727L8.06307 16.0427L9.05732 16.4445L8.01676 16.7038L7.94182 17.7735L7.3737 16.8642L6.33301 17.1235L7.02238 16.302L6.45395 15.3924Z" fill="#F0F0F0"/>
<path d="M4.29004 19.1407L5.36204 19.1781L5.72866 18.1704L6.0246 19.2014L7.09629 19.2389L6.20716 19.8386L6.50266 20.8695L5.65766 20.2093L4.76848 20.8088L5.13529 19.8011L4.29004 19.1407Z" fill="#F0F0F0"/>
<path d="M30.4126 9.0435C27.8246 3.69156 22.3436 0 16.0003 0C9.65689 0 4.17589 3.69156 1.58789 9.0435H30.4126Z" fill="#FFDA44"/>
</g>
<defs>
<clipPath id="clip0_16_13059">
<rect width="32" height="32" fill="white"/>
</clipPath>
</defs>
</svg>
