<svg width="32" height="32" viewBox="0 0 32 32" fill="none" xmlns="http://www.w3.org/2000/svg">
<path d="M16 32C24.8366 32 32 24.8366 32 16C32 7.16344 24.8366 0 16 0C7.16344 0 0 7.16344 0 16C0 24.8366 7.16344 32 16 32Z" fill="#FFDA44"/>
<path d="M15.9999 31.9998C20.8493 31.9998 25.1945 29.842 28.1287 26.4346H3.87109C6.80528 29.842 11.1505 31.9998 15.9999 31.9998Z" fill="#338AF3"/>
<path d="M32 16C32 7.1635 24.8365 0 16 0C7.1635 0 0 7.1635 0 16C0 17.4442 0.1925 18.8431 0.551188 20.1739H31.4489C31.8075 18.8431 32 17.4442 32 16Z" fill="#338AF3"/>
<path d="M1.27148 22.2607C1.57992 22.9855 1.94048 23.6825 2.34805 24.3477H29.6513C30.0589 23.6824 30.4194 22.9854 30.728 22.2607H1.27148Z" fill="#338AF3"/>
<path d="M7.33206 10.0912L4.20605 8.71162L7.33206 7.33199L8.71162 4.20605L10.0912 7.33199L13.2171 8.71162L10.0912 10.0912L8.71162 13.2172L7.33206 10.0912Z" fill="#F0F0F0"/>
<path d="M8.71231 5.9292L9.56425 7.85976L11.4949 8.71183L9.56425 9.56382L8.71231 11.4944L7.86025 9.56382L5.92969 8.71183L7.86025 7.85976L8.71231 5.9292Z" fill="#D80027"/>
</svg>
