<svg width="32" height="32" viewBox="0 0 32 32" fill="none" xmlns="http://www.w3.org/2000/svg">
<path d="M16 32C24.8366 32 32 24.8366 32 16C32 7.16344 24.8366 0 16 0C7.16344 0 0 7.16344 0 16C0 24.8366 7.16344 32 16 32Z" fill="#F0F0F0"/>
<path d="M15.9999 0C12.7889 0 9.79936 0.946563 7.29362 2.57488L11.4086 5.33294L6.26074 7.99956L11.4086 10.6662L6.26074 13.3328L11.4086 15.9991L6.26074 18.6657L11.4086 21.3323L6.26074 23.9991L11.4086 26.6658L7.29312 29.4247C9.79899 31.0533 12.7887 32 15.9999 32C24.8364 32 31.9999 24.8365 31.9999 16C31.9999 7.1635 24.8364 0 15.9999 0V0Z" fill="#D80027"/>
</svg>
