<svg width="32" height="32" viewBox="0 0 32 32" fill="none" xmlns="http://www.w3.org/2000/svg">
<g clip-path="url(#clip0_16_12622)">
<path d="M6.98242 29.2175C9.55029 30.9728 12.6551 32.0001 16.0003 32.0001C19.3456 32.0001 22.4505 30.9728 25.0183 29.2175L16.0003 27.8262L6.98242 29.2175Z" fill="#D80027"/>
<path d="M25.0183 2.78262C22.4505 1.02731 19.3456 0 16.0003 0C12.6551 0 9.55017 1.02731 6.98242 2.78262L16.0003 4.17394L25.0183 2.78262Z" fill="#D80027"/>
<path d="M6.98242 29.2175C9.55029 30.9728 12.6551 32.0001 16.0003 32.0001C19.3456 32.0001 22.4505 30.9728 25.0183 29.2175L16.0003 27.8262L6.98242 29.2175Z" fill="#D80027"/>
<path d="M25.0183 2.78262C22.4505 1.02731 19.3456 0 16.0003 0C12.6551 0 9.55017 1.02731 6.98242 2.78262L16.0003 4.17394L25.0183 2.78262Z" fill="#D80027"/>
<path d="M31.9588 14.9567C31.5798 10.0185 28.5793 5.21753 25.0175 2.78271H6.98164C3.03564 5.48028 0.358953 9.89828 0.0332031 14.9567L15.9996 16.0002L31.9588 14.9567Z" fill="#0052B4"/>
<path d="M0.0332031 17.0435C0.358953 22.1019 3.03558 26.5199 6.98158 29.2174H25.0175C28.9636 26.5199 31.6401 22.1019 31.9659 17.0435L15.9996 16L0.0332031 17.0435Z" fill="#0052B4"/>
<path d="M31.9592 14.9564H17.0435V2.08694H14.9566V14.9564H0.0336875C0.0115 15.3014 0 15.6494 0 16C0 16.3506 0.0114375 16.6984 0.033625 17.0434H14.9566V29.9131H17.0435V17.0434H31.9664C31.9886 16.6984 32 16.3506 32 16C32 15.6519 31.9859 15.3039 31.9592 14.9564Z" fill="#D80027"/>
<path d="M6.26074 15.9998L15.9998 9.87842L25.739 15.9998L15.9998 22.1212L6.26074 15.9998Z" fill="#F0F0F0"/>
<path d="M10.4346 18.7828H22.9563L20.1737 14.6089L18.7824 16.0002L17.3911 15.3046L15.9998 17.3915H13.2171L11.8258 16.0002L10.4346 18.7828Z" fill="#6DA544"/>
<path d="M15.9999 11.8262L16.3453 12.889H17.4627L16.5587 13.5459L16.904 14.6088L15.9999 13.9519L15.0958 14.6088L15.4412 13.5459L14.5371 12.889H15.6545L15.9999 11.8262Z" fill="#FFDA44"/>
<path d="M16.0002 8.12939L3.47852 15.9998L16.0002 23.8701L28.522 15.9998L16.0002 8.12939ZM7.40026 15.9998L16.0002 10.5943L24.6003 15.9998L16.0002 21.4052L7.40026 15.9998Z" fill="#D80027"/>
</g>
<defs>
<clipPath id="clip0_16_12622">
<rect width="32" height="32" fill="white"/>
</clipPath>
</defs>
</svg>
