<svg width="32" height="32" viewBox="0 0 32 32" fill="none" xmlns="http://www.w3.org/2000/svg">
<g clip-path="url(#clip0_16_12579)">
<path d="M16 32C24.8366 32 32 24.8366 32 16C32 7.16344 24.8366 0 16 0C7.16344 0 0 7.16344 0 16C0 24.8366 7.16344 32 16 32Z" fill="#F0F0F0"/>
<path d="M25.7408 3.3075C23.0429 1.23369 19.6657 0 15.9998 0C12.334 0 8.95673 1.23375 6.25879 3.3075L15.9998 13.0485L25.7408 3.3075Z" fill="#0052B4"/>
<path d="M3.30744 6.25879C1.23375 8.95673 0 12.3339 0 15.9998C0 19.6657 1.23375 23.0429 3.3075 25.7409L13.0486 15.9998L3.30744 6.25879Z" fill="#0052B4"/>
<path d="M6.25879 28.6927C8.95679 30.7665 12.334 32.0002 15.9998 32.0002C19.6657 32.0002 23.0429 30.7664 25.7409 28.6927L15.9998 18.9517L6.25879 28.6927Z" fill="#0052B4"/>
<path d="M28.6922 25.7408C30.766 23.0429 31.9997 19.6657 31.9997 15.9998C31.9997 12.3339 30.766 8.95673 28.6922 6.25879L18.9512 15.9998L28.6922 25.7408Z" fill="#0052B4"/>
</g>
<defs>
<clipPath id="clip0_16_12579">
<rect width="32" height="32" fill="white"/>
</clipPath>
</defs>
</svg>
