<svg width="32" height="32" viewBox="0 0 32 32" fill="none" xmlns="http://www.w3.org/2000/svg">
<g clip-path="url(#clip0_16_12130)">
<path d="M16 32C24.8365 32 32 24.8365 32 16C32 13.3148 31.3375 10.7846 30.1686 8.5625L15.9812 16.0187L23.4375 1.83138C21.2154 0.6625 18.6852 0 16 0C7.1635 0 0 7.1635 0 16C0 20.4183 1.79088 24.4183 4.68625 27.3137C7.58169 30.2092 11.5817 32 16 32Z" fill="#0052B4"/>
<path d="M30.1522 8.57971C29.4198 7.18571 28.4676 5.87689 27.2955 4.70477C26.1233 3.53264 24.8147 2.58046 23.4205 1.84814L4.66797 27.3322L30.1522 8.57971Z" fill="#F0F0F0"/>
<path d="M4.66797 27.3325L30.1522 8.58002C29.4198 7.18602 28.4676 5.8772 27.2955 4.70508L4.66797 27.3325Z" fill="#FF9811"/>
<path d="M13.8945 9.38275L11.9405 10.3019L12.981 12.1944L10.8591 11.7884L10.5903 13.9319L9.11227 12.3554L7.63427 13.9319L7.36552 11.7884L5.24364 12.1942L6.28408 10.3018L4.33008 9.38275L6.28414 8.46356L5.24364 6.57118L7.36539 6.977L7.63433 4.8335L9.11227 6.41006L10.5903 4.8335L10.8591 6.977L12.9811 6.57118L11.9405 8.46362L13.8945 9.38275Z" fill="#F0F0F0"/>
</g>
<defs>
<clipPath id="clip0_16_12130">
<rect width="32" height="32" fill="white"/>
</clipPath>
</defs>
</svg>
