<svg width="32" height="32" viewBox="0 0 32 32" fill="none" xmlns="http://www.w3.org/2000/svg">
<path d="M32 16C32 24.8365 24.8365 32 16 32C7.1635 32 0 24.8365 0 16C0 16.0038 16 0.00175 16 0C24.8365 0 32 7.1635 32 16Z" fill="#0052B4"/>
<path d="M15.9569 15.9998H15.9997C15.9997 15.9855 15.9997 15.9715 15.9997 15.957C15.9855 15.9713 15.9712 15.9856 15.9569 15.9998Z" fill="#F0F0F0"/>
<path d="M16 8.34781C16 5.5325 16 3.68781 16 0H15.9973C7.162 0.0015 0 7.16431 0 16H8.34781V11.2993L13.0486 16H15.9572C15.9715 15.9857 15.9858 15.9715 16.0001 15.9572C16.0001 14.8793 16.0001 13.9174 16.0001 13.0486L11.2992 8.34781H16Z" fill="#F0F0F0"/>
<path d="M8.09491 2.08691C5.59247 3.51185 3.5121 5.59223 2.08716 8.09467V16H6.2611V6.26098V6.26085H16.0002C16.0002 4.94442 16.0002 3.69029 16.0002 2.08691H8.09491Z" fill="#D80027"/>
<path d="M15.9998 14.0322L10.3152 8.34766C10.3152 8.34766 8.34766 8.34778 8.34766 8.34766V8.34778L15.9997 15.9998H15.9998C15.9998 15.9998 15.9998 14.6431 15.9998 14.0322Z" fill="#D80027"/>
<path d="M27.7084 11.8726L28.0537 12.9354H29.1712L28.2671 13.5923L28.6125 14.6551L27.7084 13.9983L26.8042 14.6551L27.1495 13.5923L26.2454 12.9354H27.3629L27.7084 11.8726Z" fill="#D80027"/>
<path d="M23.7137 19.5244L24.2317 21.1188H25.908L24.5518 22.104L25.0699 23.6984L23.7137 22.713L22.3574 23.6984L22.8755 22.104L21.5193 21.1188H23.1956L23.7137 19.5244Z" fill="#D80027"/>
<path d="M23.8643 7.00285L24.2961 8.33154H25.693L24.5628 9.15248L24.9945 10.4811L23.8643 9.65992L22.7342 10.4811L23.1659 9.15248L22.0358 8.33154H23.4326L23.8643 7.00285Z" fill="#D80027"/>
<path d="M20.0203 11.8262L20.5383 13.4205H22.2147L20.8584 14.4058L21.3766 16.0001L20.0203 15.0148L18.6641 16.0001L19.1822 14.4058L17.8259 13.4205H19.5022L20.0203 11.8262Z" fill="#D80027"/>
</svg>
