<svg width="32" height="32" viewBox="0 0 32 32" fill="none" xmlns="http://www.w3.org/2000/svg">
<path d="M16 32C24.8366 32 32 24.8366 32 16C32 7.16344 24.8366 0 16 0C7.16344 0 0 7.16344 0 16C0 24.8366 7.16344 32 16 32Z" fill="#F0F0F0"/>
<path d="M10.4344 8.34768V6.26074H8.34744V8.34768H6.2605V10.4347H8.34744V12.5216H10.4344V10.4347H12.5214V8.34768H10.4344Z" fill="#D80027"/>
<path d="M16 0V16C7.1635 16.0001 3.65156 16 0 16.0001C0 24.8365 7.1635 32 16 32C24.8365 32 32 24.8365 32 16C32 7.1635 24.8365 0 16 0Z" fill="#D80027"/>
</svg>
