<svg width="32" height="32" viewBox="0 0 32 32" fill="none" xmlns="http://www.w3.org/2000/svg">
<g clip-path="url(#clip0_16_12684)">
<path d="M16 32C24.8366 32 32 24.8366 32 16C32 7.16344 24.8366 0 16 0C7.16344 0 0 7.16344 0 16C0 24.8366 7.16344 32 16 32Z" fill="#F0F0F0"/>
<path d="M4.68628 27.3135C-1.56209 21.0651 -1.56209 10.9345 4.68628 4.68604C4.68584 4.68672 13.9131 15.9998 13.9131 15.9998L4.68628 27.3135Z" fill="black"/>
<path d="M13.913 16.0002L2.12204 8.03223C1.75648 8.66766 1.4341 9.33091 1.1571 10.0174L7.12641 16.0002L1.15729 21.9834C1.43404 22.6694 1.7561 23.3322 2.12142 23.9672L13.913 16.0002Z" fill="#FFDA44"/>
<path d="M31.865 13.9131H13.913L4.68651 4.68652C3.69226 5.68077 2.82845 6.80521 2.12245 8.03215L10.0749 16L2.12183 23.9669C2.82783 25.1941 3.69201 26.319 4.68651 27.3135L13.913 18.087H31.865C31.9539 17.4038 32.0004 16.7073 32.0004 16C32.0004 15.2927 31.9539 14.5962 31.865 13.9131V13.9131Z" fill="#6DA544"/>
<path d="M6.25916 28.6922C8.95722 30.7661 12.3345 31.9999 16.0005 31.9999C23.393 31.9999 29.6133 26.9861 31.4493 20.1738H14.7776L6.25916 28.6922Z" fill="#0052B4"/>
<path d="M31.4493 11.8261C29.6133 5.01381 23.393 0 16.0005 0C12.3345 0 8.95722 1.23381 6.25916 3.30769L14.7775 11.8261H31.4493Z" fill="#D80027"/>
</g>
<defs>
<clipPath id="clip0_16_12684">
<rect width="32" height="32" fill="white"/>
</clipPath>
</defs>
</svg>
