<svg width="32" height="32" viewBox="0 0 32 32" fill="none" xmlns="http://www.w3.org/2000/svg">
<g clip-path="url(#clip0_16_12555)">
<path d="M16 32C24.8366 32 32 24.8366 32 16C32 7.16344 24.8366 0 16 0C7.16344 0 0 7.16344 0 16C0 24.8366 7.16344 32 16 32Z" fill="#F0F0F0"/>
<path d="M31.8646 13.9131H18.0871H18.087V0.135438C17.4038 0.0465 16.7073 0 16 0C15.2927 0 14.5962 0.0465 13.9131 0.135438V13.9129V13.913H0.135438C0.0465 14.5962 0 15.2927 0 16C0 16.7073 0.0465 17.4038 0.135438 18.0869H13.9129H13.913V31.8646C14.5962 31.9535 15.2927 32 16 32C16.7073 32 17.4038 31.9536 18.0869 31.8646V18.0871V18.087H31.8646C31.9535 17.4038 32 16.7073 32 16C32 15.2927 31.9535 14.5962 31.8646 13.9131V13.9131Z" fill="#D80027"/>
<path d="M23.652 5.56543C22.3553 5.56543 21.2659 6.45224 20.957 7.65237L23.652 8.34799L26.3469 7.65237C26.038 6.4523 24.9486 5.56543 23.652 5.56543V5.56543Z" fill="black"/>
<path d="M20.8695 11.8259L24.3477 12.5215V11.0426C25.3255 10.7908 26.0951 10.021 26.3468 9.04328L23.6521 8.34766H20.1738L20.8695 10.4346V11.8259Z" fill="black"/>
<path d="M26.347 7.65234H20.1738V9.04366V10.435H20.8695V9.04366H26.3468C26.4041 8.82134 26.4347 8.58822 26.4347 8.34803C26.4347 8.10778 26.4043 7.87466 26.347 7.65234V7.65234Z" fill="#ACABB1"/>
<path d="M9.04357 5.56543C7.74694 5.56543 6.65751 6.45224 6.34863 7.65237L9.04357 8.34799L11.7385 7.65237C11.4296 6.4523 10.3402 5.56543 9.04357 5.56543Z" fill="black"/>
<path d="M6.26112 11.8259L9.73937 12.5215V11.0426C10.7172 10.7908 11.4868 10.021 11.7385 9.04328L9.04374 8.34766H5.56543L6.26105 10.4346V11.8259H6.26112Z" fill="black"/>
<path d="M11.7387 7.65234H5.56543V9.04366V10.435H6.26105V9.04366H11.7384C11.7957 8.82134 11.8263 8.58822 11.8263 8.34803C11.8263 8.10778 11.7959 7.87466 11.7387 7.65234Z" fill="#ACABB1"/>
<path d="M23.652 19.478C22.3553 19.478 21.2659 20.3648 20.957 21.565L23.652 22.2606L26.3469 21.565C26.038 20.3648 24.9486 19.478 23.652 19.478V19.478Z" fill="black"/>
<path d="M20.8695 25.739L24.3477 26.4346V24.9557C25.3255 24.7039 26.0951 23.9341 26.3468 22.9564L23.6521 22.2607H20.1738L20.8695 24.3477V25.739Z" fill="black"/>
<path d="M26.347 21.5654H20.1738V22.9567V24.3481H20.8695V22.9567H26.3468C26.4041 22.7344 26.4347 22.5013 26.4347 22.2611C26.4347 22.0209 26.4043 21.7878 26.347 21.5654V21.5654Z" fill="#ACABB1"/>
<path d="M9.04357 19.478C7.74694 19.478 6.65751 20.3648 6.34863 21.565L9.04357 22.2606L11.7385 21.565C11.4296 20.3648 10.3402 19.478 9.04357 19.478Z" fill="black"/>
<path d="M6.26112 25.739L9.73937 26.4346V24.9557C10.7172 24.7039 11.4868 23.9341 11.7385 22.9564L9.04374 22.2607H5.56543L6.26105 24.3477V25.739H6.26112Z" fill="black"/>
<path d="M11.7387 21.5654H5.56543V22.9567V24.3481H6.26105V22.9567H11.7384C11.7957 22.7344 11.8263 22.5013 11.8263 22.2611C11.8263 22.0209 11.7959 21.7878 11.7387 21.5654Z" fill="#ACABB1"/>
</g>
<defs>
<clipPath id="clip0_16_12555">
<rect width="32" height="32" fill="white"/>
</clipPath>
</defs>
</svg>
