<svg width="32" height="32" viewBox="0 0 32 32" fill="none" xmlns="http://www.w3.org/2000/svg">
<g clip-path="url(#clip0_16_10975)">
<path d="M16 32C24.8366 32 32 24.8366 32 16C32 7.16344 24.8366 0 16 0C7.16344 0 0 7.16344 0 16C0 24.8366 7.16344 32 16 32Z" fill="#F0F0F0"/>
<path d="M27.1963 4.5715C24.3105 1.744 20.3593 0 16.0002 0C14.6088 0 10.538 1.744 7.65234 4.5715H27.1963Z" fill="#6DA544"/>
<path d="M16.0003 13.7145H31.8371C31.6062 12.1004 31.1348 10.5642 30.4597 9.14307H15.3047L16.0003 13.7145Z" fill="#6DA544"/>
<path d="M1.54052 22.8572H30.4591C31.1343 21.4361 31.6057 19.8997 31.8366 18.2857H0.163086C0.394023 19.8998 0.865336 21.4362 1.54052 22.8572V22.8572Z" fill="#6DA544"/>
<path d="M4.80371 27.4287C7.68952 30.2562 11.6406 32.0002 15.9998 32.0002C20.359 32.0002 24.3101 30.2562 27.196 27.4287H4.80371Z" fill="#6DA544"/>
<path d="M15.9998 0C7.93946 0 1.27234 5.96069 0.163086 13.7143H15.9998V0Z" fill="#D80027"/>
<path d="M8.00031 12.2669L7.30469 10.8757V8.09303L9.04381 6.70172L10.7829 8.09303V10.18L11.4786 9.48435V10.8757L10.0873 12.2669H8.00031Z" fill="#F0F0F0"/>
<path d="M4.2587 8L4.44289 8.56688H5.03889L4.5567 8.91731L4.74095 9.48413L4.2587 9.13375L3.77645 9.48413L3.9607 8.91731L3.47852 8.56688H4.07452L4.2587 8Z" fill="#F0F0F0"/>
<path d="M5.6503 6.60889L5.83449 7.17576H6.43055L5.9483 7.5262L6.13249 8.09301L5.6503 7.7427L5.16812 8.09301L5.35237 7.5262L4.87012 7.17576H5.46605L5.6503 6.60889Z" fill="#F0F0F0"/>
<path d="M7.04093 5.21777L7.22512 5.78465H7.82106L7.33893 6.13509L7.52306 6.7019L7.04093 6.35159L6.55868 6.7019L6.74287 6.13509L6.26074 5.78465H6.85668L7.04093 5.21777Z" fill="#F0F0F0"/>
<path d="M13.829 8L13.6448 8.56688H13.0488L13.531 8.91731L13.3468 9.48413L13.829 9.13375L14.3112 9.48413L14.127 8.91731L14.6091 8.56688H14.0132L13.829 8Z" fill="#F0F0F0"/>
<path d="M12.4375 6.60892L12.2533 7.17579H11.6573L12.1395 7.52623L11.9553 8.09304L12.4375 7.74273L12.9197 8.09304L12.7355 7.52623L13.2177 7.17579H12.6217L12.4375 6.60892Z" fill="#F0F0F0"/>
<path d="M11.0458 5.21777L10.8616 5.78465H10.2656L10.7478 6.13509L10.5636 6.7019L11.0458 6.35159L11.528 6.7019L11.3438 6.13509L11.8259 5.78465H11.23L11.0458 5.21777Z" fill="#F0F0F0"/>
<path d="M9.04374 4.52197L8.85949 5.08885H8.26355L8.74568 5.43922L8.56149 6.00604L9.04374 5.65572L9.52593 6.00604L9.34174 5.43922L9.82386 5.08885H9.22793L9.04374 4.52197Z" fill="#F0F0F0"/>
</g>
<defs>
<clipPath id="clip0_16_10975">
<rect width="32" height="32" fill="white"/>
</clipPath>
</defs>
</svg>
