<svg width="32" height="32" viewBox="0 0 32 32" fill="none" xmlns="http://www.w3.org/2000/svg">
<path d="M16 32C24.8366 32 32 24.8366 32 16C32 7.16344 24.8366 0 16 0C7.16344 0 0 7.16344 0 16C0 24.8366 7.16344 32 16 32Z" fill="#F0F0F0"/>
<path d="M0 15.9999C0 22.0645 3.37438 27.3408 8.34781 30.0544V1.94531C3.37438 4.65894 0 9.93518 0 15.9999Z" fill="#D80027"/>
<path d="M0 16C0 23.3924 5.01381 29.6128 11.8261 31.4488V0.551193C5.01381 2.38719 0 8.60757 0 16Z" fill="#0052B4"/>
<path d="M5.73926 5.56543V8.17412C5.73926 9.4708 6.79038 10.5219 8.08707 10.5219C9.38376 10.5219 10.4349 9.4708 10.4349 8.17412V5.56543H5.73926Z" fill="#D80027"/>
<path d="M8.08736 9.13042C7.55992 9.13042 7.13086 8.70136 7.13086 8.17392V6.95654H9.04392V8.17392C9.04392 8.70136 8.6148 9.13042 8.08736 9.13042Z" fill="#F0F0F0"/>
<path d="M17.3912 16.696H13.2173C13.2173 15.9276 12.5944 15.3047 11.826 15.3047C11.0576 15.3047 10.4347 15.9276 10.4347 16.696H6.26074C6.26074 17.4644 6.93005 18.0873 7.69837 18.0873H7.65205C7.65205 18.8557 8.27487 19.4786 9.04337 19.4786C9.04337 20.2471 9.66618 20.8699 10.4347 20.8699H13.2173C13.9857 20.8699 14.6086 20.2471 14.6086 19.4786C15.377 19.4786 15.9999 18.8557 15.9999 18.0873H15.9536C16.7219 18.0873 17.3912 17.4644 17.3912 16.696V16.696Z" fill="#FFDA44"/>
<path d="M17.9627 14.4696L17.5975 15.0544L18.0406 15.5824L17.3716 15.4158L17.0062 16.0004L16.9581 15.3126L16.2891 15.1458L16.9285 14.8875L16.8804 14.1997L17.3236 14.728L17.9627 14.4696Z" fill="#FFDA44"/>
<path d="M15.8316 12.6812L15.6884 13.3556L16.2855 13.7003L15.5997 13.7727L15.4564 14.4469L15.1759 13.817L14.4902 13.889L15.0027 13.4277L14.7223 12.7979L15.3193 13.1426L15.8316 12.6812Z" fill="#FFDA44"/>
<path d="M13.2175 11.7295L13.3135 12.4123L13.9924 12.532L13.3728 12.8342L13.4687 13.5171L12.9898 13.0211L12.3701 13.3233L12.6938 12.7145L12.2148 12.2186L12.8939 12.3382L13.2175 11.7295Z" fill="#FFDA44"/>
<path d="M10.435 11.7295L10.7588 12.3382L11.4377 12.2186L10.9588 12.7146L11.2825 13.3234L10.6628 13.0211L10.1838 13.5169L10.2798 12.8342L9.66016 12.5321L10.3391 12.4123L10.435 11.7295Z" fill="#FFDA44"/>
<path d="M7.82087 12.6812L8.33325 13.1426L8.93025 12.7979L8.65 13.4279L9.16219 13.8891L8.47662 13.817L8.19606 14.4469L8.05294 13.7725L7.36719 13.7005L7.96419 13.3557L7.82087 12.6812Z" fill="#FFDA44"/>
<path d="M5.68902 14.4694L6.32845 14.7278L6.77139 14.1996L6.72352 14.8876L7.3627 15.1459L6.69364 15.3125L6.64539 16.0002L6.28033 15.4157L5.61133 15.5824L6.05452 15.0542L5.68902 14.4694Z" fill="#FFDA44"/>
</svg>
