<svg width="32" height="32" viewBox="0 0 32 32" fill="none" xmlns="http://www.w3.org/2000/svg">
<path d="M32 16C32 24.8365 24.8365 32 16 32C7.1635 32 0 24.8365 0 16C5.49563 10.5044 10.1565 5.8435 16 0C24.8365 0 32 7.1635 32 16Z" fill="#D80027"/>
<path d="M16 16C16 7.1635 16 6.12175 16 0C7.1635 0 0 7.1635 0 16H16Z" fill="#0052B4"/>
<path d="M12.8159 10.4346L13.075 11.2318H13.9131L13.235 11.7243L13.4941 12.5215L12.8159 12.0288L12.1378 12.5215L12.3969 11.7243L11.7188 11.2318H12.5569L12.8159 10.4346Z" fill="#F0F0F0"/>
<path d="M8.60597 4.17383L9.03766 5.50252H10.4347L9.30441 6.32345L9.73622 7.65208L8.60597 6.83089L7.47578 7.65208L7.90753 6.32345L6.77734 5.50252H8.17422L8.60597 4.17383Z" fill="#F0F0F0"/>
<path d="M12.7798 5.56494L13.2115 6.89369H14.6084L13.4782 7.71463L13.9099 9.04325L12.7798 8.22207L11.6496 9.04325L12.0814 7.71463L10.9512 6.89369H12.348L12.7798 5.56494Z" fill="#F0F0F0"/>
<path d="M9.48097 11.1303L9.91272 12.459H11.3096L10.1794 13.28L10.6112 14.6086L9.48097 13.7875L8.35078 14.6086L8.78253 13.28L7.65234 12.459H9.04928L9.48097 11.1303Z" fill="#F0F0F0"/>
<path d="M5.82368 7.65186L6.25543 8.98054H7.65237L6.52212 9.80148L6.95387 11.1301L5.82368 10.309L4.69355 11.1301L5.12524 9.80148L3.99512 8.98054H5.39199L5.82368 7.65186Z" fill="#F0F0F0"/>
</svg>
