<svg width="32" height="32" viewBox="0 0 32 32" fill="none" xmlns="http://www.w3.org/2000/svg">
<g clip-path="url(#clip0_16_11228)">
<path d="M0.7555 11.1302C0.265375 12.6658 -6.24889e-05 14.3016 1.10347e-08 15.9998C-6.24889e-05 17.6978 0.265375 19.3337 0.755562 20.8693L16 21.5651L31.2444 20.8693C31.7344 19.3337 31.9999 17.6978 31.9999 15.9998C31.9999 14.3017 31.7345 12.6658 31.2444 11.1302L15.9999 10.4346L0.7555 11.1302Z" fill="#F0F0F0"/>
<path d="M32 16C32 15.0508 31.9169 14.1211 31.7583 13.2173H0.24175C0.083125 14.1211 0 15.0507 0 15.9999C0 16.9492 0.0831875 17.8788 0.24175 18.7826H31.7583C31.9168 17.8788 32 16.9491 32 16Z" fill="black"/>
<path d="M16.0004 31.9996C23.1389 31.9996 29.1845 27.3245 31.2448 20.8691H0.755981C2.81629 27.3244 8.86198 31.9995 16.0004 31.9996V31.9996Z" fill="#338AF3"/>
<path d="M16.0005 2.50645e-09C8.86205 2.50645e-09 2.81642 4.67518 0.755981 11.1303L31.2447 11.1304C29.1846 4.67518 23.1389 -0.000124997 16.0005 2.50645e-09V2.50645e-09Z" fill="#338AF3"/>
</g>
<defs>
<clipPath id="clip0_16_11228">
<rect width="32" height="32" fill="white"/>
</clipPath>
</defs>
</svg>
