<svg width="32" height="32" viewBox="0 0 32 32" fill="none" xmlns="http://www.w3.org/2000/svg">
<path d="M16 32C24.8366 32 32 24.8366 32 16C32 7.16344 24.8366 0 16 0C7.16344 0 0 7.16344 0 16C0 24.8366 7.16344 32 16 32Z" fill="#338AF3"/>
<path d="M7.65234 17.3911H24.348V19.4781H7.65234V17.3911Z" fill="#818085"/>
<path d="M10.4346 11.1307L15.9998 11.8264L21.5649 11.1307V7.79155L19.3389 8.90462L15.9998 5.56543L12.6606 8.90462L10.4346 7.79155V11.1307Z" fill="#FFDA44"/>
<path d="M9.04305 21.5652H6.95605V17.739L7.65174 16.6955L6.95605 15.652V13.2173H9.04305V21.5652Z" fill="#F0F0F0"/>
<path d="M25.0431 21.5652H22.9561V13.2173H25.0431V15.652L24.3474 16.713L25.0431 17.7392V21.5652Z" fill="#F0F0F0"/>
<path d="M6.95605 15.6523H25.043V17.7393H6.95605V15.6523Z" fill="#ACABB1"/>
<path d="M15.9998 24.3477C12.9311 24.3477 10.4346 21.8511 10.4346 18.7825V11.1304H21.565V18.7825C21.5649 21.8511 19.0684 24.3477 15.9998 24.3477Z" fill="#F0F0F0"/>
<path d="M15.9997 22.2607C14.0818 22.2607 12.5215 20.7003 12.5215 18.7824V13.2173H19.478V18.7824C19.478 20.7003 17.9177 22.2607 15.9997 22.2607V22.2607Z" fill="#0052B4"/>
<path d="M10.4346 11.1304H12.5215V13.2173H10.4346V11.1304Z" fill="#D80027"/>
<path d="M19.4775 11.1304H21.5645V13.2173H19.4775V11.1304Z" fill="#D80027"/>
<path d="M19.4775 15.6523H21.5645V17.7393H19.4775V15.6523Z" fill="#D80027"/>
<path d="M10.4346 15.6523H12.5215V17.7393H10.4346V15.6523Z" fill="#D80027"/>
<path d="M14.9561 11.1304H17.043V13.2173H14.9561V11.1304Z" fill="#D80027"/>
<path d="M15.9996 22.2607C15.6361 22.2607 15.2856 22.2045 14.9561 22.1006V24.2481C15.2943 24.3126 15.6428 24.3477 15.9996 24.3477C16.3563 24.3477 16.7048 24.3126 17.0431 24.2481V22.1006C16.7135 22.2044 16.3631 22.2607 15.9996 22.2607Z" fill="#D80027"/>
<path d="M12.5678 19.3472L10.9023 21.0127C11.1911 21.6701 11.6031 22.2613 12.1095 22.7569L13.5845 21.2819C13.0581 20.7734 12.6914 20.1009 12.5678 19.3472Z" fill="#D80027"/>
<path d="M21.0971 21.0127L19.4316 19.3472C19.308 20.1008 18.9414 20.7732 18.415 21.282L19.89 22.757C20.3963 22.2613 20.8084 21.6701 21.0971 21.0127Z" fill="#D80027"/>
</svg>
