<svg width="32" height="32" viewBox="0 0 32 32" fill="none" xmlns="http://www.w3.org/2000/svg">
<g clip-path="url(#clip0_16_11569)">
<path d="M16 32C24.8366 32 32 24.8366 32 16C32 7.16344 24.8366 0 16 0C7.16344 0 0 7.16344 0 16C0 24.8366 7.16344 32 16 32Z" fill="#F0F0F0"/>
<path d="M14.6091 16C14.6091 16 4.69602 27.3159 4.68665 27.3137C7.58202 30.2091 11.5821 32 16.0004 32C24.8369 32 32.0004 24.8365 32.0004 16H14.6091Z" fill="#D80027"/>
<path d="M4.68628 4.68604C-1.56209 10.9344 -1.56209 21.0651 4.68628 27.3135C7.26834 24.7315 9.75165 22.2482 16 15.9998L4.68628 4.68604Z" fill="#0052B4"/>
</g>
<defs>
<clipPath id="clip0_16_11569">
<rect width="32" height="32" fill="white"/>
</clipPath>
</defs>
</svg>
