<svg width="32" height="32" viewBox="0 0 32 32" fill="none" xmlns="http://www.w3.org/2000/svg">
<g clip-path="url(#clip0_16_12340)">
<path d="M22.9565 1.58763C20.853 0.5705 18.4932 0 16 0C13.5068 0 11.147 0.5705 9.04353 1.58763L7.65222 16L9.04353 30.4124C11.147 31.4295 13.5068 32 16 32C18.4932 32 20.853 31.4295 22.9565 30.4124L24.3478 16L22.9565 1.58763Z" fill="#F0F0F0"/>
<path d="M9.0435 1.58838C3.69156 4.17625 0 9.65681 0 16.0002C0 22.3436 3.69156 27.8241 9.0435 30.412V1.58838Z" fill="#6DA544"/>
<path d="M22.9567 1.58838V30.412C28.3086 27.8241 32.0002 22.3435 32.0002 16.0002C32.0002 9.65688 28.3086 4.17625 22.9567 1.58838Z" fill="#6DA544"/>
<path d="M20.1744 20.8697L16.0005 7.65234L11.8265 20.8697H14.957V24.348H17.044V20.8697H20.1744Z" fill="#6DA544"/>
</g>
<defs>
<clipPath id="clip0_16_12340">
<rect width="32" height="32" fill="white"/>
</clipPath>
</defs>
</svg>
