<svg width="32" height="32" viewBox="0 0 32 32" fill="none" xmlns="http://www.w3.org/2000/svg">
<g clip-path="url(#clip0_16_11149)">
<path d="M16 32C24.8366 32 32 24.8366 32 16C32 7.16344 24.8366 0 16 0C7.16344 0 0 7.16344 0 16C0 24.8366 7.16344 32 16 32Z" fill="#F0F0F0"/>
<path d="M0.135132 18.0869C0.507382 20.944 1.63376 23.5637 3.30732 25.7409L11.8257 18.0869H0.135132Z" fill="#D80027"/>
<path d="M13.9125 31.8645V20.1738L6.25854 28.6923C8.43586 30.3658 11.0555 31.4923 13.9125 31.8645V31.8645Z" fill="#D80027"/>
<path d="M13.9125 0.135254C11.0555 0.507503 8.43586 1.63388 6.25854 3.30744L13.9125 11.8259V0.135254Z" fill="#D80027"/>
<path d="M0.135132 13.9129H11.8257L3.30726 6.25888C1.63369 8.43613 0.507319 11.0558 0.135132 13.9129V13.9129Z" fill="#D80027"/>
<path d="M18.0869 0.135254V11.8259L25.741 3.30744C23.5637 1.634 20.944 0.507441 18.0869 0.135254V0.135254Z" fill="#D80027"/>
<path d="M31.8637 13.9129C31.4915 11.0558 30.3651 8.4361 28.6915 6.25879L20.1731 13.9129H31.8637Z" fill="#D80027"/>
<path d="M20.1731 18.0869L28.6916 25.741C30.3651 23.5637 31.4915 20.944 31.8638 18.0869H20.1731Z" fill="#D80027"/>
<path d="M18.0869 31.8645C20.944 31.4922 23.5637 30.3658 25.741 28.6922L18.0869 20.1738V31.8645Z" fill="#D80027"/>
<path d="M28.6936 25.742L18.9515 15.9998L18.9515 15.9998L28.6936 6.25753C28.2735 5.71153 27.8139 5.18628 27.3138 4.68603C26.8136 4.1859 26.2883 3.72621 25.7423 3.30615L16.0001 13.0483H16L6.25783 3.30615C5.71183 3.72628 5.18652 4.18584 4.68627 4.68603C4.18615 5.18628 3.72646 5.71153 3.3064 6.25759L13.0486 15.9997L13.0486 15.9998L3.30646 25.742C3.72658 26.288 4.18621 26.8133 4.68633 27.3135C5.18652 27.8136 5.71183 28.2733 6.2579 28.6934L16 18.9512L25.7423 28.6934C26.2882 28.2733 26.8135 27.8136 27.3138 27.3135C27.814 26.8133 28.2735 26.288 28.6936 25.742V25.742Z" fill="#496E2D"/>
<path d="M18.0869 31.8646V18.0871V18.087H31.8646C31.9536 17.4038 32 16.7073 32 16C32 15.2928 31.9536 14.5963 31.8646 13.9131H18.0871L18.087 13.9131V0.1355C17.4039 0.0465625 16.7074 0 16 0C15.2927 6.25e-05 14.5962 0.0465625 13.9131 0.1355L13.9131 13.9129V13.9131H0.1355C0.0465 14.5962 0 15.2927 0 16C6.25e-05 16.7074 0.0465 17.4038 0.1355 18.0869H13.913L13.9131 31.8646C14.5962 31.9535 15.2926 32 16 32C16.7074 32 17.4039 31.9535 18.0869 31.8646V31.8646Z" fill="#F0F0F0"/>
</g>
<defs>
<clipPath id="clip0_16_11149">
<rect width="32" height="32" fill="white"/>
</clipPath>
</defs>
</svg>
