<svg width="32" height="32" viewBox="0 0 32 32" fill="none" xmlns="http://www.w3.org/2000/svg">
<path d="M16 32C24.8366 32 32 24.8366 32 16C32 7.16344 24.8366 0 16 0C7.16344 0 0 7.16344 0 16C0 24.8366 7.16344 32 16 32Z" fill="#D80027"/>
<path d="M25.4558 13.1305H18.2324L16.0003 6.26074L13.7682 13.1305H6.5448L12.3886 17.3762L10.1564 24.2462L16.0003 20.0004L21.8442 24.2462L19.612 17.3763L25.4558 13.1305ZM14.0242 16.8448L14.779 14.5217H17.2215L17.9764 16.8448V16.8449L16.0003 18.2805L14.0242 16.8449L14.0242 16.8448ZM16.7695 13.1305H15.2311L16.0003 10.763L16.7695 13.1305ZM19.1599 15.985L18.6844 14.5218H21.1737L19.1599 15.985ZM13.3161 14.5218L12.8407 15.985L10.8267 14.5218H13.3161ZM12.8029 20.6037L13.5721 18.2362L14.8168 19.1405L12.8029 20.6037ZM17.1838 19.1405L18.4285 18.2363L19.1977 20.6037L17.1838 19.1405Z" fill="#FFDA44"/>
</svg>
