<svg width="32" height="32" viewBox="0 0 32 32" fill="none" xmlns="http://www.w3.org/2000/svg">
<path d="M16 32C24.8366 32 32 24.8366 32 16C32 7.16344 24.8366 0 16 0C7.16344 0 0 7.16344 0 16C0 24.8366 7.16344 32 16 32Z" fill="#F0F0F0"/>
<path d="M16.0003 0C9.65689 0 4.17589 3.69156 1.58789 9.0435H30.4126C27.8246 3.69156 22.3436 0 16.0003 0V0Z" fill="#0052B4"/>
<path d="M16.0003 32C22.3436 32 27.8246 28.3084 30.4126 22.9565H1.58789C4.17589 28.3084 9.65689 32 16.0003 32Z" fill="#0052B4"/>
<path d="M12.7871 16.6956L16.0002 11.1304L19.2134 16.6956H12.7871Z" fill="#FFDA44"/>
<path d="M20.174 18.5331L16.0001 20.6201L11.8262 18.5331V15.7505H20.174V18.5331Z" fill="#6DA544"/>
<path d="M19.9349 11.3691L18.4592 12.8448C19.0886 13.4743 19.478 14.3438 19.478 15.3043C19.478 17.2253 17.9207 18.7826 15.9998 18.7826C14.0788 18.7826 12.5215 17.2253 12.5215 15.3043C12.5215 14.3438 12.9109 13.4743 13.5403 12.8448L12.0646 11.3691C11.0574 12.3761 10.4346 13.7675 10.4346 15.3043C10.4346 18.378 12.9262 20.8695 15.9998 20.8695C19.0733 20.8695 21.5649 18.3779 21.5649 15.3043C21.5649 13.7675 20.942 12.3761 19.9349 11.3691V11.3691Z" fill="#FFDA44"/>
</svg>
