<svg width="32" height="32" viewBox="0 0 32 32" fill="none" xmlns="http://www.w3.org/2000/svg">
<g clip-path="url(#clip0_16_12043)">
<path d="M16 32C24.8366 32 32 24.8366 32 16C32 7.16344 24.8366 0 16 0C7.16344 0 0 7.16344 0 16C0 24.8366 7.16344 32 16 32Z" fill="#F0F0F0"/>
<path d="M3.65747 5.81824H28.343C27.4312 4.71418 26.3737 3.73512 25.2007 2.90918H6.79978C5.62672 3.73499 4.56928 4.71412 3.65747 5.81824V5.81824Z" fill="#F0F0F0"/>
<path d="M0 16C0 16.4904 0.0233125 16.9753 0.0665 17.4546H31.9335C31.9767 16.9753 32 16.4904 32 16C32 15.5096 31.9767 15.0247 31.9335 14.5455H0.0665C0.0233125 15.0247 0 15.5096 0 16H0Z" fill="#F0F0F0"/>
<path d="M1.74479 23.2727H30.2553C30.7264 22.3511 31.1106 21.3779 31.3975 20.3637H0.602539C0.889351 21.3779 1.27373 22.3511 1.74479 23.2727V23.2727Z" fill="#F0F0F0"/>
<path d="M6.79978 29.0907H25.2006C26.3737 28.2648 27.4312 27.2857 28.3429 26.1816H3.65747C4.56928 27.2856 5.62672 28.2648 6.79978 29.0907V29.0907Z" fill="#F0F0F0"/>
<path d="M0.602539 11.6366H31.3977C31.1108 10.6224 30.7265 9.6491 30.2553 8.72754H1.74485C1.27379 9.6491 0.889414 10.6224 0.602539 11.6366V11.6366Z" fill="#F0F0F0"/>
<path d="M7.65259 2.90906H25.2008C22.5983 1.07669 19.4252 0 16.0004 0C13.9135 0 10.2551 1.07669 7.65259 2.90906Z" fill="#D80027"/>
<path d="M15.3041 8.72742H30.2549C29.7229 7.68661 29.0803 6.71167 28.3424 5.81836H15.3041V8.72742Z" fill="#D80027"/>
<path d="M15.3041 14.5453H31.9332C31.8432 13.5464 31.6623 12.5737 31.3973 11.6362H15.3041V14.5453Z" fill="#D80027"/>
<path d="M0.602529 20.3637H31.3975C31.6627 19.4263 31.8435 18.4535 31.9335 17.4546H0.0665283C0.156528 18.4535 0.337403 19.4262 0.602529 20.3637V20.3637Z" fill="#D80027"/>
<path d="M3.65688 26.1815H28.3424C29.0802 25.2881 29.7228 24.3132 30.2549 23.2725H1.74438C2.27645 24.3133 2.91907 25.2882 3.65688 26.1815V26.1815Z" fill="#D80027"/>
<path d="M15.9998 31.9999C19.4246 31.9999 22.5977 30.9232 25.2002 29.0908H6.79932C9.40182 30.9232 12.5749 31.9999 15.9998 31.9999Z" fill="#D80027"/>
<path d="M0.602466 11.6364C0.337341 12.5739 0.156528 13.5466 0.0665283 14.5454H16V0C8.67628 0 2.50197 4.92075 0.602466 11.6364V11.6364Z" fill="#0052B4"/>
<path d="M9.52442 4.17383L10.5604 7.36227H13.9132L11.2009 9.33302L12.2367 12.5217L9.52442 10.551L6.81199 12.5217L7.84811 9.33302L5.13574 7.36227H8.48842L9.52442 4.17383Z" fill="#F0F0F0"/>
</g>
<defs>
<clipPath id="clip0_16_12043">
<rect width="32" height="32" fill="white"/>
</clipPath>
</defs>
</svg>
