<svg width="32" height="32" viewBox="0 0 32 32" fill="none" xmlns="http://www.w3.org/2000/svg">
<path d="M16 32C24.8366 32 32 24.8366 32 16C32 7.16344 24.8366 0 16 0C7.16344 0 0 7.16344 0 16C0 24.8366 7.16344 32 16 32Z" fill="#FFDA44"/>
<path d="M32 16C32 10.5087 29.2332 5.66406 25.0179 2.78262H6.98206C2.76687 5.66406 0 10.5087 0 16C0 21.4914 2.76687 26.3359 6.98206 29.2174H25.0179C29.2332 26.3359 32 21.4914 32 16Z" fill="#A2001D"/>
<path d="M12.522 11.8262H19.4785V9.04366L18.0872 9.73928L16.0002 7.65234L13.9133 9.73928L12.522 9.04366V11.8262Z" fill="#FFDA44"/>
<path d="M22.2613 15.9999H18.7843C18.9207 15.7641 18.9999 15.4911 18.9999 15.1991C18.9999 14.3124 18.2811 13.5938 17.3946 13.5938C16.782 13.5938 16.25 13.937 15.9793 14.4414C15.7086 13.9369 15.1766 13.5938 14.5641 13.5938C13.6775 13.5938 12.9587 14.3124 12.9587 15.1991C12.9587 15.4912 13.0381 15.7641 13.1743 15.9999H9.73938C9.73938 17.0639 10.6661 17.9263 11.7299 17.9263H11.6658C11.6658 18.799 12.2463 19.5359 13.0421 19.7726L11.4785 21.3363L12.9542 22.8119L15.0475 20.7186C15.1295 20.7487 15.2143 20.7727 15.302 20.7892L14.0371 23.6451C14.6433 23.8916 15.3057 24.0284 16.0004 24.0284C16.695 24.0284 17.3574 23.8916 17.9636 23.6451L16.6988 20.7892C16.7864 20.7727 16.8712 20.7487 16.9531 20.7186L19.0464 22.8119L20.5221 21.3363L18.9584 19.7726C19.7542 19.5358 20.3347 18.7991 20.3347 17.9264H20.2705C21.3345 17.9263 22.2613 17.0639 22.2613 15.9999V15.9999Z" fill="#FFDA44"/>
<path d="M16.0001 17.0435L13.7393 18.0869V20.1739L16.0001 21.5651L18.261 20.1739V18.0869L16.0001 17.0435Z" fill="#6DA544"/>
<path d="M13.7393 16H18.261V18.7826H13.7393V16Z" fill="#0052B4"/>
</svg>
