<svg width="32" height="32" viewBox="0 0 32 32" fill="none" xmlns="http://www.w3.org/2000/svg">
<path d="M16 32C24.8366 32 32 24.8366 32 16C32 7.16344 24.8366 0 16 0C7.16344 0 0 7.16344 0 16C0 24.8366 7.16344 32 16 32Z" fill="#F0F0F0"/>
<path d="M16.0003 0C9.65689 0 4.17589 3.69156 1.58789 9.0435H30.4126C27.8246 3.69156 22.3436 0 16.0003 0V0Z" fill="#338AF3"/>
<path d="M16.0003 32C22.3436 32 27.8246 28.3084 30.4126 22.9565H1.58789C4.17589 28.3084 9.65689 32 16.0003 32Z" fill="#338AF3"/>
<path d="M20.7821 15.9999L18.8281 16.9191L19.8686 18.8115L17.7468 18.4056L17.4779 20.5491L16 18.9726L14.522 20.5491L14.2531 18.4056L12.1313 18.8114L13.1718 16.919L11.2178 15.9999L13.1718 15.0807L12.1313 13.1883L14.2531 13.5942L14.522 11.4507L16 13.0272L17.478 11.4507L17.7468 13.5942L19.8687 13.1883L18.8281 15.0807L20.7821 15.9999Z" fill="#FFDA44"/>
</svg>
