<svg width="32" height="32" viewBox="0 0 32 32" fill="none" xmlns="http://www.w3.org/2000/svg">
<g clip-path="url(#clip0_16_12417)">
<path d="M27.3138 27.3137C21.0654 33.5621 10.9348 33.5621 4.68627 27.3137C-1.5621 21.0653 -1.5621 10.9346 4.68633 4.68619C10.9347 -1.56219 20.0815 -0.578378 26.3299 5.67006C32.5782 11.9184 33.5621 21.0653 27.3138 27.3137V27.3137Z" fill="black"/>
<path d="M4.68665 4.68623C10.935 -1.56215 21.0656 -1.56202 27.3141 4.68629C33.5624 10.9347 33.5624 21.0653 27.3141 27.3137" fill="#A2001D"/>
<path d="M12.228 21.5654L12.487 22.3626H13.3252L12.6471 22.8552L12.9062 23.6524L12.228 23.1597L11.5499 23.6524L11.8089 22.8552L11.1309 22.3626H11.969L12.228 21.5654Z" fill="#F0F0F0"/>
<path d="M10.0868 13.9131L10.5186 15.2417H11.9155L10.7853 16.0628L11.217 17.3914L10.0868 16.5702L8.95668 17.3914L9.38843 16.0628L8.25818 15.2417H9.65518L10.0868 13.9131Z" fill="#F0F0F0"/>
<path d="M10.0868 23.6523L10.5185 24.981H11.9155L10.7852 25.802L11.217 27.1306L10.0868 26.3094L8.95668 27.1306L9.3883 25.802L8.25818 24.981H9.65499L10.0868 23.6523Z" fill="#F0F0F0"/>
<path d="M14.1718 17.3916L14.6036 18.7202H16.0005L14.8703 19.5412L15.302 20.8699L14.1718 20.0487L13.0417 20.8699L13.4734 19.5412L12.3433 18.7202H13.7402L14.1718 17.3916Z" fill="#F0F0F0"/>
<path d="M6.0027 17.3916L6.43451 18.7202H7.83132L6.7012 19.5412L7.13282 20.8699L6.0027 20.0487L4.87251 20.8699L5.30432 19.5412L4.17407 18.7202H5.57101L6.0027 17.3916Z" fill="#F0F0F0"/>
<path d="M26.7841 11.8475C26.069 11.1324 25.1399 10.71 24.1415 10.6374L27.1302 8.31288C25.9399 7.12256 24.3445 6.585 22.7878 6.69869C22.6014 6.02894 22.2461 5.39632 21.7194 4.86963L20.5388 7.23075C20.4614 7.08963 20.3633 6.95682 20.2437 6.83725C19.5645 6.15807 18.4633 6.15807 17.7842 6.83725C17.1051 7.51644 17.105 8.61756 17.7842 9.29675C17.9038 9.41631 18.0366 9.51438 18.1778 9.59188L15.8167 10.7724C16.3435 11.2993 16.9765 11.6549 17.6467 11.8411C17.5326 13.3979 18.0696 14.993 19.26 16.1834L21.8712 12.826C22.0676 12.6326 22.3271 12.5257 22.6031 12.5257C22.8818 12.5257 23.1438 12.6342 23.3409 12.8314C23.538 13.0285 23.6466 13.2906 23.6466 13.5692C23.6466 13.848 23.538 14.11 23.3409 14.3071L24.3248 15.291C24.7846 14.8311 25.0379 14.2197 25.0379 13.5693C25.0379 13.0372 24.8681 12.5313 24.5548 12.1131C25.0114 12.235 25.443 12.4739 25.8005 12.8314C26.8855 13.9164 26.8855 15.6817 25.8005 16.7666L26.7843 17.7505C27.5726 16.9621 28.0068 15.914 28.0068 14.7991C28.0066 13.684 27.5724 12.6359 26.7841 11.8475V11.8475Z" fill="#FFDA44"/>
</g>
<defs>
<clipPath id="clip0_16_12417">
<rect width="32" height="32" fill="white"/>
</clipPath>
</defs>
</svg>
