<svg width="32" height="32" viewBox="0 0 32 32" fill="none" xmlns="http://www.w3.org/2000/svg">
<g clip-path="url(#clip0_16_11101)">
<path d="M32 16.0001C32 14.043 31.648 12.1682 31.0048 10.4349L16 9.73926L0.995188 10.4349C0.352063 12.1682 0 14.043 0 16.0001C0 17.9573 0.352063 19.8321 0.995188 21.5653L16 22.261L31.0048 21.5654C31.648 19.8321 32 17.9573 32 16.0001Z" fill="#D80027"/>
<path d="M15.9999 32.0002C22.8794 32.0002 28.744 27.6582 31.0047 21.5654H0.995117C3.2558 27.6582 9.12049 32.0002 15.9999 32.0002Z" fill="#6DA544"/>
<path d="M0.995239 10.4348H31.0049C28.7442 4.342 22.8795 0 16 0C9.12061 0 3.25593 4.342 0.995239 10.4348V10.4348Z" fill="#338AF3"/>
<path d="M16.3483 20.5216C13.851 20.5216 11.8265 18.4971 11.8265 15.9998C11.8265 13.5026 13.851 11.4781 16.3483 11.4781C17.1269 11.4781 17.8596 11.6749 18.4992 12.0216C17.4957 11.0403 16.1234 10.4346 14.6091 10.4346C11.5355 10.4346 9.04395 12.9262 9.04395 15.9998C9.04395 19.0733 11.5356 21.5649 14.6091 21.5649C16.1235 21.5649 17.4958 20.9593 18.4992 19.9779C17.8596 20.3247 17.1269 20.5216 16.3483 20.5216Z" fill="#F0F0F0"/>
<path d="M19.8267 12.8691L20.4257 14.5536L22.0403 13.786L21.2727 15.4006L22.9572 15.9996L21.2727 16.5986L22.0403 18.2132L20.4257 17.4456L19.8267 19.13L19.2279 17.4456L17.6132 18.2132L18.3808 16.5986L16.6963 15.9996L18.3808 15.4006L17.6132 13.786L19.2279 14.5536L19.8267 12.8691Z" fill="#F0F0F0"/>
</g>
<defs>
<clipPath id="clip0_16_11101">
<rect width="32" height="32" fill="white"/>
</clipPath>
</defs>
</svg>
