<svg width="32" height="32" viewBox="0 0 32 32" fill="none" xmlns="http://www.w3.org/2000/svg">
<g clip-path="url(#clip0_16_12513)">
<path d="M16 32C24.8366 32 32 24.8366 32 16C32 7.16344 24.8366 0 16 0C7.16344 0 0 7.16344 0 16C0 24.8366 7.16344 32 16 32Z" fill="#F0F0F0"/>
<path d="M16 -8.94402e-05C15.9851 -0.0113394 -0.00424915 15.9957 8.47096e-07 15.9999C8.47096e-07 7.16341 7.1635 -8.94402e-05 16 -8.94402e-05Z" fill="#D80027"/>
<path d="M16 -1.70215e-06C16.0149 -0.0112517 32.0043 15.9957 32 16C32 7.1635 24.8365 -1.70215e-06 16 -1.70215e-06Z" fill="#D80027"/>
<path d="M16 32C15.9851 32.0112 -0.00424915 16.0042 8.47096e-07 16C8.47096e-07 24.8365 7.1635 32 16 32Z" fill="#0052B4"/>
<path d="M16 32C16.0149 32.0112 32.0042 16.0042 32 16C32 24.8365 24.8365 32 16 32Z" fill="#0052B4"/>
<path d="M16 8.34766L17.7268 13.662H23.3146L18.7939 16.9463L20.5207 22.2607L16 18.9763L11.4794 22.2607L13.2062 16.9463L8.68555 13.662H14.2733L16 8.34766Z" fill="#FFDA44"/>
</g>
<defs>
<clipPath id="clip0_16_12513">
<rect width="32" height="32" fill="white"/>
</clipPath>
</defs>
</svg>
