<svg width="32" height="32" viewBox="0 0 32 32" fill="none" xmlns="http://www.w3.org/2000/svg">
<path d="M16 32C24.8366 32 32 24.8366 32 16C32 7.16344 24.8366 0 16 0C7.16344 0 0 7.16344 0 16C0 24.8366 7.16344 32 16 32Z" fill="#D80027"/>
<path d="M17.652 12.1043C17.2883 13.6167 16.6423 13.3283 16.3252 14.6473C14.4575 14.1982 13.3073 12.3201 13.7563 10.4523C14.2052 8.58457 16.0835 7.43432 17.9513 7.88338C17.3171 10.5213 17.9773 10.7516 17.652 12.1043Z" fill="#F0F0F0"/>
<path d="M12.8055 13.2252C14.1315 14.0383 13.6575 14.5637 14.8139 15.2729C13.8097 16.9105 11.6681 17.4239 10.0305 16.4197C8.39291 15.4156 7.87935 13.2739 8.8836 11.6363C11.1965 13.0546 11.6193 12.4979 12.8055 13.2252V13.2252Z" fill="#F0F0F0"/>
<path d="M12.3736 18.1808C13.5568 17.1709 13.9099 17.784 14.9417 16.9034C16.1889 18.3644 16.0154 20.5599 14.5544 21.8071C13.0933 23.0543 10.8978 22.8806 9.65076 21.4197C11.7141 19.6582 11.3153 19.0839 12.3736 18.1808Z" fill="#F0F0F0"/>
<path d="M16.9535 20.123C16.3585 18.6857 17.0508 18.5392 16.5321 17.2859C18.307 16.5513 20.3415 17.3947 21.0762 19.1696C21.8107 20.9445 20.9672 22.979 19.1923 23.7136C18.155 21.2068 17.4857 21.4086 16.9535 20.123Z" fill="#F0F0F0"/>
<path d="M20.2161 16.3671C18.6653 16.4888 18.7397 15.7851 17.3875 15.8912C17.2373 13.9763 18.6682 12.3018 20.5833 12.1515C22.4983 12.0016 24.1727 13.4323 24.3228 15.3474C21.618 15.5595 21.603 16.2585 20.2161 16.3671Z" fill="#F0F0F0"/>
</svg>
