<svg width="32" height="32" viewBox="0 0 32 32" fill="none" xmlns="http://www.w3.org/2000/svg">
<g clip-path="url(#clip0_16_11131)">
<path d="M16 4.57764e-05C24.8364 4.57764e-05 31.9999 7.16353 31.9999 16C31.9999 24.8365 24.8364 32 16 32C7.16348 32 0 24.8365 0 16" fill="#FFDA44"/>
<path d="M15.653 7.11122H29.3057C28.4067 5.76829 27.3096 4.56954 26.0565 3.55566H15.653V7.11122Z" fill="#D80027"/>
<path d="M15.653 14.2225H31.902C31.7656 12.9896 31.4893 11.7992 31.0891 10.667H15.653V14.2225Z" fill="#D80027"/>
<path d="M0.912117 21.3335H31.0886C31.4888 20.2013 31.7652 19.0107 31.9016 17.7778H0.0992432C0.235493 19.0108 0.511867 20.2013 0.912117 21.3335V21.3335Z" fill="#D80027"/>
<path d="M5.94486 28.4443H26.0563C27.3094 27.4304 28.4065 26.2316 29.3055 24.8887H2.6958C3.5948 26.2316 4.6918 27.4304 5.94486 28.4443V28.4443Z" fill="#D80027"/>
<path d="M16 4.57764e-05C7.16349 4.57764e-05 -6.24995e-05 7.16353 4.08967e-10 16.0001C3.65162 16 7.16349 16.0001 16 16.0001L16 4.57764e-05Z" fill="#4A1F63"/>
<path d="M13.2176 8.34785V9.73916H12.5219V8.34785H11.1306V9.73916H10.435V6.95654H7.65239V9.73916H6.9567V8.34785H5.56545V9.73916H4.86977V8.34785H3.47839V12.5217H14.6089V8.34785H13.2176Z" fill="#F0F0F0"/>
</g>
<defs>
<clipPath id="clip0_16_11131">
<rect width="32" height="32" fill="white"/>
</clipPath>
</defs>
</svg>
