<svg width="32" height="32" viewBox="0 0 32 32" fill="none" xmlns="http://www.w3.org/2000/svg">
<path d="M16 32C24.8366 32 32 24.8366 32 16C32 7.16344 24.8366 0 16 0C7.16344 0 0 7.16344 0 16C0 24.8366 7.16344 32 16 32Z" fill="#F0F0F0"/>
<path d="M32 15.9998C32 9.6564 28.3085 4.1754 22.9565 1.5874V30.4121C28.3085 27.8241 32 22.3431 32 15.9998V15.9998Z" fill="#D80027"/>
<path d="M0 15.9998C0 22.3431 3.69156 27.8241 9.0435 30.4121V1.5874C3.69156 4.1754 0 9.6564 0 15.9998Z" fill="#D80027"/>
<path d="M18.7831 18.0869L21.5657 16.6956L20.1744 15.9999V14.6086L17.3918 15.9999L18.7831 13.2173H17.3918L16.0005 11.1304L14.6092 13.2173H13.2179L14.6092 15.9999L11.8266 14.6086V15.9999L10.4353 16.6956L13.2179 18.0869L12.5222 19.4782H15.3049V21.5651H16.6961V19.4782H19.4787L18.7831 18.0869Z" fill="#D80027"/>
</svg>
