<svg width="32" height="32" viewBox="0 0 32 32" fill="none" xmlns="http://www.w3.org/2000/svg">
<g clip-path="url(#clip0_16_12312)">
<path d="M1.58763 9.04366C0.5705 11.1472 0 13.507 0 16.0002C0 18.4933 0.5705 20.8532 1.58763 22.9567L16 24.348L30.4124 22.9567C31.4295 20.8532 32 18.4933 32 16.0002C32 13.507 31.4295 11.1472 30.4124 9.04366L16 7.65234L1.58763 9.04366Z" fill="#F0F0F0"/>
<path d="M1.58838 22.9565C4.17625 28.3085 9.65681 32 16.0002 32C22.3436 32 27.8241 28.3085 30.412 22.9565H1.58838Z" fill="#6DA544"/>
<path d="M1.58838 9.0435H30.412C27.8241 3.69156 22.3435 0 16.0002 0C9.65688 0 4.17625 3.69156 1.58838 9.0435Z" fill="#FF9811"/>
<path d="M15.9999 21.5649C19.0734 21.5649 21.5651 19.0733 21.5651 15.9998C21.5651 12.9262 19.0734 10.4346 15.9999 10.4346C12.9263 10.4346 10.4347 12.9262 10.4347 15.9998C10.4347 19.0733 12.9263 21.5649 15.9999 21.5649Z" fill="#FF9811"/>
</g>
<defs>
<clipPath id="clip0_16_12312">
<rect width="32" height="32" fill="white"/>
</clipPath>
</defs>
</svg>
