<svg width="32" height="32" viewBox="0 0 32 32" fill="none" xmlns="http://www.w3.org/2000/svg">
<path d="M22.9567 1.58763C20.8532 0.5705 18.4933 0 16.0002 0C13.507 0 11.1472 0.5705 9.04366 1.58763L7.65234 16L9.04366 30.4124C11.1472 31.4295 13.507 32 16.0002 32C18.4933 32 20.8532 31.4295 22.9567 30.4124L24.348 16L22.9567 1.58763Z" fill="#FFDA44"/>
<path d="M9.0435 1.58838C3.69156 4.17632 0 9.65688 0 16.0002C0 22.3435 3.69156 27.8241 9.0435 30.412V1.58838Z" fill="#0052B4"/>
<path d="M22.9561 1.58838V30.412C28.3079 27.8241 31.9996 22.3435 31.9996 16.0002C31.9996 9.65688 28.3079 4.17632 22.9561 1.58838Z" fill="#0052B4"/>
<path d="M20.5215 17.3911L21.5649 18.7824V13.2171L20.5215 14.6084H17.3911V11.478L18.7824 10.4346H13.2171L14.6084 11.478V14.6084H11.478L10.4346 13.2171V18.7824L11.478 17.3911H14.6084V20.5215L13.2171 21.5649H18.7824L17.3911 20.5215V17.3911H20.5215Z" fill="#D80027"/>
<path d="M20.174 15.3045H16.6957V11.8262H15.3045V15.3045H11.8262V16.6957H15.3045V20.174H16.6957V16.6957H20.174V15.3045Z" fill="#F0F0F0"/>
</svg>
