<svg width="32" height="32" viewBox="0 0 32 32" fill="none" xmlns="http://www.w3.org/2000/svg">
<g clip-path="url(#clip0_16_11548)">
<path d="M15.9999 31.9999C24.8365 31.9999 31.9999 24.8365 31.9999 16C31.9999 7.16346 24.8365 4.19617e-05 15.9999 4.19617e-05C7.16342 4.19617e-05 0 7.16346 0 16C0 24.8365 7.16342 31.9999 15.9999 31.9999Z" fill="#F0F0F0"/>
<path d="M15.9999 8.7738e-05C10.7654 8.7738e-05 6.11828 2.51403 3.19922 6.40009H28.8005C25.8815 2.51396 21.2343 8.7738e-05 15.9999 8.7738e-05V8.7738e-05Z" fill="#0052B4"/>
<path d="M15.9999 31.9997C21.2344 31.9997 25.8815 29.4858 28.8006 25.5997H3.19922C6.11822 29.4858 10.7654 31.9997 15.9999 31.9997Z" fill="#0052B4"/>
<path d="M0 15.9999C0 17.0958 0.1105 18.166 0.320437 19.1999H31.6796C31.8896 18.166 32 17.0958 32 15.9999C32 14.904 31.8895 13.8338 31.6796 12.7999H0.320437C0.1105 13.8338 0 14.904 0 15.9999V15.9999Z" fill="#0052B4"/>
<path d="M4.68624 4.68652C-1.56208 10.9348 -1.56208 21.0655 4.68624 27.314C7.2683 24.7319 9.75155 22.2486 15.9999 16.0003L4.68624 4.68652Z" fill="#D80027"/>
<path d="M6.47572 11.8262L7.5116 15.0146H10.8645L8.15216 16.9854L9.18804 20.1739L6.47572 18.2033L3.76329 20.1739L4.79941 16.9854L2.08704 15.0146H5.43966L6.47572 11.8262Z" fill="#F0F0F0"/>
</g>
<defs>
<clipPath id="clip0_16_11548">
<rect width="32" height="32" fill="white"/>
</clipPath>
</defs>
</svg>
