<svg width="32" height="32" viewBox="0 0 32 32" fill="none" xmlns="http://www.w3.org/2000/svg">
<path d="M32 16C32 24.8365 24.8365 32 16 32C7.1635 32 0 24.8365 0 16C0 16.0038 16 0.00175 16 0C24.8365 0 32 7.1635 32 16Z" fill="#338AF3"/>
<path d="M15.9998 7.65234V13.0488L10.4346 7.65234H15.9998Z" fill="#0052B4"/>
<path d="M8.34797 16.0002H13.0487L8.34797 9.73928L7.65234 14.6088L8.34797 16.0002Z" fill="#0052B4"/>
<path d="M15.957 15.9998H15.9998C15.9998 15.9855 15.9998 15.9715 15.9998 15.957C15.9856 15.9713 15.9713 15.9856 15.957 15.9998Z" fill="#F0F0F0"/>
<path d="M16 8.34781C16 5.5325 16 3.68781 16 0H15.9973C7.162 0.0015 0 7.16431 0 16H8.34781V11.2993L13.0486 16H15.9573C15.9716 15.9857 15.9858 15.9715 16.0001 15.9572C16.0001 14.8793 16.0001 13.9174 16.0001 13.0486L11.2992 8.34781H16Z" fill="#F0F0F0"/>
<path d="M8.09467 2.08694C5.59223 3.51188 3.51185 5.59225 2.08691 8.09469V16H6.26086V6.261V6.26088H16C16 4.94444 16 3.69031 16 2.08694H8.09467Z" fill="#D80027"/>
<path d="M15.9998 14.0322L10.3152 8.34768H8.34766V8.3478L15.9997 15.9998H15.9998C15.9998 15.9998 15.9998 14.6431 15.9998 14.0322Z" fill="#D80027"/>
<path d="M18.0869 10.4348V15.9999C18.0869 19.7274 22.9565 20.8696 22.9565 20.8696C22.9565 20.8696 27.826 19.7274 27.826 15.9999V10.4348L22.9565 9.0435L18.0869 10.4348Z" fill="#F3F3F3"/>
<path d="M27.826 10.4346V8.34766H18.0869V10.4346H22.2607V14.6086H18.0869V15.9998V15.9999L22.2607 16V20.656C22.6806 20.8045 22.9565 20.8694 22.9565 20.8694C22.9565 20.8694 23.2322 20.8047 23.652 20.656V15.9999H27.826V15.9998V14.6085H23.652V10.4345H27.826V10.4346Z" fill="#D80027"/>
</svg>
