<svg width="32" height="32" viewBox="0 0 32 32" fill="none" xmlns="http://www.w3.org/2000/svg">
<g clip-path="url(#clip0_16_11143)">
<path d="M22.9565 1.58763C20.853 0.5705 18.4932 0 16 0C13.5069 0 11.147 0.5705 9.04353 1.58763L7.65222 16L9.04353 30.4124C11.147 31.4295 13.5069 32 16 32C18.4932 32 20.853 31.4295 22.9565 30.4124L24.3478 16L22.9565 1.58763Z" fill="#FFDA44"/>
<path d="M9.0435 1.58838C3.69163 4.17625 0 9.65681 0 16.0002C0 22.3436 3.69163 27.8241 9.0435 30.412V1.58838Z" fill="#0052B4"/>
<path d="M22.9567 1.58838V30.412C28.3085 27.8241 32.0002 22.3435 32.0002 16.0002C32.0002 9.65688 28.3085 4.17625 22.9567 1.58838Z" fill="#0052B4"/>
<path d="M20.8695 9.73897L21.8028 10.2056L20.8695 9.73897L19.9361 9.27234C19.8798 9.38491 18.6611 11.8645 18.4621 15.652H17.0434V9.73897L15.9999 8.34766L14.9564 9.73897V15.652H13.5377C13.3386 11.8645 12.12 9.38491 12.0636 9.27234L10.197 10.2057C10.2099 10.2313 11.4782 12.8128 11.4782 16.6955V17.739H14.9565V23.6521H17.0434V17.739H20.5216V16.6955C20.5216 14.6881 20.869 13.0328 21.1604 11.9977C21.4781 10.869 21.8008 10.2098 21.804 10.2032L20.8695 9.73897Z" fill="black"/>
</g>
<defs>
<clipPath id="clip0_16_11143">
<rect width="32" height="32" fill="white"/>
</clipPath>
</defs>
</svg>
