<svg width="32" height="32" viewBox="0 0 32 32" fill="none" xmlns="http://www.w3.org/2000/svg">
<path d="M16 32C24.8366 32 32 24.8366 32 16C32 7.16344 24.8366 0 16 0C7.16344 0 0 7.16344 0 16C0 24.8366 7.16344 32 16 32Z" fill="#FCFCFC"/>
<path d="M20.8694 13.2173V14.6086H22.7789C21.982 15.7161 20.9206 16.6202 19.6874 17.229C19.371 16.9003 18.9268 16.6955 18.4346 16.6955C17.6049 16.6955 16.9114 17.2767 16.7377 18.0542C16.4946 18.0755 16.2485 18.0868 15.9999 18.0868C15.7512 18.0868 15.5051 18.0754 15.262 18.0542C15.0883 17.2768 14.3948 16.6955 13.5651 16.6955C13.0729 16.6955 12.6289 16.9003 12.3124 17.229C11.0791 16.6203 10.0177 15.716 9.22086 14.6086H11.1303V13.2173H6.26074C6.26074 18.596 10.6212 22.9564 15.9999 22.9564C21.3787 22.9564 25.739 18.596 25.739 13.2173H20.8694Z" fill="#D80027"/>
</svg>
