<svg width="32" height="32" viewBox="0 0 32 32" fill="none" xmlns="http://www.w3.org/2000/svg">
<g clip-path="url(#clip0_16_11592)">
<path d="M16 32C24.8366 32 32 24.8366 32 16C32 7.16344 24.8366 0 16 0C7.16344 0 0 7.16344 0 16C0 24.8366 7.16344 32 16 32Z" fill="#F0F0F0"/>
<path d="M19.1299 31.6929C25.4551 30.4381 30.4376 25.4555 31.6924 19.1304H19.1299V31.6929Z" fill="#496E2D"/>
<path d="M0.306641 19.1304C1.56133 25.4555 6.54396 30.4381 12.8691 31.6929V19.1304H0.306641Z" fill="#496E2D"/>
<path d="M31.6924 12.8696C30.4376 6.54451 25.4551 1.56188 19.1299 0.307129V12.8696H31.6924Z" fill="#496E2D"/>
<path d="M12.8691 0.307129C6.54396 1.56188 1.56133 6.54451 0.306641 12.8696H12.8691V0.307129Z" fill="#496E2D"/>
<path d="M14.9561 19.1303H12.8691V31.6928C13.5502 31.8278 14.2469 31.9193 14.9561 31.965V19.1303Z" fill="#FFDA44"/>
<path d="M14.9561 12.8694V0.034668C14.2469 0.0802929 13.5501 0.171855 12.8691 0.306918V12.8694H14.9561Z" fill="#FFDA44"/>
<path d="M17.0431 0.0348125C16.6979 0.0125 16.3502 0 15.9996 0C15.6489 0 15.3012 0.0125 14.9561 0.0348125V12.8696H17.043V0.0348125H17.0431Z" fill="black"/>
<path d="M14.9561 31.9651C15.3012 31.9874 15.6489 31.9999 15.9996 31.9999C16.3502 31.9999 16.6979 31.9874 17.0431 31.9651V19.1304H14.9561V31.9651H14.9561Z" fill="black"/>
<path d="M12.8699 14.9566V12.8696H0.307406C0.172281 13.5508 0.0807812 14.2474 0.0351562 14.9566H12.8699Z" fill="#FFDA44"/>
<path d="M19.1307 14.9566H31.9655C31.9199 14.2474 31.8284 13.5508 31.6933 12.8696H19.1308V14.9566H19.1307Z" fill="#FFDA44"/>
<path d="M19.1309 17.0435H31.9657C31.9879 16.6985 32.0004 16.3507 32.0004 16C32.0004 15.6494 31.9879 15.3016 31.9656 14.9565H19.1309V17.0435Z" fill="black"/>
<path d="M0.0348125 14.9565C0.0125625 15.3016 0 15.6493 0 16C0 16.3507 0.0125625 16.6984 0.0348125 17.0435H12.8696V14.9566H0.0348125V14.9565Z" fill="black"/>
<path d="M15.9998 23.652C20.226 23.652 23.652 20.226 23.652 15.9998C23.652 11.7737 20.226 8.34766 15.9998 8.34766C11.7737 8.34766 8.34766 11.7737 8.34766 15.9998C8.34766 20.226 11.7737 23.652 15.9998 23.652Z" fill="#D80027"/>
<path d="M17.7437 16.8538C17.1745 15.7154 16.4347 14.5617 16.4347 14.5617C16.4347 14.5617 16.4531 14.0364 16.4531 13.7234C16.4531 13.2519 16.0708 12.8696 15.5993 12.8696C15.1526 12.8696 14.7866 13.2128 14.7493 13.6498C14.3981 13.6727 14.1201 13.9641 14.1201 14.3211C14.1201 14.5806 14.2672 14.8056 14.4824 14.918C14.5894 14.6678 14.7989 14.4724 15.0581 14.3833C15.1003 14.4179 15.1457 14.4488 15.1941 14.4749L15.3035 14.5273C15.3035 14.5273 14.8979 15.6705 14.8979 16.2846C14.8979 18.0111 16.0363 18.5436 16.0363 18.5436V18.5614L15.4671 19.1305H16.6054V17.9921L17.1746 18.5613C17.1796 18.5506 18.2528 17.8719 17.7437 16.8538V16.8538Z" fill="#496E2D"/>
<path d="M16.0004 9.73926L16.2594 10.5364H17.0976L16.4195 11.0291L16.6786 11.8262L16.0004 11.3336L15.3223 11.8262L15.5814 11.0291L14.9033 10.5364H15.7414L16.0004 9.73926Z" fill="#496E2D"/>
<path d="M12.3205 10.9351L12.9985 11.4278L13.6766 10.9351L13.4176 11.7323L14.0957 12.2249L13.2576 12.2249L12.9986 13.0221L12.7395 12.2249L11.9014 12.2249L12.5794 11.7322L12.3205 10.9351Z" fill="#496E2D"/>
<path d="M10.0459 14.0657H10.884L11.143 13.2686L11.402 14.0657L12.2402 14.0656L11.5621 14.5584L11.8212 15.3555L11.143 14.8628L10.465 15.3554L10.7239 14.5583L10.0459 14.0657Z" fill="#496E2D"/>
<path d="M10.0459 17.9348L10.7239 17.4423L10.4649 16.6451L11.143 17.1378L11.8211 16.6451L11.5621 17.4422L12.2403 17.9349L11.402 17.9349L11.143 18.732L10.884 17.9348H10.0459Z" fill="#496E2D"/>
<path d="M12.3206 21.0654L12.5795 20.2684L11.9014 19.7757H12.7396L12.9986 18.9785L13.2576 19.7756H14.0958L13.4177 20.2684L13.6767 21.0655L12.9986 20.5728L12.3206 21.0654Z" fill="#496E2D"/>
<path d="M16.0004 22.2608L15.7414 21.4638H14.9033L15.5814 20.971L15.3223 20.1739L16.0004 20.6665L16.6785 20.1738L16.4195 20.971L17.0976 21.4637L16.2594 21.4638L16.0004 22.2608Z" fill="#496E2D"/>
<path d="M19.6805 21.0654L19.0025 20.5728L18.3245 21.0655L18.5834 20.2684L17.9053 19.7757L18.7435 19.7756L19.0024 18.9785L19.2615 19.7757H20.0996L19.4216 20.2684L19.6805 21.0654Z" fill="#496E2D"/>
<path d="M21.9551 17.9347H21.1171L20.858 18.7319L20.599 17.9348H19.7607L20.4389 17.4421L20.1798 16.645L20.858 17.1376L21.536 16.645L21.2771 17.4421L21.9551 17.9347Z" fill="#496E2D"/>
<path d="M21.9551 14.0656L21.2771 14.5582L21.5361 15.3554L20.858 14.8627L20.1799 15.3555L20.4389 14.5583L19.7607 14.0657L20.599 14.0656L20.8579 13.2686L21.1171 14.0656H21.9551Z" fill="#496E2D"/>
<path d="M19.6805 10.9351L19.4216 11.7321L20.0996 12.2248H19.2615L19.0025 13.022L18.7435 12.2249L17.9053 12.2249L18.5834 11.7321L18.3244 10.9351L19.0025 11.4277L19.6805 10.9351Z" fill="#496E2D"/>
</g>
<defs>
<clipPath id="clip0_16_11592">
<rect width="32" height="32" fill="white"/>
</clipPath>
</defs>
</svg>
