<svg width="32" height="32" viewBox="0 0 32 32" fill="none" xmlns="http://www.w3.org/2000/svg">
<path d="M9.04366 30.4124C11.1472 31.4295 13.507 32 16.0002 32C18.4933 32 20.8532 31.4295 22.9567 30.4124L24.348 16L22.9567 1.58763C20.8532 0.5705 18.4933 0 16.0002 0C13.507 0 11.1472 0.5705 9.04366 1.58763L7.65234 16L9.04366 30.4124Z" fill="#FFDA44"/>
<path d="M22.9561 30.412C28.308 27.8241 31.9996 22.3435 31.9996 16.0002C31.9996 9.65688 28.308 4.17625 22.9561 1.58838V30.412Z" fill="#D80027"/>
<path d="M9.0435 30.412V1.58838C3.69156 4.17625 0 9.65681 0 16.0002C0 22.3436 3.69156 27.8241 9.0435 30.412Z" fill="#0052B4"/>
<path d="M16 21.5652C16 19.012 16 16 16 16H20.1739V18.0869C20.1739 18.4495 19.4783 19.778 17.7612 20.8696C17.1109 21.2831 16.4378 21.4161 16 21.5652Z" fill="#D80027"/>
<path d="M11.8262 11.8262H16.0001V16.0001H11.8262V11.8262Z" fill="#D80027"/>
<path d="M18.0867 10.4348C18.0867 9.66633 17.4638 9.04346 16.6954 9.04346C16.4416 9.04346 16.2045 9.11246 15.9998 9.23108C15.7949 9.11246 15.5579 9.04346 15.3041 9.04346C14.5358 9.04346 13.9128 9.66633 13.9128 10.4348H10.4346V17.3912C10.4346 19.981 12.4912 21.4786 14.104 22.255C13.9833 22.4611 13.9128 22.7003 13.9128 22.9565C13.9128 23.725 14.5358 24.3478 15.3041 24.3478C15.5579 24.3478 15.795 24.2788 15.9998 24.1602C16.2046 24.2788 16.4416 24.3478 16.6954 24.3478C17.4638 24.3478 18.0867 23.725 18.0867 22.9565C18.0867 22.7003 18.0162 22.4611 17.8954 22.255C19.5083 21.4786 21.5649 19.981 21.5649 17.3912V10.4348H18.0867ZM19.478 17.3912C19.478 17.7538 19.478 18.857 17.761 19.9486C17.1106 20.3621 16.4375 20.6302 15.9998 20.7793C15.562 20.6302 14.8889 20.3621 14.2385 19.9486C12.5215 18.857 12.5215 17.7538 12.5215 17.3912V12.5217H19.478V17.3912Z" fill="#FF9811"/>
</svg>
