<svg width="32" height="32" viewBox="0 0 32 32" fill="none" xmlns="http://www.w3.org/2000/svg">
<g clip-path="url(#clip0_16_12660)">
<path d="M27.3141 27.3141C33.3148 21.3135 33.5518 11.7332 28.0275 5.44824L16 15.9999L5.44824 28.0274C11.7332 33.5517 21.3134 33.3148 27.3141 27.3141V27.3141Z" fill="#496E2D"/>
<path d="M4.68583 4.68586C10.6865 -1.31481 20.2668 -1.55175 26.5517 3.97255L15.9999 16.0001L3.97258 26.5517C-1.55178 20.2668 -1.31478 10.6865 4.68583 4.68586V4.68586Z" fill="#0052B4"/>
<path d="M26.5518 3.97266L3.97266 26.5519C4.20091 26.8116 4.43791 27.0663 4.68597 27.3142C4.93397 27.5622 5.18878 27.7992 5.44853 28.0276L28.0276 5.4484C27.7993 5.18865 27.5622 4.9339 27.3142 4.68584C27.0663 4.43797 26.8115 4.20091 26.5518 3.97266V3.97266Z" fill="#FFDA44"/>
<path d="M6.74126 5.56494L7.08669 6.62788H8.20425L7.30013 7.28469L7.64544 8.34762L6.74126 7.69069L5.83707 8.34762L6.18251 7.28469L5.27832 6.62788H6.39594L6.74126 5.56494Z" fill="#F0F0F0"/>
<path d="M12.4502 5.56494L12.7957 6.62788H13.9132L13.0091 7.28469L13.3544 8.34762L12.4502 7.69069L11.5461 8.34762L11.8915 7.28469L10.9873 6.62788H12.1049L12.4502 5.56494Z" fill="#F0F0F0"/>
<path d="M6.74126 11.1304L7.08669 12.1933H8.20425L7.30013 12.8502L7.64544 13.9131L6.74126 13.2562L5.83707 13.9131L6.18251 12.8502L5.27832 12.1933H6.39594L6.74126 11.1304Z" fill="#F0F0F0"/>
<path d="M12.4502 11.1304L12.7957 12.1933H13.9132L13.0091 12.8502L13.3544 13.9131L12.4502 13.2562L11.5461 13.9131L11.8915 12.8502L10.9873 12.1933H12.1049L12.4502 11.1304Z" fill="#F0F0F0"/>
<path d="M9.59581 8.34766L9.94125 9.41059H11.0587L10.1546 10.0675L10.5 11.1304L9.59581 10.4735L8.69162 11.1304L9.037 10.0675L8.13281 9.41059H9.25044L9.59581 8.34766Z" fill="#F0F0F0"/>
</g>
<defs>
<clipPath id="clip0_16_12660">
<rect width="32" height="32" fill="white"/>
</clipPath>
</defs>
</svg>
