<svg width="32" height="32" viewBox="0 0 32 32" fill="none" xmlns="http://www.w3.org/2000/svg">
<path d="M16 32C24.8366 32 32 24.8366 32 16C32 7.16344 24.8366 0 16 0C7.16344 0 0 7.16344 0 16C0 24.8366 7.16344 32 16 32Z" fill="#0052B4"/>
<path d="M22.8662 17.1161C22.925 16.7525 22.9561 16.3797 22.9561 15.9999C22.9561 16.3797 22.925 16.7525 22.8662 17.1161L25.7387 15.9999L22.8662 14.8837L21.2884 14.2706L18.7249 13.2746L17.7289 10.7111C19.4085 11.2617 20.7377 12.5909 21.2883 14.2705L22.8661 14.8836C22.3893 11.9401 20.0592 9.60999 17.1158 9.13324L15.9996 6.26074L14.8834 9.1333C11.9399 9.61018 9.60987 11.9402 9.13306 14.8837L6.2605 15.9999L9.13312 17.1161C9.60993 20.0596 11.9399 22.3896 14.8834 22.8664L15.9996 25.739L17.1159 22.8664C20.0593 22.3896 22.3894 20.0595 22.8662 17.1161V17.1161ZM17.6501 14.3494L15.9996 15.9999H21.8974L17.6501 17.6504L15.9996 15.9999V21.8977L14.3491 17.6503L15.9996 15.9999H10.1018L14.3491 14.3494L15.9996 15.9999V10.1021L17.6501 14.3494ZM14.2703 10.7112L13.2742 13.2746L10.7109 14.2707C11.2614 12.5909 12.5906 11.2618 14.2703 10.7112ZM10.7109 17.7292L13.2742 18.7252L14.2703 21.2885C12.5906 20.7379 11.2616 19.4089 10.7109 17.7292ZM17.7289 21.2885L18.725 18.7252L21.2883 17.7292C20.7377 19.4089 19.4086 20.7379 17.7289 21.2885Z" fill="#F0F0F0"/>
<path d="M21.8976 16H15.9998L17.6503 17.6505L21.8976 16Z" fill="#0052B4"/>
<path d="M10.1019 16H15.9997L14.3492 14.3496L10.1019 16Z" fill="#0052B4"/>
<path d="M15.9994 21.8979V16L14.3489 17.6505L15.9994 21.8979Z" fill="#0052B4"/>
<path d="M15.9998 15.9999L17.6503 14.3494L15.9998 10.1021V15.9999Z" fill="#0052B4"/>
<path d="M15.3044 2.08691H16.6958V4.86954H15.3044V2.08691Z" fill="#F0F0F0"/>
<path d="M2.08716 15.3042H4.86978V16.6955H2.08716V15.3042Z" fill="#F0F0F0"/>
<path d="M15.3044 27.1304H16.6958V29.913H15.3044V27.1304Z" fill="#F0F0F0"/>
<path d="M27.131 15.3042H29.9136V16.6955H27.131V15.3042Z" fill="#F0F0F0"/>
</svg>
