<svg width="32" height="32" viewBox="0 0 32 32" fill="none" xmlns="http://www.w3.org/2000/svg">
<g clip-path="url(#clip0_16_11940)">
<path d="M16 32C24.8366 32 32 24.8366 32 16C32 7.16344 24.8366 0 16 0C7.16344 0 0 7.16344 0 16C0 24.8366 7.16344 32 16 32Z" fill="#F0F0F0"/>
<path d="M32.0002 15.9999C32.0002 9.12049 27.6582 3.2558 21.5654 0.995117V31.0048C27.6582 28.744 32.0002 22.8794 32.0002 15.9999V15.9999Z" fill="#D80027"/>
<path d="M0 16C0 22.8794 4.342 28.7441 10.4348 31.0048V0.995193C4.342 3.25588 0 9.12057 0 16Z" fill="#6DA544"/>
</g>
<defs>
<clipPath id="clip0_16_11940">
<rect width="32" height="32" fill="white"/>
</clipPath>
</defs>
</svg>
