<svg width="32" height="32" viewBox="0 0 32 32" fill="none" xmlns="http://www.w3.org/2000/svg">
<g clip-path="url(#clip0_16_11896)">
<path d="M16 32C24.8366 32 32 24.8366 32 16C32 7.16344 24.8366 0 16 0C7.16344 0 0 7.16344 0 16C0 24.8366 7.16344 32 16 32Z" fill="#F0F0F0"/>
<path d="M0.550903 20.1738C1.47665 23.6088 3.51697 26.5859 6.26059 28.694V20.1738H0.550903Z" fill="#0052B4"/>
<path d="M14.608 31.939C15.0667 31.9785 15.5305 31.9999 15.9993 31.9999C23.3918 31.9999 29.6121 26.9861 31.4481 20.1738H14.608V31.939Z" fill="#0052B4"/>
<path d="M31.4481 11.8261C29.6121 5.01381 23.3918 0 15.9993 0C15.5305 0 15.0667 0.021375 14.608 0.060875V11.8261H31.4481Z" fill="#0052B4"/>
<path d="M6.26059 3.30615C3.51697 5.41428 1.47665 8.39134 0.550903 11.8263H6.26059V3.30615Z" fill="#0052B4"/>
<path d="M31.8646 13.9131H12.5218H12.5218V0.38031C11.0431 0.708185 9.64131 1.23962 8.34781 1.94544V13.913H0.135438C0.046375 14.5962 0 15.2927 0 16C0 16.7073 0.046375 17.4038 0.135438 18.0869H8.34775H8.34781V30.0545C9.64131 30.7603 11.0431 31.2918 12.5218 31.6196V18.0871V18.087H31.8646C31.9535 17.4038 32 16.7073 32 16C32 15.2927 31.9535 14.5962 31.8646 13.9131V13.9131Z" fill="#D80027"/>
</g>
<defs>
<clipPath id="clip0_16_11896">
<rect width="32" height="32" fill="white"/>
</clipPath>
</defs>
</svg>
