<svg width="32" height="32" viewBox="0 0 32 32" fill="none" xmlns="http://www.w3.org/2000/svg">
<g clip-path="url(#clip0_16_11904)">
<path d="M16 32C24.8366 32 32 24.8366 32 16C32 7.16344 24.8366 0 16 0C7.16344 0 0 7.16344 0 16C0 24.8366 7.16344 32 16 32Z" fill="#F0F0F0"/>
<path d="M15.9999 0C9.65652 0 4.17552 3.69156 1.58752 9.0435H30.4122C27.8243 3.69156 22.3432 0 15.9999 0V0Z" fill="#FF9811"/>
<path d="M15.9999 32C22.3432 32 27.8243 28.3085 30.4123 22.9565H1.58752C4.17552 28.3085 9.65652 32 15.9999 32Z" fill="#6DA544"/>
<path d="M15.9999 21.5649C19.0734 21.5649 21.5651 19.0733 21.5651 15.9998C21.5651 12.9262 19.0734 10.4346 15.9999 10.4346C12.9263 10.4346 10.4347 12.9262 10.4347 15.9998C10.4347 19.0733 12.9263 21.5649 15.9999 21.5649Z" fill="#0052B4"/>
<path d="M16.0001 19.4785C17.9211 19.4785 19.4783 17.9212 19.4783 16.0002C19.4783 14.0792 17.9211 12.522 16.0001 12.522C14.0791 12.522 12.5219 14.0792 12.5219 16.0002C12.5219 17.9212 14.0791 19.4785 16.0001 19.4785Z" fill="#F0F0F0"/>
<path d="M16.0003 11.708L17.0733 14.1416L19.7173 13.8541L18.1463 16.0001L19.7173 18.1462L17.0733 17.8586L16.0003 20.2923L14.9272 17.8586L12.2832 18.1461L13.8542 16.0001L12.2832 13.8541L14.9272 14.1416L16.0003 11.708Z" fill="#0052B4"/>
</g>
<defs>
<clipPath id="clip0_16_11904">
<rect width="32" height="32" fill="white"/>
</clipPath>
</defs>
</svg>
