<svg width="32" height="32" viewBox="0 0 32 32" fill="none" xmlns="http://www.w3.org/2000/svg">
<g clip-path="url(#clip0_16_11973)">
<path d="M16 32C24.8366 32 32 24.8366 32 16C32 7.16344 24.8366 0 16 0C7.16344 0 0 7.16344 0 16C0 24.8366 7.16344 32 16 32Z" fill="#F0F0F0"/>
<path d="M16.0003 0C9.65689 0 4.17589 3.69156 1.58789 9.0435H30.4126C27.8246 3.69156 22.3436 0 16.0003 0V0Z" fill="black"/>
<path d="M16.0003 32C9.65689 32 4.17589 28.3085 1.58789 22.9565H30.4126C27.8246 28.3085 22.3436 32 16.0003 32V32Z" fill="#496E2D"/>
<path d="M31.2444 11.1304H0.755562C0.265437 12.666 0 14.3019 0 16C0 17.6981 0.265437 19.334 0.755562 20.8696H31.2444C31.7346 19.334 32 17.6981 32 16C32 14.3019 31.7346 12.666 31.2444 11.1304Z" fill="#A2001D"/>
<path d="M20.982 7.39361L19.0871 6.51904L15.9998 13.5097L12.9124 6.51904L11.0176 7.39361L14.8506 15.9998L11.0176 24.606L12.9124 25.4806L15.9998 18.4899L19.0871 25.4806L20.982 24.606L17.149 15.9998L20.982 7.39361Z" fill="#F0F0F0"/>
<path d="M17.2868 8.21762C16.5533 7.41655 15.9998 6.95605 15.9998 6.95605C15.9998 6.95605 15.4464 7.41649 14.7129 8.21762V23.7813C15.4464 24.5825 15.9998 25.043 15.9998 25.043C15.9998 25.043 16.5533 24.5826 17.2868 23.7814V8.21762Z" fill="#F0F0F0"/>
<path d="M12.5215 11.2025V20.797C13.2966 22.1705 14.2453 23.2962 14.9563 24.0426V7.95703C14.2453 8.70334 13.2965 9.82916 12.5215 11.2025V11.2025Z" fill="#A2001D"/>
<path d="M19.4778 11.2025C18.7026 9.82909 17.754 8.70334 17.043 7.95703V24.0426C17.7539 23.2962 18.7026 22.1705 19.4778 20.797V11.2025Z" fill="#A2001D"/>
<path d="M19.4785 11.2026V20.7971C20.2632 19.4066 20.8698 17.7623 20.8698 15.9999C20.8698 14.2376 20.2632 12.5933 19.4785 11.2026Z" fill="black"/>
<path d="M12.5222 11.2026V20.7971C11.7375 19.4066 11.1309 17.7623 11.1309 15.9999C11.1309 14.2376 11.7375 12.5933 12.5222 11.2026Z" fill="black"/>
</g>
<defs>
<clipPath id="clip0_16_11973">
<rect width="32" height="32" fill="white"/>
</clipPath>
</defs>
</svg>
