<svg width="32" height="32" viewBox="0 0 32 32" fill="none" xmlns="http://www.w3.org/2000/svg">
<g clip-path="url(#clip0_16_11355)">
<path d="M0 16C0 18.7719 0.705188 21.379 1.94544 23.6522L16 25.0435L30.0546 23.6522C31.2948 21.379 32 18.7719 32 16C32 13.2281 31.2948 10.621 30.0546 8.34781L16 6.9565L1.94544 8.34781C0.705188 10.621 0 13.2281 0 16H0Z" fill="#D80027"/>
<path d="M1.94531 8.34781H30.0544C27.3407 3.37431 22.0645 0 15.9999 0C9.93518 0 4.659 3.37431 1.94531 8.34781V8.34781Z" fill="#0052B4"/>
<path d="M15.9999 32.0002C22.0645 32.0002 27.3407 28.6258 30.0544 23.6523H1.94531C4.659 28.6258 9.93518 32.0002 15.9999 32.0002Z" fill="#0052B4"/>
<path d="M21.5656 19.1304V17.0435H20.1744V14.2609L18.7831 12.8695L17.3918 14.2609V11.4782L16.0004 10.0869L14.6091 11.4782V14.2609L13.2178 12.8695L11.8265 14.2609V17.0435H10.4353V19.1304H9.04395V21.2174H22.9569V19.1304H21.5656Z" fill="#F0F0F0"/>
</g>
<defs>
<clipPath id="clip0_16_11355">
<rect width="32" height="32" fill="white"/>
</clipPath>
</defs>
</svg>
