<svg width="32" height="32" viewBox="0 0 32 32" fill="none" xmlns="http://www.w3.org/2000/svg">
<path d="M16 32C24.8366 32 32 24.8366 32 16C32 7.16344 24.8366 0 16 0C7.16344 0 0 7.16344 0 16C0 24.8366 7.16344 32 16 32Z" fill="#F0F0F0"/>
<path d="M29.3328 17.9149C27.9995 17.9149 27.9995 16.6958 26.6661 16.6958C25.3328 16.6958 25.3328 17.9149 23.9996 17.9149C22.6663 17.9149 22.6662 16.6958 21.333 16.6958C19.9997 16.6958 19.9997 17.9149 18.6663 17.9149C17.3329 17.9149 17.3329 16.6958 15.9994 16.6958C14.6661 16.6958 14.6661 17.9149 13.3329 17.9149C11.9998 17.9149 11.9998 16.6958 10.6664 16.6958C9.333 16.6958 9.333 17.9149 7.99957 17.9149C6.66613 17.9149 6.66613 16.6958 5.33269 16.6958C3.99957 16.6958 3.99957 17.9149 2.66626 17.9149C1.34013 17.9149 1.33244 16.7092 0.0205078 16.6964C0.0574453 17.4282 0.14482 18.1467 0.276945 18.8494C1.33969 19.0055 1.43276 20.0482 2.66638 20.0482C3.99969 20.0482 3.99969 18.8292 5.33282 18.8292C6.66626 18.8292 6.66626 20.0482 7.99969 20.0482C9.33313 20.0482 9.33313 18.8292 10.6666 18.8292C11.9999 18.8292 11.9999 20.0482 13.333 20.0482C14.6663 20.0482 14.6663 18.8292 15.9996 18.8292C17.333 18.8292 17.333 20.0482 18.6664 20.0482C19.9999 20.0482 19.9999 18.8292 21.3331 18.8292C22.6664 18.8292 22.6664 20.0482 23.9997 20.0482C25.333 20.0482 25.333 18.8292 26.6662 18.8292C27.9997 18.8292 27.9997 20.0482 29.3329 20.0482C30.5666 20.0482 30.6597 19.0055 31.7225 18.8494C31.8547 18.1467 31.9419 17.4282 31.9791 16.6964C30.6668 16.7093 30.659 17.9149 29.3328 17.9149V17.9149Z" fill="#0052B4"/>
<path d="M26.6659 20.8696C25.3326 20.8696 25.3326 22.0888 23.9994 22.0888C22.6661 22.0888 22.666 20.8696 21.3328 20.8696C19.9995 20.8696 19.9995 22.0888 18.6661 22.0888C17.3327 22.0888 17.3327 20.8696 15.9992 20.8696C14.6659 20.8696 14.6659 22.0888 13.3327 22.0888C11.9996 22.0888 11.9996 20.8696 10.6662 20.8696C9.3328 20.8696 9.3328 22.0888 7.99937 22.0888C6.66593 22.0888 6.66593 20.8696 5.33249 20.8696C3.99937 20.8696 3.99937 22.0888 2.66606 22.0888C1.68387 22.0888 1.42456 21.4276 0.82312 21.0794C1.18737 22.1681 1.66581 23.2043 2.24362 24.1745C2.36874 24.2047 2.50787 24.2221 2.66599 24.2221C3.99931 24.2221 3.99931 23.0031 5.33243 23.0031C6.66587 23.0031 6.66587 24.2221 7.9993 24.2221C9.33274 24.2221 9.33274 23.0031 10.6662 23.0031C11.9995 23.0031 11.9995 24.2221 13.3326 24.2221C14.6659 24.2221 14.6659 23.0031 15.9992 23.0031C17.3326 23.0031 17.3326 24.2221 18.6661 24.2221C19.9995 24.2221 19.9995 23.0031 21.3327 23.0031C22.666 23.0031 22.666 24.2221 23.9993 24.2221C25.3325 24.2221 25.3326 23.0031 26.6659 23.0031C27.9993 23.0031 27.9993 24.2221 29.3325 24.2221C29.4908 24.2221 29.63 24.2047 29.7552 24.1744C30.3331 23.2043 30.8115 22.1681 31.1757 21.0794C30.5742 21.4277 30.3149 22.0888 29.3325 22.0888C27.9994 22.0888 27.9994 20.8696 26.6659 20.8696V20.8696Z" fill="#0052B4"/>
<path d="M31.6271 12.559C30.6524 12.7613 30.5282 13.7411 29.3324 13.7411C27.9991 13.7411 27.9991 12.522 26.6658 12.522C25.3325 12.522 25.3325 13.7411 23.9992 13.7411C22.666 13.7411 22.6659 12.522 21.3326 12.522C19.9993 12.522 19.9993 13.7411 18.666 13.7411C17.3326 13.7411 17.3325 12.522 15.9991 12.522C15.2787 12.522 14.9474 12.8778 14.5848 13.2051V15.3384C14.9474 15.0112 15.2786 14.6554 15.9991 14.6554C17.3325 14.6554 17.3325 15.8744 18.666 15.8744C19.9994 15.8744 19.9994 14.6554 21.3326 14.6554C22.666 14.6554 22.666 15.8744 23.9992 15.8744C25.3325 15.8744 25.3325 14.6554 26.6658 14.6554C27.9992 14.6554 27.9992 15.8744 29.3324 15.8744C30.5661 15.8744 30.6592 14.8318 31.722 14.6757C31.7901 14.6757 31.8663 14.675 31.9442 14.674C31.8851 13.9545 31.7783 13.2485 31.6271 12.559V12.559Z" fill="#0052B4"/>
<path d="M30.4591 9.14197C30.1828 9.37403 29.8634 9.56678 29.3333 9.56678C28 9.56678 28 8.34766 26.6666 8.34766C25.3333 8.34766 25.3333 9.56678 24.0001 9.56678C22.6668 9.56678 22.6667 8.34766 21.3335 8.34766C20.0002 8.34766 20.0002 9.56678 18.6668 9.56678C17.3334 9.56678 17.3334 8.34766 15.9999 8.34766C15.2795 8.34766 14.9483 8.70353 14.5857 9.03078V11.1641C14.9483 10.8369 15.2794 10.4811 15.9999 10.4811C17.3334 10.4811 17.3334 11.7001 18.6668 11.7001C20.0001 11.7001 20.0001 10.4811 21.3334 10.4811C22.6667 10.4811 22.6667 11.7001 24 11.7001C25.3332 11.7001 25.3332 10.4811 26.6666 10.4811C28 10.4811 28 11.7001 29.3332 11.7001C30.2793 11.7001 30.5549 11.0873 31.1111 10.7309C30.9215 10.1873 30.7039 9.65703 30.4591 9.14197V9.14197Z" fill="#0052B4"/>
<path d="M26.7797 4.17708C26.7427 4.17508 26.705 4.17383 26.6658 4.17383C25.3325 4.17383 25.3325 5.39295 23.9993 5.39295C22.666 5.39295 22.666 4.17383 21.3327 4.17383C19.9994 4.17383 19.9994 5.39295 18.666 5.39295C17.3325 5.39295 17.3325 4.17383 15.9991 4.17383C15.2787 4.17383 14.9474 4.5297 14.5848 4.85695V6.99027C14.9474 6.66308 15.2786 6.30727 15.9991 6.30727C17.3325 6.30727 17.3325 7.52627 18.666 7.52627C19.9994 7.52627 19.9994 6.30727 21.3327 6.30727C22.666 6.30727 22.666 7.52627 23.9992 7.52627C25.3325 7.52627 25.3325 6.30727 26.6658 6.30727C27.9992 6.30727 27.9992 7.52627 29.3325 7.52627C29.4146 7.52627 29.4913 7.52139 29.5639 7.5127C28.7895 6.27745 27.8517 5.15514 26.7797 4.17708V4.17708Z" fill="#0052B4"/>
<path d="M20.089 0.52825C19.723 0.857501 19.3922 1.21913 18.666 1.21913C17.3326 1.21913 17.3326 0.000125 15.9992 0H15.999C15.3095 6.25e-05 14.9766 0.326125 14.6313 0.641063V2.77444C14.9765 2.4595 15.3095 2.13338 15.9992 2.13338C17.3327 2.13338 17.3327 3.35238 18.6661 3.35238C19.9995 3.35238 19.9995 2.13338 21.3328 2.13338C22.6661 2.13338 22.6661 3.35238 23.9993 3.35238C24.5588 3.35238 24.8833 3.13763 25.1703 2.8885C23.6493 1.82256 21.9344 1.01469 20.089 0.52825V0.52825Z" fill="#0052B4"/>
<path d="M18.6661 30.4365C17.3327 30.4365 17.3327 29.2173 15.9992 29.2173C14.6659 29.2173 14.6659 30.4365 13.3327 30.4365C11.9996 30.4365 11.9996 29.2173 10.6662 29.2173C9.64493 29.2173 9.40537 29.932 8.75037 30.2668C10.5566 31.1865 12.5608 31.7727 14.6821 31.9456C15.0101 31.6459 15.3434 31.3507 15.9992 31.3507C16.6553 31.3507 16.9886 31.6459 17.3167 31.9457C19.438 31.7728 21.4423 31.1865 23.2486 30.2669C22.5935 29.9321 22.354 29.2173 21.3328 29.2173C19.9996 29.2173 19.9996 30.4365 18.6661 30.4365V30.4365Z" fill="#0052B4"/>
<path d="M23.9995 26.2626C22.6662 26.2626 22.6662 25.0435 21.3329 25.0435C19.9996 25.0435 19.9996 26.2626 18.6662 26.2626C17.3328 26.2626 17.3328 25.0435 15.9993 25.0435C14.666 25.0435 14.666 26.2626 13.3328 26.2626C11.9996 26.2626 11.9996 25.0435 10.6663 25.0435C9.3329 25.0435 9.3329 26.2626 7.99946 26.2626C6.66602 26.2626 6.66602 25.0435 5.33258 25.0435C4.37377 25.0435 4.10452 25.6741 3.53296 26.0281C3.89121 26.473 4.27208 26.8989 4.67515 27.3026C4.85571 27.2255 5.06758 27.1768 5.33252 27.1768C6.66596 27.1768 6.66596 28.3958 7.9994 28.3958C9.33284 28.3958 9.33284 27.1768 10.6663 27.1768C11.9996 27.1768 11.9996 28.3958 13.3327 28.3958C14.666 28.3958 14.666 27.1768 15.9993 27.1768C17.3327 27.1768 17.3327 28.3958 18.6662 28.3958C19.9996 28.3958 19.9996 27.1768 21.3328 27.1768C22.6661 27.1768 22.6662 28.3958 23.9994 28.3958C25.3327 28.3958 25.3327 27.1768 26.666 27.1768C26.9312 27.1768 27.1431 27.2255 27.3238 27.3028C27.7269 26.899 28.1078 26.4731 28.466 26.0282C27.8944 25.6742 27.6252 25.0435 26.666 25.0435C25.3327 25.0435 25.3327 26.2626 23.9995 26.2626V26.2626Z" fill="#0052B4"/>
<path d="M15.9569 15.9998H15.9997C15.9997 15.9855 15.9997 15.9715 15.9997 15.957C15.9855 15.9713 15.9712 15.9856 15.9569 15.9998Z" fill="#F0F0F0"/>
<path d="M16 8.34797V13.0488L10.4348 7.65234L16 8.34797Z" fill="#0052B4"/>
<path d="M8.34791 16.0002H13.0485L8.34785 9.73929L7.65222 14.6089L8.34791 16.0002Z" fill="#0052B4"/>
<path d="M16 8.34781C16 5.5325 16 3.68781 16 0H15.9973C7.162 0.0015 0 7.16431 0 16H8.34787V11.2993L13.0485 16H15.9572C15.9715 15.9857 15.9858 15.9715 16.0001 15.9572C16.0001 14.8793 16.0001 13.9174 16.0001 13.0486L11.2992 8.34781H16Z" fill="#F0F0F0"/>
<path d="M8.09491 2.08691C5.59247 3.51185 3.5121 5.59223 2.08716 8.09467V16H6.2611V6.26098V6.26085H16.0002C16.0002 4.94442 16.0002 3.69029 16.0002 2.08691H8.09491Z" fill="#D80027"/>
<path d="M15.9998 14.0322L10.3152 8.34766H8.34766V8.34778L15.9997 15.9998H15.9998C15.9998 15.9998 15.9998 14.6431 15.9998 14.0322V14.0322Z" fill="#D80027"/>
<path d="M20.8695 8.34766H27.1304L23.9999 11.4781L20.8695 8.34766Z" fill="#6DA544"/>
<path d="M23.3043 10.7826H24.6956V14.6087H23.3043V10.7826Z" fill="#A2001D"/>
<path d="M23.3043 20.8696H24.6956V24.6956H23.3043V20.8696Z" fill="#A2001D"/>
<path d="M28.1742 18.7826C28.1742 17.6301 27.2399 16.6957 26.0873 16.6957C25.5527 16.6957 25.0653 16.897 24.696 17.2275V16H25.3916V14.6087H24.696V13.9131H23.3047V14.6087H22.609V16H23.3047V17.2275C22.9354 16.897 22.448 16.6957 21.9134 16.6957C20.7608 16.6957 19.8264 17.6301 19.8264 18.7826C19.8264 19.4006 20.0952 19.9556 20.522 20.3378V21.5653H27.4785V20.3378C27.9054 19.9556 28.1742 19.4006 28.1742 18.7826V18.7826Z" fill="#FFDA44"/>
<path d="M26.0867 18.0869C25.8672 18.0869 25.7136 18.1833 25.6233 18.264L24.6953 19.0947H23.3041L22.3762 18.264C22.2859 18.1833 22.1322 18.0869 21.9128 18.0869C21.5292 18.0869 21.2172 18.399 21.2172 18.7825C21.2172 19.0527 21.3629 19.2234 21.4497 19.3012L21.9128 19.716V20.1739H26.0868V19.716L26.55 19.3012C26.6368 19.2235 26.7825 19.0527 26.7825 18.7825C26.7823 18.399 26.4703 18.0869 26.0867 18.0869V18.0869Z" fill="#D80027"/>
</svg>
