<svg width="32" height="32" viewBox="0 0 32 32" fill="none" xmlns="http://www.w3.org/2000/svg">
<g clip-path="url(#clip0_16_11676)">
<path d="M0 16C0 17.9572 0.352062 19.832 0.99525 21.5654L16 22.9565L31.0047 21.5653C31.648 19.832 32 17.9572 32 16C32 14.0697 31.6581 12.2193 31.0316 10.5059L16 9.0435L0.968375 10.506C0.341938 12.2192 0 14.0697 0 16H0Z" fill="#FFDA44"/>
<path d="M15.9999 32.0002C22.8794 32.0002 28.744 27.6582 31.0047 21.5654H0.995117C3.2558 27.6582 9.12049 32.0002 15.9999 32.0002Z" fill="#D80027"/>
<path d="M16 0C9.12061 0 3.25593 4.342 0.995239 10.4348H31.0049C28.7442 4.342 22.8795 0 16 0V0Z" fill="#6DA544"/>
<path d="M15.9998 23.652C20.226 23.652 23.652 20.226 23.652 15.9998C23.652 11.7737 20.226 8.34766 15.9998 8.34766C11.7737 8.34766 8.34766 11.7737 8.34766 15.9998C8.34766 20.226 11.7737 23.652 15.9998 23.652Z" fill="#0052B4"/>
<path d="M15.998 10.0742L17.3794 14.3256H21.8567L18.2331 16.9532L19.6253 21.2172L15.998 18.5771L12.3763 21.2123L13.7629 16.9532L10.1426 14.3256H14.6166L15.998 10.0742Z" fill="#FFDA44"/>
<path d="M21.5077 17.0578L17.1254 15.6338L19.8337 11.9063L18.7083 11.0884L15.9998 14.8161L13.2916 11.0884L12.166 11.9062L14.8742 15.634L10.4922 17.0577L10.9221 18.381L15.3043 16.9572V21.5648H16.6956V16.9571L21.0776 18.381L21.5077 17.0578Z" fill="#FFDA44"/>
</g>
<defs>
<clipPath id="clip0_16_11676">
<rect width="32" height="32" fill="white"/>
</clipPath>
</defs>
</svg>
