<svg width="32" height="32" viewBox="0 0 32 32" fill="none" xmlns="http://www.w3.org/2000/svg">
<path d="M16 32C24.8366 32 32 24.8366 32 16C32 7.16344 24.8366 0 16 0C7.16344 0 0 7.16344 0 16C0 24.8366 7.16344 32 16 32Z" fill="#F0F0F0"/>
<path d="M32 16C32 24.8365 24.8365 32 16 32C7.1635 32 0 24.8365 0 16C0 7.1635 16 16 16 16C16 16 28.1101 16 32 16Z" fill="#D80027"/>
<path d="M0 16C0 7.1635 7.1635 0 16 0V16C16 16 5.56519 16 0 16Z" fill="#0052B4"/>
<path d="M9.52449 5.56543L10.5605 8.75406H13.9132L11.2009 10.7247L12.2369 13.9133L9.52449 11.9426L6.81212 13.9133L7.84811 10.7247L5.13574 8.75406H8.48843L9.52449 5.56543Z" fill="#F0F0F0"/>
</svg>
