<svg width="32" height="32" viewBox="0 0 32 32" fill="none" xmlns="http://www.w3.org/2000/svg">
<path d="M23.6525 1.94544C21.3793 0.705188 18.7721 0 16.0003 0C13.2284 0 10.6213 0.705188 8.3481 1.94544L6.95679 16L8.3481 30.0546C10.6213 31.2948 13.2284 32 16.0003 32C18.7721 32 21.3793 31.2948 23.6525 30.0546L25.0438 16L23.6525 1.94544Z" fill="#FFDA44"/>
<path d="M8.34781 30.0544V1.94537C3.37431 4.65912 0 9.93531 0 16C0 22.0647 3.37431 27.3409 8.34781 30.0544Z" fill="#338AF3"/>
<path d="M31.9999 15.9999C31.9999 9.93525 28.6256 4.65906 23.6521 1.94531V30.0544C28.6256 27.3408 31.9999 22.0646 31.9999 15.9999V15.9999Z" fill="#6DA544"/>
<path d="M12.5221 20.1741L9.73938 16.0001L12.522 11.8262L15.3048 16.0001L12.5221 20.1741Z" fill="#6DA544"/>
<path d="M19.4788 20.1741L16.6962 16.0001L19.4788 11.8262L22.2614 16.0001L19.4788 20.1741Z" fill="#6DA544"/>
<path d="M15.9999 25.7389L13.2173 21.565L15.9999 17.3911L18.7825 21.565L15.9999 25.7389Z" fill="#6DA544"/>
</svg>
