<svg width="32" height="32" viewBox="0 0 32 32" fill="none" xmlns="http://www.w3.org/2000/svg">
<g clip-path="url(#clip0_16_12602)">
<path d="M16 32C24.8366 32 32 24.8366 32 16C32 7.16344 24.8366 0 16 0C7.16344 0 0 7.16344 0 16C0 24.8366 7.16344 32 16 32Z" fill="#F0F0F0"/>
<path d="M26.8007 4.19606C23.9545 1.59031 20.1631 0 16.0001 0C15.3186 0 14.6471 0.0429375 13.988 0.125625L6.26103 9.0435L0.50647 20.0082C0.878219 21.4495 1.44659 22.8116 2.17991 24.0655L16.0001 16L26.8007 4.19606Z" fill="#FFDA44"/>
<path d="M29.3208 24.8647L6.9353 29.1847C9.51211 30.9598 12.6345 31.9999 16.0001 31.9999C21.5577 31.9999 26.4526 29.1659 29.3208 24.8647V24.8647Z" fill="#6DA544"/>
<path d="M26.8033 4.19824L2.18933 24.0811C2.83314 25.1791 3.60396 26.1935 4.48189 27.1041L32.0005 16.0001C32.0005 11.3276 29.9973 7.12337 26.8033 4.19824V4.19824Z" fill="#D80027"/>
<path d="M0 15.9999C0 17.384 0.175875 18.7271 0.506312 20.008L13.9878 0.125488C6.10112 1.11511 0 7.84486 0 15.9999Z" fill="#0052B4"/>
</g>
<defs>
<clipPath id="clip0_16_12602">
<rect width="32" height="32" fill="white"/>
</clipPath>
</defs>
</svg>
