<svg width="32" height="32" viewBox="0 0 32 32" fill="none" xmlns="http://www.w3.org/2000/svg">
<path d="M16 32C24.8366 32 32 24.8366 32 16C32 7.16344 24.8366 0 16 0C7.16344 0 0 7.16344 0 16C0 24.8366 7.16344 32 16 32Z" fill="#F0F0F0"/>
<path d="M32 16C32 24.8365 24.8365 32 16 32C7.1635 32 0 24.8365 0 16" fill="#496E2D"/>
<path d="M27.6886 11.1337C27.1164 9.51103 25.5704 8.34766 23.7519 8.34766H20.1742C17.869 8.34766 16.0002 10.2164 16.0002 12.5216C16.0002 13.2747 16.2007 13.9985 16.5497 14.6085C15.2211 14.5977 13.9916 14.6177 13.2176 14.6085C13.2176 12.9988 13.2176 10.9482 13.2176 10.5191L13.382 10.3547C14.1199 9.61685 13.8738 8.38709 13.8738 8.38709C13.8738 8.38709 12.6442 8.14116 11.9063 8.87903L11.0464 9.73897H10.0872C7.97406 9.73897 6.26112 11.452 6.26112 13.565H9.04374V16.6955C9.04374 17.1534 9.13605 17.5895 9.30287 17.9868L8.34805 18.7824H6.95674V17.3911H5.56543V20.1737H11.8263V22.9564H10.435V24.3477H13.2176V21.565L14.4929 20.0346H17.5075L18.7828 21.565V22.9564H17.3915V24.3477H22.9567V16.6954C22.9567 15.5429 23.8911 14.6085 25.0436 14.6085C25.0732 14.6085 25.1026 14.6095 25.132 14.6107C25.0744 14.3877 25.0436 14.1539 25.0436 13.9129C25.0437 12.4223 26.2158 11.2055 27.6886 11.1337V11.1337ZM20.1742 22.9563V20.0345H20.2901L21.5654 21.565V22.9563H20.1742Z" fill="#D80027"/>
</svg>
