<svg width="32" height="32" viewBox="0 0 32 32" fill="none" xmlns="http://www.w3.org/2000/svg">
<path d="M16 32C24.8366 32 32 24.8366 32 16C32 7.16344 24.8366 0 16 0C7.16344 0 0 7.16344 0 16C0 24.8366 7.16344 32 16 32Z" fill="#F0F0F0"/>
<path d="M31.0047 10.4346H0.995125C0.352063 12.1679 0 14.0426 0 15.9998C0 17.9569 0.352063 19.8317 0.995125 21.5649H31.0048C31.648 19.8317 32 17.9569 32 15.9998C32 14.0426 31.648 12.1679 31.0047 10.4346Z" fill="#A2001D"/>
<path d="M16.0465 32C21.5266 32 26.3626 29.2442 29.2463 25.0435H2.8468C5.73043 29.2442 10.5663 32 16.0465 32Z" fill="#6DA544"/>
<path d="M16.0465 0C21.5266 0 26.3626 2.75575 29.2463 6.9565H2.8468C5.73043 2.75575 10.5663 0 16.0465 0V0Z" fill="#6DA544"/>
<path d="M16.0002 10.4346L17.3815 14.6858H21.8518L18.2353 17.3136L19.6167 21.5649L16.0002 18.9375L12.3836 21.5649L13.7651 17.3136L10.1486 14.6858H14.6189L16.0002 10.4346Z" fill="#FFDA44"/>
</svg>
