<svg width="32" height="32" viewBox="0 0 32 32" fill="none" xmlns="http://www.w3.org/2000/svg">
<path d="M16 32C24.8366 32 32 24.8366 32 16C32 7.16344 24.8366 0 16 0C7.16344 0 0 7.16344 0 16C0 24.8366 7.16344 32 16 32Z" fill="#338AF3"/>
<path d="M15.4954 26.0745C15.0641 26.0536 14.7072 25.7733 14.5674 25.3928C14.3205 25.7148 13.8961 25.877 13.478 25.7691C13.0592 25.6613 12.7664 25.3149 12.7059 24.9128C12.3984 25.1785 11.9504 25.2508 11.5629 25.061C11.1747 24.8703 10.9577 24.4716 10.98 24.0661C10.6259 24.265 10.1724 24.2456 9.8308 23.9812C9.48992 23.7168 9.35705 23.2835 9.45998 22.8904C9.07317 23.0142 8.63355 22.9043 8.3518 22.5766C8.07005 22.2497 8.02686 21.7982 8.20642 21.4344C7.80292 21.4775 7.39392 21.2813 7.1838 20.9043C6.97298 20.5273 7.02173 20.0758 7.27142 19.755C6.86723 19.7161 6.50548 19.4413 6.37611 19.0295C6.24605 18.6176 6.38517 18.185 6.69473 17.9213C6.30655 17.8015 6.0088 17.4593 5.96498 17.0301C5.92117 16.601 6.1438 16.2065 6.49923 16.0103C6.14373 15.8155 5.91973 15.4211 5.96217 14.9926H5.96286C6.0053 14.5626 6.30305 14.2198 6.69048 14.0986C6.38092 13.8357 6.24042 13.4037 6.36911 12.9918C6.4978 12.5793 6.8588 12.3038 7.26305 12.2635C7.0133 11.9435 6.96323 11.4919 7.17261 11.1143C7.38198 10.7372 7.79105 10.5403 8.19523 10.5828C8.01436 10.219 8.0568 9.76745 8.33786 9.43914C8.61823 9.11152 9.05786 9.00089 9.44536 9.12333C9.34098 8.73095 9.47317 8.29689 9.81405 8.03189C10.1542 7.76676 10.6078 7.74658 10.9619 7.94414C10.9389 7.53864 11.1552 7.13995 11.5427 6.94864C11.9295 6.75801 12.3782 6.82901 12.6864 7.0947C12.7455 6.6927 13.0384 6.34489 13.4564 6.23626C13.8738 6.12776 14.2982 6.28845 14.5458 6.60983C14.6856 6.22933 15.0418 5.94826 15.4731 5.9267C15.9037 5.90451 16.2863 6.14651 16.4644 6.51045C16.6773 6.16539 17.0822 5.96089 17.5086 6.02558C17.9357 6.08958 18.2634 6.40395 18.365 6.79708C18.6432 6.50064 19.0815 6.38314 19.4864 6.53195C19.8919 6.68151 20.1493 7.05576 20.1688 7.46201C20.5006 7.22833 20.9542 7.20114 21.3208 7.42933C21.6874 7.65683 21.8634 8.07489 21.8008 8.47626C22.173 8.3142 22.6224 8.37889 22.9354 8.6752C23.2485 8.97227 23.3375 9.41677 23.1956 9.79727C23.5928 9.71308 24.02 9.86614 24.2676 10.2202C24.5152 10.5736 24.5132 11.0271 24.2982 11.3715C24.7038 11.3687 25.0913 11.6053 25.2631 12.0011C25.4342 12.3976 25.3403 12.8421 25.06 13.1364C25.4586 13.2157 25.7904 13.5253 25.878 13.9482C25.965 14.3711 25.7834 14.7865 25.4502 15.0181C25.8231 15.1761 26.086 15.5455 26.0867 15.9768V15.9907V15.9998C26.0867 16.431 25.8252 16.8011 25.4523 16.9605C25.7862 17.1908 25.9692 17.606 25.8822 18.029C25.796 18.4519 25.4649 18.7622 25.0662 18.8429C25.3473 19.1365 25.4426 19.5803 25.2722 19.9775C25.1017 20.374 24.7142 20.6113 24.308 20.6091C24.5236 20.9535 24.5271 21.4071 24.2802 21.7611C24.0332 22.1153 23.6068 22.2697 23.2095 22.1862C23.3522 22.566 23.2638 23.0113 22.9515 23.309C22.6384 23.6061 22.1897 23.6715 21.8175 23.5108C21.8809 23.9115 21.7055 24.3303 21.3396 24.5591C20.9737 24.788 20.5201 24.7615 20.1876 24.5285C20.1688 24.9348 19.9128 25.3098 19.508 25.46C19.1032 25.6103 19.508 25.46 19.5073 25.46C19.1024 25.6096 18.6642 25.4928 18.3852 25.1971C18.285 25.5909 17.9581 25.906 17.531 25.9714C17.1045 26.0361 16.699 25.833 16.4854 25.4879C16.3157 25.8378 15.9567 26.0757 15.5477 26.0757C15.5302 26.076 15.5129 26.0753 15.4954 26.0745V26.0745Z" fill="#F3F3F3"/>
<path d="M16.0004 22.9565C19.8424 22.9565 22.9569 19.8419 22.9569 16C22.9569 12.158 19.8424 9.04346 16.0004 9.04346C12.1585 9.04346 9.04395 12.158 9.04395 16C9.04395 19.8419 12.1585 22.9565 16.0004 22.9565Z" fill="#338AF3"/>
<path d="M17.523 13.6384C17.8648 13.3849 18.0873 12.9798 18.0873 12.5215V11.8259C18.0873 11.0574 17.4644 10.4346 16.696 10.4346H15.3047C14.5363 10.4346 13.9134 11.0574 13.9134 11.8259V12.5215C13.9134 12.9798 14.1359 13.3849 14.4776 13.6384L13.2178 26.4345C13.2178 26.4345 13.9134 27.1303 16.0004 27.1303C18.0874 27.1303 18.783 26.4345 18.783 26.4345L17.523 13.6384Z" fill="#BDBCC1"/>
<path d="M16 10.4346L17.2086 14.1544H21.1202L17.9558 16.4537L19.1644 20.1737L16 17.8746L12.8355 20.1737L14.0443 16.4537L10.8799 14.1544H14.7913L16 10.4346Z" fill="#F0F0F0"/>
</svg>
