<svg width="32" height="32" viewBox="0 0 32 32" fill="none" xmlns="http://www.w3.org/2000/svg">
<g clip-path="url(#clip0_16_12870)">
<path d="M8.66354 1.77686C7.23117 2.51617 5.88661 3.48523 4.68586 4.68598C3.48505 5.88679 2.51598 7.23136 1.77673 8.66373L12.0647 19.9355L23.3365 30.2235C24.7689 29.4842 26.1135 28.5151 27.3142 27.3144C28.515 26.1136 29.484 24.769 30.2234 23.3367L19.9354 12.0648L8.66354 1.77686Z" fill="#F0F0F0"/>
<path d="M27.3139 27.3143C27.9851 26.6432 28.5837 25.927 29.1107 25.1758L6.82417 2.88916C6.07298 3.4161 5.35679 4.01472 4.68561 4.68591C4.01442 5.3571 3.41579 6.07328 2.88879 6.82453L25.1753 29.111C25.9265 28.5841 26.6427 27.9855 27.3139 27.3143Z" fill="black"/>
<path d="M4.68574 27.3142C9.73367 32.3621 17.3147 33.3311 23.3363 30.2232L1.77668 8.66349C-1.33113 14.6851 -0.361942 22.2662 4.68574 27.3142V27.3142Z" fill="#D80027"/>
<path d="M27.3142 4.68581C22.2663 -0.362065 14.6852 -1.33107 8.66357 1.77662L30.2233 23.3365C33.3311 17.3149 32.3621 9.73369 27.3142 4.68581V4.68581Z" fill="#D80027"/>
</g>
<defs>
<clipPath id="clip0_16_12870">
<rect width="32" height="32" fill="white"/>
</clipPath>
</defs>
</svg>
