<svg width="32" height="32" viewBox="0 0 32 32" fill="none" xmlns="http://www.w3.org/2000/svg">
<path d="M32 16C32 24.8365 24.8365 32 16 32C7.1635 32 0 24.8365 0 16C0.695625 16 16 13.9131 16 13.9131L32 16Z" fill="#338AF3"/>
<path d="M0 16C0 7.1635 7.1635 0 16 0C24.8365 0 32 7.1635 32 16" fill="#F0F0F0"/>
<path d="M22.3508 11.04L15.9998 17.3911L9.64878 11.04C8.82747 12.2592 8.34766 13.7267 8.34766 15.3041V17.391C8.34766 20.7421 10.513 23.5966 13.5178 24.6298C13.1167 25.4158 13.1843 26.3967 13.772 27.1302C14.5525 26.5046 15.3606 25.8571 16.0461 25.3078C16.7316 25.8571 17.5397 26.5047 18.3202 27.1302C18.9147 26.3882 18.9775 25.3926 18.5606 24.6019C21.5243 23.5463 23.6519 20.7127 23.6519 17.391V15.3042C23.652 13.7267 23.1721 12.2593 22.3508 11.04V11.04Z" fill="#6DA544"/>
<path d="M15.9998 22.9566C12.9311 22.9566 10.4346 20.46 10.4346 17.3914V15.3044C10.4346 12.2358 12.9311 9.73926 15.9998 9.73926C19.0684 9.73926 21.5649 12.2358 21.5649 15.3044V17.3914C21.5649 20.46 19.0684 22.9566 15.9998 22.9566Z" fill="#FFDA44"/>
<path d="M19.478 17.3914V15.3044C19.478 13.3865 17.9176 11.8262 15.9997 11.8262C14.0819 11.8262 12.5215 13.3865 12.5215 15.3044V17.3914L15.9997 18.087L19.478 17.3914Z" fill="#338AF3"/>
<path d="M12.5215 17.3911C12.5215 19.3091 14.0819 20.8694 15.9997 20.8694C17.9176 20.8694 19.478 19.309 19.478 17.3911H12.5215Z" fill="#6DA544"/>
<path d="M20.174 9.73913C20.174 8.58656 19.2396 7.65219 18.087 7.65219C17.5524 7.65219 17.065 7.85344 16.6957 8.184V6.9565H17.3914V5.56519H16.6957V4.86956H15.3044V5.56519H14.6088V6.9565H15.3044V8.184C14.9351 7.85344 14.4477 7.65219 13.9131 7.65219C12.7605 7.65219 11.8262 8.58656 11.8262 9.73913C11.8262 10.3571 12.095 10.9121 12.5218 11.2943V12.5218H19.4783V11.2943C19.9052 10.9121 20.174 10.3571 20.174 9.73913V9.73913Z" fill="#FFDA44"/>
</svg>
