<svg width="32" height="32" viewBox="0 0 32 32" fill="none" xmlns="http://www.w3.org/2000/svg">
<path d="M16 32C24.8366 32 32 24.8366 32 16C32 7.16344 24.8366 0 16 0C7.16344 0 0 7.16344 0 16C0 24.8366 7.16344 32 16 32Z" fill="#FFDA44"/>
<path d="M4.68639 27.3138C5.35758 27.9849 6.07371 28.5835 6.82489 29.1105L29.1105 6.82483C28.5836 6.07365 27.985 5.35752 27.3138 4.68634C26.6426 4.01515 25.9265 3.41665 25.1753 2.88965L2.88977 25.1753C3.41665 25.9263 4.01527 26.6425 4.68639 27.3138V27.3138Z" fill="black"/>
<path d="M4.68661 4.68604C-0.361017 9.7338 -1.33008 17.3145 1.77761 23.3359L23.3365 1.77711C17.3151 -1.33058 9.7343 -0.361456 4.68661 4.68604V4.68604Z" fill="#6DA544"/>
<path d="M27.3134 27.3139C32.361 22.2663 33.33 14.6855 30.2225 8.66406L8.66357 30.2229C14.6849 33.3306 22.2657 32.3615 27.3134 27.3139Z" fill="#338AF3"/>
</svg>
