<svg width="32" height="32" viewBox="0 0 32 32" fill="none" xmlns="http://www.w3.org/2000/svg">
<g clip-path="url(#clip0_16_11817)">
<path d="M6.98206 29.2175C9.5498 30.9728 12.6548 32.0001 16 32.0001C19.3452 32.0001 22.4501 30.9728 25.0179 29.2175L16 27.8262L6.98206 29.2175Z" fill="#D80027"/>
<path d="M25.0179 2.78262C22.4501 1.02731 19.3452 0 16 0C12.6548 0 9.5498 1.02731 6.98206 2.78262L16 4.17394L25.0179 2.78262Z" fill="#D80027"/>
<path d="M32 16C32 10.7056 28.8302 5.38875 25.0179 2.78262H6.98206C2.76687 5.66412 0 10.5087 0 16C0 21.4914 2.76687 26.3359 6.98206 29.2174H25.0179C29.2332 26.3359 32 21.4914 32 16Z" fill="#0052B4"/>
<path d="M15.0948 26.0998C14.8762 25.9123 9.73938 21.4468 9.73938 16C9.73938 10.5532 14.8761 6.08759 15.0948 5.90015L16.0003 5.12402L16.9057 5.90009C17.1243 6.08759 22.2611 10.5531 22.2611 16C22.2611 21.4469 17.1244 25.9124 16.9057 26.0998L16.0003 26.8759L15.0948 26.0998Z" fill="#D80027"/>
<path d="M20.8693 16C20.8693 11.1305 15.9997 6.95654 15.9997 6.95654C15.9997 6.95654 11.1301 11.1306 11.1301 16C11.1301 17.4897 11.5862 18.914 12.2188 20.174H19.7806C20.4132 18.914 20.8693 17.4897 20.8693 16Z" fill="#338AF3"/>
<path d="M20.8693 16C20.8693 17.4897 20.4132 18.914 19.7806 20.1739L15.9997 20.8696L12.2188 20.1739C11.5862 18.9141 11.1301 17.4897 11.1301 16H20.8693Z" fill="#0052B4"/>
<path d="M15.9997 25.0434C15.9997 25.0434 18.3452 23.0323 19.7806 20.1738H12.2189C13.6542 23.0323 15.9997 25.0434 15.9997 25.0434Z" fill="#FFDA44"/>
<path d="M12.8695 13.2174H19.1304L15.9999 16.3478L12.8695 13.2174Z" fill="#6DA544"/>
<path d="M14.9567 15.3042H17.0436V21.5651H14.9567V15.3042Z" fill="#A2001D"/>
</g>
<defs>
<clipPath id="clip0_16_11817">
<rect width="32" height="32" fill="white"/>
</clipPath>
</defs>
</svg>
