<svg width="32" height="32" viewBox="0 0 32 32" fill="none" xmlns="http://www.w3.org/2000/svg">
<path d="M16 32C24.8366 32 32 24.8366 32 16C32 7.16344 24.8366 0 16 0C7.16344 0 0 7.16344 0 16C0 24.8366 7.16344 32 16 32Z" fill="#FFDA44"/>
<path d="M12.5219 13.9131H31.8647C30.842 6.06263 24.1293 0 16.0001 0C14.8055 0 13.6418 0.132063 12.5219 0.380313V13.9131H12.5219Z" fill="#0052B4"/>
<path d="M8.3475 13.9129V1.94531C3.95413 4.34244 0.809069 8.73938 0.135132 13.9129H8.3475V13.9129Z" fill="#0052B4"/>
<path d="M8.34743 18.0869H0.135132C0.809069 23.2605 3.95413 27.6574 8.3475 30.0545L8.34743 18.0869Z" fill="#0052B4"/>
<path d="M12.5219 18.087V31.6197C13.6418 31.8679 14.8055 32 16.0001 32C24.1293 32 30.842 25.9374 31.8647 18.0869H12.5219V18.087Z" fill="#0052B4"/>
</svg>
