<svg width="32" height="32" viewBox="0 0 32 32" fill="none" xmlns="http://www.w3.org/2000/svg">
<path d="M32 16C32 24.8365 24.8365 32 16 32C7.1635 32 0 24.8365 0 16C5.49563 10.5044 10.1565 5.8435 16 0C24.8365 0 32 7.1635 32 16Z" fill="#D80027"/>
<path d="M16 16C16 7.1635 16 6.12175 16 0C7.1635 0 0 7.1635 0 16H16Z" fill="#0052B4"/>
<path d="M13.913 9.36358L11.9589 10.2828L12.9994 12.1753L10.8776 11.7693L10.6087 13.9128L9.13081 12.3363L7.65282 13.9128L7.384 11.7693L5.26213 12.1751L6.30263 10.2827L4.34863 9.36358L6.30269 8.44452L5.26213 6.55202L7.38394 6.95795L7.65288 4.81445L9.13081 6.39095L10.6087 4.81445L10.8776 6.95795L12.9995 6.55202L11.9589 8.44458L13.913 9.36358Z" fill="#F0F0F0"/>
<path d="M9.13066 12.3419C10.7755 12.3419 12.109 11.0084 12.109 9.36356C12.109 7.71869 10.7755 6.38525 9.13066 6.38525C7.48578 6.38525 6.15234 7.71869 6.15234 9.36356C6.15234 11.0084 7.48578 12.3419 9.13066 12.3419Z" fill="#0052B4"/>
<path d="M9.13088 10.9508C8.25582 10.9508 7.54395 10.2389 7.54395 9.36381C7.54395 8.48875 8.25588 7.77681 9.13088 7.77681C10.0059 7.77681 10.7179 8.48875 10.7179 9.36381C10.7178 10.2389 10.0058 10.9508 9.13088 10.9508Z" fill="#F0F0F0"/>
</svg>
