<svg width="32" height="32" viewBox="0 0 32 32" fill="none" xmlns="http://www.w3.org/2000/svg">
<g clip-path="url(#clip0_16_12152)">
<path d="M1.94592 8.34781L16.0005 9.73913L30.055 8.34781C27.3413 3.37431 22.0652 0 16.0005 0C9.93579 0 4.65961 3.37431 1.94592 8.34781V8.34781Z" fill="#D80027"/>
<path d="M1.94544 23.6524L16 25.0437L30.0546 23.6524C31.2948 21.3792 32 18.7721 32 16.0002L16 14.6089L0 16.0002C0 18.7721 0.705188 21.3792 1.94544 23.6524Z" fill="#FFDA44"/>
<path d="M1.94544 8.34766C0.705188 10.6208 0 13.228 0 15.9998H32C32 13.228 31.2948 10.6208 30.0546 8.34766H16H1.94544Z" fill="#0052B4"/>
<path d="M16.0005 32.0002C22.0652 32.0002 27.3413 28.6258 30.055 23.6523H1.94592C4.65961 28.6258 9.93579 32.0002 16.0005 32.0002Z" fill="#6DA544"/>
</g>
<defs>
<clipPath id="clip0_16_12152">
<rect width="32" height="32" fill="white"/>
</clipPath>
</defs>
</svg>
