<svg width="32" height="32" viewBox="0 0 32 32" fill="none" xmlns="http://www.w3.org/2000/svg">
<path d="M16 32C24.8366 32 32 24.8366 32 16C32 7.16344 24.8366 0 16 0C7.16344 0 0 7.16344 0 16C0 24.8366 7.16344 32 16 32Z" fill="#F0F0F0"/>
<path d="M16.0003 32C22.3436 32 27.8246 28.3084 30.4126 22.9565H1.58789C4.17589 28.3084 9.65689 32 16.0003 32Z" fill="#338AF3"/>
<path d="M16.0003 0C9.65689 0 4.17589 3.69156 1.58789 9.0435H30.4126C27.8246 3.69156 22.3436 0 16.0003 0V0Z" fill="#338AF3"/>
<path d="M9.84672 10.4346L10.3647 12.0289H12.041L10.6849 13.0141L11.203 14.6084L9.84672 13.6231L8.49047 14.6084L9.00853 13.0141L7.65234 12.0289H9.32866L9.84672 10.4346Z" fill="#338AF3"/>
<path d="M9.84672 17.3911L10.3647 18.9855H12.041L10.6849 19.9707L11.203 21.565L9.84672 20.5797L8.49047 21.565L9.00853 19.9707L7.65234 18.9855H9.32866L9.84672 17.3911Z" fill="#338AF3"/>
<path d="M22.1534 10.4346L22.6714 12.0289H24.3477L22.9915 13.0141L23.5096 14.6084L22.1534 13.6231L20.7971 14.6084L21.3152 13.0141L19.959 12.0289H21.6354L22.1534 10.4346Z" fill="#338AF3"/>
<path d="M22.1534 17.3911L22.6714 18.9855H24.3477L22.9915 19.9707L23.5096 21.565L22.1534 20.5797L20.7971 21.565L21.3152 19.9707L19.959 18.9855H21.6354L22.1534 17.3911Z" fill="#338AF3"/>
<path d="M16.0001 13.9131L16.5181 15.5075H18.1944L16.8382 16.4927L17.3563 18.087L16.0001 17.1016L14.6438 18.087L15.1619 16.4927L13.8057 15.5075H15.482L16.0001 13.9131Z" fill="#338AF3"/>
</svg>
