<svg width="32" height="32" viewBox="0 0 32 32" fill="none" xmlns="http://www.w3.org/2000/svg">
<path d="M32 16C32 24.8365 24.8365 32 16 32C7.1635 32 0 24.8365 0 16C0 16.0037 16 0.0018125 16 0C24.8365 0 32 7.1635 32 16Z" fill="#0052B4"/>
<path d="M15.9994 0C15.9989 0 15.9983 4.29688e-05 15.9977 4.29688e-05L15.9994 0Z" fill="#F0F0F0"/>
<path d="M15.9568 15.9998H15.9996C15.9996 15.9853 15.9996 15.9715 15.9996 15.957C15.9853 15.9713 15.9711 15.9856 15.9568 15.9998Z" fill="#F0F0F0"/>
<path d="M16 8.34785C16 5.53254 16 3.68773 16 4.57764e-05H15.9973C7.162 0.00148328 0 7.16429 0 16H8.34781V11.2992L13.0486 16H15.9572C15.9716 15.9857 15.9858 15.9715 16.0001 15.9572C16.0001 14.8792 16.0001 13.9174 16.0001 13.0487L11.2992 8.34785H16Z" fill="#F0F0F0"/>
<path d="M8.09479 2.08691C5.59235 3.51185 3.51197 5.59223 2.08704 8.09467V16H6.26098V6.26092V6.26086H16.0001C16.0001 4.94442 16.0001 3.69029 16.0001 2.08691H8.09479Z" fill="#D80027"/>
<path d="M16.0003 14.0322L10.3157 8.34768H8.34814C8.34814 8.34762 8.34814 8.34768 8.34814 8.34768L16.0002 15.9997H16.0003C16.0003 15.9997 16.0003 14.6432 16.0003 14.0322Z" fill="#D80027"/>
<path d="M9.64984 18.7827L10.528 20.6188L12.5109 20.1605L11.6229 21.9919L13.2175 23.2564L11.2321 23.7039L11.2377 25.7392L9.64984 24.4659L8.06209 25.7392L8.06765 23.7039L6.08215 23.2564L7.67684 21.9919L6.78872 20.1605L8.77178 20.6188L9.64984 18.7827Z" fill="#F0F0F0"/>
<path d="M23.9557 22.2607L24.3948 23.1788L25.3863 22.9496L24.9422 23.8653L25.7396 24.4976L24.7468 24.7214L24.7496 25.739L23.9557 25.1023L23.1618 25.739L23.1646 24.7214L22.1719 24.4976L22.9692 23.8653L22.5252 22.9496L23.5166 23.1788L23.9557 22.2607Z" fill="#F0F0F0"/>
<path d="M19.8707 12.522L20.3097 13.4401L21.3012 13.2108L20.8572 14.1265L21.6545 14.7588L20.6618 14.9826L20.6645 16.0002L19.8707 15.3635L19.0768 16.0002L19.0795 14.9826L18.0868 14.7588L18.8841 14.1265L18.4401 13.2108L19.4316 13.4401L19.8707 12.522Z" fill="#F0F0F0"/>
<path d="M23.9557 6.95654L24.3948 7.87467L25.3863 7.64548L24.9423 8.56117L25.7395 9.19342L24.7468 9.41723L24.7496 10.4349L23.9557 9.79817L23.1618 10.4349L23.1646 9.41723L22.1719 9.19342L22.9691 8.56117L22.5252 7.64548L23.5166 7.87467L23.9557 6.95654Z" fill="#F0F0F0"/>
<path d="M27.5233 11.1304L27.9623 12.0485L28.9538 11.8192L28.5098 12.7349L29.3071 13.3672L28.3143 13.5911L28.3171 14.6086L27.5233 13.972L26.7294 14.6086L26.7321 13.5911L25.7394 13.3672L26.5367 12.7349L26.0927 11.8192L27.0841 12.0485L27.5233 11.1304Z" fill="#F0F0F0"/>
<path d="M24.972 16L25.3173 17.0629H26.435L25.5308 17.7199L25.8762 18.7827L24.972 18.1258L24.0679 18.7827L24.4132 17.7199L23.509 17.0629H24.6266L24.972 16Z" fill="#F0F0F0"/>
</svg>
