<svg width="32" height="32" viewBox="0 0 32 32" fill="none" xmlns="http://www.w3.org/2000/svg">
<g clip-path="url(#clip0_16_11914)">
<path d="M16 32C24.8366 32 32 24.8366 32 16C32 7.16344 24.8366 0 16 0C7.16344 0 0 7.16344 0 16C0 24.8366 7.16344 32 16 32Z" fill="#F0F0F0"/>
<path d="M21.1964 11.8262H19.103C19.1204 12.0563 19.1302 12.2884 19.1302 12.5219C19.1302 14.0696 18.7433 15.5698 18.0688 16.6377C17.8608 16.967 17.5112 17.4322 17.0432 17.7459V11.8262H14.9562V17.7459C14.4883 17.4322 14.1386 16.9671 13.9305 16.6377C13.256 15.5698 12.8692 14.0696 12.8692 12.5219C12.8692 12.2884 12.8791 12.0562 12.8964 11.8262H10.803C10.7895 12.0552 10.7822 12.287 10.7822 12.5219C10.7822 16.8129 13.074 20.174 15.9996 20.174C18.9252 20.174 21.217 16.8129 21.217 12.5219C21.2171 12.287 21.2098 12.0552 21.1964 11.8262V11.8262Z" fill="#D80027"/>
<path d="M6.60895 7.65219H8.69589V9.0435H10.7828V7.65219H12.8698V9.0435H14.9567V7.65219H17.0436V9.0435H19.1306V7.65219H21.2175V9.0435H23.3044V7.65219H25.3914V9.0435H30.4124C27.8246 3.69156 22.3436 0 16.0003 0C9.65695 0 4.17589 3.69156 1.58789 9.0435H6.60895V7.65219Z" fill="#6DA544"/>
<path d="M25.3916 22.9565V24.3479H23.3046V22.9565H21.2177V24.3479H19.1308V22.9565H17.0438V24.3479H14.9569V22.9565H12.8699V24.3479H10.783V22.9565H8.69589V24.3479H6.60895V22.9565H1.58789C4.17589 28.3085 9.65689 32 16.0003 32C22.3436 32 27.8246 28.3085 30.4126 22.9565H25.3916Z" fill="#D80027"/>
</g>
<defs>
<clipPath id="clip0_16_11914">
<rect width="32" height="32" fill="white"/>
</clipPath>
</defs>
</svg>
