<svg width="32" height="32" viewBox="0 0 32 32" fill="none" xmlns="http://www.w3.org/2000/svg">
<g clip-path="url(#clip0_16_11334)">
<path d="M32 16.0001C32 14.043 31.648 12.1682 31.0048 10.4349L16 9.73926L0.995188 10.4349C0.352063 12.1682 0 14.043 0 16.0001C0 17.9573 0.352063 19.8321 0.995188 21.5653L16 22.261L31.0048 21.5654C31.648 19.8321 32 17.9573 32 16.0001Z" fill="#496E2D"/>
<path d="M16.0004 32.0002C22.8798 32.0002 28.7445 27.6582 31.0052 21.5654H0.995605C3.25629 27.6582 9.12098 32.0002 16.0004 32.0002Z" fill="#D80027"/>
<path d="M0.995605 10.4348H31.0053C28.7445 4.342 22.8799 0 16.0004 0C9.12098 0 3.25629 4.342 0.995605 10.4348V10.4348Z" fill="#F0F0F0"/>
</g>
<defs>
<clipPath id="clip0_16_11334">
<rect width="32" height="32" fill="white"/>
</clipPath>
</defs>
</svg>
