<svg width="32" height="32" viewBox="0 0 32 32" fill="none" xmlns="http://www.w3.org/2000/svg">
<path d="M32 16C32 24.8365 24.8365 32 16.0001 32C7.1635 32 0 24.8365 0 16C0 16.0038 16.0001 0.00175 16.0001 0C24.8365 0 32 7.1635 32 16Z" fill="#338AF3"/>
<path d="M7.65234 16.0002H13.0487L8.34797 10.435L7.65234 12.5219V16.0002Z" fill="#0052B4"/>
<path d="M15.9998 13.0488L10.4346 7.65234H15.9998L15.9998 13.0488Z" fill="#0052B4"/>
<path d="M15.957 15.9998H15.9998C15.9998 15.9855 15.9998 15.9715 15.9998 15.957C15.9856 15.9713 15.9713 15.9856 15.957 15.9998Z" fill="#F0F0F0"/>
<path d="M16.0001 8.34781C16.0001 5.5325 16.0001 3.68775 16.0001 0H15.9974C7.162 0.0015 0 7.16431 0 16H8.34787V11.2993L13.0486 16H15.9573C15.9716 15.9857 15.9858 15.9715 16.0001 15.9572C16.0001 14.8793 16.0001 13.9174 16.0001 13.0486L11.2992 8.34781H16.0001Z" fill="#F0F0F0"/>
<path d="M8.09467 2.08694C5.59223 3.51188 3.51185 5.59226 2.08691 8.0947V16H6.26086V6.26101V6.26089H16C16 4.94445 16 3.69032 16 2.08694H8.09467Z" fill="#D80027"/>
<path d="M15.9998 14.0322L10.3152 8.34769H8.34766V8.34781L15.9997 15.9998H15.9998C15.9998 15.9998 15.9998 14.6431 15.9998 14.0322V14.0322Z" fill="#D80027"/>
<path d="M17.4629 26.4346L17.8083 27.4975H18.9258L18.0217 28.1544L18.3671 29.2172L17.4629 28.5604L16.5588 29.2172L16.9042 28.1544L16 27.4975H17.1175L17.4629 26.4346Z" fill="#FFDA44"/>
<path d="M26.3633 19.4781L26.7086 20.5409H27.8262L26.9221 21.1979L27.2676 22.2607L26.3633 21.6039L25.4593 22.2607L25.8046 21.1979L24.9004 20.5409H26.018L26.3633 19.4781Z" fill="#FFDA44"/>
<path d="M28.5937 9.0435L28.9391 10.1064H30.0567L29.1526 10.7633L29.4979 11.8261L28.5937 11.1693L27.6897 11.8261L28.035 10.7633L27.1309 10.1064H28.2484L28.5937 9.0435Z" fill="#FFDA44"/>
<path d="M29.1456 16.6958L29.4909 17.7588H30.6084L29.7044 18.4157L30.0497 19.4785L29.1456 18.8217L28.2415 19.4785L28.5869 18.4157L27.6826 17.7588H28.8002L29.1456 16.6958Z" fill="#FFDA44"/>
<path d="M19.065 23.9351L20.0609 24.4426L20.8511 23.6524L20.6764 24.7561L21.672 25.2635L20.5682 25.4383L20.3934 26.5421L19.8861 25.5463L18.7822 25.7213L19.5724 24.9311L19.065 23.9351Z" fill="#FFDA44"/>
<path d="M19.065 19.7609L20.0609 20.2683L20.8511 19.4781L20.6764 20.5818L21.672 21.0891L20.5682 21.264L20.3934 22.3678L19.8861 21.3721L18.7822 21.5469L19.5724 20.7568L19.065 19.7609Z" fill="#FFDA44"/>
<path d="M22.5435 22.4366L23.5394 22.944L24.3296 22.1539L24.1549 23.2575L25.1506 23.7649L24.0467 23.9398L23.8719 25.0436L23.3646 24.0477L22.2607 24.2227L23.0509 23.4325L22.5435 22.4366Z" fill="#FFDA44"/>
<path d="M22.5435 13.5001L23.5394 14.0075L24.3296 13.2173L24.1549 14.3211L25.1506 14.8284L24.0467 15.0033L23.8719 16.1071L23.3646 15.1113L22.2607 15.2862L23.0509 14.496L22.5435 13.5001Z" fill="#FFDA44"/>
<path d="M25.9146 13.3932L26.9105 13.9006L27.7007 13.1104L27.5259 14.2141L28.5217 14.7215L27.4178 14.8963L27.243 16.0001L26.7357 15.0044L25.6318 15.1793L26.422 14.3891L25.9146 13.3932Z" fill="#FFDA44"/>
</svg>
