<svg width="32" height="32" viewBox="0 0 32 32" fill="none" xmlns="http://www.w3.org/2000/svg">
<path d="M16 32C24.8366 32 32 24.8366 32 16C32 7.16344 24.8366 0 16 0C7.16344 0 0 7.16344 0 16C0 24.8366 7.16344 32 16 32Z" fill="#338AF3"/>
<path d="M15.9991 6.95654L16.6897 9.08229H18.9249L17.1167 10.3961L17.8073 12.5218L15.9991 11.208L14.1907 12.5218L14.8816 10.3961L13.0732 9.08229H15.3084L15.9991 6.95654Z" fill="#F0F0F0"/>
<path d="M6.95605 16.0002L9.0818 15.3094V13.0742L10.3956 14.8825L12.5213 14.1919L11.2076 16.0002L12.5213 17.8083L10.3956 17.1175L9.0818 18.9259V16.6907L6.95605 16.0002Z" fill="#F0F0F0"/>
<path d="M15.9992 25.0438L15.3085 22.918H13.0732L14.8816 21.6042L14.1909 19.4785L15.9992 20.7923L17.8074 19.4785L17.1166 21.6042L18.9249 22.918H16.6898L15.9992 25.0438Z" fill="#F0F0F0"/>
<path d="M25.0428 16L22.917 16.6907V18.9259L21.6032 17.1176L19.4775 17.8083L20.7913 16L19.4775 14.1918L21.6032 14.8826L22.917 13.0742V15.3094L25.0428 16Z" fill="#F0F0F0"/>
</svg>
