<svg width="32" height="32" viewBox="0 0 32 32" fill="none" xmlns="http://www.w3.org/2000/svg">
<g clip-path="url(#clip0_16_12496)">
<path d="M8.6734 30.228L20.4274 20.4275L30.2279 8.67346C28.7042 5.72046 26.2881 3.30303 23.3363 1.77734L11.5729 11.573L1.77734 23.3363C3.3029 26.2882 5.72034 28.7042 8.6734 30.228V30.228Z" fill="#FFDA44"/>
<path d="M27.3137 27.3141C32.3616 22.2662 33.3306 14.6852 30.2228 8.66357L8.66309 30.2233C14.6847 33.331 22.2658 32.3619 27.3137 27.3141Z" fill="#D80027"/>
<path d="M4.68582 4.68578C-0.362049 9.73365 -1.33105 17.3148 1.77664 23.3364L23.3364 1.77666C17.3148 -1.33115 9.73369 -0.362029 4.68582 4.68578V4.68578Z" fill="#6DA544"/>
</g>
<defs>
<clipPath id="clip0_16_12496">
<rect width="32" height="32" fill="white"/>
</clipPath>
</defs>
</svg>
