<svg width="32" height="32" viewBox="0 0 32 32" fill="none" xmlns="http://www.w3.org/2000/svg">
<g clip-path="url(#clip0_16_11659)">
<path d="M16 32C24.8366 32 32 24.8366 32 16C32 7.16344 24.8366 0 16 0C7.16344 0 0 7.16344 0 16C0 24.8366 7.16344 32 16 32Z" fill="#F0F0F0"/>
<path d="M9.73883 10.4348H31.0044C28.7438 4.342 22.8791 0 15.9997 0C11.5813 0 7.58177 1.79119 4.68652 4.68681L9.73883 10.4348Z" fill="#6DA544"/>
<path d="M9.73883 21.5654H31.0044C28.7438 27.6582 22.8791 32.0002 15.9997 32.0002C11.5813 32.0002 7.58177 30.2091 4.68652 27.3134L9.73883 21.5654Z" fill="#D80027"/>
<path d="M4.68628 4.68604C-1.56209 10.9344 -1.56209 21.0651 4.68628 27.3135C7.26834 24.7315 9.75165 22.2482 16 15.9998L4.68628 4.68604Z" fill="#0052B4"/>
<path d="M18.7822 13.2173V16.6955C18.7822 18.8255 21.5649 19.4782 21.5649 19.4782C21.5649 19.4782 24.3475 18.8255 24.3475 16.6955V13.2173H18.7822Z" fill="#DEDDE0"/>
<path d="M20.8691 16.0693H22.2605V18.0867H20.8691V16.0693Z" fill="#786145"/>
<path d="M22.9568 15.3044C22.9568 14.536 22.3339 13.9131 21.5655 13.9131C20.797 13.9131 20.1741 14.536 20.1741 15.3044C19.79 15.3044 19.4785 15.6158 19.4785 16C19.4785 16.3842 19.79 16.6957 20.1741 16.6957H22.9568C23.341 16.6957 23.6524 16.3842 23.6524 16C23.6524 15.6158 23.341 15.3044 22.9568 15.3044V15.3044Z" fill="#6DA544"/>
</g>
<defs>
<clipPath id="clip0_16_11659">
<rect width="32" height="32" fill="white"/>
</clipPath>
</defs>
</svg>
