<svg width="32" height="32" viewBox="0 0 32 32" fill="none" xmlns="http://www.w3.org/2000/svg">
<g clip-path="url(#clip0_16_11962)">
<path d="M16 32C24.8366 32 32 24.8366 32 16C32 7.16344 24.8366 0 16 0C7.16344 0 0 7.16344 0 16C0 24.8366 7.16344 32 16 32Z" fill="#F0F0F0"/>
<path d="M9.73895 10.4348H31.0046C28.7439 4.342 22.8792 0 15.9998 0C11.5815 0 7.58189 1.79119 4.68665 4.68681L9.73895 10.4348Z" fill="black"/>
<path d="M9.73895 21.5654H31.0046C28.7439 27.6582 22.8792 32.0002 15.9998 32.0002C11.5815 32.0002 7.58189 30.2091 4.68665 27.3134L9.73895 21.5654Z" fill="#6DA544"/>
<path d="M4.68628 4.68604C-1.56209 10.9344 -1.56209 21.0651 4.68628 27.3135C7.26834 24.7315 9.75165 22.2482 16 15.9998L4.68628 4.68604Z" fill="#D80027"/>
<path d="M6.3504 12.522L7.22846 14.3582L9.21152 13.8998L8.3234 15.7312L9.91808 16.9958L7.93265 17.4432L7.93815 19.4785L6.3504 18.2052L4.76259 19.4785L4.76815 17.4432L2.78271 16.9958L4.37734 15.7312L3.48934 13.8998L5.47227 14.3582L6.3504 12.522Z" fill="#F0F0F0"/>
</g>
<defs>
<clipPath id="clip0_16_11962">
<rect width="32" height="32" fill="white"/>
</clipPath>
</defs>
</svg>
