<svg width="32" height="32" viewBox="0 0 32 32" fill="none" xmlns="http://www.w3.org/2000/svg">
<g clip-path="url(#clip0_16_11207)">
<path d="M27.3137 27.3137C21.0653 33.5621 10.9347 33.5621 4.68628 27.3137C-1.56209 21.0654 -1.56209 10.9347 4.68628 4.68625C4.68853 4.68625 19.0649 0.43832 25.3133 6.68669C31.5618 12.9351 27.318 27.3094 27.3137 27.3137Z" fill="#FFDA44"/>
<path d="M27.3135 27.3138C33.5618 21.0654 33.5618 10.9348 27.3135 4.68631C21.0651 -1.56213 10.9345 -1.56207 4.68604 4.68631L27.3135 27.3138Z" fill="#D80027"/>
<path d="M20.1823 20.184C19.525 20.4421 18.7613 20.4147 18.0988 20.0429C16.9281 19.3859 16.5103 17.8988 17.1675 16.728L16.968 16.6161C18.9724 16.1328 20.4553 14.3134 20.4293 12.1664C20.4132 10.8316 19.8168 9.63744 18.8838 8.82031L17.423 10.3169C17.9753 10.7571 18.3333 11.4322 18.3425 12.1917C18.3588 13.5342 17.2799 14.6397 15.9375 14.6559L15.9403 14.8844C14.5195 13.3903 12.2025 13.0157 10.3561 14.1117C9.20827 14.7932 8.47239 15.9067 8.23108 17.1233L10.2576 17.6402C10.3626 16.9418 10.7682 16.2942 11.4214 15.9064C12.5758 15.2211 14.0726 15.6028 14.7579 16.7572L14.9546 16.6405C14.371 18.6179 15.2051 20.8118 17.0775 21.8628C18.2416 22.5162 19.5739 22.5967 20.7481 22.1974L20.1823 20.184ZM15.9543 16.0469L15.9541 16.0469L15.9543 16.0469Z" fill="#FF9811"/>
<path d="M21.924 10.8362L20.7932 14.8719L17.4 14.2454L15.2159 9.74316L9.31546 11.837L8.85015 10.5257L7.3064 10.3355L8.46958 13.6136L12.5301 12.5751L13.6841 15.8269L10.8771 19.9695L15.6407 24.0324L14.7377 25.0909L15.3449 26.5231L17.6023 23.8766L14.6727 20.8793L16.9118 18.2541L21.903 18.6137L23.0398 12.4569L24.408 12.7095L25.3448 11.4677L21.924 10.8362ZM15.9987 16.1088V16.1089V16.1088Z" fill="#FFEACF"/>
</g>
<defs>
<clipPath id="clip0_16_11207">
<rect width="32" height="32" fill="white"/>
</clipPath>
</defs>
</svg>
