<svg width="32" height="32" viewBox="0 0 32 32" fill="none" xmlns="http://www.w3.org/2000/svg">
<path d="M32 16C32 24.8365 24.8365 32 16 32C7.1635 32 0 24.8365 0 16C0 16.0038 16 0.00175 16 0C24.8365 0 32 7.1635 32 16Z" fill="#0052B4"/>
<path d="M15.957 15.9998H15.9998C15.9998 15.9855 15.9998 15.9715 15.9998 15.957C15.9856 15.9713 15.9713 15.9856 15.957 15.9998Z" fill="#F0F0F0"/>
<path d="M16 8.34781C16 5.5325 16 3.68781 16 0H15.9973C7.16194 0.0015 0 7.16431 0 16H8.34781V11.2993L13.0485 16H15.9572C15.9715 15.9857 15.9858 15.9715 16.0001 15.9572C16.0001 14.8793 16.0001 13.9174 16.0001 13.0486L11.2992 8.34781H16Z" fill="#F0F0F0"/>
<path d="M22.9565 11.826C24.4933 11.826 25.7391 10.5802 25.7391 9.04337C25.7391 7.50657 24.4933 6.26074 22.9565 6.26074C21.4197 6.26074 20.1738 7.50657 20.1738 9.04337C20.1738 10.5802 21.4197 11.826 22.9565 11.826Z" fill="#6DA544"/>
<path d="M8.09467 2.08694C5.59223 3.51188 3.51179 5.59225 2.08691 8.09469V16H6.26086V6.261V6.26088H16C16 4.94444 16 3.69031 16 2.08694H8.09467Z" fill="#D80027"/>
<path d="M15.9998 14.0322L10.3152 8.34768H8.34766V8.3478L15.9997 15.9998H15.9998C15.9998 15.9998 15.9998 14.6431 15.9998 14.0322V14.0322Z" fill="#D80027"/>
<path d="M18.0869 8.34768H27.826V12.5216H18.0869V8.34768Z" fill="#D80027"/>
<path d="M18.0869 18.7826V21.5652H19.5509C20.4287 22.4255 21.6303 22.9566 22.9565 22.9566C24.2827 22.9566 25.4842 22.4255 26.362 21.5652H26.4347H27.826V18.7826H18.0869Z" fill="#FFDA44"/>
<path d="M18.0869 11.8262V16.0001C18.0869 19.7275 22.9565 20.8697 22.9565 20.8697C22.9565 20.8697 27.826 19.7275 27.826 16.0001V11.8262H18.0869Z" fill="#338AF3"/>
<path d="M22.9562 14.0557C21.7389 14.0557 21.7389 15.1687 20.5215 15.1687C19.3042 15.1687 19.3042 14.0557 18.0869 14.0557V16.0035C19.3042 16.0035 19.3042 17.1165 20.5215 17.1165C21.7389 17.1165 21.7389 16.0035 22.9562 16.0035C24.1736 16.0035 24.1736 17.1165 25.3911 17.1165C26.6086 17.1165 26.6085 16.0035 27.826 16.0035V14.0557C26.6086 14.0557 26.6086 15.1687 25.3911 15.1687C24.1736 15.1687 24.1736 14.0557 22.9562 14.0557V14.0557Z" fill="#F3F3F3"/>
<path d="M22.9562 10.1567C21.7389 10.1567 21.7389 11.2698 20.5215 11.2698C19.3042 11.2698 19.3042 10.1567 18.0869 10.1567V12.1046C19.3042 12.1046 19.3042 13.2176 20.5215 13.2176C21.7389 13.2176 21.7389 12.1046 22.9562 12.1046C24.1736 12.1046 24.1736 13.2176 25.3911 13.2176C26.6086 13.2176 26.6085 12.1046 27.826 12.1046V10.1567C26.6086 10.1567 26.6086 11.2698 25.3911 11.2698C24.1736 11.2698 24.1736 10.1567 22.9562 10.1567Z" fill="#F3F3F3"/>
</svg>
