<svg width="32" height="32" viewBox="0 0 32 32" fill="none" xmlns="http://www.w3.org/2000/svg">
<path d="M16 32C24.8366 32 32 24.8366 32 16C32 7.16344 24.8366 0 16 0C7.16344 0 0 7.16344 0 16C0 24.8366 7.16344 32 16 32Z" fill="#FFDA44"/>
<path d="M18.433 31.8161C21.0353 31.4191 23.4306 30.3943 25.4615 28.9024L15.9998 16L18.433 31.8161Z" fill="#D80027"/>
<path d="M13.5669 0.184082C10.9647 0.581082 8.56933 1.60583 6.53833 3.09765L16.0002 16.0002L13.5669 0.184082Z" fill="#D80027"/>
<path d="M6.53845 28.9024C8.56933 30.3943 10.9647 31.419 13.5669 31.8161L16.0003 16L6.53845 28.9024Z" fill="#D80027"/>
<path d="M3.09777 6.53809C1.60589 8.56909 0.581267 10.9644 0.184204 13.5666L16.0003 16L3.09777 6.53809Z" fill="#D80027"/>
<path d="M0.184204 18.4333C0.581204 21.0355 1.60596 23.4309 3.09783 25.4618L16.0003 16L0.184204 18.4333Z" fill="#D80027"/>
<path d="M31.8158 13.5666C31.4188 10.9644 30.3941 8.56903 28.9022 6.53809L15.9998 15.9999L31.8158 13.5666Z" fill="#D80027"/>
<path d="M25.4615 3.09758C23.4306 1.60577 21.0353 0.581082 18.433 0.184082L15.9998 16.0002L25.4615 3.09758Z" fill="#D80027"/>
<path d="M28.9023 25.4618C30.3941 23.4309 31.4188 21.0354 31.8159 18.4333L15.9998 16L28.9023 25.4618Z" fill="#D80027"/>
<path d="M16.0005 21.5654C19.0741 21.5654 21.5657 19.0738 21.5657 16.0002C21.5657 12.9267 19.0741 10.4351 16.0005 10.4351C12.9269 10.4351 10.4353 12.9267 10.4353 16.0002C10.4353 19.0738 12.9269 21.5654 16.0005 21.5654Z" fill="#D80027"/>
<path d="M15.9995 20.174C18.3047 20.174 20.1734 18.3053 20.1734 16.0001C20.1734 13.6949 18.3047 11.8262 15.9995 11.8262C13.6943 11.8262 11.8256 13.6949 11.8256 16.0001C11.8256 18.3053 13.6943 20.174 15.9995 20.174Z" fill="#FFDA44"/>
</svg>
