<svg width="32" height="32" viewBox="0 0 32 32" fill="none" xmlns="http://www.w3.org/2000/svg">
<g clip-path="url(#clip0_16_11483)">
<path d="M16 32C24.8366 32 32 24.8366 32 16C32 7.16344 24.8366 0 16 0C7.16344 0 0 7.16344 0 16C0 24.8366 7.16344 32 16 32Z" fill="#F0F0F0"/>
<path d="M31.9995 15.9537H14.6551C11.2116 19.3973 9.12918 22.0559 7.00293 24.1821L16.0464 24.9971L30.0798 23.6058C31.3045 21.3436 32.0001 18.7531 32.0001 16C32.0001 15.9845 31.9995 15.9692 31.9995 15.9537V15.9537Z" fill="#D80027"/>
<path d="M7.00265 8.3015H30.0284C27.3073 3.3535 22.0454 0 15.9997 0C11.5931 0 7.6034 1.78194 4.70996 4.664L7.00265 8.3015Z" fill="#FFDA44"/>
<path d="M7.699 23.606C6.26063 25.0443 5.70475 26.2495 4.66406 27.2901C7.56125 30.1993 11.5703 32.0001 16.0004 32.0001C22.084 32.0001 27.3742 28.6048 30.0803 23.606H7.699Z" fill="#0052B4"/>
<path d="M4.68628 4.64014C-1.56209 10.8885 -1.56209 21.0192 4.68628 27.2676C7.26834 24.6856 9.75165 22.2022 16 15.9539L4.68628 4.64014Z" fill="#6DA544"/>
<path d="M4.22079 15.9535C4.22079 13.6224 5.85911 11.675 8.04686 11.1972C7.71061 11.1238 7.36173 11.084 7.00336 11.084C4.31392 11.084 2.13379 13.2641 2.13379 15.9535C2.13379 18.643 4.31392 20.8231 7.00336 20.8231C7.36167 20.8231 7.71054 20.7833 8.04686 20.7099C5.85911 20.232 4.22079 18.2847 4.22079 15.9535V15.9535Z" fill="#F0F0F0"/>
<path d="M7.9927 11.7798L8.25176 12.5769H9.08988L8.41176 13.0696L8.67082 13.8667L7.9927 13.3741L7.31457 13.8667L7.57363 13.0696L6.89551 12.5769H7.73363L7.9927 11.7798Z" fill="#F0F0F0"/>
<path d="M7.9927 13.8667L8.25176 14.6639H9.08988L8.41176 15.1565L8.67082 15.9537L7.9927 15.461L7.31457 15.9537L7.57363 15.1565L6.89551 14.6639H7.73363L7.9927 13.8667Z" fill="#F0F0F0"/>
<path d="M7.9927 15.9536L8.25176 16.7507H9.08988L8.41176 17.2434L8.67082 18.0405L7.9927 17.5479L7.31457 18.0405L7.57363 17.2434L6.89551 16.7507H7.73363L7.9927 15.9536Z" fill="#F0F0F0"/>
<path d="M7.9927 18.0405L8.25176 18.8377H9.08988L8.41176 19.3303L8.67082 20.1275L7.9927 19.6348L7.31457 20.1275L7.57363 19.3303L6.89551 18.8377H7.73363L7.9927 18.0405Z" fill="#F0F0F0"/>
</g>
<defs>
<clipPath id="clip0_16_11483">
<rect width="32" height="32" fill="white"/>
</clipPath>
</defs>
</svg>
