<svg width="32" height="32" viewBox="0 0 32 32" fill="none" xmlns="http://www.w3.org/2000/svg">
<path d="M16 32C24.8366 32 32 24.8366 32 16C32 7.16344 24.8366 0 16 0C7.16344 0 0 7.16344 0 16C0 24.8366 7.16344 32 16 32Z" fill="#D80027"/>
<path d="M25.0437 11.8753H19.2484C19.6061 11.5007 19.8263 10.9935 19.8263 10.4346C19.8263 9.28203 18.8919 8.34766 17.7394 8.34766C17.0132 8.34766 16.374 8.71866 16.0002 9.28122C15.6264 8.71866 14.9872 8.34766 14.2611 8.34766C13.1085 8.34766 12.1742 9.28203 12.1742 10.4346C12.1742 10.9935 12.3944 11.5008 12.7521 11.8753H6.95679C6.95679 13.4122 8.29535 14.6579 9.83204 14.6579H9.73929C9.73929 16.1948 10.9851 17.4406 12.522 17.4406C12.522 17.9384 12.6532 18.405 12.8822 18.809L10.574 21.1172L12.3449 22.8879L14.8569 20.376C14.9553 20.412 15.0571 20.441 15.1622 20.4607L13.6443 23.8879L16.0002 26.4346L18.3562 23.8877L16.8382 20.4605C16.9434 20.4409 17.0452 20.412 17.1435 20.3759L19.6555 22.8878L21.4264 21.117L19.1182 18.8088C19.3473 18.4049 19.4785 17.9382 19.4785 17.4404C21.0153 17.4404 22.2611 16.1947 22.2611 14.6577H22.1684C23.7051 14.6579 25.0437 13.4122 25.0437 11.8753V11.8753Z" fill="black"/>
</svg>
