<svg width="32" height="32" viewBox="0 0 32 32" fill="none" xmlns="http://www.w3.org/2000/svg">
<path d="M16 32C24.8366 32 32 24.8366 32 16C32 7.16344 24.8366 0 16 0C7.16344 0 0 7.16344 0 16C0 24.8366 7.16344 32 16 32Z" fill="#D80027"/>
<path d="M5.56543 8.34766H26.435V23.652H5.56543V8.34766Z" fill="#6DA544"/>
<path d="M18.5764 20.5216C16.0792 20.5216 14.0547 18.4971 14.0547 15.9998C14.0547 13.5026 16.0792 11.4781 18.5764 11.4781C19.355 11.4781 20.0877 11.6749 20.7273 12.0216C19.7239 11.0403 18.3517 10.4346 16.8373 10.4346C13.7638 10.4346 11.2721 12.9262 11.2721 15.9998C11.2721 19.0733 13.7638 21.5649 16.8373 21.5649C18.3517 21.5649 19.724 20.9593 20.7273 19.9779C20.0877 20.3247 19.355 20.5216 18.5764 20.5216Z" fill="#F0F0F0"/>
</svg>
