<svg width="32" height="32" viewBox="0 0 32 32" fill="none" xmlns="http://www.w3.org/2000/svg">
<path d="M0 16C0 7.1635 7.1635 0 16 0C24.8365 0 32 7.1635 32 16" fill="#D80027"/>
<path d="M21.5649 14.88L19.2909 15.9496L20.5019 18.152L18.0326 17.6796L17.7197 20.1741L15.9998 18.3394L14.2798 20.1741L13.9669 17.6796L11.4976 18.1519L12.7086 15.9496L10.4346 14.88L12.7086 13.8102L11.4976 11.6081L13.9669 12.0803L14.2798 9.58594L15.9998 11.4205L17.7198 9.58594L18.0326 12.0803L20.5019 11.6081L19.2911 13.8104L21.5649 14.88Z" fill="#FFDA44"/>
<path d="M20.174 5.21733H17.0436C17.0436 4.64114 16.5764 4.17383 16.0001 4.17383C15.4239 4.17383 14.9566 4.64108 14.9566 5.21733H11.8262C11.8262 5.79358 12.3282 6.26083 12.9044 6.26083H12.8696C12.8696 6.83708 13.3367 7.30433 13.9131 7.30433C13.9131 7.88058 14.3802 8.34783 14.9566 8.34783H17.0435C17.6197 8.34783 18.087 7.88064 18.087 7.30433C18.6632 7.30433 19.1305 6.83714 19.1305 6.26083H19.0957C19.672 6.26083 20.174 5.79364 20.174 5.21733V5.21733Z" fill="#FFDA44"/>
<path d="M32 16C32 24.8365 24.8365 32 16 32C7.1635 32 0 24.8365 0 16H32Z" fill="#F0F0F0"/>
<path d="M15.9999 31.9996C21.0013 31.9996 25.4659 29.7044 28.4 26.1104C27.8723 25.7506 27.5874 25.1689 26.6664 25.1689C25.333 25.1689 25.333 26.3881 23.9998 26.3881C22.6665 26.3881 22.6665 25.1689 21.3332 25.1689C19.9999 25.1689 19.9999 26.3881 18.6665 26.3881C17.3332 26.3881 17.3331 25.1689 15.9997 25.1689C14.6664 25.1689 14.6664 26.3881 13.3331 26.3881C12 26.3881 12 25.1689 10.6667 25.1689C9.33323 25.1689 9.33323 26.3881 7.9998 26.3881C6.66636 26.3881 6.66636 25.1689 5.33292 25.1689C4.41205 25.1689 4.12711 25.7504 3.59961 26.1103C6.53361 29.7044 10.9985 31.9996 15.9999 31.9996V31.9996Z" fill="#0052B4"/>
<path d="M29.3328 18.0404C27.9995 18.0404 27.9995 16.8213 26.6661 16.8213C25.3328 16.8213 25.3328 18.0404 23.9996 18.0404C22.6663 18.0404 22.6662 16.8213 21.333 16.8213C19.9997 16.8213 19.9997 18.0404 18.6663 18.0404C17.3329 18.0404 17.3329 16.8213 15.9994 16.8213C14.6661 16.8213 14.6661 18.0404 13.3329 18.0404C11.9998 18.0404 11.9998 16.8213 10.6664 16.8213C9.333 16.8213 9.333 18.0404 7.99957 18.0404C6.66613 18.0404 6.66613 16.8213 5.33269 16.8213C3.99957 16.8213 3.99957 18.0404 2.66626 18.0404C1.34013 18.0404 1.33244 16.8347 0.0205078 16.8219C0.0574453 17.5537 0.14482 18.2722 0.276945 18.9749C1.33969 19.131 1.43276 20.1737 2.66632 20.1737C3.99963 20.1737 3.99963 18.9547 5.33276 18.9547C6.66619 18.9547 6.66619 20.1737 7.99963 20.1737C9.33307 20.1737 9.33307 18.9547 10.6665 18.9547C11.9998 18.9547 11.9998 20.1737 13.3329 20.1737C14.6663 20.1737 14.6663 18.9547 15.9995 18.9547C17.3329 18.9547 17.3329 20.1737 18.6664 20.1737C19.9998 20.1737 19.9998 18.9547 21.3331 18.9547C22.6664 18.9547 22.6664 20.1737 23.9996 20.1737C25.3329 20.1737 25.3329 18.9547 26.6662 18.9547C27.9996 18.9547 27.9996 20.1737 29.3329 20.1737C30.5666 20.1737 30.6596 19.1311 31.7224 18.9749C31.8546 18.2722 31.9419 17.5538 31.979 16.8219C30.6668 16.8349 30.659 18.0404 29.3328 18.0404V18.0404Z" fill="#0052B4"/>
<path d="M26.6657 20.9951C25.3324 20.9951 25.3324 22.2142 23.9991 22.2142C22.6659 22.2142 22.6658 20.9951 21.3326 20.9951C19.9993 20.9951 19.9993 22.2142 18.6659 22.2142C17.3325 22.2142 17.3325 20.9951 15.999 20.9951C14.6657 20.9951 14.6657 22.2142 13.3325 22.2142C11.9993 22.2142 11.9993 20.9951 10.666 20.9951C9.33258 20.9951 9.33258 22.2142 7.99914 22.2142C6.6657 22.2142 6.6657 20.9951 5.33227 20.9951C3.99914 20.9951 3.99914 22.2142 2.66583 22.2142C1.71314 22.2142 1.44102 21.592 0.876953 21.2365C1.25245 22.3214 1.74095 23.3535 2.32927 24.3182C2.43158 24.3371 2.54295 24.3476 2.66583 24.3476C3.99914 24.3476 3.99914 23.1286 5.33227 23.1286C6.6657 23.1286 6.6657 24.3476 7.99914 24.3476C9.33258 24.3476 9.33258 23.1286 10.666 23.1286C11.9993 23.1286 11.9993 24.3476 13.3325 24.3476C14.6658 24.3476 14.6658 23.1286 15.999 23.1286C17.3325 23.1286 17.3325 24.3476 18.6659 24.3476C19.9993 24.3476 19.9993 23.1286 21.3326 23.1286C22.6659 23.1286 22.6659 24.3476 23.9991 24.3476C25.3324 24.3476 25.3325 23.1286 26.6657 23.1286C27.9991 23.1286 27.9991 24.3476 29.3324 24.3476C29.4554 24.3476 29.5668 24.3371 29.6691 24.3182C30.2574 23.3535 30.7458 22.3214 31.1215 21.2366C30.5574 21.5919 30.2852 22.2142 29.3324 22.2142C27.9991 22.2142 27.9991 20.9951 26.6657 20.9951Z" fill="#0052B4"/>
<path d="M31.9504 14.7357C30.6672 14.7661 30.6496 15.9535 29.3331 15.9535C27.9998 15.9535 27.9998 14.7344 26.6664 14.7344C25.3331 14.7344 25.3331 15.9535 23.9999 15.9535C22.6666 15.9535 22.6666 14.7344 21.3333 14.7344C20 14.7344 20 15.9535 18.6666 15.9535C17.3332 15.9535 17.3332 14.7344 15.9998 14.7344C14.6664 14.7344 14.6664 15.9535 13.3332 15.9535C12.0001 15.9535 12.0001 14.7344 10.6667 14.7344C9.33331 14.7344 9.33331 15.9535 7.99988 15.9535C6.66644 15.9535 6.66644 14.7344 5.333 14.7344C3.99988 14.7344 3.99988 15.9535 2.66656 15.9535C1.35038 15.9535 1.33256 14.7662 0.0495625 14.7357C0.017 15.1529 0 15.5744 0 15.9998C0 16.2913 0.00825 16.5808 0.0238125 16.8684C1.33275 16.8831 1.34144 18.0867 2.66663 18.0867C3.99994 18.0867 3.99994 16.8677 5.33306 16.8677C6.6665 16.8677 6.6665 18.0867 7.99994 18.0867C9.33337 18.0867 9.33338 16.8677 10.6668 16.8677C12.0001 16.8677 12.0001 18.0867 13.3333 18.0867C14.6666 18.0867 14.6666 16.8677 15.9998 16.8677C17.3332 16.8677 17.3332 18.0867 18.6667 18.0867C20.0001 18.0867 20.0001 16.8677 21.3334 16.8677C22.6667 16.8677 22.6667 18.0867 23.9999 18.0867C25.3332 18.0867 25.3333 16.8677 26.6665 16.8677C27.9999 16.8677 27.9999 18.0867 29.3332 18.0867C30.6585 18.0867 30.6672 16.8831 31.9764 16.8684C31.9918 16.5808 32 16.2913 32 15.9998C32 15.5744 31.983 15.1529 31.9504 14.7357V14.7357Z" fill="#F0F0F0"/>
</svg>
