<svg width="32" height="32" viewBox="0 0 32 32" fill="none" xmlns="http://www.w3.org/2000/svg">
<g clip-path="url(#clip0_16_11573)">
<path d="M30.223 8.66367C29.4837 7.23123 28.5146 5.88673 27.3139 4.68598C26.113 3.48517 24.7685 2.51611 23.3361 1.77686L12.0643 12.0647L1.77637 23.3365C2.51568 24.769 3.48474 26.1135 4.68549 27.3143C5.88624 28.515 7.2308 29.4841 8.66318 30.2234L19.935 19.9355L30.223 8.66367Z" fill="#FFDA44"/>
<path d="M4.68542 27.3142C5.35661 27.9854 6.07279 28.584 6.82398 29.1111L29.1105 6.82447C28.5835 6.07328 27.9849 5.3571 27.3137 4.68591C26.6425 4.01472 25.9263 3.41616 25.1752 2.88916L2.88867 25.1756C3.41561 25.9267 4.01417 26.643 4.68542 27.3142V27.3142Z" fill="#D80027"/>
<path d="M4.68588 4.68575C-0.362055 9.73368 -1.33112 17.3148 1.77676 23.3364L23.3365 1.77668C17.3149 -1.33112 9.73376 -0.361938 4.68588 4.68575V4.68575Z" fill="#338AF3"/>
<path d="M27.3146 27.3142C32.3625 22.2663 33.3315 14.6851 30.2238 8.66358L8.66406 30.2233C14.6856 33.3311 22.2668 32.3621 27.3146 27.3142V27.3142Z" fill="#338AF3"/>
<path d="M8.52664 4.86906L9.39002 7.52638H12.184L9.92364 9.16863L10.787 11.8259L8.52664 10.1836L6.26614 11.8259L7.12964 9.16863L4.86914 7.52638H7.66314L8.52664 4.86906Z" fill="#FFDA44"/>
</g>
<defs>
<clipPath id="clip0_16_11573">
<rect width="32" height="32" fill="white"/>
</clipPath>
</defs>
</svg>
