<svg width="32" height="32" viewBox="0 0 32 32" fill="none" xmlns="http://www.w3.org/2000/svg">
<g clip-path="url(#clip0_16_11846)">
<path d="M21.5654 0.99525C19.832 0.352062 17.9572 0 16 0C14.0429 0 12.1682 0.352063 10.4349 0.995125L9.73926 16L10.4349 31.0049C12.1682 31.648 14.0429 32 16 32C17.9573 32 19.832 31.648 21.5654 31.0047L22.261 16L21.5654 0.99525Z" fill="#FFDA44"/>
<path d="M0 16C0 22.8794 4.342 28.7441 10.4348 31.0048V0.995125C4.342 3.25588 0 9.1205 0 16Z" fill="#D80027"/>
<path d="M32.0002 16C32.0002 9.12049 27.6582 3.25587 21.5654 0.995117V31.0048C27.6582 28.7441 32.0002 22.8794 32.0002 16Z" fill="#6DA544"/>
</g>
<defs>
<clipPath id="clip0_16_11846">
<rect width="32" height="32" fill="white"/>
</clipPath>
</defs>
</svg>
