<svg width="32" height="32" viewBox="0 0 32 32" fill="none" xmlns="http://www.w3.org/2000/svg">
<g clip-path="url(#clip0_16_11631)">
<path d="M16 32C24.8366 32 32 24.8366 32 16C32 7.16344 24.8366 0 16 0C7.16344 0 0 7.16344 0 16C0 24.8366 7.16344 32 16 32Z" fill="#FFDA44"/>
<path d="M16.0004 0C12.0831 0 8.49524 1.40856 5.71387 3.74587L22.9569 16L5.71387 28.2541C8.49524 30.5914 12.0831 32 16.0004 32C24.8369 32 32.0004 24.8365 32.0004 16C32.0004 7.1635 24.8369 0 16.0004 0Z" fill="#D80027"/>
<path d="M4.68628 4.68604C-1.56209 10.9344 -1.56209 21.0651 4.68628 27.3135C7.26834 24.7315 9.75165 22.2482 16 15.9998L4.68628 4.68604Z" fill="black"/>
<path d="M4.43623 12.3345L6.87123 14.639L9.81548 13.035L8.37642 16.0631L10.8115 18.3677L7.48686 17.9347L6.04761 20.9627L5.43217 17.667L2.10754 17.2338L5.05167 15.63L4.43623 12.3345Z" fill="#F0F0F0"/>
</g>
<defs>
<clipPath id="clip0_16_11631">
<rect width="32" height="32" fill="white"/>
</clipPath>
</defs>
</svg>
