<svg width="32" height="32" viewBox="0 0 32 32" fill="none" xmlns="http://www.w3.org/2000/svg">
<path d="M16 32C24.8366 32 32 24.8366 32 16C32 7.16344 24.8366 0 16 0C7.16344 0 0 7.16344 0 16C0 24.8366 7.16344 32 16 32Z" fill="#F0F0F0"/>
<path d="M6.98206 2.78262C9.54986 1.02725 12.6547 0 16 0C19.3452 0 22.4501 1.02725 25.0179 2.78262L16 3.47825L6.98206 2.78262Z" fill="#FFDA44"/>
<path d="M4.68713 27.3129L12.0647 19.9354L16 13.2174L19.9348 19.9349L27.3129 27.3129C30.2085 24.4176 32 20.4183 32 16C32 10.5087 29.2332 5.66406 25.0179 2.78262H6.98206C2.76681 5.66406 0 10.5087 0 16C0 20.4183 1.7915 24.4176 4.68713 27.3129V27.3129Z" fill="#D80027"/>
<path d="M30.7844 22.1261L19.0863 17.2787L19.9342 19.934L27.3128 27.3126C28.7861 25.8395 29.9734 24.0807 30.7844 22.1261Z" fill="#0052B4"/>
<path d="M31.9999 15.9998C31.9999 13.8294 31.5673 11.7604 30.7844 9.87344L15.9999 15.9998H31.9999Z" fill="#0052B4"/>
<path d="M27.3128 4.68712C26.6095 3.984 25.8414 3.34569 25.0178 2.78262H21.4769L15.9999 16L27.3128 4.68712Z" fill="#0052B4"/>
<path d="M16.0003 2.78262H10.5233L16.0003 16V2.78262Z" fill="#0052B4"/>
<path d="M4.68714 4.68692C3.21389 6.16005 2.02658 7.91886 1.21558 9.87342L16 15.9998L4.68714 4.68692Z" fill="#0052B4"/>
<path d="M0 16C0 18.1703 0.432562 20.2394 1.2155 22.1263L16 16H0Z" fill="#0052B4"/>
<path d="M6.98193 29.2173C9.54968 30.9727 12.6546 31.9999 15.9999 31.9999C19.3451 31.9999 22.45 30.9727 25.0178 29.2173H6.98193Z" fill="#FFDA44"/>
<path d="M15.9999 15.9998L19.9351 19.9349C20.9423 18.9278 21.5651 17.5366 21.5651 15.9998C21.5651 12.9261 19.0735 10.4346 15.9999 10.4346C12.9264 10.4346 10.4347 12.9261 10.4347 15.9998C10.4347 17.5365 11.0576 18.9278 12.0648 19.9349L15.9999 15.9998Z" fill="#FFDA44"/>
<path d="M18.4346 23.9998C18.4346 25.3444 17.3444 25.7389 15.9998 25.7389C14.6551 25.7389 13.5649 25.3444 13.5649 23.9998C13.5649 22.6551 14.6551 21.5649 15.9998 21.5649C17.3444 21.5649 18.4346 22.6551 18.4346 23.9998Z" fill="#FFDA44"/>
<path d="M18.4346 24C18.4346 25.3447 17.3444 26.4348 15.9998 26.4348C14.6551 26.4348 13.5649 25.3447 13.5649 24" fill="#0052B4"/>
</svg>
