<svg width="32" height="32" viewBox="0 0 32 32" fill="none" xmlns="http://www.w3.org/2000/svg">
<path d="M16 32C24.8366 32 32 24.8366 32 16C32 7.16344 24.8366 0 16 0C7.16344 0 0 7.16344 0 16C0 24.8366 7.16344 32 16 32Z" fill="#496E2D"/>
<path d="M18.7826 15.3328C18.3899 15.3328 18.017 15.4111 17.6708 15.5357C17.8604 15.113 17.9876 14.6426 17.9876 14.1403C17.9876 12.1527 16.0001 10.662 16.0001 10.662C16.0001 10.662 14.0125 12.1527 14.0125 14.1403C14.0125 14.6425 14.1397 15.113 14.3294 15.5357C13.9831 15.4112 13.6102 15.3328 13.2175 15.3328C11.2299 15.3328 9.73926 17.3204 9.73926 17.3204C9.73926 17.3204 11.2299 19.308 13.2175 19.308C14.3828 19.308 15.3767 18.625 16.0001 18.0596C16.6236 18.6249 17.6174 19.308 18.7828 19.308C20.7703 19.308 22.261 17.3204 22.261 17.3204C22.261 17.3204 20.7702 15.3328 18.7826 15.3328V15.3328Z" fill="#F0F0F0"/>
<path d="M16.0008 6.26074L16.4114 7.52424H17.74L16.6653 8.30524L17.0755 9.56874L16.0008 8.78774L14.9262 9.56874L15.3364 8.30524L14.2617 7.52424H15.5903L16.0008 6.26074Z" fill="#FFDA44"/>
<path d="M10.9485 8.4707L11.7383 9.18183L12.6588 8.65045L12.2265 9.62139L13.0163 10.3326L11.9593 10.2215L11.5271 11.1925L11.306 10.1529L10.249 10.0418L11.1694 9.51026L10.9485 8.4707Z" fill="#FFDA44"/>
<path d="M7.25 12.1692L8.28963 12.3902L8.82106 11.4697L8.93219 12.5267L9.97169 12.7478L9.00081 13.1801L9.11194 14.237L8.40063 13.4473L7.42975 13.8795L7.96119 12.959L7.25 12.1692Z" fill="#FFDA44"/>
<path d="M21.0522 8.4707L20.2624 9.18183L19.3419 8.65045L19.7741 9.62139L18.9844 10.3326L20.0414 10.2215L20.4736 11.1925L20.6948 10.1529L21.7517 10.0418L20.8313 9.51026L21.0522 8.4707Z" fill="#FFDA44"/>
<path d="M24.751 12.1692L23.7114 12.3902L23.18 11.4697L23.0688 12.5267L22.0293 12.7478L23.0002 13.1801L22.889 14.237L23.6004 13.4473L24.5712 13.8795L24.0398 12.959L24.751 12.1692Z" fill="#FFDA44"/>
<path d="M16.0002 24.873C17.579 24.873 19.0343 24.3463 20.2016 23.46H11.7988C12.9662 24.3462 14.4214 24.873 16.0002 24.873Z" fill="#F0F0F0"/>
<path d="M9.62305 20.6992C9.84386 21.2046 10.1239 21.6779 10.4527 22.1123H21.5476C21.8765 21.678 22.1565 21.2046 22.3773 20.6992H9.62305Z" fill="#F0F0F0"/>
</svg>
