<svg width="32" height="32" viewBox="0 0 32 32" fill="none" xmlns="http://www.w3.org/2000/svg">
<path d="M32 16C32 24.8365 24.8365 32 16 32C7.1635 32 0 24.8365 0 16C0 16.0038 16 0.00175 16 0C24.8365 0 32 7.1635 32 16Z" fill="#0052B4"/>
<path d="M15.957 15.9998H15.9998C15.9998 15.9855 15.9998 15.9715 15.9998 15.957C15.9856 15.9713 15.9713 15.9856 15.957 15.9998Z" fill="#F0F0F0"/>
<path d="M16 8.34781C16 5.5325 16 3.68781 16 0H15.9973C7.16194 0.0015 0 7.16431 0 16H8.34781V11.2993L13.0485 16H15.9572C15.9715 15.9857 15.9858 15.9715 16.0001 15.9572C16.0001 14.8793 16.0001 13.9174 16.0001 13.0486L11.2992 8.34781H16Z" fill="#F0F0F0"/>
<path d="M8.09467 2.08694C5.59223 3.51188 3.51179 5.59226 2.08691 8.0947V16H6.26086V6.26101V6.26089H16C16 4.94445 16 3.69032 16 2.08694H8.09467Z" fill="#D80027"/>
<path d="M15.9998 14.0322L10.3152 8.34769H8.34766V8.34781L15.9997 15.9998H15.9998C15.9998 15.9998 15.9998 14.6431 15.9998 14.0322V14.0322Z" fill="#D80027"/>
<path d="M27.0587 18.3423C27.5187 17.7093 27.826 16.9363 27.826 16.0002V9.04371C27.2447 9.48046 26.5222 9.73933 25.7391 9.73933C24.6012 9.73933 23.591 9.19289 22.9565 8.34814C22.3219 9.19289 21.3117 9.73933 20.1739 9.73933C19.3907 9.73933 18.6682 9.48039 18.0869 9.04383V16.0002C18.0869 16.9363 18.3942 17.7093 18.8543 18.3423H27.0587Z" fill="#F3F3F3"/>
<path d="M25.612 14.709C25.8335 14.1687 26.0057 13.3788 26.0057 12.9858C26.0057 12.3542 25.1823 11.8423 25.1823 11.8423C25.1823 11.8423 24.359 12.3542 24.359 12.9858C24.359 13.3789 24.5313 14.1687 24.7527 14.709L24.2773 15.7822C24.5567 15.8958 24.8621 15.959 25.1824 15.959C25.5027 15.959 25.808 15.8958 26.0875 15.7822L25.612 14.709Z" fill="#FF9811"/>
<path d="M22.3937 11.2343C21.8152 11.3127 21.045 11.5586 20.7047 11.7551C20.1577 12.0709 20.126 13.0399 20.126 13.0399C20.126 13.0399 20.9811 13.4969 21.528 13.1812C21.8685 12.9846 22.4662 12.4406 22.8233 11.9786L23.9905 11.8536C23.9492 11.555 23.851 11.2589 23.691 10.9816C23.5308 10.7043 23.3236 10.4713 23.0855 10.2861L22.3937 11.2343Z" fill="#FF9811"/>
<path d="M20.9934 15.7589C21.3504 16.2207 21.9484 16.7646 22.2889 16.9613C22.8358 17.277 23.6909 16.8201 23.6909 16.8201C23.6909 16.8201 23.659 15.851 23.1122 15.5352C22.7716 15.3386 22.0015 15.0929 21.4229 15.0147L20.7312 14.0664C20.4932 14.2515 20.2859 14.4846 20.1257 14.7617C19.9657 15.0391 19.8677 15.3351 19.8262 15.6339L20.9934 15.7589Z" fill="#FF9811"/>
<path d="M18.6826 18.0869C19.9819 20.1716 22.9569 20.8694 22.9569 20.8694C22.9569 20.8694 25.9319 20.1716 27.2312 18.0869H18.6826Z" fill="#338AF3"/>
</svg>
