<svg width="32" height="32" viewBox="0 0 32 32" fill="none" xmlns="http://www.w3.org/2000/svg">
<path d="M0 16C0 22.8794 4.342 28.7441 10.4347 31.0047L11.8261 15.9999L10.4347 0.995186C4.342 3.25594 0 9.12056 0 16Z" fill="#6DA544"/>
<path d="M31.9999 16C31.9999 7.1635 24.8364 0 15.9999 0C14.0428 0 12.1679 0.352063 10.4346 0.995188V31.0048C12.1679 31.648 14.0428 32 15.9999 32C24.8364 32 31.9999 24.8365 31.9999 16Z" fill="#D80027"/>
<path d="M10.4343 21.5649C13.5079 21.5649 15.9995 19.0733 15.9995 15.9998C15.9995 12.9262 13.5079 10.4346 10.4343 10.4346C7.36076 10.4346 4.86914 12.9262 4.86914 15.9998C4.86914 19.0733 7.36076 21.5649 10.4343 21.5649Z" fill="#FFDA44"/>
<path d="M7.30469 13.2173V16.6955C7.30469 18.4244 8.70619 19.826 10.4351 19.826C12.1641 19.826 13.5656 18.4245 13.5656 16.6955V13.2173H7.30469Z" fill="#D80027"/>
<path d="M10.4351 17.7389C9.85973 17.7389 9.3916 17.2708 9.3916 16.6954V15.3042H11.4785V16.6955C11.4785 17.2708 11.0104 17.7389 10.4351 17.7389Z" fill="#F0F0F0"/>
</svg>
