<svg width="32" height="32" viewBox="0 0 32 32" fill="none" xmlns="http://www.w3.org/2000/svg">
<g clip-path="url(#clip0_16_11828)">
<path d="M16 32C24.8366 32 32 24.8366 32 16C32 7.16344 24.8366 0 16 0C7.16344 0 0 7.16344 0 16C0 24.8366 7.16344 32 16 32Z" fill="#F0F0F0"/>
<path d="M32.0002 15.9998C32.0002 9.6564 28.3086 4.1754 22.9567 1.5874V30.4121C28.3086 27.8241 32.0002 22.3431 32.0002 15.9998V15.9998Z" fill="#338AF3"/>
<path d="M0 15.9998C0 22.3431 3.69156 27.8241 9.0435 30.4121V1.5874C3.69156 4.1754 0 9.6564 0 15.9998Z" fill="#338AF3"/>
<path d="M20.1813 18.7053L17.4759 16L20.0511 13.4246L19.9344 12.0645L19.1972 11.3271L16.0002 14.5241L12.8032 11.3271L12.0659 12.0645L11.9492 13.4246L14.5244 16L11.819 18.7053L13.2947 20.181L16.0002 17.4756L18.7056 20.181L20.1813 18.7053Z" fill="#ACABB1"/>
<path d="M19.9351 12.0649L18.4594 13.5406C19.0888 14.1701 19.4782 15.0396 19.4782 16.0001C19.4782 17.9211 17.9209 19.4784 15.9999 19.4784C14.079 19.4784 12.5216 17.9211 12.5216 16.0001C12.5216 15.0396 12.911 14.1701 13.5404 13.5406L12.0648 12.0649C11.0576 13.0719 10.4347 14.4633 10.4347 16.0001C10.4347 19.0738 12.9263 21.5653 15.9999 21.5653C19.0734 21.5653 21.5651 19.0737 21.5651 16.0001C21.5651 14.4633 20.9422 13.072 19.9351 12.0649V12.0649Z" fill="#6DA544"/>
</g>
<defs>
<clipPath id="clip0_16_11828">
<rect width="32" height="32" fill="white"/>
</clipPath>
</defs>
</svg>
