<svg width="32" height="32" viewBox="0 0 32 32" fill="none" xmlns="http://www.w3.org/2000/svg">
<g clip-path="url(#clip0_16_12608)">
<path d="M31.0048 21.5652C31.648 19.8319 32 17.9571 32 16C32 14.0429 31.648 12.1681 31.0048 10.4348L16 9.0435L0.995188 10.4348C0.352 12.1681 0 14.0429 0 16C0 17.9571 0.352 19.8319 0.995188 21.5652L16 22.9565L31.0048 21.5652Z" fill="#F0F0F0"/>
<path d="M16 32.0002C22.8794 32.0002 28.7441 27.6582 31.0047 21.5654H0.995117C3.25587 27.6582 9.12049 32.0002 16 32.0002Z" fill="#338AF3"/>
<path d="M16 0C9.12049 0 3.25587 4.342 0.995117 10.4348H31.0048C28.7441 4.342 22.8794 0 16 0Z" fill="#6DA544"/>
</g>
<defs>
<clipPath id="clip0_16_12608">
<rect width="32" height="32" fill="white"/>
</clipPath>
</defs>
</svg>
