<svg width="32" height="32" viewBox="0 0 32 32" fill="none" xmlns="http://www.w3.org/2000/svg">
<path d="M16 32C24.8366 32 32 24.8366 32 16C32 7.16344 24.8366 0 16 0C7.16344 0 0 7.16344 0 16C0 24.8366 7.16344 32 16 32Z" fill="#D80027"/>
<path d="M8.75625 9.7375L10.1375 13.9875H14.6062L10.9937 16.6188L12.375 20.8688L8.75625 18.2438L5.1375 20.8688L6.525 16.6188L2.90625 13.9875H7.375L8.75625 9.7375Z" fill="#FFDA44"/>
<path d="M18.969 24.7813L17.9127 23.4813L16.3502 24.0875L17.2565 22.6813L16.2002 21.375L17.819 21.8063L18.7315 20.4L18.819 22.075L20.444 22.5063L18.8752 23.1063L18.969 24.7813Z" fill="#FFDA44"/>
<path d="M21.0689 20.9688L21.5689 19.3688L20.2002 18.4L21.8752 18.375L22.3689 16.775L22.9127 18.3625L24.5877 18.3438L23.2439 19.3438L23.7814 20.9313L22.4127 19.9625L21.0689 20.9688Z" fill="#FFDA44"/>
<path d="M23.8998 11.7436L23.1623 13.2498L24.3623 14.4186L22.7061 14.1811L21.9686 15.6811L21.6811 14.0311L20.0186 13.7936L21.5061 13.0123L21.2186 11.3561L22.4186 12.5248L23.8998 11.7436Z" fill="#FFDA44"/>
<path d="M19.0129 7.18125L18.8879 8.85L20.4441 9.48125L18.8129 9.88125L18.6941 11.5563L17.8129 10.1313L16.1816 10.5313L17.2629 9.25L16.3754 7.83125L17.9316 8.4625L19.0129 7.18125Z" fill="#FFDA44"/>
</svg>
