<svg width="32" height="32" viewBox="0 0 32 32" fill="none" xmlns="http://www.w3.org/2000/svg">
<g clip-path="url(#clip0_16_13007)">
<path d="M0.7555 11.1303C0.265375 12.6658 -6.2489e-05 14.3016 1.10347e-08 15.9996C-6.2489e-05 17.6978 0.265437 19.3337 0.755562 20.8692L16 21.5649L31.2444 20.8693C31.7345 19.3338 32.0001 17.6978 32.0001 15.9998C32 14.3016 31.7346 12.6658 31.2444 11.1302L16 10.4346L0.7555 11.1303Z" fill="#F0F0F0"/>
<path d="M31.244 11.1307L15.9995 10.4351L0.755008 11.1307C0.609758 11.5859 0.484695 12.0501 0.379883 12.522H31.6189C31.5142 12.0501 31.3892 11.5858 31.244 11.1307Z" fill="#D80027"/>
<path d="M0.379883 19.4785C0.48457 19.9504 0.609633 20.4145 0.754883 20.8698L0.756383 20.8698L15.9992 21.5655L31.2437 20.8698C31.3889 20.4146 31.514 19.9504 31.6187 19.4785H0.379883Z" fill="#D80027"/>
<path d="M16.0002 32.0001C23.1387 32.0001 29.1844 27.3249 31.2447 20.8696H0.755859C2.81617 27.3248 8.86193 32.0001 16.0002 32.0001V32.0001Z" fill="#6DA544"/>
<path d="M16.0003 6.2663e-10C8.86192 6.25006e-05 2.8163 4.67525 0.755859 11.1304L31.2447 11.1305C29.1845 4.67518 23.1388 -6.24993e-05 16.0003 6.2663e-10V6.2663e-10Z" fill="#338AF3"/>
<path d="M7.31135 6.60849C7.31135 5.10993 8.36454 3.85806 9.77098 3.55093C9.55485 3.50368 9.33054 3.47812 9.10016 3.47812C7.37129 3.47812 5.96973 4.87962 5.96973 6.60856C5.96973 8.33749 7.37116 9.739 9.10016 9.739C9.33054 9.739 9.55479 9.71337 9.77098 9.66618C8.3646 9.35893 7.31135 8.10706 7.31135 6.60849V6.60849Z" fill="#F0F0F0"/>
<path d="M11.6214 8.03125L11.8333 8.68344H12.519L11.9643 9.08656L12.1761 9.73875L11.6214 9.33569L11.0665 9.73875L11.2784 9.08656L10.7236 8.68344H11.4094L11.6214 8.03125Z" fill="#F0F0F0"/>
<path d="M13.8097 8.03125L14.0217 8.68344H14.7074L14.1526 9.08656L14.3645 9.73875L13.8097 9.33569L13.2549 9.73875L13.4669 9.08656L12.9121 8.68344H13.5978L13.8097 8.03125Z" fill="#F0F0F0"/>
<path d="M15.9983 8.03125L16.2102 8.68344H16.896L16.3412 9.08656L16.5531 9.73875L15.9983 9.33569L15.4435 9.73875L15.6555 9.08656L15.1006 8.68344H15.7864L15.9983 8.03125Z" fill="#F0F0F0"/>
<path d="M18.1878 8.03125L18.3997 8.68344H19.0854L18.5307 9.08656L18.7426 9.73875L18.1878 9.33569L17.6329 9.73875L17.8449 9.08656L17.29 8.68344H17.9758L18.1878 8.03125Z" fill="#F0F0F0"/>
<path d="M20.3761 8.03125L20.5881 8.68344H21.2738L20.7191 9.08656L20.931 9.73875L20.3761 9.33569L19.8213 9.73875L20.0333 9.08656L19.4785 8.68344H20.1642L20.3761 8.03125Z" fill="#F0F0F0"/>
<path d="M13.8097 5.75488L14.0217 6.40701H14.7074L14.1526 6.81019L14.3645 7.46232L13.8097 7.05926L13.2549 7.46232L13.4669 6.81019L12.9121 6.40701H13.5978L13.8097 5.75488Z" fill="#F0F0F0"/>
<path d="M15.9983 5.75488L16.2102 6.40701H16.896L16.3412 6.81019L16.5531 7.46232L15.9983 7.05926L15.4435 7.46232L15.6555 6.81019L15.1006 6.40701H15.7864L15.9983 5.75488Z" fill="#F0F0F0"/>
<path d="M18.1878 5.75488L18.3997 6.40701H19.0854L18.5307 6.81019L18.7426 7.46232L18.1878 7.05926L17.6329 7.46232L17.8449 6.81019L17.29 6.40701H17.9758L18.1878 5.75488Z" fill="#F0F0F0"/>
<path d="M20.3761 5.75488L20.5881 6.40701H21.2738L20.7191 6.81019L20.931 7.46232L20.3761 7.05926L19.8213 7.46232L20.0333 6.81019L19.4785 6.40701H20.1642L20.3761 5.75488Z" fill="#F0F0F0"/>
<path d="M15.9983 3.47803L16.2102 4.13028H16.896L16.3412 4.53334L16.5531 5.18559L15.9983 4.78253L15.4435 5.18559L15.6555 4.53334L15.1006 4.13028H15.7864L15.9983 3.47803Z" fill="#F0F0F0"/>
<path d="M18.1878 3.47803L18.3997 4.13028H19.0854L18.5307 4.53334L18.7426 5.18559L18.1878 4.78253L17.6329 5.18559L17.8449 4.53334L17.29 4.13028H17.9758L18.1878 3.47803Z" fill="#F0F0F0"/>
<path d="M20.3761 3.47803L20.5881 4.13028H21.2738L20.7191 4.53334L20.931 5.18559L20.3761 4.78253L19.8213 5.18559L20.0333 4.53334L19.4785 4.13028H20.1642L20.3761 3.47803Z" fill="#F0F0F0"/>
</g>
<defs>
<clipPath id="clip0_16_13007">
<rect width="32" height="32" fill="white"/>
</clipPath>
</defs>
</svg>
