<svg width="32" height="32" viewBox="0 0 32 32" fill="none" xmlns="http://www.w3.org/2000/svg">
<g clip-path="url(#clip0_16_11054)">
<path d="M0 16.0001C0 17.096 0.1105 18.1662 0.320437 19.2001L16 20.174L31.6796 19.2001C31.8896 18.1662 32 17.096 32 16.0001C32 14.9042 31.8895 13.834 31.6796 12.8001L16 11.8262L0.320437 12.8001C0.1105 13.834 0 14.9042 0 16.0001H0Z" fill="#0052B4"/>
<path d="M31.6794 19.2002H0.32019C1.80263 26.5033 8.25918 32.0002 15.9997 32.0002C23.7403 32.0002 30.1969 26.5033 31.6794 19.2002Z" fill="#F0F0F0"/>
<path d="M0.32019 12.8H31.6794C30.1969 5.49688 23.7404 0 15.9997 0C8.25906 0 1.80263 5.49688 0.32019 12.8V12.8Z" fill="black"/>
<path d="M22.9569 12.7998H9.04395L11.8864 11.4627L10.3728 8.70988L13.4593 9.30019L13.8506 6.18213L16.0004 8.4755L18.1504 6.18213L18.5414 9.30019L21.6281 8.70988L20.1146 11.4628L22.9569 12.7998Z" fill="#FFDA44"/>
<path d="M0 16C0 24.8365 7.1635 32 16 32L3.19975 6.39944C1.19075 9.07376 0 12.3977 0 16Z" fill="#A2001D"/>
<path d="M15.9998 32C24.8363 32 31.9998 24.8365 31.9998 16C31.9998 12.3977 30.809 9.07376 28.8 6.39944L15.9998 32Z" fill="#A2001D"/>
</g>
<defs>
<clipPath id="clip0_16_11054">
<rect width="32" height="32" fill="white"/>
</clipPath>
</defs>
</svg>
