<svg width="32" height="32" viewBox="0 0 32 32" fill="none" xmlns="http://www.w3.org/2000/svg">
<g clip-path="url(#clip0_16_11709)">
<path d="M16 32C24.8366 32 32 24.8366 32 16C32 7.16344 24.8366 0 16 0C7.16344 0 0 7.16344 0 16C0 24.8366 7.16344 32 16 32Z" fill="#F0F0F0"/>
<path d="M31.3044 16.0002L31.8644 13.9132C31.7714 13.2019 31.6319 12.5052 31.4489 11.8263H14.6087V0.0610352C13.8987 0.12216 13.2022 0.230223 12.5218 0.381098L9.73918 2.0871L8.34787 1.94666C7.61568 2.34616 6.91812 2.80116 6.26093 3.3061V11.8262H0.551242C0.368305 12.5051 0.228805 13.2018 0.135805 13.9132L0.69568 16.0002L0.135742 18.0871C0.228742 18.7984 0.368242 19.4952 0.55118 20.174H6.26087V28.6942C6.91806 29.1992 7.61568 29.6541 8.34781 30.0536L10.4347 29.9132L12.5217 31.6192C13.2021 31.77 13.8987 31.878 14.6086 31.9392V20.1741H31.4488C31.6317 19.4952 31.7712 18.7985 31.8642 18.0872L31.3044 16.0002Z" fill="#0052B4"/>
<path d="M31.8646 13.9131H12.5218H12.5218V0.380312C11.0431 0.708187 9.64131 1.23962 8.34781 1.94544V13.913H0.135438C0.0465 14.5962 0 15.2927 0 16C0 16.7073 0.0465 17.4038 0.135438 18.0869H8.34775H8.34781V30.0545C9.64131 30.7603 11.0431 31.2918 12.5218 31.6196V18.0871V18.087H31.8646C31.9535 17.4038 32 16.7073 32 16C32 15.2927 31.9535 14.5962 31.8646 13.9131V13.9131Z" fill="#D80027"/>
</g>
<defs>
<clipPath id="clip0_16_11709">
<rect width="32" height="32" fill="white"/>
</clipPath>
</defs>
</svg>
