<svg width="32" height="32" viewBox="0 0 32 32" fill="none" xmlns="http://www.w3.org/2000/svg">
<g clip-path="url(#clip0_16_12844)">
<path d="M16 32C24.8366 32 32 24.8366 32 16C32 7.16344 24.8366 0 16 0C7.16344 0 0 7.16344 0 16C0 24.8366 7.16344 32 16 32Z" fill="#FFDA44"/>
<path d="M16.0002 0C15.9886 0.000125 15.3046 6.4 15.3046 6.4H28.8009C25.8819 2.51394 21.2347 0 16.0002 0Z" fill="#496E2D"/>
<path d="M16 32C21.2345 32 25.8817 29.4861 28.8007 25.6H3.19934C6.11834 29.4861 10.7655 32 16 32Z" fill="#496E2D"/>
<path d="M31.6798 12.7998H15.3046L16.0002 19.1998H31.6798C31.8898 18.1659 32.0002 17.0957 32.0002 15.9998C32.0002 14.9039 31.8897 13.8337 31.6798 12.7998V12.7998Z" fill="#496E2D"/>
<path d="M16 19.2C16 15.8609 16 3.7565 16 0C7.1635 0 0 7.1635 0 16C0 17.0959 0.1105 18.1661 0.320375 19.2H16Z" fill="#D80027"/>
<path d="M8.82857 7.65234L9.86457 10.8408H13.2174L10.5051 12.8116L11.5409 16.0002L8.82857 14.0295L6.11619 16.0002L7.15225 12.8116L4.43994 10.8408H7.79263L8.82857 7.65234Z" fill="#F0F0F0"/>
</g>
<defs>
<clipPath id="clip0_16_12844">
<rect width="32" height="32" fill="white"/>
</clipPath>
</defs>
</svg>
