<svg width="32" height="32" viewBox="0 0 32 32" fill="none" xmlns="http://www.w3.org/2000/svg">
<g clip-path="url(#clip0_16_12766)">
<path d="M30.4124 22.9563C31.4295 20.8529 32 18.493 32 15.9998C32 13.5067 31.4295 11.1468 30.4124 9.04334L16 8.34766L1.58763 9.04328C0.5705 11.1468 0 13.5067 0 15.9998C0 18.493 0.5705 20.8529 1.58763 22.9563L16 23.652L30.4124 22.9563Z" fill="#FFDA44"/>
<path d="M16.0003 0C9.65689 0 4.17589 3.69156 1.58789 9.0435H30.4126C27.8246 3.69156 22.3436 0 16.0003 0V0Z" fill="black"/>
<path d="M16.0003 32C9.65689 32 4.17589 28.3085 1.58789 22.9565H30.4126C27.8246 28.3085 22.3436 32 16.0003 32V32Z" fill="#0052B4"/>
<path d="M31.2444 11.1304H0.755562C0.265437 12.666 0 14.3019 0 16C0 17.6981 0.265437 19.334 0.755562 20.8696H31.2444C31.7346 19.334 32 17.6981 32 16C32 14.3019 31.7346 12.666 31.2444 11.1304Z" fill="#A2001D"/>
<path d="M5.56543 15.3046H26.435V16.6959H5.56543V15.3046Z" fill="#FFDA44"/>
<path d="M8.34766 12.522H23.652V13.9133H8.34766V12.522Z" fill="#FFDA44"/>
<path d="M23.7517 16.0001C23.7517 16.0001 20.174 20.174 16.0001 20.174C11.8262 20.174 11.8262 16.0001 11.8262 16.0001C11.8262 16.0001 11.8262 11.8262 16.0001 11.8262C20.174 11.8262 23.7517 16.0001 23.7517 16.0001Z" fill="#F0F0F0"/>
<path d="M15.9996 20.174C11.8257 20.174 8.24805 16.0001 8.24805 16.0001C8.24805 16.0001 11.8257 11.8262 15.9996 11.8262" fill="black"/>
<path d="M13.2178 14.6089H14.6091V17.3915H13.2178V14.6089Z" fill="#F0F0F0"/>
<path d="M17.3916 14.6089H18.7829V17.3915H17.3916V14.6089Z" fill="black"/>
<path d="M5.56514 17.3915C6.33354 17.3915 6.95645 16.7686 6.95645 16.0002C6.95645 15.2318 6.33354 14.6089 5.56514 14.6089C4.79674 14.6089 4.17383 15.2318 4.17383 16.0002C4.17383 16.7686 4.79674 17.3915 5.56514 17.3915Z" fill="#0052B4"/>
<path d="M26.4353 17.3915C27.2037 17.3915 27.8266 16.7686 27.8266 16.0002C27.8266 15.2318 27.2037 14.6089 26.4353 14.6089C25.6669 14.6089 25.0439 15.2318 25.0439 16.0002C25.0439 16.7686 25.6669 17.3915 26.4353 17.3915Z" fill="#0052B4"/>
</g>
<defs>
<clipPath id="clip0_16_12766">
<rect width="32" height="32" fill="white"/>
</clipPath>
</defs>
</svg>
