<svg width="32" height="32" viewBox="0 0 32 32" fill="none" xmlns="http://www.w3.org/2000/svg">
<path d="M16 32C24.8366 32 32 24.8366 32 16C32 7.16344 24.8366 0 16 0C7.16344 0 0 7.16344 0 16C0 24.8366 7.16344 32 16 32Z" fill="#F0F0F0"/>
<path d="M28.5683 12.8695H23.3045C23.3045 11.909 22.5259 11.1304 21.5654 11.1304L20.1741 13.913C20.1741 13.913 21.6582 18.0869 21.6118 18.0869H23.3509C24.3114 18.0869 25.09 17.3083 25.09 16.3478C26.0505 16.3478 26.8291 15.5692 26.8291 14.6087H26.7712C27.7316 14.6086 28.5683 13.83 28.5683 12.8695Z" fill="#ACABB1"/>
<path d="M3.43225 12.8695H8.69602C8.69602 11.909 9.47466 11.1304 10.4351 11.1304L11.8265 13.913C11.8265 13.913 10.3424 18.0869 10.3888 18.0869H8.64967C7.68913 18.0869 6.91055 17.3083 6.91055 16.3478C5.95001 16.3478 5.17143 15.5692 5.17143 14.6087H5.22935C4.26881 14.6086 3.43225 13.83 3.43225 12.8695V12.8695Z" fill="#ACABB1"/>
<path d="M21.5652 22.2608V22.9565H10.4347V22.2608H7.6521V25.0434H10.4347V25.7391H21.5652V25.0434H24.3478V22.2608H21.5652Z" fill="#FFDA44"/>
<path d="M10.4347 11.1302V18.0867C10.4347 22.3466 15.9999 23.6519 15.9999 23.6519C15.9999 23.6519 21.5651 22.3466 21.5651 18.0867V11.1302L15.9999 10.4346L10.4347 11.1302Z" fill="#0052B4"/>
<path d="M10.4347 13.9131H21.5651V18.087H10.4347V13.9131Z" fill="#D80027"/>
<path d="M18.7825 7.65215V8.69564L18.0868 9.04348L17.3912 8.34779V6.26083H14.6086V8.34779L13.913 9.04348L13.2173 8.69564V7.65215H10.4347V11.1304H21.5651V7.65215H18.7825Z" fill="#FFDA44"/>
</svg>
