<svg width="32" height="32" viewBox="0 0 32 32" fill="none" xmlns="http://www.w3.org/2000/svg">
<path d="M16 32C24.8366 32 32 24.8366 32 16C32 7.16344 24.8366 0 16 0C7.16344 0 0 7.16344 0 16C0 24.8366 7.16344 32 16 32Z" fill="#F0F0F0"/>
<path d="M21.5649 15.9998C21.5649 17.3911 19.0733 20.8693 15.9998 20.8693C12.9262 20.8693 10.4346 17.3911 10.4346 15.9998C10.4346 12.9261 12.9262 10.4346 15.9998 10.4346C19.0733 10.4346 21.5649 12.9261 21.5649 15.9998Z" fill="#D80027"/>
<path d="M21.5649 16C21.5649 19.0736 19.0733 21.5652 15.9998 21.5652C12.9262 21.5652 10.4346 19.0736 10.4346 16" fill="#0052B4"/>
<path d="M21.8984 20.9194L23.3739 19.444L24.3576 20.4276L22.8821 21.9031L21.8984 20.9194Z" fill="black"/>
<path d="M19.4385 23.3784L20.9139 21.9029L21.8976 22.8866L20.4221 24.3621L19.4385 23.3784Z" fill="black"/>
<path d="M24.8496 23.87L26.3251 22.3946L27.3087 23.3782L25.8333 24.8537L24.8496 23.87Z" fill="black"/>
<path d="M22.3896 26.3296L23.8651 24.8541L24.8488 25.8378L23.3733 27.3132L22.3896 26.3296Z" fill="black"/>
<path d="M23.374 22.3945L24.8495 20.9191L25.8331 21.9027L24.3577 23.3782L23.374 22.3945Z" fill="black"/>
<path d="M20.915 24.854L22.3905 23.3785L23.3742 24.3622L21.8987 25.8377L20.915 24.854Z" fill="black"/>
<path d="M24.8564 11.0835L20.9219 7.14891L21.9055 6.16525L25.8401 10.0998L24.8564 11.0835Z" fill="black"/>
<path d="M20.9209 10.1001L19.4454 8.62464L20.429 7.64102L21.9045 9.11649L20.9209 10.1001Z" fill="black"/>
<path d="M23.3799 12.5601L21.9044 11.0846L22.888 10.101L24.3635 11.5764L23.3799 12.5601Z" fill="black"/>
<path d="M23.8711 7.14893L22.3956 5.67346L23.3793 4.6898L24.8548 6.16527L23.8711 7.14893Z" fill="black"/>
<path d="M26.332 9.60889L24.8566 8.13342L25.8402 7.14976L27.3157 8.62523L26.332 9.60889Z" fill="black"/>
<path d="M5.67188 22.3921L9.60646 26.3267L8.6228 27.3103L4.68822 23.3757L5.67188 22.3921Z" fill="black"/>
<path d="M9.60645 23.375L11.0819 24.8505L10.0983 25.8341L8.62284 24.3586L9.60645 23.375Z" fill="black"/>
<path d="M7.14746 20.916L8.62292 22.3915L7.63927 23.3752L6.16381 21.8997L7.14746 20.916Z" fill="black"/>
<path d="M8.62305 19.4404L12.5576 23.375L11.574 24.3587L7.63939 20.4241L8.62305 19.4404Z" fill="black"/>
<path d="M9.60645 5.67041L5.67186 9.605L4.6882 8.62134L8.62279 4.68675L9.60645 5.67041Z" fill="black"/>
<path d="M11.082 7.14551L7.14745 11.0801L6.16379 10.0964L10.0984 6.16185L11.082 7.14551Z" fill="black"/>
<path d="M12.5586 8.62207L8.62401 12.5567L7.64039 11.573L11.575 7.63846L12.5586 8.62207Z" fill="black"/>
</svg>
