<svg width="32" height="32" viewBox="0 0 32 32" fill="none" xmlns="http://www.w3.org/2000/svg">
<g clip-path="url(#clip0_16_11016)">
<path d="M16 32C24.8366 32 32 24.8366 32 16C32 7.16344 24.8366 0 16 0C7.16344 0 0 7.16344 0 16C0 24.8366 7.16344 32 16 32Z" fill="#F0F0F0"/>
<path d="M23.7623 2.007C21.4633 0.729 18.8169 0 16 0C7.16413 0 0.001125 7.16238 0 15.9981L11.1304 10.4348L23.7623 2.007Z" fill="#0052B4"/>
<path d="M0 16.0019C0.001125 24.8376 7.16413 32 16 32C18.8169 32 21.4633 31.2711 23.7623 29.993L11.1304 21.5652L0 16.0019Z" fill="#0052B4"/>
<path d="M25.0956 2.83639C24.6659 2.53895 24.2206 2.26233 23.7617 2.00726L0 15.9981V16C0 16 0 16.0013 0 16.0019L23.7617 29.9927C24.2206 29.7376 24.6659 29.461 25.0957 29.1636L2.73887 16L25.0956 2.83639Z" fill="#D80027"/>
<path d="M27.8259 15.4034H25.9201C26.4156 14.8084 26.3851 13.9232 25.8267 13.365C26.4181 12.7737 26.4181 11.8149 25.8267 11.2235L25.7911 11.2592C26.3824 10.6679 26.4181 9.67334 25.8267 9.08203L17.2607 17.648C17.8521 18.2395 18.7941 18.2324 19.3854 17.641L19.5503 17.4903L23.6521 17.1175V18.8816H25.0434V16.991L27.1303 16.8013L27.8259 15.4034Z" fill="#A2001D"/>
<path d="M17.3918 19.4783L16 18.7826L17.3918 18.0869H26.4352V19.4783H17.3918Z" fill="#FFDA44"/>
</g>
<defs>
<clipPath id="clip0_16_11016">
<rect width="32" height="32" fill="white"/>
</clipPath>
</defs>
</svg>
