<svg width="32" height="32" viewBox="0 0 32 32" fill="none" xmlns="http://www.w3.org/2000/svg">
<g clip-path="url(#clip0_16_12504)">
<path d="M16 32C24.8366 32 32 24.8366 32 16C32 7.16344 24.8366 0 16 0C7.16344 0 0 7.16344 0 16C0 24.8366 7.16344 32 16 32Z" fill="#F0F0F0"/>
<path d="M31.0048 21.5649C31.648 19.8316 32 17.9569 32 15.9998C32 14.0426 31.648 12.1679 31.0048 10.4346H0.995188C0.352063 12.1679 0 14.0426 0 15.9998C0 17.9569 0.352063 19.8316 0.995188 21.5649L16 22.9563L31.0048 21.5649Z" fill="#0052B4"/>
<path d="M15.9999 32.0002C22.8794 32.0002 28.744 27.6582 31.0047 21.5654H0.995117C3.2558 27.6582 9.12049 32.0002 15.9999 32.0002Z" fill="#D80027"/>
</g>
<defs>
<clipPath id="clip0_16_12504">
<rect width="32" height="32" fill="white"/>
</clipPath>
</defs>
</svg>
