<svg width="32" height="32" viewBox="0 0 32 32" fill="none" xmlns="http://www.w3.org/2000/svg">
<path d="M16 32C24.8366 32 32 24.8366 32 16C32 7.16344 24.8366 0 16 0C7.16344 0 0 7.16344 0 16C0 24.8366 7.16344 32 16 32Z" fill="#F0F0F0"/>
<path d="M16 0C10.7655 0 6.11834 2.51394 3.19934 6.4H28.8007C25.8817 2.51394 21.2345 0 16 0Z" fill="#D80027"/>
<path d="M16 32C21.2345 32 25.8817 29.4861 28.8007 25.6H3.19934C6.11834 29.4861 10.7655 32 16 32Z" fill="#D80027"/>
<path d="M0 15.9998C0 17.0957 0.1105 18.1659 0.320437 19.1998H31.6797C31.8896 18.1659 32 17.0957 32 15.9998C32 14.9039 31.8895 13.8337 31.6796 12.7998H0.320437C0.1105 13.8337 0 14.9039 0 15.9998H0Z" fill="#D80027"/>
<path d="M4.68628 4.68604C-1.56209 10.9344 -1.56209 21.0651 4.68628 27.3135C7.26834 24.7315 9.75165 22.2482 16 15.9998L4.68628 4.68604Z" fill="#0052B4"/>
<path d="M6.47561 11.8262L7.51154 15.0147H10.8644L8.15205 16.9854L9.18792 20.174L6.47561 18.2034L3.76317 20.174L4.79929 16.9854L2.08691 15.0147H5.43954L6.47561 11.8262Z" fill="#F0F0F0"/>
</svg>
