<svg width="32" height="32" viewBox="0 0 32 32" fill="none" xmlns="http://www.w3.org/2000/svg">
<g clip-path="url(#clip0_16_12647)">
<path d="M16 32C24.8366 32 32 24.8366 32 16C32 7.16344 24.8366 0 16 0C7.16344 0 0 7.16344 0 16C0 24.8366 7.16344 32 16 32Z" fill="#F0F0F0"/>
<path d="M16 31.9998C24.8365 31.9998 32 24.8363 32 15.9998C32 14.0426 31.648 12.1678 31.0048 10.4346H0.995188C0.352063 12.1678 0 14.0426 0 15.9998C0 24.8363 7.1635 31.9998 16 31.9998Z" fill="#0052B4"/>
<path d="M15.9999 32.0002C22.8794 32.0002 28.744 27.6582 31.0047 21.5654H0.995117C3.2558 27.6582 9.12049 32.0002 15.9999 32.0002Z" fill="#D80027"/>
<path d="M4.1377 9.04346V17.0251C4.1377 21.5653 10.069 22.9565 10.069 22.9565C10.069 22.9565 16.0003 21.5653 16.0003 17.0251V9.04346H4.1377Z" fill="#F0F0F0"/>
<path d="M5.52832 9.04346V17.0251C5.52832 17.5581 5.6467 18.0615 5.8812 18.5334H14.2554C14.4899 18.0615 14.6083 17.5581 14.6083 17.0251V9.04346H5.52832Z" fill="#D80027"/>
<path d="M12.8513 14.6084H10.7644V13.2171H12.1558V11.8258H10.7644V10.4346H9.37313V11.8258H7.98188V13.2171H9.37313V14.6084H7.28613V15.9998H9.37313V17.3911H10.7644V15.9998H12.8513V14.6084Z" fill="#F0F0F0"/>
<path d="M7.77952 20.4757C8.67609 21.0392 9.59721 21.3663 10.0688 21.5118C10.5403 21.3664 11.4615 21.0392 12.358 20.4757C13.2621 19.9075 13.896 19.2576 14.2558 18.5336C13.8589 18.2527 13.3746 18.0871 12.8514 18.0871C12.6609 18.0871 12.4758 18.1097 12.2979 18.1511C11.9208 17.2944 11.0649 16.6958 10.0688 16.6958C9.07277 16.6958 8.21677 17.2944 7.83977 18.1511C7.66184 18.1097 7.47671 18.0871 7.28627 18.0871C6.76309 18.0871 6.27877 18.2527 5.88184 18.5336C6.24152 19.2576 6.87534 19.9074 7.77952 20.4757Z" fill="#0052B4"/>
</g>
<defs>
<clipPath id="clip0_16_12647">
<rect width="32" height="32" fill="white"/>
</clipPath>
</defs>
</svg>
