<svg width="32" height="32" viewBox="0 0 32 32" fill="none" xmlns="http://www.w3.org/2000/svg">
<g clip-path="url(#clip0_16_11372)">
<path d="M16.0001 0C14.043 0 12.1682 0.352063 10.4349 0.995188L9.73926 16L10.4349 31.0048C12.1682 31.648 14.043 32 16.0001 32C17.9573 32 19.8321 31.648 21.5653 31.0048L22.261 16L21.5654 0.995188C19.8321 0.352063 17.9573 0 16.0001 0V0Z" fill="#338AF3"/>
<path d="M32.0002 15.9999C32.0002 9.12049 27.6582 3.2558 21.5654 0.995117V31.0048C27.6582 28.744 32.0002 22.8794 32.0002 15.9999V15.9999Z" fill="#FFDA44"/>
<path d="M10.4348 31.0048V0.995186C4.342 3.25587 0 9.12056 0 16C0 22.8794 4.342 28.7441 10.4348 31.0048Z" fill="#F0F0F0"/>
</g>
<defs>
<clipPath id="clip0_16_11372">
<rect width="32" height="32" fill="white"/>
</clipPath>
</defs>
</svg>
