<svg width="32" height="32" viewBox="0 0 32 32" fill="none" xmlns="http://www.w3.org/2000/svg">
<path d="M22.9567 1.58763C20.8532 0.5705 18.4933 0 16.0002 0C13.507 0 11.1472 0.5705 9.04366 1.58763L7.65234 16L9.04366 30.4124C11.1472 31.4295 13.507 32 16.0002 32C18.4933 32 20.8532 31.4295 22.9567 30.4124L24.348 16L22.9567 1.58763Z" fill="#FFDA44"/>
<path d="M9.0435 1.58838C3.69163 4.17632 0 9.65688 0 16.0002C0 22.3435 3.69163 27.8241 9.0435 30.412V1.58838Z" fill="#0052B4"/>
<path d="M22.9561 1.58838V30.412C28.3079 27.8241 31.9996 22.3435 31.9996 16.0002C31.9996 9.65688 28.3079 4.17632 22.9561 1.58838Z" fill="#D80027"/>
<path d="M21.5649 12.5887H17.7389C17.7389 11.6282 16.9603 10.8496 15.9998 10.8496C15.0393 10.8496 14.2606 11.6282 14.2606 12.5887H10.4346C10.4346 13.5344 11.2584 14.301 12.2039 14.301H12.1469C12.1469 15.2467 12.9136 16.0134 13.8593 16.0134C13.8593 16.8507 14.4607 17.5465 15.2549 17.6952L13.9056 20.7416C14.5521 21.0044 15.2588 21.1505 15.9998 21.1505C16.7407 21.1505 17.4474 21.0044 18.0939 20.7416L16.7446 17.6952C17.5388 17.5465 18.1402 16.8507 18.1402 16.0134C19.0859 16.0134 19.8526 15.2467 19.8526 14.301H19.7955C20.7412 14.301 21.5649 13.5344 21.5649 12.5887V12.5887Z" fill="#FF9811"/>
<path d="M16.0001 14.9565L13.7393 16V18.087L16.0001 19.4783L18.261 18.087V16L16.0001 14.9565Z" fill="#0052B4"/>
<path d="M13.7393 13.9131H18.261V16H13.7393V13.9131Z" fill="#D80027"/>
</svg>
