<svg width="32" height="32" viewBox="0 0 32 32" fill="none" xmlns="http://www.w3.org/2000/svg">
<path d="M16.0005 31.9978C24.8357 31.9978 31.9981 24.8354 31.9981 16.0001C31.9981 7.16484 24.8357 0.00244141 16.0005 0.00244141C7.1652 0.00244141 0.00280762 7.16484 0.00280762 16.0001C0.00280762 24.8354 7.1652 31.9978 16.0005 31.9978Z" fill="#F0F0F0"/>
<path d="M2.14542 8.00098C1.42334 9.2515 0.890706 10.5589 0.536011 11.8906L27.2902 27.3373C28.2662 26.3642 29.1322 25.2491 29.8541 23.9987L2.14542 8.00098Z" fill="black"/>
<path d="M23.9987 2.1456C17.5976 -1.55003 9.70489 -0.318322 4.70935 4.66253L31.4635 20.109C33.2794 13.2925 30.3997 5.8413 23.9987 2.1456V2.1456Z" fill="#FFDA44"/>
<path d="M8.00138 29.8542C14.4024 33.5498 22.2953 32.3181 27.2907 27.3373L0.536408 11.8906C-1.27932 18.7073 1.60024 26.1585 8.00138 29.8542Z" fill="#FFDA44"/>
<path d="M20.5212 14.261C20.5212 16.7578 18.497 18.7821 16.0001 18.7821C13.5032 18.7821 11.479 16.7579 11.479 14.261C11.479 13.4825 11.6758 12.7499 12.0225 12.1103C11.0414 13.1136 10.4357 14.4857 10.4357 15.9998C10.4357 19.073 12.9269 21.5643 16.0001 21.5643C19.0733 21.5643 21.5645 19.073 21.5645 15.9998C21.5645 14.4857 20.9589 13.1136 19.9777 12.1103C20.3244 12.75 20.5212 13.4825 20.5212 14.261V14.261Z" fill="#D80027"/>
<path d="M14.9567 9.04443H17.0433V19.4777H14.9567V9.04443Z" fill="#D80027"/>
<path d="M19.4783 11.1309H12.5228C12.5228 11.6111 12.9411 12.0003 13.4213 12.0003H13.3923C13.3923 12.4805 13.7816 12.8698 14.2617 12.8698C14.2617 13.35 14.6511 13.7392 15.1312 13.7392H16.87C17.3502 13.7392 17.7395 13.35 17.7395 12.8698C18.2197 12.8698 18.609 12.4805 18.609 12.0003H18.58C19.06 12.0003 19.4783 11.6111 19.4783 11.1309Z" fill="#D80027"/>
<path d="M11.131 20.1733H20.8687V22.26H11.131V20.1733Z" fill="#D80027"/>
<path d="M18.0869 20.8687H22.2602V22.9553H18.0869V20.8687Z" fill="#D80027"/>
<path d="M9.74023 20.8687H13.9135V22.9553H9.74023V20.8687Z" fill="#D80027"/>
</svg>
