<svg width="32" height="32" viewBox="0 0 32 32" fill="none" xmlns="http://www.w3.org/2000/svg">
<g clip-path="url(#clip0_16_11557)">
<path d="M16 32C24.8366 32 32 24.8366 32 16C32 7.16344 24.8366 0 16 0C7.16344 0 0 7.16344 0 16C0 24.8366 7.16344 32 16 32Z" fill="#FFDA44"/>
<path d="M15.9997 32.0002C21.2497 32.0002 25.909 29.4716 28.8265 25.5659H3.17285C6.09035 29.4716 10.7497 32.0002 15.9997 32.0002Z" fill="#0052B4"/>
<path d="M32 16C32 7.1635 24.8365 0 16 0C7.1635 0 0 7.1635 0 16C0 17.8921 0.329313 19.707 0.93225 21.3918H31.0677C31.6707 19.707 32 17.8921 32 16V16Z" fill="#0052B4"/>
<path d="M10.9511 10.2612L11.8144 12.9182H14.6084L12.3481 14.5606L13.2114 17.2177L10.9511 15.5755L8.69082 17.2177L9.55426 14.5606L7.29395 12.9182H10.0878L10.9511 10.2612Z" fill="#F0F0F0"/>
<path d="M6.15323 7.47852L6.67123 9.07277H8.34767L6.99148 10.0581L7.50948 11.6525L6.15323 10.6671L4.79705 11.6525L5.31511 10.0581L3.95898 9.07277H5.63536L6.15323 7.47852Z" fill="#F0F0F0"/>
</g>
<defs>
<clipPath id="clip0_16_11557">
<rect width="32" height="32" fill="white"/>
</clipPath>
</defs>
</svg>
