<svg width="32" height="32" viewBox="0 0 32 32" fill="none" xmlns="http://www.w3.org/2000/svg">
<g clip-path="url(#clip0_16_12438)">
<path d="M16 32C24.8366 32 32 24.8366 32 16C32 7.16344 24.8366 0 16 0C7.16344 0 0 7.16344 0 16C0 24.8366 7.16344 32 16 32Z" fill="#F0F0F0"/>
<path d="M16.0004 0V16L4.68665 27.3137C7.58208 30.2091 11.5821 32 16.0004 32C24.8369 32 32.0004 24.8365 32.0004 16C32.0004 7.1635 16.0004 0 16.0004 0Z" fill="#D80027"/>
<path d="M16.0004 0C11.5821 0 7.58208 1.79088 4.68665 4.68625C8.61227 8.61188 10.0058 10.0055 16.0004 16H32.0004C32.0004 7.1635 24.8369 0 16.0004 0Z" fill="#0052B4"/>
<path d="M10.9557 15.9999L9.00173 15.0807L10.0423 13.1883L7.92042 13.5942L7.65154 11.4507L6.17354 13.0272L4.69561 11.4507L4.42667 13.5942L2.30486 13.1882L3.34542 15.0807L1.39136 15.9999L3.34542 16.919L2.30486 18.8114L4.42686 18.4056L4.69554 20.5491L6.17354 18.9726L7.65154 20.5491L7.92042 18.4056L10.0422 18.8115L9.00167 16.9191L10.9557 15.9999Z" fill="#FFDA44"/>
<path d="M4.26674 6.26074L4.91699 7.16968L5.98231 6.83224L5.31868 7.73149L5.96893 8.64043L4.90856 8.28724L4.24499 9.18643L4.25331 8.06893L3.19299 7.71568L4.25849 7.37824L4.26674 6.26074Z" fill="#FFDA44"/>
<path d="M4.26674 22.8135L4.91699 23.7224L5.98231 23.3849L5.31868 24.2842L5.96893 25.1932L4.90856 24.84L4.24499 25.7392L4.25331 24.6217L3.19299 24.2684L4.25849 23.931L4.26674 22.8135Z" fill="#FFDA44"/>
<path d="M13.5411 14.5371L12.8909 15.446L11.8256 15.1085L12.4892 16.0078L11.8389 16.9168L12.8993 16.5635L13.5629 17.4627L13.5546 16.3453L14.6149 15.992L13.5494 15.6546L13.5411 14.5371Z" fill="#FFDA44"/>
</g>
<defs>
<clipPath id="clip0_16_12438">
<rect width="32" height="32" fill="white"/>
</clipPath>
</defs>
</svg>
