<svg width="32" height="32" viewBox="0 0 32 32" fill="none" xmlns="http://www.w3.org/2000/svg">
<path d="M32 16C32 24.8365 24.8365 32 16 32C7.1635 32 0 24.8365 0 16C0 16.0038 16 0.00175 16 0C24.8365 0 32 7.1635 32 16Z" fill="#0052B4"/>
<path d="M15.957 15.9998H15.9998C15.9998 15.9855 15.9998 15.9715 15.9998 15.957C15.9856 15.9713 15.9713 15.9856 15.957 15.9998Z" fill="#F0F0F0"/>
<path d="M16 8.34781C16 5.5325 16 3.68781 16 0H15.9973C7.16194 0.0015 0 7.16431 0 16H8.34781V11.2993L13.0485 16H15.9572C15.9715 15.9857 15.9858 15.9715 16.0001 15.9572C16.0001 14.8793 16.0001 13.9174 16.0001 13.0486L11.2992 8.34781H16Z" fill="#F0F0F0"/>
<path d="M8.09467 2.08694C5.59223 3.51188 3.51179 5.59225 2.08691 8.09469V16H6.26086V6.261V6.26088H16C16 4.94444 16 3.69031 16 2.08694H8.09467Z" fill="#D80027"/>
<path d="M15.9998 14.0322L10.3152 8.34768H8.34766V8.3478L15.9997 15.9998H15.9998C15.9998 15.9998 15.9998 14.6431 15.9998 14.0322V14.0322Z" fill="#D80027"/>
<path d="M21.5653 16L21.8615 16.911H22.8193L22.0444 17.474L22.3404 18.3851L21.5653 17.822L20.7904 18.3851L21.0864 17.474L20.3115 16.911H21.2693L21.5653 16Z" fill="#F0F0F0"/>
<path d="M17.6302 17.6302L18.4836 18.065L19.161 17.3877L19.0111 18.3338L19.8646 18.7687L18.9185 18.9184L18.7687 19.8647L18.3338 19.0111L17.3877 19.161L18.0651 18.4837L17.6302 17.6302Z" fill="#F0F0F0"/>
<path d="M16 21.5652L16.911 21.2692L16.9111 20.3114L17.474 21.0863L18.3851 20.7902L17.822 21.5652L18.3851 22.3403L17.474 22.0443L16.9111 22.8191V21.8613L16 21.5652Z" fill="#F0F0F0"/>
<path d="M17.6302 25.5006L18.065 24.6471L17.3877 23.9698L18.3338 24.1196L18.7687 23.2661L18.9185 24.2122L19.8646 24.362L19.0111 24.7969L19.161 25.7431L18.4836 25.0656L17.6302 25.5006Z" fill="#F0F0F0"/>
<path d="M21.5654 27.1307L21.2694 26.2196H20.3115L21.0865 25.6566L20.7905 24.7456L21.5654 25.3086L22.3405 24.7456L22.0445 25.6566L22.8193 26.2196H21.8615L21.5654 27.1307Z" fill="#F0F0F0"/>
<path d="M25.5001 25.5006L24.6466 25.0658L23.9693 25.7431L24.1191 24.7969L23.2656 24.3621L24.2118 24.2122L24.3616 23.2661L24.7964 24.1196L25.7426 23.9698L25.0651 24.6471L25.5001 25.5006Z" fill="#F0F0F0"/>
<path d="M27.1302 21.5653L26.2191 21.8614V22.8192L25.6561 22.0443L24.7451 22.3403L25.3082 21.5653L24.7451 20.7903L25.6561 21.0863L26.2191 20.3115V21.2693L27.1302 21.5653Z" fill="#F0F0F0"/>
<path d="M25.5001 17.6302L25.0653 18.4836L25.7426 19.1609L24.7964 19.0111L24.3616 19.8646L24.2118 18.9184L23.2656 18.7686L24.1191 18.3338L23.9693 17.3877L24.6466 18.0649L25.5001 17.6302Z" fill="#F0F0F0"/>
</svg>
