<svg width="32" height="32" viewBox="0 0 32 32" fill="none" xmlns="http://www.w3.org/2000/svg">
<path d="M16 32C24.8366 32 32 24.8366 32 16C32 7.16344 24.8366 0 16 0C7.16344 0 0 7.16344 0 16C0 24.8366 7.16344 32 16 32Z" fill="#F0F0F0"/>
<path d="M4.68646 27.3137C5.35764 27.9849 6.07377 28.5835 6.82496 29.1105L29.1105 6.82484C28.5836 6.07365 27.985 5.35753 27.3138 4.68634C26.6426 4.01515 25.9264 3.41665 25.1753 2.88965L2.88977 25.1753C3.41671 25.9264 4.01527 26.6425 4.68646 27.3137V27.3137Z" fill="#A2001D"/>
<path d="M4.68669 4.68604C-0.361066 9.7338 -1.33007 17.3145 1.77762 23.3359L23.3365 1.77711C17.3151 -1.33058 9.73431 -0.361456 4.68669 4.68604V4.68604Z" fill="#0052B4"/>
<path d="M27.3134 27.314C32.361 22.2663 33.33 14.6855 30.2225 8.66406L8.66357 30.223C14.6849 33.3306 22.2657 32.3616 27.3134 27.314Z" fill="#496E2D"/>
<path d="M13.2172 9.04357L11.4243 9.88689L12.379 11.6233L10.4322 11.2509L10.1855 13.2175L8.82947 11.771L7.4734 13.2175L7.22678 11.2509L5.2799 11.6232L6.23459 9.88682L4.44177 9.04357L6.23465 8.2002L5.2799 6.46394L7.22671 6.83632L7.47346 4.86963L8.82947 6.31613L10.1855 4.86963L10.4322 6.83632L12.379 6.46394L11.4244 8.20026L13.2172 9.04357Z" fill="#FFDA44"/>
</svg>
