<svg width="32" height="32" viewBox="0 0 32 32" fill="none" xmlns="http://www.w3.org/2000/svg">
<path d="M32 16C32 24.8365 24.8365 32 16 32C7.1635 32 0 24.8365 0 16C0 16.0038 16 0.00175 16 0C24.8365 0 32 7.1635 32 16Z" fill="#FFDA44"/>
<path d="M16 7.65234V13.0488L10.4348 7.65234H16Z" fill="#0052B4"/>
<path d="M8.34785 16.0002H13.0485L8.34785 9.73929L7.65222 14.6089L8.34785 16.0002Z" fill="#0052B4"/>
<path d="M15.9569 15.9998H15.9997C15.9997 15.9855 15.9997 15.9715 15.9997 15.957C15.9855 15.9713 15.9712 15.9856 15.9569 15.9998Z" fill="#F0F0F0"/>
<path d="M16 8.34781C16 5.5325 16 3.68781 16 0H15.9973C7.16194 0.0015 0 7.16431 0 16H8.34781V11.2993L13.0485 16H15.9572C15.9715 15.9857 15.9858 15.9715 16.0001 15.9572C16.0001 14.8793 16.0001 13.9174 16.0001 13.0486L11.2992 8.34781H16Z" fill="#F0F0F0"/>
<path d="M15.9998 14.0322L10.3152 8.34766H8.34766V8.34778L15.9997 15.9998H15.9998C15.9998 15.9998 15.9998 14.6431 15.9998 14.0322V14.0322Z" fill="#D80027"/>
<path d="M8.09491 2.08691C7.4781 2.43816 6.88716 2.8296 6.32516 3.25691H6.98166L5.24654 4.51779L5.90916 6.5576L4.17404 5.29698L3.98941 5.43117C3.26897 6.24929 2.63022 7.14104 2.08716 8.09467V16H6.2611V6.26098V6.26085H16.0002C16.0002 4.94442 16.0002 3.69029 16.0002 2.08691H8.09491Z" fill="#D80027"/>
<path d="M6.83472 2.88428C6.66215 3.00509 6.49203 3.12928 6.32447 3.25671L5.24603 4.51759L4.17353 5.29672L3.98734 5.43197C3.59447 5.87822 3.22603 6.34647 2.88416 6.83478C3.27384 7.0239 3.71128 7.13022 4.17353 7.13022C5.8064 7.13022 7.13003 5.80659 7.13003 4.17371C7.13015 3.71134 7.0239 3.27403 6.83472 2.88428V2.88428Z" fill="#0052B4"/>
<path d="M3.98792 5.43209L4.1741 5.29684L5.90923 6.55752L5.24654 4.51771L6.98154 3.25684H6.32492C5.47529 3.90302 4.69235 4.63202 3.98792 5.43209V5.43209Z" fill="#FFDA44"/>
<path d="M11.0588 2.78271L11.4042 3.84553H12.5217L11.6176 4.50247L11.9628 5.56528L11.0588 4.9084L10.1548 5.56528L10.4999 4.50247L9.59583 3.84553H10.7134L11.0588 2.78271Z" fill="#FFDA44"/>
<path d="M4.17375 9.73921L4.51913 10.802H5.63663L4.73263 11.459L5.07782 12.5218L4.17375 11.8649L3.26963 12.5218L3.61482 11.459L2.71082 10.802H3.82832L4.17375 9.73921Z" fill="#FFDA44"/>
</svg>
