<svg width="32" height="32" viewBox="0 0 32 32" fill="none" xmlns="http://www.w3.org/2000/svg">
<g clip-path="url(#clip0_16_12962)">
<path d="M16 32C24.8366 32 32 24.8366 32 16C32 7.16344 24.8366 0 16 0C7.16344 0 0 7.16344 0 16C0 24.8366 7.16344 32 16 32Z" fill="#F0F0F0"/>
<path d="M9.04395 21.5654L10.4353 31.0052C12.1685 31.6484 14.0433 32.0002 16.0005 32.0002C22.8798 32.0002 28.7446 27.6582 31.0052 21.5654H9.04395Z" fill="black"/>
<path d="M9.04395 10.4348L10.4353 0.995062C12.1685 0.351875 14.0433 0 16.0005 0C22.8798 0 28.7446 4.342 31.0052 10.4348H9.04395Z" fill="#6DA544"/>
<path d="M0 16C0 22.8794 4.34206 28.7441 10.4348 31.0048V0.995193C4.34206 3.25588 0 9.12057 0 16Z" fill="#A2001D"/>
</g>
<defs>
<clipPath id="clip0_16_12962">
<rect width="32" height="32" fill="white"/>
</clipPath>
</defs>
</svg>
