<svg width="32" height="32" viewBox="0 0 32 32" fill="none" xmlns="http://www.w3.org/2000/svg">
<path d="M16 32C24.8366 32 32 24.8366 32 16C32 7.16344 24.8366 0 16 0C7.16344 0 0 7.16344 0 16C0 24.8366 7.16344 32 16 32Z" fill="#FFDA44"/>
<path d="M6.98206 2.78262C9.54986 1.02725 12.6547 0 16 0C19.3452 0 22.4501 1.02725 25.0179 2.78262L16 3.47825L6.98206 2.78262Z" fill="#A2001D"/>
<path d="M16.0001 16.0001L14.979 14.979L14.7079 15.4647L16.0001 16.0001Z" fill="#0052B4"/>
<path d="M4.68628 4.68604C-1.56209 10.9344 -1.56209 21.0651 4.68628 27.3135C7.26834 24.7315 9.75165 22.2482 16 15.9998L4.68628 4.68604Z" fill="#496E2D"/>
<path d="M27.3136 4.68604C33.562 10.9344 33.562 21.0651 27.3136 27.3135C24.7316 24.7315 22.2483 22.2482 15.9999 15.9998L27.3136 4.68604Z" fill="#496E2D"/>
<path d="M15.9999 21.5649C19.0734 21.5649 21.5651 19.0733 21.5651 15.9998C21.5651 12.9262 19.0734 10.4346 15.9999 10.4346C12.9263 10.4346 10.4347 12.9262 10.4347 15.9998C10.4347 19.0733 12.9263 21.5649 15.9999 21.5649Z" fill="#A2001D"/>
<path d="M15.9999 10.4346L17.2473 14.2739H21.2847L18.0186 16.6472L19.266 20.4867L15.9999 18.1138L12.7336 20.4867L13.9813 16.6472L10.7152 14.2739H14.7523L15.9999 10.4346Z" fill="#FFDA44"/>
<path d="M16.0006 0C15.9987 0 15.9969 8.20313e-05 15.995 8.20313e-05H16.0062C16.0044 8.20313e-05 16.0025 0 16.0006 0V0Z" fill="#FFDA44"/>
<path d="M16.0052 0H15.9946C11.5788 0.0014375 7.5812 1.79163 4.68701 4.6855H27.3128C24.4186 1.79163 20.421 0.0014375 16.0052 0Z" fill="#A2001D"/>
<path d="M4.68701 27.3145C7.58239 30.2094 11.582 31.9999 15.9998 31.9999C20.4176 31.9999 24.4173 30.2094 27.3126 27.3145H4.68701Z" fill="#A2001D"/>
<path d="M15.9999 1.73926L16.259 2.53638H17.0971L16.419 3.02907L16.6781 3.82619L15.9999 3.33357L15.3218 3.82619L15.5809 3.02907L14.9027 2.53638H15.7408L15.9999 1.73926Z" fill="#FFDA44"/>
<path d="M12.1201 1.73926L12.3792 2.53638H13.2173L12.5393 3.02907L12.7983 3.82619L12.1201 3.33357L11.4421 3.82619L11.7011 3.02907L11.0229 2.53638H11.8611L12.1201 1.73926Z" fill="#FFDA44"/>
<path d="M19.8805 1.73926L20.1396 2.53638H20.9777L20.2996 3.02907L20.5587 3.82619L19.8805 3.33357L19.2024 3.82619L19.4615 3.02907L18.7833 2.53638H19.6215L19.8805 1.73926Z" fill="#FFDA44"/>
<path d="M15.9999 28.1743L16.259 28.9714H17.0971L16.419 29.4641L16.6781 30.2613L15.9999 29.7686L15.3218 30.2613L15.5809 29.4641L14.9027 28.9714H15.7408L15.9999 28.1743Z" fill="#FFDA44"/>
<path d="M12.1201 28.1743L12.3792 28.9714H13.2173L12.5393 29.4641L12.7983 30.2613L12.1201 29.7686L11.4421 30.2613L11.7011 29.4641L11.0229 28.9714H11.8611L12.1201 28.1743Z" fill="#FFDA44"/>
<path d="M19.8805 28.1743L20.1396 28.9714H20.9777L20.2996 29.4641L20.5587 30.2613L19.8805 29.7686L19.2024 30.2613L19.4615 29.4641L18.7833 28.9714H19.6215L19.8805 28.1743Z" fill="#FFDA44"/>
<path d="M4.87544 15.7359C5.28638 16.3852 5.09325 17.2446 4.44394 17.6556C3.79469 18.0666 2.93518 17.8735 2.52418 17.2242C1.78012 16.0487 2.21156 14.1289 2.21156 14.1289C2.21156 14.1289 4.13131 14.5603 4.87544 15.7359V15.7359Z" fill="#FFDA44"/>
<path d="M4.07197 17.7633C4.45615 17.7633 4.76759 17.4519 4.76759 17.0677C4.76759 16.6835 4.45615 16.3721 4.07197 16.3721C3.68779 16.3721 3.37634 16.6835 3.37634 17.0677C3.37634 17.4519 3.68779 17.7633 4.07197 17.7633Z" fill="#A2001D"/>
</svg>
