<svg width="32" height="32" viewBox="0 0 32 32" fill="none" xmlns="http://www.w3.org/2000/svg">
<g clip-path="url(#clip0_16_12075)">
<path d="M16 32C24.8366 32 32 24.8366 32 16C32 7.16344 24.8366 0 16 0C7.16344 0 0 7.16344 0 16C0 24.8366 7.16344 32 16 32Z" fill="#F0F0F0"/>
<path d="M16 0C9.12061 0 3.25593 4.342 0.995239 10.4348H31.0049C28.7442 4.342 22.8795 0 16 0V0Z" fill="#D80027"/>
<path d="M15.9999 32.0002C22.8794 32.0002 28.744 27.6582 31.0047 21.5654H0.995117C3.2558 27.6582 9.12049 32.0002 15.9999 32.0002Z" fill="#338AF3"/>
</g>
<defs>
<clipPath id="clip0_16_12075">
<rect width="32" height="32" fill="white"/>
</clipPath>
</defs>
</svg>
