<svg width="32" height="32" viewBox="0 0 32 32" fill="none" xmlns="http://www.w3.org/2000/svg">
<path d="M16 32C24.8366 32 32 24.8366 32 16C32 7.16344 24.8366 0 16 0C7.16344 0 0 7.16344 0 16C0 24.8366 7.16344 32 16 32Z" fill="#F9F9F9"/>
<path d="M16.0005 31.9998C22.8799 31.9998 28.7446 27.6578 31.0052 21.565H0.995605C3.25636 27.6578 9.12098 31.9998 16.0005 31.9998Z" fill="#D80027"/>
<path d="M22.2617 13.2172V11.1303H22.9573V9.73898H21.566V10.4347H20.1748V9.73898H18.7834V11.1303H19.4791V13.2172H18.0878V8.34779H18.7834V6.95654H17.3921V7.65204H16.6964V6.95654H15.3052V7.65204H14.6095V6.95654H13.2182V8.34779H13.9139V13.2172H12.5226V11.1303H13.2182V9.73898H11.8269V10.4347H10.4356V9.73898H9.04432V11.1303H9.73995V13.2172H8.34863V18.7825H23.653V13.2172H22.2617Z" fill="#D80027"/>
<path d="M15.9998 18.0869C14.8473 18.0869 13.9129 19.0213 13.9129 20.1739C13.9129 21.0824 14.4938 21.8551 15.3042 22.1416V25.0435H13.2173V27.8261H16.6955V22.1417C17.506 21.8552 18.0868 21.0825 18.0868 20.1739C18.0868 19.0214 17.1524 18.0869 15.9998 18.0869V18.0869ZM15.9998 20.8695C15.6157 20.8695 15.3042 20.558 15.3042 20.1739C15.3042 19.7897 15.6157 19.4783 15.9998 19.4783C16.384 19.4783 16.6955 19.7897 16.6955 20.1739C16.6955 20.558 16.384 20.8695 15.9998 20.8695Z" fill="#FFDA44"/>
</svg>
