<svg width="32" height="32" viewBox="0 0 32 32" fill="none" xmlns="http://www.w3.org/2000/svg">
<path d="M16 32C24.8366 32 32 24.8366 32 16C32 7.16344 24.8366 0 16 0C7.16344 0 0 7.16344 0 16C0 24.8366 7.16344 32 16 32Z" fill="#F0F0F0"/>
<path d="M15.9999 0C9.65652 0 4.17552 3.69156 1.58752 9.0435H30.4122C27.8243 3.69156 22.3432 0 15.9999 0V0Z" fill="#338AF3"/>
<path d="M15.9999 32C22.3432 32 27.8243 28.3084 30.4123 22.9565H1.58752C4.17552 28.3084 9.65652 32 15.9999 32Z" fill="#338AF3"/>
<path d="M15.9997 11.1304C13.3103 11.1304 11.1301 13.3106 11.1301 15.9999C11.1301 18.6893 13.3103 20.8695 15.9997 20.8695C18.6891 20.8695 20.8693 18.6893 20.8693 15.9999C20.8693 13.3106 18.6891 11.1304 15.9997 11.1304ZM15.9997 18.7826C14.4629 18.7826 13.2171 17.5368 13.2171 15.9999C13.2171 14.4631 14.4629 13.2173 15.9997 13.2173C17.5365 13.2173 18.7823 14.4631 18.7823 15.9999C18.7823 17.5368 17.5364 18.7826 15.9997 18.7826Z" fill="#FFDA44"/>
<path d="M18.4096 16.6956L15.9997 16L13.5899 16.6956L12.7866 18.0869H19.2128L18.4096 16.6956Z" fill="#0052B4"/>
<path d="M16.0002 12.522L14.3937 15.3046L16.0002 16.0002L17.6068 15.3046L16.0002 12.522Z" fill="#338AF3"/>
<path d="M13.5902 16.6954H18.41L17.6066 15.3042H14.3935L13.5902 16.6954Z" fill="#6DA544"/>
</svg>
