<svg width="32" height="32" viewBox="0 0 32 32" fill="none" xmlns="http://www.w3.org/2000/svg">
<path d="M16 32C24.8366 32 32 24.8366 32 16C32 7.16344 24.8366 0 16 0C7.16344 0 0 7.16344 0 16C0 24.8366 7.16344 32 16 32Z" fill="#F0F0F0"/>
<path d="M3.87078 5.56543C3.30934 6.21749 2.79965 6.91518 2.3479 7.65237H29.6512C29.1994 6.91518 28.6898 6.21743 28.1283 5.56543H3.87078Z" fill="#D80027"/>
<path d="M3.87083 26.435H28.1284C28.6898 25.783 29.1995 25.0853 29.6513 24.3481H2.34802C2.79971 25.0852 3.3094 25.783 3.87083 26.435V26.435Z" fill="#D80027"/>
<path d="M13.9521 13.0742L15.2648 14.8833L17.3909 14.1939L16.0761 16.0014L17.3887 17.8104L15.2634 17.1184L13.9486 18.9259L13.9499 16.6908L11.8246 15.9988L13.9507 15.3095L13.9521 13.0742Z" fill="#D80027"/>
<path d="M10.3694 20.5221C7.87212 20.5221 5.84762 18.4976 5.84762 16.0003C5.84762 13.5031 7.87212 11.4786 10.3694 11.4786C11.148 11.4786 11.8807 11.6754 12.5203 12.0221C11.5169 11.0407 10.1446 10.4351 8.63025 10.4351C5.55662 10.4351 3.06506 12.9267 3.06506 16.0002C3.06506 19.0738 5.55669 21.5654 8.63025 21.5654C10.1446 21.5654 11.5169 20.9597 12.5203 19.9784C11.8807 20.3252 11.1481 20.5221 10.3694 20.5221Z" fill="#D80027"/>
</svg>
