<svg width="32" height="32" viewBox="0 0 32 32" fill="none" xmlns="http://www.w3.org/2000/svg">
<path d="M16 32C24.8366 32 32 24.8366 32 16C32 7.16344 24.8366 0 16 0C7.16344 0 0 7.16344 0 16C0 24.8366 7.16344 32 16 32Z" fill="#F0F0F0"/>
<path d="M25.7422 3.30637C20.0139 -1.1015 11.9859 -1.1015 6.25769 3.30631L15.9999 13.0486L25.7422 3.30637Z" fill="#D80027"/>
<path d="M15.9998 18.9513L6.25769 28.6934C11.9859 33.1013 20.0139 33.1013 25.7422 28.6934L15.9999 18.9511L15.9998 18.9513Z" fill="#D80027"/>
<path d="M13.0481 16.0001L3.3059 6.25781C-1.10197 11.9861 -1.10197 20.0141 3.3059 25.7423L13.0481 16.0001Z" fill="#6DA544"/>
<path d="M18.9512 16.0001L28.6933 25.7423C33.1012 20.0141 33.1012 11.9861 28.6933 6.25781L18.9512 16.0001Z" fill="#6DA544"/>
<path d="M16.0004 22.9565C19.8424 22.9565 22.9569 19.8419 22.9569 16C22.9569 12.158 19.8424 9.04346 16.0004 9.04346C12.1585 9.04346 9.04395 12.158 9.04395 16C9.04395 19.8419 12.1585 22.9565 16.0004 22.9565Z" fill="#F0F0F0"/>
<path d="M16.0007 11.1304L16.6031 12.1739H17.808L17.2055 13.2173L17.808 14.2608H16.6031L16.0007 15.3043L15.3982 14.2608H14.1934L14.7958 13.2173L14.1934 12.1739H15.3982L16.0007 11.1304Z" fill="#D80027"/>
<path d="M12.9382 15.9999L13.5407 17.0434H14.7455L14.1431 18.0869L14.7455 19.1304H13.5407L12.9382 20.1739L12.3357 19.1304H11.1309L11.7333 18.0869L11.1309 17.0434H12.3357L12.9382 15.9999Z" fill="#D80027"/>
<path d="M19.0623 16L19.6647 17.0435H20.8696L20.2671 18.0869L20.8696 19.1304H19.6647L19.0623 20.1739L18.4598 19.1304H17.2549L17.8573 18.0869L17.2549 17.0435H18.4598L19.0623 16Z" fill="#D80027"/>
</svg>
