<svg width="32" height="32" viewBox="0 0 32 32" fill="none" xmlns="http://www.w3.org/2000/svg">
<g clip-path="url(#clip0_16_12522)">
<path d="M1.58763 9.04366C0.5705 11.1472 0 13.507 0 16.0002C0 18.4933 0.5705 20.8532 1.58763 22.9567L16 24.348L30.4124 22.9567C31.4295 20.8532 32 18.4933 32 16.0002C32 13.507 31.4295 11.1472 30.4124 9.04366L16 7.65234L1.58763 9.04366Z" fill="#F0F0F0"/>
<path d="M1.58777 22.9565C4.17564 28.3085 9.65627 32 15.9996 32C22.3429 32 27.8235 28.3085 30.4114 22.9565H1.58777Z" fill="#496E2D"/>
<path d="M1.58777 9.0435H30.4114C27.8235 3.69156 22.3429 0 15.9996 0C9.6562 0 4.17564 3.69156 1.58777 9.0435Z" fill="black"/>
<path d="M4.68628 4.68604C-1.56209 10.9344 -1.56209 21.0651 4.68628 27.3135C7.26834 24.7315 9.75165 22.2482 16 15.9998L4.68628 4.68604Z" fill="#D80027"/>
<path d="M20.1738 15.9999C20.1738 13.6688 21.8121 11.7214 23.9999 11.2436C23.6636 11.1702 23.3147 11.1304 22.9564 11.1304C20.2669 11.1304 18.0868 13.3105 18.0868 15.9999C18.0868 18.6894 20.2669 20.8695 22.9564 20.8695C23.3147 20.8695 23.6635 20.8297 23.9999 20.7562C21.8121 20.2785 20.1738 18.3311 20.1738 15.9999Z" fill="#D80027"/>
<path d="M24.2044 12.8691L24.8952 14.995H27.1303L25.3221 16.3086L26.0128 18.4344L24.2044 17.1206L22.3962 18.4344L23.0871 16.3086L21.2787 14.995H23.5137L24.2044 12.8691Z" fill="#D80027"/>
</g>
<defs>
<clipPath id="clip0_16_12522">
<rect width="32" height="32" fill="white"/>
</clipPath>
</defs>
</svg>
