<svg width="32" height="32" viewBox="0 0 32 32" fill="none" xmlns="http://www.w3.org/2000/svg">
<g clip-path="url(#clip0_16_12673)">
<path d="M31.0048 21.5652C31.6479 19.8319 32 17.9571 32 16C32 14.0429 31.6479 12.1681 31.0048 10.4348L16 9.0435L0.995188 10.4348C0.352063 12.1681 0 14.0429 0 16C0 17.9571 0.352063 19.8319 0.995188 21.5652L16 22.9565L31.0048 21.5652Z" fill="#F0F0F0"/>
<path d="M16 32.0002C22.8794 32.0002 28.7441 27.6582 31.0047 21.5654H0.995117C3.25587 27.6582 9.12049 32.0002 16 32.0002Z" fill="#D80027"/>
<path d="M16 0C9.12049 0 3.25587 4.342 0.995117 10.4348H31.0048C28.7441 4.342 22.8794 0 16 0Z" fill="#496E2D"/>
<path d="M16 12.522L16.8633 15.179H19.6573L17.397 16.8213L18.2604 19.4785L16 17.8364L13.7396 19.4785L14.6031 16.8213L12.3428 15.179H15.1367L16 12.522Z" fill="black"/>
<path d="M20.7537 3.13037V6.37668C20.7537 6.88824 20.3376 7.30424 19.8262 7.30424V8.69555C21.1048 8.69555 22.145 7.65537 22.145 6.37668V3.13037H20.7537Z" fill="#F0F0F0"/>
<path d="M10.783 6.37668C10.783 6.88824 10.367 7.30424 9.85547 7.30424V8.69555C11.1342 8.69555 12.1743 7.65537 12.1743 6.37668V3.13037H10.783V6.37668Z" fill="#F0F0F0"/>
<path d="M18.667 3.13037H20.0583V6.37668H18.667V3.13037Z" fill="#F0F0F0"/>
<path d="M16.5803 4.98537C16.5803 5.11324 16.4762 5.21731 16.3484 5.21731C16.2206 5.21731 16.1165 5.11324 16.1165 4.98537V3.13037H14.7252V4.98537C14.7252 5.11324 14.6212 5.21731 14.4933 5.21731C14.3654 5.21731 14.2614 5.11324 14.2614 4.98537V3.13037H12.8701V4.98537C12.8701 5.88049 13.5982 6.60862 14.4933 6.60862C14.838 6.60862 15.1577 6.50031 15.4208 6.31637C15.684 6.50031 16.0037 6.60862 16.3484 6.60862C16.4178 6.60862 16.4861 6.60374 16.5532 6.59518C16.4546 7.00137 16.0887 7.30424 15.6527 7.30424V8.69555C16.9314 8.69555 17.9716 7.65537 17.9716 6.37668V4.98537V3.13037H16.5802L16.5803 4.98537Z" fill="#F0F0F0"/>
<path d="M12.8701 7.3042H14.9571V8.69552H12.8701V7.3042Z" fill="#F0F0F0"/>
</g>
<defs>
<clipPath id="clip0_16_12673">
<rect width="32" height="32" fill="white"/>
</clipPath>
</defs>
</svg>
