<svg width="32" height="32" viewBox="0 0 32 32" fill="none" xmlns="http://www.w3.org/2000/svg">
<path d="M16 32C24.8366 32 32 24.8366 32 16C32 7.16344 24.8366 0 16 0C7.16344 0 0 7.16344 0 16C0 24.8366 7.16344 32 16 32Z" fill="#D80027"/>
<path d="M23.8244 16.0001L20.6272 17.504L22.3298 20.6007L18.8577 19.9364L18.418 23.4436L15.9996 20.8643L13.5813 23.4436L13.1414 19.9364L9.66962 20.6006L11.3721 17.5039L8.1748 16.0001L11.3721 14.4963L9.66962 11.3996L13.1412 12.064L13.5814 8.55664L15.9996 11.1361L18.4181 8.55664L18.8577 12.064L22.3299 11.3996L20.6273 14.4965L23.8244 16.0001Z" fill="#FFDA44"/>
<path d="M16.0004 20.8695C18.6898 20.8695 20.87 18.6893 20.87 15.9999C20.87 13.3105 18.6898 11.1304 16.0004 11.1304C13.311 11.1304 11.1309 13.3105 11.1309 15.9999C11.1309 18.6893 13.311 20.8695 16.0004 20.8695Z" fill="#D80027"/>
<path d="M13.5652 16C13.4479 16 13.3321 16.006 13.2178 16.0174C13.222 16.6918 13.466 17.3091 13.869 17.7887C14.084 17.2101 14.405 16.6826 14.8098 16.2311C14.4231 16.0824 14.0037 16 13.5652 16Z" fill="#FFDA44"/>
<path d="M15.0645 18.621C15.357 18.7255 15.6719 18.7828 16.0004 18.7828C16.3289 18.7828 16.6438 18.7255 16.9363 18.621C16.7769 17.9953 16.4477 17.4367 16.0004 16.9977C15.5531 17.4366 15.2239 17.9953 15.0645 18.621Z" fill="#FFDA44"/>
<path d="M18.4102 14.6091C17.9291 13.7775 17.0305 13.2174 16.0005 13.2174C14.9705 13.2174 14.0719 13.7774 13.5908 14.6091C14.4679 14.6136 15.2904 14.8521 16.0005 15.2639C16.7106 14.8521 17.5329 14.6136 18.4102 14.6091Z" fill="#FFDA44"/>
<path d="M17.1904 16.2312C17.5952 16.6826 17.9162 17.2102 18.1312 17.7888C18.5342 17.3092 18.7782 16.6919 18.7824 16.0175C18.6681 16.006 18.5522 16.0001 18.435 16.0001C17.9966 16 17.5772 16.0824 17.1904 16.2312V16.2312Z" fill="#FFDA44"/>
</svg>
