<svg width="32" height="32" viewBox="0 0 32 32" fill="none" xmlns="http://www.w3.org/2000/svg">
<g clip-path="url(#clip0_16_11667)">
<path d="M14.609 14.6089C14.609 14.6089 4.6959 27.3162 4.68652 27.3139C7.5819 30.2093 11.582 32.0002 16.0003 32.0002C24.8368 32.0002 32.0003 24.8367 32.0003 16.0002L14.609 14.6089Z" fill="#338AF3"/>
<path d="M14.609 16C14.609 16 4.6959 4.68406 4.68652 4.68631C7.5819 1.79088 11.582 0 16.0003 0C24.8368 0 32.0003 7.1635 32.0003 16H14.609Z" fill="#6DA544"/>
<path d="M4.68628 4.68604C-1.56209 10.9344 -1.56209 21.0651 4.68628 27.3135C4.68584 27.3161 32 15.9998 32 15.9998L4.68628 4.68604Z" fill="#D80027"/>
<path d="M8.34741 9.39111C5.27873 9.39111 2.78223 11.8877 2.78223 14.9563V17.0432C2.78223 20.1119 5.27879 22.6084 8.34741 22.6084C11.416 22.6084 13.9126 20.1119 13.9126 17.0432V14.9563C13.9127 11.8877 11.4161 9.39111 8.34741 9.39111ZM11.8257 17.0433C11.8257 18.5978 10.8005 19.9171 9.39085 20.3614V18.0868L10.8673 16.6103L9.39166 15.1346L9.39085 14.6094V13.9129H7.30398V15.9998L5.82848 17.4752L7.30398 18.9507V20.3615C5.89429 19.9172 4.86916 18.5979 4.86916 17.0434V14.9564C4.86916 13.0385 6.42954 11.4782 8.34741 11.4782C10.2653 11.4782 11.8257 13.0386 11.8257 14.9564V17.0433Z" fill="#FFDA44"/>
</g>
<defs>
<clipPath id="clip0_16_11667">
<rect width="32" height="32" fill="white"/>
</clipPath>
</defs>
</svg>
