<svg width="32" height="32" viewBox="0 0 32 32" fill="none" xmlns="http://www.w3.org/2000/svg">
<path d="M16 32C24.8366 32 32 24.8366 32 16C32 7.16344 24.8366 0 16 0C7.16344 0 0 7.16344 0 16C0 24.8366 7.16344 32 16 32Z" fill="#F0F0F0"/>
<path d="M4.68581 4.68625C1.25675 8.11532 -0.289939 12.7137 0.0446233 17.1978L17.1973 0.0451268C12.7132 -0.289498 8.11488 1.25719 4.68581 4.68625V4.68625Z" fill="#FFDA44"/>
<path d="M5.71326 28.2542C11.9996 33.5431 21.397 33.2303 27.3139 27.3135C33.2308 21.3966 33.5436 11.9991 28.2546 5.71289L5.71326 28.2542Z" fill="#0052B4"/>
<path d="M15.9425 15.3557L17.3214 14.6089L15.9425 13.862C15.6206 11.7707 13.9682 10.1182 11.8769 9.79636L11.13 8.41748L10.3831 9.79629C8.29185 10.1182 6.63947 11.7706 6.31747 13.8619L4.9386 14.6089L6.31741 15.3557C6.63935 17.447 8.29172 19.0995 10.383 19.4214L11.13 20.8002L11.8768 19.4214C13.9682 19.0995 15.6206 17.447 15.9425 15.3557V15.3557ZM11.13 17.3915C9.59322 17.3915 8.34741 16.1457 8.34741 14.6089C8.34741 13.072 9.59316 11.8262 11.13 11.8262C12.6669 11.8262 13.9127 13.072 13.9127 14.6089C13.9127 16.1457 12.6669 17.3915 11.13 17.3915Z" fill="black"/>
<path d="M11.1299 12.522L11.7324 13.5654H12.9373L12.3348 14.6089L12.9373 15.6524H11.7324L11.1299 16.6958L10.5275 15.6524H9.32263L9.92507 14.6089L9.32263 13.5654H10.5275L11.1299 12.522Z" fill="#D80027"/>
</svg>
