<svg width="32" height="32" viewBox="0 0 32 32" fill="none" xmlns="http://www.w3.org/2000/svg">
<path d="M16 32C24.8366 32 32 24.8366 32 16C32 7.16344 24.8366 0 16 0C7.16344 0 0 7.16344 0 16C0 24.8366 7.16344 32 16 32Z" fill="#F0F0F0"/>
<path d="M12.5225 13.9131H31.8653C30.8426 6.06262 24.1299 0 16.0007 0C14.806 0 13.6425 0.132063 12.5225 0.380313V13.9131H12.5225Z" fill="#D80027"/>
<path d="M8.34811 13.9129V1.94531C3.9548 4.34244 0.809679 8.73938 0.135742 13.9129H8.34811V13.9129Z" fill="#D80027"/>
<path d="M8.34804 18.0869H0.135742C0.809679 23.2605 3.9548 27.6574 8.34811 30.0545L8.34804 18.0869Z" fill="#D80027"/>
<path d="M12.5225 18.087V31.6197C13.6425 31.8679 14.806 32 16.0007 32C24.1299 32 30.8426 25.9374 31.8653 18.0869H12.5225V18.087Z" fill="#D80027"/>
</svg>
