<svg width="32" height="32" viewBox="0 0 32 32" fill="none" xmlns="http://www.w3.org/2000/svg">
<path d="M16 0C24.8365 0 32 7.1635 32 16C32 24.8365 24.8365 32 16 32C16 31.3044 13.9131 16 13.9131 16L16 0Z" fill="#F0F0F0"/>
<path d="M16 32C7.1635 32 0 24.8365 0 16C0 7.1635 7.1635 0 16 0" fill="#496E2D"/>
<path d="M19.4378 12.9307L18.1251 14.7397L15.999 14.0502L17.3139 15.8577L16.0013 17.6668L18.1265 16.9749L19.4414 18.7823L19.44 16.5472L21.5653 15.8552L19.4393 15.1659L19.4378 12.9307Z" fill="#D80027"/>
<path d="M17.3277 20.5216C14.8305 20.5216 12.806 18.4971 12.806 15.9998C12.806 13.5026 14.8305 11.4781 17.3277 11.4781C18.1064 11.4781 18.8391 11.6749 19.4787 12.0216C18.4752 11.0403 17.1029 10.4346 15.5886 10.4346C12.515 10.4346 10.0234 12.9262 10.0234 15.9998C10.0234 19.0733 12.5151 21.5649 15.5886 21.5649C17.103 21.5649 18.4752 20.9593 19.4787 19.9779C18.8391 20.3247 18.1064 20.5216 17.3277 20.5216Z" fill="#D80027"/>
</svg>
