<svg width="32" height="32" viewBox="0 0 32 32" fill="none" xmlns="http://www.w3.org/2000/svg">
<g clip-path="url(#clip0_16_12395)">
<path d="M16 32C24.8366 32 32 24.8366 32 16C32 7.16344 24.8366 0 16 0C7.16344 0 0 7.16344 0 16C0 24.8366 7.16344 32 16 32Z" fill="#F0F0F0"/>
<path d="M0 15.9999C0 22.0645 3.37431 27.3407 8.34781 30.0544V1.94531C3.37431 4.659 0 9.93518 0 15.9999Z" fill="#F0F0F0"/>
<path d="M16.0005 0C13.2286 0 10.6215 0.705188 8.34827 1.94544V30.0545C10.6215 31.2948 13.2286 32 16.0005 32C24.837 32 32.0005 24.8365 32.0005 16C32.0005 7.1635 24.837 0 16.0005 0Z" fill="#496E2D"/>
<path d="M22.8405 18.6462C20.8163 20.1087 17.9897 19.6535 16.5272 17.6294C15.0646 15.6051 15.5199 12.7785 17.5441 11.316C18.1752 10.86 18.8843 10.5905 19.6058 10.4968C18.2178 10.2892 16.7506 10.602 15.5233 11.4888C13.0321 13.2889 12.4716 16.7677 14.2717 19.2591C16.0718 21.7503 19.5506 22.3108 22.042 20.5106C23.2695 19.6237 24.027 18.3292 24.2656 16.9461C23.9503 17.6015 23.4717 18.1901 22.8405 18.6462V18.6462Z" fill="#F0F0F0"/>
<path d="M22.7542 10.4351L23.8944 11.6639L25.4154 10.9594L24.599 12.4234L25.7392 13.6523L24.0944 13.3282L23.278 14.7924L23.078 13.128L21.4332 12.8039L22.9543 12.0994L22.7542 10.4351Z" fill="#F0F0F0"/>
</g>
<defs>
<clipPath id="clip0_16_12395">
<rect width="32" height="32" fill="white"/>
</clipPath>
</defs>
</svg>
