<svg width="32" height="32" viewBox="0 0 32 32" fill="none" xmlns="http://www.w3.org/2000/svg">
<path d="M32 16C32 24.8365 24.8365 32 16 32C7.1635 32 0 24.8365 0 16C0 7.1635 16 0 16 0C16 0 32 7.1635 32 16Z" fill="#A2001D"/>
<path d="M0 16C0 7.1635 7.1635 0 16 0C24.8365 0 32 7.1635 32 16" fill="#0052B4"/>
<path d="M21.5651 20.174L15.9999 19.4784L10.4347 20.174V11.8262H21.5651V20.174Z" fill="#F0F0F0"/>
<path d="M16 19.4783C17.5368 19.4783 18.7827 18.2324 18.7827 16.6956C18.7827 15.1588 17.5368 13.913 16 13.913C14.4632 13.913 13.2174 15.1588 13.2174 16.6956C13.2174 18.2324 14.4632 19.4783 16 19.4783Z" fill="#0052B4"/>
<path d="M16.0003 18.0868C16.7687 18.0868 17.3916 17.4639 17.3916 16.6955C17.3916 15.9271 16.7687 15.3042 16.0003 15.3042C15.2319 15.3042 14.609 15.9271 14.609 16.6955C14.609 17.4639 15.2319 18.0868 16.0003 18.0868Z" fill="#A2001D"/>
<path d="M13.9127 13.2173H18.0866L15.9997 15.3043L13.9127 13.2173Z" fill="#6DA544"/>
<path d="M15.3044 14.6089H16.6958V18.7828H15.3044V14.6089Z" fill="#FFDA44"/>
<path d="M18.2261 18.3652H13.7738L10.4348 20.1739H21.5652L18.2261 18.3652Z" fill="#6DA544"/>
</svg>
