<svg width="32" height="32" viewBox="0 0 32 32" fill="none" xmlns="http://www.w3.org/2000/svg">
<path d="M16 32C24.8366 32 32 24.8366 32 16C32 7.16344 24.8366 0 16 0C7.16344 0 0 7.16344 0 16C0 24.8366 7.16344 32 16 32Z" fill="#0052B4"/>
<path d="M7.0283 9.73929L7.37368 10.8023H8.49118L7.58712 11.4591L7.93243 12.5219L7.0283 11.8651L6.12412 12.5219L6.46955 11.4591L5.56543 10.8023H6.68287L7.0283 9.73929Z" fill="#F0F0F0"/>
<path d="M10.5066 8.6958L10.852 9.75874H11.9695L11.0654 10.4156L11.4108 11.4784L10.5066 10.8216L9.60251 11.4784L9.94789 10.4156L9.04382 9.75874H10.1613L10.5066 8.6958Z" fill="#F0F0F0"/>
<path d="M13.985 7.65234L14.3304 8.71528H15.4479L14.5438 9.37216L14.8892 10.435L13.985 9.77809L13.0809 10.435L13.4263 9.37216L12.5222 8.71528H13.6397L13.985 7.65234Z" fill="#F0F0F0"/>
<path d="M24.9719 9.73926L24.6265 10.8023H23.509L24.4132 11.4591L24.0678 12.5219L24.9719 11.8651L25.8761 12.5219L25.5307 11.4591L26.4348 10.8023H25.3173L24.9719 9.73926Z" fill="#F0F0F0"/>
<path d="M21.4934 8.6958L21.148 9.75874H20.0305L20.9346 10.4156L20.5893 11.4784L21.4934 10.8216L22.3975 11.4784L22.0521 10.4156L22.9562 9.75874H21.8387L21.4934 8.6958Z" fill="#F0F0F0"/>
<path d="M18.016 7.65234L17.6706 8.71528H16.5531L17.4572 9.37216L17.1119 10.435L18.016 9.77809L18.9201 10.435L18.5747 9.37216L19.4788 8.71528H18.3613L18.016 7.65234Z" fill="#F0F0F0"/>
<path d="M18.7821 16.6955L15.9994 13.2173L14.6081 13.9129V15.3042L12.5212 16.6955H11.1299V18.493C13.1691 19.3187 14.6081 21.3168 14.6081 23.6521H15.9994V22.2608L17.3908 20.8695L18.7821 22.2608L20.1734 20.8695V19.4782L21.5647 17.3912L18.7821 16.6955Z" fill="#FFDA44"/>
</svg>
