<svg width="32" height="32" viewBox="0 0 32 32" fill="none" xmlns="http://www.w3.org/2000/svg">
<g clip-path="url(#clip0_16_12286)">
<path d="M16 32C24.8366 32 32 24.8366 32 16C32 7.16344 24.8366 0 16 0C7.16344 0 0 7.16344 0 16C0 24.8366 7.16344 32 16 32Z" fill="#F0F0F0"/>
<path d="M16.0004 0C9.12098 0 3.25629 4.342 0.995605 10.4348H31.0053C28.7445 4.342 22.8799 0 16.0004 0V0Z" fill="#A2001D"/>
<path d="M16.0004 32.0002C22.8798 32.0002 28.7445 27.6582 31.0052 21.5654H0.995605C3.25629 27.6582 9.12098 32.0002 16.0004 32.0002Z" fill="#0052B4"/>
</g>
<defs>
<clipPath id="clip0_16_12286">
<rect width="32" height="32" fill="white"/>
</clipPath>
</defs>
</svg>
