<svg width="32" height="32" viewBox="0 0 32 32" fill="none" xmlns="http://www.w3.org/2000/svg">
<g clip-path="url(#clip0_16_11643)">
<path d="M16 32C24.8366 32 32 24.8366 32 16C32 7.16344 24.8366 0 16 0C7.16344 0 0 7.16344 0 16C0 24.8366 7.16344 32 16 32Z" fill="#F0F0F0"/>
<path d="M16 0C9.12061 0 3.25593 4.342 0.995239 10.4348H31.0049C28.7442 4.342 22.8795 0 16 0V0Z" fill="#D80027"/>
<path d="M15.9999 32.0002C22.8794 32.0002 28.744 27.6582 31.0047 21.5654H0.995117C3.2558 27.6582 9.12049 32.0002 15.9999 32.0002Z" fill="black"/>
<path d="M21.5651 14.2609H17.3911C17.3911 13.4926 16.7682 12.8696 15.9998 12.8696C15.2314 12.8696 14.6085 13.4926 14.6085 14.2609H10.4346C10.4346 15.0294 11.1039 15.6523 11.8723 15.6523H11.8259C11.8259 16.4207 12.4488 17.0436 13.2172 17.0436C13.2172 17.812 13.8401 18.4349 14.6085 18.4349H17.3911C18.1596 18.4349 18.7824 17.812 18.7824 17.0436C19.5509 17.0436 20.1738 16.4207 20.1738 15.6523H20.1274C20.8958 15.6523 21.5651 15.0294 21.5651 14.2609V14.2609Z" fill="#FF9811"/>
</g>
<defs>
<clipPath id="clip0_16_11643">
<rect width="32" height="32" fill="white"/>
</clipPath>
</defs>
</svg>
