<svg width="32" height="32" viewBox="0 0 32 32" fill="none" xmlns="http://www.w3.org/2000/svg">
<path d="M32 16C32 24.8365 24.8365 32 16 32C7.1635 32 0 24.8365 0 16C0.695625 16 16 13.9131 16 13.9131L32 16Z" fill="#D80027"/>
<path d="M0 16C0 7.1635 7.1635 0 16 0C24.8365 0 32 7.1635 32 16" fill="#0052B4"/>
<path d="M11.8263 11.1303C11.8263 9.97774 10.8919 9.04337 9.73938 9.04337C9.2047 9.04337 8.71738 9.24462 8.34807 9.57518V8.34768H9.0437V6.95637H8.34807V6.26074H6.95676V6.95637H6.26114V8.34768H6.95676V9.57518C6.58745 9.24462 6.10014 9.04337 5.56545 9.04337C4.41289 9.04337 3.47852 9.97774 3.47852 11.1303C3.47852 11.7482 3.74733 12.3032 4.17414 12.6854V13.9129H11.1306V12.6854C11.5576 12.3032 11.8263 11.7482 11.8263 11.1303V11.1303Z" fill="#FFDA44"/>
</svg>
