<svg width="32" height="32" viewBox="0 0 32 32" fill="none" xmlns="http://www.w3.org/2000/svg">
<g clip-path="url(#clip0_16_12021)">
<path d="M30.4126 9.0435C27.8246 3.69156 22.3436 0 16.0003 0C9.65689 0 4.17589 3.69156 1.58789 9.0435L16.0003 10.4348L30.4126 9.0435Z" fill="#D80027"/>
<path d="M1.58789 22.9567C4.17589 28.3087 9.65689 32.0002 16.0003 32.0002C22.3436 32.0002 27.8246 28.3087 30.4126 22.9567L16.0003 21.5654L1.58789 22.9567Z" fill="#D80027"/>
<path d="M30.4124 9.0435H1.58763C0.5705 11.1469 0 13.5068 0 16C0 18.4932 0.5705 20.8531 1.58763 22.9565H30.4123C31.4296 20.8531 32 18.4932 32 16C32 13.5068 31.4296 11.1469 30.4124 9.0435V9.0435Z" fill="#0052B4"/>
<path d="M15.9998 21.5649C19.0733 21.5649 21.5649 19.0733 21.5649 15.9998C21.5649 12.9262 19.0733 10.4346 15.9998 10.4346C12.9262 10.4346 10.4346 12.9262 10.4346 15.9998C10.4346 19.0733 12.9262 21.5649 15.9998 21.5649Z" fill="#F0F0F0"/>
</g>
<defs>
<clipPath id="clip0_16_12021">
<rect width="32" height="32" fill="white"/>
</clipPath>
</defs>
</svg>
