<svg width="32" height="32" viewBox="0 0 32 32" fill="none" xmlns="http://www.w3.org/2000/svg">
<g clip-path="url(#clip0_16_11672)">
<path d="M0 16.0001C0 17.9573 0.352063 19.832 0.995188 21.5653L16 22.261L31.0048 21.5654C31.648 19.832 32 17.9573 32 16.0001C32 14.043 31.648 12.1683 31.0048 10.4349L16 9.73926L0.995188 10.4349C0.352063 12.1683 0 14.043 0 16.0001H0Z" fill="black"/>
<path d="M16 0C9.12061 0 3.25593 4.342 0.995239 10.4348H31.0049C28.7442 4.342 22.8795 0 16 0V0Z" fill="#0052B4"/>
<path d="M31.0047 21.5654H0.995117C3.2558 27.6582 9.12049 32.0002 15.9999 32.0002C22.8794 32.0002 28.744 27.6582 31.0047 21.5654Z" fill="#F0F0F0"/>
</g>
<defs>
<clipPath id="clip0_16_11672">
<rect width="32" height="32" fill="white"/>
</clipPath>
</defs>
</svg>
