<svg width="32" height="32" viewBox="0 0 32 32" fill="none" xmlns="http://www.w3.org/2000/svg">
<g clip-path="url(#clip0_16_12547)">
<path d="M16 32C24.8366 32 32 24.8366 32 16C32 7.16344 24.8366 0 16 0C7.16344 0 0 7.16344 0 16C0 24.8366 7.16344 32 16 32Z" fill="#FFDA44"/>
<path d="M9.73895 10.4348H31.0046C28.7439 4.342 22.8792 0 15.9998 0C11.5815 0 7.58189 1.79119 4.68665 4.68681L9.73895 10.4348Z" fill="#6DA544"/>
<path d="M9.73895 21.5654H31.0046C28.7439 27.6582 22.8792 32.0002 15.9998 32.0002C11.5815 32.0002 7.58189 30.2091 4.68665 27.3134L9.73895 21.5654Z" fill="#6DA544"/>
<path d="M4.68628 4.68604C-1.56209 10.9344 -1.56209 21.0651 4.68628 27.3135C7.26834 24.7315 9.75165 22.2482 16 15.9998L4.68628 4.68604Z" fill="#D80027"/>
<path d="M20.3169 13.2173L21.0076 15.343H23.2427L21.4345 16.6568L22.1252 18.7825L20.3169 17.4687L18.5087 18.7825L19.1993 16.6568L17.3911 15.343H19.6262L20.3169 13.2173Z" fill="black"/>
<path d="M27.2738 13.2173L27.9644 15.343H30.1995L28.3913 16.6568L29.082 18.7825L27.2738 17.4687L25.4655 18.7825L26.1562 16.6568L24.3479 15.343H26.583L27.2738 13.2173Z" fill="black"/>
</g>
<defs>
<clipPath id="clip0_16_12547">
<rect width="32" height="32" fill="white"/>
</clipPath>
</defs>
</svg>
