<svg width="32" height="32" viewBox="0 0 32 32" fill="none" xmlns="http://www.w3.org/2000/svg">
<path d="M16 32C24.8366 32 32 24.8366 32 16C32 7.16344 24.8366 0 16 0C7.16344 0 0 7.16344 0 16C0 24.8366 7.16344 32 16 32Z" fill="#F0F0F0"/>
<path d="M0 16.0001C0 7.1635 7.1635 0 16 0C24.8365 0 32 7.1635 32 16.0001" fill="#D80027"/>
<path d="M9.73934 8.34752C9.73934 6.0164 11.3777 4.06903 13.5654 3.59121C13.2292 3.51784 12.8803 3.47803 12.5219 3.47803C9.83247 3.47803 7.65234 5.65815 7.65234 8.34759C7.65234 11.037 9.83247 13.2171 12.5219 13.2171C12.8802 13.2171 13.2291 13.1773 13.5654 13.1039C11.3777 12.6261 9.73934 10.6787 9.73934 8.34752V8.34752Z" fill="#F0F0F0"/>
<path d="M16 3.82568L16.3454 4.8885H17.4629L16.5587 5.54543L16.9041 6.60825L16 5.95143L15.0959 6.60825L15.4412 5.54543L14.5371 4.8885H15.6546L16 3.82568Z" fill="#F0F0F0"/>
<path d="M13.2892 5.9126L13.6345 6.97547H14.752L13.8479 7.63235L14.1933 8.69516L13.2892 8.03835L12.3849 8.69516L12.7304 7.63235L11.8262 6.97547H12.9437L13.2892 5.9126Z" fill="#F0F0F0"/>
<path d="M18.7109 5.9126L19.0564 6.97547H20.1739L19.2697 7.63235L19.6151 8.69516L18.7109 8.03835L17.8068 8.69516L18.1522 7.63235L17.248 6.97547H18.3655L18.7109 5.9126Z" fill="#F0F0F0"/>
<path d="M17.668 9.04346L18.0133 10.1063H19.1308L18.2267 10.7632L18.5721 11.826L17.668 11.1692L16.7638 11.826L17.1092 10.7632L16.2051 10.1063H17.3225L17.668 9.04346Z" fill="#F0F0F0"/>
<path d="M14.3331 9.04346L14.6784 10.1063H15.796L14.8918 10.7632L15.2372 11.826L14.3331 11.1692L13.4289 11.826L13.7742 10.7632L12.8701 10.1063H13.9877L14.3331 9.04346Z" fill="#F0F0F0"/>
</svg>
