<svg width="32" height="32" viewBox="0 0 32 32" fill="none" xmlns="http://www.w3.org/2000/svg">
<g clip-path="url(#clip0_16_11523)">
<path d="M32 16.0001C32 14.043 31.6479 12.1682 31.0048 10.4349L16 9.73926L0.995188 10.4349C0.352063 12.1682 0 14.043 0 16.0001C0 17.9573 0.352063 19.8321 0.995188 21.5653L16 22.261L31.0048 21.5654C31.6479 19.8321 32 17.9573 32 16.0001Z" fill="#F0F0F0"/>
<path d="M15.9999 32.0002C22.8794 32.0002 28.744 27.6582 31.0047 21.5654H0.995117C3.2558 27.6582 9.12049 32.0002 15.9999 32.0002Z" fill="#0052B4"/>
<path d="M0.995239 10.4348H31.0049C28.7442 4.342 22.8795 0 16 0C9.12061 0 3.25593 4.342 0.995239 10.4348V10.4348Z" fill="#D80027"/>
<path d="M20.1733 11.1304H17.3906L17.8544 7.65205L19.7094 6.26074L21.5645 7.65205V10.4347L20.1733 11.1304Z" fill="#338AF3"/>
<path d="M11.8258 11.1304H14.6084L14.1446 7.65205L12.2896 6.26074L10.4346 7.65205V10.4347L11.8258 11.1304Z" fill="#338AF3"/>
<path d="M17.8548 11.1304H14.1445V7.65205L15.9997 6.26074L17.8548 7.65205V11.1304Z" fill="#0052B4"/>
<path d="M10.4346 10.4351V18.0872C10.4346 19.9092 11.3147 21.5296 12.6722 22.5454L13.6461 22.3017L14.8751 23.5381C15.2386 23.613 15.6146 23.6524 15.9998 23.6524C16.3829 23.6524 16.7571 23.6135 17.1186 23.5394L18.5216 22.3712L19.3273 22.5432C20.6843 21.5274 21.565 19.9087 21.565 18.0872V10.4351H10.4346Z" fill="#F0F0F0"/>
<path d="M10.4346 10.4346H12.6606V12.6606H10.4346V10.4346Z" fill="#D80027"/>
<path d="M14.8867 10.4346H17.1128V12.6606H14.8867V10.4346Z" fill="#D80027"/>
<path d="M19.3389 10.4346H21.5649V12.6606H19.3389V10.4346Z" fill="#D80027"/>
<path d="M12.6602 12.6606H14.8862V14.8867H12.6602V12.6606Z" fill="#D80027"/>
<path d="M17.1133 12.6606H19.3393V14.8867H17.1133V12.6606Z" fill="#D80027"/>
<path d="M10.4346 14.8862H12.6606V17.1123H10.4346V14.8862Z" fill="#D80027"/>
<path d="M12.6602 17.1123H14.8862V19.3384H12.6602V17.1123Z" fill="#D80027"/>
<path d="M14.8867 14.8862H17.1128V17.1123H14.8867V14.8862Z" fill="#D80027"/>
<path d="M19.3389 14.8862H21.5649V17.1123H19.3389V14.8862Z" fill="#D80027"/>
<path d="M17.1133 17.1123H19.3393V19.3384H17.1133V17.1123Z" fill="#D80027"/>
<path d="M14.8867 19.3384H17.1128V21.5644H14.8867V19.3384Z" fill="#D80027"/>
<path d="M12.6607 19.3384H10.5782C10.7692 20.1659 11.1447 20.9231 11.6596 21.5644H12.6607V19.3384Z" fill="#D80027"/>
<path d="M19.3389 21.5645H20.3399C20.8549 20.9231 21.2302 20.1659 21.4212 19.3384H19.3389V21.5645Z" fill="#D80027"/>
<path d="M12.6602 21.5645V22.5358C13.3076 23.023 14.0642 23.3723 14.8862 23.5399V21.5645H12.6602Z" fill="#D80027"/>
<path d="M17.1133 21.5645V23.5399C17.9353 23.3724 18.6919 23.023 19.3393 22.5358V21.5645H17.1133Z" fill="#D80027"/>
</g>
<defs>
<clipPath id="clip0_16_11523">
<rect width="32" height="32" fill="white"/>
</clipPath>
</defs>
</svg>
