<svg width="32" height="32" viewBox="0 0 32 32" fill="none" xmlns="http://www.w3.org/2000/svg">
<g clip-path="url(#clip0_16_11412)">
<path d="M16 32C24.8366 32 32 24.8366 32 16C32 7.16344 24.8366 0 16 0C7.16344 0 0 7.16344 0 16C0 24.8366 7.16344 32 16 32Z" fill="#F0F0F0"/>
<path d="M30.0548 8.34779C27.9873 4.55848 24.4321 1.69792 20.1741 0.550293L19.4785 8.34779H30.0548Z" fill="#0052B4"/>
<path d="M1.94531 8.34779H12.5216L11.8259 0.550293C7.568 1.69792 4.01288 4.55854 1.94531 8.34779V8.34779Z" fill="#0052B4"/>
<path d="M19.4785 16V23.6522H30.0548C31.2951 21.379 32.0003 18.7719 32.0003 16H19.4785Z" fill="#6DA544"/>
<path d="M12.5218 16H0C0 18.7719 0.705188 21.379 1.94544 23.6522H12.5217V16H12.5218Z" fill="#6DA544"/>
<path d="M1.94531 23.6523C4.01288 27.4417 7.568 30.3022 11.8259 31.4498L12.5216 24.6305L1.94531 23.6523Z" fill="#FFDA44"/>
<path d="M20.1741 31.4498C24.4321 30.3022 27.9873 27.4417 30.0548 23.6523L19.4785 24.6304L20.1741 31.4498Z" fill="#FFDA44"/>
<path d="M19.4785 24.6304L30.0548 23.6523H19.4785V24.6304Z" fill="#FFDA44"/>
<path d="M12.5216 23.6523H1.94531L12.5216 24.6304V23.6523Z" fill="#FFDA44"/>
<path d="M16.0001 0C14.5559 0 13.157 0.1925 11.8262 0.551188V31.4489C13.157 31.8075 14.5559 32 16.0001 32C17.4443 32 18.8432 31.8075 20.174 31.4488V0.551188C18.8432 0.1925 17.4443 0 16.0001 0V0Z" fill="#D80027"/>
<path d="M8.60584 3.47803L9.03747 4.80659H10.4345L9.30441 5.62771L9.73609 6.95628L8.60584 6.13521L7.47566 6.95628L7.90747 5.62771L6.77734 4.80659H8.17428L8.60584 3.47803Z" fill="#FFDA44"/>
</g>
<defs>
<clipPath id="clip0_16_11412">
<rect width="32" height="32" fill="white"/>
</clipPath>
</defs>
</svg>
