<svg width="32" height="32" viewBox="0 0 32 32" fill="none" xmlns="http://www.w3.org/2000/svg">
<g clip-path="url(#clip0_16_11241)">
<path d="M0 16C0 7.1635 7.1635 0 16 0C24.8365 0 32 7.1635 32 16H0Z" fill="#F0F0F0"/>
<path d="M11.8259 15.125L10.9512 15.9997H11.8259V15.125Z" fill="#0052B4"/>
<path d="M20.1741 15.125V15.9996H21.0487L20.1741 15.125Z" fill="#0052B4"/>
<path d="M0.461625 12.1738C0.160688 13.3998 0 14.681 0 15.9998H5.04856L8.87456 12.1738H0.461625Z" fill="#0052B4"/>
<path d="M23.1254 12.1738L26.9514 15.9998H32.0001C32.0001 14.681 31.8393 13.3998 31.5384 12.1738H23.1254Z" fill="#0052B4"/>
<path d="M22.1416 12.1738H20.1741L24.0001 15.9998H25.9677L22.1416 12.1738Z" fill="#D80027"/>
<path d="M11.826 14.1413V12.1738H11.8259L7.99988 15.9998H9.9675L11.826 14.1413Z" fill="#D80027"/>
<path d="M7.49479 2.44629C6.83529 2.86104 6.20823 3.32241 5.61816 3.82598H8.87441L7.49479 2.44629Z" fill="#0052B4"/>
<path d="M26.3815 3.82598C25.7914 3.32235 25.1644 2.86098 24.505 2.44629L23.1254 3.82598H26.3815Z" fill="#0052B4"/>
<path d="M18.0872 10.0869H30.8715C30.2667 8.567 29.4353 7.16213 28.4195 5.913H18.0872H18.0872V0.135438C17.404 0.0465 16.7075 0 16.0002 0C15.2928 0 14.5964 0.0465 13.9133 0.135438V5.91294V5.913H3.58097C2.56516 7.16213 1.73378 8.567 1.12891 10.0869H13.9132H13.9132V16H18.0872V10.087V10.0869Z" fill="#D80027"/>
<path d="M11.8264 3.82619V3.82613L9.41434 1.41406C8.9684 1.61575 8.53378 1.83794 8.11084 2.07813L9.8589 3.82619H11.8264Z" fill="#D80027"/>
<path d="M20.1742 3.82626L22.5863 1.4142C22.1275 1.20676 21.6571 1.02076 21.1764 0.856445L20.1742 1.85876V3.82626Z" fill="#D80027"/>
<path d="M32 16C32 24.8365 24.8365 32 16 32C7.1635 32 0 24.8365 0 16H32Z" fill="#F0F0F0"/>
<path d="M29.3328 18.0404C27.9995 18.0404 27.9995 16.8213 26.6661 16.8213C25.3328 16.8213 25.3328 18.0404 23.9996 18.0404C22.6663 18.0404 22.6662 16.8213 21.333 16.8213C19.9997 16.8213 19.9997 18.0404 18.6663 18.0404C17.3329 18.0404 17.3329 16.8213 15.9994 16.8213C14.6661 16.8213 14.6661 18.0404 13.3329 18.0404C11.9998 18.0404 11.9998 16.8213 10.6664 16.8213C9.333 16.8213 9.333 18.0404 7.99957 18.0404C6.66613 18.0404 6.66613 16.8213 5.33269 16.8213C3.99957 16.8213 3.99957 18.0404 2.66626 18.0404C1.34013 18.0404 1.33244 16.8347 0.0205078 16.8219C0.0574453 17.5537 0.14482 18.2722 0.276945 18.9749C1.33969 19.131 1.43276 20.1737 2.66632 20.1737C3.99963 20.1737 3.99963 18.9547 5.33276 18.9547C6.66619 18.9547 6.66619 20.1737 7.99963 20.1737C9.33307 20.1737 9.33307 18.9547 10.6665 18.9547C11.9998 18.9547 11.9998 20.1737 13.3329 20.1737C14.6663 20.1737 14.6663 18.9547 15.9995 18.9547C17.3329 18.9547 17.3329 20.1737 18.6664 20.1737C19.9998 20.1737 19.9998 18.9547 21.3331 18.9547C22.6664 18.9547 22.6664 20.1737 23.9996 20.1737C25.3329 20.1737 25.3329 18.9547 26.6662 18.9547C27.9996 18.9547 27.9996 20.1737 29.3329 20.1737C30.5666 20.1737 30.6596 19.1311 31.7224 18.9749C31.8546 18.2722 31.9419 17.5538 31.979 16.8219C30.6668 16.8349 30.659 18.0404 29.3328 18.0404V18.0404Z" fill="#0052B4"/>
<path d="M26.6659 20.9951C25.3326 20.9951 25.3326 22.2142 23.9994 22.2142C22.6661 22.2142 22.6661 20.9951 21.3328 20.9951C19.9995 20.9951 19.9995 22.2142 18.6661 22.2142C17.3327 22.2142 17.3327 20.9951 15.9993 20.9951C14.6659 20.9951 14.6659 22.2142 13.3327 22.2142C11.9996 22.2142 11.9996 20.9951 10.6663 20.9951C9.33282 20.9951 9.33282 22.2142 7.99938 22.2142C6.66595 22.2142 6.66595 20.9951 5.33251 20.9951C3.99938 20.9951 3.99938 22.2142 2.66607 22.2142C1.71338 22.2142 1.44126 21.592 0.877197 21.2365C1.2527 22.3214 1.7412 23.3535 2.32951 24.3182C2.43182 24.3371 2.5432 24.3476 2.66607 24.3476C3.99938 24.3476 3.99938 23.1286 5.33251 23.1286C6.66595 23.1286 6.66595 24.3476 7.99938 24.3476C9.33282 24.3476 9.33282 23.1286 10.6663 23.1286C11.9996 23.1286 11.9996 24.3476 13.3327 24.3476C14.666 24.3476 14.666 23.1286 15.9993 23.1286C17.3327 23.1286 17.3327 24.3476 18.6661 24.3476C19.9996 24.3476 19.9996 23.1286 21.3328 23.1286C22.6661 23.1286 22.6661 24.3476 23.9994 24.3476C25.3326 24.3476 25.3327 23.1286 26.6659 23.1286C27.9994 23.1286 27.9994 24.3476 29.3326 24.3476C29.4556 24.3476 29.567 24.3371 29.6693 24.3182C30.2576 23.3535 30.7461 22.3214 31.1218 21.2366C30.5576 21.5919 30.2855 22.2142 29.3326 22.2142C27.9994 22.2142 27.9994 20.9951 26.6659 20.9951Z" fill="#0052B4"/>
<path d="M31.9912 15.4971C31.9926 15.5415 31.9941 15.5859 31.9951 15.6306C31.9941 15.586 31.9925 15.5415 31.9912 15.4971Z" fill="#F0F0F0"/>
<path d="M0.00463867 15.6306C0.00570117 15.586 0.00720117 15.5416 0.00857617 15.4971C0.00726367 15.5416 0.00563867 15.5861 0.00463867 15.6306V15.6306Z" fill="#F0F0F0"/>
<path d="M0 15.9996C0 15.8762 0.001875 15.7532 0.0046875 15.6304C0.0018125 15.7532 0 15.8762 0 15.9996Z" fill="#F0F0F0"/>
<path d="M0 16C0 16.2914 0.00825 16.581 0.0238125 16.8686C1.33275 16.8833 1.34144 18.0869 2.66663 18.0869C3.99994 18.0869 3.99994 16.8679 5.33306 16.8679C6.6665 16.8679 6.6665 18.0869 7.99994 18.0869C9.33337 18.0869 9.33338 16.8679 10.6668 16.8679C12.0001 16.8679 12.0001 18.0869 13.3333 18.0869C14.6666 18.0869 14.6666 16.8679 15.9998 16.8679C17.3332 16.8679 17.3332 18.0869 18.6667 18.0869C20.0001 18.0869 20.0001 16.8679 21.3334 16.8679C22.6667 16.8679 22.6667 18.0869 23.9999 18.0869C25.3332 18.0869 25.3333 16.8679 26.6665 16.8679C27.9999 16.8679 27.9999 18.0869 29.3332 18.0869C30.6585 18.0869 30.6672 16.8833 31.9764 16.8686C31.9918 16.5809 32 16.2914 32 16H0Z" fill="#F0F0F0"/>
<path d="M31.995 15.6304C31.9978 15.7531 31.9997 15.8761 31.9997 15.9996C31.9997 15.8762 31.9979 15.7532 31.995 15.6304Z" fill="#F0F0F0"/>
<path d="M26.6668 25.1694C25.3335 25.1694 25.3335 26.3886 24.0003 26.3886C22.667 26.3886 22.667 25.1694 21.3337 25.1694C20.0004 25.1694 20.0004 26.3886 18.667 26.3886C17.3336 26.3886 17.3336 25.1694 16.0002 25.1694C14.6668 25.1694 14.6668 26.3886 13.3336 26.3886C12.0005 26.3886 12.0005 25.1694 10.6672 25.1694C9.33372 25.1694 9.33372 26.3886 8.00029 26.3886C6.66685 26.3886 6.66685 25.1694 5.33341 25.1694C4.41254 25.1694 4.1276 25.7509 3.6001 26.1107C4.99941 27.8249 6.74754 29.2426 8.73535 30.2577L16.0004 29.8917L23.2654 30.2577C25.2532 29.2425 27.0013 27.8249 28.4006 26.1108C27.8728 25.7511 27.5879 25.1694 26.6668 25.1694V25.1694Z" fill="#0052B4"/>
<path d="M24.8742 25.5511L20.007 26.4821L19.3904 21.5655L16.0003 25.1814L12.6103 21.5654L11.9934 26.482L7.12646 25.5511L9.51328 29.8918L8.73378 30.2584C10.9143 31.3721 13.3838 32.0002 16.0003 32.0002C18.6167 32.0002 21.0863 31.3721 23.2668 30.2586L22.4876 29.892L24.8742 25.5511Z" fill="#FFDA44"/>
</g>
<defs>
<clipPath id="clip0_16_11241">
<rect width="32" height="32" fill="white"/>
</clipPath>
</defs>
</svg>
