<svg width="32" height="32" viewBox="0 0 32 32" fill="none" xmlns="http://www.w3.org/2000/svg">
<path d="M16 32C24.8366 32 32 24.8366 32 16C32 7.16344 24.8366 0 16 0C7.16344 0 0 7.16344 0 16C0 24.8366 7.16344 32 16 32Z" fill="#6DA544"/>
<path d="M24.5612 22.9565L25.0002 23.8746L25.9917 23.6455L25.5477 24.5612L26.345 25.1934L25.3523 25.4172L25.3551 26.4349L24.5612 25.7982L23.7673 26.4349L23.77 25.4172L22.7773 25.1934L23.5747 24.5612L23.1307 23.6455L24.1221 23.8746L24.5612 22.9565Z" fill="#FFDA44"/>
<path d="M20.4762 13.2173L20.9153 14.1353L21.9068 13.9062L21.4628 14.8219L22.2601 15.4542L21.2674 15.6779L21.2701 16.6955L20.4762 16.0589L19.6823 16.6955L19.685 15.6779L18.6924 15.4542L19.4897 14.8219L19.0456 13.9062L20.0372 14.1353L20.4762 13.2173Z" fill="#FFDA44"/>
<path d="M24.561 7.65225L25 8.57031L25.9915 8.34106L25.5476 9.25682L26.3448 9.88913L25.3521 10.1128L25.3548 11.1305L24.561 10.4938L23.7671 11.1305L23.7698 10.1128L22.7772 9.88913L23.5745 9.25682L23.1305 8.34106L24.1219 8.57031L24.561 7.65225Z" fill="#FFDA44"/>
<path d="M28.1285 11.8262L28.5676 12.7442L29.5592 12.515L29.1151 13.4308L29.9124 14.063L28.9197 14.2868L28.9225 15.3045L28.1285 14.6678L27.3347 15.3045L27.3374 14.2868L26.3447 14.063L27.142 13.4308L26.698 12.515L27.6895 12.7442L28.1285 11.8262Z" fill="#FFDA44"/>
<path d="M25.5771 16.6958L25.9226 17.7587H27.0401L26.1359 18.4156L26.4814 19.4784L25.5771 18.8216L24.6731 19.4784L25.0184 18.4156L24.1143 17.7587H25.2318L25.5771 16.6958Z" fill="#FFDA44"/>
<path d="M17.7389 20.5221C15.2416 20.5221 13.2171 18.4976 13.2171 16.0003C13.2171 13.5031 15.2416 11.4786 17.7389 11.4786C18.5176 11.4786 19.2503 11.6755 19.8899 12.0221C18.8864 11.0407 17.5143 10.4351 15.9997 10.4351C12.9262 10.4351 10.4346 12.9267 10.4346 16.0002C10.4346 19.0738 12.9262 21.5654 15.9997 21.5654C17.5142 21.5654 18.8864 20.9598 19.8898 19.9784C19.2503 20.3251 18.5176 20.5221 17.7389 20.5221V20.5221Z" fill="#FFDA44"/>
<path d="M10.0612 6.26094C9.57993 5.42944 8.6815 4.86963 7.65175 4.86963C6.622 4.86963 5.72356 5.42944 5.24231 6.26094H10.0612Z" fill="#FFDA44"/>
<path d="M10.0704 6.27686L7.6517 8.69554L5.23302 6.27686C5.00183 6.68254 4.86914 7.15173 4.86914 7.65211C4.86914 9.18892 6.11495 10.4347 7.65177 10.4347C9.18858 10.4347 10.4344 9.18898 10.4344 7.65211C10.4343 7.15173 10.3016 6.68254 10.0704 6.27686V6.27686Z" fill="#FFDA44"/>
<path d="M6.95605 8V10.3471C7.17837 10.4043 7.41149 10.4347 7.65168 10.4347C7.89187 10.4347 8.12499 10.4043 8.3473 10.3471V8H6.95605Z" fill="#A2001D"/>
</svg>
