<svg width="32" height="32" viewBox="0 0 32 32" fill="none" xmlns="http://www.w3.org/2000/svg">
<path d="M0 16C0 7.1635 7.1635 0 16 0C24.8365 0 32 7.1635 32 16C31.3044 16 16 18.0869 16 18.0869L0 16Z" fill="#F0F0F0"/>
<path d="M32 16C32 24.8365 24.8365 32 16 32C7.1635 32 0 24.8365 0 16" fill="#D80027"/>
<path d="M11.1307 23.652C15.3569 23.652 18.7829 20.226 18.7829 15.9998C18.7829 11.7737 15.3569 8.34766 11.1307 8.34766C6.90451 8.34766 3.47852 11.7737 3.47852 15.9998C3.47852 20.226 6.90451 23.652 11.1307 23.652Z" fill="#F0F0F0"/>
<path d="M3.47852 15.9998C3.47852 11.7738 6.90451 8.34766 11.1307 8.34766C15.3569 8.34766 18.7829 11.7737 18.7829 15.9998" fill="#D80027"/>
</svg>
