<svg width="32" height="32" viewBox="0 0 32 32" fill="none" xmlns="http://www.w3.org/2000/svg">
<path d="M22.9567 1.58763C20.8532 0.5705 18.4933 0 16.0002 0C13.507 0 11.1472 0.5705 9.04366 1.58763L7.65234 16L9.04366 30.4124C11.1472 31.4295 13.507 32 16.0002 32C18.4933 32 20.8532 31.4295 22.9567 30.4124L24.348 16L22.9567 1.58763Z" fill="#D80027"/>
<path d="M15.9999 10.4346L17.3812 14.6858H21.8517L18.2352 17.3135L19.6165 21.5649L15.9999 18.9374L12.3834 21.5649L13.7649 17.3135L10.1484 14.6858H14.6186L15.9999 10.4346Z" fill="#FFDA44"/>
<path d="M9.0435 1.58838C3.69163 4.17625 0 9.65681 0 16.0002C0 22.3436 3.69163 27.8241 9.0435 30.412V1.58838Z" fill="#496E2D"/>
<path d="M22.9561 1.58838V30.412C28.3079 27.8241 31.9996 22.3435 31.9996 16.0002C31.9996 9.65688 28.3079 4.17625 22.9561 1.58838Z" fill="#FFDA44"/>
</svg>
