<svg width="32" height="32" viewBox="0 0 32 32" fill="none" xmlns="http://www.w3.org/2000/svg">
<path d="M16 32C24.8366 32 32 24.8366 32 16C32 7.16344 24.8366 0 16 0C7.16344 0 0 7.16344 0 16C0 24.8366 7.16344 32 16 32Z" fill="#F0F0F0"/>
<path d="M31.9996 15.9998C31.9996 9.6564 28.308 4.1754 22.9561 1.5874V30.4121C28.308 27.8241 31.9996 22.3431 31.9996 15.9998V15.9998Z" fill="#D80027"/>
<path d="M0 15.9998C0 22.3431 3.69156 27.8241 9.0435 30.4121V1.5874C3.69156 4.1754 0 9.6564 0 15.9998Z" fill="#6DA544"/>
<path d="M11.8262 15.9997C11.8262 18.3049 13.6949 20.1737 16.0001 20.1737C18.3053 20.1737 20.174 18.3049 20.174 15.9997V14.6084H11.8262V15.9997Z" fill="#6DA544"/>
<path d="M21.5651 13.2175H17.3911C17.3911 12.4491 16.7682 11.8262 15.9998 11.8262C15.2314 11.8262 14.6085 12.4491 14.6085 13.2175H10.4346C10.4346 13.9859 11.1039 14.6088 11.8722 14.6088H11.8259C11.8259 15.3772 12.4488 16.0001 13.2172 16.0001C13.2172 16.7685 13.8401 17.3914 14.6085 17.3914H17.3911C18.1596 17.3914 18.7824 16.7685 18.7824 16.0001C19.5509 16.0001 20.1738 15.3772 20.1738 14.6088H20.1274C20.8958 14.6088 21.5651 13.9859 21.5651 13.2175Z" fill="#FF9811"/>
</svg>
