<svg width="32" height="32" viewBox="0 0 32 32" fill="none" xmlns="http://www.w3.org/2000/svg">
<path d="M16 32C24.8366 32 32 24.8366 32 16C32 7.16344 24.8366 0 16 0C7.16344 0 0 7.16344 0 16C0 24.8366 7.16344 32 16 32Z" fill="#F0F0F0"/>
<path d="M16.0002 0C11.1507 0 6.80553 2.15775 3.87134 5.56519H28.1289C25.1948 2.15775 20.8496 0 16.0002 0V0Z" fill="#0052B4"/>
<path d="M28.129 26.4346H3.87134C6.80553 29.842 11.1507 31.9998 16.0002 31.9998C20.8496 31.9998 25.1948 29.842 28.129 26.4346Z" fill="#0052B4"/>
<path d="M29.6516 7.65234H2.34838C0.859063 10.0827 0 12.941 0 16.0002C0 19.0593 0.859063 21.9177 2.34838 24.348H29.6516C31.1409 21.9177 32 19.0593 32 16.0002C32 12.941 31.1409 10.0827 29.6516 7.65234Z" fill="#D80027"/>
<path d="M9.84326 22.1563C13.2434 22.1563 15.9998 19.3999 15.9998 15.9998C15.9998 12.5996 13.2434 9.84326 9.84326 9.84326C6.44312 9.84326 3.68677 12.5996 3.68677 15.9998C3.68677 19.3999 6.44312 22.1563 9.84326 22.1563Z" fill="#F0F0F0"/>
<path d="M9.84324 9.84326L11.2246 14.0946H15.7019L12.0784 16.7222L13.4705 20.9862L9.84324 18.3461L6.22148 20.9813L7.60811 16.7222L3.98779 14.0946H8.46186L9.84324 9.84326Z" fill="#D80027"/>
</svg>
