<svg width="32" height="32" viewBox="0 0 32 32" fill="none" xmlns="http://www.w3.org/2000/svg">
<g clip-path="url(#clip0_16_11734)">
<path d="M16 32C24.8366 32 32 24.8366 32 16C32 7.16344 24.8366 0 16 0C7.16344 0 0 7.16344 0 16C0 24.8366 7.16344 32 16 32Z" fill="#F0F0F0"/>
<path d="M1.94531 8.34781H30.0544C27.3407 3.37431 22.0645 0 15.9999 0C9.93518 0 4.659 3.37431 1.94531 8.34781V8.34781Z" fill="#D80027"/>
<path d="M15.9999 32.0002C22.0645 32.0002 27.3407 28.6258 30.0544 23.6523H1.94531C4.659 28.6258 9.93518 32.0002 15.9999 32.0002Z" fill="#D80027"/>
<path d="M21.5649 15.9998C21.5649 19.0734 19.0733 20.8693 15.9998 20.8693C12.9262 20.8693 10.4346 19.0734 10.4346 15.9998C10.4346 12.9261 12.9262 10.4346 15.9998 10.4346C19.0733 10.4346 21.5649 12.9261 21.5649 15.9998Z" fill="#FFDA44"/>
<path d="M21.5649 16C21.5649 19.0736 19.0733 21.5652 15.9998 21.5652C12.9262 21.5652 10.4346 19.0736 10.4346 16" fill="#0052B4"/>
<path d="M12.5215 14.6089H13.9128V17.3915H12.5215V14.6089Z" fill="#D80027"/>
<path d="M18.0869 14.6089H19.4782V17.3915H18.0869V14.6089Z" fill="#D80027"/>
<path d="M15.3037 12.522H16.695V17.3915H15.3037V12.522Z" fill="#D80027"/>
</g>
<defs>
<clipPath id="clip0_16_11734">
<rect width="32" height="32" fill="white"/>
</clipPath>
</defs>
</svg>
