<svg width="32" height="32" viewBox="0 0 32 32" fill="none" xmlns="http://www.w3.org/2000/svg">
<g clip-path="url(#clip0_16_12060)">
<path d="M1.58763 9.04366C0.5705 11.1472 0 13.507 0 16.0002C0 18.4933 0.5705 20.8532 1.58763 22.9567L16 24.348L30.4124 22.9567C31.4295 20.8532 32 18.4933 32 16.0002C32 13.507 31.4295 11.1472 30.4124 9.04366L16 7.65234L1.58763 9.04366Z" fill="black"/>
<path d="M1.58789 22.9565C4.17576 28.3085 9.65632 32 15.9997 32C22.343 32 27.8236 28.3085 30.4115 22.9565H1.58789Z" fill="#496E2D"/>
<path d="M1.58789 9.0435H30.4115C27.8236 3.69156 22.343 0 15.9997 0C9.65632 0 4.17576 3.69156 1.58789 9.0435Z" fill="#D80027"/>
<path d="M19.7242 13.0737L21.037 14.8828L23.1631 14.1934L21.8482 16.0009L23.1608 17.8099L21.0356 17.1179L19.7207 18.9254L19.7221 16.6904L17.5967 15.9984L19.7228 15.309L19.7242 13.0737Z" fill="#F0F0F0"/>
<path d="M16.1412 20.5216C13.644 20.5216 11.6195 18.4971 11.6195 15.9998C11.6195 13.5026 13.644 11.4781 16.1412 11.4781C16.9199 11.4781 17.6525 11.6749 18.2922 12.0216C17.2887 11.0403 15.9164 10.4346 14.4021 10.4346C11.3285 10.4346 8.83691 12.9262 8.83691 15.9998C8.83691 19.0733 11.3285 21.5649 14.4021 21.5649C15.9165 21.5649 17.2887 20.9593 18.2922 19.9779C17.6525 20.3247 16.9199 20.5216 16.1412 20.5216Z" fill="#F0F0F0"/>
</g>
<defs>
<clipPath id="clip0_16_12060">
<rect width="32" height="32" fill="white"/>
</clipPath>
</defs>
</svg>
