<svg width="32" height="32" viewBox="0 0 32 32" fill="none" xmlns="http://www.w3.org/2000/svg">
<g clip-path="url(#clip0_16_11850)">
<path d="M16 32C24.8366 32 32 24.8366 32 16C32 7.16344 24.8366 0 16 0C7.16344 0 0 7.16344 0 16C0 24.8366 7.16344 32 16 32Z" fill="#F0F0F0"/>
<path d="M16.0001 0C13.1712 0 10.5145 0.735125 8.20874 2.02325V29.9767C10.5146 31.2649 13.1712 32 16.0001 32C24.8366 32 32.0001 24.8365 32.0001 16C32.0001 7.1635 24.8366 0 16.0001 0Z" fill="#6DA544"/>
<path d="M8.25563 1.99707C7.24907 2.55488 6.30919 3.21788 5.4505 3.97163C5.53731 3.89551 5.625 3.82026 5.71338 3.74601L17.9674 16.0001L5.71331 28.2543C5.62488 28.18 5.53725 28.1048 5.45044 28.0287C6.30913 28.7824 7.24907 29.4453 8.25557 30.0032L31.9999 16.0001L8.25563 1.99707Z" fill="#F0F0F0"/>
<path d="M6.90392 2.83643C6.41598 3.1743 5.94736 3.53786 5.50079 3.92643L15.9996 16.0001L5.50073 28.0737C5.9473 28.4623 6.41592 28.8259 6.90386 29.1637L29.2607 16.0001L6.90392 2.83643Z" fill="#FFDA44"/>
<path d="M5.71322 3.74609C5.35753 4.04497 5.01428 4.35828 4.68604 4.68647L14.6085 16.0002L4.68604 27.314C5.01428 27.6422 5.35747 27.9556 5.71322 28.2544L17.9673 16.0002L5.71322 3.74609Z" fill="black"/>
<path d="M4.68628 4.68604C-1.56209 10.9344 -1.56209 21.0651 4.68628 27.3135C7.26834 24.7315 9.75165 22.2482 16 15.9998L4.68628 4.68604Z" fill="#D80027"/>
</g>
<defs>
<clipPath id="clip0_16_11850">
<rect width="32" height="32" fill="white"/>
</clipPath>
</defs>
</svg>
