<svg width="32" height="32" viewBox="0 0 32 32" fill="none" xmlns="http://www.w3.org/2000/svg">
<path d="M16 32C24.8366 32 32 24.8366 32 16C32 7.16344 24.8366 0 16 0C7.16344 0 0 7.16344 0 16C0 24.8366 7.16344 32 16 32Z" fill="#0052B4"/>
<path d="M16 32C24.8366 32 32 24.8366 32 16C32 7.16344 24.8366 0 16 0C7.16344 0 0 7.16344 0 16C0 24.8366 7.16344 32 16 32Z" fill="#FFDA44"/>
<path d="M15.9996 0C7.63186 0 0.765734 6.42381 0.0605469 14.6087H31.9387C31.2335 6.42381 24.3674 0 15.9996 0V0Z" fill="#0052B4"/>
<path d="M15.9996 31.9998C24.3674 31.9998 31.2335 25.576 31.9387 17.3911H0.0605469C0.765734 25.576 7.63186 31.9998 15.9996 31.9998Z" fill="#0052B4"/>
<path d="M13.2178 21.565L11.425 22.4084L12.3796 24.1447L10.4328 23.7722L10.1861 25.7389L8.83008 24.2925L7.47407 25.7389L7.22739 23.7722L5.28051 24.1446L6.23526 22.4083L4.44238 21.565L6.23532 20.7217L5.28051 18.9854L7.22732 19.3578L7.47414 17.3911L8.83008 18.8376L10.1862 17.3911L10.4328 19.3578L12.3797 18.9854L11.425 20.7217L13.2178 21.565Z" fill="#F0F0F0"/>
</svg>
