<svg width="32" height="32" viewBox="0 0 32 32" fill="none" xmlns="http://www.w3.org/2000/svg">
<path d="M16 32C24.8366 32 32 24.8366 32 16C32 7.16344 24.8366 0 16 0C7.16344 0 0 7.16344 0 16C0 24.8366 7.16344 32 16 32Z" fill="#F0F0F0"/>
<path d="M0 16C0 24.8365 7.1635 32 16 32C16 25.9153 16 16 16 16C16 16 5.56519 16 0 16Z" fill="#0052B4"/>
<path d="M16 0C24.8365 0 32 7.1635 32 16C25.9153 16 16 16 16 16C16 16 16 5.56519 16 0Z" fill="#D80027"/>
<path d="M9.52449 5.56543L10.5605 8.75406H13.9132L11.2009 10.7247L12.2369 13.9133L9.52449 11.9426L6.81212 13.9133L7.84811 10.7247L5.13574 8.75406H8.48843L9.52449 5.56543Z" fill="#0052B4"/>
<path d="M22.4757 18.0869L23.5117 21.2756H26.8644L24.152 23.2462L25.188 26.4348L22.4757 24.4641L19.7633 26.4348L20.7993 23.2462L18.0869 21.2756H21.4396L22.4757 18.0869Z" fill="#D80027"/>
</svg>
