<svg width="32" height="32" viewBox="0 0 32 32" fill="none" xmlns="http://www.w3.org/2000/svg">
<path d="M16 32C24.8366 32 32 24.8366 32 16C32 7.16344 24.8366 0 16 0C7.16344 0 0 7.16344 0 16C0 24.8366 7.16344 32 16 32Z" fill="#F0F0F0"/>
<path d="M16.0003 0C11.582 0 7.58196 1.79088 4.68652 4.68625L16.0003 16V0Z" fill="black"/>
<path d="M0 16C0 20.4183 1.79088 24.4183 4.68625 27.3137L16 16H0Z" fill="black"/>
<path d="M16 32C20.4183 32 24.4183 30.2091 27.3137 27.3137L16 16V32Z" fill="black"/>
<path d="M32 15.9998C32 11.5815 30.2091 7.58147 27.3137 4.68604L16 15.9998H32Z" fill="black"/>
<path d="M10.4346 11.1307L15.9998 11.8265L21.5649 11.1307V7.79155L19.3389 8.90462L15.9998 5.56543L12.6606 8.90462L10.4346 7.79155V11.1307Z" fill="#FFDA44"/>
<path d="M15.9998 24.3476C12.9311 24.3476 10.4346 21.8511 10.4346 18.7824V13.2175L12.5215 11.1304H19.478L21.5649 13.2175V18.7824C21.5649 21.8511 19.0684 24.3476 15.9998 24.3476Z" fill="#D80027"/>
<path d="M15.9997 22.2607C14.0818 22.2607 12.5215 20.7003 12.5215 18.7824V13.2173H19.478V18.7823C19.478 20.7003 17.9177 22.2607 15.9997 22.2607V22.2607Z" fill="#F0F0F0"/>
<path d="M10.4346 11.1304H12.5215V13.2173H10.4346V11.1304Z" fill="#FFDA44"/>
<path d="M19.4775 11.1304H21.5645V13.2173H19.4775V11.1304Z" fill="#FFDA44"/>
<path d="M19.4775 15.6523H21.5645V17.7393H19.4775V15.6523Z" fill="#FFDA44"/>
<path d="M10.4346 15.6523H12.5215V17.7393H10.4346V15.6523Z" fill="#FFDA44"/>
<path d="M15.9996 22.2607C15.6361 22.2607 15.2856 22.2045 14.9561 22.1006V24.2481C15.2943 24.3126 15.6428 24.3477 15.9996 24.3477C16.3563 24.3477 16.7048 24.3126 17.0431 24.2481V22.1006C16.7135 22.2044 16.3631 22.2607 15.9996 22.2607Z" fill="#FFDA44"/>
<path d="M12.5678 19.3472L10.9023 21.0127C11.1911 21.6701 11.6031 22.2613 12.1095 22.7569L13.5845 21.2819C13.0581 20.7734 12.6914 20.1009 12.5678 19.3472Z" fill="#FFDA44"/>
<path d="M21.0971 21.0127L19.4316 19.3472C19.308 20.1008 18.9414 20.7732 18.415 21.282L19.89 22.757C20.3963 22.2613 20.8084 21.6701 21.0971 21.0127Z" fill="#FFDA44"/>
<path d="M15.3048 14.377V15.5363C15.3048 15.9205 15.6162 16.232 16.0004 16.232C16.3846 16.232 16.6961 15.9205 16.6961 15.5363V14.377H15.3048Z" fill="#0052B4"/>
<path d="M15.3048 19.0146V20.174C15.3048 20.5581 15.6162 20.8696 16.0004 20.8696C16.3846 20.8696 16.6961 20.5581 16.6961 20.174V19.0146H15.3048Z" fill="#0052B4"/>
<path d="M17.3916 16.6958V17.8553C17.3916 18.2394 17.703 18.5509 18.0872 18.5509C18.4714 18.5509 18.7829 18.2394 18.7829 17.8553V16.6958H17.3916Z" fill="#0052B4"/>
<path d="M15.3048 16.6957V17.8552C15.3048 18.2393 15.6162 18.5508 16.0004 18.5508C16.3846 18.5508 16.6961 18.2393 16.6961 17.8552V16.6957H15.3048Z" fill="#0052B4"/>
<path d="M13.2178 16.6957V17.8552C13.2178 18.2393 13.5292 18.5508 13.9134 18.5508C14.2976 18.5508 14.609 18.2393 14.609 17.8552V16.6957H13.2178Z" fill="#0052B4"/>
</svg>
