<svg width="32" height="32" viewBox="0 0 32 32" fill="none" xmlns="http://www.w3.org/2000/svg">
<g clip-path="url(#clip0_16_12887)">
<path d="M16 0C14.8054 0 13.6417 0.132063 12.5218 0.380313L11.8262 15.9999L12.5218 31.6196C13.6417 31.8679 14.8054 32 16 32C24.8366 32 32 24.8365 32 15.9999C31.9999 7.16344 24.8366 0 16 0V0Z" fill="#496E2D"/>
<path d="M4.17388 5.22319C1.58113 8.06669 0 11.8486 0 16C0 20.1513 1.58119 23.9332 4.17394 26.7768L4.86956 16L4.17388 5.22319Z" fill="#496E2D"/>
<path d="M23.4008 12.0688C24.188 9.87469 23.3036 7.48838 21.4057 6.29988C21.7471 6.34432 22.0888 6.42469 22.4261 6.54563C24.9575 7.45388 26.2734 10.2421 25.3651 12.7735C24.4569 15.3051 21.6686 16.6208 19.1372 15.7126C18.7999 15.5916 18.4849 15.4362 18.1932 15.2536C20.4139 15.5427 22.6136 14.2629 23.4008 12.0688V12.0688Z" fill="#F0F0F0"/>
<path d="M19.0357 5.69832L18.3516 6.58219L17.2998 6.20476L17.9289 7.12838L17.245 8.01213L18.3178 7.69926L18.9471 8.62276L18.9808 7.50576L20.0537 7.19282L19.0019 6.81551L19.0357 5.69832Z" fill="#F0F0F0"/>
<path d="M20.8824 8.5782L20.1984 9.46201L19.1465 9.08458L19.7757 10.0082L19.0917 10.892L20.1645 10.579L20.7937 11.5026L20.8276 10.3856L21.9004 10.0726L20.8486 9.6952L20.8824 8.5782Z" fill="#F0F0F0"/>
<path d="M15.7788 6.74715L15.0948 7.6309L14.043 7.25358L14.6722 8.17715L13.9882 9.06096L15.0609 8.74802L15.6902 9.67158L15.724 8.55458L16.7968 8.24165L15.745 7.86421L15.7788 6.74715Z" fill="#F0F0F0"/>
<path d="M15.7037 10.0461L15.0197 10.9299L13.9678 10.5525L14.5971 11.4761L13.913 12.3599L14.9859 12.047L15.6151 12.9705L15.6489 11.8535L16.7218 11.5406L15.6698 11.1631L15.7037 10.0461Z" fill="#F0F0F0"/>
<path d="M18.8424 11.1724L18.1583 12.0562L17.1065 11.6788L17.7358 12.6024L17.0516 13.4861L18.1246 13.1733L18.7538 14.0969L18.7876 12.9798L19.8604 12.6669L18.8085 12.2895L18.8424 11.1724Z" fill="#F0F0F0"/>
<path d="M4.17383 5.22325V26.7768C6.35383 29.1677 9.24946 30.8943 12.5217 31.6196V0.380371C9.2494 1.10575 6.35389 2.83231 4.17383 5.22325V5.22325Z" fill="#D80027"/>
<path d="M7.3596 8.42407L5.96204 7.38294V5.91063L7.3596 4.86957H9.33616L10.7337 5.91063V7.38294L9.33616 8.42407H7.3596Z" fill="#F0F0F0"/>
<path d="M8.34791 4.86957H7.3596L5.96204 5.91063V6.63044H8.34791V4.86957Z" fill="#FF9811"/>
<path d="M8.34778 8.42396H9.33603L10.7336 7.38284V6.63177H8.34778V8.42396Z" fill="#FF9811"/>
<path d="M7.35948 27.1302L5.96191 26.0891V24.6168L7.35948 23.5757H9.33604L10.7336 24.6168V26.0891L9.33604 27.1302H7.35948Z" fill="#F0F0F0"/>
<path d="M8.34779 23.5757H7.35948L5.96191 24.6168V25.3366H8.34779V23.5757Z" fill="#FF9811"/>
<path d="M8.34766 27.13H9.33591L10.7335 26.0889V25.3379H8.34766V27.13Z" fill="#FF9811"/>
<path d="M7.35948 17.7772L5.96191 16.736V15.2638L7.35948 14.2227H9.33604L10.7336 15.2638V16.736L9.33604 17.7772H7.35948Z" fill="#496E2D"/>
<path d="M10.7826 20.0677H10.1738V19.459H9.10415L8.34777 18.7026L7.59146 19.459H6.52177V20.0677H5.91309V21.2851H6.52177V21.8938H7.5914L8.34784 22.6502L9.10415 21.8938H10.1738V21.2851H10.7826V20.0677Z" fill="#496E2D"/>
<path d="M10.7826 10.7147H10.1738V10.106H9.10415L8.34777 9.34961L7.59146 10.106H6.52177V10.7147H5.91309V11.9321H6.52177V12.5408H7.5914L8.34784 13.2973L9.10415 12.5408H10.1738V11.9321H10.7826V10.7147Z" fill="#496E2D"/>
<path d="M7.65234 15.3043H9.04366V16.6956H7.65234V15.3043Z" fill="#D80027"/>
<path d="M8.34797 12.0187C8.73215 12.0187 9.04359 11.7073 9.04359 11.3231C9.04359 10.9389 8.73215 10.6274 8.34797 10.6274C7.96379 10.6274 7.65234 10.9389 7.65234 11.3231C7.65234 11.7073 7.96379 12.0187 8.34797 12.0187Z" fill="#D80027"/>
<path d="M8.34797 21.3722C8.73215 21.3722 9.04359 21.0608 9.04359 20.6766C9.04359 20.2924 8.73215 19.981 8.34797 19.981C7.96379 19.981 7.65234 20.2924 7.65234 20.6766C7.65234 21.0608 7.96379 21.3722 8.34797 21.3722Z" fill="#D80027"/>
</g>
<defs>
<clipPath id="clip0_16_12887">
<rect width="32" height="32" fill="white"/>
</clipPath>
</defs>
</svg>
