<svg width="32" height="32" viewBox="0 0 32 32" fill="none" xmlns="http://www.w3.org/2000/svg">
<g clip-path="url(#clip0_16_12383)">
<path d="M31.4488 20.1741C31.8075 18.8432 32 17.4443 32 16.0002C32 14.556 31.8075 13.1571 31.4488 11.8262L14.6087 0.0610352C11.4824 0.33041 8.61344 1.49854 6.26088 3.3061L0.551188 11.8262C0.1925 13.1571 0 14.556 0 16.0002C0 17.4359 0.190188 18.8271 0.544875 20.151L6.26081 28.6942C8.61337 30.5018 11.4823 31.67 14.6086 31.9393L31.4488 20.1741Z" fill="#FFDA44"/>
<path d="M0.550781 20.1738C1.47653 23.6088 3.51691 26.5859 6.26047 28.694V20.1738H0.550781Z" fill="#D80027"/>
<path d="M14.6084 31.939C15.067 31.9785 15.5308 31.9999 15.9997 31.9999C23.3921 31.9999 29.6125 26.9861 31.4485 20.1738H14.6084V31.939Z" fill="#D80027"/>
<path d="M31.4485 11.8261C29.6125 5.01381 23.3921 0 15.9997 0C15.5308 0 15.067 0.021375 14.6084 0.060875V11.8261H31.4485Z" fill="#D80027"/>
<path d="M6.26047 3.30615C3.51691 5.41428 1.47653 8.39134 0.550781 11.8263H6.26047V3.30615Z" fill="#D80027"/>
<path d="M31.8646 13.9131H12.5218H12.5218V0.38031C11.0431 0.708185 9.64131 1.23962 8.34781 1.94544V13.913H0.135438C0.0465 14.5962 0 15.2927 0 16C0 16.7073 0.0465 17.4038 0.135438 18.0869H8.34775H8.34781V30.0545C9.64131 30.7603 11.0431 31.2918 12.5218 31.6196V18.0871V18.087H31.8646C31.9535 17.4038 32 16.7073 32 16C32 15.2927 31.9535 14.5962 31.8646 13.9131V13.9131Z" fill="#0052B4"/>
</g>
<defs>
<clipPath id="clip0_16_12383">
<rect width="32" height="32" fill="white"/>
</clipPath>
</defs>
</svg>
