<svg width="32" height="32" viewBox="0 0 32 32" fill="none" xmlns="http://www.w3.org/2000/svg">
<g clip-path="url(#clip0_16_11919)">
<path d="M16 32C24.8366 32 32 24.8366 32 16C32 7.16344 24.8366 0 16 0C7.16344 0 0 7.16344 0 16C0 24.8366 7.16344 32 16 32Z" fill="#F0F0F0"/>
<path d="M16 0C9.12061 0 3.25593 4.342 0.995239 10.4348H31.0049C28.7442 4.342 22.8795 0 16 0V0Z" fill="#A2001D"/>
<path d="M15.9999 32.0002C22.8794 32.0002 28.744 27.6582 31.0047 21.5654H0.995117C3.2558 27.6582 9.12049 32.0002 15.9999 32.0002Z" fill="black"/>
<path d="M12.1742 14.9566C12.1654 14.9566 12.1569 14.9572 12.1481 14.9573V14.9566H9.08955C9.24462 14.3575 9.78824 13.9131 10.4351 13.9131V11.8262C8.51712 11.8262 6.9568 13.3865 6.9568 15.3044V17.0088V17.0436H12.1481H12.1742C12.366 17.0436 12.522 17.1997 12.522 17.3914V18.087H5.56543V20.174H14.6089V17.3914C14.6089 16.0489 13.5167 14.9566 12.1742 14.9566V14.9566Z" fill="#496E2D"/>
<path d="M17.3915 18.087V11.8262H15.3046V20.174H18.7828V18.087H17.3915Z" fill="#496E2D"/>
<path d="M24.3481 18.0871V11.8262H22.2611V18.0871H21.5655V16.0002H19.4785V20.1741H25.7394V18.0871H24.3481Z" fill="#496E2D"/>
</g>
<defs>
<clipPath id="clip0_16_11919">
<rect width="32" height="32" fill="white"/>
</clipPath>
</defs>
</svg>
