<svg width="32" height="32" viewBox="0 0 32 32" fill="none" xmlns="http://www.w3.org/2000/svg">
<g clip-path="url(#clip0_16_12637)">
<path d="M14.6091 17.3913C14.6091 17.3913 4.69602 4.68406 4.68665 4.68631C7.58202 1.79088 11.5821 0 16.0004 0C24.8369 0 32.0004 7.1635 32.0004 16L14.6091 17.3913Z" fill="#D80027"/>
<path d="M14.6091 16C14.6091 16 4.69602 27.3159 4.68665 27.3137C7.58202 30.2091 11.5821 32 16.0004 32C24.8369 32 32.0004 24.8365 32.0004 16H14.6091Z" fill="#0052B4"/>
<path d="M4.68628 4.68604C-1.56209 10.9344 -1.56209 21.0651 4.68628 27.3135C7.26834 24.7315 9.75165 22.2482 16 15.9998L4.68628 4.68604Z" fill="#F0F0F0"/>
<path d="M1.75382 16.0001C1.74507 16.1149 1.73914 16.2307 1.73914 16.3478C1.73914 18.8451 3.76363 20.8696 6.26088 20.8696C8.75813 20.8696 10.7826 18.8451 10.7826 16.3478C10.7826 16.2307 10.7767 16.1149 10.7679 16.0001H1.75382Z" fill="#FFDA44"/>
<path d="M6.26106 13.9131C7.02946 13.9131 7.65238 13.2902 7.65238 12.5218C7.65238 11.7534 7.02946 11.1304 6.26106 11.1304C5.49266 11.1304 4.86975 11.7534 4.86975 12.5218C4.86975 13.2902 5.49266 13.9131 6.26106 13.9131Z" fill="#FFDA44"/>
<path d="M3.13062 12.1738V16.6956C3.13062 19.0918 6.26105 19.826 6.26105 19.826C6.26105 19.826 9.39148 19.0918 9.39148 16.6956V12.1738H3.13062Z" fill="#D80027"/>
<path d="M6.26266 18.3702C5.68191 18.1612 4.52197 17.6271 4.52197 16.6959V13.5654H8.00028V16.6959C8.00028 17.6302 6.84047 18.163 6.26266 18.3702V18.3702Z" fill="#338AF3"/>
<path d="M6.95678 15.3042V14.6086L6.26115 14.2607L5.56546 14.6086V15.3042L5.21765 15.6521V17.0434H7.30465V15.6521L6.95678 15.3042Z" fill="#F3F3F3"/>
</g>
<defs>
<clipPath id="clip0_16_12637">
<rect width="32" height="32" fill="white"/>
</clipPath>
</defs>
</svg>
