<svg width="32" height="32" viewBox="0 0 32 32" fill="none" xmlns="http://www.w3.org/2000/svg">
<g clip-path="url(#clip0_16_12091)">
<path d="M16 32C24.8366 32 32 24.8366 32 16C32 7.16344 24.8366 0 16 0C7.16344 0 0 7.16344 0 16C0 24.8366 7.16344 32 16 32Z" fill="#F0F0F0"/>
<path d="M10.4353 16.0001V31.0049C12.1686 31.6481 14.0434 32.0001 16.0005 32.0001C24.837 32.0001 32.0005 24.8366 32.0005 16.0001C32.0005 7.16359 10.4353 16.0001 10.4353 16.0001Z" fill="#6DA544"/>
<path d="M16.0005 0C14.0434 0 12.1686 0.352063 10.4353 0.995188V16H32.0005C32.0005 7.1635 24.837 0 16.0005 0Z" fill="#D80027"/>
</g>
<defs>
<clipPath id="clip0_16_12091">
<rect width="32" height="32" fill="white"/>
</clipPath>
</defs>
</svg>
