<svg width="32" height="32" viewBox="0 0 32 32" fill="none" xmlns="http://www.w3.org/2000/svg">
<path d="M0 16C0 7.1635 7.1635 0 16 0C24.8365 0 32 7.1635 32 16C31.3044 16 16 18.0869 16 18.0869L0 16Z" fill="#D80027"/>
<path d="M32 16C32 24.8365 24.8365 32 16 32C7.1635 32 0 24.8365 0 16" fill="black"/>
<path d="M13.8066 12.7257L15.163 13.7101L14.6461 15.3043L16.0015 14.3183L17.358 15.3027L16.8391 13.7089L18.1944 12.7231L16.5185 12.7241L15.9995 11.1304L15.4826 12.7246L13.8066 12.7257Z" fill="#FFDA44"/>
<path d="M20.0002 9.07158C18.7394 8.34364 17.3608 8.00008 16.0002 8.00245V10.089C17.0059 10.0871 18.0248 10.3409 18.9567 10.879C21.7803 12.5093 22.7513 16.1328 21.1209 18.9564C19.4908 21.78 15.8673 22.7509 13.0436 21.1207C12.221 20.6457 11.5569 20.0009 11.0674 19.2567L9.3252 20.4069C9.98751 21.4137 10.8873 22.2854 12.0002 22.9279C15.8204 25.1336 20.7228 23.82 22.9283 19.9998C25.1339 16.1795 23.8204 11.2772 20.0002 9.07158V9.07158Z" fill="#FFDA44"/>
<path d="M11.3873 14.6084C10.8341 15.6196 11.2055 16.8878 12.2166 17.4409L18.9947 21.1446C18.5338 21.9872 18.7786 23.0128 19.6211 23.4737L21.4521 24.4753C22.2946 24.9363 23.3516 24.6268 23.8125 23.7841L24.8141 21.9533L11.3873 14.6084Z" fill="#FFDA44"/>
</svg>
