<svg width="32" height="32" viewBox="0 0 32 32" fill="none" xmlns="http://www.w3.org/2000/svg">
<path d="M16.0005 0C14.0434 0 12.1686 0.352063 10.4353 0.995188L9.73962 16L10.4352 31.0048C12.1686 31.648 14.0434 32 16.0005 32C17.9576 32 19.8324 31.648 21.5657 31.0048L22.2614 16L21.5657 0.995188C19.8324 0.352063 17.9576 0 16.0005 0V0Z" fill="#FFDA44"/>
<path d="M32 16C32 9.12056 27.658 3.25587 21.5652 0.995186V31.0049C27.658 28.7441 32 22.8794 32 16V16Z" fill="#D80027"/>
<path d="M10.4348 31.0048V0.995186C4.342 3.25587 0 9.12056 0 16C0 22.8794 4.342 28.7441 10.4348 31.0048Z" fill="#0052B4"/>
</svg>
