<svg width="32" height="32" viewBox="0 0 32 32" fill="none" xmlns="http://www.w3.org/2000/svg">
<path d="M16 32C24.8366 32 32 24.8366 32 16C32 7.16344 24.8366 0 16 0C7.16344 0 0 7.16344 0 16C0 24.8366 7.16344 32 16 32Z" fill="#F0F0F0"/>
<path d="M31.0048 10.4346H0.995188C0.352 12.1679 0 14.0426 0 15.9998C0 17.9569 0.352 19.8316 0.995188 21.5649H31.0049C31.648 19.8316 32 17.9569 32 15.9998C32 14.0426 31.648 12.1679 31.0048 10.4346Z" fill="#0052B4"/>
<path d="M16.0002 0C11.1507 0 6.80553 2.15775 3.87134 5.56519H28.1289C25.1948 2.15775 20.8496 0 16.0002 0V0Z" fill="#D80027"/>
<path d="M28.129 26.4346H3.87134C6.80553 29.842 11.1507 31.9998 16.0002 31.9998C20.8496 31.9998 25.1948 29.842 28.129 26.4346Z" fill="#D80027"/>
</svg>
