<svg width="32" height="32" viewBox="0 0 32 32" fill="none" xmlns="http://www.w3.org/2000/svg">
<path d="M16 32C24.8366 32 32 24.8366 32 16C32 7.16344 24.8366 0 16 0C7.16344 0 0 7.16344 0 16C0 24.8366 7.16344 32 16 32Z" fill="#F0F0F0"/>
<path d="M31.8629 13.9132C31.4215 10.539 29.9059 7.27865 27.3137 4.68646C24.7215 2.09427 21.461 0.578582 18.0869 0.137207L18.087 13.9132H31.8629Z" fill="#0052B4"/>
<path d="M13.9127 0.137207C10.5385 0.578582 7.2781 2.09421 4.68591 4.6864C2.09378 7.27865 0.578094 10.5391 0.136719 13.9133L13.9127 13.9132L13.9127 0.137207Z" fill="#0052B4"/>
<path d="M0.136719 18.0869C0.578094 21.461 2.09378 24.7215 4.68591 27.3137C7.2781 29.9058 10.5385 31.4214 13.9127 31.863L13.9127 18.087L0.136719 18.0869Z" fill="#0052B4"/>
<path d="M18.0869 31.8628C21.461 31.4214 24.7214 29.9058 27.3136 27.3136C29.9058 24.7214 31.4214 21.461 31.8628 18.0869H18.0869V31.8628Z" fill="#0052B4"/>
<path d="M21.4621 10.1523C21.4621 9.93955 21.635 9.76661 21.8478 9.76661H22.6743C23.9808 9.76661 25.0438 8.70373 25.0438 7.3973C25.0438 6.09086 23.9809 5.02792 22.6743 5.02792H21.8895C21.6333 4.83548 21.2896 4.7168 20.9105 4.7168C20.1196 4.7168 19.4786 5.22961 19.4786 5.86223C19.4786 6.48873 20.1074 6.99698 20.8876 7.00686L20.8873 7.01142H22.6743C22.8871 7.01142 23.0601 7.18442 23.0601 7.39717C23.0601 7.60992 22.8871 7.78286 22.6743 7.78286H21.8478C20.5413 7.78286 19.4785 8.84573 19.4785 10.1522C19.4785 11.4586 20.5413 12.5215 21.8478 12.5215H25.0437V10.5379H21.8478C21.635 10.538 21.4621 10.365 21.4621 10.1523V10.1523Z" fill="#F0F0F0"/>
<path d="M8.94053 10.1523C8.94053 9.93955 9.11347 9.76661 9.32628 9.76661H10.1528C11.4593 9.76661 12.5222 8.70373 12.5222 7.3973C12.5222 6.09086 11.4593 5.02792 10.1528 5.02792H9.36791C9.11172 4.83548 8.76803 4.7168 8.38891 4.7168C7.59809 4.7168 6.95703 5.22961 6.95703 5.86223C6.95703 6.48873 7.58584 6.99698 8.36609 7.00686L8.36572 7.01142H10.1528C10.3657 7.01142 10.5386 7.18442 10.5386 7.39717C10.5386 7.60992 10.3657 7.78286 10.1528 7.78286H9.32634C8.01984 7.78286 6.95703 8.84573 6.95703 10.1522C6.95703 11.4586 8.01978 12.5215 9.32634 12.5215H12.5222V10.5379H9.32628C9.11347 10.538 8.94053 10.365 8.94053 10.1523V10.1523Z" fill="#F0F0F0"/>
<path d="M21.4621 24.9135C21.4621 24.7008 21.6351 24.5278 21.8479 24.5278H22.6744C23.9809 24.5278 25.0438 23.465 25.0438 22.1585C25.0438 20.8521 23.981 19.7892 22.6744 19.7892H21.8895C21.6333 19.5967 21.2896 19.478 20.9105 19.478C20.1196 19.478 19.4786 19.9909 19.4786 20.6235C19.4786 21.25 20.1074 21.7582 20.8876 21.7681L20.8873 21.7727H22.6743C22.8871 21.7727 23.0601 21.9457 23.0601 22.1584C23.0601 22.3712 22.8871 22.5441 22.6743 22.5441H21.8478C20.5413 22.5441 19.4785 23.607 19.4785 24.9134C19.4785 26.2198 20.5413 27.2828 21.8478 27.2828H25.0438V25.2992H21.8479C21.6351 25.2993 21.4621 25.1262 21.4621 24.9135V24.9135Z" fill="#F0F0F0"/>
<path d="M8.94059 24.9135C8.94059 24.7008 9.11353 24.5278 9.32634 24.5278H10.1528C11.4593 24.5278 12.5223 23.465 12.5223 22.1585C12.5223 20.8521 11.4594 19.7892 10.1528 19.7892H9.36797C9.11178 19.5967 8.76809 19.478 8.38897 19.478C7.59809 19.478 6.95703 19.9909 6.95703 20.6235C6.95703 21.25 7.58584 21.7582 8.36609 21.7681L8.36572 21.7727H10.1528C10.3657 21.7727 10.5386 21.9457 10.5386 22.1584C10.5386 22.3712 10.3657 22.5441 10.1528 22.5441H9.32634C8.01984 22.5441 6.95703 23.607 6.95703 24.9134C6.95703 26.2198 8.01978 27.2828 9.32634 27.2828H12.5222V25.2992H9.32634C9.11353 25.2993 8.94059 25.1262 8.94059 24.9135Z" fill="#F0F0F0"/>
</svg>
