<svg width="32" height="32" viewBox="0 0 32 32" fill="none" xmlns="http://www.w3.org/2000/svg">
<path d="M31.4485 11.8261C29.6125 5.01381 23.3922 0 15.9997 0C8.60728 0 2.3869 5.01381 0.550903 11.8261L15.9997 12.5218L31.4485 11.8261Z" fill="#A2001D"/>
<path d="M0.550903 20.1737C2.3869 26.9859 8.60728 31.9998 15.9997 31.9998C23.3922 31.9998 29.6125 26.986 31.4485 20.1737L15.9997 19.478L0.550903 20.1737Z" fill="#A2001D"/>
<path d="M31.4488 11.8262H0.551188C0.1925 13.157 0 14.5559 0 16.0001C0 17.4443 0.1925 18.8432 0.551188 20.174H31.4489C31.8075 18.8432 32 17.4443 32 16.0001C32 14.5559 31.8075 13.157 31.4488 11.8262V11.8262Z" fill="#6DA544"/>
</svg>
