<svg width="32" height="32" viewBox="0 0 32 32" fill="none" xmlns="http://www.w3.org/2000/svg">
<g clip-path="url(#clip0_16_12038)">
<path d="M0 15.9998C0 18.493 0.570438 20.8528 1.58763 22.9563L16 23.652L30.4124 22.9564C31.4296 20.8528 32 18.493 32 15.9998C32 13.5067 31.4296 11.1468 30.4124 9.04334L16 8.34766L1.58763 9.04328C0.570438 11.1468 0 13.5067 0 15.9998H0Z" fill="#F0F0F0"/>
<path d="M16.0001 32C22.3434 32 27.8245 28.3085 30.4125 22.9565H1.58777C4.17577 28.3085 9.65676 32 16.0001 32Z" fill="#6DA544"/>
<path d="M16.0001 0C9.65676 0 4.17577 3.69156 1.58777 9.0435H30.4124C27.8245 3.69156 22.3434 0 16.0001 0V0Z" fill="#0052B4"/>
<path d="M17.044 15.6522V11.8262H14.957V15.6522L12.4364 18.1729C13.1695 19.3729 14.4914 20.174 16.0005 20.174C17.5096 20.174 18.8315 19.3729 19.5646 18.1729L17.044 15.6522Z" fill="black"/>
</g>
<defs>
<clipPath id="clip0_16_12038">
<rect width="32" height="32" fill="white"/>
</clipPath>
</defs>
</svg>
