<svg width="32" height="32" viewBox="0 0 32 32" fill="none" xmlns="http://www.w3.org/2000/svg">
<g clip-path="url(#clip0_16_11162)">
<path d="M16 32C24.8366 32 32 24.8366 32 16C32 7.16344 24.8366 0 16 0C7.16344 0 0 7.16344 0 16C0 24.8366 7.16344 32 16 32Z" fill="#FCFCFC"/>
<path d="M6.60924 14.8405L4.87012 11.6853L6.60924 8.57959L8.34837 11.6853L6.60924 14.8405Z" fill="#A2001D"/>
<path d="M3.13073 14.8405L1.3916 11.6853L3.13073 8.57959L4.86985 11.6853L3.13073 14.8405Z" fill="#A2001D"/>
<path d="M6.60924 23.4205L4.87012 20.2654L6.60924 17.1597L8.34837 20.2654L6.60924 23.4205Z" fill="#A2001D"/>
<path d="M3.13073 23.4205L1.3916 20.2654L3.13073 17.1597L4.86985 20.2654L3.13073 23.4205Z" fill="#A2001D"/>
<path d="M8.34786 3.10581L7.85548 2.22656C6.97236 2.74981 6.14405 3.35562 5.38086 4.03337L6.60873 6.26094L8.34786 3.10581Z" fill="#A2001D"/>
<path d="M6.60892 25.7392L5.36804 27.9552C6.13054 28.6338 6.95829 29.2406 7.84104 29.7649L8.3481 28.8449L6.60892 25.7392Z" fill="#A2001D"/>
<path d="M9.73926 20.1738V30.7278C11.6623 31.5463 13.7781 31.9999 16.0001 31.9999C22.8796 31.9999 28.7443 27.6579 31.005 21.5651L9.73926 20.1738Z" fill="#6DA544"/>
<path d="M31.005 21.5652C31.6482 19.8319 32.0002 17.9571 32.0002 16C32.0002 7.1635 24.8366 0 16.0001 0C13.7783 0 11.6623 0.453312 9.73926 1.27175V21.5653H31.005V21.5652Z" fill="#A2001D"/>
</g>
<defs>
<clipPath id="clip0_16_11162">
<rect width="32" height="32" fill="white"/>
</clipPath>
</defs>
</svg>
