<svg width="32" height="32" viewBox="0 0 32 32" fill="none" xmlns="http://www.w3.org/2000/svg">
<g clip-path="url(#clip0_16_11587)">
<path d="M14.609 17.3913C14.609 17.3913 4.6959 4.68406 4.68652 4.68631C7.5819 1.79088 11.582 0 16.0003 0C24.8368 0 32.0003 7.1635 32.0003 16L14.609 17.3913Z" fill="#338AF3"/>
<path d="M14.609 16C14.609 16 4.6959 27.3159 4.68652 27.3137C7.5819 30.2091 11.582 32 16.0003 32C24.8368 32 32.0003 24.8365 32.0003 16H14.609Z" fill="#6DA544"/>
<path d="M4.68628 4.68604C-1.56209 10.9344 -1.56209 21.0651 4.68628 27.3135C7.26834 24.7315 9.75165 22.2482 16 15.9998L4.68628 4.68604Z" fill="#F0F0F0"/>
<path d="M6.47561 11.8262L7.51154 15.0147H10.8644L8.15205 16.9854L9.18792 20.174L6.47561 18.2034L3.76317 20.174L4.79929 16.9854L2.08691 15.0147H5.43954L6.47561 11.8262Z" fill="#D80027"/>
</g>
<defs>
<clipPath id="clip0_16_11587">
<rect width="32" height="32" fill="white"/>
</clipPath>
</defs>
</svg>
