<svg width="32" height="32" viewBox="0 0 32 32" fill="none" xmlns="http://www.w3.org/2000/svg">
<g clip-path="url(#clip0_16_12245)">
<path d="M31.0048 21.5652C31.648 19.8319 32 17.9571 32 16C32 14.0429 31.648 12.1681 31.0048 10.4348L16 9.0435L0.995188 10.4348C0.352063 12.1681 0 14.0429 0 16C0 17.9571 0.352063 19.8319 0.995188 21.5652L16 22.9565L31.0048 21.5652Z" fill="#6DA544"/>
<path d="M31.0052 10.4348C28.7445 4.342 22.8798 0 16.0004 0C9.12098 0 3.25629 4.342 0.995605 10.4348H31.0052Z" fill="#FFDA44"/>
<path d="M16.0004 32.0002C22.8798 32.0002 28.7445 27.6582 31.0052 21.5654H0.995605C3.25629 27.6582 9.12098 32.0002 16.0004 32.0002Z" fill="#D80027"/>
<path d="M26.9718 13.5369H18.5901L16 5.56543L13.4099 13.5369H5.0282L11.8091 18.4635L9.21901 26.4351L16 21.5654L22.781 26.435L20.191 18.4634L26.9718 13.5369Z" fill="#F0F0F0"/>
</g>
<defs>
<clipPath id="clip0_16_12245">
<rect width="32" height="32" fill="white"/>
</clipPath>
</defs>
</svg>
