<svg width="32" height="32" viewBox="0 0 32 32" fill="none" xmlns="http://www.w3.org/2000/svg">
<g clip-path="url(#clip0_16_11636)">
<path d="M0 16C0 7.1635 7.1635 0 16 0C24.8365 0 32 7.1635 32 16L16 17.3913L0 16Z" fill="#FFDA44"/>
<path d="M2.14062 24C4.90719 28.7823 10.0774 32 15.9996 32C21.9218 32 27.092 28.7823 29.8586 24L15.9996 22.9565L2.14062 24Z" fill="#D80027"/>
<path d="M29.859 24C31.2204 21.6466 32 18.9144 32 16H0C0 18.9144 0.779625 21.6466 2.141 24H29.859Z" fill="#0052B4"/>
<path d="M15.9998 21.5649C19.0733 21.5649 21.5649 19.0733 21.5649 15.9998C21.5649 12.9262 19.0733 10.4346 15.9998 10.4346C12.9262 10.4346 10.4346 12.9262 10.4346 15.9998C10.4346 19.0733 12.9262 21.5649 15.9998 21.5649Z" fill="#FFDA44"/>
<path d="M15.9997 19.478C14.0818 19.478 12.5215 17.9176 12.5215 15.9998V13.9128C12.5215 11.9949 14.0819 10.4346 15.9997 10.4346C17.9176 10.4346 19.478 11.9949 19.478 13.9128V15.9998C19.478 17.9177 17.9177 19.478 15.9997 19.478Z" fill="#338AF3"/>
<path d="M21.5651 7.65205H17.3911C17.3911 6.88368 16.7682 6.26074 15.9998 6.26074C15.2314 6.26074 14.6085 6.88368 14.6085 7.65205H10.4346C10.4346 8.42049 11.1039 9.04337 11.8722 9.04337H11.8259C11.8259 9.8118 12.4488 10.4347 13.2172 10.4347C13.2172 11.2031 13.8401 11.826 14.6085 11.826H17.3911C18.1596 11.826 18.7824 11.2031 18.7824 10.4347C19.5509 10.4347 20.1738 9.8118 20.1738 9.04337H20.1274C20.8958 9.04337 21.5651 8.42043 21.5651 7.65205V7.65205Z" fill="black"/>
</g>
<defs>
<clipPath id="clip0_16_11636">
<rect width="32" height="32" fill="white"/>
</clipPath>
</defs>
</svg>
