<svg width="32" height="32" viewBox="0 0 32 32" fill="none" xmlns="http://www.w3.org/2000/svg">
<path d="M21.5656 0.995188C19.8323 0.352063 17.9576 0 16.0004 0C14.0433 0 12.1686 0.352063 10.4353 0.995188L9.04395 16L10.4353 31.0048C12.1686 31.648 14.0433 32 16.0004 32C17.9576 32 19.8323 31.648 21.5656 31.0048L22.9569 16L21.5656 0.995188Z" fill="#FFDA44"/>
<path d="M31.9998 15.9999C31.9998 9.12049 27.6578 3.25574 21.5649 0.995117V31.0048C27.6578 28.744 31.9998 22.8794 31.9998 15.9999V15.9999Z" fill="#D80027"/>
<path d="M0 15.9999C0 22.8794 4.342 28.744 10.4348 31.0047V0.995117C4.342 3.25574 0 9.12049 0 15.9999V15.9999Z" fill="black"/>
</svg>
