<svg width="32" height="32" viewBox="0 0 32 32" fill="none" xmlns="http://www.w3.org/2000/svg">
<g clip-path="url(#clip0_16_12236)">
<path d="M16 32C24.8366 32 32 24.8366 32 16C32 7.16344 24.8366 0 16 0C7.16344 0 0 7.16344 0 16C0 24.8366 7.16344 32 16 32Z" fill="#F0F0F0"/>
<path d="M8.64789 22.2607L4.68652 27.3131C7.58177 30.2087 11.5813 31.9999 15.9997 31.9999C22.6141 31.9999 28.2899 27.9856 30.7266 22.2607H8.64789Z" fill="#FFDA44"/>
<path d="M30.7515 9.79706C28.3284 4.04138 22.6364 0 15.9997 0C11.5813 0 7.58177 1.79119 4.68652 4.68681L8.69339 9.79706H30.7515Z" fill="#496E2D"/>
<path d="M3.47852 11.7681V20.1738H31.4491C31.808 18.8431 32.0003 17.4441 32.0003 15.9999C32.0003 14.5348 31.8029 13.1161 31.4339 11.7681H3.47852Z" fill="black"/>
<path d="M4.68628 4.68604C-1.56209 10.9344 -1.56209 21.0651 4.68628 27.3135C7.26834 24.7315 9.75165 22.2482 16 15.9998L4.68628 4.68604Z" fill="#A2001D"/>
<path d="M6.47561 11.8262L7.51155 15.0147H10.8644L8.15205 16.9854L9.18792 20.174L6.47561 18.2034L3.76317 20.174L4.79929 16.9854L2.08691 15.0147H5.43954L6.47561 11.8262Z" fill="#FFDA44"/>
<path d="M3.44434 16H9.50834V18.7826H3.44434V16Z" fill="#F0F0F0"/>
<path d="M10.656 12.81L9.67223 11.8262L6.47548 15.0229L3.27873 11.8262L2.29492 12.81L5.49448 16.0039L2.29492 19.2035L3.27873 20.174L6.47548 16.983L9.67223 20.174L10.656 19.2035L7.45648 16.0039L10.656 12.81Z" fill="black"/>
</g>
<defs>
<clipPath id="clip0_16_12236">
<rect width="32" height="32" fill="white"/>
</clipPath>
</defs>
</svg>
