<svg width="32" height="32" viewBox="0 0 32 32" fill="none" xmlns="http://www.w3.org/2000/svg">
<g clip-path="url(#clip0_16_12804)">
<path d="M1.58763 9.04366C0.5705 11.1472 0 13.507 0 16.0002C0 18.4933 0.5705 20.8532 1.58763 22.9567L16 24.348L30.4124 22.9567C31.4295 20.8532 32 18.4933 32 16.0002C32 13.507 31.4295 11.1472 30.4124 9.04366L16 7.65234L1.58763 9.04366Z" fill="#F0F0F0"/>
<path d="M1.58789 22.9565C4.17583 28.3084 9.65639 32 15.9997 32C22.343 32 27.8236 28.3084 30.4115 22.9565H1.58789Z" fill="#6DA544"/>
<path d="M1.58789 9.0435H30.4115C27.8236 3.69163 22.343 0 15.9997 0C9.65639 0 4.17583 3.69163 1.58789 9.0435Z" fill="#D80027"/>
<path d="M13.2178 20.1736H18.783V17.8084L17.67 18.3649L16.0004 16.6953L14.3308 18.3649L13.2178 17.8084V20.1736Z" fill="#FFDA44"/>
<path d="M10.0337 17.3912L10.2928 18.1883H11.1309L10.4528 18.681L10.7118 19.4781L10.0337 18.9855L9.35559 19.4781L9.61465 18.681L8.93652 18.1883H9.77465L10.0337 17.3912Z" fill="#FFDA44"/>
<path d="M10.8364 14.6084L11.0955 15.4055H11.9336L11.2555 15.8982L11.5145 16.6953L10.8364 16.2027L10.1583 16.6953L10.4174 15.8982L9.73926 15.4055H10.5774L10.8364 14.6084Z" fill="#FFDA44"/>
<path d="M13.1323 12.5215L13.3914 13.3186H14.2295L13.5515 13.8113L13.8104 14.6084L13.1323 14.1158L12.4543 14.6084L12.7133 13.8113L12.0352 13.3186H12.8733L13.1323 12.5215Z" fill="#FFDA44"/>
<path d="M21.9672 17.3912L21.7081 18.1883H20.87L21.5481 18.681L21.2891 19.4781L21.9672 18.9855L22.6452 19.4781L22.3862 18.681L23.0644 18.1883H22.2262L21.9672 17.3912Z" fill="#FFDA44"/>
<path d="M21.1646 14.6084L20.9055 15.4055H20.0674L20.7455 15.8982L20.4864 16.6953L21.1646 16.2027L21.8427 16.6953L21.5836 15.8982L22.2618 15.4055H21.4236L21.1646 14.6084Z" fill="#FFDA44"/>
<path d="M18.8686 12.5215L18.6095 13.3186H17.7715L18.4495 13.8113L18.1905 14.6084L18.8686 14.1158L19.5467 14.6084L19.2877 13.8113L19.9657 13.3186H19.1276L18.8686 12.5215Z" fill="#FFDA44"/>
<path d="M16.0005 11.478L16.2596 12.2752H17.0977L16.4196 12.7678L16.6786 13.565L16.0005 13.0723L15.3224 13.565L15.5814 12.7678L14.9033 12.2752H15.7414L16.0005 11.478Z" fill="#FFDA44"/>
</g>
<defs>
<clipPath id="clip0_16_12804">
<rect width="32" height="32" fill="white"/>
</clipPath>
</defs>
</svg>
