<svg width="32" height="32" viewBox="0 0 32 32" fill="none" xmlns="http://www.w3.org/2000/svg">
<path d="M16.0003 32C17.9574 32 19.8322 31.648 21.5654 31.0048L22.2611 16L21.5655 0.995188C19.8322 0.352063 17.9574 0 16.0003 0C14.0431 0 12.1683 0.352063 10.4351 0.995188L9.73938 16L10.435 31.0048C12.1683 31.648 14.0431 32 16.0003 32Z" fill="#0052B4"/>
<path d="M0 16C0 22.8794 4.342 28.7441 10.4348 31.0048V0.995193C4.342 3.25588 0 9.12057 0 16Z" fill="#A2001D"/>
<path d="M21.5649 0.995193V31.0049C27.6578 28.7441 31.9998 22.8794 31.9998 16C31.9998 9.12057 27.6578 3.25588 21.5649 0.995193V0.995193Z" fill="#A2001D"/>
<path d="M7.65222 16H9.04353V21.5652H7.65222V16Z" fill="#FFDA44"/>
<path d="M2.08716 16H3.47847V21.5652H2.08716V16Z" fill="#FFDA44"/>
<path d="M5.56563 19.4779C6.33403 19.4779 6.95694 18.855 6.95694 18.0866C6.95694 17.3182 6.33403 16.6953 5.56563 16.6953C4.79723 16.6953 4.17432 17.3182 4.17432 18.0866C4.17432 18.855 4.79723 19.4779 5.56563 19.4779Z" fill="#FFDA44"/>
<path d="M5.56538 13.9127C5.94956 13.9127 6.261 13.6013 6.261 13.2171C6.261 12.8329 5.94956 12.5215 5.56538 12.5215C5.18119 12.5215 4.86975 12.8329 4.86975 13.2171C4.86975 13.6013 5.18119 13.9127 5.56538 13.9127Z" fill="#FFDA44"/>
<path d="M4.17432 20.1738H6.95694V21.5651H4.17432V20.1738Z" fill="#FFDA44"/>
<path d="M4.17432 14.6084H6.95694V15.9997H4.17432V14.6084Z" fill="#FFDA44"/>
<path d="M5.56582 8.34766L6.05857 9.86391H7.65282L6.36313 10.801L6.85551 12.3173L5.56582 11.3802L4.27619 12.3173L4.76857 10.801L3.47888 9.86391H5.07313L5.56582 8.34766Z" fill="#FFDA44"/>
</svg>
