<svg width="32" height="32" viewBox="0 0 32 32" fill="none" xmlns="http://www.w3.org/2000/svg">
<path d="M16 32C24.8366 32 32 24.8366 32 16C32 7.16344 24.8366 0 16 0C7.16344 0 0 7.16344 0 16C0 24.8366 7.16344 32 16 32Z" fill="#D80027"/>
<path d="M21.9243 10.7259L20.7934 14.7616L17.4003 14.135L15.2161 9.63281L9.3157 11.7266L8.85039 10.4154L7.30664 10.2252L8.46983 13.5033L12.5304 12.4648L13.6843 15.7166L10.8773 19.8593L15.6409 23.9221L14.738 24.9807L15.3451 26.4128L17.6025 23.7663L14.6729 20.769L16.9121 18.1438L21.9032 18.5034L23.04 12.3466L24.4082 12.5993L25.345 11.3574L21.9243 10.7259Z" fill="#F0F0F0"/>
</svg>
