<svg width="32" height="32" viewBox="0 0 32 32" fill="none" xmlns="http://www.w3.org/2000/svg">
<path d="M32 16C32 10.5087 29.2332 5.66413 25.0179 2.78263L16 2.08694L6.98206 2.78257C2.76687 5.66413 0 10.5088 0 16C0 21.4915 2.76687 26.3359 6.98206 29.2174L16 29.9131L25.0179 29.2175C29.2332 26.3359 32 21.4915 32 16Z" fill="#0052B4"/>
<path d="M25.0179 2.78262C22.4501 1.02725 19.3452 0 16 0C12.6548 0 9.54986 1.02725 6.98206 2.78262H25.0179Z" fill="#A2001D"/>
<path d="M6.98206 29.2174C9.5498 30.9728 12.6548 32 16 32C19.3452 32 22.4501 30.9728 25.0179 29.2174H6.98206Z" fill="#A2001D"/>
<path d="M15.9998 23.652C20.226 23.652 23.652 20.226 23.652 15.9998C23.652 11.7737 20.226 8.34766 15.9998 8.34766C11.7737 8.34766 8.34766 11.7737 8.34766 15.9998C8.34766 20.226 11.7737 23.652 15.9998 23.652Z" fill="#F0F0F0"/>
<path d="M16.0003 22.261C19.458 22.261 22.2611 19.4579 22.2611 16.0001C22.2611 12.5423 19.458 9.73926 16.0003 9.73926C12.5425 9.73926 9.73938 12.5423 9.73938 16.0001C9.73938 19.4579 12.5425 22.261 16.0003 22.261Z" fill="#6DA544"/>
<path d="M16.0005 20.174C18.3057 20.174 20.1744 18.3053 20.1744 16.0001C20.1744 13.6949 18.3057 11.8262 16.0005 11.8262C13.6953 11.8262 11.8265 13.6949 11.8265 16.0001C11.8265 18.3053 13.6953 20.174 16.0005 20.174Z" fill="#F0F0F0"/>
<path d="M16.0001 14.9565L13.7393 16V17.7392L16.0001 19.1305L18.261 17.7392V16L16.0001 14.9565Z" fill="#0052B4"/>
<path d="M13.7393 13.9131H18.261V16H13.7393V13.9131Z" fill="#FFDA44"/>
</svg>
