<svg width="32" height="32" viewBox="0 0 32 32" fill="none" xmlns="http://www.w3.org/2000/svg">
<path d="M16 32C24.8366 32 32 24.8366 32 16C32 7.16344 24.8366 0 16 0C7.16344 0 0 7.16344 0 16C0 24.8366 7.16344 32 16 32Z" fill="#F0F0F0"/>
<path d="M16.0003 32C20.0576 32 23.7615 30.489 26.582 28H5.4187C8.23914 30.489 11.943 32 16.0003 32Z" fill="#D80027"/>
<path d="M0.504272 20C0.869585 21.4191 1.42496 22.7619 2.14121 24H29.8591C30.5754 22.7619 31.1308 21.4191 31.4961 20L16.0002 18.7826L0.504272 20Z" fill="#0052B4"/>
<path d="M31.4962 12C31.1309 10.5809 30.5755 9.23812 29.8592 8L16.0002 7.65219C16.0002 4.85762 16.0002 2.21656 16.0002 0C14.8117 0 13.6533 0.129687 12.5386 0.3755C12.5172 0.38025 2.08716 8.60738 2.08716 16C2.35385 16.0464 16.0002 17.3913 16.0002 17.3913C16.0002 17.3913 16.0002 14.3438 16.0002 12H31.4962Z" fill="#0052B4"/>
<path d="M16 9.98263V1.98263H10.9328L12.5389 0.376564C5.94569 1.83069 0.87975 7.35094 0.104375 14.1739C0.03625 14.7733 0 15.3824 0 16H8.10437V12.8111L11.3249 16H17.0489L10.9327 9.98263H16Z" fill="#F0F0F0"/>
<path d="M16.0073 16.0002L9.98994 9.98281H8.10437V9.98288L14.1217 16.0002H6.08694V8.00019H29.859C28.9879 6.49438 27.878 5.14413 26.5817 4.00019H6.08694V3.44238C4.47269 4.71844 3.11069 6.29894 2.08694 8.09732V16.0002H0C0 17.3814 0.175 18.7217 0.504062 20.0002H31.4959C31.825 18.7217 32 17.3814 32 16.0002H16.0073Z" fill="#D80027"/>
</svg>
