<svg width="32" height="32" viewBox="0 0 32 32" fill="none" xmlns="http://www.w3.org/2000/svg">
<path d="M22.9567 1.58763C20.8532 0.5705 18.4933 0 16.0002 0C13.507 0 11.1472 0.5705 9.04366 1.58763L7.65234 16L9.04366 30.4124C11.1472 31.4295 13.507 32 16.0002 32C18.4933 32 20.8532 31.4295 22.9567 30.4124L24.348 16L22.9567 1.58763Z" fill="#D80027"/>
<path d="M9.0435 1.58838C3.69163 4.17632 0 9.65688 0 16.0002C0 22.3435 3.69163 27.8241 9.0435 30.412V1.58838Z" fill="black"/>
<path d="M22.9561 1.58838V30.412C28.3079 27.8241 31.9996 22.3435 31.9996 16.0002C31.9996 9.65688 28.3079 4.17632 22.9561 1.58838Z" fill="#496E2D"/>
<path d="M15.9998 10.4346C12.9261 10.4346 10.4346 12.9262 10.4346 15.9998C10.4346 19.0733 12.9262 21.5649 15.9998 21.5649C19.0733 21.5649 21.5649 19.0733 21.5649 15.9998C21.5649 12.9262 19.0734 10.4346 15.9998 10.4346ZM15.9998 19.478C14.0788 19.478 12.5215 17.9207 12.5215 15.9998C12.5215 14.0788 14.0788 12.5215 15.9998 12.5215C17.9207 12.5215 19.478 14.0788 19.478 15.9998C19.478 17.9207 17.9208 19.478 15.9998 19.478Z" fill="#FFDA44"/>
<path d="M15.9997 13.9126C15.2313 13.9126 14.6084 14.5355 14.6084 15.3039V17.3908H17.391V15.3039C17.391 14.5355 16.7681 13.9126 15.9997 13.9126V13.9126Z" fill="#FFDA44"/>
</svg>
