<svg width="32" height="32" viewBox="0 0 32 32" fill="none" xmlns="http://www.w3.org/2000/svg">
<path d="M16 32C24.8366 32 32 24.8366 32 16C32 7.16344 24.8366 0 16 0C7.16344 0 0 7.16344 0 16C0 24.8366 7.16344 32 16 32Z" fill="#F0F0F0"/>
<path d="M15.9999 31.9998C20.8493 31.9998 25.1945 29.842 28.1287 26.4346H3.87109C6.80528 29.842 11.1505 31.9998 15.9999 31.9998Z" fill="#0052B4"/>
<path d="M32 16C32 7.1635 24.8365 0 16 0C7.1635 0 0 7.1635 0 16C0 17.4442 0.1925 18.8431 0.551188 20.1739H31.4489C31.8075 18.8431 32 17.4442 32 16Z" fill="#0052B4"/>
<path d="M1.27148 22.2607C1.57992 22.9855 1.94048 23.6825 2.34817 24.3477H29.6514C30.059 23.6824 30.4196 22.9854 30.7281 22.2607H1.27148Z" fill="#D80027"/>
<path d="M11.4371 17.0435L11.6961 17.8406H12.5343L11.8562 18.3333L12.1152 19.1304L11.4371 18.6378L10.759 19.1304L11.018 18.3333L10.34 17.8406H11.1782L11.4371 17.0435Z" fill="#FFDA44"/>
<path d="M11.4371 27.4781L11.6961 28.2753H12.5343L11.8562 28.7679L12.1152 29.565L11.4371 29.0724L10.759 29.565L11.018 28.7679L10.34 28.2753H11.1782L11.4371 27.4781Z" fill="#FFDA44"/>
<path d="M6.57967 23.9493L6.83867 24.7464H7.67686L6.99879 25.239L7.25779 26.0362L6.57967 25.5436L5.90154 26.0362L6.16067 25.239L5.48254 24.7464H6.32067L6.57967 23.9493Z" fill="#FFDA44"/>
<path d="M8.4352 18.087L8.6942 18.8841H9.53232L8.85432 19.3768L9.11333 20.174L8.4352 19.6813L7.75708 20.174L8.0162 19.3768L7.33801 18.8841H8.1762L8.4352 18.087Z" fill="#FFDA44"/>
<path d="M5.48254 21.3696L6.32054 21.3696L6.57961 20.5723L6.83867 21.3696L7.67686 21.3695L6.99873 21.8622L7.25779 22.6594L6.57961 22.1667L5.90154 22.6592L6.16054 21.8621L5.48254 21.3696Z" fill="#FFDA44"/>
<path d="M7.7572 28.3696L8.0162 27.5726L7.33801 27.0799H8.1762L8.43526 26.2828L8.69433 27.0799H9.53245L8.85433 27.5725L9.11333 28.3698L8.4352 27.877L7.7572 28.3696Z" fill="#FFDA44"/>
<path d="M16.2926 23.9493L16.0336 24.7463H15.1954L15.8734 25.239L15.6144 26.0362L16.2926 25.5435L16.9707 26.0362L16.7116 25.239L17.3897 24.7463H16.5516L16.2926 23.9493Z" fill="#FFDA44"/>
<path d="M14.4371 18.0869L14.1782 18.8841H13.34L14.018 19.3768L13.759 20.1739L14.4371 19.6812L15.1152 20.1739L14.8562 19.3768L15.5343 18.8841H14.6961L14.4371 18.0869Z" fill="#FFDA44"/>
<path d="M17.3897 21.3696L16.5517 21.3696L16.2926 20.5723L16.0336 21.3696L15.1954 21.3695L15.8735 21.8622L15.6144 22.6594L16.2926 22.1667L16.9707 22.6592L16.7117 21.8621L17.3897 21.3696Z" fill="#FFDA44"/>
<path d="M15.1152 28.3696L14.8563 27.5726L15.5344 27.0799H14.6962L14.4372 26.2828L14.1782 27.0799H13.34L14.0181 27.5725L13.7591 28.3698L14.4372 27.877L15.1152 28.3696Z" fill="#FFDA44"/>
</svg>
