<svg width="32" height="32" viewBox="0 0 32 32" fill="none" xmlns="http://www.w3.org/2000/svg">
<path d="M22.9567 1.58763C20.8532 0.5705 18.4933 0 16.0002 0C13.507 0 11.1472 0.5705 9.04366 1.58763L7.65234 16L9.04366 30.4124C11.1472 31.4295 13.507 32 16.0002 32C18.4933 32 20.8532 31.4295 22.9567 30.4124L24.348 16L22.9567 1.58763Z" fill="#FFDA44"/>
<path d="M15.9998 10.435L17.3811 14.6863H21.8516L18.2351 17.3139L19.6164 21.5654L15.9998 18.9379L12.3833 21.5654L13.7648 17.3139L10.1483 14.6863H14.6185L15.9998 10.435Z" fill="#496E2D"/>
<path d="M9.0435 1.58838C3.69163 4.17632 0 9.65688 0 16.0002C0 22.3435 3.69163 27.8241 9.0435 30.412V1.58838Z" fill="#496E2D"/>
<path d="M22.9561 1.58838V30.412C28.3079 27.8241 31.9996 22.3435 31.9996 16.0002C31.9996 9.65688 28.3079 4.17632 22.9561 1.58838Z" fill="#D80027"/>
</svg>
