<svg width="32" height="32" viewBox="0 0 32 32" fill="none" xmlns="http://www.w3.org/2000/svg">
<path d="M32 16C32 24.8365 24.8365 32 16 32C7.1635 32 0 24.8365 0 16C0 16.0038 16 0.00175 16 0C24.8365 0 32 7.1635 32 16Z" fill="#0052B4"/>
<path d="M15.957 15.9998H15.9998C15.9998 15.9855 15.9998 15.9715 15.9998 15.957C15.9856 15.9713 15.9713 15.9856 15.957 15.9998Z" fill="#F0F0F0"/>
<path d="M16 8.34781C16 5.5325 16 3.68781 16 0H15.9973C7.16194 0.0015 0 7.16431 0 16H8.34781V11.2993L13.0485 16H15.9572C15.9715 15.9857 15.9858 15.9715 16.0001 15.9572C16.0001 14.8793 16.0001 13.9174 16.0001 13.0486L11.2992 8.34781H16Z" fill="#F0F0F0"/>
<path d="M8.09467 2.08694C5.59223 3.51188 3.51179 5.59225 2.08691 8.09469V16H6.26086V6.261V6.26088H16C16 4.94444 16 3.69031 16 2.08694H8.09467Z" fill="#D80027"/>
<path d="M15.9998 14.0322L10.3152 8.34768H8.34766V8.3478L15.9997 15.9998H15.9998C15.9998 15.9998 15.9998 14.6431 15.9998 14.0322V14.0322Z" fill="#D80027"/>
<path d="M25.0434 9.73899L22.9564 10.4347L20.8695 9.73899L20.1738 7.99987L20.8695 6.26074H25.0434L24.3477 7.99987L25.0434 9.73899Z" fill="#ACABB1"/>
<path d="M18.0869 9.73926V17.3914C18.0869 21.1189 22.9565 22.261 22.9565 22.261C22.9565 22.261 27.826 21.1189 27.826 17.3914V9.73926H18.0869Z" fill="#338AF3"/>
<path d="M18.5264 19.2042C19.7234 21.5022 22.957 22.2609 22.957 22.2609C22.957 22.2609 26.1906 21.5022 27.3876 19.2042L22.957 11.8262L18.5264 19.2042Z" fill="#6DA544"/>
<path d="M27.826 17.3141L22.9565 9.73926L18.0869 17.3141V17.3914C18.0869 18.0813 18.254 18.6824 18.5259 19.2043L22.9565 12.3121L27.3871 19.2042C27.6589 18.6823 27.826 18.0812 27.826 17.3913V17.3141Z" fill="#FFDA44"/>
</svg>
