<svg width="32" height="32" viewBox="0 0 32 32" fill="none" xmlns="http://www.w3.org/2000/svg">
<path d="M16 32C24.8366 32 32 24.8366 32 16C32 7.16344 24.8366 0 16 0C7.16344 0 0 7.16344 0 16C0 24.8366 7.16344 32 16 32Z" fill="#F0F0F0"/>
<path d="M22.024 12.5217H18.0075L15.9994 9.04346L13.9914 12.5217H9.97485L11.9832 16L9.97485 19.4782H13.9914L15.9994 22.9565L18.0075 19.4782H22.024L20.0156 16L22.024 12.5217ZM18.4666 16L17.2331 18.1367H14.7659L13.5322 16L14.7659 13.8632H17.233L18.4666 16ZM15.9994 11.7264L16.4585 12.5216H15.5404L15.9994 11.7264ZM12.2985 13.8632H13.2168L12.7577 14.6585L12.2985 13.8632ZM12.2985 18.1367L12.7577 17.3415L13.2169 18.1367H12.2985ZM15.9994 20.2735L15.5404 19.4782H16.4585L15.9994 20.2735ZM19.7003 18.1367H18.782L19.2412 17.3415L19.7003 18.1367ZM18.782 13.8632H19.7003L19.2412 14.6585L18.782 13.8632Z" fill="#0052B4"/>
<path d="M25.9593 3.47803H6.03971C4.57952 4.64103 3.32728 6.05365 2.3479 7.65196H29.6511C28.6717 6.05371 27.4195 4.64103 25.9593 3.47803V3.47803Z" fill="#0052B4"/>
<path d="M6.03971 28.5215H25.9593C27.4195 27.3585 28.6717 25.9459 29.6511 24.3476H2.3479C3.32734 25.9458 4.57959 27.3585 6.03971 28.5215V28.5215Z" fill="#0052B4"/>
</svg>
