<svg width="32" height="32" viewBox="0 0 32 32" fill="none" xmlns="http://www.w3.org/2000/svg">
<path d="M16 32C24.8366 32 32 24.8366 32 16C32 7.16344 24.8366 0 16 0C7.16344 0 0 7.16344 0 16C0 24.8366 7.16344 32 16 32Z" fill="#FCFCFC"/>
<path d="M25.0439 13.9131C24.557 13.9131 23.954 13.9131 22.957 13.9131C22.957 17.7551 19.8423 20.8696 16.0005 20.8696C12.1584 20.8696 9.04397 17.7551 9.04397 13.9131C8.37147 13.9131 7.62941 13.9131 6.95703 13.9131C6.95703 18.0515 9.73678 21.5407 13.5312 22.6153C13.1152 23.4055 13.1785 24.4005 13.7728 25.142C14.5533 24.5165 15.3613 23.8689 16.0468 23.3197C16.7323 23.869 17.5405 24.5165 18.3209 25.142C18.921 24.3931 18.9801 23.3855 18.5503 22.5915C22.3031 21.4905 25.0439 18.0221 25.0439 13.9131V13.9131Z" fill="#6DA544"/>
<path d="M10.4346 13.2172C10.4346 13.2172 10.4346 16.6955 13.9128 16.6955L14.6084 17.3911H15.9998C15.9998 17.3911 16.6954 15.3042 18.0867 15.3042C18.0867 15.3042 18.0867 13.9128 19.478 13.9128C20.8693 13.9128 21.5649 13.9128 21.5649 13.9128C21.5649 13.9128 20.8693 11.1302 24.3476 9.04328L22.9563 8.34766C22.9563 8.34766 18.0867 11.8259 14.6084 11.1303V12.5216H13.2171L12.5215 11.826L10.4346 13.2172Z" fill="#FFDA44"/>
</svg>
