<svg width="32" height="32" viewBox="0 0 32 32" fill="none" xmlns="http://www.w3.org/2000/svg">
<path d="M16 32C24.8366 32 32 24.8366 32 16C32 7.16344 24.8366 0 16 0C7.16344 0 0 7.16344 0 16C0 24.8366 7.16344 32 16 32Z" fill="#F0F0F0"/>
<path d="M28.6939 25.742L18.9517 15.9998H18.9516L28.6939 6.25753C28.2737 5.71153 27.8141 5.18621 27.314 4.68603C26.8138 4.1859 26.2886 3.72621 25.7425 3.30615L16.0003 13.0483L16.0003 13.0484L6.25808 3.30615C5.71214 3.72628 5.18677 4.18584 4.68658 4.68603C4.18639 5.18621 3.72677 5.71153 3.3067 6.25753L13.0489 15.9996L13.049 15.9997L3.30664 25.742C3.72683 26.288 4.18645 26.8133 4.68652 27.3135C5.1867 27.8136 5.71195 28.2733 6.25801 28.6934L16.0003 18.9512L16.0003 18.9511L25.7425 28.6933C26.2884 28.2732 26.8138 27.8136 27.314 27.3135C27.8142 26.8133 28.2738 26.288 28.6939 25.742V25.742Z" fill="#D80027"/>
<path d="M13.2178 4.86936L16.0004 5.56499L18.783 4.86936V2.50418L17.67 3.06067L16.0004 1.39111L14.3308 3.06067L13.2178 2.50418V4.86936Z" fill="#FFDA44"/>
<path d="M13.2178 4.86963V6.60888C13.2178 8.73888 16.0004 9.3915 16.0004 9.3915C16.0004 9.3915 18.783 8.73882 18.783 6.60888V4.86963H13.2178Z" fill="#D80027"/>
</svg>
