<svg width="32" height="32" viewBox="0 0 32 32" fill="none" xmlns="http://www.w3.org/2000/svg">
<path d="M16 32C24.8366 32 32 24.8366 32 16C32 7.16344 24.8366 0 16 0C7.16344 0 0 7.16344 0 16C0 24.8366 7.16344 32 16 32Z" fill="#F0F0F0"/>
<path d="M15.9999 11.8263H31.4487C31.0475 10.3379 30.4378 8.93534 29.6515 7.65234H15.9999V11.8263Z" fill="#338AF3"/>
<path d="M6.03996 28.5216H25.9595C27.4197 27.3586 28.6719 25.946 29.6513 24.3477H2.34814C3.32758 25.9459 4.57983 27.3586 6.03996 28.5216V28.5216Z" fill="#338AF3"/>
<path d="M5.56496 3.87109C4.30708 4.95428 3.21964 6.22984 2.34814 7.65209H5.56496V3.87109Z" fill="#338AF3"/>
<path d="M16 16.0001C16 14.3704 16 13.0064 16 11.8262H9.73913V16.0001H5.56519V11.8262H0.551188C0.1925 13.157 0 14.5559 0 16.0001C0 17.4443 0.1925 18.8432 0.551188 20.174H31.4489C31.8075 18.8432 32 17.4443 32 16.0001H16Z" fill="#338AF3"/>
<path d="M16.0003 0C13.7784 0 11.6625 0.453312 9.73938 1.27175V7.65219H16.0003C16.0003 6.19519 16.0003 4.956 16.0003 3.47825H25.9601C23.2269 1.3015 19.7658 0 16.0003 0V0Z" fill="#338AF3"/>
</svg>
