<svg width="32" height="32" viewBox="0 0 32 32" fill="none" xmlns="http://www.w3.org/2000/svg">
<path d="M32 16C32 24.8365 24.8365 32 16 32C7.1635 32 0 24.8365 0 16C0 16.0038 16 0.00175 16 0C24.8365 0 32 7.1635 32 16Z" fill="#0052B4"/>
<path d="M15.9568 15.9998H15.9996C15.9996 15.9855 15.9996 15.9715 15.9996 15.957C15.9853 15.9713 15.9711 15.9856 15.9568 15.9998Z" fill="#F0F0F0"/>
<path d="M16 8.34781C16 5.5325 16 3.68781 16 0H15.9973C7.162 0.0015 0 7.16431 0 16H8.34781V11.2993L13.0486 16H15.9572L16.0001 15.9572C16.0001 14.8793 16.0001 13.9174 16.0001 13.0486L11.2992 8.34781H16Z" fill="#F0F0F0"/>
<path d="M8.09479 2.08691C5.59235 3.51185 3.51197 5.59223 2.08704 8.09467V16H6.26098V6.26098V6.26086H16.0001C16.0001 4.94442 16.0001 3.69029 16.0001 2.08691H8.09479Z" fill="#D80027"/>
<path d="M16.0003 14.0322L10.3157 8.34766H8.34814V8.34778L16.0001 15.9998H16.0003C16.0003 15.9998 16.0003 14.6431 16.0003 14.0322Z" fill="#D80027"/>
<path d="M25.739 18.7827V19.4783H20.1738V18.7827H18.0868V21.5653H19.4781V22.261H26.4347V21.5653H27.8259V18.7827H25.739Z" fill="#FFDA44"/>
<path d="M18.0868 8.34766V15.9998C18.0868 19.7273 22.9564 20.8694 22.9564 20.8694C22.9564 20.8694 27.8259 19.7273 27.8259 15.9998V8.34766H18.0868Z" fill="#338AF3"/>
<path d="M22.956 14.0557C21.7387 14.0557 21.7387 15.1687 20.5214 15.1687C19.3041 15.1687 19.3041 14.0557 18.0868 14.0557V16.0035C19.3041 16.0035 19.3041 17.1165 20.5214 17.1165C21.7387 17.1165 21.7387 16.0035 22.956 16.0035C24.1735 16.0035 24.1735 17.1165 25.391 17.1165C26.6085 17.1165 26.6084 16.0035 27.8259 16.0035V14.0557C26.6085 14.0557 26.6085 15.1687 25.391 15.1687C24.1735 15.1687 24.1735 14.0557 22.956 14.0557V14.0557Z" fill="#F3F3F3"/>
<path d="M22.956 10.1567C21.7387 10.1567 21.7387 11.2698 20.5214 11.2698C19.3041 11.2698 19.3041 10.1567 18.0868 10.1567V12.1046C19.3041 12.1046 19.3041 13.2176 20.5214 13.2176C21.7387 13.2176 21.7387 12.1046 22.956 12.1046C24.1735 12.1046 24.1735 13.2176 25.391 13.2176C26.6085 13.2176 26.6084 12.1046 27.8259 12.1046V10.1567C26.6085 10.1567 26.6085 11.2698 25.391 11.2698C24.1735 11.2698 24.1735 10.1567 22.956 10.1567Z" fill="#F3F3F3"/>
</svg>
