<svg width="32" height="32" viewBox="0 0 32 32" fill="none" xmlns="http://www.w3.org/2000/svg">
<g clip-path="url(#clip0_16_12754)">
<path d="M1.58763 9.04366C0.5705 11.1472 0 13.507 0 16.0002C0 18.4933 0.5705 20.8532 1.58763 22.9567L16 24.348L30.4124 22.9567C31.4295 20.8532 32 18.4933 32 16.0002C32 13.507 31.4295 11.1472 30.4124 9.04366L16 7.65234L1.58763 9.04366Z" fill="#F0F0F0"/>
<path d="M1.58838 22.9565C4.17625 28.3085 9.65681 32 16.0002 32C22.3436 32 27.8241 28.3085 30.412 22.9565H1.58838Z" fill="black"/>
<path d="M1.58838 9.0435H30.412C27.8241 3.69156 22.3436 0 16.0002 0C9.65681 0 4.17625 3.69156 1.58838 9.0435Z" fill="#D80027"/>
<path d="M4.68628 4.68604C-1.56209 10.9344 -1.56209 21.0651 4.68628 27.3135C7.26834 24.7315 9.75165 22.2482 16 15.9998L4.68628 4.68604Z" fill="#496E2D"/>
</g>
<defs>
<clipPath id="clip0_16_12754">
<rect width="32" height="32" fill="white"/>
</clipPath>
</defs>
</svg>
