<svg width="32" height="32" viewBox="0 0 32 32" fill="none" xmlns="http://www.w3.org/2000/svg">
<path d="M16 32C24.8366 32 32 24.8366 32 16C32 7.16344 24.8366 0 16 0C7.16344 0 0 7.16344 0 16C0 24.8366 7.16344 32 16 32Z" fill="#496E2D"/>
<path d="M15.9998 18.4846C13.3356 18.4846 11.11 16.6122 10.5639 14.1119C10.4801 14.4963 10.4346 14.8948 10.4346 15.3044C10.4346 18.3781 12.9261 20.8696 15.9998 20.8696C19.0734 20.8696 21.5649 18.3781 21.5649 15.3044C21.5649 14.8948 21.5194 14.4963 21.4356 14.1118C20.8895 16.6123 18.6639 18.4846 15.9998 18.4846Z" fill="#FFDA44"/>
<path d="M16 11.1304L16.518 12.7247H18.1944L16.8382 13.71L17.3562 15.3043L16 14.3189L14.6438 15.3043L15.1619 13.71L13.8057 12.7247H15.482L16 11.1304Z" fill="#FFDA44"/>
</svg>
