<svg width="63" height="27" viewBox="0 0 63 27" fill="none" xmlns="http://www.w3.org/2000/svg">
<path d="M12.3471 5.96265C10.8436 5.96265 9.63074 6.87231 8.84741 6.87231C8.02618 6.87231 6.927 6.01318 5.62567 6.01318C3.14935 6.01318 0.635132 8.07257 0.635132 11.926C0.635132 14.3392 1.57007 16.8787 2.71979 18.5338C3.69263 19.9109 4.56439 21.048 5.80255 21.048C7.02808 21.048 7.57135 20.2394 9.1001 20.2394C10.6415 20.2394 10.9952 21.0227 12.3471 21.0227C13.699 21.0227 14.596 19.7972 15.4425 18.5843C16.3774 17.1819 16.7817 15.8174 16.7944 15.7542C16.7186 15.7289 14.1412 14.6803 14.1412 11.7239C14.1412 9.17175 16.1627 8.03467 16.2764 7.94623C14.9498 6.01318 12.9156 5.96265 12.3471 5.96265ZM11.6522 4.33282C12.2587 3.5874 12.6882 2.57666 12.6882 1.55328C12.6882 1.41431 12.6756 1.27533 12.6503 1.16162C11.6649 1.19952 10.452 1.8186 9.73181 2.6651C9.1759 3.30945 8.64526 4.33282 8.64526 5.3562C8.64526 5.50781 8.67053 5.67206 8.68317 5.7226C8.74634 5.73523 8.84741 5.74786 8.94849 5.74786C9.84552 5.74786 10.9826 5.14142 11.6522 4.33282Z" fill="black"/>
<path d="M21.7607 2.58929V20.8206H25.0203V14.8445H28.9749C32.6641 14.8445 35.2415 12.3682 35.2415 8.75482C35.2415 5.07825 32.7525 2.58929 29.1138 2.58929H21.7607ZM25.0203 5.3183H28.2547C30.6047 5.3183 31.9313 6.51855 31.9313 8.75482C31.9313 10.9279 30.5668 12.1408 28.2421 12.1408H25.0203V5.3183Z" fill="black"/>
<path d="M41.3575 18.5843C39.9678 18.5843 38.9696 17.8894 38.9696 16.7271C38.9696 15.6026 39.7909 14.9709 41.547 14.8572L44.6677 14.655V15.7542C44.6677 17.3588 43.2527 18.5843 41.3575 18.5843ZM40.4352 21.048C42.2419 21.048 43.758 20.2646 44.5287 18.9254H44.7435V20.8206H47.7631V11.3828C47.7631 8.4516 45.7669 6.7207 42.2167 6.7207C38.9317 6.7207 36.6449 8.27472 36.3923 10.7131H39.3487C39.6393 9.7782 40.6247 9.27283 42.065 9.27283C43.758 9.27283 44.6677 10.0309 44.6677 11.3828V12.5451L41.1048 12.7599C37.7441 12.962 35.8616 14.4023 35.8616 16.9039C35.8616 19.4308 37.7694 21.048 40.4352 21.048Z" fill="black"/>
<path d="M51.2512 25.8364C54.3466 25.8364 55.8248 24.6993 56.9998 21.2628L61.9904 6.99866H58.6802L55.4584 17.7883H55.2436L52.0093 6.99866H48.5728L53.5128 20.8837L53.3485 21.4902C52.9442 22.7662 52.1988 23.2716 50.8722 23.2716C50.6574 23.2716 50.1899 23.259 50.0131 23.2211V25.7858C50.2152 25.8237 51.0617 25.8364 51.2512 25.8364Z" fill="black"/>
</svg>
