<svg width="32" height="32" viewBox="0 0 32 32" fill="none" xmlns="http://www.w3.org/2000/svg">
<path d="M16 32C24.8366 32 32 24.8366 32 16C32 7.16344 24.8366 0 16 0C7.16344 0 0 7.16344 0 16C0 24.8366 7.16344 32 16 32Z" fill="#2A3069"/>
<path d="M18.347 10.5329C18.347 7.01291 16.64 4.02691 15.36 3.06691C15.36 3.06691 15.253 2.95991 15.253 3.17291C15.147 9.89291 11.733 11.7069 9.92003 14.2669C5.54703 19.9199 9.60003 26.2129 13.76 27.3869C16.107 28.0269 13.227 26.2129 12.907 22.4799C12.373 17.7869 18.347 14.3729 18.347 10.5329Z" fill="white"/>
<path d="M20.5868 12.8799C20.3728 13.7329 19.5198 15.5469 18.3468 17.2529C14.3998 22.9069 16.6398 25.6799 17.9198 27.1729C18.6668 28.0269 17.9198 27.1729 19.7328 26.3199C19.8398 26.2129 23.3598 24.3999 23.6798 20.2399C24.1068 16.1869 21.5468 13.6269 20.5868 12.8799Z" fill="white"/>
</svg>
