<svg width="32" height="32" viewBox="0 0 32 32" fill="none" xmlns="http://www.w3.org/2000/svg">
<path d="M16 32C24.8366 32 32 24.8366 32 16C32 7.16344 24.8366 0 16 0C7.16344 0 0 7.16344 0 16C0 24.8366 7.16344 32 16 32Z" fill="#11021E"/>
<path d="M10.929 14.3656H10.939L11.092 14.4236L11.255 14.4806L11.408 14.5386L11.571 14.6056L11.724 14.6636L11.887 14.7106L12.041 14.7686L12.194 14.8356L12.501 14.9506L12.664 14.9986L12.817 15.0656L12.98 15.1236L13.134 15.1806L13.297 15.2386L13.45 15.2956L13.613 15.3536L13.766 15.4106L13.929 15.4686L14.083 15.5356L14.246 15.5836V13.3496H10.708L10.555 13.4266L10.191 13.6186L9.817 13.8096L9.453 14.0016L9.088 14.1936L8.714 14.3856L8.341 14.5766L7.976 14.7686L7.612 14.9606L7.238 15.1516L6.874 15.3436L6.538 15.5256L6.5 21.0196L6.874 21.2786L7.238 21.5376L7.612 21.7866L8.341 22.3046L8.714 22.5626L8.877 22.6876L9.088 22.4286L9.453 21.9486L9.481 21.9016L9.453 21.8726L9.088 21.6136L8.714 21.3456L8.341 21.0866L7.976 20.8276L7.612 20.5696L7.507 20.5016L7.535 16.0636L7.612 16.0256L7.976 15.8436L8.341 15.6516L8.714 15.4786L9.088 15.2876L9.453 15.1046L9.817 14.9226L10.191 14.7406L10.555 14.5586L10.929 14.3656Z" fill="white"/>
<path d="M17.2746 24.8528L16.9576 24.9778L16.6126 25.1118L16.2676 25.2558L15.9226 25.3898L15.7696 25.4568L15.5876 25.3618L15.2416 25.1888L14.9066 25.0158L14.5616 24.8438L14.2166 24.6708L13.8716 24.4988L13.5266 24.3258L13.1806 24.1438L12.8356 23.9808L12.5006 23.7988L12.1556 23.6258L11.8196 23.4638L11.4746 23.2808L11.4366 23.2618V18.7858H10.4396V23.8758L11.8196 24.5658L12.1556 24.7378L12.5006 24.9208L12.8356 25.0838L13.1806 25.2658L13.5266 25.4378L13.8716 25.6008L14.2166 25.7828L14.9066 26.1278L15.2416 26.3008L15.7216 26.5408L15.9226 26.4538L16.2676 26.3198L16.6126 26.1858L16.9576 26.0418L17.3026 25.8978L17.6486 25.7738L17.3026 24.9108L17.2746 24.8528ZM23.3996 18.6128L23.4196 20.7308L23.3236 20.7988L22.7386 21.2108L22.1636 21.6328L21.5786 22.0448L20.9936 22.4668L20.3996 22.8688L19.8246 23.2908L19.2396 23.7128L18.8946 23.9618L18.6546 23.7698L18.0796 23.3298L17.4946 22.8788L16.9096 22.4378L16.3346 21.9878L16.2296 21.9198V19.6398L16.3346 19.5438L16.9096 18.9298L17.4946 18.3258L18.0796 17.7128L18.6546 17.1088L19.2206 16.5148H12.2516L12.8356 17.1278L13.4116 17.7318L14.0056 18.3358L14.5906 18.9488L15.1656 19.5528L15.2416 19.6398V22.3998L15.7506 22.7928L16.3346 23.2338L16.9096 23.6848L17.4946 24.1248L18.0796 24.5758L18.6546 25.0168L18.8746 25.1898L19.2396 24.9218L19.8246 24.5088L20.3996 24.0878L20.9936 23.6748L21.5786 23.2628L22.1636 22.8508L22.7386 22.4288L23.3236 22.0168L23.9076 21.6048L24.3876 21.2498L24.4826 18.6518L23.9076 18.6328L23.3996 18.6128ZM7.44855 13.7138H7.51555L7.52555 10.8958L7.90855 10.6558L8.36856 10.3788L8.83855 10.1008L9.28855 9.80284L9.75855 9.52484L10.2186 9.23784L10.6786 8.95984L11.1386 8.68184L11.5986 8.39384L12.0686 8.11584L12.0786 8.10584L12.5196 8.36584L12.9896 8.62384L13.9096 9.16084L14.3696 9.41984L14.8396 9.67884L15.2896 9.94684L15.7406 10.1968L15.7606 10.1578L16.2206 9.33384L15.7606 9.06484L15.2906 8.80584L14.8396 8.54784L14.3696 8.28784L13.9096 8.01084L13.4496 7.75184L12.9896 7.49284L12.5196 7.23384L12.0696 6.97484L12.0496 6.96484L11.5996 7.23484L11.1396 7.52184L10.6796 7.79984L10.2196 8.08684L9.75955 8.36484L9.28955 8.64284L8.83855 8.93084L8.36856 9.20884L7.90855 9.49684L7.44855 9.78384L6.98855 10.0618L6.53855 10.3398L6.51855 13.7048H6.98855L7.44855 13.7138Z" fill="white"/>
<path d="M25.4701 11.126L25.2401 10.944L24.9921 10.743L24.7521 10.551L24.5121 10.359L24.2721 10.159L24.0321 9.976L23.7841 9.784L23.5441 9.583L23.2941 9.391L23.1221 9.247L23.0551 9.324L22.8151 9.621L22.5661 9.928L22.5091 10.014L22.5661 10.081L22.8161 10.283L23.0561 10.474L23.2951 10.685L23.5441 10.887L23.7841 11.087L24.0331 11.299L24.2731 11.5L24.3881 11.596L24.3981 16.13L24.2731 16.207L24.0331 16.37L23.7831 16.514L23.5441 16.677L23.2941 16.82L23.0551 16.983L22.8151 17.127L22.5661 17.29L22.3261 17.434L22.0861 17.597L21.8471 17.741L21.6071 17.904L21.3581 18.047L21.1181 18.21L20.8791 18.354L20.6391 18.517L20.3901 18.661L20.6401 19.044L20.8801 19.437L20.9271 19.504L21.1191 19.38L21.3591 19.226L21.6081 19.083L21.8481 18.929L22.0871 18.776L22.3271 18.623L22.5671 18.479L22.8151 18.325L23.0551 18.182L23.2951 18.028L23.5441 17.875L23.7841 17.721L24.0331 17.578L24.2731 17.424L24.5131 17.281L24.7521 17.127L24.9921 16.974L25.2411 16.82L25.4811 16.677L25.4701 11.126ZM17.5721 13.83V15.795L17.6491 15.765L17.9651 15.632L18.2911 15.507L18.6071 15.373L18.9331 15.248L19.2591 15.114L19.5751 14.98L19.9011 14.855L20.2271 14.721L20.5441 14.596L20.8691 14.462L21.1861 14.338V8.394L20.8221 8.174L20.4481 7.963L20.0831 7.743L19.7101 7.522L19.3361 7.311L18.9621 7.091L18.5981 6.87L18.2331 6.66L17.8591 6.439L17.4861 6.219L17.1121 6.007L16.7471 5.787L16.3831 5.567L16.0091 5.355L15.8181 5.25L15.6361 5.336L15.2621 5.547L14.8971 5.739L14.5331 5.94L14.1591 6.151L13.7851 6.343L13.4121 6.544L13.7851 6.764L14.1591 6.975L14.3891 7.11L14.5331 7.043L14.8971 6.841L15.2621 6.65L15.6361 6.458L15.7891 6.381L16.0091 6.506L16.3831 6.726L17.1121 7.148L17.8591 7.589L18.2331 7.799L18.9621 8.241L19.3361 8.451L20.0831 8.893L20.1981 8.95V13.331H17.5811" fill="white"/>
<path d="M17.5725 15.7951L21.1865 14.3381L17.5625 13.3311L17.5725 15.7951ZM14.2465 15.7951V13.3691L10.9385 14.3571L14.2465 15.7851" fill="white"/>
</svg>
