<svg width="32" height="32" viewBox="0 0 32 32" fill="none" xmlns="http://www.w3.org/2000/svg">
<path d="M16 32C24.8366 32 32 24.8366 32 16C32 7.16344 24.8366 0 16 0C7.16344 0 0 7.16344 0 16C0 24.8366 7.16344 32 16 32Z" fill="#101010"/>
<path d="M16.057 17.776L14.027 12.178H12.3V19.501H13.545V14.342L15.429 19.501H16.653L18.535 14.342V19.501H19.811V12.178H18.086L16.057 17.776ZM7.671 12C5.423 12 4 13.695 4 15.845C4 17.994 5.423 19.685 7.671 19.685C9.919 19.685 11.345 18.006 11.345 15.845C11.345 13.683 9.922 12 7.67 12H7.671ZM7.671 18.383C6.238 18.383 5.381 17.305 5.381 15.85C5.381 14.394 6.238 13.309 7.671 13.309C9.104 13.309 9.964 14.397 9.964 15.845C9.964 17.292 9.106 18.383 7.671 18.383ZM24.138 16.836H26.24C26.116 17.904 25.34 18.406 24.346 18.406C22.923 18.406 22.13 17.359 22.13 15.852C22.13 14.439 22.829 13.279 24.316 13.279C25.288 13.279 26.074 13.775 26.158 14.608H27.548C27.36 12.934 26.083 12.002 24.358 12.002C21.909 12.002 20.768 13.886 20.768 15.894C20.768 18.051 22.088 19.682 24.138 19.682C25.34 19.682 26.012 19.126 26.282 18.656V19.493H27.548V15.577H24.138V16.837V16.836Z" fill="white"/>
</svg>
