<svg width="32" height="32" viewBox="0 0 32 32" fill="none" xmlns="http://www.w3.org/2000/svg">
<path d="M16 32C24.8366 32 32 24.8366 32 16C32 7.16344 24.8366 0 16 0C7.16344 0 0 7.16344 0 16C0 24.8366 7.16344 32 16 32Z" fill="#24DD7B"/>
<path d="M13.092 7.913L17.495 6L17.459 11.053H23V14.553H17.422V20.616C17.422 22.456 20.542 22.673 21.716 22.06L22.78 25.236C20.174 26.751 13.055 26.39 13.055 20.652V7.912H13.092V7.913ZM8.982 15.491C7.887 15.491 7 14.425 7 13.11C7 11.794 7.887 10.728 8.982 10.728C10.076 10.728 10.963 11.794 10.963 13.11C10.963 14.425 10.076 15.491 8.982 15.491Z" fill="white"/>
</svg>
