<svg width="32" height="32" viewBox="0 0 32 32" fill="none" xmlns="http://www.w3.org/2000/svg">
<path d="M16 32C24.8366 32 32 24.8366 32 16C32 7.16344 24.8366 0 16 0C7.16344 0 0 7.16344 0 16C0 24.8366 7.16344 32 16 32Z" fill="#3E73C4"/>
<path d="M20.0225 18.1238C20.0225 15.9998 18.7425 15.2718 16.1825 14.9678C14.3545 14.7248 13.9895 14.2398 13.9895 13.3898C13.9895 12.5398 14.5995 11.9938 15.8175 11.9938C16.9145 11.9938 17.5245 12.3578 17.8285 13.2688C17.8602 13.3569 17.9181 13.4331 17.9945 13.4873C18.0708 13.5415 18.1619 13.5709 18.2555 13.5718H19.2305C19.2869 13.5733 19.3429 13.5633 19.3952 13.5425C19.4476 13.5217 19.4952 13.4905 19.5351 13.4508C19.575 13.411 19.6065 13.3636 19.6275 13.3113C19.6486 13.2591 19.6588 13.2031 19.6575 13.1468V13.0868C19.5384 12.4277 19.2049 11.8264 18.7089 11.3763C18.2129 10.9262 17.5821 10.6525 16.9145 10.5978V9.14176C16.9145 8.89876 16.7315 8.71676 16.4275 8.65576H15.5125C15.2695 8.65576 15.0865 8.83776 15.0255 9.14176V10.5378C13.1965 10.7798 12.0395 11.9938 12.0395 13.5118C12.0395 15.5138 13.2575 16.3028 15.8175 16.6068C17.5245 16.9098 18.0725 17.2748 18.0725 18.2458C18.0725 19.2158 17.2195 19.8838 16.0615 19.8838C14.4765 19.8838 13.9285 19.2168 13.7455 18.3058C13.6855 18.0638 13.5015 17.9418 13.3185 17.9418H12.2825C12.2263 17.9404 12.1704 17.9504 12.1182 17.9713C12.0659 17.9922 12.0185 18.0234 11.9786 18.0631C11.9388 18.1029 11.9075 18.1503 11.8865 18.2024C11.8655 18.2546 11.8553 18.3105 11.8565 18.3668V18.4268C12.0995 19.9448 13.0755 21.0368 15.0865 21.3408V22.7978C15.0865 23.0398 15.2695 23.2228 15.5735 23.2828H16.4885C16.7315 23.2828 16.9145 23.1008 16.9755 22.7978V21.3398C18.8045 21.0368 20.0225 19.7618 20.0225 18.1228V18.1238Z" fill="white"/>
<path d="M12.8923 24.497C8.13829 22.797 5.70029 17.517 7.46829 12.844C8.38229 10.294 10.3933 8.353 12.8923 7.442C13.1363 7.321 13.2573 7.139 13.2573 6.835V5.985C13.2573 5.743 13.1363 5.561 12.8923 5.5C12.8313 5.5 12.7093 5.5 12.6483 5.56C11.2767 5.98832 10.0034 6.68373 8.90171 7.60617C7.8 8.52862 6.89164 9.65988 6.22893 10.9348C5.56622 12.2098 5.16226 13.6032 5.04029 15.0349C4.91833 16.4666 5.08078 17.9083 5.51829 19.277C6.61429 22.677 9.23529 25.287 12.6483 26.379C12.8923 26.5 13.1363 26.379 13.1963 26.136C13.2573 26.076 13.2573 26.014 13.2573 25.893V25.043C13.2573 24.861 13.0753 24.619 12.8923 24.497ZM19.3523 5.561C19.1083 5.439 18.8643 5.561 18.8043 5.803C18.7433 5.864 18.7433 5.925 18.7433 6.046V6.896C18.7433 7.139 18.9253 7.381 19.1083 7.503C23.8623 9.203 26.3003 14.483 24.5323 19.156C23.6183 21.706 21.6073 23.647 19.1083 24.558C18.8643 24.679 18.7433 24.861 18.7433 25.165V26.015C18.7433 26.257 18.8643 26.439 19.1083 26.5C19.1693 26.5 19.2913 26.5 19.3523 26.44C20.7239 26.0117 21.9972 25.3163 23.0989 24.3938C24.2006 23.4714 25.1089 22.3401 25.7716 21.0652C26.4343 19.7902 26.8383 18.3968 26.9603 16.9651C27.0822 15.5334 26.9198 14.0917 26.4823 12.723C25.3863 9.263 22.7043 6.653 19.3523 5.561Z" fill="white"/>
</svg>
