<svg width="32" height="32" viewBox="0 0 32 32" fill="none" xmlns="http://www.w3.org/2000/svg">
<path d="M16 32C24.8366 32 32 24.8366 32 16C32 7.16344 24.8366 0 16 0C7.16344 0 0 7.16344 0 16C0 24.8366 7.16344 32 16 32Z" fill="black"/>
<path d="M23.13 9.29188L20.73 10.5159L9.13202 16.4229C8.96678 15.1535 9.15746 13.8631 9.68279 12.6958C10.2081 11.5284 11.0474 10.5299 12.1071 9.81176C13.1668 9.09358 14.4052 8.68393 15.6841 8.62851C16.963 8.57309 18.2322 8.87407 19.35 9.49788L20.724 8.79788L20.929 8.69288C19.6255 7.74697 18.0786 7.19381 16.4709 7.09871C14.8631 7.00362 13.2618 7.37056 11.8559 8.15621C10.45 8.94186 9.29822 10.1134 8.53666 11.5325C7.7751 12.9516 7.43552 14.559 7.55802 16.1649C7.58095 16.4669 7.51399 16.769 7.36558 17.0331C7.21718 17.2972 6.99395 17.5114 6.72402 17.6489L5.99902 18.0189V19.7429L8.13302 18.6549L8.82402 18.3019L9.50502 17.9549L21.731 11.7249L23.105 11.0259L25.945 9.57888V7.85588L23.13 9.29188ZM25.946 11.3039L10.201 19.3199L8.82702 20.0199L6.00002 21.4629V23.1859L8.80802 21.7559L11.209 20.5319L22.819 14.6159C22.9868 15.8872 22.7974 17.1802 22.2721 18.35C21.7468 19.5199 20.9062 20.5204 19.8446 21.2397C18.7829 21.9589 17.542 22.3685 16.2608 22.4226C14.9795 22.4767 13.7085 22.1731 12.59 21.5459L12.505 21.5909L11.015 22.3509C12.3187 23.2973 13.8661 23.8508 15.4743 23.946C17.0825 24.0411 18.6843 23.674 20.0905 22.8879C21.4967 22.1018 22.6485 20.9297 23.4099 19.5099C24.1713 18.0902 24.5103 16.4822 24.387 14.8759C24.3643 14.5741 24.4313 14.2724 24.5795 14.0086C24.7277 13.7447 24.9505 13.5305 25.22 13.3929L25.946 13.0229V11.3049V11.3039Z" fill="white"/>
</svg>
