<svg width="32" height="32" viewBox="0 0 32 32" fill="none" xmlns="http://www.w3.org/2000/svg">
<path d="M16 32C24.8366 32 32 24.8366 32 16C32 7.16344 24.8366 0 16 0C7.16344 0 0 7.16344 0 16C0 24.8366 7.16344 32 16 32Z" fill="#F9C011"/>
<path d="M14.812 6C16.33 6.887 17.758 7.914 19.262 8.825L13.718 18.496C12.982 17.205 12.292 15.888 11.565 14.59C12.612 11.715 13.808 8.89 14.812 6ZM10 26C13.139 20.291 16.4 14.645 19.504 8.921C20.334 10.378 21.165 11.834 22 13.291C19.594 17.523 17.17 21.745 14.783 25.986C13.188 25.986 11.595 25.966 10 26ZM15.082 25.977C16.412 23.702 17.665 21.387 19.012 19.122C19.815 20.149 20.63 21.17 21.427 22.202C19.3196 23.473 17.2045 24.7314 15.082 25.977Z" fill="white"/>
</svg>
