<svg width="32" height="32" viewBox="0 0 32 32" fill="none" xmlns="http://www.w3.org/2000/svg">
<path d="M16 32C24.8366 32 32 24.8366 32 16C32 7.16344 24.8366 0 16 0C7.16344 0 0 7.16344 0 16C0 24.8366 7.16344 32 16 32Z" fill="#B80000"/>
<path d="M25.8929 11.387C26.0489 11.652 26.0279 11.93 25.8729 12.202C25.6409 12.572 25.4269 12.949 25.2059 13.322C24.5999 14.358 23.9939 15.394 23.3859 16.43C22.1724 18.4914 20.9577 20.552 19.7419 22.612C19.6738 22.7386 19.5703 22.8426 19.444 22.9113C19.3177 22.9801 19.1742 23.0105 19.0309 22.999C18.7239 22.985 18.5059 22.833 18.3609 22.568C18.2119 22.303 18.0569 22.041 17.9009 21.777C17.3909 20.905 16.8789 20.035 16.3679 19.166C16.2539 18.969 16.1369 18.776 16.0059 18.558C15.8779 18.775 15.7569 18.968 15.6429 19.166L14.1099 21.776C13.9533 22.0381 13.7999 22.3021 13.6499 22.568C13.5049 22.833 13.2879 22.985 12.9799 22.999C12.8367 23.0098 12.6934 22.979 12.5673 22.9103C12.4412 22.8417 12.3376 22.7381 12.2689 22.612C11.6919 21.641 11.1219 20.67 10.5489 19.695C9.90536 18.608 9.26403 17.5196 8.62489 16.43C8.01989 15.394 7.41289 14.358 6.80489 13.322C6.58489 12.949 6.36689 12.572 6.13889 12.202C5.97289 11.93 5.94889 11.652 6.10389 11.387C6.25589 11.126 6.50089 11 6.81589 11C8.78389 11.007 10.7529 11.02 12.7209 11.003C13.2179 11 13.5149 11.19 13.7469 11.604C14.2439 12.491 14.7729 13.356 15.2839 14.233C15.4979 14.603 15.7089 14.976 15.9259 15.346C15.9429 15.373 15.9709 15.394 15.9959 15.417C16.0226 15.398 16.0456 15.3742 16.0639 15.347C16.2789 14.977 16.4889 14.603 16.7069 14.233C17.2209 13.356 17.7469 12.487 18.2439 11.604C18.4749 11.19 18.7719 11 19.2689 11.004C21.2379 11.02 23.2059 11.007 25.1749 11C25.4959 11 25.7409 11.126 25.8929 11.387ZM15.0499 17.142C15.0691 17.1013 15.0794 17.0569 15.0799 17.0118C15.0804 16.9668 15.0712 16.9222 15.0529 16.881C14.9529 16.677 14.8209 16.484 14.7039 16.283C13.9999 15.081 13.2949 13.883 12.5939 12.678C12.5219 12.555 12.4389 12.511 12.2939 12.511C10.9819 12.518 9.66889 12.518 8.35689 12.521C8.29489 12.521 8.23289 12.531 8.14289 12.538C9.74489 15.271 11.3329 17.984 12.9399 20.724C13.0779 20.494 13.1949 20.31 13.3059 20.12C13.8919 19.13 14.4729 18.137 15.0499 17.142ZM19.0599 20.724C20.6649 17.984 22.2539 15.271 23.8599 12.538C23.7669 12.531 23.7079 12.521 23.6459 12.521C22.3329 12.518 21.0209 12.518 19.7089 12.511C19.5639 12.511 19.4809 12.555 19.4089 12.677C18.7064 13.8795 18.0031 15.0815 17.2989 16.283C17.1809 16.48 17.0529 16.673 16.9489 16.881C16.9302 16.922 16.9205 16.9665 16.9205 17.0115C16.9205 17.0565 16.9302 17.101 16.9489 17.142C17.5289 18.136 18.1099 19.129 18.6939 20.12C18.8039 20.31 18.9219 20.497 19.0599 20.724Z" fill="white"/>
</svg>
