<svg width="32" height="32" viewBox="0 0 32 32" fill="none" xmlns="http://www.w3.org/2000/svg">
<path d="M16 32C24.8366 32 32 24.8366 32 16C32 7.16344 24.8366 0 16 0C7.16344 0 0 7.16344 0 16C0 24.8366 7.16344 32 16 32Z" fill="#00B098"/>
<path d="M6 12.391V12.035H14.417V12.391H6ZM6 11.356V11H14.417V11.356H6ZM9.55 21.996V13.103H9.888V21.996H9.55ZM10.53 21.996V13.103H10.867V21.996H10.53ZM25.762 21.268L21.964 17.255L22.202 17.004L26 21.016L25.762 21.268ZM16.519 11L20.317 15.013L20.079 15.264L16.281 11.252L16.519 11ZM25.069 22L21.271 17.987L21.509 17.735L25.307 21.748L25.069 22ZM15.827 11.732L19.625 15.744L19.386 15.996L15.588 11.984L15.827 11.732ZM21.248 16.5L21.487 16.248L25.762 11.732L26 11.984L21.725 16.5L21.487 16.752L21.033 17.232L20.794 17.484L16.52 22L16.282 21.748L20.557 17.232L20.795 16.98L21.248 16.5ZM20.794 15.516L25.07 11L25.308 11.252L21.033 15.768L20.795 16.02L20.341 16.5L20.102 16.752L15.828 21.268L15.589 21.016L19.864 16.5L20.102 16.248L20.557 15.768L20.794 15.516Z" fill="white"/>
</svg>
