<svg width="32" height="32" viewBox="0 0 32 32" fill="none" xmlns="http://www.w3.org/2000/svg">
<path d="M16 32C24.8366 32 32 24.8366 32 16C32 7.16344 24.8366 0 16 0C7.16344 0 0 7.16344 0 16C0 24.8366 7.16344 32 16 32Z" fill="#FA5836"/>
<path d="M14.7366 4.50246C14.6286 4.51746 14.2116 4.59546 13.8106 4.65646C11.5726 5.03446 9.50562 6.13046 7.79262 7.85046C6.07262 9.56346 5.02262 11.5465 4.58262 13.9075C4.38262 14.9805 4.38262 17.0785 4.58262 18.1515C5.02262 20.5115 6.07262 22.4945 7.79262 24.2075C9.50562 25.9275 11.4876 26.9775 13.8486 27.4175C14.9216 27.6175 17.0196 27.6175 18.0926 27.4175C20.4526 26.9775 22.4366 25.9275 24.1496 24.2075C25.8696 22.4945 26.9196 20.5125 27.3596 18.1515C27.5596 17.0785 27.5596 14.9805 27.3596 13.9075C26.9196 11.5475 25.8696 9.56346 24.1496 7.85046C22.4746 6.16846 20.5846 5.14246 18.2936 4.68046C17.5836 4.53346 15.2226 4.41746 14.7366 4.50246ZM18.8566 8.59246C18.9486 8.63046 18.9796 8.74546 18.9796 9.05446V9.47146H18.4936C17.8766 9.47146 17.3906 9.70246 17.1896 10.0885C17.0586 10.3355 17.0506 10.6365 17.0506 14.2935C17.0506 16.4535 17.0206 18.2665 16.9896 18.3205C16.8276 18.5675 15.6396 18.6375 15.1066 18.4285L14.8906 18.3435V14.3555C14.8906 10.6355 14.8826 10.3355 14.7516 10.0885C14.5516 9.70246 14.0646 9.47146 13.4476 9.47146H12.9616V9.05446C12.9616 8.79246 13.0006 8.62246 13.0616 8.59946C13.2016 8.53746 18.7096 8.53746 18.8566 8.59146V8.59246ZM14.4276 11.8085V12.7585L14.2036 12.8885C13.8726 13.0825 13.3166 13.6605 13.0936 14.0385C12.9581 14.2863 12.8492 14.5477 12.7686 14.8185L12.6456 15.2585H11.7586C10.7476 15.2585 10.7786 15.2965 10.9946 14.4485C11.2646 13.4215 11.9206 12.3795 12.7146 11.7475C13.1546 11.3925 14.1266 10.8595 14.3196 10.8595C14.4046 10.8595 14.4276 11.0605 14.4276 11.8095V11.8085ZM18.2546 11.1305C18.9138 11.4597 19.4951 11.9259 19.9596 12.4979C20.424 13.07 20.7609 13.7347 20.9476 14.4475C21.1636 15.2965 21.1946 15.2575 20.1836 15.2575H19.2966L19.1726 14.8175C19.0923 14.5471 18.9837 14.286 18.8486 14.0385C18.6246 13.6605 18.0686 13.0825 17.7376 12.8885L17.5136 12.7585V11.8085C17.5136 11.0605 17.5366 10.8595 17.6216 10.8595C17.6756 10.8595 17.9616 10.9835 18.2546 11.1295V11.1305ZM12.6536 15.9835C12.6536 16.3455 12.8926 17.0865 13.1396 17.4725C14.4586 19.5625 17.4826 19.5625 18.8026 17.4725C19.0496 17.0865 19.2886 16.3455 19.2886 15.9825V15.7205H21.1326L21.0936 16.1215C20.9006 17.9965 19.8666 19.5095 18.2466 20.3115C17.4986 20.6815 16.8426 20.8365 15.9706 20.8365C13.2706 20.8365 11.1336 18.8685 10.8476 16.1215L10.8096 15.7215H12.6536V15.9835ZM17.0896 21.5615C17.1896 22.1015 17.7456 22.4335 18.5786 22.4335H18.9796V23.2815H12.9616V22.4555L13.5246 22.4175C13.8876 22.3945 14.1806 22.3255 14.3426 22.2325C14.5826 22.0935 14.8906 21.6305 14.8906 21.4145C14.8906 21.3375 15.1376 21.3145 15.9626 21.3145H17.0426L17.0896 21.5615Z" fill="#FEFFFF"/>
</svg>
