<svg width="32" height="32" viewBox="0 0 32 32" fill="none" xmlns="http://www.w3.org/2000/svg">
<path d="M16 32C24.8366 32 32 24.8366 32 16C32 7.16344 24.8366 0 16 0C7.16344 0 0 7.16344 0 16C0 24.8366 7.16344 32 16 32Z" fill="#2683FF"/>
<path d="M24.9767 18.971C25.3963 19.2227 25.7013 19.6281 25.827 20.101C25.9526 20.5739 25.889 21.0772 25.6497 21.504C25.1357 22.406 23.9677 22.726 23.0487 22.222C22.9587 22.173 22.8807 22.115 22.8007 22.057L17.8747 24.841C17.8867 24.931 17.8937 25.022 17.8947 25.113C17.8947 25.22 17.8947 25.317 17.8747 25.423C17.7067 26.443 16.7277 27.141 15.6887 26.976C14.6507 26.811 13.9387 25.85 14.1067 24.832L9.14971 22.028C9.07295 22.083 8.99388 22.1347 8.91271 22.183C8.83271 22.222 8.75371 22.27 8.66471 22.299C8.1974 22.4863 7.67523 22.4824 7.21075 22.2882C6.74628 22.094 6.37671 21.7251 6.18171 21.261C5.78671 20.301 6.26171 19.214 7.24071 18.826V13.218C7.15082 13.189 7.06458 13.1498 6.98371 13.101C6.90954 13.055 6.83684 13.0066 6.76571 12.956C6.49621 12.7602 6.28425 12.4956 6.15196 12.1899C6.01968 11.8841 5.97193 11.5485 6.01371 11.218C6.05797 10.8867 6.1897 10.5732 6.39534 10.3098C6.60098 10.0463 6.8731 9.84239 7.18371 9.719C7.49648 9.5929 7.83669 9.55038 8.17087 9.59561C8.50506 9.64085 8.82172 9.77229 9.08971 9.977L14.0957 7.134C14.0857 7.047 14.0757 6.97 14.0757 6.882C14.0757 5.854 14.9557 5 16.0047 5C17.0527 5 17.9127 5.834 17.9137 6.872C17.9137 6.96 17.9037 7.037 17.8937 7.125L22.9387 9.987C23.158 9.82634 23.4086 9.71365 23.6743 9.65626C23.94 9.59887 24.2148 9.59807 24.4808 9.65392C24.7468 9.70976 24.9981 9.821 25.2182 9.98038C25.4384 10.1398 25.6226 10.3437 25.7587 10.579C26.2717 11.481 25.9357 12.626 25.0157 13.131C24.9267 13.169 24.8377 13.218 24.7487 13.247V18.865C24.8277 18.895 24.9037 18.93 24.9757 18.971H24.9767ZM25.3237 21.319C25.4214 21.1577 25.4859 20.9786 25.5134 20.792C25.5409 20.6055 25.5308 20.4153 25.4838 20.2327C25.4367 20.0501 25.3536 19.8788 25.2394 19.7287C25.1252 19.5787 24.9822 19.453 24.8187 19.359C24.5494 19.2037 24.2377 19.138 23.9286 19.1712C23.6194 19.2045 23.3289 19.335 23.0987 19.544L20.8327 18.254C21.1039 17.7061 21.1651 17.078 21.0048 16.488C20.8446 15.8981 20.4739 15.3873 19.9627 15.052C19.8991 14.8379 19.8161 14.63 19.7147 14.431L23.1377 12.529C23.4937 12.859 23.9947 12.994 24.4727 12.889C24.6589 12.8488 24.8352 12.772 24.9915 12.6631C25.1478 12.5542 25.2809 12.4153 25.383 12.2546C25.4852 12.0938 25.5544 11.9144 25.5866 11.7266C25.6188 11.5389 25.6134 11.3466 25.5707 11.161C25.3927 10.385 24.6007 9.91 23.8107 10.084C23.6245 10.1241 23.4482 10.2007 23.2919 10.3095C23.1356 10.4183 23.0024 10.5571 22.9002 10.7178C22.7979 10.8784 22.7286 11.0578 22.6963 11.2455C22.6639 11.4331 22.6692 11.6254 22.7117 11.811L19.2497 13.742C18.5777 12.956 16.4407 12.432 16.4407 12.432V8.153C16.6545 8.09154 16.8497 7.97782 17.0085 7.82209C17.1674 7.66636 17.285 7.47354 17.3507 7.261C17.4022 7.09162 17.4195 6.91367 17.4015 6.73754C17.3835 6.56141 17.3307 6.39062 17.2459 6.23516C17.1612 6.07969 17.0464 5.94266 16.9081 5.83206C16.7699 5.72146 16.611 5.63952 16.4407 5.591C15.7187 5.378 14.9567 5.766 14.7387 6.475C14.6873 6.64432 14.6702 6.82217 14.6882 6.99819C14.7063 7.17421 14.7592 7.34487 14.8439 7.50022C14.9286 7.65557 15.0434 7.7925 15.1816 7.90303C15.3198 8.01356 15.4785 8.09548 15.6487 8.144V12.51C15.6487 12.51 14.4827 12.888 14.0277 13.256C13.5444 13.2671 13.0703 13.3904 12.6427 13.616L9.38771 11.782C9.44255 11.5529 9.43868 11.3136 9.37645 11.0863C9.31422 10.8591 9.19564 10.6512 9.03171 10.482C8.76663 10.2025 8.40215 10.0387 8.01716 10.0259C7.63217 10.0132 7.25766 10.1526 6.97471 10.414C6.83459 10.5411 6.72138 10.695 6.64177 10.8667C6.56217 11.0383 6.5178 11.2241 6.51127 11.4132C6.50474 11.6023 6.5362 11.7908 6.60378 11.9675C6.67136 12.1442 6.77368 12.3055 6.90471 12.442C7.16996 12.7215 7.53461 12.8854 7.91976 12.8981C8.30491 12.9109 8.67959 12.7714 8.96271 12.51L11.9007 14.159C11.3854 14.6602 11.0678 15.3302 11.0061 16.0464C10.9444 16.7626 11.1427 17.4771 11.5647 18.059L8.98271 19.524C8.80374 19.3609 8.58774 19.2439 8.35338 19.1831C8.11903 19.1223 7.87338 19.1195 7.63771 19.175C7.4516 19.2165 7.27559 19.2945 7.11988 19.4046C6.96418 19.5146 6.83188 19.6545 6.73066 19.8161C6.62945 19.9777 6.56133 20.1578 6.53027 20.3459C6.49921 20.534 6.50581 20.7264 6.54971 20.912C6.73871 21.686 7.53071 22.163 8.31971 21.978C8.50571 21.9365 8.68162 21.8585 8.83725 21.7485C8.99288 21.6385 9.12513 21.4987 9.22633 21.3373C9.32753 21.1758 9.39568 20.9958 9.42681 20.8078C9.45795 20.6198 9.45145 20.4275 9.40771 20.242L12.1677 18.68C12.8777 19.243 13.8047 19.467 14.6997 19.291C14.9757 19.417 15.2597 19.524 15.5497 19.611V23.687C15.3536 23.7478 15.1714 23.8467 15.0137 23.9782C14.856 24.1097 14.7258 24.271 14.6307 24.453C14.5408 24.6299 14.4871 24.823 14.4729 25.021C14.4586 25.2189 14.4841 25.4177 14.5477 25.6057C14.6113 25.7937 14.7118 25.967 14.8434 26.1156C14.9749 26.2642 15.1348 26.385 15.3137 26.471C15.3737 26.501 15.4327 26.529 15.5017 26.549C15.5117 26.549 15.5217 26.559 15.5317 26.559C16.3417 26.801 17.2037 26.364 17.4507 25.569C17.5098 25.3791 17.5305 25.1793 17.5116 24.9813C17.4927 24.7833 17.4345 24.591 17.3405 24.4158C17.2465 24.2405 17.1185 24.0857 16.964 23.9604C16.8095 23.8351 16.6316 23.7418 16.4407 23.686V19.69C16.4407 19.69 17.1827 19.622 17.5287 19.515C18.4937 19.895 19.5977 19.67 20.3287 18.943L22.6427 20.273C22.5716 20.5722 22.5998 20.8864 22.723 21.1682C22.8462 21.45 23.0578 21.684 23.3257 21.835C23.6604 22.0256 24.0561 22.0784 24.4291 21.9823C24.802 21.8862 25.1229 21.6486 25.3237 21.32V21.319ZM7.98371 19.961C8.20371 19.962 8.40571 20.076 8.51771 20.261C8.56818 20.3538 8.5953 20.4574 8.59671 20.563C8.59486 20.7239 8.5293 20.8775 8.4144 20.9902C8.2995 21.1028 8.14462 21.1653 7.98371 21.164C7.82263 21.1656 7.66749 21.1032 7.55237 20.9905C7.43725 20.8778 7.37155 20.7241 7.36971 20.563C7.36971 20.23 7.64471 19.961 7.98371 19.961ZM16.6487 6.873C16.6461 7.03383 16.5801 7.18713 16.4652 7.29965C16.3502 7.41216 16.1956 7.47481 16.0347 7.474C15.8738 7.47533 15.7189 7.41282 15.604 7.30017C15.4891 7.18752 15.4236 7.03391 15.4217 6.873C15.4217 6.54 15.6967 6.271 16.0347 6.271C16.3747 6.271 16.6487 6.541 16.6487 6.873ZM24.1267 12.093C23.9661 12.0928 23.812 12.0296 23.6974 11.9171C23.5828 11.8045 23.5168 11.6516 23.5137 11.491C23.5137 11.159 23.7887 10.889 24.1267 10.889C24.4667 10.889 24.7407 11.159 24.7407 11.491C24.7389 11.6521 24.6732 11.8058 24.558 11.9185C24.4429 12.0312 24.2878 12.0936 24.1267 12.092V12.093ZM8.26971 10.937C8.33922 10.9745 8.40047 11.0256 8.44979 11.0873C8.49912 11.149 8.5355 11.22 8.55678 11.2961C8.57806 11.3721 8.5838 11.4517 8.57365 11.5301C8.5635 11.6084 8.53767 11.6839 8.49771 11.752C8.41678 11.8914 8.28394 11.9932 8.12822 12.035C7.9725 12.0768 7.80658 12.0552 7.66671 11.975C7.59699 11.9377 7.53554 11.8867 7.48605 11.825C7.43657 11.7633 7.40008 11.6923 7.37878 11.6162C7.35748 11.54 7.35181 11.4603 7.3621 11.382C7.3724 11.3036 7.39846 11.2281 7.43871 11.16C7.51964 11.0206 7.65248 10.9188 7.80819 10.877C7.96391 10.8352 8.12984 10.8568 8.26971 10.937ZM24.3737 20.077C24.4431 20.1145 24.5042 20.1656 24.5534 20.2272C24.6027 20.2888 24.639 20.3597 24.6603 20.4357C24.6816 20.5116 24.6873 20.5911 24.6773 20.6693C24.6672 20.7475 24.6415 20.8229 24.6017 20.891C24.545 20.982 24.4662 21.0573 24.3727 21.11C24.2792 21.1626 24.174 21.1908 24.0667 21.192C23.9588 21.1938 23.8523 21.1672 23.7579 21.1149C23.6634 21.0626 23.5844 20.9865 23.5287 20.894C23.4739 20.8022 23.445 20.6974 23.445 20.5905C23.445 20.4836 23.4739 20.3788 23.5287 20.287C23.5844 20.1945 23.6634 20.1184 23.7579 20.0661C23.8523 20.0138 23.9588 19.9872 24.0667 19.989C24.1746 19.9925 24.28 20.0223 24.3737 20.076V20.077ZM15.4217 25.092C15.4227 25.0844 15.4262 25.0773 15.4317 25.072C15.4587 24.9148 15.5464 24.7745 15.6758 24.6814C15.8052 24.5882 15.9661 24.5497 16.1237 24.574C16.2814 24.5951 16.4242 24.678 16.5207 24.8044C16.6173 24.9308 16.6597 25.0903 16.6387 25.248C16.6091 25.3937 16.5297 25.5247 16.4143 25.6184C16.2988 25.7121 16.1544 25.7629 16.0057 25.762C15.9226 25.7584 15.8412 25.738 15.7663 25.702C15.6913 25.6659 15.6245 25.615 15.5699 25.5523C15.5153 25.4897 15.474 25.4165 15.4485 25.3374C15.423 25.2583 15.4139 25.1748 15.4217 25.092ZM18.9437 15.807C19.2378 15.8974 19.4949 16.0804 19.6767 16.3287C19.8585 16.577 19.9553 16.8773 19.9527 17.185C19.9527 17.234 19.9427 17.283 19.9427 17.331C19.9327 17.37 19.9327 17.409 19.9227 17.447V17.477C19.9027 17.564 19.8827 17.651 19.8427 17.738C19.733 18.0054 19.5433 18.2324 19.2997 18.388C19.2397 18.418 19.1897 18.447 19.1317 18.476L19.1017 18.486C18.9858 18.5398 18.8624 18.5759 18.7357 18.593L18.6857 18.602C18.6167 18.602 18.5577 18.612 18.4887 18.612C18.1657 18.612 17.8527 18.506 17.5987 18.311L17.3307 18.427C17.2487 18.467 17.1627 18.496 17.0737 18.515H17.0637C16.4516 18.6788 15.8007 18.613 15.2337 18.33H15.2237C15.1647 18.301 15.1057 18.272 15.0557 18.243L15.0357 18.233C14.9767 18.195 14.9277 18.156 14.8677 18.117C14.6279 18.2221 14.3685 18.2749 14.1067 18.272C14.0267 18.272 13.9577 18.272 13.8887 18.262L13.8487 18.252L13.6707 18.224L13.6507 18.214C13.5873 18.2022 13.5248 18.1858 13.4637 18.165C13.3042 18.1121 13.1515 18.0406 13.0087 17.952C12.7108 17.7677 12.476 17.497 12.3357 17.176C12.3357 17.156 12.3257 17.146 12.3157 17.127C12.3041 17.094 12.2907 17.0616 12.2757 17.03C12.2639 17.0082 12.2539 16.9854 12.2457 16.962C12.2357 16.933 12.2167 16.904 12.2167 16.875C12.2148 16.8451 12.208 16.8157 12.1967 16.788C12.1867 16.758 12.1867 16.748 12.1767 16.71C12.1667 16.671 12.1667 16.633 12.1577 16.594C12.1577 16.564 12.1477 16.545 12.1477 16.526C12.1394 16.4647 12.1361 16.4028 12.1377 16.341C12.1365 16.2665 12.1399 16.1921 12.1477 16.118C12.1477 16.089 12.1577 16.07 12.1577 16.05C12.1677 15.992 12.1777 15.944 12.1877 15.895C12.1977 15.875 12.1977 15.847 12.2077 15.827C12.2195 15.774 12.2359 15.7222 12.2567 15.672C12.2667 15.652 12.2667 15.643 12.2767 15.624C12.2985 15.5637 12.3249 15.5052 12.3557 15.449L12.3657 15.429C12.5281 15.1313 12.7643 14.8804 13.0517 14.7003C13.3391 14.5203 13.668 14.4172 14.0067 14.401C14.0367 14.391 14.0667 14.391 14.1067 14.391C14.2257 14.391 14.3447 14.401 14.4627 14.421C14.5127 14.361 14.5617 14.313 14.6207 14.255L14.6707 14.207C14.7297 14.158 14.7787 14.11 14.8387 14.071L14.8687 14.051C14.9077 14.022 14.9767 13.974 15.0067 13.954C15.0367 13.935 15.0857 13.896 15.1157 13.886C15.1505 13.874 15.1837 13.8579 15.2147 13.838C15.2737 13.808 15.3727 13.76 15.4317 13.741L15.4817 13.702C15.8779 13.5481 16.3068 13.4982 16.7277 13.557H16.7377C16.8177 13.565 16.8967 13.577 16.9747 13.595H16.9847C17.0647 13.605 17.1337 13.635 17.2127 13.654L17.2227 13.664C17.3017 13.692 17.3707 13.721 17.4397 13.751L17.4597 13.761C17.5277 13.789 17.5937 13.821 17.6577 13.857L17.6677 13.867C17.7267 13.897 17.7957 13.945 17.8557 13.983L17.8657 13.993C17.9347 14.032 17.9937 14.08 18.0527 14.129L18.0627 14.139C18.3935 14.417 18.6487 14.774 18.8047 15.177V15.187C18.8247 15.245 18.8447 15.313 18.8647 15.371C18.8647 15.391 18.8747 15.41 18.8747 15.429C18.8907 15.479 18.9047 15.532 18.9137 15.584L18.9437 15.807Z" fill="white"/>
</svg>
