<svg width="32" height="32" viewBox="0 0 32 32" fill="none" xmlns="http://www.w3.org/2000/svg">
<path d="M16 32C24.8366 32 32 24.8366 32 16C32 7.16344 24.8366 0 16 0C7.16344 0 0 7.16344 0 16C0 24.8366 7.16344 32 16 32Z" fill="#FFC04E"/>
<path d="M15.598 11.857H15.601L15.571 11.987L15.311 13.214H15.281L13.568 20.5H11.389L13.136 13.214H10.204L8.558 20.5H6.162L8.34 11.5H15.673L15.598 11.857ZM19.739 11.5H23.369C26.492 11.643 26.201 13.714 26.201 13.714H27L26.71 14.571H25.983C25.766 15.357 24.313 15.786 24.313 15.786C25.983 16 25.911 17.286 25.911 17.286H26.71L26.492 18.143H25.838C25.671 19.333 24.616 19.911 23.749 20.186C23.2247 20.3497 22.6783 20.4316 22.129 20.429H17.56L19.739 11.5ZM7.323 13.214H5L5.436 11.5H7.759L7.323 13.214ZM17.271 19.5L15.383 15.071L16.182 11.643L18.069 15.857L17.271 19.5ZM22.825 15.071C23.085 15.071 23.335 14.971 23.518 14.789C23.701 14.607 23.805 14.363 23.805 14.107C23.805 13.851 23.702 13.606 23.518 13.425C23.334 13.244 23.085 13.143 22.825 13.143H21.41L20.975 15.071H22.825ZM22.336 18.786C22.987 18.786 23.515 18.29 23.515 17.679C23.515 17.067 22.99 16.571 22.336 16.571H20.634L20.11 18.786H22.336Z" fill="white"/>
</svg>
