<svg width="32" height="32" viewBox="0 0 32 32" fill="none" xmlns="http://www.w3.org/2000/svg">
<path d="M16 32C24.8366 32 32 24.8366 32 16C32 7.16344 24.8366 0 16 0C7.16344 0 0 7.16344 0 16C0 24.8366 7.16344 32 16 32Z" fill="#199248"/>
<path d="M16 4C9.373 4 4 9.373 4 16C4 22.627 9.373 28 16 28C22.627 28 28 22.627 28 16C28 12.8174 26.7357 9.76515 24.4853 7.51472C22.2348 5.26428 19.1826 4 16 4ZM18.743 26.236C17.3625 26.6039 15.9219 26.6888 14.5078 26.4856C13.0937 26.2824 11.7352 25.7954 10.5142 25.0538C9.29308 24.3122 8.23459 23.3313 7.40232 22.1701C6.57005 21.0089 5.9812 19.6914 5.67116 18.2968C5.36112 16.9022 5.3363 15.4593 5.5982 14.0549C5.86009 12.6504 6.40329 11.3134 7.19514 10.1243C7.98698 8.93521 9.01111 7.91849 10.206 7.13532C11.4008 6.35214 12.7417 5.81868 14.148 5.567C16.8364 5.09199 19.6044 5.67285 21.875 7.18851C24.1457 8.70417 25.7438 11.0377 26.3363 13.7027C26.9287 16.3676 26.4698 19.1584 25.0552 21.4934C23.6406 23.8283 21.3794 25.5272 18.743 26.236Z" fill="white"/>
<path d="M18.9299 7.2872C18.9299 7.8042 18.9299 8.3202 18.9499 8.8372C18.2583 8.56883 17.5383 8.38028 16.8039 8.2752C16.7739 7.8062 16.9079 7.2912 16.7709 6.8462C16.2478 6.8089 15.7229 6.80256 15.1989 6.8272C15.1729 7.3092 15.1829 7.7932 15.1989 8.2772C14.4643 8.38711 13.7444 8.57967 13.0529 8.8512C13.0679 8.3292 13.0729 7.8082 13.0659 7.2852C11.2405 7.89985 9.65402 9.07194 8.53016 10.6362C7.4063 12.2005 6.80176 14.0781 6.80176 16.0042C6.80176 17.9303 7.4063 19.8079 8.53016 21.3722C9.65402 22.9365 11.2405 24.1085 13.0659 24.7232C13.0659 24.2112 13.0609 23.7012 13.0509 23.1912C13.7371 23.4598 14.4534 23.6441 15.1839 23.7402C15.1839 24.2092 15.1839 24.6782 15.1559 25.1422C15.7159 25.2222 16.2839 25.2222 16.8439 25.1422C16.8184 24.6803 16.8051 24.2178 16.8039 23.7552C17.535 23.6524 18.2526 23.47 18.9439 23.2112C18.928 23.7177 18.928 24.2247 18.9439 24.7312C20.7686 24.1152 22.354 22.942 23.4766 21.3772C24.5992 19.8123 25.2024 17.9346 25.2011 16.0087C25.1999 14.0829 24.5944 12.2059 23.4698 10.6425C22.3453 9.07904 20.7584 7.90792 18.9329 7.2942L18.9309 7.2872H18.9299ZM20.2999 21.2222C19.0919 22.3172 17.3759 22.5762 15.7999 22.5532C14.4169 22.5532 12.9529 22.1782 11.9539 21.1772C11.4239 20.6652 11.1239 19.9812 10.8549 19.3022C11.8209 19.0522 12.8179 18.9682 13.7909 18.7602C13.8514 19.0544 13.9885 19.3274 14.1883 19.5516C14.3882 19.7759 14.6436 19.9434 14.9289 20.0372C15.8119 20.3132 16.9059 20.3522 17.6419 19.7222C18.1639 19.2892 18.1789 18.3422 17.5319 18.0182C16.0149 17.2342 14.1249 17.5002 12.6909 16.5082C10.7159 15.2632 10.5699 11.9612 12.5029 10.6172C13.9809 9.5802 15.9569 9.4512 17.6709 9.8672C19.2209 10.2592 20.3259 11.5732 20.8579 13.0282C19.9039 13.1932 18.9509 13.3622 17.9969 13.5232C17.7459 12.0082 15.6249 11.6482 14.5709 12.5312C13.9709 13.0302 14.1249 14.0932 14.8749 14.3592C16.5149 15.0392 18.4849 14.8432 19.9379 15.9812C21.6249 17.1252 21.8009 19.8572 20.2989 21.2212L20.2999 21.2222Z" fill="white"/>
</svg>
