<svg width="32" height="32" viewBox="0 0 32 32" fill="none" xmlns="http://www.w3.org/2000/svg">
<path d="M16 32C24.8366 32 32 24.8366 32 16C32 7.16344 24.8366 0 16 0C7.16344 0 0 7.16344 0 16C0 24.8366 7.16344 32 16 32Z" fill="#F4AE95"/>
<path d="M15.8067 8.95796L9.71275 21.965H19.8297C20.1227 21.965 20.3877 22.145 20.5027 22.42L20.5137 22.445C20.5514 22.5345 20.5681 22.6315 20.5627 22.7285C20.5574 22.8255 20.53 22.9201 20.4827 23.005C20.4001 23.1542 20.2792 23.2788 20.1324 23.3658C19.9857 23.4528 19.8184 23.4991 19.6477 23.5H8.89575C8.72935 23.4997 8.56693 23.4491 8.42975 23.355L8.37375 23.317C8.20446 23.1988 8.08246 23.0245 8.02938 22.825C7.9763 22.6255 7.99556 22.4136 8.08375 22.227L15.2737 7.07796C15.3487 6.91996 15.4557 6.77996 15.5867 6.66796C15.7104 6.56135 15.8677 6.50187 16.0309 6.50004C16.1941 6.49821 16.3528 6.55415 16.4787 6.65796C16.536 6.70456 16.5821 6.76331 16.6137 6.82996L23.9067 22.082C24.0067 22.289 24.0267 22.526 23.9647 22.748C23.9325 22.8688 23.8613 22.9757 23.7623 23.0522C23.6633 23.1286 23.5418 23.1704 23.4167 23.171H23.3327C23.1649 23.1699 23.0009 23.1208 22.8601 23.0293C22.7194 22.9379 22.6078 22.8079 22.5387 22.655L16.2487 8.95996C16.2298 8.91727 16.199 8.88091 16.16 8.85521C16.121 8.8295 16.0754 8.81553 16.0287 8.81496C15.9819 8.81498 15.9361 8.82847 15.8967 8.85383C15.8574 8.87918 15.8261 8.91533 15.8067 8.95796Z" fill="white"/>
</svg>
