<svg width="32" height="32" viewBox="0 0 32 32" fill="none" xmlns="http://www.w3.org/2000/svg">
<path d="M16 32C24.8366 32 32 24.8366 32 16C32 7.16344 24.8366 0 16 0C7.16344 0 0 7.16344 0 16C0 24.8366 7.16344 32 16 32Z" fill="#00A6C4"/>
<path d="M24.7771 10.5L24.9771 10.831C25.9744 12.5057 26.5006 14.4188 26.5001 16.368C26.4821 22.236 21.7851 27 16.0001 27H15.9821C10.1971 27 5.48205 22.199 5.50005 16.331C5.50005 14.363 6.04405 12.45 7.04105 10.794L7.22305 10.482L8.18405 11.457C7.99357 11.7354 7.84121 12.0381 7.73105 12.357C7.36464 13.3723 7.41446 14.4913 7.86965 15.4701C8.32484 16.4489 9.14849 17.208 10.1611 17.582C10.7563 17.794 11.3932 17.8628 12.02 17.7829C12.6468 17.703 13.246 17.4766 13.7691 17.122L16.0001 19.403L18.5571 16.809C18.7931 16.975 19.0651 17.104 19.3551 17.214C21.4051 17.95 23.6531 16.864 24.3781 14.804C24.8131 13.59 24.6141 12.321 23.9791 11.309L24.7771 10.5ZM9.36305 12.652L12.3731 15.687C12.0101 15.982 11.5571 16.147 11.0671 16.147C9.88905 16.147 8.92705 15.172 8.92705 13.977C8.92705 13.48 9.09105 13.02 9.36305 12.652ZM19.8631 15.503L22.8371 12.487C23.0731 12.837 23.1991 13.259 23.1991 13.701C23.1991 14.896 22.2391 15.871 21.0591 15.871C20.6061 15.871 20.2071 15.742 19.8631 15.503ZM16.0361 17.784L7.36805 8.954L7.71205 8.587C9.85205 6.287 12.7721 5 15.9101 5H15.9281C19.1021 5 22.1481 6.38 24.2701 8.77L24.5971 9.139L16.0371 17.784H16.0361ZM8.78205 8.954L16.0361 16.331L23.2001 9.102C21.2781 7.152 18.6671 6.03 15.9471 6.03H15.9281C13.2261 6.03 10.7061 7.06 8.78305 8.955L8.78205 8.954Z" fill="white"/>
</svg>
