<svg width="32" height="32" viewBox="0 0 32 32" fill="none" xmlns="http://www.w3.org/2000/svg">
<path d="M16 32C24.8366 32 32 24.8366 32 16C32 7.16344 24.8366 0 16 0C7.16344 0 0 7.16344 0 16C0 24.8366 7.16344 32 16 32Z" fill="#55DDFF"/>
<path d="M11.8302 10.12C11.8366 8.22394 12.5497 6.3984 13.8302 5C14.1802 4.65 14.2202 4.58 14.2202 4.3C14.2202 4.02 14.2202 4 14.0102 4C13.7506 4.02875 13.4933 4.07553 13.2402 4.14C10.2555 4.84507 7.64984 6.65721 5.95017 9.21C5.12956 10.4205 4.55218 11.7791 4.25017 13.21C3.99979 14.5279 3.93917 15.8749 4.07017 17.21C4.43758 20.1725 5.92633 22.8816 8.23017 24.78C9.46017 25.78 10.8402 26.58 10.8402 26.22C10.7595 26.0649 10.651 25.926 10.5202 25.81C9.90138 25.128 9.43859 24.3193 9.164 23.4403C8.88942 22.5613 8.80962 21.633 8.93017 20.72C9.01912 19.5856 9.37309 18.4879 9.96362 17.5153C10.5542 16.5427 11.3647 15.7222 12.3302 15.12C12.5741 14.9463 12.8316 14.7924 13.1002 14.66C13.2502 14.66 13.1602 14.36 12.7902 13.66C12.1571 12.588 11.8254 11.3649 11.8302 10.12ZM27.3402 13.24C26.9865 11.5175 26.2586 9.8937 25.208 8.48361C24.1573 7.07353 22.8096 5.91158 21.2602 5.08C20.7002 4.77 20.4202 4.7 20.4202 4.89C20.4731 5.04991 20.5544 5.19896 20.6602 5.33C21.28 6.21055 21.6277 7.25367 21.6602 8.33C21.7232 8.89117 21.6666 9.45933 21.4943 9.99708C21.3219 10.5348 21.0376 11.03 20.6602 11.45C20.4663 11.6555 20.1997 11.7769 19.9174 11.7881C19.6351 11.7993 19.3597 11.6995 19.1502 11.51C18.7502 11.22 18.7502 11.02 19.0002 10.65C19.5299 9.8709 19.7931 8.94116 19.7502 8C19.789 7.62162 19.7427 7.23934 19.6147 6.88116C19.4866 6.52299 19.2801 6.198 19.0102 5.93C18.7646 5.67536 18.4538 5.49311 18.1116 5.40317C17.7695 5.31322 17.4092 5.31905 17.0702 5.42C16.5853 5.61535 16.1563 5.92757 15.8213 6.32886C15.4863 6.73014 15.2558 7.20804 15.1502 7.72C14.9209 8.46 14.7864 9.22613 14.7502 10C14.7576 11.185 15.049 12.3509 15.6002 13.4C15.9847 14.003 16.4603 14.5427 17.0102 15C17.1202 15.072 17.2172 15.16 17.3002 15.26C17.2035 15.3395 17.091 15.3974 16.9702 15.43C16.1973 15.7957 15.5054 16.3124 14.9353 16.9495C14.3651 17.5867 13.9282 18.3314 13.6502 19.14C13.2841 20.0785 13.1206 21.0838 13.1702 22.09C13.1499 22.5643 13.2284 23.0375 13.4005 23.4799C13.5726 23.9223 13.8347 24.3241 14.1702 24.66C14.5498 24.9886 14.999 25.2268 15.484 25.3567C15.969 25.4866 16.4771 25.5048 16.9702 25.41C18.2911 25.3112 19.5265 24.7185 20.4302 23.75C20.8402 23.31 20.9202 23.26 21.0002 23.36C21.0802 23.46 21.0602 23.52 20.9102 23.77C19.9606 25.3919 18.4367 26.5981 16.6402 27.15C16.2902 27.24 16.1402 27.31 16.1402 27.39C16.1402 27.65 18.3302 27.29 19.6602 26.82C21.3566 26.2002 22.8927 25.2085 24.1559 23.9176C25.4191 22.6267 26.3773 21.0694 26.9602 19.36C27.3914 18.1695 27.5784 16.9044 27.5102 15.64C27.5558 14.836 27.4986 14.0295 27.3402 13.24Z" fill="white"/>
</svg>
