<svg width="32" height="32" viewBox="0 0 32 32" fill="none" xmlns="http://www.w3.org/2000/svg">
<path d="M16 32C24.8366 32 32 24.8366 32 16C32 7.16344 24.8366 0 16 0C7.16344 0 0 7.16344 0 16C0 24.8366 7.16344 32 16 32Z" fill="#008DDE"/>
<path d="M24.0293 17.3263C24.127 17.3299 24.2244 17.3138 24.3157 17.2789C24.407 17.244 24.4903 17.1911 24.5607 17.1233C24.6311 17.0555 24.6871 16.9742 24.7253 16.8842C24.7635 16.7943 24.7832 16.6975 24.7832 16.5998C24.7832 16.502 24.7635 16.4053 24.7253 16.3154C24.6871 16.2254 24.6311 16.1441 24.5607 16.0763C24.4903 16.0085 24.407 15.9555 24.3157 15.9206C24.2244 15.8858 24.127 15.8697 24.0293 15.8733H22.3693V14.2313H25.8403C25.938 14.2349 26.0354 14.2188 26.1267 14.1839C26.218 14.149 26.3013 14.0961 26.3717 14.0283C26.4421 13.9605 26.4981 13.8792 26.5363 13.7892C26.5745 13.6993 26.5942 13.6025 26.5942 13.5048C26.5942 13.407 26.5745 13.3103 26.5363 13.2204C26.4981 13.1304 26.4421 13.0491 26.3717 12.9813C26.3013 12.9135 26.218 12.8605 26.1267 12.8256C26.0354 12.7908 25.938 12.7747 25.8403 12.7783H22.3553C22.2848 12.0003 21.9588 11.2676 21.428 10.6944C20.8972 10.1213 20.1916 9.74009 19.4213 9.61029V7.86129C19.4249 7.76361 19.4088 7.66621 19.3739 7.57491C19.339 7.4836 19.2861 7.40027 19.2183 7.32988C19.1505 7.2595 19.0692 7.20352 18.9792 7.16528C18.8893 7.12704 18.7925 7.10733 18.6948 7.10733C18.597 7.10733 18.5003 7.12704 18.4104 7.16528C18.3204 7.20352 18.2391 7.2595 18.1713 7.32988C18.1035 7.40027 18.0505 7.4836 18.0156 7.57491C17.9808 7.66621 17.9647 7.76361 17.9683 7.86129V9.56129H16.3263V5.74029C16.3299 5.64261 16.3138 5.54521 16.2789 5.45391C16.244 5.3626 16.1911 5.27927 16.1233 5.20888C16.0555 5.1385 15.9742 5.08252 15.8842 5.04428C15.7943 5.00604 15.6975 4.98633 15.5998 4.98633C15.502 4.98633 15.4053 5.00604 15.3154 5.04428C15.2254 5.08252 15.1441 5.1385 15.0763 5.20888C15.0085 5.27927 14.9555 5.3626 14.9206 5.45391C14.8858 5.54521 14.8697 5.64261 14.8733 5.74029V9.56029H13.2303V7.86029C13.2233 7.67227 13.1437 7.49428 13.0082 7.36373C12.8727 7.23319 12.6919 7.16024 12.5038 7.16024C12.3156 7.16024 12.1348 7.23319 11.9993 7.36373C11.8639 7.49428 11.7843 7.67227 11.7773 7.86029V9.61029C11.007 9.74009 10.3014 10.1213 9.77058 10.6944C9.23979 11.2676 8.91372 12.0003 8.84329 12.7783H4.74029C4.64261 12.7747 4.54521 12.7908 4.45391 12.8256C4.3626 12.8605 4.27927 12.9135 4.20888 12.9813C4.1385 13.0491 4.08252 13.1304 4.04428 13.2204C4.00604 13.3103 3.98633 13.407 3.98633 13.5048C3.98633 13.6025 4.00604 13.6993 4.04428 13.7892C4.08252 13.8792 4.1385 13.9605 4.20888 14.0283C4.27927 14.0961 4.3626 14.149 4.45391 14.1839C4.54521 14.2188 4.64261 14.2349 4.74029 14.2313H8.83029V15.8733H7.17029C7.07261 15.8697 6.97521 15.8858 6.88391 15.9206C6.7926 15.9555 6.70927 16.0085 6.63888 16.0763C6.5685 16.1441 6.51252 16.2254 6.47428 16.3154C6.43604 16.4053 6.41633 16.502 6.41633 16.5998C6.41633 16.6975 6.43604 16.7943 6.47428 16.8842C6.51252 16.9742 6.5685 17.0555 6.63888 17.1233C6.70927 17.1911 6.7926 17.244 6.88391 17.2789C6.97521 17.3138 7.07261 17.3299 7.17029 17.3263H8.83029V18.9683H5.66729C5.56961 18.9647 5.47221 18.9808 5.38091 19.0156C5.2896 19.0505 5.20627 19.1035 5.13588 19.1713C5.0655 19.2391 5.00952 19.3204 4.97128 19.4104C4.93304 19.5003 4.91333 19.597 4.91333 19.6948C4.91333 19.7925 4.93304 19.8893 4.97128 19.9792C5.00952 20.0692 5.0655 20.1505 5.13588 20.2183C5.20627 20.2861 5.2896 20.339 5.38091 20.3739C5.47221 20.4088 5.56961 20.4249 5.66729 20.4213H8.84329C8.91372 21.1993 9.23979 21.932 9.77058 22.5051C10.3014 23.0783 11.007 23.4595 11.7773 23.5893V24.7193C11.7737 24.817 11.7898 24.9144 11.8246 25.0057C11.8595 25.097 11.9125 25.1803 11.9803 25.2507C12.0481 25.3211 12.1294 25.3771 12.2194 25.4153C12.3093 25.4535 12.406 25.4732 12.5038 25.4732C12.6015 25.4732 12.6983 25.4535 12.7882 25.4153C12.8782 25.3771 12.9595 25.3211 13.0273 25.2507C13.0951 25.1803 13.148 25.097 13.1829 25.0057C13.2178 24.9144 13.2339 24.817 13.2303 24.7193V23.6383H14.8723V26.9293C14.8793 27.1173 14.9589 27.2953 15.0943 27.4258C15.2298 27.5564 15.4106 27.6293 15.5988 27.6293C15.7869 27.6293 15.9677 27.5564 16.1032 27.4258C16.2387 27.2953 16.3183 27.1173 16.3253 26.9293V23.6383H17.9673V25.3383C17.9637 25.436 17.9798 25.5334 18.0146 25.6247C18.0495 25.716 18.1025 25.7993 18.1703 25.8697C18.2381 25.9401 18.3194 25.9961 18.4094 26.0343C18.4993 26.0725 18.596 26.0922 18.6938 26.0922C18.7915 26.0922 18.8883 26.0725 18.9782 26.0343C19.0682 25.9961 19.1495 25.9401 19.2173 25.8697C19.2851 25.7993 19.338 25.716 19.3729 25.6247C19.4078 25.5334 19.4239 25.436 19.4203 25.3383V23.5903C20.1906 23.4605 20.8962 23.0793 21.427 22.5061C21.9578 21.933 22.2838 21.2003 22.3543 20.4223H27.1653C27.263 20.4259 27.3604 20.4098 27.4517 20.3749C27.543 20.34 27.6263 20.2871 27.6967 20.2193C27.7671 20.1515 27.8231 20.0702 27.8613 19.9802C27.8995 19.8903 27.9192 19.7935 27.9192 19.6958C27.9192 19.598 27.8995 19.5013 27.8613 19.4114C27.8231 19.3214 27.7671 19.2401 27.6967 19.1723C27.6263 19.1045 27.543 19.0515 27.4517 19.0166C27.3604 18.9818 27.263 18.9657 27.1653 18.9693H22.3703V17.3273H24.0293V17.3263ZM21.2093 20.1083C21.2088 20.7367 20.9589 21.3392 20.5145 21.7835C20.0702 22.2279 19.4677 22.4778 18.8393 22.4783H12.3593C11.7309 22.4778 11.1284 22.2279 10.684 21.7835C10.2397 21.3392 9.98982 20.7367 9.98929 20.1083V13.0903C9.98982 12.4619 10.2397 11.8594 10.684 11.415C11.1284 10.9707 11.7309 10.7208 12.3593 10.7203H18.8393C19.4677 10.7208 20.0702 10.9707 20.5145 11.415C20.9589 11.8594 21.2088 12.4619 21.2093 13.0903V20.1073V20.1083Z" fill="white"/>
<path d="M13.9012 12.4356C13.6206 12.4311 13.3399 12.4408 13.0602 12.4646C12.6182 12.5146 12.2932 12.9146 12.2792 13.3486C12.2572 14.3326 12.2752 15.3186 12.2692 16.3026C12.2832 16.8046 12.2352 17.3126 12.3092 17.8096C12.3802 18.2536 12.8142 18.5396 13.2452 18.5386C14.5852 18.5476 15.9252 18.5416 17.2652 18.5426V19.0976H12.9502L12.3952 20.7626H16.6892C17.1912 20.7486 17.6982 20.7966 18.1962 20.7236C18.6402 20.6526 18.9252 20.2186 18.9242 19.7876C18.9342 18.0346 18.9262 16.2816 18.9292 14.5276C18.9132 14.0576 18.9702 13.5786 18.8752 13.1146C18.7742 12.6416 18.2672 12.4086 17.8192 12.4376H14.7432C14.4632 12.4426 14.1812 12.4366 13.9002 12.4346L13.9012 12.4356ZM13.9342 14.1026H17.2642V16.8776H13.9342V14.1026Z" fill="white"/>
</svg>
