<svg width="32" height="32" viewBox="0 0 32 32" fill="none" xmlns="http://www.w3.org/2000/svg">
<path d="M16 32C24.8366 32 32 24.8366 32 16C32 7.16344 24.8366 0 16 0C7.16344 0 0 7.16344 0 16C0 24.8366 7.16344 32 16 32Z" fill="#006149"/>
<path d="M24.1756 17.1842L23.3786 16.9852L23.6206 16.0152L26.1056 16.6362L25.4856 19.1212L24.5146 18.8792L24.7296 18.0172L15.8576 23.5102L6.01855 18.5942V14.8422L16.2426 8.44824L25.6176 13.0212V14.5652L15.8586 20.6282L8.61156 17.0352L9.05555 16.1392L15.8046 19.4852L24.6176 14.0092V13.6462L16.3026 9.59024L7.01955 15.3962V17.9762L15.8066 22.3662L24.1756 17.1842Z" fill="white"/>
</svg>
