<svg width="32" height="32" viewBox="0 0 32 32" fill="none" xmlns="http://www.w3.org/2000/svg">
<path d="M16 32C24.8366 32 32 24.8366 32 16C32 7.16344 24.8366 0 16 0C7.16344 0 0 7.16344 0 16C0 24.8366 7.16344 32 16 32Z" fill="#663300"/>
<path d="M11.6885 10.063L12.9385 7L21.5005 7.031C22.7505 7.125 24.2505 7.125 25.0945 8.188C26.0945 9.344 25.8755 11 25.3755 12.312C24.8936 13.724 24.0571 14.9885 22.9463 15.9845C21.8355 16.9804 20.4875 17.6745 19.0315 18C16.9695 18.313 14.8755 18.219 12.7815 18.219C13.1985 17.202 13.6155 16.181 14.0315 15.156C15.7505 15.156 17.5005 15.25 19.2505 14.969C20.8445 14.563 22.3135 12.969 22.0635 11.219C21.9065 10.469 21.0635 10.125 20.3435 10.125C17.4695 10 14.5935 10.125 11.7195 10.062H11.6885V10.063Z" fill="white"/>
<path d="M8 10.9058H18.156L16.813 14.3748H6.624L8 10.9368V10.9068V10.9058ZM9.625 15.1558H13.156L9.47 24.5308H6L9.656 15.1558H9.625Z" fill="white"/>
</svg>
