<svg width="32" height="32" viewBox="0 0 32 32" fill="none" xmlns="http://www.w3.org/2000/svg">
<path d="M16 32C24.8366 32 32 24.8366 32 16C32 7.16344 24.8366 0 16 0C7.16344 0 0 7.16344 0 16C0 24.8366 7.16344 32 16 32Z" fill="#1AAB9B"/>
<path d="M7.558 21.1556V13.1106L13.659 17.7026V21.1556H15.217V17.3796C15.2169 17.2387 15.184 17.0998 15.121 16.9738C15.058 16.8478 14.9666 16.7382 14.854 16.6536L7.455 11.0846C7.3201 10.9832 7.15966 10.9214 6.99163 10.9061C6.8236 10.8908 6.65462 10.9225 6.5036 10.9978C6.35258 11.073 6.22549 11.1888 6.13655 11.3322C6.0476 11.4756 6.00032 11.6409 6 11.8096V21.1556H7.558ZM24.432 21.1556V13.1106L18.331 17.7026V21.1556H16.773V17.3796C16.773 17.0936 16.907 16.8246 17.135 16.6536L24.535 11.0846C24.67 10.9832 24.8305 10.9214 24.9986 10.9061C25.1667 10.8908 25.3358 10.9226 25.4868 10.998C25.6379 11.0733 25.765 11.1893 25.8538 11.3328C25.9427 11.4763 25.9899 11.6418 25.99 11.8106V21.1566H24.432V21.1556Z" fill="white"/>
</svg>
