<svg width="32" height="32" viewBox="0 0 32 32" fill="none" xmlns="http://www.w3.org/2000/svg">
<path d="M16 32C24.8366 32 32 24.8366 32 16C32 7.16344 24.8366 0 16 0C7.16344 0 0 7.16344 0 16C0 24.8366 7.16344 32 16 32Z" fill="#FF9933"/>
<path d="M6 8C7.104 8.002 8.209 8.002 9.312 8L11.403 19.18C11.436 19.345 11.476 19.508 11.519 19.67C11.683 19.02 11.786 18.356 11.923 17.7L13.827 8L17.031 8.001C15.856 13.233 14.681 18.466 13.504 23.698H9.527C8.35 18.469 7.175 13.24 6 8.01V8ZM18.314 12.932C19.011 12.056 20.125 11.659 21.199 11.589C22.259 11.515 23.401 11.611 24.299 12.243C25.094 12.799 25.53 13.739 25.737 14.674C25.988 15.846 26.001 17.05 26 18.244H20.13C20.135 19.127 20.08 20.038 20.375 20.884C20.518 21.3 20.785 21.714 21.209 21.865C21.661 22.012 22.205 21.916 22.535 21.552C22.975 21.054 23.067 20.356 23.163 19.717H25.827C25.767 20.777 25.571 21.897 24.877 22.73C24.181 23.596 23.059 23.95 21.997 23.993C20.843 24.037 19.59 23.88 18.67 23.103C17.815 22.39 17.442 21.26 17.294 20.177C17.146 18.93 17.138 17.668 17.207 16.415C17.3 15.193 17.521 13.899 18.313 12.931L18.314 12.932ZM20.588 14.177C20.134 14.831 20.122 15.673 20.13 16.444H23.162C23.115 15.711 23.12 14.937 22.79 14.266C22.38 13.438 21.084 13.435 20.59 14.178H20.588V14.177Z" fill="white"/>
</svg>
