<svg width="32" height="32" viewBox="0 0 32 32" fill="none" xmlns="http://www.w3.org/2000/svg">
<path d="M16 32C24.8366 32 32 24.8366 32 16C32 7.16344 24.8366 0 16 0C7.16344 0 0 7.16344 0 16C0 24.8366 7.16344 32 16 32Z" fill="#00BFFF"/>
<path d="M8.41 20.902H8.312V25H6V11.125H8.26V11.765H8.349C9.138 11.009 10.143 10.988 10.707 10.988C13.071 10.988 14.621 13.241 14.621 16.25V16.64C14.621 19.771 12.827 21.637 10.667 21.637C9.656 21.64 8.907 21.409 8.41 20.902ZM12.474 16.826V16.143C12.474 14.183 11.727 12.872 10.396 12.872C8.958 12.872 8.187 14.396 8.187 16.143V16.823C8.187 18.488 8.946 19.763 10.436 19.763C11.609 19.759 12.474 18.845 12.474 16.826ZM15.74 7H18.055V21.576H15.74V7ZM24.669 13.409C23.371 13.409 22.082 14.439 22.082 15.741V21.585H19.78V11.223H21.913V11.86H22C22.518 11.314 23.785 11.058 24.827 11.073C24.931 11.073 24.845 11.076 24.946 11.076L24.958 13.409H24.669ZM23.697 19.095H26V21.576H23.697V19.095Z" fill="white"/>
</svg>
