<svg width="32" height="32" viewBox="0 0 32 32" fill="none" xmlns="http://www.w3.org/2000/svg">
<path d="M16 32C24.8366 32 32 24.8366 32 16C32 7.16344 24.8366 0 16 0C7.16344 0 0 7.16344 0 16C0 24.8366 7.16344 32 16 32Z" fill="#00CCFF"/>
<path d="M7.894 19.161H12.291L10.398 23H6L7.894 19.161ZM10.399 14.081H14.797L12.91 17.91H8.51L10.4 14.08L10.399 14.081ZM12.905 9.001H17.303L15.414 12.831H11.017L12.905 9V9.001Z" fill="white" fill-opacity="0.4"/>
<path d="M12.2768 19.16H16.6748L14.7808 22.998H10.3828L12.2768 19.159V19.16ZM14.7828 14.08H19.1798L17.2918 17.908H12.8938L14.7828 14.08ZM17.2878 9H21.6858L19.7968 12.829H15.3998L17.2878 9Z" fill="white" fill-opacity="0.6"/>
<path d="M16.5903 19.16H20.9883L19.0953 22.998H14.6973L16.5913 19.159L16.5903 19.16ZM19.0963 14.08H23.4943L21.6063 17.908H17.2083L19.0963 14.08ZM21.6023 9H26.0003L24.1113 12.829H19.7143L21.6023 9Z" fill="white"/>
</svg>
