<svg width="32" height="32" viewBox="0 0 32 32" fill="none" xmlns="http://www.w3.org/2000/svg">
<path d="M16 32C24.8366 32 32 24.8366 32 16C32 7.16344 24.8366 0 16 0C7.16344 0 0 7.16344 0 16C0 24.8366 7.16344 32 16 32Z" fill="#002342"/>
<path d="M4 13H5.298V14.221H4V13ZM5.298 17.774H9.075V19H4V15.442H7.81V16.662H5.299V17.774H5.298ZM22.925 15.442H28V19H24.19V17.774H26.702V16.663H22.925V15.442ZM26.723 14.28H22.923V13.059H26.723V14.279V14.28ZM10.312 15.442H15.387V17.826H14.123V19H10.312V15.442ZM14.089 17.774V16.663H11.61V17.773H14.09L14.089 17.774ZM10.312 13H15.387V14.221H10.312V13ZM16.646 15.442H21.721V17.826H20.457V19H16.647V15.442H16.646ZM20.418 17.774V16.663H17.938V17.773H20.418V17.774ZM16.646 13H21.721V14.221H16.646V13Z" fill="white"/>
</svg>
