<svg width="32" height="32" viewBox="0 0 32 32" fill="none" xmlns="http://www.w3.org/2000/svg">
<path d="M16 32C24.8366 32 32 24.8366 32 16C32 7.16344 24.8366 0 16 0C7.16344 0 0 7.16344 0 16C0 24.8366 7.16344 32 16 32Z" fill="#D21E2B"/>
<path d="M16.14 5.855V3L26.766 9.132L24.309 10.56L16.14 5.855ZM24.472 20.272V10.864L26.953 9.436V21.7L24.473 20.272H24.472ZM16.14 25.281L24.309 20.577L26.766 22.004L16.14 28.136V25.281ZM5.164 22.004L7.644 20.577L15.789 25.281V28.136L5.164 22.004ZM5 9.436L7.457 10.864V20.272L5 21.7V9.436ZM5.164 9.132L15.789 3V5.855L7.645 10.56L5.164 9.132ZM15.988 6.124L7.797 10.83V20.285L15.988 25.013L24.156 20.285V10.83L15.988 6.125V6.124ZM22.565 14.574L22.214 15.182L19.874 13.872L16.878 15.556L19.873 17.241L22.213 15.931L22.565 16.539L20.599 17.639L22.565 18.739L22.214 19.348L20.248 18.248V20.448H19.522V17.85L16.527 16.165V19.535L18.844 20.822L18.493 21.419L16.527 20.319V22.519H15.8V20.319L13.834 21.419L13.46 20.811L15.8 19.523V16.165L12.804 17.85V20.448H12.055V18.248L10.113 19.348L9.738 18.739L11.704 17.639L9.738 16.539L10.113 15.931L12.43 17.241L15.449 15.556L12.429 13.871L10.113 15.181L9.738 14.573L11.704 13.473L9.738 12.373L10.113 11.765L12.055 12.865V10.653H12.805V13.251L15.8 14.936V11.578L13.483 10.29L13.834 9.682L15.8 10.782V8.582H16.526V10.782L18.492 9.682L18.842 10.29L16.526 11.578V14.948L19.521 13.263V10.653H20.247V12.853L22.213 11.753L22.563 12.362L20.598 13.462L22.564 14.573L22.565 14.574Z" fill="white"/>
</svg>
