<svg width="32" height="32" viewBox="0 0 32 32" fill="none" xmlns="http://www.w3.org/2000/svg">
<path d="M16 32C24.8366 32 32 24.8366 32 16C32 7.16344 24.8366 0 16 0C7.16344 0 0 7.16344 0 16C0 24.8366 7.16344 32 16 32Z" fill="#7B346E"/>
<path d="M8.094 13.678L10.204 15.788H6L8.094 13.678ZM10.204 16.228L8.094 18.322L6 16.228H10.204ZM13.056 13.375L10.946 15.469V11.266L13.056 13.375ZM10.506 15.469L8.413 13.375L10.507 11.265L10.506 15.469ZM13.36 13.056L11.266 10.962H15.469L13.36 13.056ZM13.36 8.413L15.469 10.522H11.266L13.36 8.413ZM18.322 8.109L16.212 10.203V6L18.322 8.109ZM15.772 10.203L13.678 8.11L15.772 6V10.203ZM13.056 18.64L10.946 20.734V16.531L13.056 18.64ZM8.413 18.64L10.507 16.531V20.734L8.413 18.64ZM18.625 13.056L16.531 10.962H20.734L18.625 13.056ZM16.531 10.522L18.625 8.412L20.735 10.522H16.531ZM15.47 21.493L13.36 23.587L11.267 21.493H15.47ZM13.36 18.943L15.47 21.053H11.267L13.36 18.943ZM23.588 13.375L21.479 15.469V11.266L23.588 13.375ZM18.945 13.375L21.039 11.265V15.469L18.945 13.375ZM13.679 23.905L15.773 21.797V26L13.679 23.905ZM16.213 21.797L18.323 23.906L16.212 26L16.213 21.797ZM18.626 23.587L16.532 21.493H20.735L18.626 23.587ZM18.626 18.944L20.736 21.054H16.53L18.626 18.944ZM21.479 16.531L23.589 18.641L21.479 20.734V16.531ZM18.945 18.641L21.039 16.531V20.734L18.945 18.641ZM23.892 18.321L21.798 16.228H26L23.892 18.321ZM23.892 13.678L26 15.788H21.797L23.892 13.678Z" fill="white"/>
</svg>
