<svg width="32" height="32" viewBox="0 0 32 32" fill="none" xmlns="http://www.w3.org/2000/svg">
<path d="M16 32C24.8366 32 32 24.8366 32 16C32 7.16344 24.8366 0 16 0C7.16344 0 0 7.16344 0 16C0 24.8366 7.16344 32 16 32Z" fill="#00ADEF"/>
<path fill-rule="evenodd" clip-rule="evenodd" d="M14.863 26.986C9.32 26.405 5 21.708 5 16C5 10.292 9.32 5.595 14.863 5.014V8.384C13.0446 8.66428 11.3866 9.58643 10.1893 10.9835C8.99206 12.3805 8.3346 14.1601 8.336 16C8.3346 17.8399 8.99206 19.6195 10.1893 21.0165C11.3866 22.4136 13.0446 23.3357 14.863 23.616V26.986ZM17.038 5C22.268 5.479 26.441 9.617 26.986 14.837H23.623C23.3728 13.191 22.5959 11.6705 21.4087 10.5033C20.2215 9.33614 18.688 8.58517 17.038 8.363V5ZM27 17.017C26.518 22.307 22.316 26.517 17.038 27V23.637C18.713 23.4115 20.2673 22.6412 21.4612 21.4448C22.655 20.2484 23.4221 18.6925 23.644 17.017H27Z" fill="white"/>
</svg>
