<svg width="32" height="32" viewBox="0 0 32 32" fill="none" xmlns="http://www.w3.org/2000/svg">
<path d="M16 32C24.8366 32 32 24.8366 32 16C32 7.16344 24.8366 0 16 0C7.16344 0 0 7.16344 0 16C0 24.8366 7.16344 32 16 32Z" fill="#005396"/>
<path d="M12.3277 4.59778C13.3668 4.2631 14.4469 4.07233 15.5377 4.03078C17.0347 3.96278 18.5397 4.20578 19.9547 4.68878C22.2618 5.5031 24.2659 7.00135 25.6997 8.98378C26.0297 9.42378 26.3077 9.89678 26.5757 10.3768C26.8867 10.9848 27.1677 11.6108 27.3797 12.2598C27.6597 13.1508 27.8697 14.0738 27.9347 15.0088C27.9687 15.2108 27.9467 15.4168 27.9747 15.6188C27.9847 15.8718 27.9807 16.1248 27.9747 16.3798C27.9467 16.5828 27.9687 16.7888 27.9347 16.9908C27.8747 17.8328 27.7007 18.6648 27.4607 19.4748C27.2585 20.1438 26.9974 20.7937 26.6807 21.4168C25.5011 23.7331 23.6031 25.6052 21.2707 26.7528C20.6203 27.0771 19.9393 27.336 19.2377 27.5258C18.0627 27.8628 16.8377 28.0058 15.6197 27.9718C15.4167 27.9438 15.2077 27.9658 15.0087 27.9318C14.0957 27.8688 13.1977 27.6698 12.3247 27.3978C10.5738 26.8294 8.97661 25.867 7.65608 24.5844C6.33555 23.3018 5.32689 21.7334 4.70773 19.9998C4.31773 18.8648 4.06773 17.6778 4.03773 16.4748C3.99673 15.8978 4.04073 15.3178 4.08773 14.7418C4.17473 13.8908 4.36773 13.0488 4.62973 12.2358C5.42573 9.85106 6.94825 7.77534 8.98373 6.29978C9.42373 5.96978 9.89673 5.68978 10.3767 5.42378C11.0019 5.09244 11.6547 4.81607 12.3277 4.59778ZM14.6377 8.92778V11.7298C14.6317 11.7798 14.6777 11.8078 14.7027 11.8418C15.1327 12.2938 15.5667 12.7418 15.9967 13.1948C15.9936 11.7724 15.9936 10.3501 15.9967 8.92778C15.5447 8.92778 15.0897 8.92478 14.6367 8.92778H14.6377ZM8.72773 10.3778C8.83073 10.4458 8.90573 10.5448 8.99273 10.6298C9.91873 11.5648 10.8477 12.4968 11.7697 13.4378C12.6147 14.2918 13.4627 15.1428 14.3037 15.9968C13.2847 17.0408 12.2467 18.0668 11.2307 19.1108C10.4177 19.9308 9.60373 20.7508 8.79373 21.5698C8.77232 21.5872 8.7503 21.6039 8.72773 21.6198C9.92473 21.6198 11.1247 21.6228 12.3247 21.6138C13.5497 20.3318 14.7807 19.0538 16.0027 17.7698C17.2277 19.0508 18.4557 20.3318 19.6807 21.6138C20.8777 21.6228 22.0747 21.6168 23.2707 21.6198C23.0877 21.4728 22.9437 21.2898 22.7727 21.1298C21.9157 20.2638 21.0527 19.3968 20.1977 18.5278C19.3687 17.6828 18.5247 16.8508 17.7017 15.9998C17.9017 15.7998 18.0877 15.5918 18.2937 15.3948C19.8617 13.8148 21.4237 12.2288 22.9907 10.6478C23.0847 10.5578 23.1627 10.4518 23.2707 10.3778C22.0707 10.3778 20.8747 10.3738 19.6777 10.3798C18.4527 11.6608 17.2247 12.9398 15.9997 14.2198C14.7777 12.9358 13.5467 11.6578 12.3217 10.3798C11.1247 10.3768 9.92473 10.3768 8.72773 10.3768V10.3778ZM16.0057 18.7928C16.0057 20.2198 16.0087 21.6448 16.0027 23.0728C16.4577 23.0688 16.9127 23.0728 17.3647 23.0728V20.2668C17.3666 20.2518 17.3648 20.2365 17.3594 20.2224C17.354 20.2083 17.3452 20.1957 17.3337 20.1858C17.1037 19.9358 16.8597 19.7028 16.6327 19.4538C16.4267 19.2288 16.2057 19.0238 16.0057 18.7928Z" fill="white"/>
</svg>
