<svg width="32" height="32" viewBox="0 0 32 32" fill="none" xmlns="http://www.w3.org/2000/svg">
<path d="M16 32C24.8366 32 32 24.8366 32 16C32 7.16344 24.8366 0 16 0C7.16344 0 0 7.16344 0 16C0 24.8366 7.16344 32 16 32Z" fill="#2B1544"/>
<path d="M24.9898 12.5019V19.1579C24.9898 19.4539 25.0048 19.7559 24.9378 20.0469C24.7862 20.7201 24.4374 21.3329 23.9358 21.8068C23.6998 22.0338 23.4058 22.1808 23.1248 22.3468C21.2178 23.4569 19.3168 24.5698 17.4108 25.6818C16.8288 25.9928 16.1408 26.0458 15.4948 25.9658C15.1574 25.9247 14.8313 25.8181 14.5348 25.6518C12.5278 24.4818 10.5208 23.3088 8.51479 22.1398C8.02479 21.8668 7.65879 21.4169 7.38979 20.9329C7.16979 20.5129 7.00879 20.0508 7.00879 19.5698V12.3839C7.04579 11.6839 7.35579 11.0208 7.79679 10.4918C7.9755 10.2682 8.19172 10.0774 8.43579 9.92785C10.3008 8.84185 12.1658 7.75185 14.0298 6.66185C14.3368 6.49185 14.6278 6.28385 14.9598 6.16985C15.5212 5.99453 16.1172 5.96086 16.6948 6.07185C16.9518 6.14385 17.2138 6.21985 17.4448 6.35585C19.4748 7.54685 21.5078 8.72885 23.5368 9.92085C24.0778 10.2408 24.4748 10.7759 24.7328 11.3469C24.8958 11.7069 24.9898 12.1039 24.9898 12.5019ZM15.9398 10.0259C15.5091 10.6644 15.0105 11.2545 14.4528 11.7859C14.1608 12.0629 13.8798 12.3619 13.7128 12.7329C13.5788 12.9949 13.4888 13.2929 13.5268 13.5929C13.5718 13.9969 13.8598 14.3528 14.2338 14.4969C14.6138 14.6489 15.0438 14.6149 15.4218 14.4669C15.4898 14.4365 15.5651 14.4261 15.6388 14.4369C15.5648 14.9109 15.2768 15.3109 15.0488 15.7199L15.0588 15.7879C15.2648 16.0079 15.4818 16.2158 15.6868 16.4318C15.7388 16.4808 15.7868 16.5489 15.8588 16.5719C16.0978 16.3869 16.2848 16.1439 16.5048 15.9398C16.5538 15.8839 16.6548 15.8229 16.6018 15.7359C16.3888 15.3359 16.1528 14.9309 16.0858 14.4689C16.1258 14.3749 16.2388 14.4539 16.3058 14.4769C16.6608 14.6509 17.0898 14.6769 17.4608 14.5339C17.9658 14.3409 18.2798 13.7498 18.1668 13.2158C18.0808 12.7358 17.8268 12.2959 17.4828 11.9599C16.9528 11.4149 16.4438 10.8329 16.0818 10.1589C16.069 10.1278 16.0497 10.0999 16.0252 10.077C16.0007 10.054 15.9716 10.0366 15.9398 10.0259ZM12.3068 16.5358C11.7068 16.8618 11.3058 17.5009 11.2068 18.1799C11.0698 19.1329 11.6268 20.1288 12.4898 20.5188C13.0358 20.7538 13.6698 20.7489 14.2198 20.5339C14.5038 20.4199 14.7468 20.2338 14.9558 20.0148C15.0348 19.9309 15.1498 19.8558 15.1498 19.7268C15.1398 19.5978 15.0238 19.5268 14.9488 19.4388C14.8508 19.3518 14.7728 19.2389 14.6608 19.1699C14.4808 19.0908 14.3728 19.2879 14.2568 19.3858C13.8018 19.8478 12.9828 19.8518 12.5168 19.4008C12.3666 19.2596 12.2536 19.0835 12.1877 18.8881C12.1217 18.6928 12.105 18.4842 12.1388 18.2809C12.1948 17.8979 12.4228 17.5349 12.7628 17.3529C12.9828 17.2429 13.2298 17.1829 13.4728 17.1939C13.8158 17.2159 14.1298 17.3979 14.3618 17.6479C15.1538 18.4359 15.9158 19.2529 16.7048 20.0439C17.1228 20.4569 17.7018 20.7218 18.2918 20.6988C18.7418 20.7088 19.1748 20.5288 19.5408 20.2748C20.0798 19.8998 20.4078 19.2488 20.4408 18.5908C20.5128 17.5489 19.7578 16.4979 18.7408 16.2969C18.0918 16.1649 17.3588 16.3009 16.8588 16.7629C16.5028 17.0869 16.1788 17.4509 15.8268 17.7839C15.4638 17.4849 15.1768 17.1069 14.8218 16.8009C14.6702 16.6571 14.4941 16.5416 14.3018 16.4598C14.2658 16.4368 14.2538 16.4258 14.2058 16.4068C13.9014 16.2775 13.5708 16.2218 13.2409 16.2442C12.9109 16.2666 12.5909 16.3665 12.3068 16.5358ZM17.3438 17.5878C17.6028 17.3298 17.9688 17.1789 18.3338 17.2088C18.7298 17.2198 19.1138 17.4319 19.3238 17.7729C19.6518 18.2729 19.5558 18.9918 19.1338 19.4038C18.6998 19.8249 17.9558 19.8778 17.4888 19.4798C17.1418 19.1848 16.8508 18.8329 16.5188 18.5229C16.5148 18.5009 16.5108 18.4589 16.5068 18.4399C16.7838 18.1519 17.0668 17.8758 17.3438 17.5878Z" fill="white"/>
</svg>
