<svg width="32" height="32" viewBox="0 0 32 32" fill="none" xmlns="http://www.w3.org/2000/svg">
<path d="M16 32C24.8366 32 32 24.8366 32 16C32 7.16344 24.8366 0 16 0C7.16344 0 0 7.16344 0 16C0 24.8366 7.16344 32 16 32Z" fill="#2AB8E6"/>
<path d="M10.96 6H21.04L22 6.993V25.007L21.04 26H10.96L10 25.007V6.993L10.96 6ZM11.92 24.013H20.08V7.987H11.92V24.013ZM19.054 18.843H16.967V21.106H15.083V18.844H12.996V16.895H19.054V18.843ZM19.054 13.261V15.209H12.996V13.261H15.083V10.998H16.967V13.261H19.054Z" fill="white"/>
</svg>
