<svg width="32" height="32" viewBox="0 0 32 32" fill="none" xmlns="http://www.w3.org/2000/svg">
<path d="M16 32C24.8366 32 32 24.8366 32 16C32 7.16344 24.8366 0 16 0C7.16344 0 0 7.16344 0 16C0 24.8366 7.16344 32 16 32Z" fill="#0B1C26"/>
<path d="M16 27C9.932 26.982 5 22.057 5 16C5 9.943 9.932 5.018 16 5C22.068 5.018 27 9.943 27 16C27 22.057 22.068 26.988 16 27ZM25.755 17.75C25.6389 18.0178 25.4224 18.2293 25.1521 18.3392C24.8817 18.4492 24.579 18.4487 24.309 18.338C24.698 18.744 24.941 19.289 24.941 19.888C24.941 20.064 24.917 20.228 24.881 20.392C25.293 19.556 25.588 18.667 25.755 17.751V17.75ZM24.735 17.86C24.8814 17.8603 25.0219 17.8024 25.1256 17.699C25.2293 17.5957 25.2877 17.4554 25.288 17.309C25.2883 17.1626 25.2304 17.0221 25.127 16.9184C25.0237 16.8147 24.8834 16.7563 24.737 16.756C24.6645 16.7558 24.5927 16.7699 24.5256 16.7974C24.4586 16.825 24.3976 16.8655 24.3462 16.9166C24.2424 17.0199 24.1839 17.1601 24.1835 17.3065C24.1831 17.4529 24.2409 17.5935 24.3441 17.6973C24.4474 17.8011 24.5876 17.8596 24.734 17.86H24.735ZM24.983 11.833C25.2554 12.5952 25.3225 13.4157 25.1775 14.2121C25.0325 15.0085 24.6806 15.7527 24.157 16.37C24.3296 16.2652 24.5271 16.2086 24.729 16.206C25.306 16.206 25.779 16.648 25.828 17.218C25.877 16.818 25.907 16.418 25.907 16.006C25.9138 14.5635 25.5981 13.1378 24.983 11.833ZM24.419 13.377C24.4166 12.3638 24.0123 11.3929 23.2948 10.6774C22.5773 9.96199 21.6052 9.56047 20.592 9.561C19.5788 9.56047 18.6067 9.96199 17.8892 10.6774C17.1717 11.3929 16.7674 12.3638 16.765 13.377C16.7674 14.3902 17.1717 15.3611 17.8892 16.0766C18.6067 16.792 19.5788 17.1935 20.592 17.193C21.6049 17.1925 22.5764 16.7906 23.2936 16.0754C24.0109 15.3602 24.4156 14.3899 24.419 13.377ZM20.44 19.89C20.44 19.06 20.9 18.297 21.637 17.91C20.7034 18.1269 19.7256 18.0504 18.837 17.691C19.5926 18.2703 20.1521 19.0675 20.44 19.975C20.446 19.938 20.44 19.914 20.44 19.89ZM20.659 21.368C20.6578 21.7354 20.6128 22.1013 20.525 22.458C20.707 22.095 21.078 21.865 21.485 21.865C21.5422 21.8647 21.5992 21.8707 21.655 21.883C21.1871 21.6425 20.8175 21.2465 20.61 20.763C20.642 20.963 20.658 21.165 20.659 21.368ZM22.687 21.301C23.0624 21.3015 23.4227 21.1534 23.6892 20.889C23.9557 20.6246 24.1066 20.2654 24.109 19.89C24.109 19.109 23.471 18.479 22.687 18.479C21.903 18.479 21.272 19.115 21.272 19.889C21.272 20.671 21.91 21.301 22.688 21.301H22.687ZM23.622 17.316C23.624 17.129 23.672 16.946 23.762 16.782C23.3584 17.1547 22.894 17.4558 22.389 17.672C22.487 17.661 22.584 17.649 22.687 17.649C23.0911 17.648 23.4879 17.7569 23.835 17.964C23.6967 17.776 23.6223 17.5485 23.623 17.315L23.622 17.316ZM15.999 16.716C16.599 16.716 17.193 16.831 17.749 17.055C16.8153 16.3398 16.1895 15.2956 15.999 14.135C15.8077 15.295 15.1824 16.3389 14.25 17.055C14.8069 16.8331 15.4005 16.7178 16 16.715L15.999 16.716ZM15.999 10.543C15.5757 10.5439 15.1608 10.4242 14.803 10.198C15.4335 10.8635 15.8504 11.7025 16 12.607C16.1533 11.7034 16.5697 10.8651 17.197 10.197C16.8389 10.4234 16.4237 10.543 16 10.542L15.999 10.543ZM18.271 8.278C18.271 8.785 18.1 9.278 17.785 9.678C18.2572 9.32068 18.7936 9.05725 19.365 8.902C19.34 8.902 19.322 8.908 19.304 8.908C18.836 8.908 18.434 8.618 18.271 8.205C18.266 8.229 18.271 8.254 18.271 8.278ZM19.996 6.94C20.246 7.146 20.409 7.448 20.409 7.794C20.409 8.232 20.149 8.629 19.747 8.805C20.5526 8.65663 21.3831 8.72297 22.1549 8.99734C22.9268 9.2717 23.6128 9.74443 24.144 10.368C23.0995 8.86888 21.6656 7.68328 19.997 6.939L19.996 6.94ZM19.298 7.249C19.2255 7.2488 19.1537 7.26289 19.0866 7.29044C19.0196 7.318 18.9586 7.3585 18.9072 7.40962C18.8558 7.46074 18.815 7.52148 18.7871 7.58837C18.7592 7.65527 18.7447 7.72701 18.7445 7.7995C18.7443 7.87199 18.7584 7.94381 18.7859 8.01086C18.8135 8.0779 18.854 8.13886 18.9051 8.19026C18.9562 8.24166 19.017 8.28249 19.0839 8.31041C19.1508 8.33833 19.2225 8.3528 19.295 8.353C19.4415 8.3534 19.5822 8.29557 19.6861 8.19224C19.79 8.0889 19.8486 7.94853 19.849 7.802C19.8494 7.65547 19.7916 7.51478 19.6882 7.41088C19.5849 7.30699 19.4445 7.2484 19.298 7.248V7.249ZM16.686 6.116C17.0516 6.23204 17.3817 6.43912 17.6453 6.71777C17.909 6.99643 18.0974 7.33752 18.193 7.709C18.2134 7.43106 18.3381 7.1711 18.5421 6.9812C18.7461 6.79131 19.0143 6.68551 19.293 6.685C19.3293 6.68607 19.3654 6.69009 19.401 6.697C18.5273 6.37855 17.6135 6.18302 16.686 6.116ZM14.566 8.278C14.5759 8.65163 14.7312 9.00665 14.999 9.26743C15.2667 9.5282 15.6257 9.67414 15.9995 9.67414C16.3733 9.67414 16.7323 9.5282 17 9.26743C17.2678 9.00665 17.4231 8.65163 17.433 8.278C17.4191 7.90721 17.2621 7.55622 16.9949 7.2988C16.7277 7.04137 16.371 6.89754 16 6.89754C15.629 6.89754 15.2723 7.04137 15.0051 7.2988C14.7379 7.55622 14.5809 7.90721 14.567 8.278H14.566ZM12.593 6.697C12.6289 6.69003 12.6654 6.68602 12.702 6.685C12.981 6.68433 13.2499 6.78974 13.4541 6.97986C13.6584 7.16999 13.7827 7.43063 13.802 7.709C13.8975 7.33763 14.0858 6.99662 14.3492 6.71797C14.6127 6.43932 14.9426 6.23219 15.308 6.116C14.36 6.188 13.448 6.382 12.593 6.697ZM13.728 8.278C13.7269 8.25351 13.729 8.22899 13.734 8.205C13.6521 8.41202 13.51 8.5897 13.326 8.71503C13.142 8.84037 12.9246 8.90759 12.702 8.908C12.677 8.908 12.659 8.902 12.641 8.902C13.211 9.058 13.748 9.322 14.221 9.677C13.9018 9.28058 13.7279 8.78693 13.728 8.278ZM12.149 7.799C12.1491 7.87149 12.1634 7.94326 12.1912 8.0102C12.219 8.07715 12.2597 8.13796 12.311 8.18918C12.3623 8.24039 12.4232 8.28099 12.4902 8.30867C12.5572 8.33635 12.629 8.35057 12.7015 8.3505C12.774 8.35043 12.8458 8.33609 12.9127 8.30829C12.9797 8.28049 13.0405 8.23977 13.0917 8.18847C13.1429 8.13716 13.1835 8.07628 13.2112 8.00928C13.2389 7.94228 13.2531 7.87049 13.253 7.798C13.2529 7.6516 13.1946 7.51125 13.091 7.40782C12.9874 7.3044 12.8469 7.24637 12.7005 7.2465C12.5541 7.24663 12.4138 7.30492 12.3103 7.40853C12.2069 7.51214 12.1489 7.6526 12.149 7.799ZM7.855 10.374C8.38499 9.74888 9.07087 9.27505 9.84308 9.00055C10.6153 8.72605 11.4464 8.66066 12.252 8.811C12.0785 8.73533 11.9274 8.61615 11.8134 8.465C11.6995 8.31385 11.6264 8.13585 11.6014 7.94821C11.5763 7.76056 11.6002 7.56963 11.6705 7.39389C11.7409 7.21814 11.8554 7.06353 12.003 6.945C10.3315 7.68518 8.89635 8.8716 7.855 10.374ZM7.581 13.378C7.58338 14.3912 7.9877 15.3621 8.7052 16.0776C9.4227 16.793 10.3948 17.1945 11.408 17.194C12.4212 17.1945 13.3933 16.793 14.1108 16.0776C14.8283 15.3621 15.2326 14.3912 15.235 13.378C15.2326 12.3648 14.8283 11.3939 14.1108 10.6784C13.3933 9.96299 12.4212 9.56147 11.408 9.562C9.3 9.568 7.581 11.276 7.581 13.378ZM11.56 19.89C11.56 19.914 11.554 19.945 11.554 19.969C11.8435 19.0623 12.4028 18.2655 13.157 17.685C12.2683 18.0441 11.2905 18.1202 10.357 17.903C10.7194 18.0934 11.0229 18.379 11.2349 18.7292C11.4469 19.0793 11.5593 19.4807 11.56 19.89ZM8.377 17.315C8.378 17.55 8.301 17.778 8.158 17.963C8.50523 17.7564 8.90198 17.6479 9.306 17.649C9.406 17.648 9.506 17.656 9.604 17.673C9.09656 17.4613 8.63145 17.1598 8.231 16.783C8.327 16.943 8.377 17.128 8.377 17.315ZM7.891 19.89C7.891 20.2653 8.04008 20.6252 8.30544 20.8906C8.57081 21.1559 8.93072 21.305 9.306 21.305C9.68128 21.305 10.0412 21.1559 10.3066 20.8906C10.5719 20.6252 10.721 20.2653 10.721 19.89C10.721 19.108 10.084 18.478 9.306 18.478C9.12025 18.4773 8.9362 18.5134 8.76442 18.5841C8.59264 18.6548 8.43652 18.7587 8.30504 18.8899C8.17355 19.0211 8.06928 19.177 7.99823 19.3486C7.92718 19.5203 7.89074 19.7042 7.891 19.89ZM10.339 21.883C10.394 21.877 10.449 21.864 10.509 21.864C10.916 21.865 11.287 22.094 11.469 22.458C11.3812 22.1013 11.3362 21.7354 11.335 21.368C11.337 21.163 11.351 20.958 11.378 20.756C11.175 21.242 10.808 21.641 10.339 21.883ZM6.166 17.213C6.18996 16.9375 6.31611 16.6808 6.51966 16.4936C6.7232 16.3063 6.98942 16.202 7.266 16.201C7.467 16.202 7.665 16.259 7.836 16.365C7.31245 15.7477 6.96051 15.0035 6.81553 14.2071C6.67054 13.4107 6.73761 12.5902 7.01 11.828C6.22476 13.5066 5.93208 15.3736 6.166 17.212V17.213ZM7.266 16.764C7.19351 16.7639 7.1217 16.778 7.05468 16.8056C6.98766 16.8333 6.92674 16.8738 6.87538 16.925C6.82403 16.9761 6.78326 17.0369 6.7554 17.1038C6.72754 17.1708 6.71313 17.2425 6.713 17.315C6.71287 17.3875 6.72702 17.4593 6.75464 17.5263C6.78226 17.5933 6.8228 17.6543 6.87397 17.7056C6.92514 17.757 6.98591 17.7977 7.05283 17.8256C7.11976 17.8535 7.19151 17.8679 7.264 17.868C7.4104 17.8683 7.55091 17.8104 7.65462 17.707C7.75832 17.6037 7.81673 17.4634 7.817 17.317C7.81727 17.1706 7.75936 17.0301 7.65603 16.9264C7.5527 16.8227 7.4124 16.7643 7.266 16.764ZM7.06 19.89C7.06 19.31 7.286 18.754 7.691 18.34C7.42095 18.4505 7.11837 18.4508 6.84809 18.3409C6.57781 18.231 6.36132 18.0196 6.245 17.752C6.415 18.684 6.708 19.569 7.12 20.392C7.08125 20.2274 7.06113 20.0591 7.06 19.89ZM9.902 22.052C9.5335 22.1527 9.14539 22.1577 8.77441 22.0665C8.40343 21.9754 8.06185 21.791 7.782 21.531C8.312 22.314 8.95 23.017 9.677 23.621C9.51793 23.4307 9.42991 23.191 9.428 22.943C9.428 22.586 9.606 22.253 9.902 22.053V22.052ZM9.987 22.942C9.987 23.0804 10.042 23.2132 10.1399 23.3111C10.2378 23.409 10.3706 23.464 10.509 23.464C10.6474 23.464 10.7802 23.409 10.8781 23.3111C10.976 23.2132 11.031 23.0804 11.031 22.942C11.031 22.8036 10.976 22.6708 10.8781 22.5729C10.7802 22.475 10.6474 22.42 10.509 22.42C10.3706 22.42 10.2378 22.475 10.1399 22.5729C10.042 22.6708 9.987 22.8036 9.987 22.942ZM14.658 25.82C13.9461 25.6046 13.2959 25.2223 12.7614 24.7051C12.227 24.1878 11.8236 23.5505 11.585 22.846C11.585 22.876 11.597 22.906 11.597 22.943C11.5968 23.1256 11.5502 23.3052 11.4617 23.4649C11.3731 23.6247 11.2455 23.7593 11.0907 23.8562C10.9359 23.9532 10.759 24.0092 10.5767 24.0191C10.3943 24.0291 10.2124 23.9926 10.048 23.913C11.3969 24.9313 12.9839 25.5878 14.658 25.82ZM19.821 21.368C19.821 20.3547 19.4185 19.383 18.702 18.6665C17.9855 17.95 17.0138 17.5475 16.0005 17.5475C14.9872 17.5475 14.0155 17.95 13.299 18.6665C12.5825 19.383 12.18 20.3547 12.18 21.368C12.1821 22.38 12.5854 23.3499 13.3015 24.065C14.0176 24.7802 14.988 25.1822 16 25.183C17.0119 25.1812 17.9818 24.7786 18.6977 24.0635C19.4136 23.3484 19.8171 22.3789 19.82 21.367L19.821 21.368ZM21.959 23.912C21.7944 23.9921 21.6122 24.0291 21.4294 24.0195C21.2466 24.0099 21.0692 23.954 20.914 23.857C20.7591 23.7601 20.6316 23.6254 20.5434 23.4654C20.4552 23.3055 20.4093 23.1257 20.41 22.943C20.411 22.9104 20.415 22.8779 20.422 22.846C20.1833 23.5506 19.7798 24.188 19.2451 24.7053C18.7105 25.2225 18.0601 25.6047 17.348 25.82C19.0216 25.585 20.6079 24.9285 21.958 23.912H21.959ZM22.014 22.942C22.014 22.8388 21.9834 22.7379 21.9261 22.6521C21.8688 22.5663 21.7873 22.4994 21.692 22.4598C21.5967 22.4203 21.4918 22.4099 21.3905 22.43C21.2893 22.45 21.1963 22.4996 21.1232 22.5725C21.0502 22.6454 21.0004 22.7384 20.9802 22.8396C20.9599 22.9407 20.9701 23.0457 21.0094 23.1411C21.0488 23.2365 21.1156 23.3181 21.2013 23.3755C21.287 23.433 21.3878 23.4638 21.491 23.464C21.6289 23.463 21.761 23.4078 21.8586 23.3103C21.9562 23.2129 22.0117 23.0809 22.013 22.943L22.014 22.942ZM24.218 21.532C23.9382 21.792 23.5965 21.9763 23.2255 22.0673C22.8545 22.1583 22.4664 22.153 22.098 22.052C22.394 22.252 22.572 22.586 22.572 22.942C22.572 23.203 22.475 23.433 22.323 23.621C23.0502 23.0173 23.6882 22.3137 24.218 21.531V21.532Z" fill="white"/>
</svg>
