<svg width="32" height="32" viewBox="0 0 32 32" fill="none" xmlns="http://www.w3.org/2000/svg">
<path d="M16 32C24.8366 32 32 24.8366 32 16C32 7.16344 24.8366 0 16 0C7.16344 0 0 7.16344 0 16C0 24.8366 7.16344 32 16 32Z" fill="#FF4A4A"/>
<path d="M19.328 18.981H18.316C18.2704 18.9811 18.2252 18.9723 18.1831 18.9549C18.1409 18.9375 18.1026 18.9119 18.0703 18.8797C18.0381 18.8474 18.0125 18.8091 17.9951 18.767C17.9778 18.7248 17.9689 18.6796 17.969 18.634V15.972L16.197 17.078C16.1239 17.124 16.0393 17.1484 15.953 17.1484C15.8667 17.1484 15.7821 17.124 15.709 17.078L13.947 15.972V18.634C13.947 18.822 13.797 18.981 13.6 18.981H12.597C12.5514 18.9811 12.5062 18.9723 12.4641 18.9549C12.4219 18.9375 12.3836 18.9119 12.3513 18.8797C12.3191 18.8474 12.2935 18.8091 12.2761 18.767C12.2588 18.7248 12.2499 18.6796 12.25 18.634V13.497C12.25 13.375 12.2985 13.258 12.3847 13.1717C12.471 13.0855 12.588 13.037 12.71 13.037C12.803 13.037 12.887 13.066 12.962 13.122L15.756 15.044C15.8117 15.0853 15.8792 15.1076 15.9485 15.1076C16.0178 15.1076 16.0853 15.0853 16.141 15.044L18.934 13.122C19.0031 13.0757 19.0834 13.0489 19.1664 13.0443C19.2494 13.0397 19.3322 13.0575 19.406 13.0958C19.4798 13.1341 19.5419 13.1916 19.5859 13.2622C19.6299 13.3328 19.6541 13.4139 19.656 13.497V18.634C19.6583 18.6786 19.6515 18.7232 19.6361 18.7651C19.6207 18.8069 19.5969 18.8453 19.5663 18.8777C19.5356 18.9101 19.4987 18.936 19.4577 18.9538C19.4168 18.9715 19.3726 18.9808 19.328 18.981ZM10.74 18.972H4.46C4.338 18.972 4.221 18.9235 4.13473 18.8373C4.04846 18.751 4 18.634 4 18.512V13.347C4.00184 13.254 4.04022 13.1654 4.10684 13.1005C4.17346 13.0356 4.26297 12.9995 4.356 13H5.37C5.557 13 5.717 13.15 5.717 13.347V17.275H9.523V13.347C9.523 13.159 9.673 13 9.87 13H10.854C11.042 13 11.201 13.15 11.201 13.347V18.513C11.2007 18.6348 11.1522 18.7516 11.0659 18.8376C10.9797 18.9237 10.8628 18.972 10.741 18.972H10.74ZM21.184 13H27.466C27.5878 13.0003 27.7046 13.0489 27.7906 13.1351C27.8767 13.2213 27.925 13.3382 27.925 13.46V18.625C27.925 18.813 27.775 18.972 27.587 18.972H26.575C26.5294 18.9721 26.4842 18.9633 26.4421 18.9459C26.3999 18.9285 26.3616 18.9029 26.3293 18.8707C26.2971 18.8384 26.2715 18.8001 26.2541 18.758C26.2368 18.7158 26.2279 18.6706 26.228 18.625V14.922C26.2272 14.8626 26.2033 14.8058 26.1612 14.7638C26.1192 14.7217 26.0624 14.6978 26.003 14.697H22.656C22.5966 14.6978 22.5398 14.7217 22.4978 14.7638C22.4557 14.8058 22.4318 14.8626 22.431 14.922V18.625C22.431 18.813 22.281 18.972 22.084 18.972H21.072C21.0264 18.9721 20.9812 18.9633 20.9391 18.9459C20.8969 18.9285 20.8586 18.9029 20.8263 18.8707C20.7941 18.8384 20.7685 18.8001 20.7511 18.758C20.7338 18.7158 20.7249 18.6706 20.725 18.625V13.459C20.7253 13.3372 20.7738 13.2204 20.8601 13.1344C20.9463 13.0483 21.0632 13 21.185 13H21.184Z" fill="white"/>
<path d="M23.8187 15.7842H24.8217C25.0087 15.7842 25.1687 15.9342 25.1687 16.1312V17.1532C25.1687 17.3412 25.0187 17.5002 24.8217 17.5002H23.8187C23.7731 17.5003 23.7279 17.4914 23.6857 17.474C23.6436 17.4566 23.6053 17.4311 23.573 17.3988C23.5408 17.3666 23.5152 17.3283 23.4978 17.2861C23.4804 17.244 23.4715 17.1988 23.4717 17.1532V16.1222C23.4717 15.9342 23.6317 15.7842 23.8187 15.7842Z" fill="white"/>
</svg>
