<svg width="32" height="32" viewBox="0 0 32 32" fill="none" xmlns="http://www.w3.org/2000/svg">
<path d="M16 32C24.8366 32 32 24.8366 32 16C32 7.16344 24.8366 0 16 0C7.16344 0 0 7.16344 0 16C0 24.8366 7.16344 32 16 32Z" fill="#00E6A0"/>
<path d="M23.0731 7.50016C23.1615 7.49821 23.2493 7.51423 23.3313 7.54723C23.4133 7.58023 23.4878 7.62954 23.5501 7.69216L23.5441 7.68616C23.6429 7.78461 23.7075 7.91223 23.7281 8.05016L23.7371 8.15416L23.7301 11.5712C23.7301 12.0202 23.5521 12.4512 23.2341 12.7682L18.9941 16.9952L23.5311 21.5182C23.6907 21.6741 23.8178 21.8601 23.9051 22.0654C23.9923 22.2708 24.038 22.4914 24.0396 22.7145C24.0411 22.9376 23.9984 23.1587 23.914 23.3653C23.8296 23.5718 23.7051 23.7595 23.5477 23.9176C23.3903 24.0758 23.2031 24.2011 22.997 24.2865C22.7909 24.3719 22.5699 24.4156 22.3468 24.4151C22.1237 24.4146 21.9029 24.3699 21.6971 24.2835C21.4914 24.1972 21.3048 24.071 21.1481 23.9122L15.4131 18.1952C15.255 18.0384 15.1294 17.8519 15.0438 17.6463C14.9581 17.4408 14.914 17.2203 14.914 16.9977C14.914 16.775 14.9581 16.5545 15.0438 16.349C15.1294 16.1434 15.255 15.9569 15.4131 15.8002L20.4351 10.7882H11.9371V22.6772C11.9409 22.9038 11.8991 23.1289 11.8141 23.3391C11.7291 23.5492 11.6027 23.7401 11.4424 23.9004C11.2821 24.0607 11.0912 24.1871 10.8811 24.2721C10.6709 24.3571 10.4458 24.3989 10.2191 24.3952L10.0491 24.3892C9.62251 24.3521 9.22569 24.155 8.93837 23.8374C8.65105 23.5199 8.4945 23.1054 8.50015 22.6772V9.34716C8.50015 8.28116 9.26315 7.50016 10.2961 7.50016H23.0731Z" fill="white"/>
</svg>
