<svg width="32" height="32" viewBox="0 0 32 32" fill="none" xmlns="http://www.w3.org/2000/svg">
<path d="M16 32C24.8366 32 32 24.8366 32 16C32 7.16344 24.8366 0 16 0C7.16344 0 0 7.16344 0 16C0 24.8366 7.16344 32 16 32Z" fill="#C1A05C"/>
<path fill-rule="evenodd" clip-rule="evenodd" d="M16.2758 26C13.9568 25.994 11.8808 25.282 10.0268 23.92C9.5338 23.558 9.5188 23.35 9.9388 22.899L9.9768 22.859C10.4898 22.303 10.4868 22.306 11.0958 22.744C12.4992 23.7694 14.1814 24.3435 15.9188 24.39C17.7648 24.454 19.4608 24.013 20.9938 23.024C22.8328 21.838 24.0868 20.186 24.6118 18.077C25.2708 15.429 24.7808 12.977 23.0448 10.822C21.8288 9.312 20.2488 8.339 18.3398 7.878C16.6358 7.466 14.9618 7.567 13.3168 8.133C12.4458 8.433 11.6408 8.875 10.9138 9.443C10.5548 9.723 10.4188 9.717 10.1138 9.375C9.96707 9.21561 9.82951 9.04801 9.7018 8.873C9.5138 8.607 9.5398 8.449 9.7938 8.247C11.0007 7.2897 12.4068 6.61516 13.9088 6.273C15.2681 5.95081 16.6793 5.91336 18.0538 6.163C19.9218 6.501 21.5838 7.269 23.0108 8.513C24.0668 9.435 24.9208 10.513 25.5148 11.773C26.3328 13.509 26.6658 15.327 26.4208 17.245C26.2022 18.9951 25.5146 20.6536 24.4308 22.045C23.3238 23.487 21.9068 24.539 20.2128 25.23C18.9648 25.746 17.6263 26.0078 16.2758 26ZM15.6398 19.617C15.5728 19.719 15.5378 19.795 15.4818 19.853C15.1438 20.208 14.7308 20.421 14.2328 20.437C13.8878 20.447 13.5418 20.418 13.1968 20.426C13.0634 20.4248 12.9318 20.4578 12.8148 20.522C11.2208 21.522 9.5048 21.668 7.6968 21.284C7.1018 21.158 6.5688 20.929 6.1148 20.539C5.7728 20.246 5.5318 19.9 5.5028 19.414C5.4528 18.567 6.0798 17.989 6.7258 17.8C7.9188 17.45 9.0538 17.663 10.1398 18.19C10.6358 18.43 11.0998 18.736 11.5738 19.02C11.8458 19.181 11.9268 19.175 12.0628 18.897C12.6778 17.641 12.2808 16.256 10.7788 15.744C9.4608 15.294 8.1718 15.339 6.9028 15.924C6.7168 16.01 6.5128 16.174 6.2938 15.998C6.0668 15.814 6.2188 15.595 6.2768 15.401C6.6938 13.997 7.1168 12.596 7.5458 11.196C7.6398 10.889 7.8848 10.731 8.2428 10.75C8.7698 10.779 9.2938 10.858 9.8208 10.87C10.6108 10.89 11.4038 10.897 12.1928 10.858C12.7798 10.828 13.2948 10.57 13.7478 10.196C13.8028 10.151 13.9138 10.099 13.9498 10.123C14.0028 10.158 14.0348 10.256 14.0398 10.33C14.0768 10.936 13.8168 11.403 13.3348 11.766C12.7648 12.196 12.1138 12.396 11.4028 12.413C10.6658 12.43 9.9288 12.44 9.1928 12.443C9.0268 12.445 8.9388 12.505 8.8998 12.661C8.8338 12.921 8.7638 13.182 8.6888 13.441C8.6318 13.634 8.7048 13.711 8.8998 13.703C9.3638 13.686 9.8278 13.655 10.2908 13.658C11.3566 13.6518 12.3857 14.0466 13.1738 14.764C13.9468 15.452 14.2598 16.34 14.3068 17.332C14.3438 18.127 14.1918 18.888 13.7548 19.573C13.6358 19.76 13.6898 19.841 13.8908 19.894C14.4248 20.035 14.9178 19.939 15.3888 19.676C15.4288 19.654 15.4658 19.629 15.5068 19.61C15.5208 19.604 15.5418 19.611 15.6398 19.617ZM11.0718 19.843L11.0558 19.746C10.9888 19.705 10.9258 19.654 10.8528 19.622C10.3228 19.387 9.7998 19.127 9.2558 18.929C8.7008 18.726 8.1238 18.581 7.5198 18.722C7.2478 18.785 6.9758 18.854 6.8968 19.167C6.8088 19.512 7.0198 19.727 7.2658 19.915C7.3428 19.974 7.4378 20.016 7.5298 20.052C8.4638 20.412 9.4118 20.422 10.3638 20.14C10.6078 20.068 10.8368 19.943 11.0718 19.843Z" fill="white"/>
</svg>
