<svg width="32" height="32" viewBox="0 0 32 32" fill="none" xmlns="http://www.w3.org/2000/svg">
<path d="M16 32C24.8366 32 32 24.8366 32 16C32 7.16344 24.8366 0 16 0C7.16344 0 0 7.16344 0 16C0 24.8366 7.16344 32 16 32Z" fill="#4FA784"/>
<path fill-rule="evenodd" clip-rule="evenodd" d="M25.5755 12.8462L17.4655 10.5222L14.6915 15.2472L11.4695 11.5102L12.9295 11.3222L14.4345 13.0902L16.1045 10.1312L8.75447 8.02416C8.65573 7.99489 8.55101 7.99217 8.45088 8.01626C8.35075 8.04035 8.25873 8.0904 8.1841 8.16138C8.10948 8.23236 8.05487 8.32175 8.02579 8.42055C7.99672 8.51935 7.99419 8.62407 8.01847 8.72416L11.2745 21.8002L14.7715 15.9122L17.9935 19.6492L16.5335 19.8372L15.0295 18.0692L11.7195 23.5862L12.2095 25.5562C12.235 25.6561 12.2862 25.7476 12.3581 25.8215C12.4299 25.8954 12.5199 25.9492 12.6191 25.9776C12.7182 26.0059 12.823 26.0077 12.9231 25.9829C13.0232 25.9581 13.115 25.9075 13.1895 25.8362L25.8195 13.8262C25.894 13.7555 25.9485 13.6663 25.9773 13.5677C26.0061 13.4691 26.0082 13.3646 25.9834 13.265C25.9586 13.1653 25.9077 13.074 25.8361 13.0004C25.7644 12.9268 25.6745 12.8736 25.5755 12.8462Z" fill="white"/>
</svg>
