<svg width="32" height="32" viewBox="0 0 32 32" fill="none" xmlns="http://www.w3.org/2000/svg">
<path d="M16 32C24.8366 32 32 24.8366 32 16C32 7.16344 24.8366 0 16 0C7.16344 0 0 7.16344 0 16C0 24.8366 7.16344 32 16 32Z" fill="#8834FF"/>
<path d="M7 21.2297C7.191 21.2297 7.392 21.2397 7.583 21.2297C7.946 21.2027 8.31 21.1298 8.665 21.0398C9.36509 20.8486 10.0204 20.5206 10.593 20.0748C10.757 19.9478 10.92 19.8118 11.075 19.6658C11.402 19.3388 11.685 18.9657 11.912 18.5658C12.112 18.2108 12.257 17.8287 12.367 17.4377C12.376 17.4107 12.376 17.3738 12.385 17.3468H10.957C10.6602 17.3454 10.3645 17.3119 10.075 17.2467C10.0489 17.2361 10.0212 17.23 9.993 17.2288C9.9791 17.2217 9.96657 17.2122 9.956 17.2008C10.038 17.0198 10.111 16.8468 10.184 16.6648L10.739 15.3818C10.7567 15.3205 10.7841 15.2624 10.82 15.2098C10.8596 15.1731 10.912 15.1533 10.966 15.1547C11.412 15.1458 11.848 15.1547 12.294 15.1547H12.412C12.394 15.0817 12.394 15.0278 12.376 14.9648C12.2149 14.3494 11.9301 13.7734 11.539 13.2718C11.3467 13.0268 11.1368 12.7962 10.911 12.5817C10.6286 12.3161 10.3142 12.0866 9.975 11.8988C9.62155 11.7 9.24985 11.5355 8.865 11.4078C8.54446 11.3073 8.21593 11.2344 7.883 11.1897C7.619 11.1617 7.364 11.1528 7.101 11.1348C7.037 11.1348 6.973 11.1257 6.91 11.1167C6.897 11.1129 6.88516 11.1058 6.87556 11.0962C6.86596 11.0866 6.8589 11.0748 6.855 11.0618C6.764 10.8528 6.673 10.6528 6.582 10.4438C6.472 10.1978 6.372 9.95275 6.264 9.71575C6.182 9.51575 6.091 9.32575 6 9.11575L6.191 9.06075C6.591 9.00675 7.001 8.98875 7.41 9.00675C8.06117 9.02858 8.70786 9.12316 9.338 9.28875C9.738 9.39775 10.138 9.53375 10.52 9.69775C11.057 9.92475 11.566 10.2077 12.04 10.5437C12.248 10.6977 12.457 10.8618 12.658 11.0258C12.748 11.0988 12.839 11.1808 12.93 11.2618C13.385 11.6988 13.785 12.1988 14.122 12.7358C14.458 13.2718 14.704 13.8537 14.868 14.4637C14.922 14.6637 14.958 14.8738 15.004 15.0738C15.0093 15.0891 15.0191 15.1025 15.0321 15.1121C15.0451 15.1218 15.0608 15.1272 15.077 15.1278H16.923C16.96 14.9818 16.987 14.8368 17.014 14.6908C17.124 14.2638 17.269 13.8538 17.451 13.4628C17.596 13.1358 17.778 12.8178 17.987 12.5268C18.178 12.2628 18.378 11.9987 18.597 11.7537C18.7578 11.5637 18.9309 11.3843 19.115 11.2168C19.4975 10.8695 19.9116 10.5588 20.352 10.2887C20.807 10.0067 21.28 9.77875 21.78 9.59775C22.126 9.47975 22.471 9.37075 22.817 9.27975C23.08 9.21575 23.335 9.16975 23.608 9.13375C23.826 9.09775 24.054 9.07975 24.281 9.06075C24.427 9.05175 24.563 9.04275 24.709 9.04275C24.927 9.04275 25.136 9.03375 25.345 9.04275C25.555 9.05275 25.764 9.09775 25.973 9.13375C25.982 9.13375 25.982 9.14375 26 9.16075L25.845 9.52475C25.682 9.90675 25.518 10.2888 25.345 10.6798C25.2789 10.817 25.2182 10.9568 25.163 11.0988C25.127 11.1888 25.036 11.1527 24.973 11.1707C24.918 11.1807 24.873 11.1807 24.818 11.1707C23.8883 11.1798 22.9721 11.3943 22.135 11.7987C21.7434 11.99 21.3767 12.2285 21.043 12.5087C20.907 12.6267 20.753 12.7447 20.625 12.8807C20.297 13.2087 20.015 13.5808 19.788 13.9908C19.6056 14.3291 19.4594 14.6857 19.352 15.0548C19.342 15.0818 19.342 15.1188 19.333 15.1458H19.433C19.906 15.1458 20.388 15.1357 20.861 15.1458C21.143 15.1458 21.425 15.1907 21.698 15.2817C21.708 15.2917 21.716 15.2917 21.725 15.3007L21.462 15.9008C21.28 16.3278 21.089 16.7557 20.907 17.1917C20.852 17.3197 20.816 17.3468 20.67 17.3468H19.342C19.379 17.4738 19.406 17.5828 19.442 17.6928C19.57 18.0748 19.752 18.4377 19.979 18.7747C20.116 18.9747 20.261 19.1568 20.416 19.3388C20.506 19.4478 20.606 19.5568 20.706 19.6478C21.043 19.9748 21.426 20.2578 21.834 20.4848C22.18 20.6848 22.553 20.8488 22.935 20.9748C23.299 21.1028 23.681 21.1848 24.072 21.2208L24.79 21.2757C24.881 21.2857 24.972 21.2858 25.063 21.2938C25.081 21.3038 25.1 21.3117 25.109 21.3307C25.263 21.6937 25.418 22.0578 25.582 22.4218L25.972 23.3127C25.845 23.3407 25.727 23.3678 25.6 23.3768C25.29 23.3948 24.972 23.4128 24.663 23.4128C24.381 23.4128 24.099 23.3858 23.826 23.3498C23.4478 23.2963 23.0715 23.2296 22.698 23.1497C22.2502 23.0398 21.8121 22.8937 21.388 22.7127C20.8829 22.4965 20.4017 22.2284 19.952 21.9128C19.7176 21.739 19.4872 21.56 19.261 21.3757C19.1127 21.255 18.9727 21.1243 18.842 20.9848C18.2675 20.4004 17.7944 19.7245 17.442 18.9848C17.2359 18.5466 17.0832 18.0853 16.987 17.6108C16.969 17.5648 16.96 17.5107 16.95 17.4648C16.95 17.3748 16.905 17.3558 16.823 17.3558H14.986C14.8945 17.8496 14.748 18.3316 14.549 18.7927C14.3877 19.1841 14.1834 19.5564 13.94 19.9028C13.7496 20.1704 13.546 20.4284 13.33 20.6758C13.1744 20.8645 13.0043 21.0407 12.821 21.2027C12.539 21.4487 12.239 21.6757 11.939 21.9028C11.5782 22.1591 11.1946 22.3817 10.793 22.5678C10.0454 22.9232 9.24786 23.1623 8.428 23.2768C8.146 23.3218 7.864 23.3498 7.583 23.3768C7.42246 23.3858 7.26154 23.3858 7.101 23.3768C6.864 23.3768 6.628 23.3667 6.401 23.3587C6.318 23.3487 6.236 23.3408 6.155 23.3218C6.109 23.3128 6.091 23.2947 6.118 23.2407C6.3 22.8217 6.491 22.4038 6.673 21.9848C6.783 21.7308 6.883 21.4948 7 21.2308V21.2297Z" fill="white"/>
</svg>
