<svg width="32" height="32" viewBox="0 0 32 32" fill="none" xmlns="http://www.w3.org/2000/svg">
<path d="M16 32C24.8366 32 32 24.8366 32 16C32 7.16344 24.8366 0 16 0C7.16344 0 0 7.16344 0 16C0 24.8366 7.16344 32 16 32Z" fill="#7F368A"/>
<path d="M25.5689 21.3162C25.6339 21.5792 25.3719 21.7102 25.1749 21.6452H21.8969C21.6999 21.6452 21.5689 21.5792 21.4369 21.5132C21.2409 21.4472 21.1099 21.1852 21.0439 20.9222V20.8562L17.9619 9.49017C17.8969 9.49017 17.6999 9.68717 17.6339 9.68717C17.5689 9.75217 17.4369 9.81817 17.3719 9.75217C17.2409 9.68717 17.1749 9.49017 17.2409 9.35817C17.3709 9.03017 17.6999 8.83217 18.0279 8.76717C18.4209 8.70117 18.7489 8.70117 19.1419 8.70117H21.5689C21.7649 8.70117 21.9619 8.70117 22.1589 8.76717C22.3559 8.89817 22.4209 9.16117 22.4869 9.35817C22.6169 9.81817 22.6829 10.2782 22.8149 10.7382L24.3879 16.6522L24.9779 19.0172C25.1749 19.7402 25.4379 20.5292 25.5679 21.3172L25.5689 21.3162ZM17.9619 21.3162C18.0279 21.5792 17.7649 21.7102 17.5689 21.6452H14.2899C14.0929 21.6452 13.9619 21.5792 13.8299 21.5132C13.6339 21.4472 13.5029 21.1852 13.4369 20.9222V20.8562L10.3559 9.49017C10.2899 9.49017 10.0929 9.68717 10.0279 9.68717C9.9619 9.75217 9.8309 9.81817 9.7649 9.75217C9.6349 9.68717 9.5689 9.49017 9.6349 9.35817C9.7649 9.03017 10.0929 8.83217 10.4209 8.76717C10.8149 8.70117 11.1419 8.70117 11.5359 8.70117H13.9619C14.1589 8.70117 14.3559 8.70117 14.5519 8.76717C14.7489 8.89817 14.8149 9.16117 14.8799 9.35817C15.0109 9.81817 15.0769 10.2782 15.2079 10.7382L16.7819 16.6522L17.3719 19.0172C17.5689 19.7402 17.8309 20.5292 17.9619 21.3172V21.3162ZM11.9289 18.8192L11.1419 21.3162C11.1056 21.4458 11.0287 21.5604 10.9226 21.6432C10.8164 21.726 10.6865 21.7726 10.5519 21.7762H7.0769C6.90291 21.7756 6.73621 21.7062 6.61327 21.5831C6.49033 21.46 6.42116 21.2932 6.4209 21.1192V20.9872L9.1749 10.6062C9.2409 10.4742 9.3719 10.3432 9.5029 10.3432C9.6999 10.3432 9.8309 10.4742 9.8309 10.6062L11.9289 18.8192ZM19.6669 18.6222L19.2079 20.0022C19.1419 20.1332 19.0769 20.1992 18.9459 20.1992C18.8149 20.1992 18.7489 20.1332 18.6829 20.0022L16.3879 11.9852L16.8479 10.3432C16.8479 10.2112 16.9779 10.1462 17.1099 10.1462C17.2399 10.1462 17.3719 10.2112 17.3719 10.3432L19.6669 18.6222Z" fill="white"/>
</svg>
