<svg width="32" height="32" viewBox="0 0 32 32" fill="none" xmlns="http://www.w3.org/2000/svg">
<path d="M16 32C24.8366 32 32 24.8366 32 16C32 7.16344 24.8366 0 16 0C7.16344 0 0 7.16344 0 16C0 24.8366 7.16344 32 16 32Z" fill="#3A8CBD"/>
<path d="M13.4702 18.0448H15.1482C15.6277 18.0464 16.1015 17.9412 16.5352 17.7368C16.9452 17.5338 17.3112 17.2528 17.6122 16.9088C17.9112 16.5528 18.1422 16.1458 18.2962 15.7078C18.4621 15.264 18.5461 14.7937 18.5442 14.3198C18.5469 13.8574 18.455 13.3994 18.2742 12.9738C18.1008 12.5427 17.856 12.1438 17.5502 11.7938C17.242 11.4433 16.8692 11.1554 16.4522 10.9458C16.0245 10.7248 15.5496 10.6108 15.0682 10.6138H10.6582V21.3168H13.4742L13.4702 18.0448ZM13.4702 13.1988H14.8972C15.0955 13.2119 15.2811 13.3011 15.4152 13.4478C15.5812 13.6128 15.6852 13.9038 15.6852 14.3588C15.6852 14.8138 15.5822 15.0838 15.4352 15.2308C15.3122 15.3758 15.1462 15.4788 14.9602 15.4788H13.4702V13.1998V13.1988Z" fill="white"/>
<path d="M7.02344 8.03002V23.918C7.02344 24.488 7.48444 24.948 8.05344 24.948H23.9414C24.5104 24.948 24.9714 24.488 24.9714 23.918V8.03002C24.9716 7.89468 24.945 7.76063 24.8933 7.63555C24.8416 7.51047 24.7658 7.39681 24.6701 7.30106C24.5745 7.20531 24.4609 7.12935 24.3358 7.07752C24.2108 7.0257 24.0768 6.99902 23.9414 6.99902H8.05344C7.91818 6.99902 7.78424 7.02567 7.65927 7.07743C7.53431 7.12919 7.42076 7.20506 7.32512 7.3007C7.22947 7.39635 7.1536 7.50989 7.10184 7.63486C7.05008 7.75982 7.02344 7.89376 7.02344 8.02902V8.03002ZM21.8264 22.834H10.1464C10.0111 22.8342 9.87705 22.8076 9.75197 22.7559C9.62689 22.7042 9.51322 22.6284 9.41747 22.5327C9.32172 22.437 9.24576 22.3234 9.19394 22.1984C9.14211 22.0734 9.11544 21.9394 9.11544 21.804V10.124C9.11531 9.98859 9.14188 9.85447 9.19365 9.72932C9.24542 9.60417 9.32135 9.49047 9.41712 9.3947C9.51288 9.29894 9.62659 9.223 9.75174 9.17124C9.87688 9.11947 10.011 9.09289 10.1464 9.09302H21.8264C22.3964 9.09302 22.8564 9.55402 22.8564 10.123V21.803C22.8564 22.373 22.3964 22.834 21.8264 22.834Z" fill="white"/>
<path d="M14.7334 19.3091H21.3404V21.3391H14.7334V19.3091Z" fill="white"/>
</svg>
