<svg width="32" height="32" viewBox="0 0 32 32" fill="none" xmlns="http://www.w3.org/2000/svg">
<path d="M16 32C24.8366 32 32 24.8366 32 16C32 7.16344 24.8366 0 16 0C7.16344 0 0 7.16344 0 16C0 24.8366 7.16344 32 16 32Z" fill="#050708"/>
<path d="M15.855 5.01411C15.9644 4.99287 16.0772 4.99564 16.1854 5.02223C16.2937 5.04881 16.3949 5.09859 16.482 5.16811L25.184 11.6331C25.384 11.7831 25.509 12.0331 25.499 12.2871V19.7111C25.5027 19.8446 25.473 19.9769 25.4125 20.096C25.3521 20.2151 25.2629 20.3172 25.153 20.3931L16.482 26.8351C16.3393 26.9464 16.1624 27.0047 15.9815 27.0001C15.8006 26.9956 15.6269 26.9284 15.49 26.8101C12.61 24.6701 9.73101 22.5301 6.85101 20.3921C6.74217 20.3154 6.65351 20.2135 6.59257 20.0951C6.53162 19.9767 6.50021 19.8453 6.50101 19.7121V12.2921C6.49987 12.1592 6.53082 12.028 6.59123 11.9096C6.65164 11.7912 6.73973 11.6892 6.84801 11.6121L15.489 5.19211C15.5958 5.10564 15.721 5.04476 15.855 5.01411ZM15.751 25.0281C15.746 25.1441 15.744 25.2611 15.743 25.3771L15.745 26.0741C15.895 26.0761 16.045 26.0771 16.195 26.0741V25.0501C16.0474 25.0362 15.8993 25.0289 15.751 25.0281ZM14.041 24.1101L13.789 24.1111C13.969 24.4261 14.14 24.7461 14.324 25.0581C14.474 25.0581 14.624 25.0581 14.776 25.0481C14.656 24.7161 14.449 24.4271 14.294 24.1121C14.1257 24.1096 13.9573 24.1096 13.789 24.1121L14.041 24.1101ZM16.768 24.5901C16.7652 24.7428 16.7662 24.8955 16.771 25.0481H17.191C17.21 24.8991 17.211 24.7501 17.208 24.6001C17.0615 24.5913 16.9147 24.5879 16.768 24.5901ZM16.293 22.1331C15.663 22.1371 15.032 22.1291 14.401 22.1381C14.399 22.2814 14.399 22.4248 14.401 22.5681C14.959 22.5811 15.518 22.5711 16.077 22.5741V23.6031C15.961 23.6041 15.847 23.6001 15.733 23.6121C15.7 23.7481 15.717 23.8891 15.715 24.0281C15.917 24.0341 16.119 24.0331 16.321 24.0291C16.382 23.9601 16.445 23.8931 16.508 23.8251C16.508 23.3351 16.507 22.8451 16.509 22.3551C16.4372 22.2809 16.3652 22.2069 16.293 22.1331ZM19.637 22.7091C19.494 22.6391 19.342 22.4011 19.175 22.5441C18.678 22.8751 18.166 23.1841 17.675 23.5241C17.677 23.6661 17.678 23.8081 17.688 23.9491C18.148 23.9531 18.607 23.9551 19.066 23.9481C19.068 23.7981 19.068 23.6481 19.067 23.4981C18.9544 23.4955 18.8417 23.4942 18.729 23.4941L18.517 23.4961C18.882 23.2381 19.264 23.0071 19.637 22.7621V22.7091ZM13.095 22.9571L12.2 22.9601C12.197 23.1101 12.197 23.2601 12.2 23.4121C12.796 23.4151 13.393 23.4181 13.99 23.4101V22.9611C13.393 22.9541 12.796 22.9571 12.2 22.9601L13.095 22.9571ZM11.592 22.3001L11.371 22.3011C11.369 22.4511 11.368 22.6021 11.371 22.7531C11.518 22.7551 11.666 22.7551 11.814 22.7531C11.816 22.6031 11.816 22.4531 11.814 22.3031C11.6664 22.2999 11.5187 22.2992 11.371 22.3011L11.592 22.3001ZM20.185 20.6861C20.179 20.9321 20.181 21.1781 20.182 21.4241C20.422 21.7941 20.657 22.1671 20.9 22.5351C21.102 22.2251 21.3 21.9091 21.505 21.6001C21.543 21.5321 21.604 21.4661 21.599 21.3821C21.604 21.1571 21.601 20.9321 21.595 20.7071C21.409 21.0101 21.21 21.3041 21.025 21.6071C20.983 21.6651 20.952 21.7391 20.885 21.7691C20.643 21.4131 20.42 21.0451 20.185 20.6861ZM18.75 20.1331C18.469 20.1341 18.188 20.1311 17.906 20.1361C17.7417 20.7504 17.5704 21.3628 17.392 21.9731L17.826 21.9761L18.214 20.5551L18.45 20.5671C18.576 21.0361 18.71 21.5021 18.833 21.9721C18.977 21.9751 19.123 21.9751 19.267 21.9751L18.75 20.1331ZM9.99801 21.1631L9.60501 21.1711V21.6151C9.99601 21.6221 10.388 21.6321 10.779 21.6121C10.798 21.4651 10.789 21.3161 10.786 21.1671C10.392 21.1651 9.99801 21.1581 9.60501 21.1711L9.99801 21.1631ZM13.148 20.1151C12.605 20.4521 12.071 20.8041 11.536 21.1541C11.534 21.2981 11.534 21.4421 11.538 21.5861C12.381 21.5951 13.224 21.5911 14.067 21.5881C14.071 21.4361 14.071 21.2841 14.068 21.1321C13.498 21.1241 12.93 21.1361 12.361 21.1251C12.754 20.8861 13.134 20.6281 13.523 20.3821C13.399 20.2911 13.273 20.2041 13.148 20.1151ZM15.048 19.7811L14.824 19.7821C14.818 20.3441 14.824 20.9071 14.821 21.4691L14.956 21.4941C15.062 21.4841 15.168 21.4791 15.274 21.4741C15.271 20.9101 15.275 20.3461 15.271 19.7821C15.122 19.7805 14.973 19.7805 14.824 19.7821L15.048 19.7811ZM16.426 20.1971C16.271 20.2181 16.114 20.2271 15.957 20.2271C16.134 20.5371 16.309 20.8501 16.482 21.1641L16.922 21.1611C16.827 20.8111 16.61 20.5051 16.426 20.1971ZM22.385 20.4101L22.155 20.4141C22.152 20.5621 22.152 20.7101 22.155 20.8581C22.308 20.8651 22.462 20.8651 22.615 20.8611V20.4121C22.4617 20.4087 22.3083 20.4093 22.155 20.4141L22.385 20.4101ZM11.597 18.6181C11.352 18.9801 11.13 19.3581 10.883 19.7171C10.652 19.3531 10.418 18.9901 10.184 18.6271C10.1785 18.8761 10.1775 19.1251 10.181 19.3741C10.424 19.7281 10.649 20.0941 10.881 20.4541C11.132 20.0951 11.356 19.7171 11.601 19.3531C11.599 19.1081 11.602 18.8631 11.597 18.6181ZM12.747 19.0931C12.737 19.2481 12.738 19.4031 12.744 19.5581C12.892 19.5601 13.04 19.5591 13.187 19.5581C13.1904 19.4068 13.1904 19.2554 13.187 19.1041C13.0406 19.0936 12.8938 19.09 12.747 19.0931ZM18.863 17.8691L18.639 18.0791C18.639 18.2791 18.638 18.4781 18.642 18.6771C18.785 18.6771 18.929 18.6771 19.072 18.6751C19.075 18.5521 19.076 18.4291 19.075 18.3051L20.079 18.3061C20.074 18.7111 20.077 19.1151 20.078 19.5191C20.223 19.5231 20.368 19.5241 20.514 19.5231V18.0801L20.297 17.8701C19.819 17.8691 19.341 17.8721 18.863 17.8681V17.8691ZM7.66601 17.5821H7.38401L7.17201 17.7931L7.17001 18.7741L7.17601 19.2641C7.21301 19.3531 7.29601 19.4301 7.37801 19.4781C7.86801 19.4921 8.35901 19.4781 8.85001 19.4841H9.05501L9.26101 19.4831C9.26201 19.3411 9.26201 19.1991 9.25901 19.0571C8.70701 19.0511 8.15401 19.0561 7.60101 19.0541C7.59701 18.7101 7.60101 18.3671 7.59801 18.0231L7.94801 18.0181C7.94929 17.8738 7.94896 17.7294 7.94701 17.5851C7.75936 17.582 7.57167 17.5813 7.38401 17.5831L7.66601 17.5821ZM17.32 17.9621C16.788 18.3221 16.24 18.6551 15.707 19.0151C15.709 19.1611 15.709 19.3061 15.73 19.4501C16.57 19.4501 17.411 19.4541 18.251 19.4491C18.2551 19.2918 18.2551 19.1344 18.251 18.9771C17.691 18.9701 17.129 18.9811 16.567 18.9711C16.942 18.7181 17.333 18.4891 17.701 18.2261C17.572 18.1401 17.447 18.0501 17.321 17.9611L17.32 17.9621ZM23.309 17.8921C22.774 18.2351 22.239 18.5771 21.709 18.9281C21.707 19.0741 21.707 19.2211 21.709 19.3681C22.549 19.3711 23.388 19.3711 24.227 19.3681C24.229 19.2161 24.229 19.0621 24.227 18.9101C23.662 18.9061 23.097 18.9131 22.533 18.9071L23.686 18.1601C23.562 18.0701 23.436 17.9781 23.309 17.8921ZM13.359 15.9091L13.137 15.9101C13.134 16.7651 13.134 17.6191 13.137 18.4731C13.287 18.4771 13.437 18.4771 13.586 18.4761C13.604 17.9061 13.559 17.3341 13.614 16.7681C13.918 17.2891 14.251 17.7941 14.569 18.3081L14.722 18.3051C14.698 18.0721 14.789 17.8041 14.636 17.6041C14.283 17.0401 13.926 16.4791 13.579 15.9111C13.4317 15.9084 13.2843 15.9084 13.137 15.9111L13.359 15.9091ZM21.542 16.8331C21.396 16.8101 21.247 16.8201 21.099 16.8231C21.0941 17.3518 21.0941 17.8805 21.099 18.4091C21.248 18.4121 21.397 18.4131 21.546 18.4091C21.548 17.8841 21.556 17.3581 21.542 16.8331ZM11.632 17.4281C11.117 17.4441 10.598 17.3991 10.084 17.4561C10.083 17.6051 10.083 17.7531 10.086 17.9021C10.735 17.9071 11.382 17.9021 12.032 17.9041V17.4461C11.8991 17.4323 11.7656 17.4263 11.632 17.4281ZM24.56 15.4061C24.0734 15.3969 23.5866 15.3963 23.1 15.4041L22.903 15.6081C22.903 15.8021 22.903 15.9981 22.905 16.1921C23.048 16.1931 23.191 16.1921 23.334 16.1901L23.337 15.8351C23.677 15.8381 24.017 15.8311 24.357 15.8401L24.356 17.7481L24.771 17.7491C24.764 17.6111 24.801 17.4751 24.793 17.3371C24.798 17.1671 24.79 16.9981 24.795 16.8291C24.792 16.4771 24.795 16.1241 24.795 15.7721C24.821 15.6081 24.683 15.4821 24.56 15.4061ZM17.238 17.1321L17.021 17.1331V17.5881C17.166 17.5901 17.31 17.5901 17.454 17.5881C17.456 17.4361 17.456 17.2841 17.454 17.1341C17.3097 17.1327 17.1653 17.1323 17.021 17.1331L17.238 17.1321ZM15.328 16.2361L15.103 16.2391C15.099 16.6111 15.1 16.9841 15.102 17.3561C15.252 17.3601 15.402 17.3601 15.553 17.3581C15.554 16.9841 15.555 16.6111 15.553 16.2381C15.403 16.2351 15.253 16.2351 15.103 16.2381L15.328 16.2361ZM19.94 16.7541L19.254 16.7581C19.249 16.9081 19.249 17.0581 19.252 17.2081C19.639 17.2531 20.03 17.2181 20.419 17.2301C20.497 17.2221 20.6 17.2571 20.644 17.1681C20.6542 17.0306 20.6485 16.8923 20.627 16.7561C20.169 16.7561 19.712 16.7521 19.254 16.7581L19.94 16.7541ZM18.044 16.7371L17.823 16.7381C17.821 16.8901 17.821 17.0421 17.823 17.1931C17.97 17.1941 18.117 17.1951 18.265 17.1941C18.2677 17.0421 18.2677 16.8901 18.265 16.7381C18.1177 16.7367 17.9703 16.7367 17.823 16.7381L18.044 16.7371ZM9.69401 15.4221H9.24201L9.24101 16.8701H9.69501V15.4221H9.69401ZM11.329 14.8471L10.91 14.8491C10.734 15.4621 10.563 16.0771 10.39 16.6911L10.824 16.6931C10.939 16.2201 11.09 15.7571 11.196 15.2831L11.436 15.2651C11.583 15.7371 11.694 16.2191 11.838 16.6931L12.258 16.6921C12.098 16.0751 11.918 15.4641 11.748 14.8501C11.468 14.8461 11.19 14.8481 10.91 14.8501L11.329 14.8471ZM16.725 14.7111L16.656 14.7131H14.941C14.9396 14.8591 14.9396 15.0051 14.941 15.1511C15.498 15.1661 16.058 15.1241 16.613 15.1751V16.1841L16.257 16.1881V16.6281C16.447 16.6301 16.636 16.6301 16.825 16.6301L17.045 16.3901V15.1081C17.072 14.8991 16.865 14.6801 16.656 14.7131L16.725 14.7111ZM7.82301 15.8261C7.81801 15.9731 7.81801 16.1201 7.81901 16.2671C7.96901 16.2701 8.11901 16.2691 8.26801 16.2671V15.8371C8.11989 15.8273 7.97143 15.8237 7.82301 15.8261ZM18.463 13.9811H18.178C18.097 14.0881 17.94 14.1681 17.96 14.3241C17.958 14.7371 17.958 15.1501 17.96 15.5641C17.941 15.7181 18.095 15.7991 18.175 15.9051C18.804 15.9031 19.433 15.9071 20.061 15.9031C20.065 15.7571 20.065 15.6101 20.064 15.4631C19.505 15.4571 18.947 15.4631 18.389 15.4591V14.4241L18.749 14.4211C18.7516 14.2755 18.7509 14.1297 18.747 13.9841C18.557 13.9801 18.367 13.9821 18.177 13.9811H18.463ZM13.63 14.7131H12.537C12.531 14.8671 12.532 15.0211 12.538 15.1751H13.63C13.633 15.0211 13.633 14.8671 13.63 14.7131ZM22.523 14.1821L21.547 14.1861C21.545 14.3361 21.546 14.4881 21.547 14.6381C22.197 14.6471 22.847 14.6411 23.497 14.6411C23.499 14.4891 23.499 14.3361 23.498 14.1831C22.848 14.1831 22.198 14.1771 21.548 14.1861L22.523 14.1821ZM20.308 14.1821L20.077 14.1861C20.075 14.3361 20.075 14.4861 20.077 14.6361C20.231 14.6421 20.385 14.6421 20.539 14.6361C20.541 14.4861 20.542 14.3361 20.539 14.1861C20.3851 14.1804 20.231 14.1804 20.077 14.1861L20.308 14.1821ZM8.29201 13.2421L7.17201 13.2451C7.16901 13.3971 7.16901 13.5501 7.17201 13.7021C7.64001 13.7071 8.10901 13.7021 8.57801 13.7041C8.39801 13.8311 8.21101 13.9461 8.02601 14.0641C8.15001 14.1541 8.26001 14.2771 8.40501 14.3311C8.74801 14.1241 9.08201 13.9011 9.41501 13.6781L9.41401 13.2461C8.66601 13.2391 7.91801 13.2411 7.17101 13.2451L8.29201 13.2421ZM11.39 12.8731C11.031 13.1191 10.658 13.3441 10.308 13.6031C10.655 13.8551 11.02 14.0791 11.372 14.3221C11.616 14.3221 11.86 14.3241 12.104 14.3191C11.742 14.0841 11.384 13.8401 11.02 13.6071C11.374 13.3541 11.75 13.1331 12.102 12.8771C11.864 12.8731 11.628 12.8771 11.39 12.8731ZM14.534 13.6861H13.564C13.564 13.8361 13.564 13.9871 13.566 14.1391C14.21 14.1391 14.853 14.1401 15.498 14.1381C15.518 13.9881 15.52 13.8381 15.504 13.6881C14.858 13.6821 14.211 13.6881 13.564 13.6851L14.534 13.6861ZM16.159 13.6861L15.926 13.6881V14.1341C16.081 14.1361 16.236 14.1361 16.392 14.1321V13.6901C16.2367 13.685 16.0813 13.6844 15.926 13.6881L16.159 13.6861ZM17.238 12.3471H17.021V13.7971H17.455C17.455 13.3141 17.458 12.8311 17.455 12.3481C17.3103 12.3468 17.1657 12.3468 17.021 12.3481L17.238 12.3471ZM22.747 13.1801L22.522 13.1831C22.519 13.3341 22.52 13.4861 22.522 13.6371C22.672 13.6411 22.822 13.6411 22.97 13.6371C22.9744 13.4855 22.9747 13.3338 22.971 13.1821C22.821 13.1791 22.671 13.1801 22.522 13.1821L22.747 13.1801ZM21.243 11.4031C20.963 11.3571 20.68 11.4011 20.399 11.4031C20.228 12.0151 20.06 12.6271 19.882 13.2351C20.027 13.2361 20.172 13.2371 20.317 13.2361C20.439 12.7621 20.581 12.2941 20.698 11.8191L20.936 11.8161C21.078 12.2871 21.196 12.7651 21.333 13.2361H21.765L21.243 11.4031ZM18.763 12.4801L18.544 12.4811C18.5422 12.6324 18.5422 12.7838 18.544 12.9351H18.981C18.983 12.7851 18.983 12.6341 18.982 12.4831C18.836 12.4794 18.69 12.4788 18.544 12.4811L18.763 12.4801ZM24.083 11.9681C23.916 11.9681 23.749 11.9681 23.583 11.9711L24.115 12.9111C24.266 12.9111 24.419 12.9111 24.57 12.9051C24.447 12.5731 24.247 12.2791 24.082 11.9681H24.083ZM15.863 10.5931L15.648 10.5961C15.641 11.1601 15.646 11.7261 15.645 12.2901C15.304 12.2821 14.963 12.3101 14.624 12.2711C14.6261 12.1578 14.6254 12.0444 14.622 11.9311H14.21C14.21 12.1291 14.192 12.3291 14.217 12.5261C14.275 12.5941 14.342 12.6541 14.407 12.7181C14.899 12.7151 15.391 12.7201 15.884 12.7151C15.949 12.6491 16.015 12.5841 16.082 12.5201C16.077 11.8781 16.085 11.2361 16.078 10.5951C15.9347 10.5929 15.7913 10.5929 15.648 10.5951L15.863 10.5931ZM12.468 11.6541H12.251C12.241 12.0081 12.246 12.3611 12.247 12.7141H12.687C12.687 12.3611 12.689 12.0081 12.685 11.6561C12.54 11.6541 12.395 11.6541 12.251 11.6551L12.468 11.6541ZM22.745 11.0351L22.522 11.0381C22.5176 11.5224 22.5176 12.0068 22.522 12.4911C22.671 12.4931 22.82 12.4941 22.969 12.4911C22.974 12.0071 22.974 11.5221 22.969 11.0381C22.82 11.0345 22.671 11.0345 22.522 11.0381L22.745 11.0351ZM9.34301 11.6321L8.37001 11.6361C8.36801 11.7861 8.36801 11.9391 8.37001 12.0911C9.01901 12.0951 9.66701 12.0961 10.316 12.0911C10.3195 11.9395 10.3195 11.7878 10.316 11.6361C9.66735 11.6312 9.01866 11.6312 8.37001 11.6361L9.34301 11.6321ZM11.063 11.6361H10.621V12.0921C10.769 12.0931 10.916 12.0941 11.064 12.0921C11.0672 11.9401 11.0672 11.7881 11.064 11.6361H11.063ZM14.273 9.95411C14.032 10.3191 13.8 10.6921 13.561 11.0591C13.321 10.6971 13.091 10.3271 12.854 9.96211C12.853 10.2081 12.835 10.4561 12.86 10.7021C12.934 10.8251 13.01 10.9481 13.088 11.0701L13.559 11.7971C13.795 11.4261 14.049 11.0641 14.269 10.6821C14.289 10.4401 14.273 10.1961 14.273 9.95411ZM17.202 8.85811L16.986 8.86011C16.981 9.71411 16.983 10.5681 16.985 11.4221C17.135 11.4251 17.285 11.4251 17.435 11.4221L17.438 9.70611C17.768 10.2141 18.076 10.7381 18.41 11.2441L18.578 11.2741C18.582 11.0871 18.581 10.9001 18.581 10.7141C18.188 10.0991 17.808 9.47611 17.418 8.85911C17.274 8.85669 17.13 8.85702 16.986 8.86011L17.202 8.85811ZM11.9 9.33811L11.578 9.35111C11.4573 9.34961 11.3367 9.34961 11.216 9.35111C11.214 9.50111 11.215 9.65211 11.218 9.80311C11.379 9.80511 11.541 9.80311 11.703 9.81211C11.383 10.0021 11.074 10.2091 10.758 10.4041C10.874 10.5011 10.983 10.6171 11.125 10.6721C11.608 10.3941 12.065 10.0721 12.542 9.78111C12.544 9.63911 12.544 9.49611 12.543 9.35411C12.2217 9.33273 11.8994 9.33172 11.578 9.35111L11.9 9.33811ZM20.478 10.0211L19.411 10.0231V10.4641C20.123 10.4661 20.833 10.4651 21.544 10.4641V10.0241C20.834 10.0201 20.122 10.0201 19.411 10.0241L20.478 10.0211ZM15.247 9.51711L15.025 9.52011C15.022 9.67111 15.022 9.82211 15.025 9.97311C15.173 9.97711 15.321 9.97711 15.469 9.97311C15.472 9.82111 15.472 9.67111 15.469 9.52011C15.321 9.51598 15.173 9.51598 15.025 9.52011L15.247 9.51711ZM18.999 9.20411L18.769 9.20711L18.77 9.64911C18.923 9.65211 19.076 9.65211 19.229 9.64811V9.20811C19.0757 9.20391 18.9223 9.20358 18.769 9.20711L18.999 9.20411ZM14.089 7.36511L13.859 7.37011C13.869 8.03211 13.829 8.69711 13.879 9.35811C14.026 9.35811 14.173 9.35811 14.32 9.35511C14.327 8.69311 14.324 8.03111 14.322 7.36811C14.1674 7.36383 14.0126 7.36449 13.858 7.37011L14.089 7.36511ZM15.791 8.30511C15.625 8.30511 15.459 8.30511 15.293 8.30811C15.465 8.62411 15.639 8.93811 15.82 9.24811C15.972 9.24811 16.125 9.24811 16.277 9.24111C16.149 8.91111 15.949 8.61911 15.791 8.30511ZM18.403 8.07912L17.786 8.08211C17.784 8.23411 17.784 8.38711 17.786 8.53911C18.197 8.54611 18.608 8.54411 19.019 8.53911C19.0209 8.38645 19.0209 8.23378 19.019 8.08112C18.608 8.07732 18.197 8.07765 17.786 8.08211L18.403 8.07912ZM15.97 6.57711L15.284 6.57811C15.15 6.56011 15.072 6.69811 14.996 6.78511C14.969 6.97511 14.989 7.17011 14.988 7.36211H15.414L15.417 7.00211H16.423C16.453 7.35911 16.422 7.71711 16.422 8.07511L16.455 8.20911C16.59 8.21911 16.727 8.21211 16.863 8.21011C16.861 7.73111 16.861 7.25211 16.863 6.77311L16.729 6.64011L16.655 6.58311C16.199 6.57111 15.741 6.58111 15.285 6.57811L15.97 6.57711Z" fill="white"/>
</svg>
