<svg width="32" height="32" viewBox="0 0 32 32" fill="none" xmlns="http://www.w3.org/2000/svg">
<path d="M16 32C24.8366 32 32 24.8366 32 16C32 7.16344 24.8366 0 16 0C7.16344 0 0 7.16344 0 16C0 24.8366 7.16344 32 16 32Z" fill="#418BCA"/>
<path d="M20.265 8H25L16 26L7 8H11.704L16.031 17.113L20.265 8ZM16 12.959C15.212 12.959 14.573 12.303 14.573 11.494C14.573 10.685 15.212 10.028 16 10.028C16.788 10.028 17.427 10.685 17.427 11.494C17.427 12.303 16.787 12.959 16 12.959ZM22.465 16.999C23.253 16.999 23.892 17.656 23.891 18.465C23.891 19.275 23.253 19.93 22.465 19.93C21.677 19.93 21.038 19.274 21.038 18.465C21.038 17.656 21.677 17 22.465 17V16.999Z" fill="white"/>
</svg>
