<svg width="32" height="32" viewBox="0 0 32 32" fill="none" xmlns="http://www.w3.org/2000/svg">
<path d="M16 32C24.8366 32 32 24.8366 32 16C32 7.16344 24.8366 0 16 0C7.16344 0 0 7.16344 0 16C0 24.8366 7.16344 32 16 32Z" fill="#00A79D"/>
<path d="M15.344 18.1502L15.499 18.9072L15.784 18.5282L16.064 19.9492L16.344 18.5292L16.629 18.9072L16.784 18.1502H15.344ZM16.823 16.9462V14.8142C16.823 14.3982 16.07 13.3462 16.07 13.3462C16.07 13.3462 15.31 14.3982 15.31 14.8142V16.9462C14.8173 17.1054 14.3878 17.4167 14.083 17.8352H18.045C17.7415 17.4175 17.3138 17.1064 16.823 16.9462ZM25.196 19.1122C25.1957 18.965 25.1665 18.8194 25.1099 18.6835C25.0533 18.5477 24.9705 18.4243 24.8662 18.3205C24.7619 18.2166 24.6382 18.1344 24.5021 18.0784C24.366 18.0224 24.2202 17.9938 24.073 17.9942C23.453 17.9942 22.95 18.4942 22.95 19.1122C22.9504 19.2593 22.9798 19.4048 23.0364 19.5406C23.0931 19.6763 23.1759 19.7996 23.2802 19.9033C23.3844 20.007 23.5081 20.0892 23.6442 20.1451C23.7802 20.201 23.9259 20.2296 24.073 20.2292C24.693 20.2292 25.196 19.7292 25.196 19.1122ZM23.416 19.1122C23.4158 18.9825 23.4541 18.8557 23.526 18.7479C23.5979 18.64 23.7003 18.5559 23.82 18.5062C23.9402 18.4563 24.0726 18.443 24.2003 18.4681C24.3281 18.4932 24.4456 18.5555 24.538 18.6472C24.63 18.7384 24.6927 18.8549 24.7181 18.9819C24.7436 19.1089 24.7307 19.2406 24.681 19.3602C24.6229 19.5006 24.518 19.6166 24.3841 19.6884C24.2502 19.7603 24.0956 19.7836 23.9465 19.7543C23.7974 19.7251 23.663 19.6452 23.5661 19.5282C23.4692 19.4111 23.4158 19.2641 23.415 19.1122H23.416Z" fill="white"/>
<path d="M16.064 4C9.405 4.008 4.008 9.375 4 16C4 20.574 6.825 24.254 10.573 24.563C12.853 24.75 15.058 23.942 16.51 23.229C17.3766 22.8747 18.1834 22.389 18.902 21.789L19.058 21.66C19.175 21.559 19.284 21.462 19.388 21.363C20.749 20.081 22.37 17.773 22.37 14.063V13.653L16.116 9.386L9.861 13.654V14.061C9.861 17.773 11.481 20.079 12.842 21.361C13.001 21.511 13.168 21.659 13.342 21.8C13.912 21.595 14.482 21.384 15.037 21.139C13.617 20.221 11.558 18.237 11.422 14.463L16.116 11.259L20.809 14.463C20.699 17.513 19.319 19.386 18.112 20.444L17.962 20.559C17.925 20.587 14.302 23.321 10.702 23.023C8.45 22.837 6.624 21.017 5.897 18.481C6.09034 18.3448 6.24198 18.1576 6.33492 17.9401C6.42787 17.7227 6.45846 17.4837 6.42328 17.2498C6.38809 17.016 6.28852 16.7965 6.1357 16.6161C5.98288 16.4356 5.78285 16.3012 5.558 16.228V16C5.558 14.531 5.87 13.078 6.475 11.739C7.14888 12.0147 7.89908 12.0405 8.59033 11.8118C9.28158 11.5832 9.86841 11.1151 10.245 10.492C10.5156 10.0437 10.665 9.53268 10.6785 9.00919C10.692 8.48569 10.5692 7.96768 10.322 7.506C10.2871 7.4433 10.2504 7.3816 10.212 7.321C11.3727 6.54587 12.6758 6.009 14.0457 5.74155C15.4156 5.4741 16.825 5.48139 18.192 5.763C19.5574 6.04309 20.8534 6.59235 22.0042 7.3787C23.1551 8.16505 24.1378 9.17276 24.895 10.343C24.195 10.933 23.938 11.896 24.255 12.753C24.4103 13.1724 24.6905 13.5341 25.0578 13.7893C25.4251 14.0444 25.8618 14.1808 26.309 14.18H26.41C26.52 14.78 26.577 15.39 26.58 16C26.58 21.421 22.243 25.705 16.042 26.458C11.083 27.064 7.902 25.016 7.902 25.016C9.759 27.052 12.353 28 16.067 28C22.678 27.929 28 22.577 28 16C28 9.422 22.677 4.07 16.064 4ZM5.951 17.614C5.92181 17.7493 5.85808 17.8747 5.766 17.978C5.67758 17.5749 5.61644 17.1663 5.583 16.755C5.72574 16.8427 5.83779 16.9725 5.90369 17.1265C5.9696 17.2805 5.98613 17.4512 5.951 17.615V17.614ZM9.91 7.722C10.1588 8.18682 10.2581 8.71714 10.1942 9.24049C10.1303 9.76384 9.90637 10.2547 9.553 10.646C9.19831 11.0386 8.732 11.3134 8.21665 11.4333C7.70131 11.5532 7.16161 11.5127 6.67 11.317C7.41684 9.84429 8.49926 8.56765 9.83 7.59C9.854 7.633 9.886 7.678 9.911 7.723H9.91V7.722ZM26.309 13.716C25.599 13.716 24.961 13.283 24.703 12.626C24.577 12.3043 24.5515 11.952 24.6301 11.6156C24.7087 11.2792 24.8875 10.9746 25.143 10.742C25.686 11.667 26.083 12.67 26.318 13.715H26.308L26.309 13.716Z" fill="white"/>
</svg>
