<svg width="32" height="32" viewBox="0 0 32 32" fill="none" xmlns="http://www.w3.org/2000/svg">
<path d="M16 32C24.8366 32 32 24.8366 32 16C32 7.16344 24.8366 0 16 0C7.16344 0 0 7.16344 0 16C0 24.8366 7.16344 32 16 32Z" fill="#56C9E9"/>
<path d="M23.8799 9.44263C23.1259 9.16463 21.4599 9.58063 21.3799 9.69963C21.6979 9.75963 21.7969 9.79963 22.2729 9.87863C22.7829 9.97163 23.2729 10.1526 23.7209 10.4146C24.1969 10.6916 24.3949 10.3146 24.3949 10.3146C24.4749 10.1366 24.2569 9.58063 23.8799 9.44263ZM10.3329 6.14963C10.2111 5.95736 10.0785 5.77207 9.93592 5.59463C9.55892 5.19763 8.82592 4.99963 8.42792 5.19763C8.20992 5.29763 8.11092 5.43563 8.28992 5.67363C8.50692 5.88863 8.78292 6.03363 9.08292 6.09063C9.26092 6.13063 10.0549 6.30863 10.2529 6.34763C10.4529 6.34763 10.3329 6.14963 10.3329 6.14963ZM11.1259 8.15263C11.1101 8.11721 11.0815 8.08903 11.0459 8.07363C10.5566 8.13526 10.0607 8.03066 9.63792 7.77663C9.54225 7.7091 9.42802 7.67284 9.31092 7.67284C9.19382 7.67284 9.07959 7.7091 8.98392 7.77663C8.72592 7.99463 9.10292 8.25263 9.12292 8.25263C9.28092 8.35163 9.45992 8.31263 9.61892 8.35163C10.0072 8.46414 10.4059 8.53718 10.8089 8.56963C11.1459 8.56963 11.2249 8.44963 11.1259 8.15263ZM24.2569 7.41963C24.2969 7.29963 24.2569 6.90363 23.5419 7.00263C22.9469 7.10263 22.5309 7.26063 22.5509 7.33963C22.5709 7.41963 23.2249 7.53863 23.3639 7.55763C23.9189 7.65763 24.2369 7.49763 24.2569 7.41963ZM17.0369 4.10663C16.9674 4.04231 16.8772 4.00494 16.7826 4.00127C16.688 3.99761 16.5952 4.02788 16.5209 4.08663C15.9259 4.46363 16.3619 5.75263 16.4209 5.75263C16.4809 5.75263 16.5409 5.29663 17.1359 4.62263C17.1641 4.58248 17.1839 4.53706 17.1942 4.48908C17.2044 4.4411 17.2049 4.39155 17.1956 4.34338C17.1862 4.29521 17.1673 4.24942 17.1399 4.20874C17.1124 4.16807 17.0771 4.13334 17.0359 4.10663H17.0369ZM15.1459 7.93763C15.1459 7.88763 15.0959 7.88763 15.1459 7.93763V7.93763Z" fill="white"/>
<path d="M14.5767 7.29993C14.1997 7.10193 14.5167 6.12993 14.3787 5.77293C14.3656 5.71789 14.3392 5.66693 14.3017 5.62458C14.2642 5.58224 14.2168 5.54982 14.1637 5.53022C14.1107 5.51062 14.0536 5.50445 13.9976 5.51225C13.9416 5.52005 13.8883 5.54158 13.8427 5.57493C13.7912 5.59587 13.7449 5.62786 13.7071 5.66862C13.6694 5.70938 13.641 5.75793 13.624 5.81085C13.6071 5.86377 13.6019 5.91977 13.6089 5.9749C13.6159 6.03003 13.635 6.08295 13.6647 6.12993C13.7447 6.28893 14.2197 7.20093 13.8427 7.35993C13.7037 7.41993 13.4067 7.29993 13.2087 7.18093C12.4947 6.86393 12.3757 5.77293 12.1567 5.63393C12.0554 5.55922 11.932 5.52059 11.8062 5.52422C11.6804 5.52784 11.5595 5.57351 11.4627 5.65393C11.365 5.70895 11.2909 5.79786 11.2544 5.90382C11.218 6.00979 11.2216 6.12546 11.2647 6.22893C11.3637 6.40793 11.7407 6.50693 11.8197 7.12193L12.0577 7.29993C12.1777 7.39993 12.2957 7.49893 12.4347 7.59793C12.7917 7.95493 12.7127 8.01493 13.4467 7.89593C13.6847 7.81593 13.6447 7.49893 13.8827 7.41993C14.0306 7.40036 14.1812 7.42073 14.3187 7.47893C14.5377 7.59493 14.7217 7.76593 14.8547 7.97493C15.1717 8.35193 15.3107 8.82793 15.5887 9.24493C15.6847 9.41893 15.8047 9.57893 15.9457 9.71993L16.2427 9.95793C16.6597 10.2359 17.0367 10.2159 17.3337 9.89793C17.4145 9.84012 17.4826 9.76639 17.5339 9.68126C17.5851 9.59613 17.6184 9.50141 17.6317 9.40293C17.7898 8.92487 17.9906 8.46201 18.2317 8.01993C18.2337 8.01812 18.2361 8.01674 18.2386 8.01588C18.2412 8.01502 18.2439 8.0147 18.2467 8.01493C18.2476 8.00462 18.2521 7.99496 18.2594 7.98765C18.2667 7.98033 18.2763 7.97583 18.2867 7.97493C18.3417 7.93624 18.4074 7.91548 18.4747 7.91548C18.5419 7.91548 18.6076 7.93624 18.6627 7.97493C18.7227 8.05493 18.6027 8.78793 18.6627 8.86693C18.7027 9.02693 18.9997 8.92693 19.2577 8.90693C19.2821 8.87645 19.3022 8.84281 19.3177 8.80693C19.7537 8.66893 20.1707 8.45093 20.6067 8.33193H20.8447C21.0877 8.29193 21.3347 8.29193 21.5787 8.33193C21.8167 8.33193 21.8957 8.47093 21.8757 8.68893C22.2727 8.66893 22.6697 8.66893 23.0657 8.62893C23.2447 8.60893 23.5227 8.60893 23.5027 8.27193C23.4627 8.07393 23.1457 7.51893 21.6977 7.85593C21.5587 7.89593 20.7657 8.13393 20.4877 7.99493C20.9107 7.72093 21.3477 7.46993 21.7967 7.24093C21.9947 7.08193 22.1537 6.86393 22.0347 6.62593C21.9157 6.38793 21.6777 6.40793 21.4597 6.48693C21.0487 6.61461 20.6745 6.83926 20.3687 7.14193C20.1677 7.34593 19.9487 7.53193 19.7137 7.69693C19.1387 7.97493 19.1387 7.97493 18.9997 7.93493C18.8217 7.85493 18.6227 7.71693 18.7617 7.51893C18.8427 7.38993 18.9027 7.24893 18.9407 7.10193C19.0007 6.84393 18.9207 6.76493 18.7417 6.76493C18.3847 6.78493 18.2657 7.29993 18.2067 7.37993C18.1687 7.45793 18.1217 7.52993 18.0677 7.59793C18.0216 7.64339 17.9638 7.675 17.9006 7.68915C17.8375 7.70329 17.7717 7.6994 17.7107 7.67793C17.5917 7.65793 17.4927 7.59793 17.5917 7.43893C17.7707 7.16193 18.3257 6.72493 18.4847 6.14993C18.4847 6.14993 18.7617 5.39593 17.9887 5.37693C17.5717 5.35693 17.2347 5.65393 17.1157 6.10993C16.9967 6.58593 17.2547 7.24093 17.1157 7.55793C17.0657 7.69193 16.9987 7.81793 16.9177 7.93493C16.7841 8.05468 16.611 8.12091 16.4317 8.12091C16.2523 8.12091 16.0792 8.05468 15.9457 7.93493C15.8693 7.84593 15.8137 7.74111 15.7827 7.62802C15.7518 7.51494 15.7463 7.39639 15.7667 7.28093C15.8346 7.01948 15.8877 6.75439 15.9257 6.48693C15.9457 6.28893 15.5887 5.93193 15.2907 6.16993C15.1517 6.26993 15.2107 6.42793 15.2707 6.56693C15.3707 6.86393 15.5487 7.71693 14.5767 7.29993ZM15.1327 7.91493C15.1127 7.89493 15.1327 7.89493 15.1327 7.91493V7.91493Z" fill="white"/>
<path d="M15.7871 8.81H17.0971C17.2151 8.784 17.3321 8.876 17.4141 9.058C17.4201 9.158 17.3961 9.256 17.3541 9.306C17.137 9.20405 16.9 9.15119 16.6601 9.15119C16.4202 9.15119 16.1833 9.20405 15.9661 9.306H15.9061L15.7871 8.81Z" fill="white"/>
<path d="M20.5871 8.27177C20.0817 8.41448 19.5852 8.58678 19.1001 8.78777C19.0569 8.80112 19.0106 8.80059 18.9677 8.78624C18.9248 8.77188 18.8875 8.74444 18.8611 8.70777C18.8415 8.66423 18.8313 8.61702 18.8313 8.56927C18.8313 8.52151 18.8415 8.4743 18.8611 8.43077C18.8809 8.36625 18.8809 8.29728 18.8611 8.23277C18.8206 8.12432 18.7523 8.02844 18.6631 7.95477C18.6244 7.92269 18.579 7.89959 18.5303 7.88714C18.4816 7.87469 18.4308 7.87319 18.3814 7.88276C18.3321 7.89232 18.2855 7.91271 18.2449 7.94245C18.2044 7.97219 18.171 8.01055 18.1471 8.05477C17.8809 8.47098 17.6802 8.92561 17.5521 9.40277C17.5045 9.59392 17.4011 9.76659 17.2551 9.89877C16.9571 10.1568 16.6801 10.1768 16.2831 9.95877C16.1726 9.87848 16.0668 9.79201 15.9661 9.69977C15.8297 9.54802 15.71 9.38207 15.6091 9.20477C15.4491 8.90677 15.2911 8.58977 15.1331 8.31177C14.9141 7.95477 14.6961 7.61777 14.3001 7.43877C14.1727 7.39259 14.0344 7.38562 13.9031 7.41877C13.8452 7.42998 13.7903 7.45356 13.7423 7.48791C13.6944 7.52225 13.6544 7.56655 13.6251 7.61777C13.5651 7.71677 12.7721 7.73677 12.4951 7.57777C12.3551 7.49777 11.9591 7.10177 11.8201 7.14177C11.7011 7.14177 11.6421 7.06177 11.5621 7.00277C11.3843 6.88065 11.1801 6.80254 10.9663 6.77489C10.7524 6.74725 10.535 6.77086 10.3321 6.84377C10.2471 6.86378 10.1699 6.90827 10.11 6.97172C10.0501 7.03518 10.0102 7.11482 9.99508 7.20077C9.99613 7.29241 10.0253 7.38152 10.0786 7.45609C10.1318 7.53066 10.2067 7.58709 10.2931 7.61777C10.4901 7.69177 10.6821 7.77777 10.8681 7.87577C10.9681 7.91577 11.1261 7.93577 11.1061 8.11377C11.1044 8.16092 11.1112 8.20799 11.1261 8.25277C11.1461 8.50977 10.9671 8.52977 10.7891 8.52977C10.5351 8.50953 10.283 8.46975 10.0351 8.41077C9.76084 8.3183 9.47021 8.28457 9.18208 8.31177C9.10208 8.41177 9.00408 8.35177 8.90408 8.37177C8.54708 8.43177 8.27008 8.68877 8.29008 8.98577C8.31008 9.32377 8.58708 9.40277 8.86508 9.46177C9.53908 9.62177 10.2141 9.56177 10.8881 9.58177C11.7011 9.58177 12.1581 9.97777 12.2761 10.7918C12.3561 11.3858 14.1411 27.0158 14.1611 27.3528C14.1627 27.4216 14.1869 27.4881 14.2299 27.5419C14.2728 27.5957 14.3323 27.6339 14.3991 27.6508C15.0731 27.8558 15.7771 27.9508 16.4811 27.9288C17.2721 27.9488 18.0611 27.8488 18.8211 27.6308C18.9411 27.5908 19.0401 27.5508 19.0401 27.3928C19.0601 26.9768 20.1901 12.0408 20.1901 11.8028C20.1782 11.1081 20.4021 10.4299 20.8251 9.87877C21.1621 9.48177 21.5391 9.12477 21.8761 8.72877C21.9761 8.17277 21.2611 8.17277 20.5871 8.27177Z" fill="white"/>
</svg>
