<svg width="32" height="32" viewBox="0 0 32 32" fill="none" xmlns="http://www.w3.org/2000/svg">
<path d="M16 32C24.8366 32 32 24.8366 32 16C32 7.16344 24.8366 0 16 0C7.16344 0 0 7.16344 0 16C0 24.8366 7.16344 32 16 32Z" fill="#242424"/>
<path d="M22.2567 6.77C22.2567 7.471 21.6867 8.04 20.9827 8.04C20.8156 8.04026 20.6502 8.00762 20.4957 7.94394C20.3413 7.88026 20.2009 7.78679 20.0826 7.66885C19.9643 7.55092 19.8704 7.41085 19.8063 7.25662C19.7421 7.1024 19.7089 6.93704 19.7087 6.77C19.7087 6.068 20.2787 5.5 20.9827 5.5C21.6867 5.5 22.2567 6.068 22.2567 6.77ZM21.3387 11.194C20.7427 11.194 20.2587 10.712 20.2587 10.118C20.2587 9.524 20.7427 9.043 21.3387 9.043C21.9347 9.043 22.4177 9.524 22.4177 10.118C22.4177 10.712 21.9347 11.194 21.3377 11.194H21.3387ZM21.0037 13.847C20.884 13.8473 20.7654 13.8239 20.6548 13.7783C20.5442 13.7327 20.4436 13.6657 20.3589 13.5812C20.2742 13.4966 20.207 13.3962 20.1611 13.2857C20.1153 13.1752 20.0917 13.0567 20.0917 12.937C20.0918 12.8174 20.1155 12.699 20.1614 12.5886C20.2073 12.4782 20.2746 12.3779 20.3593 12.2935C20.444 12.209 20.5445 12.1422 20.655 12.0966C20.7656 12.051 20.8841 12.0277 21.0037 12.028C21.1233 12.0277 21.2419 12.0511 21.3525 12.0967C21.4632 12.1423 21.5637 12.2093 21.6484 12.2938C21.7331 12.3784 21.8003 12.4788 21.8462 12.5893C21.8921 12.6998 21.9157 12.8183 21.9157 12.938C21.9155 13.0576 21.8918 13.176 21.8459 13.2864C21.8 13.3968 21.7328 13.4971 21.6481 13.5815C21.5634 13.6659 21.4629 13.7328 21.3523 13.7784C21.2417 13.824 21.1232 13.8473 21.0037 13.847ZM20.9497 15.219C20.9497 15.4259 20.8675 15.6243 20.7212 15.7705C20.5749 15.9168 20.3765 15.999 20.1697 15.999C19.9628 15.999 19.7644 15.9168 19.6181 15.7705C19.4718 15.6243 19.3897 15.4259 19.3897 15.219C19.3897 15.0121 19.4718 14.8137 19.6181 14.6675C19.7644 14.5212 19.9628 14.439 20.1697 14.439C20.3765 14.439 20.5749 14.5212 20.7212 14.6675C20.8675 14.8137 20.9497 15.0121 20.9497 15.219ZM19.7157 16.943C19.7157 17.313 19.4157 17.61 19.0467 17.61C18.9146 17.6096 18.7856 17.5701 18.676 17.4964C18.5664 17.4227 18.4811 17.3182 18.4308 17.196C18.3806 17.0739 18.3677 16.9396 18.3938 16.8101C18.4199 16.6806 18.4838 16.5618 18.5774 16.4686C18.671 16.3754 18.7901 16.3121 18.9197 16.2866C19.0493 16.2611 19.1835 16.2746 19.3054 16.3253C19.4274 16.3761 19.5315 16.4619 19.6047 16.5718C19.6779 16.6818 19.7169 16.8109 19.7167 16.943H19.7157ZM18.3657 18.166C18.3657 18.3182 18.3052 18.4642 18.1975 18.5719C18.0899 18.6795 17.9439 18.74 17.7917 18.74C17.6394 18.74 17.4934 18.6795 17.3858 18.5719C17.2781 18.4642 17.2177 18.3182 17.2177 18.166C17.2177 18.0138 17.2781 17.8678 17.3858 17.7601C17.4934 17.6525 17.6394 17.592 17.7917 17.592C17.9439 17.592 18.0899 17.6525 18.1975 17.7601C18.3052 17.8678 18.3657 18.0138 18.3657 18.166ZM25.2397 10.757C25.1656 11.0273 24.9898 11.2584 24.7491 11.4018C24.5084 11.5453 24.2214 11.5899 23.9485 11.5264C23.6755 11.4629 23.4378 11.2962 23.2851 11.0612C23.1325 10.8262 23.0768 10.5412 23.1297 10.266C23.1948 9.9862 23.3684 9.74372 23.6123 9.59191C23.8561 9.4401 24.1504 9.39139 24.4302 9.4565C24.71 9.52161 24.9524 9.69521 25.1043 9.9391C25.2561 10.183 25.3048 10.4772 25.2397 10.757ZM24.7217 13.56C24.6664 13.7968 24.5192 14.002 24.3127 14.1304C24.1061 14.2587 23.857 14.2998 23.6202 14.2445C23.3833 14.1892 23.1781 14.0421 23.0498 13.8355C22.9214 13.6289 22.8804 13.3798 22.9357 13.143C22.991 12.9062 23.1381 12.701 23.3446 12.5726C23.5512 12.4443 23.8003 12.4032 24.0372 12.4585C24.274 12.5138 24.4792 12.6609 24.6075 12.8675C24.7359 13.0741 24.777 13.3232 24.7217 13.56ZM23.7577 15.797C23.711 15.9972 23.5867 16.1707 23.4121 16.2793C23.2375 16.3879 23.0269 16.4227 22.8267 16.376C22.6264 16.3293 22.4529 16.205 22.3443 16.0304C22.2358 15.8558 22.201 15.6452 22.2477 15.445C22.3016 15.2525 22.4277 15.0883 22.5997 14.9865C22.7717 14.8848 22.9764 14.8533 23.171 14.8986C23.3657 14.944 23.5353 15.0628 23.6446 15.2301C23.7539 15.3975 23.7944 15.6005 23.7577 15.797ZM22.5157 17.5C22.4691 17.6637 22.3613 17.8033 22.2146 17.8897C22.0679 17.9762 21.8936 18.0029 21.7278 17.9643C21.562 17.9257 21.4173 17.8249 21.3239 17.6826C21.2304 17.5403 21.1952 17.3675 21.2257 17.2C21.2454 17.1154 21.2817 17.0355 21.3324 16.9649C21.383 16.8944 21.4471 16.8345 21.521 16.7887C21.5948 16.7429 21.6769 16.7121 21.7627 16.6981C21.8484 16.6841 21.9361 16.6871 22.0207 16.707C22.1053 16.7264 22.1853 16.7624 22.256 16.8128C22.3267 16.8632 22.3868 16.9271 22.4328 17.0008C22.4787 17.0744 22.5097 17.1564 22.524 17.2421C22.5382 17.3278 22.5354 17.4154 22.5157 17.5ZM21.1587 18.689C21.1416 18.7618 21.1104 18.8304 21.0667 18.8911C21.0231 18.9518 20.968 19.0033 20.9045 19.0427C20.841 19.082 20.7703 19.1085 20.6966 19.1206C20.6228 19.1326 20.5474 19.1301 20.4747 19.113C20.4019 19.0959 20.3332 19.0647 20.2725 19.0211C20.2119 18.9775 20.1604 18.9223 20.121 18.8588C20.0816 18.7953 20.0552 18.7246 20.0431 18.6509C20.031 18.5772 20.0336 18.5018 20.0507 18.429C20.0851 18.2821 20.1766 18.1549 20.3048 18.0753C20.4331 17.9958 20.5877 17.9705 20.7347 18.005C20.8816 18.0395 21.0088 18.1309 21.0883 18.2592C21.1678 18.3875 21.1931 18.5421 21.1587 18.689ZM19.8037 19.44C19.767 19.5584 19.6869 19.6586 19.5794 19.7202C19.4719 19.7819 19.345 19.8006 19.2243 19.7724C19.1035 19.7443 18.998 19.6714 18.9288 19.5685C18.8597 19.4657 18.8321 19.3404 18.8517 19.218C18.8883 19.0996 18.9684 18.9994 19.0759 18.9378C19.1835 18.8761 19.3103 18.8574 19.4311 18.8856C19.5518 18.9137 19.6573 18.9866 19.7265 19.0895C19.7956 19.1923 19.8232 19.3176 19.8037 19.44ZM26.9077 14.584C26.8007 14.8038 26.6109 14.9722 26.38 15.0523C26.149 15.1323 25.8957 15.1175 25.6757 15.011C25.5666 14.9587 25.4689 14.8854 25.3883 14.7952C25.3076 14.7051 25.2456 14.5998 25.2059 14.4856C25.1661 14.3713 25.1493 14.2504 25.1565 14.1296C25.1636 14.0089 25.1946 13.8907 25.2477 13.782C25.3546 13.5625 25.5442 13.3942 25.775 13.3142C26.0057 13.2342 26.2587 13.2488 26.4787 13.355C26.5876 13.4075 26.6851 13.4809 26.7656 13.5711C26.8461 13.6613 26.908 13.7664 26.9479 13.8806C26.9877 13.9947 27.0047 14.1156 26.9978 14.2363C26.9909 14.357 26.9602 14.4751 26.9077 14.584ZM25.9467 16.799C25.851 16.9773 25.6903 17.1118 25.4979 17.1745C25.3055 17.2371 25.0963 17.2231 24.914 17.1352C24.7317 17.0474 24.5904 16.8925 24.5196 16.703C24.4487 16.5135 24.4537 16.3039 24.5337 16.118C24.6251 15.9314 24.7865 15.7885 24.9827 15.7203C25.179 15.6522 25.3943 15.6643 25.5817 15.754C25.6745 15.7984 25.7576 15.8607 25.8263 15.9373C25.8949 16.0139 25.9477 16.1034 25.9816 16.2005C26.0156 16.2977 26.0299 16.4006 26.0239 16.5033C26.0179 16.606 25.9917 16.7065 25.9467 16.799ZM24.7387 18.479C24.6598 18.6404 24.5202 18.764 24.3504 18.8229C24.1807 18.8817 23.9945 18.871 23.8327 18.793C23.7527 18.7545 23.6811 18.7006 23.622 18.6344C23.5629 18.5682 23.5175 18.491 23.4883 18.4072C23.4591 18.3234 23.4468 18.2347 23.452 18.1461C23.4572 18.0575 23.4799 17.9708 23.5187 17.891C23.6013 17.737 23.7403 17.621 23.9065 17.567C24.0727 17.513 24.2534 17.5253 24.4107 17.6012C24.5681 17.6772 24.6901 17.811 24.7512 17.9748C24.8123 18.1385 24.8078 18.3195 24.7387 18.48V18.479ZM23.3927 19.667C23.3241 19.8067 23.2032 19.9136 23.0561 19.9646C22.9091 20.0155 22.7479 20.0063 22.6077 19.939C22.5362 19.9067 22.472 19.8604 22.4187 19.8029C22.3654 19.7453 22.3242 19.6777 22.2975 19.604C22.2708 19.5302 22.2592 19.4519 22.2633 19.3736C22.2673 19.2953 22.2871 19.2186 22.3213 19.148C22.3555 19.0775 22.4035 19.0145 22.4624 18.9628C22.5214 18.9111 22.5901 18.8717 22.6645 18.847C22.739 18.8223 22.8176 18.8128 22.8957 18.8189C22.9739 18.8251 23.05 18.8469 23.1197 18.883C23.1891 18.9165 23.2512 18.9634 23.3025 19.021C23.3537 19.0786 23.3932 19.1457 23.4185 19.2185C23.4439 19.2913 23.4547 19.3683 23.4502 19.4453C23.4458 19.5223 23.4262 19.5976 23.3927 19.667ZM22.0377 20.399C21.9762 20.513 21.8731 20.5988 21.7499 20.6387C21.6267 20.6786 21.4929 20.6694 21.3763 20.6131C21.2597 20.5568 21.1693 20.4577 21.1239 20.3364C21.0785 20.2151 21.0816 20.081 21.1327 19.962C21.1965 19.8523 21.2994 19.7708 21.4208 19.7336C21.5422 19.6965 21.6731 19.7065 21.7874 19.7617C21.9017 19.8169 21.9909 19.9132 22.0373 20.0313C22.0837 20.1495 22.0839 20.2808 22.0377 20.399ZM20.7647 20.768C20.7151 20.8696 20.6273 20.9474 20.5205 20.9845C20.4137 21.0216 20.2966 21.015 20.1947 20.966C20.1444 20.9416 20.0994 20.9075 20.0623 20.8657C20.0251 20.8239 19.9966 20.7751 19.9783 20.7223C19.96 20.6695 19.9523 20.6135 19.9556 20.5577C19.959 20.5019 19.9732 20.4473 19.9977 20.397C20.0221 20.3467 20.0562 20.3017 20.098 20.2646C20.1398 20.2275 20.1885 20.1989 20.2414 20.1807C20.2942 20.1624 20.3501 20.1547 20.4059 20.158C20.4617 20.1613 20.5164 20.1756 20.5667 20.2C20.617 20.2243 20.662 20.2582 20.6992 20.2999C20.7364 20.3416 20.765 20.3902 20.7834 20.4429C20.8018 20.4957 20.8096 20.5516 20.8064 20.6073C20.8032 20.6631 20.789 20.7177 20.7647 20.768ZM21.8007 25.624C21.6558 25.5412 21.5287 25.4305 21.4267 25.2984C21.3247 25.1663 21.2498 25.0154 21.2063 24.8542C21.1628 24.6931 21.1516 24.525 21.1733 24.3595C21.195 24.194 21.2491 24.0345 21.3327 23.89C21.5022 23.5981 21.7804 23.3853 22.1065 23.2979C22.4326 23.2106 22.7799 23.2559 23.0727 23.424C23.6827 23.774 23.8927 24.551 23.5417 25.158C23.3723 25.4501 23.0941 25.6631 22.7679 25.7505C22.4418 25.8378 22.0943 25.7923 21.8017 25.624H21.8007ZM18.8107 24.092C18.688 24.0219 18.5803 23.9283 18.494 23.8164C18.4076 23.7046 18.3442 23.5768 18.3074 23.4404C18.2706 23.3039 18.2611 23.1616 18.2795 23.0215C18.2979 22.8814 18.3439 22.7463 18.4147 22.624C18.5581 22.3768 18.7936 22.1965 19.0696 22.1225C19.3457 22.0485 19.6398 22.0868 19.8877 22.229C20.4037 22.525 20.5807 23.183 20.2837 23.697C20.1404 23.9444 19.9049 24.1249 19.6288 24.1989C19.3527 24.273 19.0585 24.2345 18.8107 24.092ZM16.6087 22.252C16.5048 22.1926 16.4137 22.1133 16.3407 22.0186C16.2676 21.9239 16.2139 21.8156 16.1828 21.7001C16.1517 21.5846 16.1437 21.4641 16.1593 21.3455C16.1749 21.2269 16.2137 21.1125 16.2737 21.009C16.3951 20.8 16.5944 20.6477 16.8279 20.5853C17.0614 20.5228 17.3101 20.5555 17.5197 20.676C17.6232 20.7353 17.714 20.8145 17.7869 20.9089C17.8598 21.0034 17.9134 21.1113 17.9445 21.2265C17.9756 21.3417 17.9837 21.4619 17.9683 21.5802C17.9529 21.6985 17.9142 21.8126 17.8547 21.916C17.7339 22.1257 17.5348 22.2789 17.3012 22.3419C17.0676 22.4049 16.8185 22.3725 16.6087 22.252ZM15.1077 20.278C15.0193 20.2268 14.9418 20.1588 14.8798 20.0777C14.8177 19.9966 14.7722 19.9041 14.7459 19.8055C14.7195 19.7068 14.7129 19.6039 14.7263 19.5027C14.7398 19.4015 14.773 19.3039 14.8242 19.2155C14.8753 19.1271 14.9434 19.0497 15.0244 18.9876C15.1055 18.9255 15.198 18.88 15.2967 18.8537C15.3954 18.8274 15.4982 18.8207 15.5995 18.8342C15.7007 18.8476 15.7983 18.8808 15.8867 18.932C16.2587 19.146 16.3867 19.621 16.1717 19.992C16.0683 20.1708 15.8983 20.3014 15.6988 20.355C15.4993 20.4086 15.2867 20.3809 15.1077 20.278ZM14.2247 18.352C14.1486 18.3085 14.0818 18.2503 14.0283 18.1809C13.9747 18.1115 13.9353 18.0322 13.9125 17.9476C13.8896 17.8629 13.8837 17.7746 13.8951 17.6877C13.9064 17.6008 13.9348 17.5169 13.9787 17.441C14.0677 17.2874 14.214 17.1754 14.3855 17.1295C14.557 17.0836 14.7398 17.1075 14.8937 17.196C15.2137 17.38 15.3237 17.788 15.1397 18.106C15.0509 18.26 14.9047 18.3724 14.7331 18.4185C14.5615 18.4646 14.3786 18.4407 14.2247 18.352ZM13.8357 16.575C13.7703 16.5375 13.7131 16.4875 13.6671 16.4278C13.6212 16.3681 13.5875 16.2999 13.568 16.2271C13.5485 16.1544 13.5435 16.0785 13.5534 16.0038C13.5633 15.9291 13.5879 15.8572 13.6257 15.792C13.7022 15.6606 13.8275 15.5648 13.9744 15.5255C14.1213 15.4861 14.2777 15.5064 14.4097 15.582C14.4749 15.6197 14.532 15.6699 14.5778 15.7296C14.6236 15.7894 14.6572 15.8576 14.6767 15.9304C14.6961 16.0031 14.7011 16.079 14.6912 16.1537C14.6813 16.2283 14.6568 16.3003 14.6192 16.3655C14.5815 16.4307 14.5313 16.4878 14.4715 16.5337C14.4118 16.5795 14.3436 16.6131 14.2708 16.6325C14.198 16.652 14.1222 16.6569 14.0475 16.647C13.9728 16.6372 13.9009 16.6127 13.8357 16.575ZM17.5857 26.501C17.4436 26.5013 17.3029 26.4735 17.1716 26.4194C17.0403 26.3652 16.9209 26.2857 16.8203 26.1854C16.7198 26.0851 16.6399 25.966 16.5854 25.8348C16.5309 25.7037 16.5028 25.563 16.5027 25.421C16.5028 25.279 16.5309 25.1384 16.5854 25.0073C16.64 24.8762 16.7198 24.7571 16.8204 24.6569C16.921 24.5567 17.0404 24.4773 17.1717 24.4233C17.303 24.3692 17.4437 24.3416 17.5857 24.342C18.1837 24.342 18.6687 24.825 18.6687 25.422C18.6687 26.018 18.1837 26.501 17.5857 26.501ZM14.6677 24.363C14.5798 24.2811 14.5089 24.1827 14.4591 24.0734C14.4094 23.9641 14.3817 23.846 14.3777 23.7259C14.3737 23.6059 14.3935 23.4862 14.4359 23.3738C14.4782 23.2614 14.5424 23.1585 14.6247 23.071C14.7914 22.894 15.0215 22.7902 15.2645 22.7824C15.5075 22.7745 15.7438 22.8632 15.9217 23.029C16.2917 23.374 16.3097 23.952 15.9637 24.321C15.7969 24.4977 15.5671 24.6013 15.3243 24.6091C15.0815 24.617 14.8455 24.5285 14.6677 24.363ZM13.2027 22.415C13.1284 22.3456 13.0687 22.2623 13.0267 22.1697C12.9848 22.0772 12.9615 21.9773 12.9583 21.8758C12.955 21.7742 12.9718 21.673 13.0078 21.578C13.0437 21.483 13.098 21.396 13.1677 21.322C13.3084 21.1723 13.5028 21.0844 13.7082 21.0777C13.9136 21.0709 14.1134 21.1458 14.2637 21.286C14.3382 21.3552 14.3983 21.4384 14.4404 21.5309C14.4826 21.6234 14.5061 21.7234 14.5094 21.825C14.5127 21.9266 14.4959 22.0279 14.4599 22.123C14.4239 22.2181 14.3695 22.3051 14.2997 22.379C14.1587 22.5288 13.9642 22.6167 13.7586 22.6234C13.553 22.6302 13.3531 22.5552 13.2027 22.415ZM12.3437 20.491C12.2802 20.4319 12.229 20.3607 12.1931 20.2818C12.1573 20.2028 12.1374 20.1175 12.1346 20.0307C12.1318 19.944 12.1462 19.8576 12.1769 19.7765C12.2076 19.6954 12.2541 19.6211 12.3137 19.558C12.4339 19.4302 12.5999 19.3552 12.7753 19.3494C12.9507 19.3436 13.1212 19.4074 13.2497 19.527C13.3131 19.5862 13.3643 19.6574 13.4002 19.7364C13.4361 19.8155 13.4561 19.9008 13.4589 19.9876C13.4618 20.0743 13.4475 20.1608 13.417 20.242C13.3864 20.3233 13.34 20.3977 13.2807 20.461C13.1602 20.589 12.994 20.664 12.8184 20.6696C12.6427 20.6752 12.472 20.611 12.3437 20.491ZM11.9877 18.727C11.9333 18.6762 11.8895 18.6151 11.8587 18.5473C11.828 18.4795 11.8109 18.4063 11.8085 18.3319C11.8061 18.2575 11.8184 18.1833 11.8446 18.1137C11.8709 18.044 11.9107 17.9803 11.9617 17.926C12.0649 17.8158 12.2076 17.751 12.3586 17.746C12.5095 17.7409 12.6563 17.7959 12.7667 17.899C12.9967 18.113 13.0067 18.472 12.7927 18.701C12.6893 18.8111 12.5465 18.8756 12.3955 18.8805C12.2446 18.8854 12.0979 18.8302 11.9877 18.727ZM12.0117 17.181C11.9648 17.1375 11.927 17.0851 11.9004 17.0269C11.8738 16.9686 11.8591 16.9057 11.8569 16.8418C11.8548 16.7778 11.8653 16.7141 11.8879 16.6542C11.9106 16.5944 11.9448 16.5396 11.9887 16.493C12.0775 16.3987 12.2001 16.3435 12.3296 16.3394C12.4591 16.3352 12.585 16.3826 12.6797 16.471C12.7621 16.5621 12.8072 16.681 12.8061 16.8039C12.8049 16.9267 12.7574 17.0447 12.6732 17.1342C12.589 17.2237 12.4742 17.2782 12.3516 17.2869C12.229 17.2956 12.1076 17.2578 12.0117 17.181ZM12.6867 25.741C12.6187 25.6412 12.571 25.5289 12.5465 25.4107C12.5219 25.2924 12.521 25.1705 12.5436 25.0519C12.5663 24.9332 12.6122 24.8202 12.6786 24.7194C12.745 24.6185 12.8307 24.5317 12.9307 24.464C13.133 24.3266 13.3816 24.275 13.6219 24.3205C13.8622 24.3661 14.0746 24.5051 14.2127 24.707C14.2808 24.8067 14.3285 24.9189 14.3531 25.0371C14.3777 25.1553 14.3787 25.2772 14.356 25.3957C14.3333 25.5143 14.2874 25.6273 14.221 25.728C14.1545 25.8288 14.0687 25.9155 13.9687 25.983C13.7664 26.1203 13.518 26.1719 13.2777 26.1265C13.0375 26.0812 12.825 25.9426 12.6867 25.741ZM11.2407 23.805C11.1826 23.7201 11.1418 23.6246 11.1208 23.524C11.0997 23.4233 11.0988 23.3195 11.118 23.2184C11.1373 23.1174 11.1763 23.0212 11.2329 22.9353C11.2894 22.8494 11.3624 22.7756 11.4477 22.718C11.6197 22.6015 11.8309 22.5577 12.0351 22.5963C12.2393 22.6349 12.42 22.7527 12.5377 22.924C12.5958 23.0089 12.6365 23.1044 12.6575 23.205C12.6786 23.3057 12.6795 23.4095 12.6603 23.5106C12.641 23.6116 12.602 23.7078 12.5454 23.7937C12.4889 23.8796 12.4159 23.9534 12.3307 24.011C12.1587 24.1278 11.9474 24.1717 11.7431 24.1331C11.5388 24.0945 11.3582 23.9765 11.2407 23.805ZM10.3827 21.922C10.3327 21.8487 10.2976 21.7663 10.2796 21.6794C10.2615 21.5926 10.2608 21.503 10.2774 21.4158C10.294 21.3287 10.3277 21.2457 10.3765 21.1716C10.4253 21.0975 10.4882 21.0337 10.5617 20.984C10.7104 20.8832 10.8929 20.8454 11.0694 20.8788C11.2459 20.9121 11.402 21.0139 11.5037 21.162C11.5539 21.2354 11.5891 21.3181 11.6073 21.4052C11.6255 21.4923 11.6262 21.5821 11.6095 21.6695C11.5927 21.7569 11.5589 21.8401 11.5098 21.9143C11.4608 21.9886 11.3975 22.0523 11.3237 22.102C11.1748 22.2022 10.9923 22.2396 10.8161 22.2059C10.6398 22.1721 10.484 22.0701 10.3827 21.922ZM10.0227 20.168C9.97924 20.1043 9.94881 20.0327 9.9331 19.9573C9.91739 19.8819 9.91672 19.8041 9.93111 19.7283C9.94551 19.6526 9.9747 19.5805 10.017 19.5161C10.0593 19.4517 10.1139 19.3963 10.1777 19.353C10.3068 19.2654 10.4654 19.2326 10.6187 19.2616C10.772 19.2907 10.9075 19.3793 10.9957 19.508C11.0393 19.5716 11.0699 19.6433 11.0857 19.7188C11.1014 19.7943 11.1021 19.8722 11.0876 19.948C11.0731 20.0238 11.0437 20.096 11.0011 20.1603C10.9586 20.2247 10.9037 20.28 10.8397 20.323C10.7106 20.4103 10.5523 20.4429 10.3992 20.4139C10.2462 20.3849 10.1108 20.2965 10.0227 20.168ZM10.0627 18.632C10.0255 18.5777 9.99945 18.5165 9.98597 18.4521C9.9725 18.3877 9.97187 18.3213 9.98414 18.2566C9.9964 18.1919 10.0213 18.1303 10.0574 18.0753C10.0936 18.0203 10.1402 17.973 10.1947 17.936C10.3049 17.8611 10.4404 17.8329 10.5714 17.8576C10.7024 17.8824 10.8183 17.958 10.8937 18.068C10.9595 18.1782 10.9807 18.3094 10.9529 18.4347C10.9252 18.5601 10.8505 18.6701 10.7443 18.7421C10.6381 18.8142 10.5083 18.843 10.3816 18.8225C10.2549 18.802 10.1408 18.7339 10.0627 18.632ZM10.3767 17.349C10.3434 17.3027 10.3198 17.2502 10.3071 17.1946C10.2945 17.1391 10.2931 17.0815 10.3031 17.0254C10.313 16.9693 10.3341 16.9157 10.3651 16.8679C10.396 16.82 10.4363 16.7789 10.4834 16.7468C10.5306 16.7148 10.5836 16.6925 10.6395 16.6813C10.6954 16.6701 10.753 16.6702 10.8088 16.6815C10.8647 16.6929 10.9177 16.7154 10.9647 16.7476C11.0117 16.7798 11.0518 16.8211 11.0827 16.869C11.1429 16.9627 11.1641 17.0761 11.1419 17.1852C11.1196 17.2944 11.0557 17.3904 10.9636 17.4531C10.8715 17.5157 10.7586 17.5398 10.649 17.5204C10.5393 17.5009 10.4416 17.4394 10.3767 17.349ZM5.63666 15.807C5.92933 15.6387 6.27679 15.5932 6.60293 15.6805C6.92906 15.7679 7.20729 15.9809 7.37666 16.273C7.46009 16.4175 7.5142 16.577 7.53588 16.7424C7.55756 16.9078 7.54639 17.0758 7.50301 17.2369C7.45963 17.398 7.38489 17.5489 7.28307 17.6811C7.18125 17.8132 7.05436 17.924 6.90966 18.007C6.29966 18.357 5.52166 18.148 5.17066 17.542C5.08703 17.3976 5.03274 17.238 5.0109 17.0726C4.98906 16.9071 5.00011 16.7389 5.0434 16.5777C5.0867 16.4165 5.16139 16.2655 5.26319 16.1332C5.365 16.001 5.49191 15.8901 5.63666 15.807ZM8.46666 13.997C8.71432 13.854 9.00859 13.8151 9.28491 13.8888C9.56124 13.9624 9.79706 14.1427 9.94066 14.39C10.2377 14.905 10.0607 15.562 9.54466 15.859C9.29684 16.0011 9.00291 16.0394 8.72696 15.9656C8.45102 15.8917 8.21546 15.7118 8.07166 15.465C8.00079 15.3427 7.95478 15.2076 7.93628 15.0675C7.91778 14.9273 7.92716 14.7849 7.96386 14.6484C8.00057 14.5119 8.06388 14.384 8.15017 14.272C8.23645 14.1601 8.34401 14.0663 8.46666 13.996V13.997ZM11.1677 13.02C11.3772 12.8997 11.6259 12.8673 11.8593 12.9296C12.0927 12.992 12.292 13.1442 12.4137 13.353C12.4734 13.4565 12.5121 13.5708 12.5276 13.6893C12.5431 13.8079 12.5352 13.9283 12.5041 14.0437C12.4731 14.1591 12.4197 14.2673 12.3468 14.3621C12.274 14.4568 12.1832 14.5363 12.0797 14.596C11.87 14.7162 11.6212 14.7485 11.3878 14.6859C11.1543 14.6233 10.9551 14.4709 10.8337 14.262C10.7738 14.1586 10.735 14.0443 10.7195 13.9259C10.7039 13.8074 10.7118 13.6871 10.7429 13.5717C10.7739 13.4563 10.8274 13.3482 10.9003 13.2535C10.9732 13.1588 11.064 13.0795 11.1677 13.02ZM13.6347 12.714C13.8136 12.611 14.0261 12.5832 14.2256 12.6366C14.425 12.69 14.5951 12.8203 14.6987 12.999C14.7497 13.0873 14.7828 13.1848 14.7961 13.2859C14.8094 13.387 14.8026 13.4897 14.7762 13.5882C14.7497 13.6866 14.704 13.7789 14.6418 13.8597C14.5796 13.9405 14.5021 14.0082 14.4137 14.059C14.325 14.1103 14.227 14.1436 14.1254 14.1571C14.0238 14.1705 13.9206 14.1638 13.8216 14.1374C13.7226 14.1109 13.6298 14.0652 13.5485 14.0028C13.4672 13.9405 13.3989 13.8627 13.3477 13.774C13.2967 13.6856 13.2637 13.588 13.2505 13.4868C13.2374 13.3857 13.2444 13.2829 13.271 13.1844C13.2977 13.0859 13.3435 12.9937 13.4059 12.9129C13.4683 12.8322 13.5461 12.7646 13.6347 12.714ZM15.7487 12.918C15.9024 12.8295 16.085 12.8056 16.2563 12.8516C16.4276 12.8975 16.5738 13.0095 16.6627 13.163C16.7401 13.316 16.7559 13.4929 16.7068 13.6573C16.6577 13.8216 16.5475 13.9608 16.3988 14.0463C16.2501 14.1318 16.0743 14.1571 15.9076 14.1168C15.7409 14.0766 15.596 13.9739 15.5027 13.83C15.4587 13.754 15.4301 13.6701 15.4187 13.5831C15.4073 13.496 15.4131 13.4076 15.436 13.3228C15.4589 13.2381 15.4983 13.1587 15.5519 13.0892C15.6056 13.0197 15.6724 12.9615 15.7487 12.918ZM17.4867 13.472C17.6188 13.3964 17.7754 13.376 17.9224 13.4154C18.0694 13.4547 18.195 13.5505 18.2717 13.682C18.3096 13.7471 18.3342 13.8191 18.3442 13.8938C18.3542 13.9685 18.3492 14.0444 18.3297 14.1172C18.3102 14.19 18.2765 14.2582 18.2305 14.3179C18.1844 14.3776 18.1271 14.4276 18.0617 14.465C17.9965 14.5028 17.9245 14.5273 17.8498 14.5372C17.7751 14.5472 17.6992 14.5423 17.6264 14.5229C17.5536 14.5035 17.4853 14.4699 17.4255 14.4241C17.3656 14.3783 17.3154 14.3212 17.2777 14.256C17.2399 14.1908 17.2154 14.1188 17.2054 14.0441C17.1955 13.9694 17.2004 13.8935 17.2198 13.8207C17.2392 13.7479 17.2728 13.6796 17.3185 13.6198C17.3643 13.56 17.4215 13.5098 17.4867 13.472ZM7.61366 11.24C7.88842 11.1571 8.18484 11.1866 8.43791 11.3219C8.69098 11.4573 8.88005 11.6875 8.96366 11.962C9.02926 12.2316 8.98902 12.516 8.8512 12.7568C8.71339 12.9976 8.48851 13.1764 8.22285 13.2563C7.9572 13.3363 7.67099 13.3114 7.42317 13.1867C7.17534 13.062 6.98476 12.847 6.89066 12.586C6.84929 12.4502 6.83519 12.3075 6.84918 12.1662C6.86316 12.0248 6.90496 11.8877 6.97215 11.7626C7.03935 11.6375 7.13062 11.5269 7.24072 11.4372C7.35081 11.3475 7.47756 11.2805 7.61366 11.24ZM10.3077 10.287C10.5364 10.2277 10.7791 10.2592 10.9851 10.3749C11.1911 10.4906 11.3444 10.6814 11.4129 10.9075C11.4814 11.1336 11.4597 11.3775 11.3525 11.588C11.2453 11.7985 11.0608 11.9594 10.8377 12.037C10.7228 12.0718 10.6021 12.0836 10.4826 12.0718C10.3632 12.06 10.2472 12.0247 10.1413 11.9681C9.92753 11.8537 9.76794 11.6591 9.69766 11.427C9.62738 11.1949 9.65216 10.9445 9.76656 10.7307C9.88095 10.5169 10.0756 10.3573 10.3077 10.287ZM12.7337 10C12.9299 9.94072 13.1417 9.96184 13.3224 10.0587C13.5031 10.1556 13.6379 10.3202 13.6972 10.5165C13.7564 10.7128 13.7353 10.9245 13.6385 11.1052C13.5416 11.2859 13.3769 11.4207 13.1807 11.48C13.0835 11.5093 12.9815 11.5193 12.8805 11.5092C12.7794 11.4991 12.6814 11.4693 12.5919 11.4213C12.5025 11.3733 12.4233 11.3082 12.359 11.2297C12.2947 11.1511 12.2465 11.0607 12.2172 10.9635C12.1878 10.8663 12.1779 10.7643 12.188 10.6633C12.198 10.5623 12.2279 10.4642 12.2759 10.3748C12.3238 10.2853 12.3889 10.2062 12.4675 10.1419C12.546 10.0776 12.6365 10.0294 12.7337 10ZM14.8337 10.223C15.0014 10.1723 15.1824 10.1904 15.3368 10.2732C15.4913 10.356 15.6065 10.4968 15.6572 10.6645C15.7078 10.8322 15.6898 11.0133 15.607 11.1677C15.5242 11.3221 15.3834 11.4373 15.2157 11.488C15.0476 11.5385 14.8665 11.5203 14.7119 11.4374C14.5572 11.3546 14.4417 11.2138 14.3907 11.046C14.3656 10.9628 14.3572 10.8755 14.366 10.7891C14.3748 10.7026 14.4005 10.6188 14.4418 10.5423C14.483 10.4658 14.539 10.3983 14.6064 10.3435C14.6738 10.2887 14.7514 10.2477 14.8347 10.223H14.8337ZM16.5437 10.8C16.685 10.7653 16.8342 10.7861 16.9606 10.8581C17.087 10.9302 17.1809 11.0481 17.223 11.1873C17.2651 11.3266 17.2521 11.4768 17.1867 11.6068C17.1213 11.7368 17.0086 11.8367 16.8717 11.886C16.8004 11.9075 16.7255 11.9148 16.6514 11.9074C16.5773 11.9 16.5053 11.8781 16.4397 11.8429C16.374 11.8077 16.3159 11.76 16.2688 11.7023C16.2216 11.6447 16.1862 11.5783 16.1647 11.507C16.1431 11.4357 16.1358 11.3608 16.1432 11.2867C16.1506 11.2126 16.1725 11.1407 16.2077 11.075C16.2429 11.0094 16.2907 10.9513 16.3483 10.9041C16.406 10.8569 16.4724 10.8215 16.5437 10.8ZM17.8737 11.595C17.9349 11.5764 17.9991 11.5701 18.0628 11.5763C18.1264 11.5826 18.1882 11.6013 18.2446 11.6314C18.301 11.6616 18.351 11.7025 18.3915 11.7519C18.4321 11.8014 18.4626 11.8583 18.4812 11.9195C18.4997 11.9807 18.5061 12.045 18.4998 12.1086C18.4936 12.1723 18.4749 12.234 18.4447 12.2905C18.4146 12.3469 18.3736 12.3968 18.3242 12.4374C18.2748 12.478 18.2179 12.5084 18.1567 12.527C18.0331 12.5645 17.8996 12.5514 17.7857 12.4906C17.6718 12.4297 17.5867 12.3261 17.5492 12.2025C17.5116 12.0789 17.5247 11.9455 17.5856 11.8315C17.6464 11.7176 17.7501 11.6325 17.8737 11.595ZM10.1037 7.888C10.2244 7.87873 10.3458 7.89337 10.4608 7.93111C10.5759 7.96884 10.6823 8.02891 10.7741 8.10788C10.8659 8.18685 10.9412 8.28316 10.9957 8.39129C11.0502 8.49942 11.0828 8.61724 11.0917 8.738C11.1094 8.982 11.0295 9.22306 10.8696 9.40816C10.7096 9.59326 10.4827 9.70723 10.2387 9.725C9.99466 9.74277 9.7536 9.66288 9.5685 9.50291C9.3834 9.34295 9.26943 9.116 9.25166 8.872C9.24295 8.75136 9.25811 8.63018 9.29628 8.51541C9.33445 8.40063 9.39488 8.29451 9.47411 8.20311C9.55333 8.11172 9.64981 8.03684 9.75801 7.98277C9.8662 7.9287 9.984 7.89649 10.1047 7.888H10.1037ZM12.5107 7.61C12.7116 7.6054 12.9066 7.67823 13.0553 7.81342C13.204 7.9486 13.295 8.13578 13.3095 8.33623C13.324 8.53667 13.2609 8.73502 13.1333 8.89022C13.0056 9.04542 12.8231 9.14559 12.6237 9.17C12.5184 9.18288 12.4115 9.17423 12.3097 9.14458C12.2078 9.11493 12.1131 9.06488 12.0311 8.99749C11.9492 8.9301 11.8818 8.84676 11.8331 8.75254C11.7844 8.65831 11.7553 8.55517 11.7476 8.44936C11.74 8.34356 11.7539 8.2373 11.7885 8.13704C11.8232 8.03677 11.8778 7.94459 11.9492 7.8661C12.0206 7.7876 12.1071 7.72443 12.2036 7.6804C12.3001 7.63638 12.4046 7.61243 12.5107 7.61ZM14.5747 7.814C14.7472 7.81184 14.914 7.87562 15.041 7.99231C15.1681 8.109 15.2458 8.2698 15.2583 8.44186C15.2708 8.61392 15.2172 8.78427 15.1083 8.91811C14.9995 9.05195 14.8437 9.13918 14.6727 9.162C14.4966 9.17028 14.3242 9.10944 14.1923 8.99246C14.0604 8.87547 13.9795 8.71159 13.9667 8.53576C13.9539 8.35993 14.0103 8.18607 14.1239 8.05124C14.2375 7.91641 14.3992 7.83128 14.5747 7.814ZM16.2777 8.382C16.4292 8.37699 16.5769 8.43086 16.6896 8.5323C16.8024 8.63373 16.8715 8.77488 16.8825 8.92615C16.8935 9.07742 16.8455 9.22707 16.7486 9.34374C16.6517 9.46041 16.5134 9.53504 16.3627 9.552C16.2841 9.56084 16.2046 9.55372 16.1289 9.53108C16.0531 9.50844 15.9828 9.47074 15.922 9.42023C15.8612 9.36973 15.8112 9.30747 15.775 9.23719C15.7389 9.16691 15.7173 9.09004 15.7116 9.01121C15.7058 8.93238 15.7161 8.85321 15.7417 8.77844C15.7673 8.70366 15.8078 8.63484 15.8606 8.57608C15.9135 8.51732 15.9777 8.46984 16.0494 8.43649C16.121 8.40314 16.1987 8.38461 16.2777 8.382Z" fill="white"/>
</svg>
