<svg width="32" height="32" viewBox="0 0 32 32" fill="none" xmlns="http://www.w3.org/2000/svg">
<path d="M16 32C24.8366 32 32 24.8366 32 16C32 7.16344 24.8366 0 16 0C7.16344 0 0 7.16344 0 16C0 24.8366 7.16344 32 16 32Z" fill="#C9A35E"/>
<path d="M10.0273 19.38C9.99692 19.4428 9.9495 19.4958 9.89044 19.5329C9.83138 19.5701 9.76307 19.5898 9.6933 19.59H5.6203C5.55653 19.5896 5.49396 19.5726 5.43874 19.5406C5.38352 19.5087 5.33754 19.463 5.3053 19.408C5.27093 19.3524 5.25189 19.2887 5.25013 19.2233C5.24838 19.158 5.26396 19.0934 5.2953 19.036L12.6993 5.69C12.8323 5.451 13.2143 5.451 13.3473 5.69L19.1193 16.068C19.1482 16.1261 19.1625 16.1904 19.1607 16.2552C19.159 16.3201 19.1413 16.3836 19.1093 16.44C19.0787 16.4964 19.0331 16.5432 18.9775 16.5752C18.9218 16.6071 18.8584 16.623 18.7943 16.621H17.1063C17.0405 16.62 16.976 16.602 16.9193 16.5687C16.8625 16.5354 16.8153 16.488 16.7823 16.431L13.0323 9.611L8.83631 17.366H10.4383C10.5008 17.3664 10.5623 17.3822 10.6172 17.412C10.6722 17.4419 10.7189 17.4848 10.7533 17.537C10.7867 17.591 10.806 17.6526 10.8093 17.7161C10.8126 17.7795 10.7999 17.8428 10.7723 17.9L10.0283 19.378L10.0273 19.38ZM26.7013 19.036C26.7348 19.0927 26.7516 19.1576 26.7498 19.2234C26.7481 19.2892 26.7278 19.3532 26.6913 19.408C26.6608 19.4643 26.6153 19.5109 26.5599 19.5429C26.5045 19.5749 26.4413 19.5908 26.3773 19.589H15.2643C15.1656 19.589 15.071 19.5498 15.0013 19.48C14.9315 19.4103 14.8923 19.3157 14.8923 19.217V17.74C14.8923 17.53 15.0633 17.368 15.2643 17.368H23.1723L18.9843 9.64L18.1923 11.223C18.0593 11.471 17.6493 11.471 17.5253 11.223L16.7813 9.745C16.7577 9.69249 16.7455 9.63558 16.7455 9.578C16.7455 9.52042 16.7577 9.46351 16.7813 9.411L18.6313 5.701C18.6636 5.64257 18.7103 5.5934 18.7671 5.55821C18.8238 5.52301 18.8886 5.50297 18.9553 5.5C19.0226 5.50014 19.0888 5.51771 19.1473 5.55101C19.2059 5.58431 19.2548 5.63219 19.2893 5.69L26.7013 19.036ZM21.8843 20.514L23.7243 23.853C23.7572 23.9095 23.7745 23.9737 23.7745 24.039C23.7745 24.1043 23.7572 24.1685 23.7243 24.225C23.6938 24.2813 23.6483 24.3279 23.5929 24.3599C23.5375 24.3919 23.4743 24.4078 23.4103 24.406H8.5873C8.52132 24.4052 8.45667 24.3873 8.3997 24.3539C8.34273 24.3206 8.29538 24.2731 8.26231 24.216C8.23078 24.1585 8.21509 24.0937 8.21684 24.0281C8.2186 23.9626 8.23774 23.8987 8.27231 23.843L11.2383 19.026L14.1953 13.846C14.2623 13.723 14.3953 13.646 14.5293 13.656C14.597 13.6543 14.6638 13.6723 14.7215 13.7078C14.7791 13.7433 14.8253 13.7948 14.8543 13.856L15.5983 15.335C15.6273 15.3897 15.6416 15.451 15.6399 15.5128C15.6381 15.5747 15.6203 15.635 15.5883 15.688L11.8303 22.174H20.1673L19.3943 20.886C19.3578 20.8312 19.3375 20.7672 19.3358 20.7014C19.334 20.6356 19.3508 20.5707 19.3843 20.514C19.4174 20.4569 19.4647 20.4094 19.5217 20.3761C19.5787 20.3427 19.6433 20.3248 19.7093 20.324H21.5593C21.6933 20.324 21.8173 20.4 21.8843 20.514Z" fill="white"/>
</svg>
