<svg width="32" height="32" viewBox="0 0 32 32" fill="none" xmlns="http://www.w3.org/2000/svg">
<path d="M16 32C24.8366 32 32 24.8366 32 16C32 7.16344 24.8366 0 16 0C7.16344 0 0 7.16344 0 16C0 24.8366 7.16344 32 16 32Z" fill="#22B573"/>
<path d="M15.22 26.804C16.097 26.854 17.138 26.802 17.886 26.669C19.509 26.389 21.174 25.664 22.54 24.642C23.153 24.181 24.204 23.13 24.66 22.522C25.688 21.15 26.365 19.615 26.715 17.852C26.844 17.185 26.861 14.885 26.745 14.202C26.102 10.587 23.895 7.64401 20.66 6.09101C20.5747 6.0502 20.489 6.0102 20.403 5.97101L20.823 7.46301C21.063 8.29201 21.553 10.038 21.921 11.334C22.896 14.762 22.885 14.704 22.92 15.574C22.937 16.029 22.926 16.537 22.885 16.847C22.47 19.959 20 22.423 16.875 22.844C16.239 22.931 15.165 22.891 14.564 22.762C14.342 22.709 14.149 22.68 14.131 22.692C14.114 22.715 15.077 26.19 15.229 26.657C15.261 26.753 15.272 26.791 15.219 26.804H15.22ZM11.64 25.931C11.6331 25.926 11.6264 25.9207 11.62 25.915C11.585 25.875 11.317 25.022 11.03 24.012C10.745 23.002 10.213 21.132 9.857 19.866C9.495 18.599 9.167 17.361 9.121 17.121C9.028 16.596 9.016 15.369 9.104 14.844C9.21397 14.1976 9.4104 13.569 9.688 12.975C10.663 10.931 12.38 9.58201 14.645 9.08601C15.258 8.95201 16.677 8.95201 17.296 9.08601C17.547 9.14501 17.776 9.16801 17.799 9.13901C17.822 9.11501 17.582 8.18701 17.267 7.07701C17.0722 6.41169 16.8882 5.74327 16.715 5.07201C16.5017 5.06938 16.2883 5.06838 16.075 5.06901C14.774 5.06301 14.441 5.09801 13.436 5.33101C11.264 5.83901 9.162 7.13601 7.708 8.84701C5.296 11.685 4.485 15.557 5.559 19.077C5.95 20.374 6.435 21.326 7.247 22.429C8.38319 23.9572 9.89699 25.164 11.64 25.931ZM14.213 27.836C13.898 27.79 13.594 27.737 13.542 27.714C13.3567 27.6591 13.1696 27.6104 12.981 27.568C11.124 27.118 9.151 26.015 7.673 24.601C6.546 23.521 5.419 21.886 4.946 20.654C4.882 20.496 4.806 20.309 4.776 20.245C4.619 19.912 4.339 18.937 4.181 18.149C4.011 17.326 4 17.179 4 15.982C4 15.247 4.03 14.546 4.064 14.347C4.105 14.155 4.181 13.728 4.245 13.407C4.304 13.08 4.391 12.753 4.432 12.677C4.45944 12.634 4.47939 12.5867 4.491 12.537C4.461 12.537 4.73 11.667 4.777 11.603C4.8 11.573 4.87 11.416 4.928 11.253C5.028 10.978 5.355 10.313 5.478 10.113C5.512 10.067 5.664 9.81001 5.822 9.54701C5.985 9.27901 6.143 9.02701 6.172 8.99301C6.207 8.95201 6.4 8.70701 6.599 8.45001C8.339 6.23601 10.984 4.63601 13.769 4.11701C14.593 3.95901 17.401 3.96501 18.236 4.12301C19.574 4.37301 20.999 4.92801 22.207 5.66401C22.791 6.02601 22.832 6.05001 23.492 6.57501C24.052 7.01901 24.981 7.95301 25.384 8.47901C25.542 8.68901 25.74 8.94001 25.822 9.03901C25.904 9.14501 25.974 9.24401 25.974 9.26701C25.974 9.29701 26.038 9.39601 26.114 9.49501C26.19 9.59501 26.371 9.91501 26.523 10.201C26.669 10.493 26.815 10.756 26.838 10.785C26.861 10.82 26.972 11.06 27.078 11.328C27.866 13.32 28.14 15.218 27.924 17.268C27.836 18.148 27.439 19.708 27.136 20.374C27.077 20.514 27.025 20.642 27.025 20.66C27.025 20.712 26.523 21.717 26.371 21.968C25.139 24.012 23.393 25.658 21.419 26.639C21.08 26.809 20.759 26.966 20.701 26.996C20.309 27.2 19.019 27.591 18.061 27.79C17.466 27.912 14.972 27.942 14.213 27.836ZM16.835 19.486C18.102 19.165 19.2 18.085 19.515 16.853C19.632 16.391 19.638 15.498 19.521 15.048C19.036 13.133 17.045 11.912 15.171 12.385C14.4 12.578 13.991 12.805 13.448 13.349C12.672 14.126 12.35 14.896 12.356 15.982C12.362 17.635 13.436 19.031 15.048 19.462C15.533 19.592 16.374 19.602 16.835 19.486Z" fill="#FEFFFF"/>
</svg>
