<svg width="32" height="32" viewBox="0 0 32 32" fill="none" xmlns="http://www.w3.org/2000/svg">
<path d="M16 32C24.8366 32 32 24.8366 32 16C32 7.16344 24.8366 0 16 0C7.16344 0 0 7.16344 0 16C0 24.8366 7.16344 32 16 32Z" fill="#96B73D"/>
<path d="M11.5936 16.1051C11.6796 16.3631 11.8066 16.6051 11.9706 16.8231L9.47758 14.3051C9.2178 14.043 9.07204 13.689 9.07204 13.3201C9.07204 12.9511 9.2178 12.5971 9.47758 12.3351L12.6226 9.18806C12.6876 9.14006 12.7496 9.08806 12.8096 9.03406L12.9006 8.95406L15.4476 6.40506C15.5757 6.27642 15.728 6.17441 15.8957 6.10489C16.0634 6.03537 16.2432 5.99972 16.4247 6C16.6062 6.00028 16.7859 6.03648 16.9534 6.10651C17.1209 6.17655 17.2729 6.27903 17.4006 6.40806L25.7436 14.8111C25.9337 15.0813 26.0228 15.4097 25.9952 15.739C25.9676 16.0682 25.8251 16.3773 25.5926 16.6121C25.3631 16.8435 25.0611 16.9891 24.7371 17.0246C24.4131 17.0601 24.0867 16.9833 23.8126 16.8071L16.4426 9.36706L16.4346 9.35706L16.4106 9.33106L12.4676 13.2751L12.4076 13.3251C12.4053 13.3278 12.403 13.3304 12.4006 13.3331L16.2966 17.2601C16.4681 17.4334 16.5914 17.6486 16.6541 17.8842C16.7168 18.1199 16.7168 18.3679 16.6542 18.6036C16.5915 18.8392 16.4683 19.0544 16.2969 19.2278C16.1254 19.4012 15.9116 19.5268 15.6766 19.5921C15.4417 19.6553 15.1942 19.6553 14.9594 19.5919C14.7245 19.5285 14.5107 19.404 14.3396 19.2311L12.3436 17.2211C12.3146 17.1951 12.2856 17.1611 12.2496 17.1251L12.1576 17.0331C12.0907 16.9578 12.0282 16.8786 11.9706 16.7961L12.0156 16.8491L11.9856 16.8101C11.8181 16.5975 11.6857 16.3595 11.5936 16.1051ZM19.7396 18.6781L15.8386 14.7491C15.5788 14.487 15.433 14.133 15.433 13.7641C15.433 13.3951 15.5788 13.0411 15.8386 12.7791C15.9669 12.6503 16.1195 12.5482 16.2875 12.4786C16.4555 12.4091 16.6356 12.3735 16.8174 12.3738C16.9992 12.3742 17.1792 12.4106 17.3469 12.4808C17.5146 12.551 17.6668 12.6538 17.7946 12.7831L19.7916 14.7931C19.8196 14.8181 19.8486 14.8531 19.8856 14.8881L19.9766 14.9801C20.0286 15.0381 20.0766 15.1001 20.1206 15.1631L20.1426 15.1901C20.1145 15.15 20.0858 15.1103 20.0566 15.0711L22.6666 17.6981C22.9267 17.9603 23.0727 18.3147 23.0727 18.6841C23.0727 19.0534 22.9267 19.4078 22.6666 19.6701L19.5196 22.8181C19.4537 22.8651 19.3903 22.9155 19.3296 22.9691L16.7056 25.5931C16.5777 25.722 16.4255 25.8244 16.2578 25.8943C16.0901 25.9641 15.9102 26.0001 15.7286 26.0001C15.5469 26.0001 15.3671 25.9641 15.1994 25.8943C15.0317 25.8244 14.8795 25.722 14.7516 25.5931L6.27458 17.0461C6.06803 16.7658 5.97263 16.419 6.0068 16.0725C6.04097 15.7261 6.20227 15.4046 6.45958 15.1701C6.71606 14.9368 7.05082 14.8083 7.39753 14.8102C7.74423 14.812 8.0776 14.944 8.33158 15.1801L15.7156 22.6351L15.7406 22.6651L19.6756 18.7311L19.7336 18.6841C19.7356 18.682 19.7376 18.68 19.7396 18.6781Z" fill="white"/>
</svg>
