<svg width="32" height="32" viewBox="0 0 32 32" fill="none" xmlns="http://www.w3.org/2000/svg">
<path d="M16 32C24.8366 32 32 24.8366 32 16C32 7.16344 24.8366 0 16 0C7.16344 0 0 7.16344 0 16C0 24.8366 7.16344 32 16 32Z" fill="#0FA9C9"/>
<path d="M17.147 20.446L11.697 26L10.143 24.295L13.92 20.445L10 16.452L11.673 14.746L17.147 20.446ZM20.327 17.255L22 15.549L18.08 11.554L21.857 7.705L20.303 6L14.829 11.554L20.327 17.255ZM12.367 14.088L17.865 19.788L19.538 18.083L14.04 12.48L12.367 14.088Z" fill="white"/>
</svg>
