<svg width="32" height="32" viewBox="0 0 32 32" fill="none" xmlns="http://www.w3.org/2000/svg">
<path d="M16 32C24.8366 32 32 24.8366 32 16C32 7.16344 24.8366 0 16 0C7.16344 0 0 7.16344 0 16C0 24.8366 7.16344 32 16 32Z" fill="black"/>
<path d="M12.478 6.435V25.913H9V6H12.478V6.435ZM14.957 6H16.913C20.957 6 23.653 8.565 23.653 12.217C23.653 15.174 22.043 17.435 19.13 18.174L24.217 25.913H20.13L13.174 15.13H16.522C18.739 15.13 20.13 14.13 20.13 12.174C20.13 10.217 18.74 9.217 16.522 9.217H15V6H14.957Z" fill="white"/>
</svg>
