<svg width="32" height="32" viewBox="0 0 32 32" fill="none" xmlns="http://www.w3.org/2000/svg">
<path d="M16 32C24.8366 32 32 24.8366 32 16C32 7.16344 24.8366 0 16 0C7.16344 0 0 7.16344 0 16C0 24.8366 7.16344 32 16 32Z" fill="#292929"/>
<path fill-rule="evenodd" clip-rule="evenodd" d="M15.007 18.657C15.007 18.197 15.009 17.738 15.006 17.279C15.005 17.151 15.042 17.053 15.161 17.001C15.271 16.953 15.386 16.987 15.482 17.099C15.768 17.433 16.052 17.769 16.337 18.105C16.437 18.222 16.538 18.338 16.635 18.459C16.6578 18.4876 16.6711 18.5226 16.673 18.559C16.675 19.044 16.676 19.529 16.674 20.013C16.6766 20.2264 16.5987 20.433 16.4558 20.5914C16.3129 20.7499 16.1155 20.8487 15.903 20.868C15.6906 20.8816 15.481 20.8143 15.3163 20.6796C15.1515 20.5449 15.0439 20.3529 15.015 20.142C15.006 20.087 15.007 20.03 15.007 19.974V18.657ZM15.01 9.64705C15.009 9.62705 15.007 9.60805 15.007 9.58805V6.85604C15.008 6.43604 15.296 6.08204 15.686 6.01304C15.8063 5.99066 15.93 5.99512 16.0484 6.02609C16.1667 6.05706 16.2768 6.11379 16.3707 6.19222C16.4646 6.27064 16.54 6.36884 16.5916 6.47979C16.6432 6.59073 16.6696 6.7117 16.669 6.83404C16.679 7.76504 16.673 8.69705 16.675 9.62805L16.67 9.67604C16.476 9.34404 16.208 9.17804 15.842 9.17904C15.48 9.17904 15.21 9.33905 15.01 9.64705ZM15.007 22.26C15.211 22.57 15.483 22.728 15.848 22.727C16.212 22.726 16.477 22.56 16.675 22.252V24.566C16.674 24.793 16.681 25.022 16.661 25.246C16.6416 25.4598 16.5402 25.6576 16.3779 25.7981C16.2157 25.9385 16.0053 26.0105 15.791 25.999C15.5796 25.9849 15.3815 25.8912 15.2364 25.7368C15.0913 25.5825 15.01 25.3789 15.009 25.167C15.004 24.274 15.007 23.381 15.007 22.487V22.26ZM16.675 13.434V15.095C16.675 15.253 16.625 15.339 16.505 15.387C16.4429 15.4126 16.3742 15.4173 16.3093 15.4003C16.2443 15.3833 16.1867 15.3457 16.145 15.293L15.421 14.445C15.296 14.299 15.171 14.154 15.048 14.005C15.0244 13.9768 15.0104 13.9418 15.008 13.905C15.006 13.191 15.005 12.476 15.008 11.762C15.0067 11.5512 15.0847 11.3475 15.2266 11.1915C15.3685 11.0355 15.5639 10.9386 15.774 10.92C16.169 10.876 16.561 11.17 16.653 11.584C16.668 11.653 16.673 11.725 16.673 11.796C16.675 12.342 16.675 12.888 16.675 13.434ZM18.406 10.057V7.83704C18.408 7.43504 18.637 7.10704 18.993 6.99504C19.533 6.82404 20.073 7.23204 20.076 7.82004C20.079 8.37404 20.076 8.92804 20.076 9.48104V12.276C20.076 12.689 19.828 13.023 19.449 13.126C18.956 13.259 18.453 12.896 18.412 12.377C18.4083 12.3261 18.4067 12.2751 18.407 12.224V10.057H18.406ZM13.362 20.76V23.325C13.3657 23.5255 13.2981 23.7207 13.1711 23.8759C13.0442 24.031 12.8662 24.136 12.669 24.172C12.189 24.264 11.71 23.874 11.696 23.375C11.692 23.232 11.695 23.089 11.695 22.946V18.193C11.695 17.794 11.951 17.457 12.323 17.361C12.4463 17.3299 12.5751 17.3274 12.6995 17.3537C12.8239 17.3801 12.9407 17.4345 13.0409 17.5128C13.141 17.5912 13.222 17.6914 13.2774 17.8058C13.3329 17.9203 13.3615 18.0459 13.361 18.173C13.364 19.035 13.361 19.898 13.361 20.76H13.362ZM13.362 11.314V14.813C13.3658 15.0071 13.3026 15.1965 13.1831 15.3495C13.0637 15.5025 12.8952 15.6097 12.706 15.653C12.5848 15.6788 12.4594 15.6774 12.3388 15.6487C12.2183 15.6201 12.1056 15.5651 12.0089 15.4875C11.9123 15.41 11.834 15.312 11.7799 15.2005C11.7258 15.089 11.6971 14.9669 11.696 14.843C11.691 14.337 11.695 13.832 11.694 13.326V7.82004C11.694 7.40805 11.962 7.06405 12.347 6.97705C12.4694 6.95018 12.5963 6.95121 12.7182 6.98005C12.8402 7.0089 12.9541 7.06482 13.0515 7.14367C13.1488 7.22253 13.2272 7.32229 13.2808 7.43557C13.3344 7.54885 13.3618 7.67273 13.361 7.79804C13.364 8.69704 13.361 9.59505 13.361 10.494L13.362 11.314ZM18.406 19.5V15.7C18.406 15.321 18.568 15.04 18.906 14.882C19.448 14.631 20.056 15.032 20.076 15.645V23.293C20.076 23.711 19.837 24.043 19.46 24.151C18.966 24.293 18.454 23.931 18.412 23.41C18.4082 23.3568 18.4065 23.3034 18.407 23.25V19.498L18.406 19.5ZM23.5 15.634V21.574C23.5049 21.772 23.4405 21.9654 23.318 22.121C23.1955 22.2765 23.0226 22.3844 22.829 22.426C22.337 22.533 21.847 22.14 21.833 21.627V9.70704C21.833 9.32204 22.026 9.01504 22.352 8.87904C22.902 8.64904 23.499 9.06304 23.499 9.67704V15.633L23.5 15.634ZM10.167 15.625V21.574C10.167 21.994 9.907 22.331 9.515 22.424C9.015 22.544 8.514 22.15 8.5 21.625V9.68804C8.5 9.27904 8.745 8.94705 9.12 8.84305C9.24302 8.81071 9.37181 8.80694 9.49651 8.83203C9.62122 8.85712 9.73853 8.9104 9.83947 8.9878C9.94042 9.0652 10.0223 9.16466 10.0789 9.27857C10.1355 9.39249 10.1653 9.51785 10.166 9.64505C10.171 10.3 10.167 10.956 10.167 11.612V15.624V15.625Z" fill="white"/>
</svg>
