<svg width="32" height="32" viewBox="0 0 32 32" fill="none" xmlns="http://www.w3.org/2000/svg">
<path d="M16 32C24.8366 32 32 24.8366 32 16C32 7.16344 24.8366 0 16 0C7.16344 0 0 7.16344 0 16C0 24.8366 7.16344 32 16 32Z" fill="#DD0632"/>
<path d="M22.682 7H17.522L15.988 9.652L14.459 7H9.297L4 16.175L9.129 25.055L12.606 19.036L16 24.896L19.384 19.036L22.869 25.096L28 16.216L22.682 7ZM9.122 21.544L6.02 16.178L8.487 11.906L11.587 17.276L9.121 21.549V21.544H9.122ZM9.506 10.142L10.324 8.721H13.415L14.97 11.414L12.606 15.513L9.506 10.142ZM15.986 21.374L13.624 17.272L15.988 13.175L17.044 15L18.354 17.273L15.988 21.37L15.986 21.375V21.374ZM17.003 11.414L18.561 8.721H21.652L22.48 10.141L19.36 15.513L17.003 11.413V11.414ZM24.971 17.951L22.878 21.582L20.39 17.262L23.49 11.903L24.326 13.343L25.979 16.206L24.971 17.951Z" fill="white"/>
</svg>
