<svg width="32" height="32" viewBox="0 0 32 32" fill="none" xmlns="http://www.w3.org/2000/svg">
<path d="M16 32C24.8366 32 32 24.8366 32 16C32 7.16344 24.8366 0 16 0C7.16344 0 0 7.16344 0 16C0 24.8366 7.16344 32 16 32Z" fill="#77C3B0"/>
<path d="M25.6778 13.2832L23.9898 11.5952C23.7362 11.3402 23.4344 11.1383 23.1021 11.0009C22.7698 10.8636 22.4134 10.7936 22.0538 10.7952H21.7938V10.5252C21.7938 10.0522 21.6818 9.60215 21.4458 9.19715C21.3244 8.96228 21.1645 8.74935 20.9728 8.56715L19.2848 6.87815C19.0311 6.62312 18.7292 6.42106 18.3966 6.28373C18.0641 6.14639 17.7076 6.07651 17.3478 6.07815H9.56983C8.83783 6.07815 8.15183 6.36015 7.63383 6.87815L5.94583 8.56615C5.6902 8.81697 5.48764 9.11665 5.3502 9.44735C5.21277 9.77806 5.14327 10.133 5.14583 10.4912L5.10083 17.7862C5.09083 18.5172 5.38283 19.2262 5.90083 19.7442L7.58884 21.4332C7.84252 21.6879 8.14431 21.8898 8.47666 22.0269C8.80901 22.1641 9.1653 22.2338 9.52483 22.2322H9.82884V22.5022C9.82884 22.9752 9.94184 23.4252 10.1778 23.8302C10.3018 24.0672 10.4588 24.2802 10.6508 24.4602L12.3388 26.1502C12.5928 26.4045 12.8946 26.606 13.2269 26.743C13.5592 26.88 13.9154 26.9497 14.2748 26.9482H22.0648C22.7968 26.9482 23.4828 26.6672 24.0008 26.1492L25.6898 24.4612C25.9443 24.2073 26.146 23.9054 26.2831 23.5731C26.4203 23.2408 26.4902 22.8846 26.4888 22.5252V15.2082C26.4869 14.8498 26.4144 14.4953 26.2754 14.165C26.1364 13.8347 25.9337 13.5351 25.6788 13.2832H25.6778ZM9.52483 19.7552C9.4534 19.7552 9.38479 19.7272 9.33383 19.6772L8.48983 18.8322L7.64483 17.9882C7.60858 17.9455 7.58167 17.8958 7.56583 17.8422V10.5032C7.56583 10.4232 7.59983 10.3562 7.64583 10.3112L9.33383 8.62315C9.35583 8.60015 9.37884 8.58915 9.40084 8.57815C9.44255 8.55639 9.48879 8.54474 9.53584 8.54415H17.3258C17.3708 8.54415 17.4048 8.55515 17.4498 8.57815C17.4838 8.58915 17.5058 8.61215 17.5288 8.63415L19.2168 10.3232C19.2415 10.3443 19.2607 10.371 19.2728 10.4012C19.2848 10.4132 19.2848 10.4242 19.2848 10.4352C19.2848 10.4462 19.2948 10.4582 19.2948 10.4692C19.2948 10.4802 19.3068 10.5142 19.3068 10.5362V10.8962C19.3068 11.0542 19.1828 11.1662 19.0368 11.1662H17.6868C17.6151 11.1665 17.546 11.1385 17.4948 11.0882L16.7288 10.3232H10.1328L9.85184 10.6032L9.46883 10.9872V17.3242L10.1328 17.9882H16.7178L17.4838 17.2122L17.4938 17.2002C17.5168 17.1892 17.5398 17.1662 17.5618 17.1552C17.5958 17.1332 17.6418 17.1332 17.6748 17.1332H19.0248C19.1148 17.1332 19.1948 17.1782 19.2508 17.2452C19.2859 17.2905 19.3055 17.3459 19.3068 17.4032V17.7862C19.3067 17.8577 19.2783 17.9264 19.2278 17.9772L18.3838 18.8212L17.5398 19.6652C17.5288 19.6772 17.5058 19.6882 17.4948 19.6992C17.4948 19.6992 17.4838 19.7102 17.4718 19.7102C17.4608 19.7222 17.4498 19.7222 17.4378 19.7222C17.4278 19.7222 17.4278 19.7222 17.4158 19.7332C17.4048 19.7332 17.3928 19.7442 17.3818 19.7442H9.52483V19.7552ZM24.0238 22.5022C24.0234 22.5739 23.9946 22.6425 23.9438 22.6932L22.2558 24.3822C22.2362 24.4008 22.2136 24.4161 22.1888 24.4272C22.1471 24.4489 22.1009 24.4606 22.0538 24.4612H14.2638C14.2203 24.4605 14.1776 24.4488 14.1398 24.4272C14.1097 24.415 14.083 24.3958 14.0618 24.3712L12.3728 22.6822C12.3508 22.6602 12.3278 22.6372 12.3168 22.6032C12.3048 22.5932 12.3048 22.5812 12.3048 22.5702C12.3048 22.5582 12.2948 22.5472 12.2948 22.5362C12.2948 22.5252 12.2828 22.4912 12.2828 22.4682V22.1082C12.2828 21.9512 12.4068 21.8382 12.5528 21.8382H13.9028C13.9828 21.8382 14.0498 21.8722 14.0948 21.9172L14.8608 22.6822H21.4458L21.7268 22.4012L22.1098 22.0182V15.6812L21.4458 15.0162H14.8718L14.1068 15.7932L14.0948 15.8042C14.0728 15.8162 14.0498 15.8382 14.0278 15.8492C13.9938 15.8722 13.9488 15.8722 13.9148 15.8722H12.5648C12.5211 15.8713 12.4782 15.8607 12.4391 15.8412C12.4 15.8216 12.3657 15.7936 12.3388 15.7592C12.304 15.7141 12.2844 15.6591 12.2828 15.6022V15.2192C12.2828 15.1837 12.2898 15.1486 12.3033 15.1158C12.3169 15.083 12.3368 15.0532 12.3618 15.0282L13.2058 14.1842L14.0498 13.3392C14.0618 13.3282 14.0838 13.3172 14.0948 13.3052C14.0948 13.3052 14.1068 13.2952 14.1178 13.2952C14.1288 13.2832 14.1398 13.2832 14.1518 13.2832C14.1618 13.2832 14.1618 13.2832 14.1738 13.2722C14.1848 13.2722 14.1968 13.2602 14.2078 13.2602H22.0538C22.1318 13.2602 22.1998 13.2942 22.2448 13.3402L23.0888 14.1842L23.9338 15.0282C23.9438 15.0392 23.9558 15.0502 23.9668 15.0732C23.9868 15.1044 24.0019 15.1384 24.0118 15.1742V15.2302C24.0238 15.2082 24.0238 22.5022 24.0238 22.5022Z" fill="white"/>
</svg>
