<svg width="32" height="32" viewBox="0 0 32 32" fill="none" xmlns="http://www.w3.org/2000/svg">
<path d="M16 32C24.8366 32 32 24.8366 32 16C32 7.16344 24.8366 0 16 0C7.16344 0 0 7.16344 0 16C0 24.8366 7.16344 32 16 32Z" fill="#21AF67"/>
<path d="M16 28C9.373 28 4 22.627 4 16C4 9.373 9.373 4 16 4C22.627 4 28 9.373 28 16C28 22.627 22.627 28 16 28ZM20.613 11.651C20.437 11.411 20.15 11.216 19.756 11.064C19.363 10.913 18.822 10.837 18.136 10.837H16.686L17.863 7.602L18.648 5.445C17.8592 5.24819 17.0508 5.14052 16.238 5.124C16.158 5.124 16.078 5.118 15.998 5.118C15.8753 5.11882 15.7526 5.12215 15.63 5.128C9.801 5.322 5.118 10.122 5.118 16C5.118 19.133 6.47 22.113 8.828 24.174L9.681 21.829C8.21154 20.2437 7.39537 18.1616 7.396 16C7.396 11.672 10.608 8.083 14.773 7.485C14.979 7.455 15.192 7.435 15.403 7.417L12.261 16.051L18.53 15.434C18.5268 15.4324 18.5234 15.4311 18.52 15.43C18.715 15.367 18.902 15.284 19.08 15.18C19.5376 14.9174 19.94 14.5687 20.265 14.153C20.443 13.923 20.585 13.665 20.683 13.39C20.793 13.096 20.856 12.786 20.869 12.473C20.8814 12.1776 20.7909 11.8871 20.613 11.651ZM17.939 13.756C17.802 14.128 17.589 14.39 17.294 14.541C17.0177 14.6881 16.71 14.7664 16.397 14.769H15.267L16.025 12.685H17.155C17.29 12.685 17.425 12.702 17.555 12.737C17.6741 12.7652 17.7842 12.823 17.875 12.905C17.9636 12.9931 18.0172 13.1104 18.026 13.235C18.0375 13.413 18.0077 13.5913 17.939 13.756ZM19.2 5.598L18.419 7.745C19.5434 8.07368 20.5888 8.62853 21.4911 9.37553C22.3935 10.1225 23.1338 11.046 23.6666 12.0892C24.1995 13.1324 24.5137 14.2735 24.5899 15.4424C24.6662 16.6114 24.5029 17.7836 24.1101 18.8872C23.7173 19.9908 23.1032 21.0026 22.3055 21.8605C21.5079 22.7184 20.5434 23.4043 19.4713 23.8763C18.3991 24.3482 17.2419 24.5963 16.0705 24.6052C14.8991 24.6141 13.7382 24.3836 12.659 23.928C12.4834 23.8527 12.3103 23.7717 12.14 23.685L13.032 21.24H14.48C15.792 21.24 16.868 21.018 17.71 20.572C18.551 20.127 19.15 19.416 19.507 18.438C19.638 18.076 19.687 17.758 19.648 17.484C19.6193 17.2346 19.5367 16.9944 19.406 16.78C19.2885 16.5919 19.1316 16.4315 18.946 16.31C18.8008 16.2158 18.6467 16.1361 18.486 16.072L12.16 16.696L10.125 22.277L9.295 24.561C10.0832 25.1797 10.9527 25.6871 11.879 26.069C13.186 26.607 14.586 26.883 16 26.882C22 26.882 26.882 22.001 26.882 16C26.882 11.113 23.644 6.968 19.2 5.598ZM14.56 17.073H15.88C16.038 17.074 16.195 17.089 16.35 17.118C16.5 17.142 16.645 17.197 16.774 17.278C16.894 17.36 16.98 17.482 17.016 17.622C17.058 17.773 17.036 17.971 16.947 18.216C16.8683 18.4508 16.7401 18.666 16.571 18.847C16.429 18.994 16.261 19.113 16.075 19.199C15.9036 19.2767 15.7216 19.3286 15.535 19.353C15.3703 19.3758 15.2043 19.3879 15.038 19.389H13.715L14.56 17.073Z" fill="white"/>
</svg>
