<svg width="32" height="32" viewBox="0 0 32 32" fill="none" xmlns="http://www.w3.org/2000/svg">
<path d="M16 32C24.8366 32 32 24.8366 32 16C32 7.16344 24.8366 0 16 0C7.16344 0 0 7.16344 0 16C0 24.8366 7.16344 32 16 32Z" fill="#00AFEC"/>
<path d="M20.306 11.8283C20.355 11.7493 20.399 11.6443 20.444 11.5543C21.4624 9.75093 21.9984 7.71533 22 5.64428C20.565 4.81628 19.05 4.29428 17.402 4.11328C18.012 6.77528 18.876 9.35328 20.125 11.7823L20.306 11.8283ZM12.078 11.3733L12.033 11.3633L11.683 11.2833V11.2773H11.678L11.993 9.90428C12.226 9.95428 12.459 10.0093 12.691 10.0663H12.696C13.5453 8.15028 14.2073 6.15668 14.673 4.11328C12.5253 4.35045 10.4818 5.16419 8.759 6.46828V6.47228C7.31345 7.56692 6.13441 8.97453 5.31023 10.5896C4.48605 12.2047 4.03812 13.9854 4 15.7983V16.0383C5.28089 16.7744 6.68513 17.2712 8.144 17.5043L8.151 17.4973C9.68196 15.6069 10.9999 13.5535 12.081 11.3743H12.078V11.3733ZM19.59 13.3983C19.853 13.5383 19.951 13.7383 20.076 14.1303C20.249 14.7223 20.132 15.3453 20.009 15.9303L21.46 16.2673L21.82 14.7043C23.285 16.9593 24.91 19.2883 26.883 21.1163C26.525 21.9293 26.303 22.2133 25.776 22.9273C22.546 21.9333 19.106 21.4063 15.726 21.4393L16.015 20.2843L15.051 20.0593C14.901 20.0213 14.748 19.9543 14.658 19.8223C14.545 19.6723 14.545 19.4743 14.583 19.2973L15.186 16.6753C15.498 16.7503 15.824 16.7993 16.116 16.9383C16.2526 16.9931 16.3744 17.0794 16.4715 17.19C16.5687 17.3007 16.6384 17.4327 16.675 17.5753C16.754 17.9733 16.585 18.3553 16.517 18.7383L17.815 19.0383L18.897 14.3503L18.787 14.3133L18.702 14.2973C19.002 13.9823 19.264 13.7023 19.535 13.3603L19.591 13.3983H19.59ZM8.182 17.8053L8.213 17.7623C8.465 17.8183 8.659 17.7973 8.917 17.8243C9.84 17.9063 10.736 17.9243 11.655 17.7943C11.725 17.7843 11.797 17.7773 11.868 17.7743L11.655 18.5923C11.617 18.7543 11.546 18.9223 11.407 19.0243C11.3383 19.0699 11.2608 19.1007 11.1796 19.1148C11.0984 19.1289 11.0151 19.126 10.935 19.1063C10.605 19.0393 10.275 18.9493 9.941 18.8853C9.84 19.3423 9.731 19.8003 9.626 20.2543L11.842 20.7673C11.752 21.1803 11.73 21.2923 11.636 21.7013C9.79132 21.9543 7.96938 22.3518 6.187 22.8903C5.662 22.1773 5.437 22.0053 5.085 21.1913C6.207 20.1513 7.217 18.9943 8.182 17.8053ZM13.327 21.1093L14.216 21.3153L14.186 21.4913L13.237 21.5593L13.327 21.1093ZM11.688 17.5303C11.757 17.5208 11.8264 17.5148 11.896 17.5123V17.5083L13.04 12.5583C13.085 12.3333 13.175 12.1083 13.104 11.8833C13.0765 11.8026 13.0308 11.7293 12.9705 11.6692C12.9102 11.609 12.8368 11.5635 12.756 11.5363L12.719 11.5243C12.529 11.4733 12.675 11.5093 12.482 11.4643C12.461 11.4593 12.365 11.4913 12.343 11.4873C11.2739 13.641 9.96854 15.6692 8.451 17.5343C8.702 17.5873 8.661 17.5723 8.912 17.5983C9.837 17.6833 10.768 17.6603 11.687 17.5313L11.688 17.5303Z" fill="white"/>
<path d="M14.2303 10.4172V10.4212C14.4063 9.6782 14.5713 8.9322 14.7513 8.1902L16.2293 8.5302L15.7153 10.7622L16.6003 10.9682C16.6883 10.5972 16.7753 10.2252 16.8603 9.8532L16.9893 9.2952L17.1183 8.7372L18.5953 9.0742C18.5753 9.1742 18.5533 9.2742 18.5313 9.3742C18.3883 10.0212 18.2293 10.6622 18.0863 11.3112L19.7873 11.7072C18.5383 9.2772 17.7113 6.7372 17.1023 4.0752C16.7203 4.0302 16.5593 4.0452 16.1723 4.0382H15.9363C15.5123 4.0382 15.3553 4.0272 14.9393 4.0752C14.4713 6.1182 13.9193 8.2612 13.0693 10.1772L14.2303 10.4172ZM16.1913 12.3262L16.2363 12.3362L16.2413 12.3262H16.1913Z" fill="white"/>
<path d="M16.195 12.3251L15.509 15.2991C15.935 15.3931 16.379 15.5491 16.817 15.4261C16.9578 15.3817 17.0855 15.3035 17.1889 15.1981C17.2923 15.0928 17.3683 14.9637 17.41 14.8221C17.492 14.5591 17.533 14.2891 17.605 14.0271L18.329 14.2111C18.361 14.2161 18.324 14.2351 18.345 14.2141L18.363 14.2001C18.663 13.8781 19.003 13.5251 19.273 13.1841C18.8301 12.9625 18.3581 12.8047 17.871 12.7151L16.195 12.3251ZM26.965 11.1561C25.93 8.84208 24.455 7.10008 22.262 5.83008C22.26 7.90208 21.762 9.75108 20.744 11.5561C20.6822 11.669 20.6258 11.7848 20.575 11.9031C21.261 12.0531 21.689 12.1451 22.375 12.2991V12.3061L21.933 14.2931C23.395 16.5471 25.026 19.0291 26.995 20.8591C27.623 19.4271 27.965 17.8861 28 16.3221V15.7591C27.9617 14.1712 27.61 12.6066 26.965 11.1551V11.1561ZM4 16.3001V16.4731C4.023 18.0721 4.365 19.3871 5.005 20.8531C6.06673 19.8737 7.05319 18.8157 7.956 17.6881C6.501 17.4561 5.275 17.0401 4 16.3001ZM15.685 21.7001L15.182 23.8901H15.179L13.694 23.5501L14.107 21.7531L13.162 21.8201L12.812 23.3431H12.81L11.324 23.0021C11.4 22.6641 11.474 22.3341 11.557 22.0011C9.788 22.2411 8.042 22.6261 6.337 23.1521C7.43204 24.6383 8.85481 25.8522 10.4949 26.6995C12.135 27.5469 13.9483 28.0049 15.794 28.0381H16.285C18.117 27.9908 19.9141 27.5262 21.5394 26.6794C23.1647 25.8327 24.5754 24.6263 25.664 23.1521C22.4323 22.1569 19.0663 21.6671 15.685 21.7001Z" fill="white"/>
</svg>
