<svg width="32" height="32" viewBox="0 0 32 32" fill="none" xmlns="http://www.w3.org/2000/svg">
<path d="M16 32C24.8366 32 32 24.8366 32 16C32 7.16344 24.8366 0 16 0C7.16344 0 0 7.16344 0 16C0 24.8366 7.16344 32 16 32Z" fill="#FF6600"/>
<path d="M28 16.0002C28 22.6282 22.628 28.0002 16 28.0002C9.372 28.0002 4 22.6282 4 16.0002C4 13.3192 4.881 10.8442 6.362 8.84719L8.322 10.8072C7.28134 12.3389 6.7259 14.1484 6.728 16.0002C6.728 21.1102 10.881 25.2622 15.991 25.2622C21.1 25.2622 25.253 21.1092 25.253 16.0002C25.2522 14.1485 24.697 12.3395 23.659 10.8062L25.619 8.84619C27.1697 10.9084 28.0057 13.42 28 16.0002Z" fill="white"/>
<path d="M22.6373 16C22.6355 17.7597 21.9356 19.4468 20.6913 20.691C19.447 21.9353 17.76 22.6352 16.0003 22.637C14.2405 22.6354 12.5531 21.9357 11.3086 20.6914C10.0641 19.4471 9.36416 17.7599 9.3623 16C9.3623 14.847 9.6623 13.713 10.2343 12.71L16.0003 18.474L21.7663 12.708C22.338 13.7109 22.6386 14.8456 22.6383 16" fill="white"/>
<path d="M23.8473 6.92504L16.0003 14.762L10.0193 8.79104L8.15332 6.92504C10.3285 5.03203 13.1168 3.9927 16.0003 4.00004C19.0003 4.00004 21.7383 5.09704 23.8473 6.92504Z" fill="white"/>
</svg>
