<svg width="32" height="32" viewBox="0 0 32 32" fill="none" xmlns="http://www.w3.org/2000/svg">
<path d="M16 32C24.8366 32 32 24.8366 32 16C32 7.16344 24.8366 0 16 0C7.16344 0 0 7.16344 0 16C0 24.8366 7.16344 32 16 32Z" fill="#4096D0"/>
<path d="M25.532 10H19.037L17.111 14.83H11.037V12.343H17.111L18 10H8.802C8.68813 9.99948 8.5787 10.0441 8.49771 10.1242C8.41672 10.2042 8.37079 10.3131 8.37 10.427V14.829H6.89L6 17.171H8.37V21.568C8.37 21.806 8.566 22 8.808 22H13.259L14.148 19.659H11.037V17.17H16.074L14.148 22H17.111L19.185 17.17H25.565C25.805 17.17 26 16.978 26 16.741V10.461C25.9989 10.3379 25.9491 10.2202 25.8613 10.1337C25.7736 10.0473 25.6552 9.99921 25.532 10ZM23.482 14.46C23.482 14.664 23.315 14.83 23.108 14.83H20.074L21.111 12.344H23.106C23.2048 12.3429 23.2999 12.3811 23.3706 12.4501C23.4413 12.5191 23.4817 12.6133 23.483 12.712L23.482 14.46Z" fill="white"/>
</svg>
