<svg width="32" height="32" viewBox="0 0 32 32" fill="none" xmlns="http://www.w3.org/2000/svg">
<path d="M16 32C24.8366 32 32 24.8366 32 16C32 7.16344 24.8366 0 16 0C7.16344 0 0 7.16344 0 16C0 24.8366 7.16344 32 16 32Z" fill="#66F9A1"/>
<path d="M9.92546 19.687C10.036 19.5779 10.1851 19.5168 10.3405 19.517H24.7065C24.7644 19.5162 24.8212 19.5328 24.8696 19.5646C24.918 19.5964 24.9558 19.642 24.9781 19.6955C25.0004 19.7489 25.0061 19.8079 24.9946 19.8646C24.9831 19.9214 24.9548 19.9734 24.9135 20.014L22.0755 22.829C21.9651 22.9384 21.8159 22.9999 21.6605 23H7.29446C7.23655 23.0005 7.1798 22.9837 7.13149 22.9518C7.08318 22.9198 7.0455 22.8742 7.02327 22.8207C7.00104 22.7672 6.99527 22.7083 7.00671 22.6516C7.01814 22.5948 7.04626 22.5427 7.08746 22.502L9.92546 19.687ZM9.92546 9.17C10.036 9.06092 10.1851 8.99983 10.3405 9H24.7065C24.9675 9 25.0985 9.314 24.9135 9.498L22.0755 12.313C21.9649 12.4221 21.8158 12.4832 21.6605 12.483H7.29446C7.23675 12.4833 7.18026 12.4664 7.13217 12.4345C7.08407 12.4026 7.04655 12.3572 7.02436 12.3039C7.00217 12.2506 6.99632 12.192 7.00756 12.1353C7.0188 12.0787 7.04661 12.0268 7.08746 11.986L9.92546 9.17ZM22.0755 14.395C21.9649 14.2859 21.8158 14.2248 21.6605 14.225H7.29446C7.23655 14.2245 7.1798 14.2413 7.13149 14.2732C7.08318 14.3052 7.0455 14.3508 7.02327 14.4043C7.00104 14.4578 6.99527 14.5167 7.00671 14.5734C7.01814 14.6302 7.04626 14.6823 7.08746 14.723L9.92546 17.538C10.0355 17.647 10.1855 17.708 10.3405 17.708H24.7065C24.7644 17.7085 24.8211 17.6917 24.8694 17.6598C24.9177 17.6278 24.9554 17.5822 24.9777 17.5287C24.9999 17.4752 25.0056 17.4163 24.9942 17.3596C24.9828 17.3028 24.9547 17.2507 24.9135 17.21L22.0755 14.395Z" fill="white"/>
</svg>
