<svg width="32" height="32" viewBox="0 0 32 32" fill="none" xmlns="http://www.w3.org/2000/svg">
<path d="M16 32C24.8366 32 32 24.8366 32 16C32 7.16344 24.8366 0 16 0C7.16344 0 0 7.16344 0 16C0 24.8366 7.16344 32 16 32Z" fill="#31CB9E"/>
<path d="M14.9272 16.1616L22.6472 20.5846C22.7093 20.6219 22.7803 20.6419 22.8527 20.6427C22.9252 20.6435 22.9966 20.625 23.0595 20.589C23.1225 20.5531 23.1747 20.501 23.2108 20.4382C23.247 20.3754 23.2657 20.304 23.2652 20.2316V12.0856C23.2662 12.013 23.2476 11.9414 23.2115 11.8785C23.1754 11.8155 23.123 11.7634 23.0598 11.7276C22.9966 11.6918 22.925 11.6737 22.8524 11.6751C22.7798 11.6765 22.7089 11.6974 22.6472 11.7356L14.9272 16.1616ZM22.4842 9.77856L17.2062 5.89656C17.1515 5.85458 17.0874 5.82668 17.0195 5.81532C16.9515 5.80396 16.8818 5.80949 16.8165 5.83143C16.7512 5.85336 16.6923 5.89102 16.645 5.9411C16.5976 5.99117 16.5634 6.05211 16.5452 6.11856L14.6182 14.7656L22.4382 10.4426C22.4974 10.4117 22.5478 10.3662 22.5845 10.3103C22.6211 10.2545 22.6428 10.1901 22.6474 10.1235C22.652 10.0568 22.6394 9.99008 22.6108 9.92969C22.5823 9.86929 22.5386 9.81725 22.4842 9.77856ZM17.2002 26.4236L22.4842 22.5416C22.5396 22.5026 22.584 22.45 22.6132 22.389C22.6425 22.3279 22.6555 22.2603 22.6511 22.1927C22.6467 22.1251 22.6249 22.0598 22.588 22.0031C22.5511 21.9463 22.5002 21.9 22.4402 21.8686L14.6182 17.5456L16.5452 26.1926C16.5611 26.2598 16.5935 26.322 16.6395 26.3736C16.6855 26.4252 16.7435 26.4646 16.8085 26.4882C16.8734 26.5118 16.9432 26.5189 17.0116 26.5088C17.08 26.4988 17.1448 26.4719 17.2002 26.4306" fill="white"/>
<path d="M12.9201 16.0012L14.9271 6.61223C14.9426 6.53438 14.9344 6.45368 14.9036 6.3805C14.8729 6.30733 14.821 6.24502 14.7545 6.20159C14.6881 6.15815 14.6102 6.13558 14.5308 6.13676C14.4514 6.13795 14.3742 6.16284 14.3091 6.20823L9.16712 10.1512C9.03677 10.2512 8.93131 10.3799 8.85897 10.5273C8.78663 10.6748 8.74937 10.837 8.75012 11.0012V21.0072C8.74512 21.3442 8.90012 21.6632 9.16712 21.8682L14.2841 25.8002C14.3493 25.8457 14.4266 25.8707 14.5061 25.8719C14.5856 25.873 14.6636 25.8504 14.7301 25.8068C14.7966 25.7632 14.8485 25.7007 14.8792 25.6274C14.9098 25.554 14.9178 25.4732 14.9021 25.3952L12.9191 16.0012H12.9201Z" fill="white"/>
</svg>
