<svg width="32" height="32" viewBox="0 0 32 32" fill="none" xmlns="http://www.w3.org/2000/svg">
<path d="M16 32C24.8366 32 32 24.8366 32 16C32 7.16344 24.8366 0 16 0C7.16344 0 0 7.16344 0 16C0 24.8366 7.16344 32 16 32Z" fill="#35A5F3"/>
<path d="M7.02019 7.02713C8.29019 5.70013 10.6102 5.64713 11.9212 6.93713C13.2912 8.27713 14.6472 9.62913 15.9892 10.9941C17.4172 9.63713 18.7532 8.18913 20.1872 6.83813C21.5512 5.60613 23.8712 5.75513 25.0822 7.13513C26.3242 8.43713 26.3042 10.7081 25.0152 11.9721C23.6882 13.3231 22.3442 14.6541 21.0052 15.9941C22.3732 17.4031 23.7982 18.7571 25.1552 20.1841C26.3712 21.5171 26.2552 23.7891 24.9362 25.0141C23.6392 26.3241 21.3132 26.3281 20.0182 25.0121C18.6712 23.6901 17.3532 22.3361 16.0152 21.0081C14.5872 22.3821 13.2252 23.8241 11.7822 25.1841C10.4002 26.4101 8.07019 26.2271 6.88019 24.8201C5.68019 23.5211 5.71019 21.3081 6.96019 20.0501C8.13501 18.8474 9.32376 17.6583 10.5262 16.4831L12.0332 17.9881C10.8572 19.2021 9.62019 20.3641 8.46219 21.5961C7.68119 22.3961 8.36919 23.8881 9.46619 23.8701C10.1312 23.9291 10.5902 23.3781 11.0222 22.9621C12.1692 21.7941 13.3332 20.6471 14.4802 19.4791C11.9802 16.9571 9.44019 14.4701 6.95219 11.9371C5.65419 10.6291 5.69519 8.29713 7.02219 7.02713H7.02019ZM8.47319 10.4171C9.79619 11.7971 11.1702 13.1281 12.5172 14.4851C13.1672 13.8271 13.8212 13.1731 14.4792 12.5221C13.1762 11.2091 11.8782 9.88713 10.5572 8.59213C10.1362 8.13713 9.41619 7.96813 8.86719 8.29413C8.10319 8.66413 7.86219 9.80013 8.47219 10.4171H8.47319ZM21.4132 8.62713C18.9272 11.0671 16.4912 13.5591 14.0182 16.0111C14.6852 16.6581 15.3502 17.3071 16.0012 17.9711C16.5002 17.4791 16.9962 16.9811 17.4932 16.4831C17.9952 16.9841 18.4942 17.4881 19.0002 17.9861C18.5092 18.4861 18.0152 18.9821 17.5162 19.4761C18.8572 20.8251 20.1722 22.1991 21.5572 23.5041C22.2602 24.2441 23.6242 23.7951 23.8272 22.8201C24.0452 22.1301 23.5492 21.5331 23.0812 21.0991C20.8778 18.9062 18.6791 16.7085 16.4852 14.5061C16.9875 14.0051 17.4879 13.5021 17.9862 12.9971C18.4862 13.4951 18.9852 13.9931 19.4962 14.4831C20.8112 13.1201 22.2052 11.8331 23.5002 10.4491C24.1532 9.81513 23.8922 8.60013 23.0582 8.25713C22.4982 7.96813 21.8152 8.17213 21.4122 8.62713H21.4132Z" fill="white"/>
</svg>
