<svg width="32" height="32" viewBox="0 0 32 32" fill="none" xmlns="http://www.w3.org/2000/svg">
<path d="M16 32C24.8366 32 32 24.8366 32 16C32 7.16344 24.8366 0 16 0C7.16344 0 0 7.16344 0 16C0 24.8366 7.16344 32 16 32Z" fill="#E53431"/>
<path d="M12.1165 5.31398C12.1595 5.28085 12.2123 5.26322 12.2665 5.26398C12.3206 5.26398 12.3733 5.28152 12.4165 5.31398L13.6735 6.25598C13.6998 6.27574 13.7219 6.30048 13.7386 6.32879C13.7553 6.35711 13.7663 6.38843 13.7709 6.42097C13.7755 6.45352 13.7736 6.48666 13.7654 6.51848C13.7572 6.55031 13.7428 6.58021 13.723 6.60648C13.7033 6.63274 13.6785 6.65486 13.6502 6.67156C13.6219 6.68826 13.5906 6.69922 13.558 6.70382C13.5255 6.70841 13.4924 6.70656 13.4605 6.69835C13.4287 6.69014 13.3988 6.67574 13.3725 6.65598L12.2665 5.82898L8.66955 8.52598L24.4695 20.38C24.5008 20.4035 24.5262 20.4339 24.5436 20.4689C24.5611 20.5038 24.5702 20.5424 24.5702 20.5815C24.5702 20.6206 24.5611 20.6591 24.5436 20.6941C24.5262 20.7291 24.5008 20.7595 24.4695 20.783L23.3085 21.653C23.2552 21.6928 23.1883 21.7097 23.1225 21.7002C23.0567 21.6906 22.9973 21.6553 22.9575 21.602C22.9178 21.5487 22.9008 21.4817 22.9104 21.4159C22.9199 21.3501 22.9552 21.2908 23.0085 21.251L23.9015 20.581L8.10055 8.72898C8.06913 8.70594 8.04359 8.67583 8.02598 8.64109C8.00837 8.60634 7.99919 8.56793 7.99919 8.52898C7.99919 8.49002 8.00837 8.45162 8.02598 8.41687C8.04359 8.38212 8.06913 8.35201 8.10055 8.32898L12.1165 5.31498V5.31398ZM16.1335 5.31398C16.1764 5.28076 16.229 5.26257 16.2832 5.26221C16.3374 5.26185 16.3903 5.27934 16.4335 5.31198L24.4685 11.339C24.5108 11.3702 24.5419 11.4141 24.5574 11.4643C24.5729 11.5145 24.5719 11.5684 24.5545 11.618C24.5383 11.668 24.5066 11.7116 24.464 11.7425C24.4214 11.7734 24.3702 11.79 24.3175 11.79H20.3005C20.2465 11.7896 20.194 11.7721 20.1505 11.74L14.8775 7.78598C14.8512 7.76621 14.8289 7.74144 14.8121 7.71308C14.7953 7.68472 14.7842 7.65333 14.7795 7.62069C14.7748 7.58805 14.7766 7.5548 14.7848 7.52285C14.7929 7.4909 14.8073 7.46087 14.827 7.43448C14.8468 7.40808 14.8716 7.38584 14.8999 7.36901C14.9283 7.35219 14.9597 7.34112 14.9923 7.33643C15.025 7.33174 15.0582 7.33352 15.0902 7.34168C15.1221 7.34984 15.1522 7.36421 15.1785 7.38398L20.3855 11.288H23.5645L16.2845 5.82798L11.2445 9.60798C11.2182 9.62774 11.1881 9.64211 11.1562 9.65027C11.1242 9.65843 11.091 9.66021 11.0583 9.65553C10.9924 9.64605 10.933 9.61079 10.893 9.55748C10.8531 9.50417 10.836 9.43719 10.8455 9.37127C10.855 9.30535 10.8902 9.24589 10.9435 9.20598L16.1335 5.31398ZM9.20955 10.509C9.26311 10.4766 9.3268 10.4653 9.38822 10.4773C9.44964 10.4894 9.5044 10.5238 9.54183 10.5739C9.57926 10.6241 9.59669 10.6864 9.59072 10.7487C9.58475 10.811 9.55582 10.8688 9.50955 10.911L8.66855 11.541L24.4695 23.395C24.501 23.4182 24.5265 23.4485 24.5441 23.4834C24.5617 23.5183 24.5709 23.5569 24.5709 23.596C24.5709 23.6351 24.5617 23.6736 24.5441 23.7085C24.5265 23.7434 24.501 23.7737 24.4695 23.797L20.4525 26.81C20.4091 26.842 20.3565 26.8592 20.3025 26.8592C20.2486 26.8592 20.196 26.842 20.1525 26.81L18.9895 25.938C18.9362 25.8978 18.9011 25.8381 18.8918 25.772C18.8825 25.7059 18.8999 25.6388 18.94 25.5855C18.9802 25.5322 19.0399 25.497 19.106 25.4877C19.1722 25.4784 19.2392 25.4958 19.2925 25.536L20.3025 26.293L23.9025 23.593L8.09755 11.742C8.06665 11.7184 8.04162 11.6879 8.02439 11.6531C8.00716 11.6182 7.9982 11.5799 7.9982 11.541C7.9982 11.5021 8.00716 11.4637 8.02439 11.4289C8.04162 11.394 8.06665 11.3636 8.09755 11.34L9.20755 10.51L9.20955 10.509ZM8.25055 20.328V20.33H12.2655C12.3198 20.3292 12.3726 20.3468 12.4155 20.38L17.6315 24.291C17.6579 24.3107 17.6802 24.3354 17.6971 24.3637C17.7139 24.392 17.725 24.4233 17.7297 24.4559C17.7345 24.4885 17.7327 24.5217 17.7246 24.5536C17.7166 24.5856 17.7022 24.6156 17.6825 24.642C17.6629 24.6684 17.6381 24.6906 17.6098 24.7075C17.5815 24.7243 17.5502 24.7354 17.5176 24.7402C17.485 24.7449 17.4518 24.7432 17.4199 24.7351C17.388 24.727 17.3579 24.7127 17.3315 24.693L12.1855 20.832H9.00455L16.2855 26.292L21.3155 22.52C21.3419 22.5001 21.372 22.4857 21.404 22.4775C21.4359 22.4693 21.4692 22.4674 21.5019 22.4721C21.5346 22.4767 21.566 22.4878 21.5945 22.5046C21.6229 22.5214 21.6477 22.5436 21.6675 22.57C21.6874 22.5964 21.7018 22.6264 21.71 22.6584C21.7183 22.6904 21.7201 22.7236 21.7155 22.7563C21.7108 22.789 21.6998 22.8205 21.683 22.8489C21.6662 22.8773 21.6439 22.9021 21.6175 22.922L16.4365 26.806C16.3933 26.8384 16.3406 26.856 16.2865 26.856C16.2321 26.8565 16.179 26.8389 16.1355 26.806L8.09855 20.781C8.05899 20.7805 8.02011 20.7707 7.98508 20.7523C7.95004 20.734 7.91984 20.7076 7.89694 20.6753C7.87403 20.6431 7.85908 20.6059 7.85329 20.5667C7.8475 20.5276 7.85104 20.4877 7.86362 20.4501C7.87621 20.4126 7.89748 20.3787 7.9257 20.3509C7.95392 20.3232 7.98829 20.3026 8.02601 20.2906C8.06373 20.2787 8.10373 20.2759 8.14275 20.2824C8.18178 20.2889 8.21871 20.3045 8.25055 20.328Z" fill="white"/>
</svg>
