<svg width="32" height="32" viewBox="0 0 32 32" fill="none" xmlns="http://www.w3.org/2000/svg">
<path d="M16 32C24.8366 32 32 24.8366 32 16C32 7.16344 24.8366 0 16 0C7.16344 0 0 7.16344 0 16C0 24.8366 7.16344 32 16 32Z" fill="#1A1F36"/>
<path d="M18.5248 14.4642C18.6662 14.4645 18.8022 14.4102 18.9045 14.3125C19.0067 14.2149 19.0673 14.0815 19.0735 13.9402C19.0797 13.799 19.0311 13.6608 18.9377 13.5545C18.8444 13.4483 18.7137 13.3823 18.5728 13.3702H14.7328V12.4102C14.6952 12.2774 14.6152 12.1605 14.5051 12.0773C14.3951 11.994 14.2608 11.949 14.1228 11.949C13.9848 11.949 13.8505 11.994 13.7404 12.0773C13.6303 12.1605 13.5504 12.2774 13.5128 12.4102V13.3702H12.4858C12.3407 13.3702 12.2016 13.4278 12.099 13.5304C11.9964 13.633 11.9388 13.7721 11.9388 13.9172C11.9388 14.0623 11.9964 14.2014 12.099 14.304C12.2016 14.4066 12.3407 14.4642 12.4858 14.4642H13.5138V17.8042C13.5185 18.6446 13.855 19.4491 14.45 20.0426C15.045 20.6361 15.8504 20.9706 16.6908 20.9732C17.3915 20.9625 18.068 20.7155 18.6108 20.2722L18.8408 20.0802C18.9148 20.0283 18.977 19.9614 19.0234 19.8839C19.0699 19.8063 19.0994 19.7198 19.1101 19.6301C19.1209 19.5403 19.1126 19.4493 19.0858 19.363C19.059 19.2767 19.0143 19.197 18.9546 19.1291C18.8949 19.0612 18.8216 19.0067 18.7394 18.9691C18.6573 18.9314 18.5681 18.9115 18.4777 18.9107C18.3873 18.9099 18.2978 18.9281 18.2149 18.9642C18.132 19.0003 18.0577 19.0534 17.9968 19.1202L17.8238 19.2642C17.5489 19.4917 17.2139 19.6346 16.8594 19.6754C16.5049 19.7163 16.1462 19.6533 15.8268 19.4942C15.5001 19.3385 15.2241 19.0937 15.0306 18.788C14.837 18.4823 14.7338 18.128 14.7328 17.7662V14.4642H18.5248ZM24.7648 18.1892C24.7775 18.1273 24.7779 18.0636 24.7659 18.0016C24.7539 17.9396 24.7298 17.8805 24.6949 17.8279C24.6601 17.7752 24.6152 17.7299 24.5629 17.6946C24.5105 17.6593 24.4517 17.6347 24.3898 17.6222H24.1498C24.0431 17.6218 23.9394 17.6577 23.8558 17.724C23.7722 17.7904 23.7136 17.8832 23.6898 17.9872C23.4568 19.0063 23.013 19.9653 22.387 20.8025C21.761 21.6398 20.9666 22.3366 20.055 22.8483C19.1434 23.3599 18.1347 23.675 17.0939 23.7733C16.0532 23.8716 15.0034 23.7508 14.0121 23.4188C13.0208 23.0868 12.11 22.5509 11.3384 21.8457C10.5667 21.1404 9.9513 20.2814 9.53172 19.3239C9.11213 18.3664 8.89768 17.3317 8.90216 16.2863C8.90665 15.2409 9.12998 14.208 9.55778 13.2542C9.90189 12.4235 10.4063 11.6687 11.0422 11.033C11.6781 10.3973 12.433 9.89308 13.2638 9.5492C14.8846 8.82556 16.7087 8.69647 18.4153 9.18462C20.1219 9.67277 21.6018 10.7469 22.5948 12.2182C22.6651 12.3208 22.7724 12.392 22.8942 12.417C23.016 12.442 23.1428 12.4188 23.2478 12.3522L23.3338 12.2942C23.4491 12.2213 23.531 12.1058 23.5617 11.9729C23.5924 11.84 23.5695 11.7003 23.4978 11.5842C22.4145 9.98973 20.8292 8.80331 18.994 8.21367C17.1587 7.62404 15.179 7.66505 13.3698 8.3302C12.222 8.72465 11.1776 9.37192 10.3135 10.2242C9.44947 11.0765 8.78794 12.112 8.37778 13.2542C7.95152 14.3568 7.75766 15.5357 7.80837 16.7168C7.85908 17.8979 8.15326 19.0557 8.67246 20.1178C9.19166 21.1799 9.92469 22.1232 10.8256 22.8887C11.7265 23.6541 12.7758 24.2252 13.9078 24.5661C15.0397 24.907 16.2299 25.0104 17.4037 24.8697C18.5775 24.729 19.7095 24.3473 20.7289 23.7486C21.7482 23.1499 22.6329 22.347 23.3274 21.3904C24.0219 20.4337 24.5112 19.3439 24.7648 18.1892ZM16.8738 4.9502H15.9138C14.1791 5.02308 12.4838 5.48972 10.9562 6.31478C9.42866 7.13984 8.10883 8.30167 7.09672 9.71231C6.0846 11.1229 5.40675 12.7454 5.11448 14.4568C4.82221 16.1682 4.92319 17.9236 5.40978 19.5902C5.45183 19.729 5.5473 19.8455 5.67519 19.9139C5.80309 19.9824 5.95294 19.9972 6.09178 19.9552H6.16878C6.28485 19.8991 6.3774 19.8039 6.43009 19.6862C6.48278 19.5686 6.49223 19.4361 6.45678 19.3122C5.82076 17.1338 5.91838 14.8068 6.73463 12.6893C7.55088 10.5718 9.04049 8.78138 10.9741 7.59357C12.9078 6.40575 15.1782 5.88644 17.436 6.11558C19.6937 6.34472 21.8136 7.30961 23.4691 8.86171C25.1247 10.4138 26.2242 12.467 26.5984 14.7053C26.9725 16.9436 26.6006 19.2428 25.5399 21.249C24.4792 23.2552 22.7884 24.8571 20.728 25.8081C18.6676 26.7591 16.3516 27.0065 14.1368 26.5122C14.041 26.4919 13.9414 26.4991 13.8495 26.5331C13.7576 26.5671 13.6773 26.6264 13.6178 26.7042C13.5584 26.7783 13.5189 26.8663 13.5031 26.9599C13.4872 27.0535 13.4956 27.1496 13.5274 27.2391C13.5591 27.3285 13.6132 27.4084 13.6845 27.4711C13.7558 27.5338 13.842 27.5772 13.9348 27.5972C15.4611 27.8768 17.0284 27.8429 18.5411 27.4974C20.0539 27.1519 21.4805 26.5021 22.7341 25.5876C23.9877 24.6731 25.0421 23.5129 25.8329 22.1779C26.6238 20.8428 27.1346 19.3607 27.3343 17.8219C27.534 16.2831 27.4184 14.7197 26.9945 13.227C26.5706 11.7343 25.8473 10.3435 24.8687 9.13928C23.8901 7.93506 22.6766 6.94265 21.3021 6.22246C19.9276 5.50228 18.4209 5.06941 16.8738 4.9502Z" fill="white"/>
</svg>
