<svg width="32" height="32" viewBox="0 0 32 32" fill="none" xmlns="http://www.w3.org/2000/svg">
<path d="M16 32C24.8366 32 32 24.8366 32 16C32 7.16344 24.8366 0 16 0C7.16344 0 0 7.16344 0 16C0 24.8366 7.16344 32 16 32Z" fill="#7324F0"/>
<path d="M27.675 13.462V13C26.9174 13.0015 26.1883 13.2892 25.6339 13.8055C25.0794 14.3217 24.7405 15.0284 24.685 15.784C24.6315 15.0295 24.2945 14.3231 23.7418 13.8067C23.189 13.2903 22.4614 13.0021 21.705 13V13.462C22.3781 13.462 23.0237 13.7294 23.4996 14.2054C23.9756 14.6813 24.243 15.3269 24.243 16C24.2439 16.3336 24.1789 16.664 24.0517 16.9723C23.9245 17.2807 23.7376 17.5608 23.5017 17.7967C23.2658 18.0326 22.9857 18.2195 22.6773 18.3467C22.369 18.4739 22.0386 18.5389 21.705 18.538V19C22.4626 18.9985 23.1917 18.7108 23.7461 18.1945C24.3006 17.6783 24.6395 16.9716 24.695 16.216C24.7489 16.9722 25.0873 17.6798 25.6421 18.1964C26.1969 18.713 26.9269 19.0001 27.685 19V18.538C27.0121 18.5377 26.3668 18.2702 25.891 17.7943C25.4153 17.3183 25.148 16.6729 25.148 16C25.1469 15.6673 25.2115 15.3377 25.338 15.03C25.4645 14.7224 25.6504 14.4426 25.8851 14.2069C26.1198 13.9712 26.3988 13.784 26.7059 13.6562C27.013 13.5284 27.3423 13.4624 27.675 13.462ZM11.643 19V18.656L11.633 16H11.19V19H11.643ZM17.643 13C15.99 13 14.643 14.348 14.643 16C14.643 17.652 15.99 19 17.643 19C18.4386 19 19.2017 18.6839 19.7643 18.1213C20.3269 17.5587 20.643 16.7956 20.643 16C20.643 15.2044 20.3269 14.4413 19.7643 13.8787C19.2017 13.3161 18.4386 13 17.643 13ZM17.643 18.538C17.3055 18.5447 16.9701 18.484 16.6564 18.3595C16.3427 18.235 16.0569 18.0492 15.8159 17.8129C15.5749 17.5766 15.3834 17.2946 15.2527 16.9834C15.122 16.6722 15.0546 16.338 15.0546 16.0005C15.0546 15.663 15.122 15.3288 15.2527 15.0176C15.3834 14.7064 15.5749 14.4244 15.8159 14.1881C16.0569 13.9518 16.3427 13.766 16.6564 13.6415C16.9701 13.517 17.3055 13.4563 17.643 13.463C18.3158 13.4633 18.9609 13.7306 19.4366 14.2064C19.9124 14.6821 20.1797 15.3272 20.18 16C20.1809 16.3335 20.1159 16.6638 19.9888 16.9721C19.8616 17.2804 19.6748 17.5605 19.439 17.7963C19.2033 18.0322 18.9233 18.2191 18.615 18.3464C18.3068 18.4737 17.9765 18.5388 17.643 18.538ZM9.538 13C7.885 13 6.538 14.348 6.538 16C6.53642 16.6726 6.26851 17.3173 5.79289 17.7929C5.31726 18.2685 4.67263 18.5364 4 18.538V19C5.652 19 7 17.652 7 16C7.00158 15.3274 7.26949 14.6827 7.74511 14.2071C8.22074 13.7315 8.86537 13.4636 9.538 13.462H13.393V13H9.538Z" fill="white"/>
</svg>
