<svg width="32" height="32" viewBox="0 0 32 32" fill="none" xmlns="http://www.w3.org/2000/svg">
<path d="M16 32C24.8366 32 32 24.8366 32 16C32 7.16344 24.8366 0 16 0C7.16344 0 0 7.16344 0 16C0 24.8366 7.16344 32 16 32Z" fill="black"/>
<path d="M23.265 12.35L21.967 10.032L24.482 10.033C24.5186 10.0349 24.5542 10.0455 24.5858 10.0639C24.6175 10.0824 24.6443 10.1081 24.664 10.139L25.154 10.949L26 12.35H23.265ZM18.613 26.39C18.553 26.5 18.473 26.5 18.447 26.5H17.42L15.876 26.499L19.871 19.287C19.9033 19.2284 19.9198 19.1624 19.919 19.0955C19.9183 19.0285 19.9002 18.9629 19.8666 18.9051C19.833 18.8472 19.7849 18.799 19.7272 18.7652C19.6694 18.7313 19.6039 18.713 19.537 18.712L12.727 18.721L11.373 16.363H21.298L21.314 16.361C21.353 16.359 21.3915 16.3509 21.428 16.337L21.453 16.327C21.5304 16.2934 21.5944 16.235 21.635 16.161L23.27 13.122H25.97L18.613 26.39ZM15.211 26.116L14.888 25.582C14.475 24.897 13.946 24.019 13.886 23.922C13.866 23.89 13.856 23.811 13.899 23.734L16.243 19.488L18.884 19.485L15.211 26.116ZM10.708 21.603L9.395 19.26L10.718 16.767L12.045 19.076L10.708 21.604V21.603ZM8.946 21.968H7.516C7.47982 21.9656 7.4447 21.9547 7.41346 21.9363C7.38221 21.9179 7.35568 21.8925 7.336 21.862L6.909 21.155L6 19.65H8.734L10.032 21.968H8.946ZM13.386 5.611C13.446 5.5 13.526 5.5 13.551 5.5H16.133L12.127 12.712L12.119 12.732C12.1077 12.7558 12.0986 12.7805 12.092 12.806L12.084 12.841C12.0816 12.8552 12.0803 12.8696 12.08 12.884L12.078 12.904C12.078 12.908 12.078 12.913 12.08 12.917C12.0798 12.9311 12.0812 12.9452 12.084 12.959C12.085 12.9711 12.087 12.9832 12.09 12.995L12.1 13.031C12.1083 13.054 12.1184 13.0764 12.13 13.098C12.1422 13.12 12.1573 13.1402 12.175 13.158C12.1907 13.1767 12.2084 13.1935 12.228 13.208C12.238 13.217 12.25 13.225 12.261 13.232L12.273 13.241C12.277 13.244 12.282 13.244 12.287 13.247C12.307 13.257 12.327 13.266 12.349 13.272L12.372 13.279C12.4004 13.2862 12.4297 13.2899 12.459 13.29H12.633L19.271 13.281C19.447 13.588 19.775 14.166 20.054 14.657L20.586 15.592H10.706L10.694 15.594C10.6256 15.5949 10.5588 15.6141 10.5004 15.6496C10.442 15.6852 10.3942 15.7357 10.362 15.796L8.726 18.88H6.03C7.208 16.752 13.307 5.75 13.386 5.61V5.611ZM16.793 5.893L17.033 6.29C17.454 6.989 18.049 7.975 18.113 8.078C18.133 8.11 18.141 8.189 18.099 8.266L15.756 12.51L13.116 12.513L16.793 5.893ZM21.29 10.395L22.603 12.74L21.264 15.228L20.72 14.271C20.352 13.624 20.084 13.152 19.933 12.889C20.22 12.364 20.974 10.974 21.29 10.395Z" fill="white"/>
</svg>
