<svg width="32" height="32" viewBox="0 0 32 32" fill="none" xmlns="http://www.w3.org/2000/svg">
<path d="M16 32C24.8366 32 32 24.8366 32 16C32 7.16344 24.8366 0 16 0C7.16344 0 0 7.16344 0 16C0 24.8366 7.16344 32 16 32Z" fill="#1D9AD7"/>
<path fill-rule="evenodd" clip-rule="evenodd" d="M26 12.2121C24.991 11.1581 22.918 10.2761 19.052 9.73511C17.833 9.56443 16.6091 9.43137 15.382 9.33611C14.429 9.27911 13.504 9.22211 12.608 9.22211C11.123 11.4421 9.72198 14.1191 8.48898 17.3361C7.14398 20.8661 5.93998 24.3401 5.09998 27.5001H4.84798C4.93198 24.1121 5.49198 20.2691 6.64098 16.2831C7.39798 13.6931 8.29398 11.4141 9.30298 9.42211C4.76298 9.90611 1.51298 11.3011 0.000976562 13.2931C1.28998 10.1331 5.12798 7.45711 10.984 6.51811C14.094 1.87711 17.764 -0.201893 20.818 0.710107C21.882 1.02311 22.779 1.70611 23.508 2.67411C23.423 2.61711 23.339 2.56011 23.228 2.53211C20.986 1.62111 17.96 2.93011 15.018 6.17611H15.158C21.742 6.14811 25.076 8.93811 26.001 12.2121H26ZM17.763 16.4821C19.556 16.4821 21.013 17.9911 21.013 19.8421C21.013 21.6921 19.556 23.2011 17.763 23.2011C15.97 23.2011 14.513 21.6921 14.513 19.8411C14.513 17.9631 15.97 16.4821 17.763 16.4821Z" fill="white"/>
</svg>
