<svg width="32" height="32" viewBox="0 0 32 32" fill="none" xmlns="http://www.w3.org/2000/svg">
<path d="M16 32C24.8366 32 32 24.8366 32 16C32 7.16344 24.8366 0 16 0C7.16344 0 0 7.16344 0 16C0 24.8366 7.16344 32 16 32Z" fill="#F7931E"/>
<path d="M16 4C9.373 4 4 9.373 4 16C4 22.627 9.373 28 16 28C22.627 28 28 22.627 28 16C28 12.8174 26.7357 9.76515 24.4853 7.51472C22.2348 5.26428 19.1826 4 16 4ZM22 9.813C22.5967 9.813 23.169 10.0501 23.591 10.472C24.0129 10.894 24.25 11.4663 24.25 12.063V15.437C24.25 16.0337 24.0129 16.606 23.591 17.028C23.169 17.4499 22.5967 17.687 22 17.687H19.214L19.034 18.531C19.0095 18.6344 18.9519 18.727 18.8699 18.7947C18.788 18.8624 18.6862 18.9015 18.58 18.906H18.017C17.9704 18.908 17.9241 18.8989 17.8817 18.8794C17.8394 18.8599 17.8023 18.8307 17.7735 18.794C17.7447 18.7574 17.725 18.7145 17.716 18.6687C17.7071 18.623 17.7091 18.5758 17.722 18.531L17.902 17.688H16.589L16.409 18.531C16.3845 18.6344 16.3269 18.727 16.2449 18.7947C16.163 18.8624 16.0612 18.9015 15.955 18.906H15.392C15.3454 18.908 15.2991 18.8989 15.2567 18.8794C15.2144 18.8599 15.1773 18.8307 15.1485 18.794C15.1197 18.7574 15.1 18.7145 15.091 18.6687C15.0821 18.623 15.0841 18.5758 15.097 18.531L15.277 17.688H13.87L12.634 23.5H9.634L11.826 13.187H14.826L14.348 15.437H20.125C20.746 15.437 21.25 14.934 21.25 14.313V13.187C21.25 12.567 20.746 12.063 20.125 12.063H7.75L9.625 9.813H16.951L17.13 8.969C17.1545 8.86558 17.2121 8.77299 17.2941 8.70531C17.376 8.63762 17.4778 8.59854 17.584 8.594H18.147C18.1936 8.59203 18.2399 8.60115 18.2823 8.62062C18.3246 8.64008 18.3617 8.66933 18.3905 8.70596C18.4193 8.74259 18.439 8.78554 18.448 8.83127C18.4569 8.87701 18.4549 8.92421 18.442 8.969L18.263 9.813H19.576L19.755 8.969C19.7795 8.86558 19.8371 8.77299 19.9191 8.70531C20.001 8.63762 20.1028 8.59854 20.209 8.594H20.772C20.8186 8.59203 20.8649 8.60115 20.9073 8.62062C20.9496 8.64008 20.9867 8.66933 21.0155 8.70596C21.0443 8.74259 21.064 8.78554 21.073 8.83127C21.0819 8.87701 21.0799 8.92421 21.067 8.969L20.888 9.813H22Z" fill="white"/>
</svg>
