<svg width="32" height="32" viewBox="0 0 32 32" fill="none" xmlns="http://www.w3.org/2000/svg">
<path d="M16 32C24.8366 32 32 24.8366 32 16C32 7.16344 24.8366 0 16 0C7.16344 0 0 7.16344 0 16C0 24.8366 7.16344 32 16 32Z" fill="#2B77B3"/>
<path d="M27.0004 16.0392C26.9534 22.1472 22.0034 27.0452 15.9234 26.9992C9.83837 26.9542 4.95137 21.9822 5.00037 15.8872C5.05037 9.85024 10.0144 4.96024 16.0504 5.00024C22.1304 5.04124 27.0444 9.99624 27.0004 16.0402V16.0392ZM5.79637 16.0042C5.80737 21.6242 10.3544 26.1612 15.9854 26.1742C21.6224 26.1842 26.2214 21.6162 26.2024 15.9902C26.1814 10.1302 21.3274 5.71024 15.7404 5.80624C10.3384 5.89824 5.78537 10.4902 5.79637 16.0042ZM18.6814 11.2282L18.2744 12.5302C17.5164 12.4052 16.8144 12.2562 16.1034 12.1862C15.6814 12.1452 15.2434 12.2552 15.0804 12.7302C14.9124 13.2172 14.8924 13.7362 15.2954 14.1122C15.7094 14.4972 16.1954 14.8022 16.6494 15.1442C17.0664 15.4582 17.5254 15.7322 17.8894 16.0992C18.8764 17.0952 19.0514 18.3032 18.6464 19.6052C18.4064 20.3772 17.8344 20.8652 17.1024 21.1612C15.9824 21.6152 14.0754 21.3912 13.0044 20.6712L13.4744 19.3072C14.1564 19.4872 14.7804 19.7032 15.4224 19.8052C16.0344 19.9022 16.6754 19.8082 16.9894 19.1832C17.3054 18.5532 17.2054 17.8902 16.7104 17.3842C16.3284 16.9942 15.8494 16.6972 15.4024 16.3722C15.1044 16.1562 14.7714 15.9862 14.4814 15.7602C13.9191 15.3303 13.5187 14.7229 13.3453 14.0366C13.172 13.3504 13.2358 12.6256 13.5264 11.9802C13.6545 11.672 13.8549 11.3993 14.1108 11.185C14.3667 10.9707 14.6705 10.8212 14.9964 10.7492C16.2514 10.4512 17.4684 10.5862 18.6814 11.2292V11.2282ZM10.6014 15.8182C10.6014 16.1528 10.4694 16.4739 10.234 16.7117C9.99863 16.9495 9.67893 17.0848 9.34437 17.0882C8.64437 17.0912 8.04637 16.4812 8.06237 15.7842C8.07554 15.4499 8.21764 15.1336 8.45887 14.9017C8.7001 14.6698 9.02174 14.5402 9.35637 14.5402C10.0564 14.5502 10.6064 15.1152 10.6024 15.8182H10.6014ZM22.6944 14.5752C23.3924 14.5742 23.9124 15.0892 23.9214 15.7912C23.9252 15.9609 23.8951 16.1295 23.8326 16.2873C23.7701 16.445 23.6766 16.5886 23.5576 16.7095C23.4386 16.8305 23.2966 16.9263 23.1399 16.9914C22.9832 17.0564 22.815 17.0894 22.6454 17.0882C22.3105 17.0827 21.9914 16.9455 21.757 16.7063C21.5227 16.467 21.392 16.1451 21.3934 15.8102C21.3934 15.0782 21.9234 14.5752 22.6944 14.5752Z" fill="white"/>
</svg>
