<svg width="32" height="32" viewBox="0 0 32 32" fill="none" xmlns="http://www.w3.org/2000/svg">
<path d="M16 32C24.8366 32 32 24.8366 32 16C32 7.16344 24.8366 0 16 0C7.16344 0 0 7.16344 0 16C0 24.8366 7.16344 32 16 32Z" fill="#00843D"/>
<path d="M16.0061 5.60011C16.4001 5.60011 16.7871 5.70311 17.1281 5.90011L24.2881 10.0341C24.6294 10.2313 24.9128 10.5148 25.1097 10.8563C25.3067 11.1977 25.4103 11.5849 25.4101 11.9791V20.4131C25.4101 21.2151 24.9831 21.9561 24.2881 22.3571L17.1271 26.4921C16.7858 26.6891 16.3987 26.7929 16.0046 26.7929C15.6105 26.7929 15.2234 26.6891 14.8821 26.4921L7.72011 22.3571C7.37883 22.1601 7.09541 21.8767 6.89829 21.5355C6.70117 21.1943 6.5973 20.8072 6.59711 20.4131V11.9791C6.59711 11.1771 7.02511 10.4361 7.72011 10.0341L14.8801 5.90011C15.2221 5.70311 15.6101 5.59911 16.0031 5.59911H16.0051L16.0061 5.60011ZM16.0041 4.03911C15.3364 4.0395 14.6805 4.21537 14.1021 4.54911L6.94011 8.68211C6.36222 9.01692 5.88232 9.49754 5.54838 10.0759C5.21443 10.6543 5.03814 11.3102 5.03711 11.9781V20.4121C5.03814 21.08 5.21443 21.7359 5.54838 22.3143C5.88232 22.8927 6.36222 23.3733 6.94011 23.7081L14.1001 27.8421C15.2781 28.5221 16.7291 28.5221 17.9061 27.8421L25.0671 23.7081C25.645 23.3733 26.1249 22.8927 26.4588 22.3143C26.7928 21.7359 26.9691 21.08 26.9701 20.4121V11.9781C26.9691 11.3102 26.7928 10.6543 26.4588 10.0759C26.1249 9.49754 25.645 9.01692 25.0671 8.68211L17.9071 4.54711C17.3282 4.21304 16.6715 4.03715 16.0031 4.03711L16.0041 4.03911Z" fill="white"/>
<path d="M15.127 17.5201C15.0447 17.5202 14.9639 17.4986 14.8926 17.4576C14.8213 17.4165 14.7621 17.3573 14.721 17.2861L13.86 15.7931C13.8189 15.7219 13.7973 15.6412 13.7973 15.5591C13.7973 15.4769 13.8189 15.3962 13.86 15.3251L14.721 13.8321C14.7621 13.7608 14.8213 13.7017 14.8926 13.6606C14.9639 13.6195 15.0447 13.598 15.127 13.5981H16.885C16.967 13.5983 17.0476 13.6201 17.1187 13.6611C17.1897 13.7022 17.2488 13.7611 17.29 13.8321L18.152 15.3251C18.1931 15.3962 18.2147 15.4769 18.2147 15.5591C18.2147 15.6412 18.1931 15.7219 18.152 15.7931L17.29 17.2861C17.2489 17.3572 17.1899 17.4162 17.1188 17.4573C17.0477 17.4984 16.9671 17.52 16.885 17.5201H15.127ZM12.778 15.1691C12.8602 15.169 12.941 15.1474 13.0122 15.1063C13.0835 15.0652 13.1427 15.0062 13.184 14.9351L14.045 13.4421C14.0861 13.3709 14.1077 13.2902 14.1077 13.2081C14.1077 13.1259 14.0861 13.0452 14.045 12.9741L12.971 11.1131L10.874 12.2571C10.7988 12.2983 10.7364 12.3593 10.6935 12.4336C10.6507 12.5078 10.629 12.5924 10.631 12.6781C10.648 13.5161 10.746 14.3501 10.922 15.1691H12.778ZM19.233 15.1691C19.1509 15.169 19.0702 15.1474 18.9991 15.1063C18.9281 15.0652 18.869 15.0062 18.828 14.9351L17.966 13.4421C17.9249 13.3709 17.9033 13.2902 17.9033 13.2081C17.9033 13.1259 17.9249 13.0452 17.966 12.9741L19.04 11.1131L21.136 12.2571C21.2112 12.2981 21.2737 12.3589 21.3167 12.433C21.3598 12.507 21.3816 12.5915 21.38 12.6771C21.3629 13.5151 21.2658 14.3496 21.09 15.1691H19.233ZM16.23 9.57808C16.1613 9.54062 16.0842 9.521 16.006 9.521C15.9277 9.521 15.8507 9.54062 15.782 9.57808L13.656 10.7381L14.722 12.5841C14.763 12.6552 14.8221 12.7142 14.8931 12.7553C14.9642 12.7964 15.0449 12.818 15.127 12.8181H16.885C16.9671 12.8181 17.0478 12.7965 17.1189 12.7554C17.19 12.7144 17.249 12.6553 17.29 12.5841L18.356 10.7391L16.23 9.57909V9.57808ZM11.116 15.9491C11.5171 17.3759 12.1579 18.7241 13.011 19.9361L14.046 18.1441C14.0871 18.0729 14.1087 17.9922 14.1087 17.9101C14.1087 17.8279 14.0871 17.7472 14.046 17.6761L13.184 16.1831C13.1429 16.112 13.0839 16.0529 13.0128 16.0119C12.9417 15.9708 12.8611 15.9491 12.779 15.9491H11.116ZM20.894 15.9491C20.4932 17.3758 19.8528 18.7241 19 19.9361L17.965 18.1441C17.9239 18.0729 17.9023 17.9922 17.9023 17.9101C17.9023 17.8279 17.9239 17.7472 17.965 17.6761L18.828 16.1831C18.869 16.112 18.9281 16.0529 18.9991 16.0119C19.0702 15.9708 19.1509 15.9491 19.233 15.9491H20.895H20.894ZM15.127 18.3001C15.0447 18.3 14.9639 18.3215 14.8926 18.3626C14.8213 18.4037 14.7621 18.4628 14.721 18.5341L13.521 20.6141C14.1672 21.4171 14.9053 22.1417 15.72 22.7731C15.8021 22.8363 15.9029 22.8705 16.0065 22.8705C16.1101 22.8705 16.2108 22.8363 16.293 22.7731C17.1074 22.1413 17.8451 21.4164 18.491 20.6131L17.291 18.5341C17.2499 18.463 17.1909 18.4039 17.1198 18.3629C17.0487 18.3218 16.9681 18.3001 16.886 18.3001H15.126H15.127Z" fill="white"/>
</svg>
