<svg width="32" height="32" viewBox="0 0 32 32" fill="none" xmlns="http://www.w3.org/2000/svg">
<path d="M16 32C24.8366 32 32 24.8366 32 16C32 7.16344 24.8366 0 16 0C7.16344 0 0 7.16344 0 16C0 24.8366 7.16344 32 16 32Z" fill="#2B5EBB"/>
<path fill-rule="evenodd" clip-rule="evenodd" d="M26 15.9621C25.999 18.2981 24.19 20.1201 21.878 20.1131C19.614 20.1061 17.776 18.2341 17.788 15.9471C17.8 13.6611 19.658 11.7971 21.91 11.8121C24.209 11.8271 26.001 13.6461 26 15.9621ZM9.09002 23.9201C8.69042 23.9204 8.29475 23.8413 7.92594 23.6876C7.55712 23.5338 7.22251 23.3083 6.94149 23.0242C6.66048 22.7401 6.43865 22.4031 6.28889 22.0326C6.13912 21.6622 6.06438 21.2656 6.06901 20.8661C6.07401 19.1601 7.40802 17.7811 9.08502 17.8201C9.56702 17.8311 10.051 18.0111 10.521 18.1581C11.189 18.3671 11.841 18.6261 12.507 18.8441C12.92 18.9801 13.315 18.8841 13.68 18.6581C14.21 18.3281 14.66 17.9301 14.947 17.3461C15.237 16.7521 15.897 16.5311 16.484 16.7831C17.028 17.0171 17.311 17.6101 17.154 18.1861C16.977 18.8331 16.444 19.1811 15.78 19.0651C15.191 18.9621 14.607 18.7721 14.009 18.9891C12.939 19.3781 12.469 20.2641 12.117 21.2751C11.925 21.8281 11.721 22.4091 11.377 22.8651C10.825 23.6011 10.013 23.9241 9.09002 23.9201ZM9.02602 8.08208C10.393 8.08208 11.458 8.88208 11.922 10.1991C12.106 10.7191 12.382 11.2061 12.618 11.7071C13.201 12.9471 14.664 13.0691 15.592 12.7301C16.414 12.4301 17.206 12.9581 17.225 13.8101C17.238 14.4001 16.935 14.8301 16.381 15.0041C15.891 15.1561 15.339 14.9491 15.039 14.5021C14.932 14.3421 14.832 14.1761 14.713 14.0251C13.897 12.9951 12.991 12.7251 11.763 13.1871C11.335 13.3471 10.934 13.5871 10.532 13.8101C10.1688 14.017 9.7665 14.1461 9.35071 14.1894C8.93492 14.2327 8.51468 14.1891 8.11662 14.0614C7.71856 13.9337 7.35136 13.7248 7.03831 13.4477C6.72525 13.1707 6.47316 12.8317 6.29801 12.4521C5.34201 10.4221 6.80202 8.08208 9.02602 8.08208ZM18.556 23.9901C18.544 25.1091 17.631 26.0201 16.541 26.0001C15.488 25.9801 14.608 25.0731 14.581 24.0531C14.552 22.8991 15.4 21.9601 16.579 21.9491C17.707 21.9381 18.569 22.8681 18.557 23.9891L18.556 23.9901ZM14.594 8.02008C14.594 6.88808 15.48 5.99008 16.589 6.00008C17.667 6.01008 18.569 6.93308 18.56 8.01808C18.552 9.15908 17.698 10.0741 16.574 10.0531C15.295 10.0291 14.542 8.99808 14.594 8.02008Z" fill="white"/>
</svg>
