<svg width="32" height="32" viewBox="0 0 32 32" fill="none" xmlns="http://www.w3.org/2000/svg">
<path d="M16 32C24.8366 32 32 24.8366 32 16C32 7.16344 24.8366 0 16 0C7.16344 0 0 7.16344 0 16C0 24.8366 7.16344 32 16 32Z" fill="#4099CD"/>
<path fill-rule="evenodd" clip-rule="evenodd" d="M2.00488 23.76C2.60988 21.996 3.77588 20.086 5.39988 18.2C5.11095 17.816 4.96996 17.3407 5.00273 16.8612C5.0355 16.3818 5.23982 15.9301 5.57831 15.589C5.91681 15.2478 6.36683 15.0399 6.84604 15.0034C7.32524 14.9669 7.80158 15.1041 8.18788 15.39C9.47764 14.2543 10.8494 13.2151 12.2919 12.281C19.2259 7.77801 26.5539 6.34101 30.1279 8.48301C31.1576 10.4142 31.7775 12.5372 31.9489 14.719C30.7949 18.497 26.9829 23.011 21.5509 26.539C17.8039 28.972 13.9409 30.511 10.6179 31.072C6.95565 29.759 3.89492 27.1606 2.00488 23.76ZM5.75488 18.565C3.41088 21.273 2.47188 24.059 3.60788 25.809C5.32388 28.452 11.1279 27.729 16.5689 24.196C22.0109 20.662 25.0309 15.654 23.3149 13.011C21.5979 10.368 15.7949 11.091 10.3529 14.624C9.74988 15.016 9.17588 15.426 8.63588 15.849C8.91285 16.2425 9.03866 16.7226 8.99025 17.2014C8.94184 17.6801 8.72246 18.1254 8.37233 18.4555C8.0222 18.7855 7.5648 18.9783 7.08404 18.9984C6.60327 19.0186 6.13137 18.8647 5.75488 18.565Z" fill="white"/>
</svg>
