<svg width="32" height="32" viewBox="0 0 32 32" fill="none" xmlns="http://www.w3.org/2000/svg">
<path d="M16 32C24.8366 32 32 24.8366 32 16C32 7.16344 24.8366 0 16 0C7.16344 0 0 7.16344 0 16C0 24.8366 7.16344 32 16 32Z" fill="#B2A3F6"/>
<path d="M13.446 12.2871C12.686 12.2871 12.071 11.6861 12.071 10.9451C12.071 10.2041 12.686 9.60209 13.446 9.60209C14.205 9.60209 14.821 10.2031 14.821 10.9451C14.821 11.6871 14.205 12.2871 13.446 12.2871ZM17.373 10.7531C16.614 10.7531 15.998 10.1521 15.998 9.41109C15.998 8.66909 16.614 8.06809 17.373 8.06809C18.133 8.06809 18.748 8.66909 18.748 9.41109C18.748 10.1521 18.133 10.7531 17.373 10.7531ZM18.946 19.9581C18.186 19.9581 17.571 19.3581 17.571 18.6161C17.571 17.8741 18.186 17.2731 18.946 17.2731C19.705 17.2731 20.321 17.8741 20.321 18.6161C20.321 19.3581 19.705 19.9581 18.946 19.9581ZM5.78602 18.0401C5.68403 18.0414 5.58278 18.0226 5.48806 17.9848C5.39334 17.9469 5.30701 17.8908 5.23401 17.8195C5.16101 17.7483 5.10277 17.6634 5.06262 17.5696C5.02247 17.4758 5.0012 17.3751 5.00002 17.2731C5.00002 16.8501 5.35202 16.5061 5.78502 16.5061C6.21802 16.5061 6.57102 16.8501 6.57102 17.2731C6.56985 17.3751 6.54858 17.4758 6.50843 17.5696C6.46828 17.6634 6.41004 17.7483 6.33704 17.8195C6.26403 17.8908 6.1777 17.9469 6.08299 17.9848C5.98827 18.0226 5.88701 18.0414 5.78502 18.0401H5.78602ZM7.94602 23.0281C7.86946 23.029 7.79347 23.0148 7.72238 22.9864C7.65129 22.958 7.58651 22.9158 7.53172 22.8623C7.47693 22.8088 7.43321 22.745 7.40307 22.6747C7.37292 22.6043 7.35694 22.5287 7.35602 22.4521C7.35602 22.1341 7.62002 21.8771 7.94602 21.8771C8.27202 21.8771 8.53602 22.1341 8.53602 22.4521C8.53511 22.5287 8.51912 22.6043 8.48898 22.6747C8.45883 22.745 8.41512 22.8088 8.36033 22.8623C8.30554 22.9158 8.24075 22.958 8.16967 22.9864C8.09858 23.0148 8.02259 23.029 7.94602 23.0281ZM14.231 26.8631C13.905 26.8631 13.641 26.6051 13.641 26.2871C13.641 25.9691 13.905 25.7121 14.231 25.7121C14.557 25.7121 14.821 25.9691 14.821 26.2871C14.821 26.6051 14.557 26.8631 14.231 26.8631ZM24.446 23.4111C24.12 23.4111 23.856 23.1531 23.856 22.8351C23.856 22.5171 24.12 22.2591 24.446 22.2591C24.771 22.2591 25.036 22.5171 25.036 22.8351C25.036 23.1531 24.771 23.4111 24.446 23.4111ZM18.16 22.2611C18.0835 22.262 18.0075 22.2478 17.9364 22.2194C17.8653 22.191 17.8005 22.1488 17.7457 22.0953C17.6909 22.0418 17.6472 21.978 17.6171 21.9077C17.5869 21.8373 17.5709 21.7617 17.57 21.6851C17.57 21.3671 17.835 21.1101 18.16 21.1101C18.485 21.1101 18.75 21.3671 18.75 21.6851C18.7491 21.7617 18.7331 21.8373 18.703 21.9077C18.6728 21.978 18.6291 22.0418 18.5743 22.0953C18.5195 22.1488 18.4548 22.191 18.3837 22.2194C18.3126 22.2478 18.2366 22.262 18.16 22.2611ZM21.696 19.5761C21.37 19.5761 21.106 19.3181 21.106 19.0001C21.106 18.6821 21.37 18.4251 21.696 18.4251C22.021 18.4251 22.286 18.6821 22.286 19.0001C22.286 19.3181 22.021 19.5761 21.696 19.5761ZM17.571 26.8631C17.137 26.8631 16.785 26.5191 16.785 26.0961C16.785 25.6731 17.137 25.3291 17.571 25.3291C18.004 25.3291 18.356 25.6721 18.356 26.0961C18.356 26.5201 18.004 26.8631 17.571 26.8631ZM21.106 17.2731C21.0041 17.2743 20.903 17.2554 20.8084 17.2175C20.7138 17.1796 20.6276 17.1234 20.5547 17.0522C20.4818 16.981 20.4236 16.8961 20.3835 16.8024C20.3434 16.7087 20.3222 16.608 20.321 16.5061C20.321 16.0831 20.672 15.7391 21.106 15.7391C21.54 15.7391 21.891 16.0831 21.891 16.5061C21.8898 16.608 21.8686 16.7087 21.8285 16.8024C21.7884 16.8961 21.7303 16.981 21.6574 17.0522C21.5845 17.1234 21.4983 17.1796 21.4037 17.2175C21.3091 17.2554 21.2079 17.2743 21.106 17.2731ZM22.286 24.9451C22.184 24.9464 22.0828 24.9276 21.9881 24.8898C21.8933 24.8519 21.807 24.7958 21.734 24.7245C21.661 24.6533 21.6028 24.5684 21.5626 24.4746C21.5225 24.3808 21.5012 24.2801 21.5 24.1781C21.5 23.7541 21.852 23.4111 22.285 23.4111C22.719 23.4111 23.071 23.7541 23.071 24.1781C23.0698 24.2801 23.0486 24.3808 23.0084 24.4746C22.9683 24.5684 22.91 24.6533 22.837 24.7245C22.764 24.7958 22.6777 24.8519 22.583 24.8898C22.4883 24.9276 22.387 24.9464 22.285 24.9451H22.286ZM6.76502 21.1101C6.22302 21.1101 5.78302 20.6801 5.78302 20.1511C5.78302 19.6221 6.22302 19.1931 6.76502 19.1931C7.30702 19.1931 7.74702 19.6231 7.74702 20.1511C7.74702 20.6791 7.30702 21.1101 6.76502 21.1101ZM16.195 24.9451C15.435 24.9451 14.82 24.3441 14.82 23.6021C14.82 22.8601 15.435 22.2591 16.195 22.2591C16.954 22.2591 17.57 22.8611 17.57 23.6021C17.57 24.3431 16.954 24.9451 16.195 24.9451ZM8.73002 18.4251C7.97002 18.4251 7.35502 17.8231 7.35502 17.0821C7.35502 16.3411 7.97002 15.7391 8.73002 15.7391C9.49002 15.7391 10.105 16.3401 10.105 17.0821C10.105 17.8241 9.48902 18.4251 8.73002 18.4251ZM16.195 21.4921C15.652 21.4921 15.212 21.0631 15.212 20.5341C15.212 20.0051 15.652 19.5761 16.195 19.5761C16.737 19.5761 17.177 20.0051 17.177 20.5341C17.177 21.0631 16.737 21.4921 16.195 21.4921ZM11.48 13.0561C11.154 13.0561 10.89 12.7981 10.89 12.4801C10.89 12.1621 11.154 11.9041 11.48 11.9041C11.806 11.9041 12.07 12.1621 12.07 12.4801C12.07 12.7981 11.806 13.0561 11.48 13.0561ZM15.212 15.3561C14.562 15.3561 14.034 14.8411 14.034 14.2061C14.034 13.5701 14.562 13.0541 15.212 13.0541C15.862 13.0541 16.39 13.5701 16.39 14.2051C16.39 14.8411 15.863 15.3571 15.212 15.3571V15.3561ZM17.962 16.5061C17.8601 16.5073 17.759 16.4884 17.6644 16.4505C17.5698 16.4126 17.4836 16.3564 17.4107 16.2852C17.3378 16.214 17.2796 16.1291 17.2395 16.0354C17.1994 15.9417 17.1782 15.841 17.177 15.7391C17.177 15.3161 17.528 14.9721 17.962 14.9721C18.396 14.9721 18.747 15.3161 18.747 15.7391C18.7458 15.841 18.7246 15.9417 18.6845 16.0354C18.6444 16.1291 18.5863 16.214 18.5134 16.2852C18.4405 16.3564 18.3543 16.4126 18.2597 16.4505C18.1651 16.4884 18.0639 16.5073 17.962 16.5061ZM19.337 6.91809C19.011 6.91809 18.747 6.66109 18.747 6.34309C18.747 6.02509 19.011 5.76709 19.337 5.76709C19.663 5.76709 19.927 6.02509 19.927 6.34309C19.927 6.66109 19.663 6.91809 19.337 6.91809ZM16.587 6.91709C16.4596 6.91867 16.333 6.89512 16.2147 6.84777C16.0963 6.80042 15.9884 6.7302 15.8972 6.64114C15.806 6.55207 15.7333 6.4459 15.6831 6.3287C15.633 6.21149 15.6065 6.08556 15.605 5.95809C15.6066 5.8307 15.6332 5.70487 15.6834 5.58779C15.7336 5.4707 15.8064 5.36465 15.8976 5.27569C15.9888 5.18673 16.0966 5.1166 16.2149 5.06931C16.3332 5.02203 16.4596 4.9985 16.587 5.00009C16.7145 4.99837 16.841 5.02179 16.9595 5.06902C17.0779 5.11625 17.1858 5.18636 17.2771 5.27533C17.3684 5.3643 17.4413 5.4704 17.4915 5.58755C17.5418 5.70471 17.5685 5.83062 17.57 5.95809C17.5686 6.08564 17.542 6.21166 17.4918 6.32893C17.4416 6.4462 17.3688 6.55241 17.2774 6.64149C17.1861 6.73057 17.0782 6.80077 16.9597 6.84806C16.8412 6.89535 16.7146 6.91881 16.587 6.91709ZM17.177 13.0541C16.743 13.0541 16.392 12.7111 16.392 12.2871C16.392 11.8631 16.743 11.5201 17.177 11.5201C17.611 11.5201 17.962 11.8641 17.962 12.2871C17.962 12.7101 17.611 13.0541 17.177 13.0541ZM9.71202 21.4941C9.06202 21.4941 8.53402 20.9791 8.53402 20.3431C8.53402 19.7071 9.06202 19.1921 9.71202 19.1921C10.362 19.1921 10.89 19.7071 10.89 20.3421C10.89 20.9791 10.363 21.4941 9.71202 21.4941ZM21.105 22.6441C20.455 22.6441 19.927 22.1281 19.927 21.4921C19.927 20.8571 20.454 20.3421 21.105 20.3421C21.756 20.3421 22.283 20.8571 22.283 21.4921C22.283 22.1281 21.755 22.6441 21.105 22.6441ZM19.535 25.3291C18.884 25.3291 18.356 24.8131 18.356 24.1781C18.356 23.5421 18.884 23.0261 19.534 23.0261C20.184 23.0261 20.712 23.5421 20.712 24.1781C20.712 24.8131 20.185 25.3281 19.534 25.3281L19.535 25.3291ZM10.302 25.3291C9.54202 25.3291 8.92702 24.7281 8.92702 23.9861C8.92702 23.2441 9.54302 22.6441 10.302 22.6441C11.061 22.6441 11.677 23.2441 11.677 23.9861C11.677 24.7281 11.061 25.3291 10.302 25.3291ZM6.17702 15.3571C5.52702 15.3571 4.99902 14.8411 4.99902 14.2051C4.99902 13.5701 5.52602 13.0551 6.17702 13.0551C6.82802 13.0551 7.35502 13.5701 7.35502 14.2051C7.35502 14.8411 6.82702 15.3571 6.17702 15.3571Z" fill="white"/>
<path opacity="0.5" d="M12.0703 17.2734C11.2023 17.2734 10.4983 16.5874 10.4983 15.7394C10.4983 14.8924 11.2023 14.2054 12.0713 14.2054C12.9403 14.2054 13.6433 14.8924 13.6433 15.7394C13.6433 16.5874 12.9393 17.2734 12.0713 17.2734H12.0703ZM20.3203 14.9734C19.4523 14.9734 18.7483 14.2864 18.7483 13.4384C18.7483 12.5914 19.4523 11.9044 20.3213 11.9044C21.1893 11.9044 21.8933 12.5914 21.8933 13.4384C21.8933 14.2864 21.1893 14.9724 20.3213 14.9724L20.3203 14.9734ZM24.6413 21.4944C23.9913 21.4944 23.4633 20.9794 23.4633 20.3434C23.4633 19.7074 23.9913 19.1924 24.6413 19.1924C25.2913 19.1924 25.8193 19.7074 25.8193 20.3424C25.8193 20.9794 25.2923 21.4944 24.6413 21.4944ZM25.8213 16.8914C25.6683 16.8931 25.5165 16.8647 25.3745 16.8077C25.2325 16.7508 25.1031 16.6664 24.9937 16.5594C24.8843 16.4524 24.797 16.325 24.7369 16.1843C24.6768 16.0436 24.645 15.8924 24.6433 15.7394C24.6433 15.1044 25.1703 14.5894 25.8213 14.5894C26.4713 14.5894 26.9983 15.1044 26.9983 15.7394C26.9983 16.3754 26.4713 16.8914 25.8213 16.8914ZM21.3033 11.5214C21.1757 11.523 21.0491 11.4994 20.9307 11.452C20.8123 11.4046 20.7044 11.3343 20.6132 11.2451C20.5219 11.1559 20.4492 11.0496 20.3991 10.9323C20.349 10.815 20.3226 10.689 20.3213 10.5614C20.3229 10.434 20.3495 10.3082 20.3997 10.1911C20.4499 10.074 20.5227 9.96797 20.6139 9.87901C20.705 9.79005 20.8129 9.71993 20.9312 9.67264C21.0495 9.62535 21.1759 9.60183 21.3033 9.60341C21.4308 9.60183 21.5573 9.62539 21.6756 9.67274C21.794 9.72009 21.9019 9.7903 21.9931 9.87937C22.0843 9.96843 22.157 10.0746 22.2072 10.1918C22.2573 10.309 22.2839 10.4349 22.2853 10.5624C22.2837 10.6898 22.2571 10.8156 22.2069 10.9327C22.1567 11.0498 22.0839 11.1559 21.9927 11.2448C21.9015 11.3338 21.7937 11.4039 21.6754 11.4512C21.5571 11.4985 21.4307 11.522 21.3033 11.5204V11.5214ZM21.4983 8.45241C21.0653 8.45241 20.7133 8.10941 20.7133 7.68541C20.7133 7.26141 21.0653 6.91841 21.4983 6.91841C21.9323 6.91841 22.2843 7.26241 22.2843 7.68541C22.2843 8.10841 21.9323 8.45241 21.4983 8.45241ZM23.2663 9.21941C22.9403 9.21941 22.6763 8.96141 22.6763 8.64441C22.6763 8.32741 22.9403 8.06841 23.2663 8.06841C23.5923 8.06841 23.8563 8.32641 23.8563 8.64441C23.8563 8.96241 23.5923 9.21941 23.2663 9.21941ZM26.4103 13.8234C26.0853 13.8234 25.8203 13.5654 25.8203 13.2474C25.8203 12.9294 26.0853 12.6714 26.4103 12.6714C26.7353 12.6714 27.0003 12.9294 27.0003 13.2474C27.0003 13.5654 26.7363 13.8234 26.4103 13.8234ZM9.51629 8.83641C9.19029 8.83641 8.92629 8.57941 8.92629 8.26141C8.92629 7.94341 9.19029 7.68541 9.51629 7.68541C9.84229 7.68541 10.1063 7.94341 10.1063 8.26141C10.1063 8.57941 9.84229 8.83641 9.51629 8.83641ZM8.73129 13.8234C8.40529 13.8234 8.14129 13.5654 8.14129 13.2474C8.14129 12.9294 8.40529 12.6714 8.73129 12.6714C9.05729 12.6714 9.32129 12.9294 9.32129 13.2474C9.32129 13.5654 9.05729 13.8234 8.73129 13.8234ZM10.3033 14.5904C9.97729 14.5904 9.71329 14.3324 9.71329 14.0144C9.71329 13.6964 9.97729 13.4384 10.3033 13.4384C10.6293 13.4384 10.8933 13.6964 10.8933 14.0144C10.8933 14.3324 10.6293 14.5904 10.3033 14.5904ZM12.2663 7.30041C11.9403 7.30041 11.6763 7.04241 11.6763 6.72441C11.6763 6.40641 11.9403 6.14941 12.2663 6.14941C12.5923 6.14941 12.8563 6.40641 12.8563 6.72441C12.8563 7.04241 12.5923 7.30041 12.2663 7.30041ZM26.4103 18.8094C26.0853 18.8094 25.8203 18.5514 25.8203 18.2334C25.8203 17.9154 26.0853 17.6584 26.4103 17.6584C26.7353 17.6584 27.0003 17.9154 27.0003 18.2334C27.0003 18.5514 26.7363 18.8094 26.4103 18.8094ZM24.4463 12.6714C23.6863 12.6714 23.0713 12.0714 23.0713 11.3294C23.0713 10.5874 23.6863 9.98641 24.4463 9.98641C25.2053 9.98641 25.8213 10.5874 25.8213 11.3294C25.8213 12.0704 25.2053 12.6714 24.4463 12.6714ZM23.2663 15.7394C23.1389 15.741 23.0125 15.7175 22.8942 15.6702C22.7759 15.6229 22.668 15.5528 22.5769 15.4638C22.4857 15.3749 22.4129 15.2688 22.3627 15.1517C22.3125 15.0346 22.2859 14.9088 22.2843 14.7814C22.2843 14.2514 22.7243 13.8234 23.2663 13.8234C23.3937 13.8218 23.5201 13.8454 23.6384 13.8926C23.7567 13.9399 23.8645 14.0101 23.9557 14.099C24.0469 14.188 24.1197 14.294 24.1699 14.4111C24.2201 14.5282 24.2467 14.654 24.2483 14.7814C24.2467 14.9088 24.2201 15.0346 24.1699 15.1517C24.1197 15.2688 24.0469 15.3749 23.9557 15.4638C23.8645 15.5528 23.7567 15.6229 23.6384 15.6702C23.5201 15.7175 23.3937 15.741 23.2663 15.7394ZM9.91029 11.5204C9.7829 11.522 9.65645 11.4985 9.53816 11.4512C9.41987 11.4039 9.31205 11.3338 9.22086 11.2448C9.12967 11.1559 9.0569 11.0498 9.0067 10.9327C8.9565 10.8156 8.92986 10.6898 8.92829 10.5624C8.92829 10.0324 9.36829 9.60341 9.91029 9.60341C10.4523 9.60341 10.8933 10.0334 10.8933 10.5624C10.8917 10.6899 10.865 10.8158 10.8148 10.9329C10.7645 11.0501 10.6917 11.1562 10.6004 11.2452C10.5091 11.3341 10.4011 11.4043 10.2827 11.4515C10.1643 11.4987 10.0378 11.5221 9.91029 11.5204ZM14.2303 8.83541C14.1029 8.837 13.9765 8.81348 13.8582 8.76619C13.7399 8.7189 13.632 8.64877 13.5409 8.55981C13.4497 8.47085 13.3769 8.3648 13.3267 8.24771C13.2765 8.13063 13.2499 8.0048 13.2483 7.87741C13.2483 7.34741 13.6883 6.91841 14.2313 6.91841C14.7743 6.91841 15.2133 7.34841 15.2133 7.87741C15.2117 8.0048 15.1851 8.13063 15.1349 8.24771C15.0847 8.3648 15.0119 8.47085 14.9207 8.55981C14.8295 8.64877 14.7217 8.7189 14.6034 8.76619C14.4851 8.81348 14.3587 8.837 14.2313 8.83541H14.2303ZM11.6783 9.21941C11.2443 9.21941 10.8933 8.87641 10.8933 8.45241C10.8933 8.02841 11.2443 7.68541 11.6783 7.68541C12.1123 7.68541 12.4633 8.02941 12.4633 8.45241C12.4633 8.87541 12.1123 9.21941 11.6783 9.21941ZM7.35629 12.2874C7.25438 12.2886 7.15324 12.2697 7.05863 12.2318C6.96403 12.1939 6.87782 12.1377 6.80492 12.0665C6.73203 11.9953 6.67388 11.9104 6.63379 11.8167C6.5937 11.723 6.57246 11.6223 6.57129 11.5204C6.57129 11.0974 6.92229 10.7534 7.35629 10.7534C7.79029 10.7534 8.14129 11.0974 8.14129 11.5204C8.14011 11.6223 8.11888 11.723 8.07879 11.8167C8.0387 11.9104 7.98055 11.9953 7.90765 12.0665C7.83476 12.1377 7.74855 12.1939 7.65394 12.2318C7.55934 12.2697 7.4582 12.2886 7.35629 12.2874ZM23.8563 18.4254C23.7544 18.4266 23.6532 18.4077 23.5586 18.3698C23.464 18.3319 23.3778 18.2757 23.3049 18.2045C23.232 18.1333 23.1739 18.0484 23.1338 17.9547C23.0937 17.861 23.0725 17.7603 23.0713 17.6584C23.0713 17.2344 23.4223 16.8914 23.8563 16.8914C24.2903 16.8914 24.6413 17.2344 24.6413 17.6584C24.6401 17.7603 24.6189 17.861 24.5788 17.9547C24.5387 18.0484 24.4805 18.1333 24.4077 18.2045C24.3348 18.2757 24.2486 18.3319 24.1539 18.3698C24.0593 18.4077 23.9582 18.4266 23.8563 18.4254ZM15.4103 18.8094C14.6503 18.8094 14.0353 18.2084 14.0353 17.4664C14.0353 16.7244 14.6513 16.1244 15.4103 16.1244C16.1703 16.1244 16.7853 16.7244 16.7853 17.4664C16.7853 18.2084 16.1703 18.8094 15.4103 18.8094ZM12.8563 19.5764C12.7544 19.5776 12.6532 19.5587 12.5586 19.5208C12.464 19.4829 12.3778 19.4267 12.3049 19.3555C12.232 19.2843 12.1739 19.1994 12.1338 19.1057C12.0937 19.012 12.0725 18.9113 12.0713 18.8094C12.0713 18.3854 12.4223 18.0424 12.8563 18.0424C13.2903 18.0424 13.6413 18.3854 13.6413 18.8094C13.6401 18.9113 13.6189 19.012 13.5788 19.1057C13.5387 19.1994 13.4806 19.2843 13.4077 19.3555C13.3348 19.4267 13.2485 19.4829 13.1539 19.5208C13.0593 19.5587 12.9582 19.5776 12.8563 19.5764ZM13.2483 22.6444C12.5983 22.6444 12.0713 22.1284 12.0713 21.4924C12.0713 20.8574 12.5983 20.3424 13.2483 20.3424C13.8983 20.3424 14.4263 20.8574 14.4263 21.4924C14.4263 22.1284 13.8993 22.6444 13.2483 22.6444ZM13.2483 24.9444C13.0426 24.9468 12.8445 24.8675 12.6973 24.7239C12.5501 24.5802 12.4659 24.3841 12.4633 24.1784C12.4633 23.7544 12.8153 23.4114 13.2483 23.4114C13.6813 23.4114 14.0343 23.7544 14.0343 24.1784C14.0331 24.2804 14.0118 24.3812 13.9717 24.4749C13.9315 24.5687 13.8733 24.6536 13.8003 24.7249C13.7273 24.7961 13.641 24.8522 13.5463 24.8901C13.4515 24.9279 13.3503 24.9467 13.2483 24.9454V24.9444Z" fill="white"/>
</svg>
