<svg width="32" height="32" viewBox="0 0 32 32" fill="none" xmlns="http://www.w3.org/2000/svg">
<path d="M16 32C24.8366 32 32 24.8366 32 16C32 7.16344 24.8366 0 16 0C7.16344 0 0 7.16344 0 16C0 24.8366 7.16344 32 16 32Z" fill="#0FACF3"/>
<path d="M9.4707 9.0157H14.9027C17.0567 9.0157 18.1267 8.9477 19.7327 9.0947C21.3397 9.2647 22.9467 9.9207 23.9867 11.1777C25.2117 12.6377 25.5697 14.6077 25.4887 16.4407C25.4087 18.2637 24.7837 20.1757 23.3507 21.4207C22.0797 22.5647 20.3007 22.9837 18.6127 22.9947C15.3307 23.0057 12.0597 22.9947 8.77771 22.9947C8.41971 22.9717 8.01471 23.0057 7.73771 22.7567C7.25271 22.2707 7.54171 21.2287 8.31571 21.2737C10.1417 21.2177 11.9787 21.2737 13.8057 21.2397C13.7707 19.7007 13.7937 18.1617 13.7937 16.6337C12.3837 16.6217 10.9847 16.6337 9.57571 16.6337C9.26271 16.6217 8.9157 16.6217 8.6737 16.4177C8.3847 16.1577 8.38471 15.7167 8.51171 15.3777C8.67371 15.0037 9.1127 14.9357 9.4827 14.9357C10.9157 14.9237 12.3607 14.9357 13.7927 14.9357C13.8167 13.5317 13.7707 12.1277 13.8167 10.7357C12.2097 10.7247 10.6037 10.7357 8.9967 10.7357C8.6387 10.7247 8.2347 10.7247 7.9567 10.4757C7.6687 10.1017 7.7267 9.5697 7.9687 9.1957C8.43071 8.9697 8.9627 9.0157 9.4707 9.0157ZM15.8047 14.9357C16.4627 14.9467 17.1217 14.8897 17.7807 14.9807C18.5667 15.0937 18.5667 16.4747 17.7687 16.5877C17.1217 16.6897 16.4517 16.6217 15.7927 16.6337C15.8047 17.9687 15.7927 19.2937 15.7927 20.6287C15.8047 20.8557 15.8157 21.1947 16.1047 21.2177C16.8907 21.2857 17.5747 21.2627 18.4627 21.2627C19.7797 21.3197 21.1667 20.9127 22.0907 19.9497C23.0387 18.9427 23.3857 17.5397 23.4087 16.2027C23.4437 14.7207 23.1657 13.0907 22.0787 11.9807C21.0977 10.9847 19.6187 10.6457 18.2427 10.7247C17.4587 10.7247 16.7867 10.7017 16.0587 10.7697C15.8277 10.8377 15.8157 11.1207 15.8047 11.3247V14.9347V14.9357Z" fill="white"/>
</svg>
