<svg width="32" height="32" viewBox="0 0 32 32" fill="none" xmlns="http://www.w3.org/2000/svg">
<path d="M16 32C24.8366 32 32 24.8366 32 16C32 7.16344 24.8366 0 16 0C7.16344 0 0 7.16344 0 16C0 24.8366 7.16344 32 16 32Z" fill="#102044"/>
<path d="M24.248 19.35C24.698 19.523 24.996 19.951 25 20.43C25.0002 20.6307 24.9479 20.8279 24.8483 21.0021C24.7486 21.1763 24.6051 21.3214 24.432 21.423C24.2583 21.5251 24.0611 21.5806 23.8597 21.5841C23.6582 21.5876 23.4592 21.539 23.282 21.443L17.252 24.733C17.2669 24.892 17.2488 25.0524 17.1988 25.2041C17.1488 25.3558 17.0679 25.4955 16.9614 25.6145C16.8548 25.7335 16.7248 25.8291 16.5795 25.8955C16.4342 25.9618 16.2767 25.9974 16.117 26C15.8095 26.0075 15.5116 25.8926 15.2888 25.6805C15.066 25.4684 14.9366 25.1765 14.929 24.869L11.989 23.186H11.922V23.151L8.82402 21.38C8.63058 21.5134 8.40101 21.5846 8.16602 21.584C7.88626 21.5855 7.61539 21.4858 7.40333 21.3033C7.19127 21.1208 7.0523 20.8679 7.01202 20.591C6.97337 20.3143 7.03639 20.033 7.1894 19.7993C7.3424 19.5656 7.57499 19.3953 7.84402 19.32V12.704C7.61767 12.6405 7.41604 12.5095 7.26598 12.3286C7.11592 12.1476 7.02454 11.9252 7.00402 11.691C6.96402 11.213 7.22502 10.76 7.66202 10.553C7.8752 10.4518 8.11399 10.4174 8.34707 10.4543C8.58015 10.4913 8.7966 10.5978 8.96802 10.76L14.938 7.34001C14.912 7.17414 14.9222 7.0046 14.9681 6.84309C15.014 6.68158 15.0944 6.53195 15.2037 6.40454C15.313 6.27713 15.4487 6.17498 15.6014 6.10513C15.7541 6.03529 15.9201 5.99942 16.088 6.00001C16.2608 5.99973 16.4315 6.03804 16.5875 6.11216C16.7436 6.18628 16.8811 6.29432 16.9901 6.4284C17.0991 6.56248 17.1767 6.7192 17.2174 6.88713C17.258 7.05505 17.2606 7.22994 17.225 7.39901L23.053 10.737C23.266 10.545 23.543 10.439 23.832 10.44C23.9896 10.3811 24.1582 10.3574 24.326 10.3706C24.4937 10.3838 24.6565 10.4335 24.803 10.5164C24.9495 10.5992 25.076 10.713 25.1738 10.8499C25.2716 10.9868 25.3383 11.1435 25.3691 11.3089C25.3999 11.4743 25.3941 11.6445 25.3522 11.8074C25.3103 11.9704 25.2332 12.1222 25.1264 12.2521C25.0195 12.3821 24.8856 12.4872 24.7338 12.5599C24.5821 12.6326 24.4163 12.6712 24.248 12.673V19.351V19.35ZM20.13 16.745V22.428L22.802 20.971C22.7187 20.8116 22.6737 20.6351 22.6703 20.4553C22.667 20.2755 22.7055 20.0975 22.7828 19.9351C22.8601 19.7728 22.974 19.6306 23.1157 19.5199C23.2574 19.4091 23.4228 19.3328 23.599 19.297V12.727C23.3364 12.6751 23.0997 12.5339 22.9293 12.3274C22.7589 12.1209 22.6652 11.8618 22.664 11.594C22.664 11.488 22.679 11.382 22.708 11.279L20.175 9.82701V15.111H20.171L20.161 15.457L20.018 15.524L19.105 16.07L19.978 16.59L20.117 16.656L20.121 16.718L20.126 16.745H20.13ZM16.09 8.30901C15.758 8.30901 15.442 8.16901 15.221 7.92201L12.571 9.44101V15.053L13.659 15.701L15.033 14.893C15.0047 14.7444 15.0096 14.5913 15.0474 14.4448C15.0852 14.2983 15.155 14.162 15.2518 14.0456C15.3485 13.9293 15.4698 13.8358 15.607 13.7719C15.7441 13.708 15.8937 13.6752 16.045 13.676C16.1927 13.6757 16.3387 13.7072 16.473 13.7685C16.6073 13.8299 16.7268 13.9195 16.8233 14.0312C16.9197 14.143 16.9909 14.2743 17.032 14.4161C17.073 14.558 17.0829 14.707 17.061 14.853L18.48 15.697L19.532 15.067V9.45801L16.918 7.96101C16.8101 8.07109 16.6812 8.1585 16.5391 8.21809C16.3969 8.27768 16.2442 8.30825 16.09 8.30801V8.30901ZM16.77 16.731L17.853 16.079L16.765 15.43C16.576 15.6136 16.3241 15.7183 16.0606 15.7225C15.7971 15.7268 15.5419 15.6304 15.347 15.453L14.277 16.074L15.342 16.709C15.5373 16.5285 15.7946 16.4301 16.0604 16.4342C16.3263 16.4383 16.5804 16.5446 16.77 16.731ZM9.24202 20.878L11.922 22.414V16.922L11.927 16.745L11.972 16.7L12.196 16.567L13.028 16.079L12.276 15.635L11.927 15.457V15.244H11.923V9.80901L9.29502 11.315C9.45002 11.915 9.09502 12.529 8.49502 12.7V19.324C8.81202 19.416 9.07502 19.639 9.21802 19.935C9.36102 20.232 9.37002 20.575 9.24202 20.878ZM16.09 23.671C16.455 23.671 16.798 23.841 17.016 24.133L19.486 22.783V17.047L18.48 16.447L17.06 17.3C17.07 17.35 17.074 17.4 17.074 17.45C17.074 18.015 16.614 18.472 16.044 18.472C15.8943 18.4721 15.7464 18.4394 15.6107 18.3762C15.4749 18.3129 15.3547 18.2207 15.2584 18.1061C15.1622 17.9914 15.0922 17.857 15.0534 17.7124C15.0146 17.5678 15.008 17.4165 15.034 17.269L13.641 16.443L12.567 17.069V22.783L15.092 24.23C15.302 23.882 15.681 23.67 16.09 23.671Z" fill="white"/>
</svg>
