<svg width="32" height="32" viewBox="0 0 32 32" fill="none" xmlns="http://www.w3.org/2000/svg">
<path d="M16 32C24.8366 32 32 24.8366 32 16C32 7.16344 24.8366 0 16 0C7.16344 0 0 7.16344 0 16C0 24.8366 7.16344 32 16 32Z" fill="#F6C054"/>
<path d="M26.8216 15.5676L16.4315 5.1776C16.3752 5.121 16.3081 5.07609 16.2344 5.04544C16.1606 5.0148 16.0815 4.99902 16.0016 4.99902C15.9217 4.99902 15.8425 5.0148 15.7687 5.04544C15.695 5.07609 15.6279 5.121 15.5716 5.1776L5.17955 15.5686C5.12295 15.625 5.07804 15.692 5.04739 15.7658C5.01675 15.8396 5.00098 15.9187 5.00098 15.9986C5.00098 16.0785 5.01675 16.1576 5.04739 16.2314C5.07804 16.3052 5.12295 16.3722 5.17955 16.4286L15.5695 26.8216C15.6259 26.878 15.6929 26.9228 15.7666 26.9534C15.8403 26.9839 15.9193 26.9997 15.9991 26.9997C16.0788 26.9997 16.1578 26.9839 16.2315 26.9534C16.3052 26.9228 16.3722 26.878 16.4286 26.8216L26.8186 16.4326C26.8759 16.3763 26.9215 16.3093 26.9528 16.2352C26.9841 16.1612 27.0003 16.0818 27.0007 16.0014C27.0011 15.9211 26.9855 15.8415 26.955 15.7672C26.9244 15.6929 26.8794 15.6254 26.8225 15.5686L26.8216 15.5676ZM24.5375 16.0876L16.9216 23.7036V15.9996H15.0736V23.7036L7.45755 16.0876C7.44606 16.0764 7.43693 16.063 7.43069 16.0483C7.42445 16.0335 7.42124 16.0176 7.42124 16.0016C7.42124 15.9856 7.42445 15.9697 7.43069 15.9549C7.43693 15.9402 7.44606 15.9268 7.45755 15.9156L15.9116 7.4626C15.9227 7.45111 15.9361 7.44197 15.9509 7.43574C15.9656 7.4295 15.9815 7.42629 15.9976 7.42629C16.0136 7.42629 16.0295 7.4295 16.0442 7.43574C16.059 7.44197 16.0724 7.45111 16.0835 7.4626L24.5375 15.9156C24.549 15.9268 24.5582 15.9402 24.5644 15.9549C24.5706 15.9697 24.5739 15.9856 24.5739 16.0016C24.5739 16.0176 24.5706 16.0335 24.5644 16.0483C24.5582 16.063 24.549 16.0764 24.5375 16.0876C24.5375 16.0836 24.5375 16.0836 24.5375 16.0876Z" fill="white"/>
</svg>
