<svg width="32" height="32" viewBox="0 0 32 32" fill="none" xmlns="http://www.w3.org/2000/svg">
<path d="M16 32C24.8366 32 32 24.8366 32 16C32 7.16344 24.8366 0 16 0C7.16344 0 0 7.16344 0 16C0 24.8366 7.16344 32 16 32Z" fill="#2B61D1"/>
<path d="M17.963 25.862L16 27L11.782 24.558L13.697 23.449L13.745 23.421L13.818 23.463L17.963 25.862ZM25.5 10.5V12.789L21.348 10.386L20.222 9.734L19.096 10.386L13.818 13.441L12.692 14.093V15.441L10.662 14.265L9.535 13.613L8.409 14.265L6.5 15.371V10.5L16 5L25.5 10.5Z" fill="white"/>
<path d="M25.5 15.3968V21.5078L20.222 24.5638L20.215 24.5598L14.945 21.5078V15.3978L20.222 12.3398L25.5 15.3968ZM12.571 17.9788V21.4928L9.536 23.2498L6.5 21.4928V17.9788L9.536 16.2208L12.571 17.9788Z" fill="white"/>
</svg>
