<svg width="32" height="32" viewBox="0 0 32 32" fill="none" xmlns="http://www.w3.org/2000/svg">
<path d="M16 32C24.8366 32 32 24.8366 32 16C32 7.16344 24.8366 0 16 0C7.16344 0 0 7.16344 0 16C0 24.8366 7.16344 32 16 32Z" fill="#CFA967"/>
<path d="M16.02 16.945V24.938L21.967 23.336L23.364 7.946H16.02V14.478L16.324 13.531H17.12L16.02 16.945ZM8.636 24.469L7 6.5H25L23.364 24.469L15.98 26.5L8.636 24.469ZM13.799 17.676V16.935L11.33 15.951L13.8 14.961V14.219L10.273 15.652V16.244L13.799 17.676ZM21.732 16.244L18.205 17.676V16.935L20.675 15.948L18.205 14.961V14.219L21.732 15.652V16.244ZM16.02 16.944V14.478L14.703 18.585H15.491L16.02 16.944Z" fill="white"/>
</svg>
