<svg width="32" height="32" viewBox="0 0 32 32" fill="none" xmlns="http://www.w3.org/2000/svg">
<path d="M16 32C24.8366 32 32 24.8366 32 16C32 7.16344 24.8366 0 16 0C7.16344 0 0 7.16344 0 16C0 24.8366 7.16344 32 16 32Z" fill="#057BC1"/>
<path d="M16 4C9.373 4 4 9.373 4 16C4 22.627 9.373 28 16 28C22.627 28 28 22.627 28 16C28 12.8174 26.7357 9.76515 24.4853 7.51472C22.2348 5.26428 19.1826 4 16 4ZM20.176 20.527H19.688V23.259H18.048V20.527H15.551V19.512H18.088V17.678C16.7708 18.412 15.2377 18.6605 13.756 18.38C12.936 18.185 12.117 17.737 11.688 16.995C11.2804 16.2695 11.0778 15.4468 11.102 14.615V10.283H12.761V14.771C12.8 15.746 13.424 16.722 14.381 17.015C15.6395 17.304 16.9611 17.0939 18.068 16.429C18.068 15.063 18.048 13.015 18.068 10.283H19.746V19.513H20.176V20.527Z" fill="white"/>
</svg>
