<svg width="32" height="32" viewBox="0 0 32 32" fill="none" xmlns="http://www.w3.org/2000/svg">
<path d="M16 32C24.8366 32 32 24.8366 32 16C32 7.16344 24.8366 0 16 0C7.16344 0 0 7.16344 0 16C0 24.8366 7.16344 32 16 32Z" fill="#005FFA"/>
<path fill-rule="evenodd" clip-rule="evenodd" d="M20.6943 14.5984C20.2514 14.3972 19.7706 14.2932 19.2843 14.2934H14.3673C13.9137 14.2934 13.4788 14.1132 13.1581 13.7925C12.8374 13.4718 12.6573 13.0369 12.6573 12.5834V6.69336H9.23926V14.2934C9.23926 15.2004 9.59958 16.0703 10.241 16.7117C10.8823 17.353 11.7522 17.7134 12.6593 17.7134H17.5753C18.0288 17.7134 18.4637 17.8935 18.7844 18.2142C19.1051 18.5349 19.2853 18.9698 19.2853 19.4234V25.3134H22.7043V17.7134C22.7042 17.0558 22.5146 16.4123 22.1581 15.8598C21.8016 15.3073 21.2933 14.8693 20.6943 14.5984ZM9.35626 19.8034V25.5474H12.7763V23.2224C12.776 22.3155 12.4156 21.4459 11.7742 20.8047C11.1329 20.1635 10.2631 19.8034 9.35626 19.8034ZM19.8803 6.92936H19.1663V9.25436C19.1663 10.1614 19.5266 11.0313 20.168 11.6727C20.8093 12.314 21.6792 12.6744 22.5863 12.6744V6.92836H19.8803V6.92936Z" fill="white"/>
</svg>
