<svg width="32" height="32" viewBox="0 0 32 32" fill="none" xmlns="http://www.w3.org/2000/svg">
<path d="M16 32C24.8366 32 32 24.8366 32 16C32 7.16344 24.8366 0 16 0C7.16344 0 0 7.16344 0 16C0 24.8366 7.16344 32 16 32Z" fill="#348F8D"/>
<path d="M23.312 7.0442C23.5509 7.29207 23.6844 7.62293 23.6844 7.9672C23.6844 8.31147 23.5509 8.64233 23.312 8.8902L20.1819 12.0992C20.0825 12.2008 19.9669 12.2853 19.84 12.3492C19.6102 12.4788 19.3439 12.5285 19.0829 12.4903C18.8219 12.4521 18.5809 12.3282 18.398 12.1382L15.28 8.9442L9.27495 15.1032L10.725 16.5862C10.933 16.805 11.0485 17.0957 11.0472 17.3976C11.0459 17.6995 10.9279 17.9892 10.718 18.2062C10.6155 18.3122 10.4928 18.3966 10.3572 18.4545C10.2216 18.5123 10.0758 18.5425 9.92843 18.5431C9.781 18.5438 9.63494 18.5149 9.49884 18.4583C9.36274 18.4016 9.23936 18.3183 9.13595 18.2132L6.82995 15.8602C6.61831 15.6413 6.5 15.3487 6.5 15.0442C6.5 14.7397 6.61831 14.4471 6.82995 14.2282L6.84595 14.2132C6.85087 14.2084 6.85555 14.2034 6.85995 14.1982L14.484 6.3782H14.485L14.486 6.3772L14.511 6.3512C14.7012 6.15346 14.9561 6.03049 15.2293 6.00462C15.5025 5.97875 15.7759 6.05169 16 6.2102C16.0719 6.2592 16.14 6.3142 16.2 6.3772L19.184 9.4302L21.511 7.0442C21.6279 6.92354 21.768 6.82761 21.9228 6.76209C22.0775 6.69658 22.2439 6.66283 22.412 6.66283C22.58 6.66283 22.7464 6.69658 22.9011 6.76209C23.0559 6.82761 23.196 6.92354 23.313 7.0442H23.312ZM25.17 16.1462C25.3823 16.3637 25.5013 16.6555 25.5015 16.9595C25.5017 17.2635 25.3831 17.5555 25.1709 17.7732L25.155 17.7882C25.1497 17.7929 25.1447 17.7979 25.1399 17.8032L17.486 25.6502C17.3696 25.7708 17.2283 25.8644 17.0719 25.9246C16.9156 25.9847 16.7479 26.0099 16.5808 25.9984C16.4136 25.9869 16.251 25.9389 16.1044 25.8578C15.9577 25.7768 15.8306 25.6646 15.732 25.5292L12.8149 22.5452L10.502 24.9232C10.18 25.2552 9.70995 25.3862 9.26895 25.2652C8.82795 25.1442 8.48295 24.7922 8.36495 24.3402C8.24795 23.8892 8.37495 23.4072 8.69995 23.0782L11.829 19.8702C12.007 19.6842 12.236 19.5582 12.486 19.5082C12.89 19.4182 13.3119 19.5442 13.6049 19.8442L16.731 23.0422L22.725 16.8982L21.275 15.4152C21.0669 15.1964 20.9514 14.9057 20.9527 14.6038C20.954 14.3019 21.072 14.0122 21.2819 13.7952C21.3844 13.6892 21.5071 13.6048 21.6427 13.5469C21.7783 13.4891 21.9241 13.4589 22.0715 13.4583C22.2189 13.4576 22.365 13.4865 22.5011 13.5431C22.6372 13.5998 22.7605 13.6831 22.864 13.7882L25.1369 16.1132L25.139 16.1152L25.142 16.1172L25.17 16.1462Z" fill="white"/>
</svg>
