<svg width="32" height="32" viewBox="0 0 32 32" fill="none" xmlns="http://www.w3.org/2000/svg">
<path d="M16 32C24.8366 32 32 24.8366 32 16C32 7.16344 24.8366 0 16 0C7.16344 0 0 7.16344 0 16C0 24.8366 7.16344 32 16 32Z" fill="#2C3E50"/>
<path d="M25.636 22.6798V21.6798C25.636 21.4818 25.503 21.3498 25.301 21.3498H24.636V20.3458C24.636 20.1468 24.503 20.0118 24.305 20.0118H23.639V12.6668H24.301C24.5 12.6668 24.636 12.5348 24.636 12.3328V11.3328H25.301C25.3793 11.3361 25.4562 11.3107 25.5171 11.2613C25.5781 11.212 25.6189 11.1421 25.632 11.0648C25.666 10.8988 25.599 10.7668 25.467 10.6968L16.149 6.0248C16.0524 5.99173 15.9476 5.99173 15.851 6.0248L6.199 10.6968C6.13563 10.7313 6.08518 10.7854 6.05524 10.8511C6.02531 10.9167 6.0175 10.9903 6.033 11.0608C6.033 11.2308 6.166 11.3328 6.331 11.3328H7.331V12.3328C7.331 12.5308 7.464 12.6628 7.662 12.6628H8.328V20.0118H7.666C7.466 20.0118 7.331 20.1438 7.331 20.3418V21.3458H6.666C6.466 21.3458 6.334 21.4778 6.334 21.6768V22.6798C6.136 22.6798 6 22.8128 6 23.0148C6 23.2168 6.132 23.3488 6.331 23.3488H25.636C25.834 23.3488 25.97 23.2168 25.97 23.0188C25.97 22.8188 25.838 22.6798 25.64 22.6798H25.636ZM7.993 11.9978V11.3328H23.967V11.9978H7.993ZM21.636 12.6678V20.0118H20.308V12.6668H21.636V12.6678ZM18.308 12.6678V20.0118H16.977V12.6668H18.307L18.308 12.6678ZM14.98 12.6678V20.0118H13.652V12.6668H14.98V12.6678ZM11.652 12.6678V20.0118H10.325V12.6668H11.652V12.6678ZM23.967 21.3458H7.997V20.6768H23.97V21.3458H23.967Z" fill="white"/>
</svg>
