<svg width="32" height="32" viewBox="0 0 32 32" fill="none" xmlns="http://www.w3.org/2000/svg">
<path d="M16 32C24.8366 32 32 24.8366 32 16C32 7.16344 24.8366 0 16 0C7.16344 0 0 7.16344 0 16C0 24.8366 7.16344 32 16 32Z" fill="#1C347A"/>
<path d="M10.065 6.888C8.79079 7.71967 7.70428 8.80823 6.875 10.084V6.888H10.065ZM25.069 9.998C24.2468 8.75893 23.1804 7.70068 21.935 6.888H25.069V9.998ZM21.981 25.082C23.2067 24.2732 24.257 23.2256 25.069 22.002V25.082H21.981ZM6.875 21.916C7.69415 23.1763 8.76445 24.2541 10.019 25.082H6.875V21.916ZM26 16C26 21.514 21.514 26 16 26C10.486 26 6 21.514 6 16C6 10.486 10.486 6 16 6C21.514 6 26 10.486 26 16ZM16 23.292C20.02 23.292 23.292 20.021 23.292 16C23.292 11.98 20.021 8.708 16 8.708C11.98 8.708 8.708 11.979 8.708 16C8.708 20.02 11.979 23.292 16 23.292Z" fill="white"/>
</svg>
