<svg width="32" height="32" viewBox="0 0 32 32" fill="none" xmlns="http://www.w3.org/2000/svg">
<path d="M16 32C24.8366 32 32 24.8366 32 16C32 7.16344 24.8366 0 16 0C7.16344 0 0 7.16344 0 16C0 24.8366 7.16344 32 16 32Z" fill="#7F27FF"/>
<path d="M15.376 14H8.02V21.222C8.012 21.961 8.308 22.672 8.84 23.194C9.372 23.716 10.097 24.007 10.85 24H15.377L15.376 14ZM15.546 10.221H16.338C17.122 8.87096 17.84 7.95296 18.515 7.45696C19.347 6.84396 20.199 6.83896 20.867 7.49496C21.491 8.10696 21.608 8.87496 21.197 9.61496C21.081 9.82096 20.927 10.023 20.734 10.221H23.642C24.321 10.221 25 10.779 25 11.554C25 12.221 24.431 12.888 23.642 12.888H16.508V11.11H15.376V12.888H8.358C7.68 12.888 7 12.33 7 11.554C7 10.888 7.569 10.221 8.358 10.221H11.298C11.114 10.0495 10.9503 9.85762 10.81 9.64896C10.323 8.90496 10.382 8.11896 11.017 7.49496C11.685 6.83896 12.537 6.84496 13.37 7.45696C14.044 7.95296 14.762 8.87196 15.547 10.221H15.546ZM14.231 10.221C13.651 9.29796 13.133 8.67096 12.691 8.34596C12.282 8.04596 12.058 8.04396 11.817 8.27996C11.57 8.52296 11.555 8.73096 11.762 9.04696C11.998 9.40796 12.495 9.81496 13.211 10.221H14.231ZM17.653 10.221H18.873C19.556 9.82896 20.007 9.43296 20.203 9.08096C20.373 8.77696 20.337 8.54596 20.067 8.28096C19.826 8.04396 19.602 8.04496 19.194 8.34596C18.751 8.67096 18.232 9.29796 17.654 10.221H17.653ZM16.508 13.999H23.865V21.222C23.8682 21.5889 23.7971 21.9528 23.6562 22.2916C23.5153 22.6305 23.3074 22.9374 23.045 23.194C22.5084 23.7185 21.7854 24.0084 21.035 24H16.508V13.999Z" fill="white"/>
</svg>
