<svg width="32" height="32" viewBox="0 0 32 32" fill="none" xmlns="http://www.w3.org/2000/svg">
<path d="M16 32C24.8366 32 32 24.8366 32 16C32 7.16344 24.8366 0 16 0C7.16344 0 0 7.16344 0 16C0 24.8366 7.16344 32 16 32Z" fill="#333333"/>
<path d="M11.192 8H18.956C21.104 8.127 23.467 9.01 24.416 11.06C25.603 13.671 25.013 17.343 22.339 18.833C19.873 20.243 16.923 19.687 14.215 19.803C14.142 21.137 14.515 22.689 13.585 23.817C13.211 24.357 11.496 25 11.496 25C11.496 25 11.338 23.551 11.28 20.29C11.243 19.39 11.39 18.38 12.163 17.795C13.068 17.017 14.351 17.26 15.45 17.22C17.11 17.176 18.854 17.43 20.43 16.79C22.742 15.845 22.826 11.986 20.496 11.013C18.117 10.091 15.49 10.93 13.046 10.42C11.936 10.109 11.437 9.016 11.192 8ZM7 12.43C9.03 12.467 11.064 12.359 13.09 12.481C14.563 12.594 15.53 13.928 15.684 15.292C13.64 15.282 11.591 15.357 9.546 15.267C8.29 15.194 7.363 14.174 7 13.049V12.431V12.43Z" fill="white"/>
</svg>
