<svg width="32" height="32" viewBox="0 0 32 32" fill="none" xmlns="http://www.w3.org/2000/svg">
<path d="M16 32C24.8366 32 32 24.8366 32 16C32 7.16344 24.8366 0 16 0C7.16344 0 0 7.16344 0 16C0 24.8366 7.16344 32 16 32Z" fill="#21A5DE"/>
<path d="M21.49 16.575C21.83 16.939 22.036 17.424 22.036 17.956C22.036 19.085 21.108 20 19.964 20C18.821 20 17.894 19.085 17.894 17.956C17.894 17.424 18.1 16.939 18.438 16.575C18.329 16.6586 18.1989 16.7104 18.0622 16.7245C17.9255 16.7386 17.7875 16.7145 17.6637 16.6549C17.5399 16.5954 17.435 16.5026 17.3607 16.387C17.2864 16.2713 17.2457 16.1374 17.243 16C17.2427 15.8365 17.2981 15.6778 17.4 15.55C17.031 15.884 16.54 16.088 16 16.088C15.46 16.088 14.969 15.884 14.6 15.55C14.7019 15.6778 14.7573 15.8365 14.757 16C14.757 16.403 14.427 16.73 14.017 16.73C13.8523 16.7302 13.6923 16.6757 13.562 16.575C13.9 16.939 14.107 17.424 14.107 17.956C14.107 19.085 13.179 20 12.036 20C10.892 20 9.964 19.085 9.964 17.956C9.964 17.424 10.171 16.939 10.509 16.575C10.4 16.6586 10.2699 16.7104 10.1332 16.7245C9.99646 16.7386 9.85853 16.7145 9.7347 16.6549C9.61087 16.5954 9.50599 16.5026 9.43172 16.387C9.35745 16.2713 9.3167 16.1374 9.314 16C9.31373 15.8365 9.3691 15.6778 9.471 15.55C9.102 15.884 8.611 16.088 8.071 16.088C6.927 16.088 6 15.173 6 14.044C6 12.915 6.927 12 8.071 12C9.215 12 10.142 12.915 10.142 14.044C10.1422 14.5568 9.94738 15.0505 9.597 15.425C9.70604 15.3411 9.83624 15.2891 9.97309 15.2748C10.1099 15.2606 10.2481 15.2846 10.3721 15.3442C10.4961 15.4038 10.6011 15.4967 10.6754 15.6125C10.7497 15.7283 10.7904 15.8624 10.793 16C10.7933 16.1635 10.7379 16.3222 10.636 16.45C11.004 16.116 11.496 15.912 12.036 15.912C12.576 15.912 13.066 16.116 13.436 16.45C13.3337 16.3223 13.278 16.1636 13.278 16C13.1775 15.9226 13.0984 15.8208 13.0484 15.7043C12.9983 15.5877 12.979 15.4603 12.9921 15.3341C13.0053 15.208 13.0505 15.0873 13.1235 14.9835C13.1965 14.8798 13.2949 14.7965 13.4092 14.7415C13.5235 14.6866 13.65 14.6618 13.7766 14.6696C13.9032 14.6773 14.0257 14.7174 14.1325 14.7859C14.2392 14.8544 14.3266 14.9491 14.3864 15.061C14.4462 15.1729 14.4764 15.2982 14.474 15.425C14.1238 15.0504 13.929 14.5568 13.929 14.044C13.929 12.915 14.856 12 16 12C17.144 12 18.071 12.915 18.071 14.044C18.0712 14.5568 17.8764 15.0505 17.526 15.425C17.635 15.3411 17.7652 15.2891 17.9021 15.2748C18.0389 15.2606 18.1771 15.2846 18.3011 15.3442C18.4251 15.4038 18.5301 15.4967 18.6044 15.6125C18.6787 15.7283 18.7194 15.8624 18.722 16C18.7223 16.1635 18.6669 16.3222 18.565 16.45C18.933 16.116 19.425 15.912 19.965 15.912C20.505 15.912 20.995 16.116 21.365 16.45C21.2627 16.3223 21.207 16.1636 21.207 16C21.1065 15.9226 21.0274 15.8208 20.9774 15.7043C20.9273 15.5877 20.908 15.4603 20.9211 15.3341C20.9343 15.208 20.9795 15.0873 21.0525 14.9835C21.1255 14.8798 21.2239 14.7965 21.3382 14.7415C21.4525 14.6866 21.579 14.6618 21.7056 14.6696C21.8322 14.6773 21.9547 14.7174 22.0615 14.7859C22.1682 14.8544 22.2556 14.9491 22.3154 15.061C22.3752 15.1729 22.4054 15.2982 22.403 15.425C22.0528 15.0504 21.858 14.5568 21.858 14.044C21.858 12.915 22.785 12 23.929 12C25.073 12 26 12.915 26 14.044C26 15.173 25.073 16.088 23.929 16.088C23.389 16.088 22.898 15.884 22.529 15.55C22.6309 15.6778 22.6863 15.8365 22.686 16C22.686 16.403 22.356 16.73 21.946 16.73C21.7813 16.7302 21.6213 16.6757 21.491 16.575H21.49Z" fill="white"/>
</svg>
