<svg width="32" height="32" viewBox="0 0 32 32" fill="none" xmlns="http://www.w3.org/2000/svg">
<path d="M16 32C24.8366 32 32 24.8366 32 16C32 7.16344 24.8366 0 16 0C7.16344 0 0 7.16344 0 16C0 24.8366 7.16344 32 16 32Z" fill="#DEC799"/>
<path d="M23.53 13.414L22.105 7L19.308 11.414C17.1336 10.889 14.8654 10.889 12.691 11.414L9.902 7L8.472 13.414C6.937 14.642 6 16.247 6 18.009C6 21.869 10.476 24.998 15.997 24.998C21.518 24.998 25.994 21.868 25.994 18.009C25.993 16.247 25.064 14.642 23.529 13.414H23.53ZM10.442 16.35H9.776L11.403 14.474H12.587L10.442 16.35ZM15.946 20.934L13.18 16.062L13.863 15.672L14.48 16.757H17.501L18.145 15.667L18.821 16.069L15.946 20.934ZM21.559 16.35L19.413 14.474H20.605L22.23 16.35H21.559ZM15.959 19.365L14.926 17.545H17.034L15.959 19.365Z" fill="white"/>
</svg>
