<svg width="32" height="32" viewBox="0 0 32 32" fill="none" xmlns="http://www.w3.org/2000/svg">
<path d="M16 32C24.8366 32 32 24.8366 32 16C32 7.16344 24.8366 0 16 0C7.16344 0 0 7.16344 0 16C0 24.8366 7.16344 32 16 32Z" fill="#117FC0"/>
<path d="M26.4956 10.3325L18.0406 24.2725H12.9986L16.8736 17.8755H13.0226L8.53264 25.2795C10.673 27.0194 13.3511 27.9621 16.1094 27.9465C18.8676 27.9309 21.5349 26.958 23.6555 25.194C25.776 23.43 27.2182 20.9845 27.7357 18.2751C28.2532 15.5658 27.8138 12.7608 26.4926 10.3395L26.4956 10.3325ZM19.1136 7.83048L15.4436 13.8705H19.2996L23.5736 6.82148C21.4333 5.08158 18.7552 4.1389 15.9969 4.15449C13.2386 4.17008 10.5714 5.14297 8.45083 6.90694C6.33028 8.67092 4.88806 11.1165 4.37058 13.8258C3.8531 16.5352 4.29248 19.3401 5.61364 21.7615L14.0656 7.83148H19.1126L19.1136 7.83048Z" fill="white"/>
</svg>
