<svg width="32" height="32" viewBox="0 0 32 32" fill="none" xmlns="http://www.w3.org/2000/svg">
<path d="M16 32C24.8366 32 32 24.8366 32 16C32 7.16344 24.8366 0 16 0C7.16344 0 0 7.16344 0 16C0 24.8366 7.16344 32 16 32Z" fill="#F55749"/>
<path d="M15.813 6.04849C15.8698 6.01669 15.9339 6 15.999 6C16.0641 6 16.1282 6.01669 16.185 6.04849L24.41 10.6665C24.4662 10.6975 24.513 10.743 24.5457 10.7982C24.5784 10.8534 24.5958 10.9163 24.596 10.9805C24.596 11.1105 24.526 11.2305 24.411 11.2945L17.256 15.3285C17.0037 15.0416 16.6599 14.8509 16.283 14.7885V12.5955C17.058 12.4665 17.649 11.8105 17.649 11.0175C17.649 10.1325 16.913 9.41449 16.004 9.41449C15.095 9.41449 14.359 10.1325 14.359 11.0175C14.359 11.8055 14.944 12.4595 15.713 12.5935V14.7915C15.3412 14.8555 15.0025 15.0446 14.753 15.3275L7.599 11.3105C7.54263 11.2797 7.49557 11.2344 7.46275 11.1792C7.42993 11.124 7.41256 11.061 7.41245 10.9968C7.41235 10.9326 7.42952 10.8695 7.46217 10.8142C7.49481 10.7589 7.54173 10.7134 7.598 10.6825L15.814 6.05149L15.813 6.04849ZM24.434 11.8685C24.4907 11.8364 24.5547 11.8194 24.6199 11.8192C24.685 11.819 24.7491 11.8357 24.806 11.8675C24.8622 11.8985 24.9092 11.944 24.942 11.9992C24.9749 12.0543 24.9925 12.1173 24.993 12.1815L25 21.1475C25 21.2775 24.93 21.3965 24.814 21.4615L16.849 25.9515C16.602 26.0915 16.292 25.9165 16.292 25.6375L16.285 17.9445C16.671 17.8805 17.021 17.6835 17.272 17.3895L19.262 18.5045C19.2071 18.7091 19.1946 18.9228 19.225 19.1325C19.351 20.0095 20.184 20.6195 21.083 20.4965C21.983 20.3725 22.609 19.5615 22.483 18.6845C22.357 17.8075 21.523 17.1975 20.624 17.3215C20.4006 17.3514 20.1856 17.4269 19.9926 17.5434C19.7996 17.6598 19.6326 17.8147 19.502 17.9985L17.552 16.9055C17.692 16.5345 17.682 16.1255 17.527 15.7605L24.435 11.8665L24.434 11.8685ZM7.008 12.1805C7.008 11.9685 7.186 11.8175 7.38 11.8175C7.445 11.8175 7.51 11.8345 7.566 11.8675L14.481 15.7655C14.328 16.1295 14.32 16.5355 14.458 16.9055L12.509 17.9985C12.3783 17.8148 12.2113 17.6599 12.0183 17.5434C11.8253 17.427 11.6104 17.3514 11.387 17.3215C10.487 17.1975 9.656 17.8085 9.529 18.6845C9.402 19.5605 10.029 20.3715 10.929 20.4955C11.829 20.6195 12.659 20.0085 12.787 19.1325C12.8176 18.9225 12.805 18.7085 12.75 18.5035L14.739 17.3885C14.988 17.6805 15.334 17.8765 15.716 17.9425L15.71 25.6375C15.71 25.9165 15.4 26.0905 15.152 25.9505L7.186 21.4605C7.12983 21.4295 7.08296 21.384 7.05026 21.3288C7.01756 21.2736 7.00021 21.2107 7 21.1465L7.008 12.1805Z" fill="white"/>
</svg>
