<svg width="32" height="32" viewBox="0 0 32 32" fill="none" xmlns="http://www.w3.org/2000/svg">
<path d="M16 32C24.8366 32 32 24.8366 32 16C32 7.16344 24.8366 0 16 0C7.16344 0 0 7.16344 0 16C0 24.8366 7.16344 32 16 32Z" fill="#1C1C1C"/>
<path d="M24.5 11V21L16 26L7.5 21V11L16 6L24.5 11ZM15.732 16.407L14.942 16.874L16.418 17.736L17.203 17.273L19.302 18.508L16.171 20.348L9.676 16.562L9.649 18.405L16.175 22.195L22.445 18.508L18.771 16.346L19.511 15.909L18.035 15.047L17.3 15.481L16.27 14.875L17.171 14.342L15.695 13.479L14.798 14.009L13.044 12.977L16.174 11.136L20.502 13.665L22.088 12.727L16.171 9.289L9.901 12.977L13.23 14.936L12.602 15.306L14.078 16.169L14.701 15.801L15.732 16.407Z" fill="white"/>
</svg>
