<svg width="32" height="32" viewBox="0 0 32 32" fill="none" xmlns="http://www.w3.org/2000/svg">
<path d="M16 32C24.8366 32 32 24.8366 32 16C32 7.16344 24.8366 0 16 0C7.16344 0 0 7.16344 0 16C0 24.8366 7.16344 32 16 32Z" fill="#302C2C"/>
<path d="M26.9099 15.696C26.8551 15.585 26.7824 15.4836 26.6949 15.396C24.7929 13.242 20.9219 9 20.9219 9L16.0049 14.378L11.0249 9.051C11.0249 9.051 7.10891 13.33 5.18991 15.507C4.93991 15.753 4.93991 16.197 5.16391 16.459C6.16091 17.595 11.0579 22.995 11.0579 22.995L15.9979 17.581L20.9039 23L26.8209 16.454C26.8209 16.454 26.9459 16.324 26.9729 16.237C27.0309 16.057 26.9889 15.861 26.9099 15.696ZM7.91791 16.295C7.75791 16.106 7.81191 15.809 7.96091 15.63C8.58691 14.917 11.0919 12.23 11.0919 12.23L14.5819 15.935L11.0859 19.759C11.0859 19.759 8.94591 17.475 7.91791 16.295ZM23.9059 16.421C23.8322 16.5473 23.7465 16.6662 23.6499 16.776L20.9399 19.721L17.4399 16L20.8839 12.225C20.8839 12.225 22.8679 14.28 23.7769 15.385C23.8539 15.481 23.9449 15.572 23.9839 15.694C24.0669 15.933 24.0139 16.199 23.9049 16.42" fill="white"/>
</svg>
