<svg width="32" height="32" viewBox="0 0 32 32" fill="none" xmlns="http://www.w3.org/2000/svg">
<path d="M16 32C24.8366 32 32 24.8366 32 16C32 7.16344 24.8366 0 16 0C7.16344 0 0 7.16344 0 16C0 24.8366 7.16344 32 16 32Z" fill="#27323A"/>
<path d="M24.603 6C24.603 6 26.25 7.464 25.081 10.443C24.8588 10.9906 24.5502 11.4991 24.167 11.949L20.102 16.719L16.84 20.977C16.84 20.977 13.094 20.361 11.638 21.872L17.812 22.146C17.812 22.146 16.494 23.589 11.292 22.556C11.292 22.556 11.362 24.004 13.721 24.416C13.721 24.416 11.638 25.105 10.389 23.109C10.389 23.109 10.389 24.557 11.845 25.173C11.845 25.173 10.665 25.447 9.693 24.21L8.03 25.994C8.03 25.994 7.685 26.063 7.892 25.721L9.279 24.073C9.279 24.073 9.417 22.904 8.583 23.315C8.583 23.315 8.03 23.52 8.237 24.141C8.237 24.141 7.403 23.457 8.376 22.562L6.5 20.704L8.928 22.009L7.887 19.466L9.619 21.667C9.619 21.667 9.475 19.193 10.241 18.508C10.241 18.508 10.448 20.914 11.421 21.12L11.351 16.102L12.393 15.208L12.531 18.366C12.531 18.366 12.807 18.708 13.083 18.298C13.083 18.298 13.71 17.266 13.71 14.244L15.373 12.664L15.581 13.902C15.581 13.902 15.862 14.381 16.208 13.97L16.553 11.565C16.553 11.565 18.773 9.022 24.603 6ZM13.503 19.95C19.257 14.66 22.313 9.506 22.307 9.506C19.465 11.496 13.503 19.951 13.503 19.951V19.95Z" fill="white"/>
</svg>
