<svg width="32" height="32" viewBox="0 0 32 32" fill="none" xmlns="http://www.w3.org/2000/svg">
<path d="M16 32C24.8366 32 32 24.8366 32 16C32 7.16344 24.8366 0 16 0C7.16344 0 0 7.16344 0 16C0 24.8366 7.16344 32 16 32Z" fill="#F1B32B"/>
<path d="M15.75 4C9.26 4 4 9.26 4 15.75C4 22.24 9.26 27.5 15.75 27.5C22.24 27.5 27.5 22.24 27.5 15.75C27.5 12.6337 26.2621 9.64505 24.0585 7.4415C21.855 5.23794 18.8663 4 15.75 4ZM15.75 24.57C13.4108 24.57 11.1674 23.6408 9.51332 21.9867C7.85925 20.3326 6.93 18.0892 6.93 15.75C6.93 13.4108 7.85925 11.1674 9.51332 9.51332C11.1674 7.85925 13.4108 6.93 15.75 6.93C18.0892 6.93 20.3326 7.85925 21.9867 9.51332C23.6408 11.1674 24.57 13.4108 24.57 15.75C24.57 18.0892 23.6408 20.3326 21.9867 21.9867C20.3326 23.6408 18.0892 24.57 15.75 24.57ZM12.82 15.76L15.76 20.16L18.68 15.76L15.76 11.35L12.82 15.76Z" fill="white"/>
</svg>
