<svg width="32" height="32" viewBox="0 0 32 32" fill="none" xmlns="http://www.w3.org/2000/svg">
<path d="M16 32C24.8366 32 32 24.8366 32 16C32 7.16344 24.8366 0 16 0C7.16344 0 0 7.16344 0 16C0 24.8366 7.16344 32 16 32Z" fill="#9D4BEF"/>
<path d="M11.4701 7.66113C12.4801 7.66113 13.4487 8.06233 14.1628 8.77647C14.8769 9.49061 15.2781 10.4592 15.2781 11.4691C15.2781 12.4791 14.8769 13.4477 14.1628 14.1618C13.4487 14.8759 12.4801 15.2771 11.4701 15.2771C10.4602 15.2771 9.49161 14.8759 8.77747 14.1618C8.06333 13.4477 7.66213 12.4791 7.66213 11.4691C7.66213 10.4592 8.06333 9.49061 8.77747 8.77647C9.49161 8.06233 10.4602 7.66113 11.4701 7.66113ZM15.2771 20.5311C15.2771 21.2843 15.0538 22.0205 14.6354 22.6467C14.2169 23.273 13.6222 23.761 12.9264 24.0493C12.2306 24.3375 11.4649 24.4129 10.7262 24.266C9.98755 24.119 9.30903 23.7564 8.77647 23.2238C8.24391 22.6912 7.88124 22.0127 7.7343 21.274C7.58737 20.5354 7.66278 19.7697 7.951 19.0739C8.23922 18.3781 8.7273 17.7833 9.35352 17.3649C9.97975 16.9465 10.716 16.7231 11.4691 16.7231C12.8623 16.7231 14.1984 16.1697 15.1836 15.1846C16.1687 14.1994 16.7221 12.8633 16.7221 11.4701C16.7221 10.717 16.9455 9.98074 17.3639 9.35452C17.7823 8.7283 18.3771 8.24022 19.0729 7.952C19.7687 7.66378 20.5344 7.58837 21.273 7.7353C22.0117 7.88224 22.6902 8.24491 23.2228 8.77747C23.7554 9.31003 24.118 9.98855 24.265 10.7272C24.4119 11.4659 24.3365 12.2316 24.0483 12.9274C23.7601 13.6232 23.272 14.2179 22.6457 14.6364C22.0195 15.0548 21.2833 15.2781 20.5301 15.2781C19.1371 15.2784 17.8013 15.832 16.8163 16.8171C15.8314 17.8022 15.2781 19.1381 15.2781 20.5311H15.2771ZM20.5301 24.3391C19.5202 24.3391 18.5516 23.9379 17.8375 23.2238C17.1233 22.5097 16.7221 21.5411 16.7221 20.5311C16.7221 19.5212 17.1233 18.5526 17.8375 17.8385C18.5516 17.1243 19.5202 16.7231 20.5301 16.7231C21.5401 16.7231 22.5087 17.1243 23.2228 17.8385C23.9369 18.5526 24.3381 19.5212 24.3381 20.5311C24.3381 21.5411 23.9369 22.5097 23.2228 23.2238C22.5087 23.9379 21.5401 24.3391 20.5301 24.3391ZM20.5301 21.6791C20.8346 21.6791 21.1266 21.5582 21.3419 21.3429C21.5572 21.1276 21.6781 20.8356 21.6781 20.5311C21.6781 20.2267 21.5572 19.9347 21.3419 19.7194C21.1266 19.5041 20.8346 19.3831 20.5301 19.3831C20.2257 19.3831 19.9337 19.5041 19.7184 19.7194C19.5031 19.9347 19.3821 20.2267 19.3821 20.5311C19.3821 20.8356 19.5031 21.1276 19.7184 21.3429C19.9337 21.5582 20.2257 21.6791 20.5301 21.6791ZM11.4701 21.6791C11.7746 21.6791 12.0666 21.5582 12.2819 21.3429C12.4972 21.1276 12.6181 20.8356 12.6181 20.5311C12.6181 20.2267 12.4972 19.9347 12.2819 19.7194C12.0666 19.5041 11.7746 19.3831 11.4701 19.3831C11.1657 19.3831 10.8737 19.5041 10.6584 19.7194C10.4431 19.9347 10.3221 20.2267 10.3221 20.5311C10.3221 20.8356 10.4431 21.1276 10.6584 21.3429C10.8737 21.5582 11.1657 21.6791 11.4701 21.6791ZM20.5301 12.6171C20.8346 12.6171 21.1266 12.4962 21.3419 12.2809C21.5572 12.0656 21.6781 11.7736 21.6781 11.4691C21.6781 11.1647 21.5572 10.8727 21.3419 10.6574C21.1266 10.4421 20.8346 10.3211 20.5301 10.3211C20.2257 10.3211 19.9337 10.4421 19.7184 10.6574C19.5031 10.8727 19.3821 11.1647 19.3821 11.4691C19.3821 11.7736 19.5031 12.0656 19.7184 12.2809C19.9337 12.4962 20.2257 12.6171 20.5301 12.6171ZM11.4701 12.6171C11.7746 12.6171 12.0666 12.4962 12.2819 12.2809C12.4972 12.0656 12.6181 11.7736 12.6181 11.4691C12.6181 11.1647 12.4972 10.8727 12.2819 10.6574C12.0666 10.4421 11.7746 10.3211 11.4701 10.3211C11.1657 10.3211 10.8737 10.4421 10.6584 10.6574C10.4431 10.8727 10.3221 11.1647 10.3221 11.4691C10.3221 11.7736 10.4431 12.0656 10.6584 12.2809C10.8737 12.4962 11.1657 12.6171 11.4701 12.6171Z" fill="white"/>
</svg>
