<svg width="32" height="32" viewBox="0 0 32 32" fill="none" xmlns="http://www.w3.org/2000/svg">
<path d="M16 32C24.8366 32 32 24.8366 32 16C32 7.16344 24.8366 0 16 0C7.16344 0 0 7.16344 0 16C0 24.8366 7.16344 32 16 32Z" fill="#ED1968"/>
<path d="M12.6999 26.8998C11.4222 26.5458 10.231 25.9331 9.19987 25.0998C8.18388 24.3172 7.30522 23.3709 6.59987 22.2998C5.84773 21.1731 5.30567 19.9195 4.99987 18.5998C4.64978 17.019 4.64978 15.3807 4.99987 13.7998C5.29823 12.4625 5.80437 11.1803 6.49987 9.9998C7.51808 8.36623 8.97287 7.04998 10.6999 6.1998C11.3063 5.87338 11.9426 5.60551 12.5999 5.3998C13.5999 6.5998 14.5999 7.8998 15.5999 9.1998C15.6999 9.3998 15.8999 9.4998 15.9999 9.6998C14.9968 9.74185 14.0117 9.97965 13.0999 10.3998C12.2938 10.8212 11.5799 11.3991 10.9999 12.0998C10.4292 12.8542 9.9897 13.6994 9.69987 14.5998C9.43282 15.6885 9.46739 16.8293 9.79987 17.8998L14.0999 14.4998C15.0999 15.7998 16.0999 16.9998 17.0999 18.2998C15.6999 19.3998 14.1999 20.4998 12.7999 21.6998C14.1999 23.4998 15.6999 25.3998 17.0999 27.2998C15.6214 27.4746 14.1226 27.3384 12.6999 26.8998ZM22.2299 14.7858C22.1932 14.6221 22.1498 14.46 22.0999 14.2998C21.9649 14.4058 18.9899 16.6798 17.7999 17.6998C16.7999 16.3998 15.7999 15.1998 14.7999 13.8998C16.1999 12.7998 17.6999 11.6998 19.0999 10.4998C17.6999 8.6998 16.2999 6.8998 14.7999 4.9998C14.7999 4.8998 14.6999 4.8998 14.6999 4.7998H16.0999C18.665 4.82375 21.1411 5.74344 23.0999 7.3998C24.0545 8.18864 24.8663 9.13578 25.4999 10.1998C26.246 11.3452 26.7246 12.6441 26.8999 13.9998C27.1678 15.5584 27.1338 17.154 26.7999 18.6998C26.5136 19.995 25.9695 21.2194 25.1999 22.2998C24.5282 23.337 23.6825 24.2505 22.6999 24.9998C21.7429 25.8313 20.617 26.4454 19.3999 26.7998C18.4999 25.6998 17.6999 24.6998 16.8999 23.5998C16.601 23.2577 16.3333 22.8896 16.0999 22.4998C17.0461 22.503 17.9803 22.2881 18.8301 21.8719C19.6798 21.4557 20.4223 20.8493 20.9999 20.0998C21.5759 19.363 21.9853 18.5101 22.1999 17.5998C22.3859 16.8408 22.3959 15.9028 22.2299 14.7858ZM17.5069 23.1588C18.1975 24.1021 18.9144 25.0258 19.6569 25.9288C20.6066 25.5854 21.4842 25.0682 22.2449 24.4038C23.167 23.6989 23.9601 22.8395 24.5889 21.8638C25.2994 20.8668 25.802 19.7371 26.0669 18.5418C26.3809 17.0898 26.4119 15.5908 26.1569 14.0958C25.9933 12.8421 25.5486 11.6415 24.8559 10.5838C24.2646 9.59135 23.5069 8.70811 22.6159 7.9728C20.816 6.45009 18.546 5.59467 16.1889 5.5508C17.1159 6.7308 18.0549 7.9338 19.6919 10.0398L20.1319 10.6038L19.5879 11.0688C18.8766 11.6738 18.1504 12.2609 17.4099 12.8298C17.3399 12.8848 16.4899 13.5378 15.8519 14.0318C16.1149 14.3668 16.4199 14.7488 16.8859 15.3318C17.3459 15.9068 17.6509 16.2898 17.9139 16.6248C18.3779 16.2418 18.8839 15.8398 19.4899 15.3698C19.5879 15.2938 21.1859 14.0638 21.6369 13.7098L22.4929 13.0368L22.8159 14.0768C23.1885 15.2753 23.228 16.5526 22.9299 17.7718C22.691 18.7861 22.2352 19.7365 21.5939 20.5578C20.5741 21.8812 19.1094 22.7903 17.4709 23.1168L17.5069 23.1588Z" fill="white"/>
</svg>
