<svg width="32" height="32" viewBox="0 0 32 32" fill="none" xmlns="http://www.w3.org/2000/svg">
<path d="M16 32C24.8366 32 32 24.8366 32 16C32 7.16344 24.8366 0 16 0C7.16344 0 0 7.16344 0 16C0 24.8366 7.16344 32 16 32Z" fill="#384182"/>
<path fill-rule="evenodd" clip-rule="evenodd" d="M9.5 27L13.118 10.211L15.148 22.811L9.5 27ZM13.188 10.115L18.685 22.824L15.242 22.764L13.188 10.114V10.115ZM13.27 10.019L20.47 11.042L18.802 22.824L13.27 10.019ZM18.93 22.643L20.553 11.15L21.615 12.498L18.93 22.643ZM20.447 10.933L13.421 9.934L19.747 7.852L20.447 10.933ZM13.387 9.826L17.693 6.841L19.747 7.744L13.387 9.826ZM13.281 9.79L14.111 8.201L17.623 6.793L13.281 9.79ZM14.111 8.13L14.507 6.89L17.401 6.793L14.111 8.129V8.13ZM14.484 6.793L15.417 5.794L17.425 6.697L14.484 6.793ZM15.476 5.734L16.876 5.048L18.686 7.166L15.476 5.734ZM17.075 5.132L19.164 6.047L18.79 7.178L17.075 5.132ZM18.86 7.214L19.245 6.059L19.712 7.648L18.86 7.214ZM16.923 5H18.452L19.209 5.842C19.216 5.85013 19.2201 5.86038 19.2206 5.8711C19.2211 5.88183 19.218 5.89242 19.2118 5.90117C19.2056 5.90993 19.1966 5.91634 19.1863 5.91939C19.176 5.92244 19.165 5.92195 19.155 5.918L16.923 5ZM19.339 5.963L22.449 6.831C22.4647 6.83478 22.4787 6.84375 22.4887 6.85644C22.4987 6.86914 22.5041 6.88484 22.5041 6.901C22.5041 6.91716 22.4987 6.93286 22.4887 6.94556C22.4787 6.95825 22.4647 6.96722 22.449 6.971L19.806 7.696L19.339 5.963Z" fill="white"/>
</svg>
