<svg width="32" height="32" viewBox="0 0 32 32" fill="none" xmlns="http://www.w3.org/2000/svg">
<path d="M16 32C24.8366 32 32 24.8366 32 16C32 7.16344 24.8366 0 16 0C7.16344 0 0 7.16344 0 16C0 24.8366 7.16344 32 16 32Z" fill="#399B32"/>
<path d="M21.89 7.46784C21.782 7.90184 21.801 8.45784 21.921 8.50784C22.041 8.55884 22.343 8.27184 22.52 7.94584C22.69 7.64584 22.841 7.55684 23.05 7.63384C23.327 7.74184 23.283 7.83784 22.715 8.32884C22.243 8.73784 22.148 8.88484 22.275 9.01184C22.35 9.08884 22.406 9.07584 22.677 8.92884C23.017 8.75084 23.207 8.76284 23.207 8.96784C23.207 9.06284 23.081 9.13984 22.621 9.31784C22.293 9.44584 21.971 9.61184 21.896 9.69484C21.745 9.86084 21.48 10.3848 21.165 11.1568C20.894 11.8268 20.635 12.3188 20.465 12.5098C20.326 12.6628 19.86 12.7598 18.877 12.8358C18.417 12.8738 18.36 12.8678 18.335 12.7588C18.2642 12.4617 18.2074 12.1614 18.165 11.8588C18.165 11.8398 18.398 11.8458 18.688 11.8658C19.205 11.9038 19.721 12.0438 19.961 12.2098C20.144 12.3378 20.163 12.3188 20.245 11.9608C20.345 11.5528 20.56 11.0168 20.887 10.3528C21.133 9.86084 21.14 9.82284 21.114 9.35684C21.083 8.83984 20.994 8.61684 20.686 8.27784C20.572 8.15784 20.503 8.02284 20.522 7.97184C20.538 7.93264 20.5507 7.89217 20.56 7.85084C20.56 7.83784 20.616 7.82484 20.68 7.82484C20.755 7.82484 20.887 7.93984 21.007 8.11184C21.341 8.58484 21.442 8.49484 21.442 7.70984C21.442 7.35284 21.467 7.19984 21.549 7.10984C21.675 6.96984 21.776 6.96384 21.883 7.09084C21.946 7.16784 21.946 7.25084 21.89 7.46784ZM16.879 10.1418C16.923 10.6148 17.011 10.7798 17.295 10.8818C17.408 10.9268 17.565 10.9918 17.641 11.0168C17.824 11.0928 17.875 11.3668 18.07 13.1548C18.278 15.0948 18.322 15.3698 18.518 15.9698C18.814 16.8818 18.788 17.9418 18.442 19.0078C18.265 19.5568 18.07 19.8058 17.667 20.0228C16.86 20.4498 16.027 20.1378 15.379 19.1668C14.897 18.4668 14.719 17.5968 14.887 16.7608C14.982 16.3138 15.032 15.6378 14.987 15.4708C14.969 15.3888 14.767 15.1338 14.54 14.8908C13.834 14.1568 13.09 12.8418 13.236 12.6058C13.28 12.5418 13.311 12.3438 13.311 12.1718C13.311 11.8208 13.211 11.6798 12.769 11.4318C12.479 11.2658 12.46 11.0998 12.7 10.6398C12.832 10.3718 12.908 10.3148 13.57 9.97584C14.244 9.63184 14.547 9.53584 15.549 9.35684C15.965 9.27984 16.267 9.28684 16.494 9.38284C16.759 9.49784 16.834 9.64384 16.879 10.1428V10.1418ZM10.916 12.5228C10.916 12.8478 11.023 13.1678 11.099 13.0848C11.131 13.0528 11.199 12.8738 11.263 12.6888C11.363 12.3688 11.547 12.1788 11.673 12.2608C11.78 12.3308 11.742 12.7008 11.603 12.9308C11.414 13.2438 11.414 13.8378 11.61 14.2338C11.805 14.6168 12.208 15.0378 12.385 15.0378C12.492 15.0308 12.618 14.8778 12.965 14.2848L13.405 13.5378L13.475 13.9848C13.545 14.4888 13.513 14.6418 13.229 15.1338C12.914 15.6888 12.561 16.1228 12.429 16.1228C12.278 16.1228 11.937 15.7848 11.647 15.3508C11.534 15.1708 11.219 14.8268 10.954 14.5778L10.469 14.1248L10.173 14.1758C9.99183 14.2097 9.80825 14.2291 9.624 14.2338C9.397 14.2398 9.372 14.2268 9.354 14.0678C9.334 13.9278 9.366 13.8828 9.498 13.8508C9.64172 13.8255 9.78854 13.8232 9.933 13.8438C10.109 13.8698 10.242 13.8568 10.311 13.8058C10.418 13.7288 10.412 13.7158 10.305 13.5888C10.242 13.5118 10.053 13.4098 9.876 13.3528C9.436 13.2128 9.151 13.0208 9.151 12.8738C9.151 12.6828 9.391 12.6378 9.586 12.7968C10.236 13.3338 10.418 13.4098 10.589 13.2368C10.709 13.1168 10.677 12.8868 10.475 12.4848C10.299 12.1268 10.235 11.7948 10.33 11.6998C10.393 11.6298 10.557 11.6488 10.67 11.7378C10.803 11.8458 10.916 12.1978 10.916 12.5228ZM22.444 18.2728C22.287 18.4398 21.833 18.9698 21.436 19.4478C20.263 20.8648 20.144 21.0178 20.194 21.0698C20.244 21.1198 21.24 20.6798 21.467 20.5078C21.751 20.2838 22.267 19.7358 22.362 19.5498C22.406 19.4738 22.469 19.2378 22.514 19.0328C22.589 18.6498 22.797 18.3568 22.986 18.3568C23.112 18.3568 23.169 18.5038 23.119 18.6948C23.0331 18.9107 22.9276 19.1182 22.804 19.3148C22.646 19.5758 22.539 19.8118 22.551 19.8378C22.614 19.9328 22.848 19.8878 23.119 19.7288C23.276 19.6388 23.503 19.4038 23.673 19.1608C24.007 18.6888 24.234 18.4848 24.436 18.4848C24.606 18.4848 24.808 18.7018 24.764 18.8288C24.744 18.8798 24.454 19.1288 24.127 19.3788C23.56 19.8058 23.383 20.0288 23.484 20.1948C23.541 20.2908 24.064 20.1628 24.619 19.9148C25.564 19.4868 25.823 19.4608 25.974 19.7478C26.1 19.9848 25.791 20.1308 24.581 20.3988C24.247 20.4758 23.881 20.5968 23.768 20.6668L23.56 20.7948L23.705 20.9158C23.831 21.0188 23.963 21.0378 24.587 21.0378C25.148 21.0378 25.357 21.0628 25.451 21.1328C25.571 21.2288 25.564 21.2358 25.388 21.3948C25.274 21.4908 25.168 21.5418 25.104 21.5158C24.827 21.4008 23.888 21.2288 23.547 21.2288C22.936 21.2288 22.885 21.4528 23.44 21.6688C23.692 21.7718 23.787 21.8868 23.736 22.0208C23.68 22.1738 23.528 22.1478 22.98 21.8928C21.87 21.3758 21.669 21.3498 20.34 21.5228C19.709 21.6058 19.526 21.6128 19.457 21.5478C19.318 21.4328 19.343 21.3248 19.539 21.1528C19.696 21.0188 20.913 18.7528 20.856 18.7018C20.824 18.6698 19.596 19.1098 18.706 19.4798C18.593 19.5248 18.593 19.5188 18.706 19.3398C19.123 18.6568 20.326 17.8898 21.726 17.4118C22.451 17.1628 22.495 17.1568 22.797 17.1628C22.999 17.1758 23.056 17.2018 23.068 17.3028C23.088 17.4628 22.835 17.8588 22.444 18.2728ZM7.992 20.5278C8.225 20.8598 8.761 21.4218 8.842 21.4218C8.925 21.4218 8.855 20.8658 8.704 20.2848C8.565 19.7548 8.553 19.4998 8.66 19.3918C8.742 19.3088 9.02 19.2898 9.133 19.3658C9.177 19.3918 9.227 19.7558 9.265 20.3048C9.335 21.3068 9.385 21.4918 9.63 21.6508C9.788 21.7598 9.8 21.7598 9.876 21.6578C9.914 21.5998 9.958 21.3638 9.965 21.1278C9.983 20.4958 10.135 20.2148 10.405 20.3048C10.614 20.3678 10.633 20.6298 10.475 21.1278C10.292 21.7078 10.261 22.1298 10.343 22.6978C10.463 23.4708 10.753 24.1598 10.897 24.0128C10.929 23.9878 10.947 23.1258 10.954 22.1048C10.96 20.5088 10.973 20.1898 11.068 19.8898C11.244 19.3398 11.282 19.3148 11.975 19.3148C13.116 19.3148 15.234 19.6218 15.517 19.8248C15.82 20.0428 15.757 20.1198 15.158 20.3108C13.853 20.7128 13.217 20.7898 12.429 20.6368C12.171 20.5848 11.937 20.5538 11.912 20.5668C11.887 20.5788 11.912 20.7258 11.962 20.8918C12.12 21.4088 12.076 21.7278 11.704 22.8638C11.509 23.4448 11.326 24.1218 11.301 24.3638C11.276 24.6068 11.206 24.8488 11.168 24.8998C11.004 25.0978 10.822 25.0088 10.525 24.5938C10.154 24.0838 9.567 23.5218 9.227 23.3428C9.082 23.2658 8.603 23.1258 8.168 23.0228C7.387 22.8448 7.135 22.7228 7.229 22.5708C7.261 22.5128 7.399 22.5068 7.702 22.5318C8.256 22.5898 8.301 22.5128 7.929 22.1618C7.52336 21.8018 7.05851 21.5145 6.555 21.3128C6.082 21.1218 6 21.0578 6 20.9048C6 20.7828 6.176 20.6548 6.347 20.6548C6.403 20.6548 6.656 20.8278 6.901 21.0448C7.418 21.4848 7.777 21.6958 7.973 21.6648C8.333 21.6128 7.903 20.7768 7.229 20.2148C6.983 20.0108 6.744 19.7618 6.693 19.6658C6.611 19.5058 6.611 19.4878 6.725 19.4048C6.82959 19.344 6.95048 19.3171 7.071 19.3278C7.267 19.3478 7.311 19.3858 7.544 19.7938C7.683 20.0428 7.884 20.3738 7.992 20.5278ZM17.03 9.56784C17.352 9.51784 17.42 9.77884 17.42 9.77284C17.591 10.2128 17.49 10.7628 17.49 10.7628C17.263 10.7178 17.093 10.4368 17.093 10.4368C16.961 10.1238 17.03 9.56884 17.03 9.56884V9.56784ZM12.486 11.3878C12.486 11.3878 12.971 11.6558 13.154 11.9428C13.154 11.9428 13.28 12.2428 13.185 12.4598C13.185 12.4598 12.681 12.2238 12.429 11.8278C12.429 11.8348 12.265 11.6238 12.486 11.3878Z" fill="white"/>
</svg>
