<svg width="32" height="32" viewBox="0 0 32 32" fill="none" xmlns="http://www.w3.org/2000/svg">
<path d="M16 32C24.8366 32 32 24.8366 32 16C32 7.16344 24.8366 0 16 0C7.16344 0 0 7.16344 0 16C0 24.8366 7.16344 32 16 32Z" fill="#FEC60D"/>
<path d="M26.6669 10.1469L23.2289 8.16786C23.1109 8.09786 23.0019 8.03686 22.8849 7.96986C22.7709 7.90486 22.6599 7.83486 22.5439 7.76786C21.8549 7.37386 21.1639 6.99186 20.4829 6.58386L17.2169 4.69786C17.0269 4.58286 16.0449 4.00586 16.0029 4.00586C15.9859 4.00586 15.8619 4.08586 15.8349 4.10286L11.3729 6.67286C11.3079 6.70986 11.2629 6.73886 11.1969 6.77486C11.1401 6.80628 11.0841 6.83895 11.0289 6.87286L10.6869 7.07286C10.6287 7.108 10.57 7.14234 10.5109 7.17586L10.1749 7.36986C10.0569 7.43986 9.94586 7.49986 9.82986 7.56686L9.13886 7.96186C9.07886 7.99286 9.02886 8.02586 8.97086 8.05886L8.10686 8.55886C7.98686 8.62886 7.87586 8.68686 7.75886 8.75386L7.07586 9.15686C6.73286 9.35286 6.38886 9.56186 6.04086 9.75086C5.88786 9.83286 5.08486 10.3229 5.00586 10.3439V23.0579C5.06986 23.0639 5.94786 23.5869 6.03886 23.6409L7.41486 24.4369C7.52986 24.5069 7.64486 24.5699 7.75886 24.6359L8.43886 25.0279C8.49686 25.0579 8.54886 25.0919 8.60886 25.1249C8.67486 25.1609 8.71786 25.1919 8.78486 25.2249C8.95986 25.3149 9.12786 25.4219 9.29486 25.5229L10.1609 26.0219C10.2209 26.0549 10.2689 26.0839 10.3279 26.1189C10.6659 26.3229 11.0169 26.5059 11.3539 26.7089L12.5609 27.4089C13.3579 27.8799 14.1709 28.3189 14.9639 28.7949L15.9069 29.3409C16.0569 29.4419 16.1119 29.3279 16.3479 29.1989L18.4139 28.0069C18.5279 27.9409 18.6389 27.8769 18.7589 27.8099L19.0959 27.6169C19.1529 27.5859 19.2059 27.5529 19.2629 27.5179L21.1579 26.4209C21.7239 26.0819 22.3079 25.7749 22.8739 25.4349L26.6469 23.2489C26.7019 23.2159 26.7569 23.1829 26.8149 23.1509C26.8749 23.1189 26.9319 23.0739 26.9999 23.0589V10.3439C26.8929 10.2719 26.7819 10.2169 26.6669 10.1469ZM19.8769 22.5909H16.6619V23.4329C16.6619 23.4429 16.6579 23.4459 16.6479 23.4459H15.0979V22.5909H12.1289V20.2109C12.1289 20.1859 12.1589 20.1649 12.1739 20.1509L12.4749 19.8259C12.4837 19.8177 12.4921 19.809 12.4999 19.7999C12.5068 19.7903 12.5145 19.7812 12.5229 19.7729L12.6979 19.5869L12.6999 19.5839L12.7519 19.5309L12.7749 19.5029L12.8309 19.4439L12.8369 19.4369L13.0239 19.2349C13.0639 19.1939 13.1039 19.1549 13.1419 19.1099L13.1439 19.1079L13.1499 19.0999L13.2759 18.9659C13.2939 18.9459 13.3079 18.9349 13.3249 18.9129L13.4769 18.7509L13.5019 18.7259C13.5101 18.717 13.5178 18.7077 13.5249 18.6979L13.7799 18.4259L13.7819 18.4239L13.7879 18.4169L13.8269 18.3769C13.8769 18.3129 13.9669 18.2329 14.0199 18.1689L14.0259 18.1609C14.0429 18.1409 14.0619 18.1269 14.0779 18.1079L14.1769 18.0009C14.2469 17.9309 14.3069 17.8549 14.3769 17.7849L14.6019 17.5429L14.6269 17.5179L14.7249 17.4099C14.7439 17.3909 14.7619 17.3769 14.7769 17.3569C14.7919 17.3369 14.8109 17.3229 14.8279 17.3029L14.9269 17.1959C14.9369 17.1859 14.9449 17.1789 14.9539 17.1679L15.0289 17.0869C15.0439 17.0669 15.0629 17.0529 15.0799 17.0329C15.1239 16.9839 15.2499 16.8549 15.2769 16.8189C15.2929 16.7989 15.3119 16.7869 15.3259 16.7669C15.2863 16.7184 15.2439 16.6723 15.1989 16.6289L15.1009 16.5209L15.0749 16.4959C15.0649 16.4839 15.0619 16.4779 15.0499 16.4659C14.9729 16.3879 14.9019 16.3049 14.8239 16.2259L14.6989 16.0909C14.6916 16.0812 14.6836 16.0722 14.6749 16.0639L13.5249 14.8299C13.5172 14.8193 13.5088 14.8093 13.4999 14.7999L13.3299 14.6169L13.3279 14.6149L12.9509 14.2089C12.9429 14.1989 12.9349 14.1929 12.9259 14.1839L12.8259 14.0739C12.7579 14.0039 12.6929 13.9279 12.6239 13.8589L12.6019 13.8349L12.5999 13.8329L12.5259 13.7519C12.4919 13.7149 12.4559 13.6809 12.4229 13.6439C12.4119 13.6319 12.4099 13.6259 12.3979 13.6139C12.3299 13.5449 12.2679 13.4699 12.1979 13.4019C12.1899 13.3919 12.1819 13.3859 12.1739 13.3769C12.1649 13.3669 12.1289 13.3319 12.1289 13.3209V10.9319H15.0969V9.93986C15.6189 9.93986 16.1349 9.94986 16.6569 9.94986V10.8999C16.6569 10.9109 16.6599 10.9149 16.6709 10.9149H19.8769V13.3259H15.4539C15.4799 13.3659 15.5199 13.3989 15.5509 13.4349L15.7969 13.7049C15.8119 13.7249 15.8279 13.7389 15.8449 13.7589C15.8869 13.8089 15.9339 13.8519 15.9749 13.9019L16.3329 14.2949C16.4029 14.3629 16.4629 14.4399 16.5299 14.5099L17.4429 15.5129L17.4489 15.5209L17.7759 15.8809L17.8009 15.9049C17.8449 15.9489 17.8809 15.9989 17.9249 16.0429L18.5129 16.6859C18.5369 16.7119 18.5629 16.7359 18.5829 16.7659C18.5739 16.7799 18.5669 16.7839 18.5559 16.7959C18.5488 16.8053 18.5411 16.8143 18.5329 16.8229L18.4099 16.9559C18.4028 16.9653 18.3951 16.9744 18.3869 16.9829L18.0919 17.3059C18.0719 17.3249 18.0619 17.3409 18.0419 17.3599C18.0019 17.3999 17.9419 17.4749 17.8949 17.5199L17.6889 17.7489C17.6479 17.7979 17.5379 17.9069 17.5049 17.9489L17.2119 18.2689C17.1489 18.3459 17.0779 18.4119 17.0139 18.4879L16.8939 18.6179C16.8339 18.6789 16.7819 18.7439 16.7239 18.8059C16.7139 18.8159 16.7059 18.8229 16.6969 18.8339C16.6289 18.9109 16.5549 18.9839 16.4879 19.0639L16.4779 19.0759L16.2209 19.3549L16.2149 19.3619L16.2059 19.3719L16.2039 19.3749L16.0859 19.5049C16.0775 19.5129 16.0698 19.5216 16.0629 19.5309C16.0551 19.5401 16.0468 19.5488 16.0379 19.5569C15.9869 19.6069 15.9429 19.6669 15.8919 19.7169C15.8836 19.7254 15.8759 19.7344 15.8689 19.7439L15.7709 19.8519C15.7629 19.8619 15.7549 19.8679 15.7459 19.8769L15.4539 20.1989H19.7539C19.7949 20.1989 19.8769 20.1889 19.8769 20.2119V22.5919V22.5909Z" fill="white"/>
</svg>
