<svg width="32" height="32" viewBox="0 0 32 32" fill="none" xmlns="http://www.w3.org/2000/svg">
<path d="M16 32C24.8366 32 32 24.8366 32 16C32 7.16344 24.8366 0 16 0C7.16344 0 0 7.16344 0 16C0 24.8366 7.16344 32 16 32Z" fill="#1591CA"/>
<path d="M16.5719 15.272C16.5719 15.272 17.8989 12.322 15.2969 9.47202C15.2969 9.47202 13.8169 7.57202 10.7569 7.72202L11.3679 7.48202C11.4699 7.44202 11.5769 7.41402 11.6849 7.40002L12.2869 7.32202L16.5209 6.67202C16.5209 6.67202 18.0179 6.37802 19.1529 6.70202C19.4759 6.79502 19.7699 6.97002 20.0029 7.20802C20.6289 7.84202 21.8859 9.51902 21.0629 12.172C21.0629 12.172 20.2459 15.122 17.1849 15.822C17.1849 15.822 16.4189 16.022 16.5719 15.272ZM16.3829 16.916C16.3829 16.916 18.2959 19.539 22.1249 18.8C22.1249 18.8 24.5469 18.521 25.9759 15.863L25.8739 16.502C25.8569 16.608 25.8269 16.712 25.7839 16.811L25.5459 17.358L23.9579 21.258C23.9579 21.258 23.4529 22.669 22.5899 23.461C22.3421 23.6867 22.0404 23.8447 21.7139 23.92C20.8389 24.123 18.7259 24.328 16.8159 22.282C16.8159 22.282 14.6429 20.09 15.5889 17.152C15.5889 17.15 15.8029 16.405 16.3829 16.916ZM14.9979 15.969C14.9979 15.969 11.7279 16.313 10.5029 19.944C10.5029 19.944 9.55888 22.148 11.2169 24.674L10.6999 24.274C10.614 24.2076 10.5367 24.1307 10.4699 24.045L10.0999 23.573L7.41588 20.3C7.41588 20.3 6.40888 19.173 6.13188 18.05C6.05188 17.728 6.05988 17.39 6.15388 17.072C6.40288 16.225 7.25988 14.322 10.0169 13.7C10.0169 13.7 13.0339 12.923 15.1789 15.176C15.1809 15.176 15.7389 15.726 14.9989 15.969H14.9979Z" fill="white"/>
<path opacity="0.5" d="M17.106 16.1593C17.106 16.1593 20.366 15.7353 21.496 12.0743C21.496 12.0743 22.383 9.84728 20.659 7.36328L21.187 7.75028C21.274 7.81528 21.354 7.89028 21.423 7.97328L21.804 8.43528L24.574 11.6413C24.574 11.6413 25.608 12.7413 25.916 13.8593C26.003 14.1793 26.003 14.5153 25.916 14.8353C25.689 15.6883 24.882 17.6133 22.141 18.3033C22.141 18.3033 19.145 19.1533 16.943 16.9573C16.945 16.9573 16.373 16.4213 17.106 16.1593ZM15.468 16.7633C15.468 16.7633 14.067 19.6793 16.595 22.5923C16.595 22.5923 18.024 24.5273 21.09 24.4523L20.472 24.6773C20.369 24.7145 20.2619 24.739 20.153 24.7503L19.55 24.8143L15.3 25.3603C15.3 25.3603 13.797 25.6173 12.67 25.2653C12.3504 25.1644 12.0621 24.9829 11.833 24.7383C11.223 24.0883 10.01 22.3823 10.901 19.7513C10.901 19.7513 11.791 16.8213 14.87 16.1973C14.87 16.2003 15.643 16.0173 15.468 16.7633ZM15.577 15.2263C15.577 15.2263 13.625 12.6303 9.808 13.4263C9.808 13.4263 7.39 13.7383 6 16.4163L6.092 15.7753C6.10772 15.6688 6.13661 15.5647 6.178 15.4653L6.408 14.9153L7.938 10.9913C7.938 10.9913 8.423 9.57328 9.274 8.76928C9.51948 8.54053 9.81982 8.37899 10.146 8.30028C11.018 8.08328 13.128 7.85028 15.066 9.86928C15.066 9.86928 17.271 12.0303 16.368 14.9813C16.368 14.9793 16.164 15.7293 15.577 15.2263Z" fill="white"/>
</svg>
