<svg width="32" height="32" viewBox="0 0 32 32" fill="none" xmlns="http://www.w3.org/2000/svg">
<path d="M16 32C24.8366 32 32 24.8366 32 16C32 7.16344 24.8366 0 16 0C7.16344 0 0 7.16344 0 16C0 24.8366 7.16344 32 16 32Z" fill="#2ED6A1"/>
<path d="M14.8562 17.62H19.2762C19.6685 17.6188 20.0567 17.5404 20.4186 17.3892C20.7806 17.238 21.1092 17.017 21.3857 16.7388C21.6623 16.4606 21.8813 16.1306 22.0303 15.7678C22.1793 15.4049 22.2554 15.0163 22.2542 14.624C22.2564 13.832 21.9438 13.0715 21.3854 12.5099C20.8269 11.9482 20.0683 11.6314 19.2762 11.629H17.8702L14.8562 9H19.2762C20.5763 9.00311 21.8348 9.45826 22.836 10.2875C23.8373 11.1167 24.5189 12.2683 24.7642 13.545C25.0147 14.8224 24.8149 16.1471 24.1989 17.2939C23.5828 18.4406 22.5886 19.3386 21.3852 19.835L24.8702 22.877H20.8792L14.8562 17.619V17.62ZM17.0132 14.26H12.5932C11.8014 14.2624 11.0429 14.5791 10.4844 15.1405C9.92602 15.702 9.61338 16.4621 9.61524 17.254C9.61311 18.046 9.92564 18.8065 10.4841 19.3681C11.0426 19.9298 11.8012 20.2466 12.5932 20.249H14.0002L17.0122 22.879H12.5932C11.2932 22.8759 10.0347 22.4207 9.03347 21.5915C8.03221 20.7623 7.35053 19.6107 7.10524 18.334C6.85478 17.0566 7.05456 15.7319 7.67059 14.5851C8.28662 13.4384 9.28087 12.5404 10.4842 12.044L7.00224 9H10.9932L17.0132 14.26Z" fill="white"/>
</svg>
