<svg width="32" height="32" viewBox="0 0 32 32" fill="none" xmlns="http://www.w3.org/2000/svg">
<path d="M16 32C24.8366 32 32 24.8366 32 16C32 7.16344 24.8366 0 16 0C7.16344 0 0 7.16344 0 16C0 24.8366 7.16344 32 16 32Z" fill="#008200"/>
<path d="M14.79 23H12.992L11.91 18.75L14.555 17.368L15.416 19.828L16.057 16.583L19.572 14.746L19.378 15.722L21.408 15.741C22.192 15.729 22.799 15.464 23.231 14.948C23.663 14.431 23.868 13.738 23.846 12.865C23.8425 12.7526 23.8308 12.6407 23.811 12.53L26.541 11.103C26.919 11.798 27.063 12.617 26.975 13.558C26.829 14.93 26.235 16.028 25.196 16.851C24.157 17.675 22.832 18.087 21.223 18.087L18.917 18.077L17.94 23H14.79ZM15.211 12.01H16.961L14.264 15.835L7.604 19.316L10.072 15.826L7.7 9H11.18L12.41 13.789L13.462 12.009H15.212H13.462L15.34 9H17.555L22.681 9.01C23.846 9.042 24.801 9.351 25.547 9.937L22.747 11.401C22.6782 11.3882 22.6088 11.3796 22.539 11.375L20.245 11.355L19.945 12.865L16.428 14.703L16.96 12.009L15.211 12.01ZM5.786 21.952L11.113 19.167L8.765 23H5L5.767 21.915L5.786 21.952Z" fill="white"/>
</svg>
