<svg width="32" height="32" viewBox="0 0 32 32" fill="none" xmlns="http://www.w3.org/2000/svg">
<path d="M16 32C24.8366 32 32 24.8366 32 16C32 7.16344 24.8366 0 16 0C7.16344 0 0 7.16344 0 16C0 24.8366 7.16344 32 16 32Z" fill="#4BA2F2"/>
<path d="M9.86952 8.22918C10.0855 8.26618 9.54752 9.69918 9.84752 11.3362C10.1075 12.7392 13.3545 18.1722 13.2205 20.0362C13.1165 21.2062 10.4505 23.9512 10.1695 23.7682C9.86252 23.6832 10.9795 21.8182 10.5655 20.2642C10.0835 18.4522 7.22552 13.7682 7.22852 11.7002C7.22852 10.1872 9.67652 8.13118 9.86852 8.22918H9.86952ZM15.9785 6.08918C16.2525 6.13618 15.5685 7.96518 15.9505 10.0482C16.2805 11.8402 20.4235 18.7682 20.2515 21.1432C20.1175 22.6372 16.7195 26.1342 16.3595 25.9032C15.9695 25.7962 17.3935 23.4172 16.8655 21.4352C16.2525 19.1272 12.6075 13.1532 12.6105 10.5162C12.6105 8.58518 15.7325 5.96618 15.9785 6.09018V6.08918ZM22.2835 8.22918C22.4995 8.26618 21.9625 9.69918 22.2615 11.3362C22.5215 12.7392 25.7685 18.1722 25.6355 20.0362C25.5325 21.2062 22.8655 23.9512 22.5835 23.7682C22.2775 23.6832 23.3935 21.8182 22.9795 20.2642C22.4985 18.4522 19.6395 13.7682 19.6425 11.7002C19.6425 10.1872 22.0925 8.13118 22.2835 8.22918Z" fill="white"/>
</svg>
