<svg width="32" height="32" viewBox="0 0 32 32" fill="none" xmlns="http://www.w3.org/2000/svg">
<path d="M16 32C24.8366 32 32 24.8366 32 16C32 7.16344 24.8366 0 16 0C7.16344 0 0 7.16344 0 16C0 24.8366 7.16344 32 16 32Z" fill="#30367A"/>
<path d="M14.353 22.298V9.028H10.5V6H21.5V9.028H17.647V22.298H14.353ZM13.466 26C11.477 26 10.536 25.044 10.536 23.022V9.896H13.43V22.888C13.43 23.208 13.535 23.314 13.849 23.314H18.188C18.502 23.314 18.608 23.207 18.608 22.888V9.896H21.5V23.022C21.5 25.044 20.558 26 18.57 26H13.466Z" fill="white"/>
</svg>
