<svg width="32" height="32" viewBox="0 0 32 32" fill="none" xmlns="http://www.w3.org/2000/svg">
<path d="M16 32C24.8366 32 32 24.8366 32 16C32 7.16344 24.8366 0 16 0C7.16344 0 0 7.16344 0 16C0 24.8366 7.16344 32 16 32Z" fill="#4F7AA2"/>
<path d="M13.309 12H16.047C17.369 12 19.73 12.803 19.73 16C19.73 19.197 17.37 20 16.047 20H13.31L13.309 12ZM14.819 18.38H15.953C16.897 18.38 18.03 17.802 18.03 16C18.03 14.198 16.897 13.62 15.953 13.62H14.82L14.819 18.38ZM20.77 12H21.336L26.434 19.026V12H27V20H26.433L21.335 13.128V20H20.768L20.77 12ZM5 12H6.888V14H5V12ZM7.833 12H9.72V14H7.833V12ZM10.665 12H12.554V14H10.665V12ZM10.665 15H12.554V17H10.665V15ZM10.665 18H12.554V20H10.665V18ZM7.833 15H9.72V17H7.833V15Z" fill="white"/>
</svg>
