<svg width="32" height="32" viewBox="0 0 32 32" fill="none" xmlns="http://www.w3.org/2000/svg">
<path d="M16 32C24.8366 32 32 24.8366 32 16C32 7.16344 24.8366 0 16 0C7.16344 0 0 7.16344 0 16C0 24.8366 7.16344 32 16 32Z" fill="#033B4A"/>
<path d="M15.5315 7.06409C16.0885 6.90109 16.6795 7.06709 17.1605 7.35809C19.3056 8.58672 21.4604 9.79842 23.6245 10.9931C24.4575 11.4341 25.0115 12.3391 24.9995 13.2731C24.9975 16.3671 24.9895 19.4631 24.9945 22.5571C25.0285 22.7721 24.8825 23.0171 24.6385 22.9951C23.6775 23.0011 22.7165 22.9971 21.7555 22.9961C21.5455 23.0271 21.3435 22.8511 21.3655 22.6381C21.2735 20.0031 21.3085 17.3651 21.3355 14.7281C21.3355 14.3981 21.2715 14.0501 21.0585 13.7831C20.8425 13.5001 20.5015 13.3551 20.1965 13.1871C19.6965 12.9251 19.2255 12.6081 18.7075 12.3791C18.5115 12.3011 18.2565 12.2171 18.0715 12.3661C17.8665 12.5591 17.8685 12.8641 17.8475 13.1241C17.8097 14.4171 17.806 15.7109 17.8365 17.0041C17.8355 17.3101 17.8455 17.6661 17.6115 17.9041C17.3725 18.1381 17.0115 18.1421 16.6975 18.1471C16.1295 18.1411 15.5615 18.1621 14.9955 18.1341C14.7555 18.1081 14.4675 18.0941 14.3115 17.8841C14.1715 17.6771 14.1775 17.4161 14.1655 17.1781C14.1625 15.8191 14.1795 14.4591 14.1655 13.1011C14.1515 12.8611 14.1555 12.5911 13.9855 12.4011C13.8225 12.2331 13.5625 12.2881 13.3665 12.3591C12.9415 12.5251 12.5605 12.7791 12.1575 12.9891C11.7545 13.2211 11.3215 13.4191 10.9755 13.7351C10.7505 13.9401 10.6905 14.2521 10.6835 14.5401C10.6785 17.2101 10.6865 19.8781 10.6635 22.5481C10.6865 22.7501 10.5665 22.9961 10.3305 22.9921C9.34053 23.0041 8.35053 22.9971 7.36053 22.9951C7.16253 23.0141 6.98053 22.8401 7.00053 22.6431C7.04053 19.3981 7.01553 16.1521 7.01853 12.9061C7.00924 12.5667 7.09363 12.2313 7.26245 11.9367C7.43127 11.6421 7.67799 11.3997 7.97553 11.2361C10.2305 9.97209 12.4895 8.71609 14.7355 7.43709C14.9895 7.29309 15.2455 7.14209 15.5315 7.06409Z" fill="white"/>
</svg>
