<svg width="32" height="32" viewBox="0 0 32 32" fill="none" xmlns="http://www.w3.org/2000/svg">
<path d="M16 32C24.8366 32 32 24.8366 32 16C32 7.16344 24.8366 0 16 0C7.16344 0 0 7.16344 0 16C0 24.8366 7.16344 32 16 32Z" fill="#B3BA00"/>
<path d="M13.13 10.664L13 10.743L19 20V10.735L16.004 9L13.13 10.664ZM13 21.165L16.136 23L19 21.328L13 12V21.165ZM10 12.356V19.644L12 21V11L10 12.356ZM20 21L22 19.613V12.387L20 11V21Z" fill="white"/>
<path d="M16 4C9.375 4 4 9.375 4 16C4 22.625 9.375 28 16 28C22.625 28 28 22.625 28 16C28 9.375 22.625 4 16 4ZM15.95 23.62L9.474 19.78V12.112L15.951 8.282L22.427 12.112V19.781L15.951 23.619L15.95 23.62Z" fill="white"/>
</svg>
