<svg width="32" height="32" viewBox="0 0 32 32" fill="none" xmlns="http://www.w3.org/2000/svg">
<path d="M16 32C24.8366 32 32 24.8366 32 16C32 7.16344 24.8366 0 16 0C7.16344 0 0 7.16344 0 16C0 24.8366 7.16344 32 16 32Z" fill="black"/>
<path d="M22.514 8.492V9.483H9.81V22.517H22.514V24.5L15.094 24.443L7.644 24.358L7.558 15.915L7.5 7.5H22.514V8.492Z" fill="white"/>
<path d="M23.6976 10.8999C24.8236 11.2119 25.8056 12.0899 26.1226 13.0819C26.2956 13.6769 26.2096 13.7329 25.1986 13.7329C24.4186 13.7329 23.9866 13.5629 23.7266 13.1669C23.2936 12.4579 21.3296 12.3729 20.7526 13.0529C20.1176 13.8179 20.8106 14.3849 23.0626 14.8949C24.1886 15.1499 25.3726 15.5749 25.6896 15.8579C27.1336 17.1329 26.5556 19.9379 24.6796 20.7029C23.4096 21.2129 21.3296 21.2129 20.0596 20.7029C19.1936 20.3349 18.1826 19.0599 18.1826 18.2669C18.1826 17.7569 20.0596 17.9549 20.5506 18.5499C21.5906 19.7119 24.0146 19.5419 24.1886 18.2949C24.3326 17.3319 23.7836 16.9069 22.1386 16.7079C19.4536 16.3399 18.4716 15.5179 18.4716 13.6479C18.4716 11.4379 20.8966 10.1349 23.6976 10.8999Z" fill="white"/>
</svg>
