<svg width="32" height="32" viewBox="0 0 32 32" fill="none" xmlns="http://www.w3.org/2000/svg">
<path d="M16 32C24.8366 32 32 24.8366 32 16C32 7.16344 24.8366 0 16 0C7.16344 0 0 7.16344 0 16C0 24.8366 7.16344 32 16 32Z" fill="#2D9CDB"/>
<path d="M20.0539 5.606C20.4459 5.606 20.7619 5.726 21.0009 5.965C21.2399 6.204 21.3589 6.519 21.3589 6.912V18.586C21.3589 19.916 21.0439 21.129 20.4119 22.221C19.8095 23.2842 18.9349 24.1678 17.8779 24.781C16.8199 25.395 15.6339 25.702 14.3189 25.702C13.0049 25.702 11.8019 25.395 10.7089 24.781C9.65194 24.1678 8.77731 23.2842 8.17491 22.221C7.56091 21.129 7.25391 19.917 7.25391 18.586C7.25391 17.255 7.53491 16.051 8.09891 14.976C8.67891 13.884 9.46391 13.03 10.4539 12.416C11.4609 11.802 12.5789 11.494 13.8069 11.494C14.7525 11.4871 15.6875 11.6929 16.5428 12.0962C17.3981 12.4995 18.1517 13.09 18.7479 13.824V6.912C18.7479 6.519 18.8679 6.204 19.1069 5.965C19.3629 5.72513 19.7032 5.59609 20.0539 5.606ZM14.3189 23.398C15.1729 23.398 15.9409 23.194 16.6229 22.784C17.3171 22.3636 17.8837 21.7621 18.2619 21.044C18.6539 20.309 18.8509 19.49 18.8509 18.586C18.8509 17.682 18.6539 16.87 18.2609 16.154C17.8872 15.4393 17.3194 14.8445 16.6229 14.438C15.9409 14.012 15.1729 13.798 14.3189 13.798C13.4659 13.798 12.6889 14.012 11.9889 14.438C11.3001 14.8543 10.7347 15.4466 10.3509 16.154C9.95891 16.87 9.76291 17.681 9.76291 18.586C9.76291 19.491 9.95891 20.309 10.3509 21.043C10.7391 21.7541 11.3035 22.3536 11.9899 22.784C12.6899 23.194 13.4659 23.398 14.3199 23.398H14.3189Z" fill="white"/>
</svg>
