<svg width="32" height="32" viewBox="0 0 32 32" fill="none" xmlns="http://www.w3.org/2000/svg">
<path d="M16 32C24.8366 32 32 24.8366 32 16C32 7.16344 24.8366 0 16 0C7.16344 0 0 7.16344 0 16C0 24.8366 7.16344 32 16 32Z" fill="#16B9AD"/>
<path d="M26 13.193C26 18.601 21.513 23 16 23C10.487 23 6 18.6 6 13.195C6 12.797 6.024 12.398 6.074 12.002H7.87C7.81 12.397 7.78 12.796 7.78 13.195C7.78 17.64 11.468 21.257 16.001 21.257C20.327 21.257 23.883 17.965 24.201 13.802H11.48C11.75 15.746 13.283 17.29 15.257 17.609C17.232 17.927 19.187 16.945 20.079 15.189H22.004C21.129 17.711 18.714 19.407 15.998 19.409C12.502 19.409 9.657 16.62 9.657 13.193C9.657 12.793 9.697 12.393 9.774 12H25.926C25.976 12.396 26 12.794 26 13.193Z" fill="white"/>
</svg>
