<svg width="32" height="32" viewBox="0 0 32 32" fill="none" xmlns="http://www.w3.org/2000/svg">
<path d="M16 32C24.8366 32 32 24.8366 32 16C32 7.16344 24.8366 0 16 0C7.16344 0 0 7.16344 0 16C0 24.8366 7.16344 32 16 32Z" fill="#CC1E46"/>
<path d="M11.816 9.2402C13.4897 7.98239 15.4831 7.22009 17.569 7.04021C17.781 6.99721 18.011 7.1312 18.004 7.3652C18.024 7.9252 18.01 8.48521 18.01 9.04521C18.024 9.21921 17.932 9.4452 17.732 9.4502C15.886 9.6542 14.132 10.4082 12.608 11.4502C12.464 11.5312 12.496 11.7182 12.508 11.8542C12.614 12.8362 12.542 13.8252 12.571 14.8102C17.545 14.8242 22.521 14.8082 27.497 14.8182C27.734 14.7982 27.984 14.9332 27.965 15.1982C27.99 16.8732 27.97 18.5482 27.975 20.2222C27.979 21.1322 27.785 22.0742 27.234 22.8182C26.364 23.9872 24.834 24.6882 23.38 24.4302C22.35 24.2762 21.46 23.6372 20.836 22.8262C19.1375 24.1038 17.1106 24.872 14.992 25.0412C14.777 25.0442 14.616 24.8332 14.649 24.6272C14.656 24.0412 14.637 23.4532 14.659 22.8672C14.709 22.5572 15.091 22.6172 15.318 22.5662C17.062 22.2942 18.73 21.5632 20.154 20.5262C20.0806 19.4382 20.0549 18.3475 20.077 17.2572C15.085 17.2252 10.091 17.2552 5.09901 17.2412C4.87901 17.2662 4.66702 17.1012 4.68802 16.8682C4.68402 15.1052 4.68501 13.3412 4.69001 11.5782C4.70001 10.6562 4.99102 9.72421 5.60202 9.02121C6.40702 8.10521 7.62101 7.52021 8.85301 7.59221C10.033 7.63921 11.116 8.3102 11.816 9.2402ZM6.70001 11.8822C6.69801 12.9152 6.69702 13.9492 6.70202 14.9842C7.93602 14.9832 9.16801 15.0012 10.401 14.9742C10.403 13.9662 10.416 12.9592 10.395 11.9512C10.376 10.9852 9.50302 10.1312 8.53302 10.1512C7.58601 10.1122 6.72301 10.9412 6.70001 11.8812V11.8822ZM22.409 17.1722C22.399 18.1542 22.407 19.1372 22.403 20.1192C22.397 20.5122 22.516 20.8962 22.743 21.2162C23.217 21.8932 24.161 22.1892 24.933 21.8902C25.646 21.6262 26.117 20.8802 26.109 20.1302C26.109 19.1442 26.114 18.1602 26.105 17.1742C24.873 17.1642 23.641 17.1692 22.409 17.1712V17.1722Z" fill="white"/>
</svg>
