<svg width="32" height="32" viewBox="0 0 32 32" fill="none" xmlns="http://www.w3.org/2000/svg">
<path d="M16 32C24.8366 32 32 24.8366 32 16C32 7.16344 24.8366 0 16 0C7.16344 0 0 7.16344 0 16C0 24.8366 7.16344 32 16 32Z" fill="#F80000"/>
<path d="M20.5 16.842L13.804 26L14.051 18.559H12.5L13.134 12.027L20.218 11.051L17.892 16.976L20.5 16.842ZM15.002 23.34V21.59C15.002 21.46 14.892 21.354 14.756 21.354C14.62 21.354 14.509 21.459 14.509 21.589V23.34C14.509 23.47 14.619 23.576 14.756 23.576C14.893 23.576 15.002 23.47 15.002 23.34ZM13.17 18.054H14.58L14.515 20.747C14.514 20.818 14.542 20.887 14.594 20.937C14.646 20.987 14.717 21.017 14.791 21.017H14.803C14.8734 21.0184 14.9416 20.9922 14.993 20.944C15.0444 20.8958 15.0749 20.8294 15.078 20.759L15.143 17.582H13.733L14.206 12.363C14.211 12.303 14.19 12.243 14.147 12.198C14.104 12.153 14.044 12.128 13.98 12.128H13.94C13.8846 12.1269 13.8307 12.1464 13.789 12.1829C13.7472 12.2193 13.7205 12.2699 13.714 12.325L13.17 18.054ZM13.17 11.454L15.778 9.3C15.918 7.145 14.508 6.808 14.508 6.808L14.72 6C17.046 6.673 16.694 9.232 16.694 9.232L20.077 10.646L13.17 11.454Z" fill="white"/>
</svg>
