<svg width="32" height="32" viewBox="0 0 32 32" fill="none" xmlns="http://www.w3.org/2000/svg">
<path d="M16 32C24.8366 32 32 24.8366 32 16C32 7.16344 24.8366 0 16 0C7.16344 0 0 7.16344 0 16C0 24.8366 7.16344 32 16 32Z" fill="#FF4081"/>
<path d="M13.89 21.5029L14.048 24.9999C14.048 24.9999 15.923 24.6819 17.876 24.9999L18.032 21.5029H13.89ZM11.626 18.7999C11.626 18.7999 17.095 18.3229 20.298 18.7999L20.61 14.9849C17.5679 14.7489 14.5121 14.7489 11.47 14.9849L11.626 18.7999ZM26 8.94385C26 8.94385 15.531 6.71785 6 9.10285L6.703 13.4739L7.563 11.8049C7.563 11.8049 16.547 10.4539 24.593 11.8049L25.375 13.4749L26 8.94385Z" fill="white"/>
</svg>
