<svg width="32" height="32" viewBox="0 0 32 32" fill="none" xmlns="http://www.w3.org/2000/svg">
<path d="M16 32C24.8366 32 32 24.8366 32 16C32 7.16344 24.8366 0 16 0C7.16344 0 0 7.16344 0 16C0 24.8366 7.16344 32 16 32Z" fill="#443F54"/>
<path opacity="0.7" d="M15.5083 26.7084C14.0923 25.8464 12.3693 24.8004 10.9543 23.9384C10.3383 23.5694 9.66234 23.2004 9.04634 22.7694C8.80034 22.5854 8.80034 22.4004 8.80034 22.2774C9.41534 19.3854 10.0923 16.2474 10.7703 13.4154L10.3383 12.0624C10.3383 12.0624 8.86234 19.1384 8.12334 22.2774C8.00034 22.7074 8.12334 22.9544 8.55334 23.2004C10.9533 24.6154 15.8153 27.6924 15.8153 27.6924L15.5083 26.7084ZM16.6773 26.7084C18.0923 25.8464 19.8153 24.8004 21.2313 23.9384C21.8463 23.5694 22.5233 23.2004 23.1383 22.7694C23.3853 22.5854 23.3853 22.4004 23.3853 22.2774C22.7693 19.3854 22.0923 16.2474 21.4153 13.4154L21.9083 12.1234C21.9083 12.1234 23.3853 19.1384 24.0623 22.2774C24.1853 22.7074 24.0623 22.9544 23.6313 23.2004C21.2313 24.6154 16.3693 27.6924 16.3693 27.6924L16.6773 26.7084ZM21.3543 12.1854L21.1083 11.8154H11.1383L10.8923 12.1854C10.8923 12.1854 11.0773 12.6774 11.0153 12.4924H21.2923C21.1693 12.6154 21.3543 12.1854 21.3543 12.1854Z" fill="#FEFFFE"/>
<path d="M21.6621 11.63C21.6621 11.63 18.2771 6.70898 16.8001 4.55498C16.4921 4.18498 16.3081 4.00098 16.1231 4.00098C15.9381 4.00098 15.6931 4.18598 15.4461 4.55498C13.9691 6.64698 10.5851 11.632 10.5851 11.632C10.2771 12.062 10.2771 12.186 10.5231 12.739C10.5231 12.739 12.9231 19.386 13.9081 22.339C14.4001 23.693 15.6921 27.57 15.6921 27.57C15.7541 27.693 16.0001 27.755 16.1231 27.755C16.2841 27.7475 16.4369 27.6817 16.5531 27.57C16.5531 27.57 17.9081 23.693 18.3381 22.34C19.3231 19.447 21.7231 12.74 21.7231 12.74C21.9691 12.186 21.9691 12.063 21.6621 11.632V11.63ZM16.1231 25.538C14.5556 21.0693 12.9966 16.5976 11.4461 12.123C11.4461 12.123 14.7691 7.26198 16.0621 5.35298C17.3541 7.26198 20.6771 12.123 20.6771 12.123C20.6771 12.123 17.5381 21.353 16.1231 25.538Z" fill="#FEFFFE"/>
</svg>
