<svg width="32" height="32" viewBox="0 0 32 32" fill="none" xmlns="http://www.w3.org/2000/svg">
<path d="M16 32C24.8366 32 32 24.8366 32 16C32 7.16344 24.8366 0 16 0C7.16344 0 0 7.16344 0 16C0 24.8366 7.16344 32 16 32Z" fill="#3C80F1"/>
<path d="M16.0838 4C10.6138 4.004 6.17983 8.436 6.17383 13.905C6.17883 14.439 6.23883 14.971 6.35183 15.493C6.35758 15.5177 6.36935 15.5406 6.38608 15.5597C6.40281 15.5787 6.42399 15.5933 6.44774 15.6022C6.47148 15.6111 6.49706 15.6141 6.5222 15.6107C6.54733 15.6073 6.57125 15.5978 6.59183 15.583C6.97042 15.3119 7.42419 15.1658 7.88983 15.165C7.91233 15.1658 7.93471 15.1615 7.95537 15.1525C7.97602 15.1436 7.99443 15.1302 8.00926 15.1132C8.0241 15.0963 8.03498 15.0763 8.04113 15.0546C8.04728 15.033 8.04854 15.0102 8.04483 14.988C7.97898 14.6344 7.94484 14.2757 7.94283 13.916C7.94283 12.847 8.15338 11.7885 8.56245 10.801C8.97152 9.81337 9.57111 8.91602 10.327 8.16015C11.0828 7.40428 11.9802 6.80469 12.9678 6.39562C13.9554 5.98655 15.0139 5.776 16.0828 5.776C17.1518 5.776 18.2103 5.98655 19.1979 6.39562C20.1855 6.80469 21.0828 7.40428 21.8387 8.16015C22.5945 8.91602 23.1941 9.81337 23.6032 10.801C24.0123 11.7885 24.2228 12.847 24.2228 13.916C24.2228 18.406 18.4788 24.141 16.4228 26.166C16.3323 26.2548 16.2106 26.3046 16.0838 26.3046C15.957 26.3046 15.8353 26.2548 15.7448 26.166C14.8744 25.3165 14.0297 24.4412 13.2118 23.541H13.1718C12.3852 23.4637 11.613 23.2786 10.8768 22.991L10.7408 22.936C10.7093 22.9215 10.6738 22.9182 10.6402 22.9266C10.6065 22.9351 10.5768 22.9548 10.5559 22.9824C10.535 23.0101 10.5242 23.0441 10.5253 23.0788C10.5264 23.1134 10.5393 23.1467 10.5618 23.173C11.8348 24.6942 13.1856 26.1484 14.6088 27.53C15.0027 27.9141 15.5311 28.1292 16.0813 28.1292C16.6315 28.1292 17.1599 27.9141 17.5538 27.53C21.1738 23.954 25.9938 18.664 25.9938 13.905C25.9878 8.435 21.5538 4.004 16.0838 4Z" fill="white"/>
<path d="M20.204 14.9071C20.204 15.0471 20.193 15.1841 20.18 15.3201C20.144 15.8408 20.0234 16.3522 19.823 16.8341C19.607 17.3141 19.319 17.7571 18.97 18.1501L18.98 18.1591C18.2886 18.9316 17.4349 19.5416 16.48 19.9451C15.5343 20.352 14.5025 20.5176 13.477 20.4271C12.4998 20.33 11.5657 19.9756 10.77 19.4001C11.027 19.3921 11.282 19.3531 11.53 19.2841C11.7539 19.2222 11.9685 19.1303 12.168 19.0111C12.5992 18.7537 12.9337 18.3615 13.12 17.8951C13.207 17.6821 13.266 17.4601 13.298 17.2321C13.318 17.0421 13.323 16.8491 13.316 16.6571V10.1671C13.3155 10.1608 13.3155 10.1545 13.316 10.1481V10.1141C13.3305 10.0359 13.3693 9.96432 13.427 9.90954C13.4847 9.85476 13.5582 9.81961 13.637 9.80913H15.78C16.288 9.84913 16.785 9.98213 17.245 10.2021C18.2036 10.6554 19.0054 11.3841 19.548 12.2951C19.68 12.5191 19.796 12.7531 19.893 12.9951C19.986 13.2351 20.06 13.4851 20.113 13.7371C20.166 13.9891 20.196 14.2451 20.203 14.5021V14.9081L20.204 14.9071ZM21.968 14.4411C21.9571 14.081 21.914 13.7226 21.839 13.3701C21.6903 12.6731 21.4282 12.0052 21.063 11.3931C20.3392 10.1758 19.2675 9.20306 17.986 8.60013C17.3312 8.28923 16.6248 8.10143 15.902 8.04613C15.811 8.04613 15.723 8.04613 15.623 8.03613H13.625C13.561 8.03613 13.495 8.03613 13.43 8.05013C13.169 8.08013 12.915 8.16013 12.682 8.28413C12.3617 8.45528 12.0901 8.70503 11.8928 9.00991C11.6955 9.3148 11.5789 9.66483 11.554 10.0271V16.6571C11.554 16.7731 11.546 16.8891 11.53 17.0041C11.52 17.0821 11.501 17.1581 11.473 17.2321C11.4511 17.2872 11.4207 17.3385 11.383 17.3841C11.2908 17.4831 11.1709 17.5521 11.039 17.5821C10.842 17.6321 10.639 17.6481 10.436 17.6291C9.7119 17.5582 9.03057 17.2536 8.49499 16.7611C8.34117 16.6189 8.14181 16.5358 7.93247 16.5269C7.72313 16.518 7.51741 16.5837 7.35202 16.7123C7.18663 16.841 7.0723 17.0242 7.02944 17.2293C6.98657 17.4344 7.01796 17.648 7.11799 17.8321C7.74195 18.9718 8.59846 19.9677 9.63199 20.7551C10.165 21.1528 10.7489 21.4773 11.368 21.7201C11.9894 21.9626 12.6411 22.1187 13.305 22.1841C14.6228 22.3062 15.9503 22.0986 17.168 21.5801C18.3809 21.0785 19.4564 20.2944 20.305 19.2931L20.316 19.3021C20.7842 18.7727 21.1686 18.1748 21.456 17.5291C21.7284 16.8716 21.8922 16.1742 21.941 15.4641C21.955 15.2861 21.964 15.1251 21.97 14.9551V14.7041C21.977 14.6301 21.971 14.5291 21.97 14.4411H21.968Z" fill="white"/>
</svg>
