<svg width="32" height="32" viewBox="0 0 32 32" fill="none" xmlns="http://www.w3.org/2000/svg">
<path d="M16 32C24.8366 32 32 24.8366 32 16C32 7.16344 24.8366 0 16 0C7.16344 0 0 7.16344 0 16C0 24.8366 7.16344 32 16 32Z" fill="#FAA00D"/>
<path d="M25.992 14.471L16.523 25.481L16.098 26L6.007 14.582L6.039 14.569L6 14.563L9.922 8.006L9.924 8.008L9.922 8H22.176L22.174 8.007L26 14.47L25.992 14.471ZM12.856 14.93L10.686 18.604L16.038 24.716L21.401 18.554L19.279 14.919L12.856 14.93ZM10.078 17.91L11.838 14.931L7.476 14.938L10.078 17.91ZM19.801 14.064L24.755 14.056L21.645 8.848L16.763 8.858L19.801 14.064ZM24.572 14.91L20.299 14.917L22.012 17.852L24.572 14.91ZM18.781 14.066L16.09 9.454L13.36 14.074L18.781 14.066ZM10.382 8.872L7.282 14.085L12.342 14.076L15.422 8.862L10.382 8.872Z" fill="white"/>
</svg>
