<svg width="32" height="32" viewBox="0 0 32 32" fill="none" xmlns="http://www.w3.org/2000/svg">
<path d="M16 32C24.8366 32 32 24.8366 32 16C32 7.16344 24.8366 0 16 0C7.16344 0 0 7.16344 0 16C0 24.8366 7.16344 32 16 32Z" fill="#5FCDF9"/>
<path d="M11.092 12.2642C11.0339 12.1889 10.9591 12.128 10.8736 12.0864C10.7881 12.0448 10.6941 12.0235 10.599 12.0242H6.619C6.587 12.0235 6.55638 12.011 6.533 11.9892C6.51227 11.9689 6.50041 11.9412 6.5 11.9122V9.11219C6.50041 9.08318 6.51227 9.0555 6.533 9.03519C6.54337 9.02281 6.55667 9.01322 6.57169 9.00728C6.58671 9.00134 6.60297 8.99925 6.619 9.00119H10.825C11.885 9.00119 12.8 9.45519 13.572 10.3602L14.595 11.6632L12.603 14.1972L11.092 12.2642ZM18.443 10.3472C19.211 9.45119 20.131 9.00119 21.203 9.00119H25.396C25.4101 8.99987 25.4243 9.00151 25.4377 9.00598C25.4512 9.01046 25.4635 9.01768 25.474 9.02719C25.4844 9.03849 25.4921 9.05203 25.4964 9.06677C25.5008 9.08151 25.5016 9.09705 25.499 9.11219V11.9122C25.499 11.9422 25.491 11.9682 25.474 11.9892C25.4652 12.0013 25.4533 12.0108 25.4396 12.0168C25.4259 12.0228 25.4109 12.025 25.396 12.0232H21.416C21.3211 12.0226 21.2273 12.044 21.1419 12.0856C21.0566 12.1273 20.982 12.188 20.924 12.2632L17.99 15.9902L20.935 19.7422C21.055 19.8832 21.231 19.9692 21.412 19.9652H25.392C25.4066 19.9642 25.4213 19.9667 25.4347 19.9726C25.4481 19.9786 25.4599 19.9877 25.469 19.9992C25.4874 20.0254 25.4962 20.0572 25.494 20.0892V22.8892C25.4948 22.917 25.486 22.9442 25.469 22.9662C25.4602 22.9783 25.4483 22.9878 25.4346 22.9938C25.4209 22.9998 25.4059 23.002 25.391 23.0002H21.202C20.13 23.0002 19.218 22.5462 18.454 21.6412L16.014 18.5332L13.575 21.6412C12.807 22.5462 11.887 23.0012 10.815 23.0012H6.62C6.60512 23.0023 6.59019 22.9997 6.57658 22.9935C6.56296 22.9874 6.55108 22.978 6.542 22.9662C6.53208 22.9536 6.52476 22.9391 6.52047 22.9237C6.51617 22.9082 6.515 22.8921 6.517 22.8762V20.0762C6.517 20.0462 6.526 20.0202 6.542 19.9992C6.5508 19.9871 6.56266 19.9776 6.57638 19.9716C6.59009 19.9656 6.60515 19.9634 6.62 19.9652H10.6C10.789 19.9652 10.97 19.8752 11.093 19.7252L13.972 16.0552L18.444 10.3482L18.443 10.3472Z" fill="white"/>
</svg>
