<svg width="32" height="32" viewBox="0 0 32 32" fill="none" xmlns="http://www.w3.org/2000/svg">
<path d="M16 32C24.8366 32 32 24.8366 32 16C32 7.16344 24.8366 0 16 0C7.16344 0 0 7.16344 0 16C0 24.8366 7.16344 32 16 32Z" fill="#FFF300"/>
<path d="M22.6398 9.56839C22.2998 8.80739 21.9848 7.30339 21.1148 6.96839C19.9948 6.53839 19.3038 9.35639 19.1388 10.0684H18.9718C18.6898 8.84839 18.3118 7.11839 16.9718 6.73439C16.3518 9.33939 17.6198 12.1484 18.8058 14.4034C20.0718 13.7974 20.6888 11.9034 20.8058 10.5684H20.9728L22.3068 14.5694C23.3798 14.2614 23.7528 13.1994 24.1398 12.2354C24.9718 10.1674 25.6698 7.62339 25.1398 5.40039C23.5398 5.85439 23.0518 8.14339 22.6398 9.56839ZM6.63577 14.9034C8.06777 14.2194 8.74977 12.0534 8.96977 10.5684H9.13577C9.30577 11.2844 9.75877 13.1304 10.6528 13.2484C11.7928 13.3994 12.3898 10.8714 12.4698 10.0684H12.6368C12.9998 11.3234 13.3828 12.9564 14.6368 13.5694C15.1008 11.6254 14.5468 9.55239 13.8358 7.73439C13.6528 7.26739 13.2778 6.00639 12.6328 6.00639C11.5768 6.00639 10.9828 8.79039 10.8028 9.56839H10.6368L9.30277 5.56739C6.95677 6.68739 5.68277 12.6444 6.63577 14.9034ZM4.13477 16.9034C5.87477 24.4974 13.9058 28.8034 21.1398 25.5954C23.7624 24.43 25.8691 22.3468 27.0638 19.7374C27.3748 19.0634 27.9858 17.8424 27.6298 16.9574C27.2748 16.0754 23.8348 17.5154 22.9748 17.8924C22.9154 17.9187 22.8635 17.9594 22.824 18.011C22.7845 18.0625 22.7587 18.1232 22.7488 18.1874C22.7347 18.2789 22.7398 18.3724 22.7636 18.4619C22.7874 18.5514 22.8294 18.6351 22.8871 18.7076C22.9447 18.7801 23.0167 18.8399 23.0986 18.8832C23.1805 18.9265 23.2704 18.9525 23.3628 18.9594L24.8068 19.0714C22.1918 24.1334 15.1208 26.3714 10.1368 22.3274C9.02077 21.4224 8.02577 20.3474 7.35577 19.0714C7.03177 18.4544 6.73077 17.6654 6.18077 17.2414C5.65077 16.8354 4.84877 16.6954 4.13477 16.9034Z" fill="white"/>
</svg>
