<svg width="32" height="32" viewBox="0 0 32 32" fill="none" xmlns="http://www.w3.org/2000/svg">
<path d="M16 32C24.8366 32 32 24.8366 32 16C32 7.16344 24.8366 0 16 0C7.16344 0 0 7.16344 0 16C0 24.8366 7.16344 32 16 32Z" fill="#DA1157"/>
<path d="M20.9853 19.1681C21.7878 19.1681 22.5575 18.8493 23.125 18.2818C23.6924 17.7143 24.0113 16.9447 24.0113 16.1421C24.0113 15.3396 23.6924 14.5699 23.125 14.0024C22.5575 13.4349 21.7878 13.1161 20.9853 13.1161C20.1827 13.1161 19.413 13.4349 18.8456 14.0024C18.2781 14.5699 17.9593 15.3396 17.9593 16.1421C17.9593 16.9447 18.2781 17.7143 18.8456 18.2818C19.413 18.8493 20.1827 19.1681 20.9853 19.1681ZM20.9853 9.16311C22.1376 9.16243 23.2722 9.44706 24.2878 9.9916C25.3034 10.5361 26.1683 11.3237 26.8055 12.2838C27.4426 13.244 27.8321 14.347 27.9392 15.4944C28.0463 16.6418 27.8677 17.7978 27.4192 18.8593C26.9708 19.9209 26.2665 20.8549 25.3693 21.5779C24.472 22.301 23.4097 22.7907 22.2771 23.0033C21.1445 23.2159 19.9769 23.1448 18.8785 22.7963C17.7801 22.4478 16.7851 21.8328 15.9823 21.0061C17.2514 19.7053 17.9611 17.9595 17.9593 16.1421C17.9612 14.3247 17.2515 12.5788 15.9823 11.2781C16.6317 10.6081 17.4093 10.0755 18.2688 9.71218C19.1283 9.34883 20.0521 9.1621 20.9853 9.16311ZM10.9803 19.1681C11.7828 19.1681 12.5525 18.8493 13.12 18.2818C13.6874 17.7143 14.0063 16.9447 14.0063 16.1421C14.0063 15.3396 13.6874 14.5699 13.12 14.0024C12.5525 13.4349 11.7828 13.1161 10.9803 13.1161C10.1777 13.1161 9.40804 13.4349 8.84055 14.0024C8.27307 14.5699 7.95426 15.3396 7.95426 16.1421C7.95426 16.9447 8.27307 17.7143 8.84055 18.2818C9.40804 18.8493 10.1777 19.1681 10.9803 19.1681ZM15.9833 11.2781C14.7144 12.579 14.0052 14.3249 14.0073 16.1421C14.0073 18.0341 14.7613 19.7491 15.9833 21.0061C15.0153 22.0024 13.7721 22.6872 12.4127 22.9729C11.0533 23.2586 9.63959 23.1322 8.35245 22.6099C7.06532 22.0875 5.9633 21.1931 5.18741 20.0409C4.41153 18.8887 3.99707 17.5312 3.99707 16.1421C3.99707 14.753 4.41153 13.3955 5.18741 12.2434C5.9633 11.0912 7.06532 10.1967 8.35245 9.67436C9.63959 9.15204 11.0533 9.02564 12.4127 9.31134C13.7721 9.59704 15.0153 10.2818 15.9833 11.2781ZM14.0063 16.1431C14.0063 18.0351 14.7603 19.7501 15.9833 21.0071C17.2522 19.7062 17.9614 17.9604 17.9593 16.1431C17.9614 14.3259 17.2522 12.58 15.9833 11.2791C14.714 12.5798 14.0044 14.3257 14.0063 16.1431Z" fill="white"/>
</svg>
