<svg width="32" height="32" viewBox="0 0 32 32" fill="none" xmlns="http://www.w3.org/2000/svg">
<path d="M16 32C24.8366 32 32 24.8366 32 16C32 7.16344 24.8366 0 16 0C7.16344 0 0 7.16344 0 16C0 24.8366 7.16344 32 16 32Z" fill="#5942CC"/>
<path d="M20.707 19.543C20.8945 19.7305 20.9998 19.9848 20.9998 20.25C20.9998 20.5152 20.8945 20.7695 20.707 20.957L16.707 24.957C16.6148 25.0525 16.5044 25.1287 16.3824 25.1811C16.2604 25.2335 16.1292 25.2611 15.9964 25.2623C15.8636 25.2634 15.7319 25.2381 15.609 25.1878C15.4861 25.1375 15.3745 25.0633 15.2806 24.9694C15.1867 24.8755 15.1125 24.7638 15.0622 24.641C15.0119 24.5181 14.9866 24.3864 14.9877 24.2536C14.9889 24.1208 15.0165 23.9896 15.0689 23.8676C15.1213 23.7456 15.1975 23.6352 15.293 23.543L19.293 19.543C19.4805 19.3555 19.7348 19.2502 20 19.2502C20.2652 19.2502 20.5195 19.3555 20.707 19.543ZM15 7.25C15.7879 7.25 16.5681 7.40519 17.2961 7.70672C18.0241 8.00825 18.6855 8.45021 19.2426 9.00736C19.7998 9.56451 20.2417 10.2259 20.5433 10.9539C20.8448 11.6819 21 12.4621 21 13.25C21 14.0379 20.8448 14.8181 20.5433 15.5461C20.2417 16.2741 19.7998 16.9355 19.2426 17.4926C18.6855 18.0498 18.0241 18.4917 17.2961 18.7933C16.5681 19.0948 15.7879 19.25 15 19.25C13.4087 19.25 11.8826 18.6179 10.7574 17.4926C9.63214 16.3674 9 14.8413 9 13.25C9 11.6587 9.63214 10.1326 10.7574 9.00736C11.8826 7.88214 13.4087 7.25 15 7.25ZM15 9.25C13.9391 9.25 12.9217 9.67143 12.1716 10.4216C11.4214 11.1717 11 12.1891 11 13.25C11 14.3109 11.4214 15.3283 12.1716 16.0784C12.9217 16.8286 13.9391 17.25 15 17.25C16.0609 17.25 17.0783 16.8286 17.8284 16.0784C18.5786 15.3283 19 14.3109 19 13.25C19 12.1891 18.5786 11.1717 17.8284 10.4216C17.0783 9.67143 16.0609 9.25 15 9.25ZM22 7.25C22.2652 7.25 22.5196 7.35536 22.7071 7.54289C22.8946 7.73043 23 7.98478 23 8.25C23 8.51522 22.8946 8.76957 22.7071 8.95711C22.5196 9.14464 22.2652 9.25 22 9.25C21.7348 9.25 21.4804 9.14464 21.2929 8.95711C21.1054 8.76957 21 8.51522 21 8.25C21 7.98478 21.1054 7.73043 21.2929 7.54289C21.4804 7.35536 21.7348 7.25 22 7.25Z" fill="black"/>
</svg>
