<svg width="32" height="32" viewBox="0 0 32 32" fill="none" xmlns="http://www.w3.org/2000/svg">
<path d="M16 32C24.8366 32 32 24.8366 32 16C32 7.16344 24.8366 0 16 0C7.16344 0 0 7.16344 0 16C0 24.8366 7.16344 32 16 32Z" fill="#00EAAB"/>
<path d="M24.8004 9.56787L23.0204 12.3379C23.5883 13.4508 23.8818 14.6834 23.8764 15.9329C23.8764 20.3329 20.3164 23.8759 15.9334 23.8759C14.6896 23.8815 13.4628 23.5879 12.3564 23.0199L9.56836 24.8169C11.3654 26.0929 13.5484 26.8659 15.9164 26.8659C21.9454 26.8659 26.8494 21.9789 26.8494 15.9329C26.8494 13.5479 26.0934 11.3649 24.8004 9.56787Z" fill="white"/>
<path d="M15.9329 21.39C17.2134 21.3899 18.4536 20.9416 19.4381 20.1227C20.4227 19.3038 21.0895 18.1661 21.3229 16.907C19.6135 16.5349 17.8449 16.5265 16.1321 16.8825C14.4193 17.2384 12.8005 17.9507 11.3809 18.973C11.8817 19.7198 12.5593 20.3313 13.3534 20.7532C14.1476 21.175 15.0336 21.3941 15.9329 21.391V21.39Z" fill="white"/>
<path d="M18.62 15.63C19.577 15.63 20.5 15.731 21.408 15.933C21.4075 14.4766 20.8287 13.08 19.7989 12.0502C18.769 11.0203 17.3724 10.4416 15.916 10.441C15.1334 10.4417 14.36 10.6099 13.6478 10.9345C12.9356 11.2591 12.3013 11.7324 11.7874 12.3227C11.2735 12.9129 10.892 13.6064 10.6685 14.3565C10.4451 15.1065 10.3849 15.8958 10.492 16.671C9.115 17.73 8.46 18.553 8.426 18.586C8.12905 17.7388 7.97594 16.8478 7.973 15.95C7.973 11.55 11.533 8.00603 15.916 8.00603C17.209 8.00603 18.418 8.30803 19.493 8.86303L22.264 7.06603C20.4285 5.7188 18.2098 4.99478 15.933 5.00003C14.4969 4.99871 13.0746 5.28061 11.7476 5.82957C10.4205 6.37854 9.21476 7.18381 8.19927 8.1993C7.18379 9.21478 6.37852 10.4205 5.82955 11.7476C5.28058 13.0746 4.99869 14.4969 5 15.933C5 18.368 5.79 20.602 7.133 22.415C7.653 21.475 8.275 20.618 8.997 19.845C8.997 19.845 10.072 18.721 10.895 18.15C13.1359 16.5088 15.8423 15.6259 18.62 15.63Z" fill="white"/>
</svg>
