<svg width="32" height="32" viewBox="0 0 32 32" fill="none" xmlns="http://www.w3.org/2000/svg">
<path d="M16 32C24.8366 32 32 24.8366 32 16C32 7.16344 24.8366 0 16 0C7.16344 0 0 7.16344 0 16C0 24.8366 7.16344 32 16 32Z" fill="#C40E09"/>
<path fill-rule="evenodd" clip-rule="evenodd" d="M22.2 7.14C22.29 7.21 22.371 7.27 22.446 7.335C22.644 7.51 22.843 7.685 23.036 7.866C23.189 8.012 23.334 8.168 23.481 8.321C23.493 8.333 23.503 8.361 23.499 8.377C23.409 8.725 23.273 9.053 23.091 9.359C22.931 9.627 22.747 9.873 22.533 10.094C22.243 10.394 21.918 10.644 21.562 10.849C21.407 10.939 21.248 11.019 21.089 11.099C20.582 11.356 20.042 11.5 19.492 11.602C19.117 11.672 18.738 11.722 18.361 11.774C17.865 11.842 17.368 11.897 16.873 11.969C16.143 12.075 15.428 12.241 14.75 12.556C14.004 12.903 13.383 13.41 12.961 14.159C12.68 14.659 12.566 15.204 12.571 15.782C12.58 16.889 12.959 17.846 13.613 18.697C14.013 19.217 14.469 19.679 14.949 20.115C15.281 20.418 15.62 20.712 15.951 21.015C16.374 21.405 16.798 21.794 17.161 22.249C17.351 22.489 17.539 22.735 17.702 22.996C17.98 23.442 18.201 23.921 18.346 24.434C18.426 24.714 18.474 24.999 18.496 25.291C18.5278 25.725 18.4893 26.1613 18.382 26.583C18.339 26.756 18.337 26.759 18.166 26.79C17.925 26.835 17.684 26.881 17.442 26.92C17.265 26.947 17.087 26.964 16.909 26.984C16.847 26.992 16.784 26.995 16.721 27L16.684 26.999C16.685 26.985 16.684 26.971 16.688 26.959C16.742 26.816 16.802 26.675 16.853 26.531C16.9653 26.2215 17.0412 25.9 17.079 25.573C17.1452 24.998 17.0398 24.4162 16.776 23.901C16.5923 23.5533 16.3585 23.2346 16.082 22.955C15.706 22.56 15.292 22.214 14.877 21.869C14.184 21.292 13.514 20.689 12.902 20.017C12.5296 19.6114 12.1912 19.1759 11.89 18.715C11.5604 18.218 11.302 17.6775 11.122 17.109C10.8469 16.2251 10.8382 15.2798 11.097 14.391C11.243 13.877 11.44 13.394 11.744 12.961C12.146 12.388 12.665 11.961 13.26 11.631C13.86 11.296 14.5 11.076 15.159 10.911C15.689 10.777 16.226 10.677 16.767 10.611C17.377 10.537 17.987 10.475 18.597 10.406C19.095 10.35 19.59 10.281 20.071 10.129C20.509 9.99674 20.9114 9.767 21.248 9.457C21.539 9.185 21.755 8.859 21.91 8.485C22.053 8.14 22.123 7.776 22.174 7.407C22.185 7.325 22.191 7.241 22.201 7.14H22.2ZM15.14 19.966C15.359 19.923 15.567 19.886 15.774 19.841C16.306 19.723 16.831 19.581 17.324 19.329C17.8091 19.0831 18.2405 18.7432 18.593 18.329C18.953 17.903 19.248 17.434 19.402 16.878C19.4985 16.526 19.5324 16.1597 19.502 15.796C19.4392 15.0556 19.1864 14.344 18.768 13.73C18.4521 13.2655 18.0902 12.834 17.688 12.442C17.618 12.371 17.544 12.302 17.473 12.232C17.463 12.222 17.455 12.21 17.44 12.192L17.82 12.133L18.643 12.008C18.787 11.986 18.931 11.962 19.075 11.943C19.092 11.941 19.116 11.96 19.13 11.975C19.386 12.273 19.648 12.565 19.894 12.872C20.214 13.27 20.484 13.706 20.704 14.176C20.899 14.595 21.042 15.031 21.112 15.493C21.161 15.816 21.182 16.142 21.149 16.468C21.053 17.381 20.782 18.226 20.247 18.964C19.915 19.423 19.506 19.794 19.045 20.104C18.508 20.4582 17.924 20.7352 17.31 20.927C17.047 21.011 16.781 21.083 16.516 21.157C16.5037 21.1598 16.4911 21.1598 16.4788 21.1573C16.4666 21.1547 16.455 21.1495 16.445 21.142C16.018 20.762 15.593 20.379 15.168 19.997C15.16 19.991 15.154 19.982 15.141 19.967L15.14 19.966ZM17.256 10.268L16.612 10.368L15.882 10.481C15.797 10.495 15.711 10.511 15.624 10.52C15.5921 10.5223 15.5606 10.5123 15.536 10.492C15.2549 10.2338 14.9938 9.95465 14.755 9.657C14.625 9.492 14.493 9.327 14.378 9.15C13.988 8.546 13.683 7.901 13.554 7.176C13.4386 6.55701 13.4722 5.91944 13.652 5.316C13.663 5.276 13.675 5.256 13.722 5.247C13.99 5.201 14.255 5.141 14.522 5.097C14.742 5.062 14.966 5.044 15.188 5.018L15.37 5C15.354 5.036 15.345 5.06 15.334 5.081C15.1427 5.4726 15.0109 5.89053 14.943 6.321C14.8524 6.90921 14.9471 7.51102 15.214 8.043C15.435 8.488 15.737 8.865 16.079 9.213C16.435 9.573 16.821 9.897 17.208 10.22C17.222 10.232 17.234 10.245 17.257 10.268H17.256ZM14.082 21.556L13.656 21.601C13.476 21.621 13.296 21.635 13.116 21.663C12.839 21.706 12.561 21.748 12.287 21.809C11.284 22.031 10.503 22.563 10.077 23.586C9.92093 23.9591 9.80462 24.3476 9.72996 24.745C9.72696 24.763 9.72096 24.781 9.71296 24.813C9.65596 24.769 9.60296 24.733 9.55496 24.691C9.35496 24.513 9.15596 24.337 8.96096 24.155C8.81996 24.023 8.68696 23.882 8.54696 23.748C8.49996 23.703 8.49096 23.658 8.50796 23.594C8.69731 22.91 9.07049 22.2909 9.58696 21.804C9.92061 21.4944 10.2939 21.2304 10.697 21.019C11.263 20.709 11.868 20.531 12.488 20.397C12.56 20.382 12.634 20.374 12.704 20.355C12.748 20.343 12.777 20.355 12.808 20.384L13.386 20.913L14.027 21.502C14.0461 21.5192 14.0645 21.5372 14.082 21.556ZM18.409 17.178C18.359 17.166 18.309 17.155 18.261 17.14L14.81 16.061C14.367 15.923 13.925 15.786 13.483 15.647C13.313 15.594 13.226 15.455 13.239 15.313C13.257 15.103 13.327 14.957 13.524 14.918C13.5783 14.9097 13.6338 14.9145 13.686 14.932C14.06 15.047 14.433 15.167 14.806 15.283L17.447 16.107L18.5 16.434C18.5787 16.4557 18.647 16.5051 18.6924 16.573C18.7377 16.6409 18.7571 16.7229 18.747 16.804C18.718 17.027 18.585 17.172 18.409 17.178ZM11.119 23.674C11.151 23.682 11.189 23.689 11.226 23.7L16.031 25.2C16.196 25.252 16.294 25.39 16.279 25.552C16.26 25.77 16.146 25.915 15.975 25.93C15.922 25.9326 15.8691 25.9251 15.819 25.908C14.494 25.496 13.17 25.082 11.846 24.668C11.57 24.582 11.294 24.498 11.019 24.411C10.865 24.362 10.763 24.231 10.774 24.081C10.79 23.883 10.863 23.732 11.04 23.687C11.063 23.68 11.088 23.679 11.12 23.674H11.119ZM21.249 7.91C21.234 7.954 21.214 8.046 21.171 8.123C21.101 8.249 20.958 8.296 20.817 8.252L18.5 7.528C17.671 7.269 16.842 7.01 16.012 6.753C15.871 6.709 15.766 6.626 15.75 6.466C15.732 6.286 15.815 6.045 16.051 6.018C16.0957 6.01502 16.1406 6.02114 16.183 6.036L20.999 7.539C21.159 7.589 21.249 7.707 21.249 7.91ZM14.334 14.373C14.344 14.166 14.434 14.01 14.596 13.978C14.6597 13.9667 14.7252 13.9708 14.787 13.99C15.273 14.138 15.757 14.291 16.243 14.443L18.075 15.013C18.1563 15.0356 18.2263 15.0876 18.2714 15.1589C18.3165 15.2303 18.3335 15.3159 18.319 15.399C18.282 15.629 18.145 15.769 17.959 15.749C17.864 15.737 17.771 15.699 17.677 15.67L15.295 14.926L14.577 14.702C14.505 14.6831 14.4416 14.6402 14.3974 14.5803C14.3532 14.5205 14.3308 14.4473 14.334 14.373ZM14.002 16.263C14.066 16.28 14.114 16.289 14.161 16.303L17.181 17.247C17.264 17.273 17.348 17.297 17.431 17.324C17.616 17.384 17.706 17.556 17.658 17.752C17.621 17.907 17.547 18.026 17.387 18.053C17.3346 18.0605 17.2813 18.0561 17.231 18.04C16.847 17.923 16.464 17.802 16.081 17.682C15.368 17.46 14.656 17.237 13.944 17.017C13.812 16.976 13.712 16.897 13.69 16.752C13.665 16.591 13.707 16.442 13.836 16.339C13.886 16.3 13.952 16.286 14.002 16.264V16.263ZM11.219 25.45C11.233 25.234 11.327 25.065 11.522 25.044C11.5647 25.0398 11.6079 25.0442 11.649 25.057C12.757 25.402 13.865 25.747 14.973 26.094C15.151 26.15 15.238 26.326 15.193 26.514C15.155 26.674 15.073 26.786 14.916 26.822C14.8866 26.8303 14.8556 26.831 14.826 26.824L11.719 25.854C11.628 25.825 11.536 25.798 11.444 25.768C11.3775 25.7459 11.3198 25.7031 11.2793 25.6459C11.2389 25.5887 11.2177 25.5201 11.219 25.45ZM12.216 22.73C12.246 22.738 12.286 22.745 12.325 22.757L15.606 23.781C15.766 23.831 15.866 23.971 15.854 24.127C15.837 24.341 15.727 24.488 15.559 24.509C15.5021 24.5136 15.4449 24.5064 15.391 24.488C14.506 24.213 13.621 23.935 12.737 23.658C12.526 23.593 12.314 23.528 12.104 23.461C11.95 23.411 11.857 23.284 11.87 23.126C11.886 22.92 11.966 22.786 12.138 22.741C12.16 22.735 12.183 22.735 12.216 22.731V22.73ZM19.838 9.168C19.73 9.136 19.625 9.107 19.52 9.074C18.493 8.754 17.466 8.431 16.438 8.11C16.233 8.045 16.15 7.88 16.206 7.662C16.241 7.523 16.313 7.423 16.448 7.392C16.5075 7.37872 16.5694 7.38078 16.628 7.398C17.538 7.679 18.449 7.964 19.36 8.248C19.555 8.308 19.749 8.37 19.944 8.431C20.018 8.45476 20.0813 8.5039 20.1226 8.56977C20.164 8.63563 20.1807 8.71398 20.17 8.791C20.153 8.923 20.116 9.051 19.99 9.116C19.943 9.14 19.89 9.15 19.838 9.168ZM20.821 6.468C20.802 6.601 20.766 6.746 20.614 6.82C20.5364 6.85454 20.4484 6.85705 20.369 6.827L18.004 6.087L17.081 5.797C16.887 5.737 16.803 5.569 16.856 5.362C16.892 5.221 16.96 5.112 17.101 5.082C17.1628 5.06993 17.2267 5.07337 17.287 5.092C17.909 5.284 18.53 5.48 19.151 5.674L20.576 6.118C20.731 6.167 20.822 6.288 20.821 6.468Z" fill="white"/>
</svg>
