<svg width="32" height="32" viewBox="0 0 32 32" fill="none" xmlns="http://www.w3.org/2000/svg">
<path d="M16 32C24.8366 32 32 24.8366 32 16C32 7.16344 24.8366 0 16 0C7.16344 0 0 7.16344 0 16C0 24.8366 7.16344 32 16 32Z" fill="#2D475B"/>
<path d="M12.8693 12.6846H23.9543V15.1726H12.8693V12.6846ZM23.9543 16.8286H24.0003V23.3716C24.0003 23.3716 15.3533 29.6366 8.63733 22.8196C8.63733 22.8196 4.95733 19.0876 6.29133 13.6516C6.29133 13.6516 7.34933 6.88057 15.3993 6.05157C15.3993 6.05157 20.3663 5.35957 23.5863 9.04557L21.6543 10.9336C21.6543 10.9336 17.5603 6.69557 12.0873 10.0136C12.0873 10.0136 7.62533 12.5006 9.46533 18.7656C9.46533 18.7656 11.4893 24.2016 17.8363 23.0956C17.8363 23.0956 19.9983 22.6036 21.1023 21.6516V19.3166H12.8703V16.8286H23.9543Z" fill="white"/>
</svg>
