<svg width="32" height="32" viewBox="0 0 32 32" fill="none" xmlns="http://www.w3.org/2000/svg">
<path d="M16 32C24.8366 32 32 24.8366 32 16C32 7.16344 24.8366 0 16 0C7.16344 0 0 7.16344 0 16C0 24.8366 7.16344 32 16 32Z" fill="#EC1076"/>
<path fill-rule="evenodd" clip-rule="evenodd" d="M21.0504 21C20.4484 21 19.7874 20.697 19.7874 19.788C19.7874 19.34 20.1374 17.963 20.8354 15.656C20.9784 15.3 21.0494 14.98 21.0494 14.697C21.0494 14.152 20.6294 13.607 19.8474 13.607C19.3934 13.607 18.4044 13.787 18.1044 14.757C17.9044 15.404 17.4434 17.121 16.7214 19.909C16.4414 20.636 15.9404 21 15.2194 21C14.1374 21 13.9564 20.212 13.9564 19.727C13.9564 19.535 14.2444 18.374 14.8214 16.247C15.0464 15.537 15.1584 15.02 15.1584 14.697C15.1584 14.212 14.7984 13.607 13.9564 13.607C13.1154 13.607 12.3334 14.212 11.9734 15.545C11.7334 16.435 11.3924 17.768 10.9514 19.545C10.7114 20.515 10.1694 21 9.32839 21C8.56639 21 8.16639 20.576 8.12639 19.727L9.50839 13.97H6.44339C6.25345 13.9766 6.06411 13.9452 5.88651 13.8775C5.70891 13.8099 5.54664 13.7074 5.40924 13.5761C5.27184 13.4448 5.16209 13.2873 5.08646 13.113C5.01082 12.9386 4.97083 12.7509 4.96883 12.5609C4.96683 12.3708 5.00286 12.1823 5.07481 12.0064C5.14675 11.8305 5.25316 11.6708 5.38776 11.5366C5.52236 11.4024 5.68245 11.2965 5.85858 11.2252C6.03472 11.1538 6.22335 11.1184 6.41339 11.121H11.5524C12.2734 11.121 12.7144 11.465 12.8744 12.151C13.5964 11.243 14.5574 11 15.4004 11C16.2434 11 17.3234 11.485 17.8044 12.576C18.4644 11.848 19.6074 11 21.2304 11C22.7324 11 23.9954 12.03 23.9954 13.848C23.9954 14.535 23.6544 15.97 22.9734 18.152L25.6104 18.134C26.3814 18.134 27.0004 18.776 27.0004 19.567C27.0004 20.358 26.3814 21 25.6174 21H21.0504Z" fill="white"/>
</svg>
