<svg width="32" height="32" viewBox="0 0 32 32" fill="none" xmlns="http://www.w3.org/2000/svg">
<path d="M16 32C24.8366 32 32 24.8366 32 16C32 7.16344 24.8366 0 16 0C7.16344 0 0 7.16344 0 16C0 24.8366 7.16344 32 16 32Z" fill="#338BE5"/>
<path d="M22.6296 16.918C23.3596 17.114 24.0796 17.341 24.7276 17.74C25.0156 17.917 25.2846 18.125 25.5276 18.359C25.8876 18.759 25.8636 19.181 25.5356 19.604C25.2476 19.972 24.8556 20.207 24.4386 20.403C23.3826 20.912 22.2626 21.202 21.1186 21.374C20.1896 21.514 19.2456 21.594 18.3086 21.711C18.2646 21.7204 18.2228 21.7384 18.1857 21.764C18.1487 21.7895 18.117 21.8222 18.0926 21.86C17.4366 22.838 16.7886 23.817 16.1326 24.796C16.0799 24.8606 16.0318 24.9287 15.9886 25C15.2958 23.9604 14.6101 22.916 13.9316 21.867C13.903 21.8179 13.8622 21.7769 13.8132 21.7482C13.7641 21.7195 13.7084 21.7039 13.6516 21.703C11.7786 21.57 9.9306 21.327 8.1616 20.693C7.6016 20.497 7.0656 20.254 6.6016 19.886C6.5766 19.862 6.5446 19.846 6.5216 19.823C5.8416 19.252 5.8246 18.641 6.4816 18.053C7.0016 17.583 7.6416 17.317 8.3056 17.113C8.9696 16.909 9.6416 16.761 10.3146 16.589C10.3466 16.581 10.3786 16.581 10.4346 16.565C8.9856 14.349 7.5536 12.156 6.0886 9.932C6.1766 9.924 6.2406 9.916 6.2966 9.916C7.2016 9.908 8.1056 9.916 9.0096 9.908C9.07352 9.90416 9.13716 9.91917 9.19262 9.95117C9.24808 9.98317 9.29293 10.0307 9.3216 10.088C11.5116 13.428 13.6996 16.769 15.8846 20.113C15.9167 20.1689 15.9542 20.2215 15.9966 20.27C16.5006 19.51 16.9886 18.782 17.4686 18.053C19.2286 15.393 20.9896 12.736 22.7506 10.081C22.8146 9.987 22.8626 9.916 23.0066 9.916C23.9586 9.924 24.9116 9.924 25.8636 9.924C25.9086 9.924 25.9536 9.926 25.9996 9.932C24.5137 12.1738 23.025 14.4138 21.5336 16.652C21.9106 16.745 22.2706 16.824 22.6306 16.918H22.6296ZM8.8976 18.798C9.0836 19.005 9.3026 19.183 9.5456 19.322C10.5456 19.855 11.6506 20.05 12.7956 20.222C12.7796 20.168 12.7796 20.144 12.7716 20.129C12.1226 19.149 11.4826 18.163 10.8346 17.184C10.8086 17.1585 10.7769 17.1394 10.7422 17.1285C10.7074 17.1176 10.6705 17.115 10.6346 17.121C10.2546 17.246 9.8826 17.395 9.5216 17.568C9.28792 17.6968 9.07927 17.8664 8.9056 18.069C8.80853 18.1648 8.75323 18.295 8.75173 18.4314C8.75023 18.5677 8.80266 18.6991 8.8976 18.797V18.798ZM21.5016 19.643C21.9377 19.5252 22.3368 19.2989 22.6616 18.985C22.9826 18.665 22.9826 18.304 22.6616 17.975C22.5822 17.8891 22.491 17.815 22.3906 17.755C22.0466 17.583 21.6866 17.419 21.3336 17.247C21.2136 17.184 21.1416 17.231 21.0696 17.341C20.6936 17.921 20.3096 18.491 19.9256 19.064C19.6856 19.424 19.4456 19.792 19.1976 20.168C19.2614 20.176 19.3259 20.176 19.3896 20.168C20.0936 19.996 20.8056 19.839 21.5016 19.643ZM21.5096 9L16.0286 17.732L10.4746 9H21.5096Z" fill="white"/>
</svg>
