<svg width="32" height="32" viewBox="0 0 32 32" fill="none" xmlns="http://www.w3.org/2000/svg">
<path d="M16 32C24.8366 32 32 24.8366 32 16C32 7.16344 24.8366 0 16 0C7.16344 0 0 7.16344 0 16C0 24.8366 7.16344 32 16 32Z" fill="#FF4314"/>
<path fill-rule="evenodd" clip-rule="evenodd" d="M9.171 8H22.987V9.925H9.17L9.171 8ZM7.631 13.641H24.704V15.586H19.474V22.093C19.474 22.593 19.691 22.843 20.144 22.843H22.316C22.553 22.843 22.75 22.69 22.868 22.401C23.007 22.093 23.105 21.149 23.145 19.59L25 20.168C24.862 22.343 24.605 23.633 24.25 24.038C23.895 24.422 23.382 24.634 22.69 24.634H19.553C18.151 24.634 17.461 23.922 17.461 22.516V15.586H14.539V15.971C14.441 18.416 13.889 20.379 12.882 21.843C11.895 23.19 10.316 24.249 8.105 25L7 23.306C9.132 22.574 10.553 21.65 11.303 20.572C12.053 19.378 12.447 17.857 12.526 15.971V15.586H7.632L7.631 13.641Z" fill="white"/>
</svg>
