<svg width="32" height="32" viewBox="0 0 32 32" fill="none" xmlns="http://www.w3.org/2000/svg">
<path d="M16 32C24.8366 32 32 24.8366 32 16C32 7.16344 24.8366 0 16 0C7.16344 0 0 7.16344 0 16C0 24.8366 7.16344 32 16 32Z" fill="#4392CD"/>
<path fill-rule="evenodd" clip-rule="evenodd" d="M16.858 25.5H15.142C13.854 25.5 13.489 24.306 13.489 23.394C13.489 22.482 13.554 22.069 13.554 21.657C13.554 21.007 13.226 19.384 12.631 18.704C11.472 17.379 10.742 16.192 10.742 14.47C9.734 13.949 7.952 13.471 7.266 12.69C6.58 11.909 6 10.8 6 9.21402C6 8.80902 6.086 8.23702 6.258 7.49902C6.653 8.73302 7.261 9.57902 8.082 10.039C9.283 10.713 10.637 11.212 11.794 11.212H20.206C21.363 11.212 22.716 10.712 23.918 10.039C24.738 9.57902 25.347 8.73302 25.742 7.49902C25.914 8.23702 26 8.80902 26 9.21402C26 10.799 25.42 11.907 24.734 12.688C24.048 13.469 22.266 13.948 21.258 14.468C21.258 16.191 20.528 17.378 19.369 18.703C18.774 19.383 18.446 21.006 18.446 21.656C18.446 22.068 18.511 22.481 18.511 23.393C18.511 24.305 18.146 25.499 16.858 25.499V25.5Z" fill="white"/>
</svg>
