<svg width="32" height="32" viewBox="0 0 32 32" fill="none" xmlns="http://www.w3.org/2000/svg">
<path d="M16 32C24.8366 32 32 24.8366 32 16C32 7.16344 24.8366 0 16 0C7.16344 0 0 7.16344 0 16C0 24.8366 7.16344 32 16 32Z" fill="#15BDFF"/>
<path d="M14.7381 24.734L7.04013 9.046C7.01206 8.98821 6.99911 8.92424 7.00248 8.86008C7.00584 8.79592 7.02542 8.73367 7.05938 8.67913C7.09334 8.62459 7.14058 8.57955 7.19667 8.54823C7.25276 8.5169 7.31588 8.50031 7.38013 8.5H10.0481C10.1911 8.5 10.3251 8.58 10.3881 8.706L16.0101 20.087C16.5101 21.107 17.9611 21.107 18.4621 20.087L24.0661 8.715C24.0984 8.65277 24.1473 8.60062 24.2072 8.56429C24.2672 8.52795 24.336 8.50882 24.4061 8.509H24.7381C24.9351 8.509 25.0601 8.715 24.9711 8.885L17.1911 24.735C16.6901 25.755 15.2401 25.755 14.7381 24.735V24.734Z" fill="white"/>
</svg>
