<svg width="32" height="32" viewBox="0 0 32 32" fill="none" xmlns="http://www.w3.org/2000/svg">
<path d="M16 32C24.8366 32 32 24.8366 32 16C32 7.16344 24.8366 0 16 0C7.16344 0 0 7.16344 0 16C0 24.8366 7.16344 32 16 32Z" fill="#F7931A"/>
<path d="M25.9768 19.7541L25.4318 21.9371L23.9768 21.5751L24.5208 19.3911L22.3378 18.8471L22.7008 17.3921L24.8838 17.9361L25.4288 15.7531L26.8838 16.1161L26.3398 18.2991L28.5228 18.8431L28.1598 20.2991L25.9768 19.7541ZM20.6098 13.7601C20.4068 15.1101 19.6708 15.7661 18.6978 16.0001C20.0288 16.7031 20.7028 17.7871 20.0458 19.6771C19.2298 22.0241 17.3198 22.2321 14.7838 21.7571L14.1538 24.2791L12.6678 23.9091L13.2888 21.4191C12.893 21.3211 12.4984 21.2188 12.1048 21.1121L11.4808 23.6121L9.99684 23.2421L10.6268 20.7141C10.2788 20.6251 9.92684 20.5311 9.56684 20.4411L7.63184 19.9581L8.37984 18.2161C8.37984 18.2161 9.47484 18.5071 9.45984 18.4861C9.88184 18.5891 10.0698 18.3081 10.1448 18.1211L11.1388 14.1331L11.2968 14.1721C11.2464 14.1519 11.1946 14.1352 11.1418 14.1221L11.8518 11.2751C11.8718 10.9521 11.7648 10.5461 11.1618 10.3951C11.1858 10.3801 10.0828 10.1271 10.0828 10.1271L10.4878 8.50307L12.5378 9.01507L12.5358 9.02207C12.8438 9.09907 13.1618 9.17207 13.4858 9.24507L14.1088 6.74707L15.5948 7.11707L14.9838 9.56707C15.3828 9.65707 15.7838 9.74907 16.1738 9.84707L16.7808 7.41407L18.2678 7.78407L17.6448 10.2831C19.5208 10.9331 20.8898 11.9161 20.6098 13.7601ZM17.1828 18.6451C17.6738 16.6751 14.4408 16.1851 13.4328 15.9331L12.5998 19.2801C13.6078 19.5301 16.7148 20.5331 17.1848 18.6441L17.1828 18.6451ZM17.6698 13.7491C18.1158 11.9561 15.4118 11.5721 14.5728 11.3631L13.8158 14.4001C14.6548 14.6101 17.2408 15.4671 17.6698 13.7491Z" fill="white"/>
</svg>
