<svg width="32" height="32" viewBox="0 0 32 32" fill="none" xmlns="http://www.w3.org/2000/svg">
<path d="M16 32C24.8366 32 32 24.8366 32 16C32 7.16344 24.8366 0 16 0C7.16344 0 0 7.16344 0 16C0 24.8366 7.16344 32 16 32Z" fill="#624DBF"/>
<path d="M22.313 9C22.807 9.057 23.307 9.088 23.795 9.176C24.762 9.359 25.078 9.819 24.914 10.752C24.848 11.13 24.604 11.363 24.216 11.426C23.9847 11.4586 23.7515 11.4753 23.518 11.476C20.345 11.483 17.165 11.489 13.992 11.502C13.512 11.502 13.037 11.546 12.57 11.622C10.996 11.868 10.404 12.492 10.272 14.01C10.212 14.723 10.212 14.723 10.957 14.723H23.985C24.19 14.729 24.387 14.767 24.558 14.873C25.138 15.227 24.993 15.781 24.96 16.292C24.934 16.702 24.677 16.928 24.236 17.01C24.0507 17.0384 23.8634 17.0511 23.676 17.048H10.686C10.206 17.048 10.213 17.048 10.252 17.502C10.285 17.918 10.312 18.328 10.417 18.731C10.614 19.481 11.095 19.947 11.872 20.155C12.734 20.388 13.623 20.439 14.512 20.445C17.612 20.464 20.707 20.458 23.808 20.458C24.203 20.458 24.571 20.508 24.802 20.855C25.25 21.523 24.901 22.455 24.117 22.695C23.446 22.903 22.741 22.953 22.043 22.96C19.133 23.01 16.223 23.017 13.313 22.96C12.4156 22.9369 11.5217 22.8379 10.641 22.664C8.567 22.254 7.533 21.246 7.184 19.254C7.105 18.794 7.059 18.328 7 17.867V14.231C7.04 13.871 7.072 13.513 7.119 13.16C7.395 10.903 8.449 9.794 10.766 9.303C11.589 9.126 12.431 9.088 13.261 9.006C16.27 9 19.29 9 22.313 9Z" fill="white"/>
</svg>
