<svg width="32" height="32" viewBox="0 0 32 32" fill="none" xmlns="http://www.w3.org/2000/svg">
<path d="M16 32C24.8366 32 32 24.8366 32 16C32 7.16344 24.8366 0 16 0C7.16344 0 0 7.16344 0 16C0 24.8366 7.16344 32 16 32Z" fill="#2D4692"/>
<path d="M23.988 14.617C23.988 13.819 23.778 13.192 23.336 12.721C22.882 12.237 22.39 11.989 21.861 11.989H17.768V9.818H23.476C23.476 9.818 23.943 9.648 23.943 8.889C23.943 8.131 23.476 8 23.476 8H8.467C8.467 8 8 8.131 8 8.89C8 9.648 8.467 9.818 8.467 9.818H14.252V11.988H10.158C9.63 11.988 9.138 12.238 8.683 12.721C8.253 13.192 8.031 13.82 8.031 14.617L8.019 21.195C8.019 21.195 8.007 22.529 8.83 23.248C9.53 23.863 10.588 23.758 10.588 23.758H12.272C12.469 23.758 12.862 23.444 12.862 22.908C12.862 22.005 12.174 21.914 12.174 21.914H10.724C9.69 21.914 9.728 20.907 9.728 20.907V14.997C9.728 14.212 10.121 13.819 10.883 13.819H14.252V24.386C14.252 24.386 14.301 25 14.903 25H15.554V13.82H16.464V25H17.116C17.718 25 17.767 24.386 17.767 24.386V13.819H21.136C21.91 13.819 22.292 14.212 22.292 14.996V20.907C22.292 20.907 22.328 21.914 21.296 21.914H19.845C19.845 21.914 19.157 22.005 19.157 22.908C19.157 23.444 19.55 23.758 19.747 23.758H21.431C21.431 23.758 22.476 23.863 23.189 23.248C24.012 22.528 24 21.195 24 21.195L23.988 14.617ZM16.477 12.027H15.555V9.817H16.477V12.027Z" fill="white"/>
</svg>
