<svg width="32" height="32" viewBox="0 0 32 32" fill="none" xmlns="http://www.w3.org/2000/svg">
<path d="M16 32C24.8366 32 32 24.8366 32 16C32 7.16344 24.8366 0 16 0C7.16344 0 0 7.16344 0 16C0 24.8366 7.16344 32 16 32Z" fill="#008FBB"/>
<path fill-rule="evenodd" clip-rule="evenodd" d="M26.082 16.833C25.575 16.833 25.164 16.46 25.164 16V15.166H20.552C20.045 15.166 19.634 14.793 19.634 14.333C19.634 13.873 20.045 13.5 20.552 13.5H26.082C26.589 13.5 27 13.873 27 14.333V16C27 16.46 26.59 16.833 26.082 16.833ZM21.533 16.833H23.368C23.875 16.833 24.286 17.206 24.286 17.666C24.286 18.126 23.876 18.5 23.368 18.5H20.552C20.4058 18.5004 20.2613 18.4683 20.129 18.406L14.777 15.166H13.235C12.728 15.166 12.317 14.793 12.317 14.333C12.317 13.873 12.727 13.5 13.235 13.5H15.07C15.268 13.5 15.451 13.557 15.601 13.654L20.833 16.834H21.533V16.833ZM15.07 16.833C15.577 16.833 15.988 17.206 15.988 17.666C15.988 18.126 15.577 18.5 15.07 18.5H13.235C13.0888 18.5004 12.9443 18.4683 12.812 18.406L7.46 15.166H5.918C5.411 15.166 5 14.793 5 14.333C5 13.873 5.41 13.5 5.918 13.5H7.753C7.94111 13.4993 8.12545 13.5528 8.284 13.654L13.516 16.834H15.07V16.833ZM5.918 16.833H7.753C8.26 16.833 8.671 17.206 8.671 17.667C8.671 18.127 8.26 18.5 7.753 18.5H5.918C5.411 18.5 5 18.127 5 17.667C5 17.207 5.41 16.833 5.918 16.833Z" fill="white"/>
</svg>
