<svg width="32" height="32" viewBox="0 0 32 32" fill="none" xmlns="http://www.w3.org/2000/svg">
<path d="M16 32C24.8366 32 32 24.8366 32 16C32 7.16344 24.8366 0 16 0C7.16344 0 0 7.16344 0 16C0 24.8366 7.16344 32 16 32Z" fill="#201A2D"/>
<path d="M22.8177 9.58619L22.2177 10.1862C23.6494 11.7518 24.4433 13.7966 24.4433 15.9182C24.4433 18.0398 23.6494 20.0845 22.2177 21.6502L22.8177 22.2502C24.4099 20.5231 25.2939 18.2602 25.2939 15.9112C25.2939 13.5622 24.4099 11.2992 22.8177 9.57219V9.58619ZM10.1997 9.63819C11.7654 8.20649 13.8101 7.41254 15.9317 7.41254C18.0533 7.41254 20.098 8.20649 21.6637 9.63819L22.2637 9.03819C20.5367 7.44599 18.2737 6.56201 15.9247 6.56201C13.5757 6.56201 11.3127 7.44599 9.5857 9.03819L10.1997 9.63819ZM9.6377 21.6562C8.20769 20.0909 7.41479 18.0474 7.41479 15.9272C7.41479 13.807 8.20769 11.7635 9.6377 10.1982L9.0377 9.59819C7.4455 11.3252 6.56152 13.5882 6.56152 15.9372C6.56152 18.2862 7.4455 20.5491 9.0377 22.2762L9.6377 21.6562ZM21.6557 22.2102C20.09 23.6419 18.0453 24.4358 15.9237 24.4358C13.8021 24.4358 11.7574 23.6419 10.1917 22.2102L9.5917 22.8102C11.3187 24.4024 13.5817 25.2864 15.9307 25.2864C18.2797 25.2864 20.5427 24.4024 22.2697 22.8102L21.6557 22.2102ZM19.7137 13.9242C19.5937 12.6722 18.5137 12.2522 17.1477 12.1242V10.4002H16.0917V12.0922H15.2477V10.4002H14.1997V12.1362H12.0577V13.2662C12.0577 13.2662 12.8377 13.2522 12.8257 13.2662C12.9663 13.2507 13.1075 13.2904 13.2194 13.377C13.3313 13.4636 13.4053 13.5902 13.4257 13.7302V18.4822C13.4227 18.5316 13.4098 18.5798 13.3878 18.6242C13.3658 18.6685 13.3352 18.7079 13.2977 18.7402C13.2609 18.7731 13.2178 18.7982 13.1711 18.814C13.1244 18.8298 13.0749 18.836 13.0257 18.8322C13.0397 18.8442 12.2577 18.8322 12.2577 18.8322L12.0577 20.0942H14.1797V21.8582H15.2357V20.1202H16.0797V21.8502H17.1377V20.1062C18.9217 19.9982 20.1657 19.5582 20.3217 17.8882C20.4477 16.5442 19.8157 15.9442 18.8057 15.7022C19.4197 15.4002 19.7997 14.8402 19.7137 13.9242ZM18.2337 17.6802C18.2337 18.9922 15.9857 18.8422 15.2697 18.8422V16.5142C15.9857 16.5162 18.2337 16.3102 18.2337 17.6802ZM17.7437 14.4002C17.7437 15.6002 15.8677 15.4542 15.2717 15.4542V13.3382C15.8677 13.3382 17.7437 13.1502 17.7437 14.4002Z" fill="white"/>
<path d="M15.924 26.852C9.89 26.851 5 21.959 5 15.925C5 9.892 9.892 5 15.925 5C21.959 5 26.851 9.89 26.852 15.924C26.8523 17.3592 26.5698 18.7803 26.0207 20.1063C25.4716 21.4322 24.6667 22.637 23.6518 23.6518C22.637 24.6667 21.4322 25.4716 20.1063 26.0207C18.7803 26.5698 17.3592 26.8523 15.924 26.852ZM15.924 5.852C10.365 5.856 5.862 10.365 5.864 15.924C5.866 21.483 10.374 25.988 15.932 25.988C21.491 25.988 25.998 21.483 26 15.924C26.0005 14.6008 25.7402 13.2906 25.234 12.0681C24.7278 10.8456 23.9855 9.73486 23.0497 8.79943C22.1139 7.864 21.0029 7.12221 19.7802 6.61647C18.5575 6.11072 17.2472 5.85095 15.924 5.852Z" fill="white"/>
</svg>
