<svg width="32" height="32" viewBox="0 0 32 32" fill="none" xmlns="http://www.w3.org/2000/svg">
<path d="M16 32C24.8366 32 32 24.8366 32 16C32 7.16344 24.8366 0 16 0C7.16344 0 0 7.16344 0 16C0 24.8366 7.16344 32 16 32Z" fill="#4C5A95"/>
<path d="M27 11.263L26.956 10.556L26.738 11.149L25.512 12.179L24.108 12.388L23.688 11.999L24.919 10.366L26.179 10L24.815 10.028L22.832 11.41L20.973 11.282L18.363 10L16.821 10.299L12.01 14.145L9.692 14.862L8.738 15.793L7.032 15.816L6.187 17.326L5 17.654L6.122 17.801L7.165 16.448L8.777 16.771L8.747 18.219L7.942 20.303L7.482 22.231L6.987 23L8.243 22.734L8.1 21.946L9.168 19.828L11.224 19.031L12.02 17.763L13.365 16.823L16.035 17.198L18.724 16.063L18.269 17.858L17.073 17.962L16.732 19.434L17.755 18.779L19.451 18.072L20.776 16.073L20.86 15.128L21.572 15.835L23.643 17.084L24.82 16.547L24.751 13.908L24.409 12.887L25.947 12.512L27 11.263Z" fill="white"/>
</svg>
