<svg width="32" height="32" viewBox="0 0 32 32" fill="none" xmlns="http://www.w3.org/2000/svg">
<path d="M16 32C24.8366 32 32 24.8366 32 16C32 7.16344 24.8366 0 16 0C7.16344 0 0 7.16344 0 16C0 24.8366 7.16344 32 16 32Z" fill="#FF3A00"/>
<path d="M16.003 5C22.07 5.01 27.002 9.946 27 16.003C26.998 22.067 22.062 27 15.996 27H15.986C9.926 26.994 4.997 22.053 5 15.986C5.003 9.93 9.94 5 16.003 5ZM16 6.418C10.723 6.418 6.428 10.716 6.426 15.998C6.425 21.274 10.714 25.57 15.988 25.574C21.271 25.574 25.573 21.278 25.577 15.998C25.5808 14.7401 25.3347 13.4939 24.8532 12.3318C24.3717 11.1696 23.6643 10.1147 22.772 9.228C21.8855 8.33514 20.8306 7.62703 19.6685 7.14469C18.5065 6.66234 17.2602 6.41535 16.002 6.418H16ZM20.728 15.017C21.067 16.736 20.631 18.18 19.396 19.434L19.226 19.605L19.01 19.499C18.8904 19.4405 18.769 19.3858 18.646 19.335L18.157 19.131L18.551 18.777C19.32 18.087 19.729 17.186 19.768 16.1C19.808 15.014 19.423 14.067 18.625 13.286C17.9255 12.5998 16.9839 12.2168 16.004 12.22C15.4684 12.2196 14.939 12.3335 14.4509 12.554C13.9629 12.7746 13.5276 13.0968 13.174 13.499C12.376 14.409 12.071 15.517 12.294 16.702C12.4319 17.486 12.8232 18.203 13.408 18.743L13.795 19.102L13.306 19.299C13.184 19.348 13.056 19.401 12.919 19.459L12.709 19.547L12.549 19.384C11.726 18.536 11.28 17.56 11.187 16.4C10.99 13.955 12.575 11.801 14.957 11.279C15.3084 11.2012 15.6671 11.1617 16.027 11.161C17.1352 11.1621 18.2089 11.5467 19.0656 12.2496C19.9224 12.9525 20.5094 13.9304 20.727 15.017H20.728ZM9.973 21.307C8.497 19.661 7.3 16.741 8.37 13.483C8.89875 11.8779 9.92033 10.4804 11.2893 9.48951C12.6583 8.49862 14.305 7.96479 15.995 7.964C17.6707 7.96205 19.3049 8.48448 20.6687 9.45807C22.0325 10.4316 23.0575 11.8076 23.6 13.393C24.546 16.165 23.888 19.317 21.925 21.423L21.675 21.69L20.778 20.688L20.976 20.465C22.204 19.082 22.774 17.442 22.671 15.592C22.575 13.902 21.903 12.43 20.673 11.218C19.431 9.98953 17.7529 9.30312 16.006 9.309C14.4014 9.3097 12.8504 9.88633 11.635 10.934C10.6933 11.7375 9.99704 12.79 9.626 13.971C9.24902 15.1449 9.20746 16.4008 9.506 17.597C9.75435 18.6214 10.2447 19.5713 10.936 20.367L11.132 20.594L10.216 21.58L9.973 21.307Z" fill="white"/>
</svg>
