<svg width="32" height="32" viewBox="0 0 32 32" fill="none" xmlns="http://www.w3.org/2000/svg">
<path d="M16 32C24.8367 32 32 24.8367 32 16C32 7.16333 24.8367 0 16 0C7.16333 0 0 7.16333 0 16C0 24.8367 7.16333 32 16 32Z" fill="#2B6680"/>
<path d="M5.00002 16C4.99441 18.9174 6.14795 21.7175 8.20688 23.7844C10.2658 25.8512 13.0615 27.0155 15.9789 27.0212C18.8962 27.0268 21.6964 25.8732 23.7632 23.8143C25.8301 21.7554 26.9944 18.9597 27 16.0423V15.958C26.9962 15.1113 26.8953 14.2679 26.699 13.4443C26.6657 13.291 26.6021 13.1458 26.512 13.0173C26.4219 12.8888 26.3071 12.7796 26.1742 12.696C26.0414 12.6125 25.8932 12.5562 25.7384 12.5306C25.5836 12.505 25.4252 12.5106 25.2725 12.5469C25.1199 12.5833 24.976 12.6498 24.8493 12.7424C24.7227 12.835 24.6157 12.952 24.5348 13.0865C24.4539 13.221 24.4006 13.3702 24.3781 13.5255C24.3556 13.6808 24.3643 13.8391 24.4037 13.991C24.8421 15.8222 24.6707 17.7465 23.9154 19.4713C23.1602 21.1961 21.8624 22.6272 20.2194 23.547C18.5763 24.4668 16.6779 24.825 14.8127 24.5671C12.9475 24.3092 11.2175 23.4494 9.88568 22.1183C8.55385 20.7873 7.69304 19.0577 7.4341 17.1927C7.17515 15.3276 7.53224 13.429 8.45108 11.7855C9.36991 10.1419 10.8003 8.84332 12.5247 8.08707C14.2491 7.33082 16.1732 7.15827 18.0047 7.59566C18.3065 7.66124 18.6221 7.60584 18.8835 7.44136C19.145 7.27688 19.3315 7.01643 19.4031 6.71594C19.4747 6.41545 19.4255 6.09888 19.2663 5.83421C19.107 5.56953 18.8504 5.37785 18.5514 5.30032C16.9352 4.91469 15.2526 4.90025 13.63 5.25809C12.0074 5.61592 10.487 6.33673 9.18294 7.36639C7.87886 8.39604 6.82502 9.70778 6.10055 11.2031C5.37608 12.6984 4.99982 14.3384 5.00002 16Z" fill="white"/>
<path d="M21.5603 7.95405C21.5443 7.96905 21.534 7.98671 21.519 8.00271C21.2508 8.28703 21.0861 8.65339 21.0516 9.04271V9.22971C21.0516 9.27305 21.0423 9.31471 21.0376 9.35771C20.9915 9.82336 20.842 10.2728 20.5999 10.6733C20.3578 11.0737 20.0294 11.4151 19.6385 11.6723C19.2477 11.9296 18.8043 12.0963 18.3407 12.1603C17.8772 12.2242 17.4052 12.1838 16.9593 12.042C16.308 11.8833 15.6275 11.8888 14.9789 12.0581C14.3303 12.2274 13.7339 12.5552 13.2433 13.012C13.2033 13.0494 13.1593 13.081 13.12 13.1204C12.3566 13.8837 11.9278 14.9189 11.9277 15.9984C11.9277 17.0779 12.3565 18.1132 13.1198 18.8765C13.8831 19.6399 14.9184 20.0687 15.9978 20.0688C17.0773 20.0688 18.1126 19.64 18.876 18.8767C19.0443 18.706 19.197 18.52 19.332 18.3217C19.6606 17.8512 19.8859 17.3166 19.9933 16.7528C20.1006 16.1891 20.0874 15.609 19.9546 15.0507C19.9319 14.9776 19.9119 14.9036 19.8946 14.829C19.8946 14.818 19.888 14.8077 19.8853 14.7964C19.784 14.3574 19.7782 13.9017 19.8685 13.4603C19.9587 13.0189 20.1428 12.602 20.4082 12.238C20.6737 11.874 21.0143 11.5713 21.407 11.3504C21.7997 11.1296 22.2353 10.9958 22.6843 10.958C22.7076 10.958 22.7303 10.9514 22.7536 10.9507C22.82 10.9507 22.8863 10.943 22.9526 10.943H22.9686C23.375 10.9056 23.7554 10.7267 24.0433 10.4374C24.1116 10.3667 24.174 10.2904 24.23 10.2094C24.4828 9.85094 24.5922 9.41072 24.5364 8.97561C24.4806 8.54051 24.2637 8.14213 23.9285 7.85909C23.5934 7.57606 23.1643 7.42894 22.726 7.44676C22.2877 7.46459 21.872 7.64607 21.561 7.95538" fill="white"/>
</svg>
