<svg width="32" height="32" viewBox="0 0 32 32" fill="none" xmlns="http://www.w3.org/2000/svg">
<path d="M16 32C24.8366 32 32 24.8366 32 16C32 7.16344 24.8366 0 16 0C7.16344 0 0 7.16344 0 16C0 24.8366 7.16344 32 16 32Z" fill="#26A17B"/>
<path fill-rule="evenodd" clip-rule="evenodd" d="M17.9218 17.3828V17.3808C17.8118 17.3888 17.2448 17.4228 15.9798 17.4228C14.9698 17.4228 14.2588 17.3928 14.0088 17.3808V17.3838C10.1208 17.2128 7.2188 16.5358 7.2188 15.7258C7.2188 14.9168 10.1208 14.2398 14.0088 14.0658V16.7098C14.2628 16.7278 14.9908 16.7708 15.9968 16.7708C17.2038 16.7708 17.8088 16.7208 17.9218 16.7108V14.0678C21.8018 14.2408 24.6968 14.9178 24.6968 15.7258C24.6968 16.5358 21.8018 17.2108 17.9218 17.3828ZM17.9218 13.7928V11.4268H23.3358V7.81885H8.5948V11.4268H14.0088V13.7918C9.6088 13.9938 6.2998 14.8658 6.2998 15.9098C6.2998 16.9538 9.6088 17.8248 14.0088 18.0278V25.6098H17.9218V18.0258C22.3148 17.8238 25.6158 16.9528 25.6158 15.9098C25.6158 14.8668 22.3148 13.9958 17.9218 13.7928Z" fill="white"/>
</svg>
