<svg width="32" height="32" viewBox="0 0 32 32" fill="none" xmlns="http://www.w3.org/2000/svg">
<path d="M16 32C24.8366 32 32 24.8366 32 16C32 7.16344 24.8366 0 16 0C7.16344 0 0 7.16344 0 16C0 24.8366 7.16344 32 16 32Z" fill="#F4C257"/>
<path d="M8.395 21.539L7.233 20.864V10.685L9.105 9.597L10.267 10.271L8.395 11.36V14.898L13.129 17.65V18.959L8.395 16.208V21.538V21.539ZM24.75 19.514V20.864L15.992 25.954L14.12 24.865V23.515L15.992 24.603L19.037 22.834V17.332L20.163 16.677V22.18L24.75 19.514ZM26.983 15.774V15.544L22.463 18.172V16.862L26.983 14.235V9.387L15.99 3L10.495 6.194L10.297 6.309L14.817 8.936L13.691 9.59L9.171 6.963L5 9.387V22.161L10.495 25.355L10.694 25.47V20.216L11.82 20.87V26.125L15.992 28.548L26.983 22.161V15.774ZM21.288 13.35L16.738 15.996V21.498L15.992 21.931L15.429 21.604V16.314L10.694 13.562V12.696L11.257 12.368L15.809 15.013L20.544 12.263L21.289 12.696V13.351L21.288 13.35ZM14.83 6.27L15.991 5.596L24.749 10.686V12.861L23.589 13.535V11.359L20.542 9.59L15.808 12.341L14.681 11.687L19.416 8.935L14.83 6.27Z" fill="white"/>
</svg>
