<svg width="32" height="32" viewBox="0 0 32 32" fill="none" xmlns="http://www.w3.org/2000/svg">
<path d="M16 32C24.8366 32 32 24.8366 32 16C32 7.16344 24.8366 0 16 0C7.16344 0 0 7.16344 0 16C0 24.8366 7.16344 32 16 32Z" fill="#398260"/>
<path d="M18.6032 6.91208C20.3412 8.13908 22.1512 8.27608 24.4662 8.70208C26.5722 9.09308 27.0192 11.2441 26.0572 13.9821C25.999 13.8837 25.939 13.7863 25.8772 13.6901L26.0572 13.9821L26.0402 14.0271L26.0572 13.9821C27.5242 16.4741 27.5132 19.1731 24.3382 20.5541C18.6852 23.0141 18.3482 27.8591 13.0052 25.2511C12.2477 24.878 11.5675 24.3654 11.0002 23.7401L10.7922 23.5031L10.5992 23.4701C7.01318 22.8351 4.65918 20.8911 6.83718 15.9311C8.76418 11.5481 7.04318 7.23508 12.9532 7.42708H12.9552C14.5832 5.90008 16.4602 5.40308 18.6022 6.91208H18.6032ZM13.0962 11.3441C10.6182 13.1231 9.80218 16.4361 11.4522 19.0091C11.842 19.6202 12.3488 20.1482 12.9436 20.5625C13.5384 20.9768 14.2092 21.2694 14.9176 21.4232C15.6259 21.577 16.3577 21.5892 17.0708 21.4589C17.7838 21.3286 18.464 21.0585 19.0722 20.6641C21.6302 19.0041 21.9802 15.7841 20.7162 12.9971C19.4212 10.1401 15.8662 9.35508 13.0962 11.3441Z" fill="white"/>
</svg>
