<svg width="32" height="32" viewBox="0 0 32 32" fill="none" xmlns="http://www.w3.org/2000/svg">
<path d="M16 32C24.8366 32 32 24.8366 32 16C32 7.16344 24.8366 0 16 0C7.16344 0 0 7.16344 0 16C0 24.8366 7.16344 32 16 32Z" fill="#2C398F"/>
<path d="M25.0754 19.0999C25.6018 19.0737 26.104 18.8704 26.5004 18.5229C25.9494 21.3389 24.4094 24.1099 21.7664 25.6329C19.7444 26.8109 17.2164 27.2029 14.7584 26.9029C14.3904 25.8409 13.4254 24.7099 11.7484 23.8559C9.10538 22.4939 7.86438 20.1389 6.73838 21.2929C6.63438 21.3929 6.54838 21.5099 6.48538 21.6389C6.43505 21.5332 6.38901 21.4254 6.34738 21.3159C4.18738 15.9599 6.34738 10.5799 10.6674 6.72494C13.2414 4.43894 16.2514 4.69294 18.9404 5.93994C18.779 6.07031 18.6495 6.23582 18.5618 6.42386C18.4741 6.6119 18.4305 6.81749 18.4344 7.02494V12.4269C17.3166 11.776 16.0032 11.5451 14.7304 11.7756C13.4576 12.0062 12.3088 12.6832 11.4904 13.6849C10.6687 14.6888 10.2285 15.9508 10.2475 17.2479C10.2666 18.545 10.7436 19.7936 11.5944 20.7729C12.4422 21.7498 13.6106 22.3923 14.8896 22.5849C16.1686 22.7776 17.4745 22.5077 18.5724 21.8239C18.7069 22.1136 18.9365 22.3486 19.223 22.4896C19.5096 22.6307 19.8358 22.6693 20.1474 22.5992C20.459 22.5291 20.7372 22.3544 20.9357 22.1042C21.1341 21.854 21.241 21.5433 21.2384 21.2239V7.30194C23.3064 8.75594 24.9604 10.6029 25.7184 11.8729C26.0884 12.5109 26.3524 13.2049 26.5004 13.9279C26.1754 13.6879 25.7964 13.5279 25.3974 13.4659C24.5474 13.4199 23.9034 14.5749 24.3404 16.2359C24.7084 17.7379 24.2484 19.0539 25.0754 19.0999ZM14.7124 19.1919C11.8164 17.5299 14.2524 13.2589 17.1484 14.9209C18.0214 15.4059 18.1134 16.9529 17.9524 17.9449C17.6534 19.6539 16.0454 19.9539 14.7124 19.1919ZM16.0684 8.15594C15.4244 8.17894 14.9654 8.96394 14.9884 9.31094C15.0104 9.65694 15.4934 9.86494 16.1594 9.63394C16.7574 9.42594 17.3094 9.56394 17.2854 9.21794C17.2624 8.87194 16.6884 8.13294 16.0684 8.15594Z" fill="white"/>
</svg>
