<svg width="32" height="32" viewBox="0 0 32 32" fill="none" xmlns="http://www.w3.org/2000/svg">
<path d="M16 32C24.8366 32 32 24.8366 32 16C32 7.16344 24.8366 0 16 0C7.16344 0 0 7.16344 0 16C0 24.8366 7.16344 32 16 32Z" fill="#25AAE3"/>
<path d="M27 16C27 22.075 22.075 27 16 27C9.925 27 5 22.075 5 16C5 9.924 9.925 5 16 5C22.075 5 27 9.925 27 16ZM23.23 16.346C23.237 16.221 23.23 16.346 23.23 16.219C23.23 12.612 20.565 9.408 17.108 8.869V6.769L14.868 7.467V8.87C11.413 9.408 8.766 12.39 8.766 15.995C8.766 19.685 11.536 22.725 15.11 23.16V25.228L17.35 24.53V23.084C18.5858 22.8451 19.7379 22.2876 20.6922 21.4668C21.6465 20.646 22.3699 19.5902 22.791 18.404H20.47C20.0363 19.2152 19.3905 19.8935 18.6015 20.3664C17.8125 20.8392 16.9099 21.089 15.99 21.089C14.7033 21.0881 13.4647 20.6003 12.5229 19.7236C11.5811 18.8469 11.006 17.6463 10.913 16.363L23.231 16.346H23.23ZM11.25 14.13C11.6244 13.178 12.2768 12.3608 13.1223 11.7849C13.9677 11.2089 14.967 10.9009 15.99 10.901C17.0125 10.9019 18.0111 11.2104 18.8559 11.7865C19.7008 12.3625 20.3527 13.1794 20.727 14.131H11.251L11.25 14.13Z" fill="white"/>
</svg>
