<svg width="32" height="32" viewBox="0 0 32 32" fill="none" xmlns="http://www.w3.org/2000/svg">
<path d="M16 32C24.8366 32 32 24.8366 32 16C32 7.16344 24.8366 0 16 0C7.16344 0 0 7.16344 0 16C0 24.8366 7.16344 32 16 32Z" fill="#434247"/>
<path d="M16.0004 4C12.8412 4 9.8115 5.25496 7.57766 7.4888C5.34383 9.72264 4.08887 12.7524 4.08887 15.9115C4.08887 19.0706 5.34383 22.1004 7.57766 24.3342C9.8115 26.568 12.8412 27.823 16.0004 27.823C22.5794 27.823 27.9114 22.49 27.9114 15.911C27.9114 9.333 22.5804 4 16.0004 4ZM16.0004 27.341C9.68237 27.341 4.56037 22.219 4.56037 15.901C4.56037 9.585 9.68337 4.463 16.0004 4.463C22.3174 4.463 27.4404 9.585 27.4404 15.903C27.4404 22.22 22.3184 27.342 16.0004 27.342" fill="white"/>
<path d="M17.3086 17.0821H20.3286V21.5381C20.3286 21.9801 19.8756 22.2161 19.4436 22.4431C19.0206 22.6691 18.3316 22.6201 17.1706 22.6201H15.7546C13.5806 22.6691 12.9706 22.5021 12.4496 22.2751C11.9286 22.0391 11.6626 21.7051 11.6626 21.2721V17.0821H10.0986V21.8031C10.0986 22.0591 10.2266 22.3541 10.4236 22.6201C10.6496 22.9251 10.6206 23.0131 11.1116 23.2591C11.5546 23.4851 11.9976 23.6621 12.7936 23.7611C13.4136 23.8391 13.3056 23.8201 14.4076 23.8391H17.0236C18.9906 23.8001 19.3936 23.9381 20.5636 23.3481C21.5186 22.8751 21.8436 22.3251 21.9116 21.9701V15.5481H17.3186V17.0821H17.3086ZM13.2366 7.99312C12.4396 8.04312 11.7806 8.28912 11.2696 8.48512C10.7486 8.68212 10.6396 8.91812 10.4236 9.17412C10.2236 9.40612 10.1116 9.70312 10.1086 10.0101V15.2431H11.6826V10.5101C11.6826 10.1071 11.9286 9.78312 12.4106 9.54712C12.9026 9.30112 13.6206 9.18312 14.2896 9.18312H17.3576C18.5276 9.18312 19.1576 9.16312 19.5216 9.37912C19.8956 9.61512 20.3386 9.82212 20.3386 10.2651V11.5141H21.9116V9.83312C21.8826 9.61612 21.6466 8.99712 20.5346 8.47512C19.5316 8.00312 19.2076 7.97412 17.6336 7.97412" fill="white"/>
</svg>
