<svg width="32" height="32" viewBox="0 0 32 32" fill="none" xmlns="http://www.w3.org/2000/svg">
<path d="M16 32C24.8366 32 32 24.8366 32 16C32 7.16344 24.8366 0 16 0C7.16344 0 0 7.16344 0 16C0 24.8366 7.16344 32 16 32Z" fill="#F49352"/>
<path fill-rule="evenodd" clip-rule="evenodd" d="M12.6051 9.155C11.7481 9.155 11.0531 8.449 11.0531 7.578C11.0531 6.707 11.7481 6 12.6051 6C13.4631 6 14.1581 6.706 14.1581 7.578C14.1581 8.45 13.4631 9.155 12.6051 9.155ZM19.4471 26C19.2416 25.9983 19.0384 25.9561 18.8492 25.8759C18.66 25.7957 18.4884 25.679 18.3443 25.5324C18.2002 25.3859 18.0863 25.2124 18.0092 25.0219C17.9322 24.8314 17.8934 24.6275 17.8951 24.422C17.8951 23.552 18.5901 22.845 19.4471 22.845C20.3051 22.845 21.0001 23.551 21.0001 24.422C21.0001 25.294 20.3051 26 19.4471 26ZM13.2421 14.21C13.0971 14.3229 12.931 14.4057 12.7536 14.4536C12.5762 14.5014 12.391 14.5134 12.2089 14.4887C12.0268 14.464 11.8514 14.4032 11.6931 14.3098C11.5349 14.2165 11.3968 14.0924 11.2871 13.945C11.0622 13.6457 10.9635 13.2702 11.0121 12.899C11.0607 12.5278 11.2528 12.1903 11.5471 11.959L18.7051 6.397C18.8501 6.28409 19.0162 6.20128 19.1936 6.15343C19.371 6.10557 19.5562 6.09363 19.7383 6.11832C19.9204 6.143 20.0958 6.20381 20.2541 6.29717C20.4124 6.39053 20.5504 6.51457 20.6601 6.662C20.8853 6.96139 20.9842 7.3371 20.9356 7.70856C20.887 8.08001 20.6947 8.41763 20.4001 8.649L13.2421 14.21ZM13.2951 19.879C13.1501 19.9919 12.984 20.0747 12.8066 20.1226C12.6292 20.1704 12.444 20.1824 12.2619 20.1577C12.0798 20.133 11.9044 20.0722 11.7461 19.9788C11.5879 19.8855 11.4498 19.7614 11.3401 19.614C11.1149 19.3146 11.016 18.9389 11.0646 18.5674C11.1132 18.196 11.3055 17.8584 11.6001 17.627L18.7581 12.066C18.9031 11.9531 19.0692 11.8703 19.2466 11.8224C19.424 11.7746 19.6092 11.7626 19.7913 11.7873C19.9734 11.812 20.1488 11.8728 20.3071 11.9662C20.4654 12.0595 20.6034 12.1836 20.7131 12.331C20.938 12.6303 21.0367 13.0058 20.9881 13.377C20.9395 13.7482 20.7475 14.0857 20.4531 14.317L13.2951 19.879ZM13.2951 25.708C13.1501 25.8209 12.984 25.9037 12.8066 25.9516C12.6292 25.9994 12.444 26.0114 12.2619 25.9867C12.0798 25.962 11.9044 25.9012 11.7461 25.8078C11.5879 25.7145 11.4498 25.5904 11.3401 25.443C11.1149 25.1436 11.016 24.7679 11.0646 24.3964C11.1132 24.025 11.3055 23.6874 11.6001 23.456L18.7581 17.895C18.9031 17.7821 19.0692 17.6993 19.2466 17.6514C19.424 17.6036 19.6092 17.5916 19.7913 17.6163C19.9734 17.641 20.1488 17.7018 20.3071 17.7952C20.4654 17.8885 20.6034 18.0126 20.7131 18.16C20.938 18.4593 21.0367 18.8348 20.9881 19.206C20.9395 19.5772 20.7475 19.9147 20.4531 20.146L13.2951 25.708Z" fill="white"/>
</svg>
