<svg width="32" height="32" viewBox="0 0 32 32" fill="none" xmlns="http://www.w3.org/2000/svg">
<path d="M16 32C24.8366 32 32 24.8366 32 16C32 7.16344 24.8366 0 16 0C7.16344 0 0 7.16344 0 16C0 24.8366 7.16344 32 16 32Z" fill="#71C800"/>
<path fill-rule="evenodd" clip-rule="evenodd" d="M25.8201 14.7149C25.0331 14.7519 24.2431 14.7979 23.4561 14.7699C22.7501 14.7439 22.0471 14.6269 21.3431 14.5449C21.2703 14.5326 21.2023 14.5008 21.1461 14.4529C19.9811 13.4979 18.8361 12.5209 17.8321 11.3899C17.4661 10.9769 17.1701 10.5309 17.0041 9.98892C16.7811 9.25792 15.8441 8.97692 15.1501 9.39992C14.4221 9.84392 14.2971 10.8769 14.9101 11.4689C15.0186 11.5768 15.1529 11.6553 15.3001 11.6969C15.8301 11.8249 16.2401 12.1409 16.6271 12.4989C17.3211 13.1399 17.9431 13.8489 18.5471 14.5749C18.7201 14.7819 18.6321 15.0219 18.3671 15.0519C17.9571 15.0999 17.5441 15.1429 17.1311 15.1599C16.3531 15.1919 15.5741 15.2229 14.7951 15.2149C14.3601 15.2099 13.9231 15.1429 13.4921 15.0709C13.2889 15.0313 13.0947 14.9547 12.9191 14.8449C12.3401 14.4979 11.7401 14.7349 11.4061 15.0769C11.2043 15.2837 11.0755 15.5506 11.0392 15.8372C11.0029 16.1238 11.0612 16.4144 11.2051 16.6649C11.4831 17.1409 12.0311 17.4189 12.5231 17.3149C12.6651 17.2849 12.8051 17.2219 12.9311 17.1489C13.2611 16.9609 13.6191 16.8729 13.9891 16.8499C14.5831 16.8139 15.1811 16.7799 15.7761 16.7939C16.5331 16.8119 17.2901 16.8789 18.0471 16.9259C18.1501 16.9329 18.2541 16.9379 18.3561 16.9539C18.6401 16.9999 18.7221 17.2269 18.5341 17.4499C18.3081 17.7179 18.0901 17.9949 17.8461 18.2449C17.3328 18.771 16.8111 19.2887 16.2811 19.7979C16.0406 20.028 15.7424 20.189 15.4181 20.2639C14.7621 20.4209 14.4381 21.0539 14.5301 21.6939C14.6221 22.3299 15.1901 22.8079 15.8331 22.8089C16.4291 22.8089 16.8871 22.4909 17.0461 21.9209C17.2091 21.3349 17.5851 20.8929 17.9771 20.4619C18.9441 19.4009 20.0311 18.4679 21.1401 17.5619C21.2049 17.5093 21.2826 17.4748 21.3651 17.4619C21.9261 17.3889 22.4871 17.2979 23.0501 17.2629C23.6849 17.2218 24.3214 17.2131 24.9571 17.2369C25.6201 17.2639 26.2801 17.3509 26.9601 17.4139C26.9481 17.6439 26.9451 17.8399 26.9271 18.0339C26.8051 19.2939 26.4841 20.5009 25.8911 21.6219C24.4271 24.3869 22.1691 26.1179 19.1141 26.7929C18.4294 26.9376 17.7309 27.0063 17.0311 26.9979C16.2861 26.9969 15.5411 27.0039 14.7961 26.9959C12.7311 26.9739 10.8421 26.3859 9.16111 25.1819C7.13811 23.7319 5.83111 21.7849 5.26911 19.3559C5.14284 18.8135 5.06784 18.2604 5.04511 17.7039C4.9979 16.6526 4.98856 15.5999 5.01711 14.5479C5.07809 12.4388 5.81612 10.4052 7.1221 8.74785C8.42808 7.09053 10.2327 5.89742 12.2691 5.34492C13.083 5.12304 13.9225 5.00939 14.7661 5.00692C15.6301 5.00392 16.4931 4.99092 17.3561 5.01092C19.4221 5.05892 21.2991 5.68892 22.9591 6.92292C24.9441 8.39792 26.2071 10.3549 26.7391 12.7719C26.8681 13.3519 26.9131 13.9499 27.0001 14.5689C26.5701 14.6239 26.1971 14.6969 25.8201 14.7149Z" fill="white"/>
</svg>
