<svg width="32" height="32" viewBox="0 0 32 32" fill="none" xmlns="http://www.w3.org/2000/svg">
<path d="M16 32C24.8366 32 32 24.8366 32 16C32 7.16344 24.8366 0 16 0C7.16344 0 0 7.16344 0 16C0 24.8366 7.16344 32 16 32Z" fill="#FFAA05"/>
<path fill-rule="evenodd" clip-rule="evenodd" d="M16.811 11.567V13.43H19.025L18.025 14.578H16.538V16.021H18.085L17.327 17.169H16.538V20.113L15.265 21.849V17.169H13.505L14.476 16.021H15.265V14.578H12.778L13.778 13.43H15.265V11.5C14.532 10.707 13.521 10.31 12.232 10.31C9.76 10.31 7.804 12.945 7.804 15.565C7.804 17.311 8.204 18.793 9.002 20.01L7.622 21.614C6.541 20.012 6 18.182 6 16.124C6 11.605 9.89 9 12.641 9C14.325 9 15.615 9.706 16.511 11.117C18.225 9.941 19.978 9.353 21.77 9.353C24.514 9.353 26 12.703 26 15.903C26 20.161 23.134 21.805 22.088 21.997C22.0496 22.0041 22.0099 22.0001 21.9737 21.9856C21.9374 21.9711 21.9059 21.9466 21.883 21.915C21.8676 21.8937 21.8567 21.8696 21.851 21.844C21.8452 21.8184 21.8447 21.7919 21.8494 21.7661C21.8542 21.7403 21.8642 21.7157 21.8787 21.6939C21.8932 21.672 21.912 21.6534 21.934 21.639C23.553 20.551 24.362 18.884 24.362 16.639C24.362 11.738 21.845 10.604 19.995 10.604C18.8615 10.6009 17.7528 10.9362 16.811 11.567Z" fill="white"/>
</svg>
