<svg width="32" height="32" viewBox="0 0 32 32" fill="none" xmlns="http://www.w3.org/2000/svg">
<path d="M16 32C24.8366 32 32 24.8366 32 16C32 7.16344 24.8366 0 16 0C7.16344 0 0 7.16344 0 16C0 24.8366 7.16344 32 16 32Z" fill="#164B79"/>
<path d="M14.0903 18.668L13.4673 19.998H12.0853L15.8383 12L18.3413 17.333H16.9263L15.8063 15.018L14.6843 17.372L14.0903 18.668ZM19.5443 19.968L22.4743 16.018L19.5233 12.038H21.1383L23.2793 14.948L22.5003 16.018L23.2793 17.088L21.1393 19.998H18.1763L17.5503 18.668H18.9323L19.5443 19.968ZM24.0703 16.001L23.2793 14.914L25.4203 12.004H27.0003L24.0703 16.001ZM24.0703 16.001L27.0003 19.999H25.4203L23.2803 17.089L24.0703 16.001ZM11.4223 13.159C11.7814 13.5381 12.0622 13.9844 12.2484 14.4723C12.4346 14.9602 12.5226 15.48 12.5073 16.002C12.521 17.053 12.1329 18.0695 11.4223 18.844C10.7003 19.653 9.80729 20 8.75429 20C8.25341 20.005 7.75707 19.9046 7.29745 19.7055C6.83784 19.5064 6.4252 19.2128 6.08629 18.844C5.36408 18.0767 4.97382 17.0554 5.00029 16.002C4.98419 15.1772 5.22574 14.368 5.69129 13.687L6.61129 14.667C6.32328 15.1809 6.20333 15.7721 6.26825 16.3576C6.33316 16.9431 6.5797 17.4937 6.97329 17.932C7.19634 18.1846 7.47017 18.3873 7.77688 18.5269C8.0836 18.6664 8.41631 18.7398 8.75329 18.742C9.42529 18.742 10.0673 18.449 10.5333 17.932C10.7723 17.6791 10.9592 17.3816 11.0833 17.0564C11.2073 16.7313 11.2661 16.3849 11.2563 16.037C11.2586 15.3371 11.0006 14.6612 10.5323 14.141C10.3082 13.8925 10.0332 13.6951 9.72609 13.5623C9.41896 13.4294 9.08685 13.3642 8.75229 13.371C8.31016 13.3589 7.87473 13.4809 7.50329 13.721L6.58329 12.741C7.20111 12.2525 7.96876 11.9925 8.75629 12.005C9.25712 11.9961 9.75407 12.0944 10.2137 12.2935C10.6734 12.4925 11.0851 12.7876 11.4213 13.159H11.4223Z" fill="white"/>
</svg>
