<svg width="32" height="32" viewBox="0 0 32 32" fill="none" xmlns="http://www.w3.org/2000/svg">
<path d="M16 32C24.8366 32 32 24.8366 32 16C32 7.16344 24.8366 0 16 0C7.16344 0 0 7.16344 0 16C0 24.8366 7.16344 32 16 32Z" fill="#8E9495"/>
<path d="M7.623 20.7111C7.39395 20.2172 7.22411 19.6979 7.117 19.1641C7.05529 18.883 7.01616 18.5974 7 18.3101H7.894C7.91443 18.5411 7.94781 18.7708 7.994 18.9981C8.091 19.4671 8.237 19.9331 8.437 20.3581C8.973 21.4941 9.787 22.1421 10.969 22.1421C11.893 22.1421 12.609 21.7721 13.113 21.1201C13.541 20.5691 13.783 19.8381 13.783 19.2241C13.783 18.4371 13.485 17.8571 12.89 17.3661C12.406 16.9661 11.849 16.6861 10.699 16.2081L10.496 16.1241C9.3 15.6291 8.748 15.3571 8.211 14.9331C7.469 14.3471 7.075 13.6201 7.075 12.6891C7.075 11.5741 7.476 10.6291 8.194 9.96107C8.87488 9.33782 9.76596 8.9946 10.689 9.00007C11.969 9.00007 12.946 9.53307 13.596 10.4671V9.19707H16.484V21.9441H17.342V18.3671C17.3406 18.3378 17.3406 18.3084 17.342 18.2791L18.236 18.3091V18.3541C18.2536 18.5709 18.2837 18.7866 18.326 19.0001C18.419 19.4651 18.563 19.9321 18.763 20.3571C19.296 21.4921 20.111 22.1411 21.292 22.1411C22.216 22.1411 22.932 21.7711 23.436 21.1191C23.864 20.5681 24.106 19.8371 24.106 19.2231C24.106 18.4361 23.808 17.8561 23.213 17.3651C22.729 16.9651 22.172 16.6851 21.022 16.2071L20.819 16.1231C19.623 15.6281 19.071 15.3561 18.534 14.9321C17.792 14.3461 17.398 13.6191 17.398 12.6881C17.398 11.5731 17.799 10.6281 18.517 9.96007C19.198 9.33718 20.0891 8.99432 21.012 9.00007C22.292 9.00007 23.269 9.53307 23.919 10.4671V9.25107H24.814V13.6731H23.919C23.919 12.7491 23.707 11.8131 23.29 11.1221C22.798 10.3051 22.058 9.85907 21.012 9.85907C20.3195 9.85405 19.6507 10.1105 19.139 10.5771C18.599 11.0811 18.292 11.8021 18.292 12.6881C18.292 13.3481 18.558 13.8381 19.102 14.2681C19.552 14.6231 20.056 14.8711 21.173 15.3341L21.376 15.4181C22.609 15.9291 23.22 16.2381 23.796 16.7131C24.583 17.3631 25 18.1771 25 19.2231C25 20.0191 24.698 20.9291 24.154 21.6331C23.485 22.4961 22.508 23.0001 21.292 23.0001C20.449 23.0001 19.726 22.7441 19.132 22.2701C18.7765 21.9826 18.4734 21.6358 18.236 21.2451V22.8031H15.59V10.0561H14.49V13.6731H13.596C13.596 12.7491 13.384 11.8131 12.967 11.1221C12.475 10.3051 11.735 9.85907 10.689 9.85907C9.99653 9.85405 9.32766 10.1105 8.816 10.5771C8.276 11.0811 7.969 11.8021 7.969 12.6881C7.969 13.3481 8.235 13.8381 8.779 14.2681C9.229 14.6231 9.733 14.8711 10.85 15.3341L11.053 15.4181C12.286 15.9291 12.897 16.2381 13.473 16.7131C14.26 17.3631 14.677 18.1771 14.677 19.2231C14.677 20.0191 14.375 20.9291 13.831 21.6331C13.162 22.4961 12.185 23.0001 10.969 23.0001C10.126 23.0001 9.403 22.7441 8.809 22.2701C8.44459 21.9755 8.13487 21.619 7.894 21.2171V22.7491H7V18.3091H7.894V21.2171C7.7946 21.0534 7.70414 20.8845 7.623 20.7111Z" fill="white"/>
</svg>
