<svg width="32" height="32" viewBox="0 0 32 32" fill="none" xmlns="http://www.w3.org/2000/svg">
<path d="M16 32C24.8366 32 32 24.8366 32 16C32 7.16344 24.8366 0 16 0C7.16344 0 0 7.16344 0 16C0 24.8366 7.16344 32 16 32Z" fill="#0E0E21"/>
<path fill-rule="evenodd" clip-rule="evenodd" d="M11.5503 15.245L10.3103 14.44C10.2562 14.4049 10.2177 14.3502 10.203 14.2874C10.1883 14.2246 10.1984 14.1585 10.2313 14.103L15.0153 5.992C15.0583 5.9187 15.1196 5.85785 15.1932 5.81543C15.2669 5.773 15.3503 5.75045 15.4353 5.75H16.5643C16.6492 5.75045 16.7326 5.773 16.8063 5.81543C16.8799 5.85785 16.9413 5.9187 16.9843 5.992L21.7683 14.103C21.8011 14.1585 21.8112 14.2246 21.7965 14.2874C21.7818 14.3502 21.7434 14.4049 21.6893 14.44L20.4493 15.245C20.4216 15.2625 20.3908 15.2744 20.3585 15.2797C20.3262 15.2851 20.2932 15.2839 20.2614 15.2763C20.2296 15.2686 20.1996 15.2547 20.1733 15.2352C20.147 15.2157 20.1249 15.1912 20.1083 15.163L16.1053 8.377C16.0945 8.35876 16.0791 8.34364 16.0607 8.33314C16.0423 8.32264 16.0215 8.31712 16.0003 8.31712C15.9791 8.31712 15.9582 8.32264 15.9398 8.33314C15.9214 8.34364 15.9061 8.35876 15.8953 8.377L11.8923 15.163C11.8757 15.1914 11.8536 15.2162 11.8273 15.2358C11.8009 15.2555 11.7708 15.2695 11.7388 15.2772C11.7068 15.2849 11.6736 15.286 11.6412 15.2804C11.6088 15.2749 11.5779 15.2628 11.5503 15.245ZM23.0273 16.24L24.9313 19.468C24.9963 19.5789 25.0164 19.7105 24.9876 19.8358C24.9588 19.9611 24.8832 20.0706 24.7763 20.142L16.2663 25.672C16.1875 25.7235 16.0954 25.751 16.0013 25.751C15.9071 25.751 15.815 25.7235 15.7363 25.672L7.22626 20.142C7.11839 20.0714 7.04195 19.9619 7.01288 19.8363C6.98381 19.7108 7.00437 19.5788 7.07026 19.468L8.97426 16.24C8.99078 16.2116 9.0129 16.1868 9.03928 16.1672C9.06565 16.1475 9.09574 16.1335 9.12771 16.1258C9.15968 16.1181 9.19288 16.117 9.22529 16.1226C9.2577 16.1281 9.28865 16.1402 9.31626 16.158L10.5553 16.963C10.6094 16.9981 10.6478 17.0528 10.6625 17.1156C10.6772 17.1784 10.6671 17.2445 10.6343 17.3L9.54626 19.145C9.53052 19.1729 9.5259 19.2057 9.53331 19.2368C9.54073 19.268 9.55964 19.2952 9.58626 19.313L15.9343 23.438C15.9743 23.465 16.0243 23.465 16.0653 23.438L22.4153 19.313C22.4423 19.2955 22.4615 19.2683 22.4689 19.237C22.4764 19.2057 22.4715 19.1728 22.4553 19.145L21.3673 17.3C21.3344 17.2445 21.3243 17.1784 21.339 17.1156C21.3537 17.0528 21.3922 16.9981 21.4463 16.963L22.6863 16.158C22.7138 16.1403 22.7447 16.1284 22.777 16.1229C22.8093 16.1175 22.8424 16.1186 22.8742 16.1263C22.9061 16.134 22.9361 16.148 22.9624 16.1675C22.9887 16.1871 23.0107 16.2117 23.0273 16.24Z" fill="white"/>
</svg>
