<svg width="32" height="32" viewBox="0 0 32 32" fill="none" xmlns="http://www.w3.org/2000/svg">
<path d="M16 32C24.8366 32 32 24.8366 32 16C32 7.16344 24.8366 0 16 0C7.16344 0 0 7.16344 0 16C0 24.8366 7.16344 32 16 32Z" fill="#07BC9C"/>
<path fill-rule="evenodd" clip-rule="evenodd" d="M23.8969 6.695C23.3279 6.553 22.0019 6.572 21.5949 7.131C22.0019 7.358 22.2859 7.708 22.7029 7.718C23.1199 7.728 23.6029 7.329 24.1329 7.557C23.9059 7.557 22.8829 7.747 22.8169 8.059C22.9599 8.294 23.1319 8.51 23.3279 8.703C23.5939 8.921 23.6219 8.997 24.0199 8.779C24.5071 8.47144 24.8747 8.00683 25.0619 7.462C25.0619 7.178 25.1469 7.367 24.9389 7.131C24.6332 6.90139 24.2751 6.75154 23.8969 6.695ZM18.5539 7.197C19.3233 6.78657 20.2173 6.67509 21.0639 6.884C20.982 5.97163 20.5554 5.1248 19.8709 4.516C20.6909 5.026 21.2679 5.846 21.4709 6.789C21.9359 6.714 22.4189 6.534 22.8639 6.467C22.7837 5.56012 22.3843 4.7111 21.7369 4.071C21.4239 3.777 20.5429 3 20.0399 3C19.5369 3 18.8839 4.137 18.6949 4.601C18.3708 5.42879 18.321 6.33879 18.5529 7.197H18.5539Z" fill="white"/>
<path fill-rule="evenodd" clip-rule="evenodd" d="M18.4303 8.68422C18.2603 8.27722 19.0083 8.11622 19.2363 8.14422C19.6433 8.26422 20.0163 8.47822 20.3263 8.76922C20.9223 9.21522 22.0963 10.5322 22.9593 10.2192C23.8213 9.90622 22.7983 8.38122 22.3243 7.98322C21.937 7.6181 21.4698 7.34843 20.9599 7.19565C20.45 7.04288 19.9115 7.01123 19.3873 7.10322C18.9093 7.24622 18.5173 7.59322 18.3173 8.04922C18.2603 8.25822 18.0523 8.68422 18.4313 8.68422H18.4303Z" fill="white"/>
<path d="M22.3899 14.3681C21.8599 14.0461 21.6699 13.0981 21.3389 12.5781C20.8839 11.8481 20.2209 11.2521 19.8229 10.4941C19.4249 9.73614 19.3779 9.15814 18.6959 8.79814C18.4345 8.66037 18.1434 8.58838 17.8479 8.58838C17.5524 8.58838 17.2614 8.66037 16.9999 8.79814C16.1529 9.18214 15.2619 9.46214 14.3469 9.63214C13.9413 9.72821 13.5427 9.85183 13.1539 10.0021C12.8294 10.1845 12.4902 10.3393 12.1399 10.4651C11.2679 10.5881 9.65792 9.51814 9.80992 11.1751C9.80992 11.4791 10.1219 11.6401 10.0269 12.0281C9.93292 12.4171 9.51592 12.7581 9.31692 13.0611C8.90828 13.7467 8.58966 14.4821 8.36892 15.2491C7.83056 16.9864 7.93491 18.8594 8.66292 20.5261C9.01292 21.3461 9.47992 22.1121 10.0459 22.8001C10.3229 23.1231 10.5659 23.4721 10.7759 23.8421C10.9359 24.2801 11.1359 24.7021 11.3729 25.1021C11.5778 25.3595 11.8499 25.5551 12.1592 25.6672C12.4685 25.7793 12.8027 25.8035 13.1249 25.7371C13.456 25.6234 13.7739 25.4742 14.0729 25.2921C14.5837 25.089 15.1184 24.9519 15.6639 24.8841C17.6544 24.5721 19.47 23.5653 20.7889 22.0421C21.4138 21.2881 21.8985 20.4282 22.2199 19.5031C22.4067 18.9872 22.543 18.4544 22.6269 17.9121C22.6749 17.5711 22.5709 16.7081 22.8169 16.4821C22.9769 16.3291 23.3569 16.2921 23.4709 16.1491C23.5573 15.9609 23.6236 15.7642 23.6689 15.5621C23.8489 15.0031 22.7979 14.5581 22.3909 14.3681H22.3899ZM23.1099 15.7231C22.9679 16.0451 22.4099 16.2351 22.1629 16.5761C21.8088 17.215 21.3364 17.7808 20.7709 18.2431C20.2012 18.54 19.5458 18.6287 18.9177 18.4937C18.2896 18.3588 17.7284 18.0088 17.3309 17.5041C16.9115 16.9801 16.6842 16.3283 16.6869 15.6571C16.6869 15.1361 17.2559 13.8281 16.6869 13.5441C16.1189 13.2601 15.8539 14.1791 15.6359 14.4921C15.2546 15.1251 14.6749 15.6145 13.9869 15.8841C13.4516 16.0653 12.8771 16.0976 12.3249 15.9775C11.7727 15.8573 11.2636 15.5893 10.8519 15.2021C10.5767 14.8105 10.3936 14.3617 10.3164 13.8892C10.2391 13.4168 10.2697 12.933 10.4059 12.4741C10.4186 12.0066 10.3773 11.5392 10.2829 11.0811C10.2829 10.3991 10.8799 10.6451 11.3629 10.7401C12.5603 10.9534 13.6978 11.422 14.6979 12.1141C15.6372 12.8944 16.7635 13.4165 17.9659 13.6291C18.7709 13.7051 19.5689 13.8411 20.3539 14.0371C20.7419 14.1511 21.1019 14.3401 21.4809 14.4731C21.8809 14.6031 22.2689 14.7701 22.6369 14.9751C22.8929 15.0881 23.2619 15.3151 23.1199 15.6851L23.1099 15.7231Z" fill="white"/>
</svg>
