<svg width="32" height="32" viewBox="0 0 32 32" fill="none" xmlns="http://www.w3.org/2000/svg">
<path d="M16 32C24.8366 32 32 24.8366 32 16C32 7.16344 24.8366 0 16 0C7.16344 0 0 7.16344 0 16C0 24.8366 7.16344 32 16 32Z" fill="#004A80"/>
<path fill-rule="evenodd" clip-rule="evenodd" d="M23 19.54L21.517 25H9V24.087L15.79 16.368L9.137 7.992V7H21.468L21.898 11.252H21.108C20.587 10.283 20.145 9.558 19.78 9.077C19.416 8.596 19.091 8.297 18.805 8.178C18.603 8.08 18.325 8.01 17.971 7.968C17.5483 7.92147 17.1232 7.89977 16.698 7.903H13.195L18.444 14.443V14.758L11.956 22.123H19.361C19.725 22.123 20.059 22.036 20.361 21.863C20.663 21.689 20.925 21.471 21.146 21.209C21.3782 20.9381 21.5841 20.6458 21.761 20.336C21.9504 20.0072 22.1168 19.6658 22.259 19.314L23 19.54Z" fill="white"/>
</svg>
