<svg width="32" height="32" viewBox="0 0 32 32" fill="none" xmlns="http://www.w3.org/2000/svg">
<path d="M16 32C24.8366 32 32 24.8366 32 16C32 7.16344 24.8366 0 16 0C7.16344 0 0 7.16344 0 16C0 24.8366 7.16344 32 16 32Z" fill="#FF6600"/>
<path d="M15.9705 5.23486C21.9555 5.23486 26.7955 10.0749 26.7955 16.0589C26.7914 17.2251 26.6031 18.3834 26.2375 19.4909H23.0115V10.3969L15.9715 17.4369L8.93146 10.3969V19.4909H5.70446C5.33918 18.3833 5.15119 17.2251 5.14746 16.0589C5.14746 10.0749 9.98746 5.23486 15.9715 5.23486H15.9705ZM14.3585 19.0199L16.0005 20.6349L17.6135 19.0209L20.6645 15.9409V21.6609H25.2115C24.247 23.2471 22.8902 24.5581 21.2717 25.4675C19.6533 26.3769 17.8279 26.854 15.9715 26.8529C12.0695 26.8529 8.63746 24.7709 6.73146 21.6609H11.2775V15.9409L14.3575 19.0209L14.3585 19.0199Z" fill="white"/>
</svg>
