<svg width="32" height="32" viewBox="0 0 32 32" fill="none" xmlns="http://www.w3.org/2000/svg">
<path d="M16 32C24.8366 32 32 24.8366 32 16C32 7.16344 24.8366 0 16 0C7.16344 0 0 7.16344 0 16C0 24.8366 7.16344 32 16 32Z" fill="#1FC5C9"/>
<path fill-rule="evenodd" clip-rule="evenodd" d="M11.296 22.472L13.46 20.308C14.415 20.8721 15.5305 21.1027 16.6309 20.9634C17.7313 20.8241 18.7542 20.3228 19.5385 19.5385C20.3228 18.7542 20.8241 17.7313 20.9634 16.6309C21.1027 15.5305 20.8721 14.415 20.308 13.46L22.472 11.296C23.5937 12.837 24.1284 14.7279 23.9797 16.6282C23.831 18.5284 23.0087 20.3131 21.6609 21.6609C20.3131 23.0087 18.5284 23.831 16.6282 23.9797C14.7279 24.1284 12.837 23.5937 11.296 22.472ZM9.528 20.704C8.40627 19.163 7.8716 17.2721 8.0203 15.3718C8.16899 13.4716 8.99128 11.6869 10.3391 10.3391C11.6869 8.99128 13.4716 8.16899 15.3718 8.0203C17.2721 7.8716 19.163 8.40627 20.704 9.528L18.54 11.692C17.585 11.1279 16.4695 10.8973 15.3691 11.0366C14.2687 11.1759 13.2458 11.6772 12.4615 12.4615C11.6772 13.2458 11.1759 14.2687 11.0366 15.3691C10.8973 16.4695 11.1279 17.585 11.692 18.54L9.528 20.704ZM24 10C23.4696 10 22.9609 9.78929 22.5858 9.41421C22.2107 9.03914 22 8.53043 22 8C22 7.46957 22.2107 6.96086 22.5858 6.58579C22.9609 6.21071 23.4696 6 24 6C24.5304 6 25.0391 6.21071 25.4142 6.58579C25.7893 6.96086 26 7.46957 26 8C26 8.53043 25.7893 9.03914 25.4142 9.41421C25.0391 9.78929 24.5304 10 24 10ZM8 26C7.46957 26 6.96086 25.7893 6.58579 25.4142C6.21071 25.0391 6 24.5304 6 24C6 23.4696 6.21071 22.9609 6.58579 22.5858C6.96086 22.2107 7.46957 22 8 22C8.53043 22 9.03914 22.2107 9.41421 22.5858C9.78929 22.9609 10 23.4696 10 24C10 24.5304 9.78929 25.0391 9.41421 25.4142C9.03914 25.7893 8.53043 26 8 26Z" fill="white"/>
</svg>
