<svg width="32" height="32" viewBox="0 0 32 32" fill="none" xmlns="http://www.w3.org/2000/svg">
<path d="M16 32C24.8366 32 32 24.8366 32 16C32 7.16344 24.8366 0 16 0C7.16344 0 0 7.16344 0 16C0 24.8366 7.16344 32 16 32Z" fill="#60E4DD"/>
<path fill-rule="evenodd" clip-rule="evenodd" d="M10.144 20.024C10.444 19.569 10.728 19.143 10.996 18.744H7.932C7.90734 18.744 7.88368 18.7342 7.86624 18.7168C7.8488 18.6993 7.839 18.6757 7.839 18.651V18.015C7.839 17.964 7.881 17.922 7.932 17.922H11.554C13.491 15.093 14.459 13.928 14.459 13.809C14.459 13.626 14.419 13.535 13.759 13.535C12.455 13.535 10.31 12.604 10.31 10.062C10.31 8.679 12.547 7 13.853 7C14.459 7 14.552 7.257 14.273 7.274C13.527 7.32 11.895 8.81 11.895 10.244C11.895 11.204 12.747 12.849 14.645 12.849C16.887 12.849 18.802 9.285 23.457 9.285C26.254 9.285 27 11.473 27 12.073C27 12.673 26.127 12.987 24.949 12.987C23.771 12.987 23.727 10.884 21.359 10.884C17.641 10.884 14.475 14.91 12.954 17.922H15.578C15.63 17.922 15.671 17.964 15.671 18.015V18.651C15.6711 18.6633 15.6688 18.6755 15.6642 18.6869C15.6596 18.6983 15.6528 18.7087 15.6441 18.7174C15.6355 18.7262 15.6252 18.7331 15.6138 18.7378C15.6025 18.7426 15.5903 18.745 15.578 18.745H12.568C12.36 19.225 12.205 19.66 12.108 20.025H14.738C14.79 20.025 14.832 20.065 14.832 20.117V20.754C14.832 20.7787 14.8222 20.8023 14.8048 20.8198C14.7873 20.8372 14.7637 20.847 14.739 20.847H11.99C12.039 22.013 13.017 23.064 14.926 24H7.606C8.26206 22.9423 8.92876 21.8913 9.606 20.847H7.094C7.0817 20.8471 7.0695 20.8448 7.0581 20.8402C7.0467 20.8356 7.03633 20.8288 7.02759 20.8201C7.01885 20.8115 7.01191 20.8012 7.00717 20.7898C7.00244 20.7785 7 20.7663 7 20.754V20.117C7 20.066 7.042 20.024 7.093 20.024H10.144Z" fill="white"/>
</svg>
