<svg width="32" height="32" viewBox="0 0 32 32" fill="none" xmlns="http://www.w3.org/2000/svg">
<path d="M16 32C24.8366 32 32 24.8366 32 16C32 7.16344 24.8366 0 16 0C7.16344 0 0 7.16344 0 16C0 24.8366 7.16344 32 16 32Z" fill="#00B0FF"/>
<path d="M24 12.061V20.976L21.464 22.456V16.506L16 19.776L10.536 16.503V22.456L8 20.976V12.06L16 16.865L24 12.06V12.061ZM16.03 23.178L18.37 21.779L20.68 23.178L16.03 26L11.382 23.178L13.692 21.779L16.031 23.178H16.03ZM20.65 8.822L18.339 10.221L16 8.822L13.661 10.221L11.351 8.822L16 6L20.65 8.822Z" fill="white"/>
</svg>
