<svg width="32" height="32" viewBox="0 0 32 32" fill="none" xmlns="http://www.w3.org/2000/svg">
<path d="M16 32C24.8366 32 32 24.8366 32 16C32 7.16344 24.8366 0 16 0C7.16344 0 0 7.16344 0 16C0 24.8366 7.16344 32 16 32Z" fill="#98C23A"/>
<path d="M15.79 4C9.279 4 4 9.279 4 15.79C4 22.301 9.279 27.58 15.79 27.58C22.301 27.58 27.58 22.301 27.58 15.79C27.569 9.283 22.297 4.011 15.79 4ZM15.79 26C10.158 26 5.592 21.435 5.59 15.803C5.588 10.171 10.151 5.603 15.783 5.6C21.415 5.596 25.984 10.158 25.99 15.79C25.984 21.421 21.421 25.984 15.79 25.99V26ZM10.58 14.74H8.68V10.58C8.68 9.8 9.05 9.41 9.79 9.41H13.91C14.0688 9.38308 14.2318 9.39494 14.3851 9.44455C14.5383 9.49417 14.6773 9.58007 14.7903 9.69496C14.9032 9.80984 14.9867 9.95031 15.0336 10.1044C15.0806 10.2585 15.0897 10.4217 15.06 10.58V14.74H13.18V11.04H10.58V14.74ZM13.18 15.96H15.08V20.96C15.1078 21.1176 15.0974 21.2796 15.0496 21.4323C15.0018 21.5851 14.918 21.7241 14.8054 21.8378C14.6927 21.9514 14.5544 22.0364 14.4021 22.0855C14.2497 22.1346 14.0878 22.1464 13.93 22.12H9.79C9.63397 22.1385 9.47579 22.1199 9.32827 22.0659C9.18074 22.0118 9.04804 21.9237 8.9409 21.8088C8.83377 21.6939 8.75522 21.5553 8.71163 21.4044C8.66804 21.2534 8.66063 21.0943 8.69 20.94V15.94H13.19L13.18 15.96ZM20.98 16.03H22.9V21.03C22.9283 21.1886 22.9178 21.3516 22.8695 21.5053C22.8212 21.659 22.7365 21.7987 22.6226 21.9126C22.5087 22.0265 22.369 22.1112 22.2153 22.1595C22.0616 22.2078 21.8986 22.2183 21.74 22.19H17.57C17.4129 22.2146 17.2522 22.2014 17.1012 22.1515C16.9502 22.1016 16.8133 22.0164 16.7019 21.903C16.5904 21.7896 16.5076 21.6512 16.4603 21.4994C16.413 21.3476 16.4026 21.1866 16.43 21.03V10.67C16.3994 10.5097 16.4084 10.3444 16.4564 10.1884C16.5043 10.0324 16.5897 9.8905 16.7051 9.7751C16.8205 9.65971 16.9624 9.57431 17.1184 9.52635C17.2744 9.4784 17.4397 9.46935 17.6 9.5H21.7C21.8624 9.46354 22.0314 9.46819 22.1915 9.51355C22.3517 9.5589 22.498 9.64351 22.6172 9.75971C22.7363 9.87591 22.8246 10.02 22.874 10.179C22.9234 10.3379 22.9323 10.5067 22.9 10.67V13.67H20.9V11.13H18.4V16.03H20.98Z" fill="white"/>
</svg>
