<svg width="32" height="32" viewBox="0 0 32 32" fill="none" xmlns="http://www.w3.org/2000/svg">
<path d="M16 32C24.8366 32 32 24.8366 32 16C32 7.16344 24.8366 0 16 0C7.16344 0 0 7.16344 0 16C0 24.8366 7.16344 32 16 32Z" fill="#56F4F1"/>
<path d="M6 9.016C6 9.001 6.21 9 8.918 9.002L11.837 9.005L13.497 11.798L15.185 14.639L15.213 14.686L15.477 14.236C15.621 13.988 15.739 13.781 15.737 13.775C15.735 13.769 15.1 12.697 14.327 11.395C13.554 10.093 12.921 9.022 12.921 9.015C12.921 9.002 13.36 9 15.994 9C17.7 9 19.066 9.004 19.066 9.01C19.066 9.03 12.551 20.107 12.536 20.11C12.525 20.112 11.572 18.502 9.26 14.573C7.467 11.526 6 9.026 6 9.016ZM20.14 9.007C20.14 9.003 21.46 9 23.071 9H26L25.996 9.022C25.993 9.035 24.533 11.523 22.752 14.551C20.593 18.218 19.506 20.057 19.492 20.059C19.479 20.061 19.173 19.552 18.147 17.825C17.415 16.595 16.814 15.585 16.81 15.583C16.802 15.578 16.277 16.469 16.281 16.481C16.282 16.486 16.885 17.501 17.619 18.737C18.0701 19.4874 18.5135 20.2425 18.949 21.002C18.94 21.037 16.013 25.997 16.001 26C15.982 26.004 13.072 21.06 13.078 21.035C13.083 21.024 20.032 9.185 20.139 9.007H20.14Z" fill="white"/>
</svg>
