<svg width="32" height="32" viewBox="0 0 32 32" fill="none" xmlns="http://www.w3.org/2000/svg">
<path d="M16 32C24.8366 32 32 24.8366 32 16C32 7.16344 24.8366 0 16 0C7.16344 0 0 7.16344 0 16C0 24.8366 7.16344 32 16 32Z" fill="#13BF99"/>
<path d="M16 25H11.464L13.736 21.043H18.264L20.536 25H16ZM13.737 10.956H13.736L11.464 7H20.536L18.264 10.956H13.736H13.737ZM23.736 20.495H23.734H23.736L21.463 24.453L19.199 20.496H19.2L21.463 16.538H26L23.736 20.495ZM8.264 11.496L10.536 7.539L12.8 11.496L10.536 15.452H6L8.264 11.496ZM12.799 20.496H12.8L10.536 24.453L8.264 20.496L6 16.537H10.536L12.8 20.494L12.799 20.496ZM23.736 11.496L26 15.453H21.464L19.199 11.496L21.463 7.539L23.736 11.496Z" fill="white"/>
</svg>
