<svg width="32" height="32" viewBox="0 0 32 32" fill="none" xmlns="http://www.w3.org/2000/svg">
<path d="M16 32C24.8366 32 32 24.8366 32 16C32 7.16344 24.8366 0 16 0C7.16344 0 0 7.16344 0 16C0 24.8366 7.16344 32 16 32Z" fill="#37DCD8"/>
<path d="M15.9901 12.679L13.2061 9.875C14.0413 8.51669 14.9752 7.22154 16.0001 6C17.0233 7.2163 17.9558 8.5061 18.7901 9.859L15.9901 12.679ZM21.7081 15.489C22.4941 17.691 23.6471 19.893 22.5481 22.007C21.8489 23.3406 20.7645 24.433 19.4361 25.142C15.8171 27.062 11.3371 25.652 9.4311 22.007C8.3211 19.893 9.6141 17.517 10.4011 15.316C11.1221 13.693 11.8511 12.197 12.6791 10.759L15.9891 14.093L19.3181 10.741C20.1931 12.255 20.9491 13.813 21.7081 15.49V15.489Z" fill="white"/>
</svg>
