<svg width="32" height="32" viewBox="0 0 32 32" fill="none" xmlns="http://www.w3.org/2000/svg">
<path d="M16 32C24.8366 32 32 24.8366 32 16C32 7.16344 24.8366 0 16 0C7.16344 0 0 7.16344 0 16C0 24.8366 7.16344 32 16 32Z" fill="#1E252C"/>
<path d="M14.22 15.5895C13.8203 15.5895 13.437 15.4307 13.1544 15.1481C12.8718 14.8655 12.713 14.4822 12.713 14.0825C12.713 13.6828 12.8718 13.2995 13.1544 13.0169C13.437 12.7342 13.8203 12.5755 14.22 12.5755C14.6197 12.5755 15.003 12.7342 15.2856 13.0169C15.5682 13.2995 15.727 13.6828 15.727 14.0825C15.727 14.4822 15.5682 14.8655 15.2856 15.1481C15.003 15.4307 14.6197 15.5895 14.22 15.5895ZM17.918 15.5895C17.5183 15.5895 17.135 15.4307 16.8524 15.1481C16.5698 14.8655 16.411 14.4822 16.411 14.0825C16.411 13.6828 16.5698 13.2995 16.8524 13.0169C17.135 12.7342 17.5183 12.5755 17.918 12.5755C18.3177 12.5755 18.701 12.7342 18.9836 13.0169C19.2662 13.2995 19.425 13.6828 19.425 14.0825C19.425 14.4822 19.2662 14.8655 18.9836 15.1481C18.701 15.4307 18.3177 15.5895 17.918 15.5895ZM14.219 19.2885C13.8193 19.2885 13.436 19.1297 13.1534 18.8471C12.8708 18.5645 12.712 18.1812 12.712 17.7815C12.712 17.3818 12.8708 16.9985 13.1534 16.7159C13.436 16.4332 13.8193 16.2745 14.219 16.2745C14.6187 16.2745 15.002 16.4332 15.2846 16.7159C15.5672 16.9985 15.726 17.3818 15.726 17.7815C15.726 18.1812 15.5672 18.5645 15.2846 18.8471C15.002 19.1297 14.6187 19.2885 14.219 19.2885ZM17.918 19.2885C17.5183 19.2885 17.135 19.1297 16.8524 18.8471C16.5698 18.5645 16.411 18.1812 16.411 17.7815C16.411 17.3818 16.5698 16.9985 16.8524 16.7159C17.135 16.4332 17.5183 16.2745 17.918 16.2745C18.3177 16.2745 18.701 16.4332 18.9836 16.7159C19.2662 16.9985 19.425 17.3818 19.425 17.7815C19.425 18.1812 19.2662 18.5645 18.9836 18.8471C18.701 19.1297 18.3177 19.2885 17.918 19.2885ZM21.616 15.1785C21.4721 15.1785 21.3296 15.1501 21.1966 15.095C21.0636 15.04 20.9428 14.9592 20.841 14.8575C20.7392 14.7557 20.6585 14.6349 20.6034 14.5019C20.5483 14.3689 20.52 14.2264 20.52 14.0825C20.52 13.9385 20.5483 13.796 20.6034 13.6631C20.6585 13.5301 20.7392 13.4093 20.841 13.3075C20.9428 13.2057 21.0636 13.125 21.1966 13.0699C21.3296 13.0148 21.4721 12.9865 21.616 12.9865C21.9067 12.9865 22.1854 13.1019 22.391 13.3075C22.5965 13.513 22.712 13.7918 22.712 14.0825C22.712 14.3732 22.5965 14.6519 22.391 14.8575C22.1854 15.063 21.9067 15.1785 21.616 15.1785ZM21.616 18.8775C21.3253 18.8775 21.0466 18.762 20.841 18.5565C20.6355 18.3509 20.52 18.0722 20.52 17.7815C20.52 17.4908 20.6355 17.212 20.841 17.0065C21.0466 16.8009 21.3253 16.6855 21.616 16.6855C21.9067 16.6855 22.1854 16.8009 22.391 17.0065C22.5965 17.212 22.712 17.4908 22.712 17.7815C22.712 18.0722 22.5965 18.3509 22.391 18.5565C22.1854 18.762 21.9067 18.8775 21.616 18.8775ZM10.384 15.1785C10.0933 15.1785 9.81455 15.063 9.60901 14.8575C9.40347 14.6519 9.288 14.3732 9.288 14.0825C9.288 13.7918 9.40347 13.513 9.60901 13.3075C9.81455 13.1019 10.0933 12.9865 10.384 12.9865C10.6747 12.9865 10.9534 13.1019 11.159 13.3075C11.3645 13.513 11.48 13.7918 11.48 14.0825C11.48 14.3732 11.3645 14.6519 11.159 14.8575C10.9534 15.063 10.6747 15.1785 10.384 15.1785ZM10.384 18.8775C10.0933 18.8775 9.81455 18.762 9.60901 18.5565C9.40347 18.3509 9.288 18.0722 9.288 17.7815C9.288 17.4908 9.40347 17.212 9.60901 17.0065C9.81455 16.8009 10.0933 16.6855 10.384 16.6855C10.6747 16.6855 10.9534 16.8009 11.159 17.0065C11.3645 17.212 11.48 17.4908 11.48 17.7815C11.48 18.0722 11.3645 18.3509 11.159 18.5565C10.9534 18.762 10.6747 18.8775 10.384 18.8775ZM14.219 22.5755C14.0724 22.5799 13.9263 22.5549 13.7895 22.5018C13.6527 22.4487 13.528 22.3687 13.4227 22.2666C13.3174 22.1644 13.2337 22.0422 13.1765 21.907C13.1194 21.7719 13.0899 21.6267 13.0899 21.48C13.0899 21.3333 13.1194 21.188 13.1765 21.0529C13.2337 20.9178 13.3174 20.7955 13.4227 20.6934C13.528 20.5912 13.6527 20.5112 13.7895 20.4582C13.9263 20.4051 14.0724 20.38 14.219 20.3845C14.5038 20.3931 14.7741 20.5123 14.9725 20.7168C15.1709 20.9213 15.2819 21.195 15.2819 21.48C15.2819 21.7649 15.1709 22.0387 14.9725 22.2432C14.7741 22.4477 14.5038 22.5669 14.219 22.5755ZM17.918 22.5755C17.7714 22.5799 17.6253 22.5549 17.4885 22.5018C17.3517 22.4487 17.227 22.3687 17.1217 22.2666C17.0164 22.1644 16.9327 22.0422 16.8755 21.907C16.8184 21.7719 16.7889 21.6267 16.7889 21.48C16.7889 21.3333 16.8184 21.188 16.8755 21.0529C16.9327 20.9178 17.0164 20.7955 17.1217 20.6934C17.227 20.5912 17.3517 20.5112 17.4885 20.4582C17.6253 20.4051 17.7714 20.38 17.918 20.3845C18.2028 20.3931 18.4731 20.5123 18.6715 20.7168C18.8699 20.9213 18.9809 21.195 18.9809 21.48C18.9809 21.7649 18.8699 22.0387 18.6715 22.2432C18.4731 22.4477 18.2028 22.5669 17.918 22.5755ZM14.219 11.4805C14.0724 11.4849 13.9263 11.4599 13.7895 11.4068C13.6527 11.3537 13.528 11.2737 13.4227 11.1716C13.3174 11.0694 13.2337 10.9472 13.1765 10.812C13.1194 10.6769 13.0899 10.5317 13.0899 10.385C13.0899 10.2383 13.1194 10.093 13.1765 9.95792C13.2337 9.8228 13.3174 9.70054 13.4227 9.59837C13.528 9.49621 13.6527 9.41622 13.7895 9.36316C13.9263 9.3101 14.0724 9.28504 14.219 9.28948C14.5038 9.29808 14.7741 9.41727 14.9725 9.62178C15.1709 9.82629 15.2819 10.1 15.2819 10.385C15.2819 10.6699 15.1709 10.9437 14.9725 11.1482C14.7741 11.3527 14.5038 11.4719 14.219 11.4805ZM17.918 11.4805C17.7714 11.4849 17.6253 11.4599 17.4885 11.4068C17.3517 11.3537 17.227 11.2737 17.1217 11.1716C17.0164 11.0694 16.9327 10.9472 16.8755 10.812C16.8184 10.6769 16.7889 10.5317 16.7889 10.385C16.7889 10.2383 16.8184 10.093 16.8755 9.95792C16.9327 9.8228 17.0164 9.70054 17.1217 9.59837C17.227 9.49621 17.3517 9.41622 17.4885 9.36316C17.6253 9.3101 17.7714 9.28504 17.918 9.28948C18.2028 9.29808 18.4731 9.41727 18.6715 9.62178C18.8699 9.82629 18.9809 10.1 18.9809 10.385C18.9809 10.6699 18.8699 10.9437 18.6715 11.1482C18.4731 11.3527 18.2028 11.4719 17.918 11.4805ZM14.219 7.37048C14.1269 7.374 14.0351 7.3589 13.9489 7.32609C13.8628 7.29327 13.7842 7.24342 13.7178 7.17951C13.6514 7.1156 13.5986 7.03895 13.5625 6.95415C13.5264 6.86935 13.5078 6.77814 13.5078 6.68598C13.5078 6.59382 13.5264 6.50261 13.5625 6.41781C13.5986 6.333 13.6514 6.25635 13.7178 6.19244C13.7842 6.12853 13.8628 6.07868 13.9489 6.04587C14.0351 6.01305 14.1269 5.99796 14.219 6.00148C14.4007 6.00148 14.5749 6.07365 14.7034 6.20211C14.8318 6.33057 14.904 6.5048 14.904 6.68648C14.904 6.86815 14.8318 7.04238 14.7034 7.17084C14.5749 7.29931 14.4007 7.37148 14.219 7.37148V7.37048ZM17.918 7.37048C17.8259 7.374 17.7341 7.3589 17.6479 7.32609C17.5618 7.29327 17.4832 7.24342 17.4168 7.17951C17.3504 7.1156 17.2976 7.03895 17.2615 6.95415C17.2254 6.86935 17.2068 6.77814 17.2068 6.68598C17.2068 6.59382 17.2254 6.50261 17.2615 6.41781C17.2976 6.333 17.3504 6.25635 17.4168 6.19244C17.4832 6.12853 17.5618 6.07868 17.6479 6.04587C17.7341 6.01305 17.8259 5.99796 17.918 6.00148C18.0997 6.00148 18.2739 6.07365 18.4024 6.20211C18.5308 6.33057 18.603 6.5048 18.603 6.68648C18.603 6.86815 18.5308 7.04238 18.4024 7.17084C18.2739 7.29931 18.0997 7.37148 17.918 7.37148V7.37048ZM25.315 14.7685C25.1333 14.7685 24.9591 14.6963 24.8306 14.5678C24.7022 14.4394 24.63 14.2652 24.63 14.0835C24.63 13.9018 24.7022 13.7276 24.8306 13.5991C24.9591 13.4706 25.1333 13.3985 25.315 13.3985C25.4967 13.3985 25.6709 13.4706 25.7994 13.5991C25.9278 13.7276 26 13.9018 26 14.0835C26 14.2652 25.9278 14.4394 25.7994 14.5678C25.6709 14.6963 25.4967 14.7685 25.315 14.7685ZM25.315 18.4675C25.1333 18.4675 24.9591 18.3953 24.8306 18.2668C24.7022 18.1384 24.63 17.9641 24.63 17.7825C24.63 17.6008 24.7022 17.4266 24.8306 17.2981C24.9591 17.1696 25.1333 17.0975 25.315 17.0975C25.4967 17.0975 25.6709 17.1696 25.7994 17.2981C25.9278 17.4266 26 17.6008 26 17.7825C26 17.9641 25.9278 18.1384 25.7994 18.2668C25.6709 18.3953 25.4967 18.4675 25.315 18.4675ZM6.685 14.7685C6.50333 14.7685 6.32909 14.6963 6.20063 14.5678C6.07217 14.4394 6 14.2652 6 14.0835C6 13.9018 6.07217 13.7276 6.20063 13.5991C6.32909 13.4706 6.50333 13.3985 6.685 13.3985C6.86667 13.3985 7.04091 13.4706 7.16937 13.5991C7.29783 13.7276 7.37 13.9018 7.37 14.0835C7.37 14.2652 7.29783 14.4394 7.16937 14.5678C7.04091 14.6963 6.86667 14.7685 6.685 14.7685ZM6.685 18.4675C6.50333 18.4675 6.32909 18.3953 6.20063 18.2668C6.07217 18.1384 6 17.9641 6 17.7825C6 17.6008 6.07217 17.4266 6.20063 17.2981C6.32909 17.1696 6.50333 17.0975 6.685 17.0975C6.86667 17.0975 7.04091 17.1696 7.16937 17.2981C7.29783 17.4266 7.37 17.6008 7.37 17.7825C7.37 17.9641 7.29783 18.1384 7.16937 18.2668C7.04091 18.3953 6.86667 18.4675 6.685 18.4675ZM14.219 26.0005C14.0373 26.0005 13.8631 25.9283 13.7346 25.7998C13.6062 25.6714 13.534 25.4972 13.534 25.3155C13.534 25.1338 13.6062 24.9596 13.7346 24.8311C13.8631 24.7026 14.0373 24.6305 14.219 24.6305C14.4007 24.6305 14.5749 24.7026 14.7034 24.8311C14.8318 24.9596 14.904 25.1338 14.904 25.3155C14.904 25.4972 14.8318 25.6714 14.7034 25.7998C14.5749 25.9283 14.4007 26.0005 14.219 26.0005ZM17.918 26.0005C17.7363 26.0005 17.5621 25.9283 17.4336 25.7998C17.3052 25.6714 17.233 25.4972 17.233 25.3155C17.233 25.1338 17.3052 24.9596 17.4336 24.8311C17.5621 24.7026 17.7363 24.6305 17.918 24.6305C18.0997 24.6305 18.2739 24.7026 18.4024 24.8311C18.5308 24.9596 18.603 25.1338 18.603 25.3155C18.603 25.4972 18.5308 25.6714 18.4024 25.7998C18.2739 25.9283 18.0997 26.0005 17.918 26.0005Z" fill="white"/>
</svg>
