<svg width="32" height="32" viewBox="0 0 32 32" fill="none" xmlns="http://www.w3.org/2000/svg">
<path d="M16 32C24.8366 32 32 24.8366 32 16C32 7.16344 24.8366 0 16 0C7.16344 0 0 7.16344 0 16C0 24.8366 7.16344 32 16 32Z" fill="#D59143"/>
<path d="M7.97345 16.4525C7.45545 16.8645 6.99345 17.5965 7.01645 18.7155C7.03345 19.4895 7.44945 20.0195 7.97345 20.3795V21.7615C7.97345 22.6255 8.39345 23.4345 9.10145 23.9295L13.9544 27.2485V10.2895L7.97345 12.0395V16.4525ZM9.27645 16.0445C10.2834 16.7815 10.2834 21.1605 10.2834 21.1605C10.2834 21.1605 9.14445 21.0505 8.20345 20.5245C8.97945 20.7855 9.60245 20.7275 9.87345 20.7575L9.89145 20.7585H9.89545L9.90945 20.7605L9.94745 20.7635L9.96045 20.7655H9.97345C9.97345 20.7655 10.1334 16.9435 8.97645 16.2735C8.78845 16.2085 8.45645 16.2465 8.09045 16.3635C8.55645 16.0495 9.04345 15.9435 9.27645 16.0445ZM14.3734 22.9485H17.6364V27.2545H14.3744V22.9495L14.3734 22.9485ZM13.6334 9.96854L7.97345 11.5905V5.51954C7.9733 5.41868 8.00306 5.32005 8.05896 5.2361C8.11487 5.15216 8.19441 5.08667 8.28753 5.04792C8.38064 5.00918 8.48316 4.99891 8.58211 5.01842C8.68106 5.03794 8.77201 5.08635 8.84345 5.15754L13.9234 10.2575L13.6334 9.96754V9.96854ZM14.3734 16.0395H17.6364V22.5335H14.3744V16.0395H14.3734ZM18.3664 9.96954L18.1564 10.1795L23.1564 5.15954C23.2277 5.08813 23.3186 5.03945 23.4175 5.01968C23.5164 4.99991 23.619 5.00992 23.7123 5.04846C23.8055 5.087 23.8852 5.15233 23.9413 5.23618C23.9974 5.32004 24.0274 5.41865 24.0274 5.51954V11.5895L18.3674 9.96954H18.3664ZM14.3744 10.2905H17.6364V15.6205H14.3744V10.2905ZM24.0274 16.4525V12.0395L18.0564 10.2935V27.2545L22.8994 23.9295C23.2477 23.6855 23.532 23.3612 23.7284 22.984C23.9247 22.6068 24.0273 22.1878 24.0274 21.7625V20.3795C24.5514 20.0195 24.9674 19.4895 24.9844 18.7155C25.0084 17.5965 24.5454 16.8645 24.0274 16.4525ZM22.0674 20.8265H22.0804L22.0924 20.8255L22.1094 20.8235H22.1135L22.1484 20.8205H22.1504L22.1664 20.8185L22.3154 20.8015H22.3224C22.6484 20.7595 23.0484 20.7635 23.6624 20.5715L23.7984 20.5265C22.8564 21.0525 21.7184 21.1625 21.7184 21.1625C21.7184 21.1625 21.7184 16.7845 22.7254 16.0475C22.9584 15.9455 23.4454 16.0515 23.9104 16.3675C23.5444 16.2505 23.2134 16.2125 23.0244 16.2775C21.8674 16.9465 22.0664 20.8275 22.0664 20.8275L22.0674 20.8265Z" fill="white"/>
</svg>
