<svg width="32" height="32" viewBox="0 0 32 32" fill="none" xmlns="http://www.w3.org/2000/svg">
<path d="M16 32C24.8366 32 32 24.8366 32 16C32 7.16344 24.8366 0 16 0C7.16344 0 0 7.16344 0 16C0 24.8366 7.16344 32 16 32Z" fill="#ED1650"/>
<path fill-rule="evenodd" clip-rule="evenodd" d="M23.48 10H19.436C19.3539 10.0001 19.2728 10.0167 19.1972 10.0486C19.1217 10.0806 19.0532 10.1273 18.996 10.186L11.621 17.715C11.5637 17.7737 11.4953 17.8204 11.4197 17.8524C11.3442 17.8843 11.263 17.9009 11.181 17.901H9.82898C9.74695 17.9009 9.66577 17.8843 9.59021 17.8524C9.51466 17.8204 9.44624 17.7737 9.38898 17.715L8.43298 16.741C8.31584 16.6217 8.25015 16.4612 8.24998 16.294V14.917C8.24999 14.7495 8.31569 14.5886 8.43298 14.469L9.38898 13.495C9.44627 13.4363 9.5147 13.3896 9.59025 13.3577C9.6658 13.3258 9.74696 13.3092 9.82898 13.309H11.181C11.346 13.309 11.504 13.376 11.621 13.495L12.208 14.093C12.2652 14.1518 12.3336 14.1985 12.4092 14.2304C12.4847 14.2623 12.5659 14.2788 12.648 14.2788C12.73 14.2788 12.8112 14.2623 12.8868 14.2304C12.9624 14.1985 13.0308 14.1518 13.088 14.093L14.507 12.649C14.6238 12.5291 14.6891 12.3684 14.6891 12.201C14.6891 12.0336 14.6238 11.8729 14.507 11.753L12.967 10.186C12.9097 10.1273 12.8413 10.0806 12.7657 10.0487C12.6902 10.0168 12.609 10.0002 12.527 10H8.48298C8.40095 10.0002 8.3198 10.0168 8.24425 10.0487C8.1687 10.0806 8.10027 10.1273 8.04298 10.186L5.18298 13.098C5.06606 13.2178 5.00072 13.3786 5.00098 13.546V17.664C5.00098 17.832 5.06698 17.994 5.18298 18.112L8.04298 21.025C8.10036 21.0835 8.16882 21.13 8.24436 21.1618C8.31991 21.1935 8.40103 21.2099 8.48298 21.21H12.528C12.61 21.2098 12.6912 21.1932 12.7667 21.1613C12.8423 21.1294 12.9107 21.0827 12.968 21.024L20.343 13.496C20.4002 13.4371 20.4686 13.3903 20.5441 13.3582C20.6197 13.326 20.7009 13.3093 20.783 13.309H22.135C22.3 13.309 22.458 13.376 22.575 13.495L23.531 14.469C23.6483 14.5886 23.714 14.7495 23.714 14.917V16.294C23.7137 16.4612 23.648 16.6216 23.531 16.741L22.575 17.715C22.5177 17.7737 22.4493 17.8204 22.3737 17.8524C22.2982 17.8843 22.217 17.9009 22.135 17.901H20.783C20.7009 17.9009 20.6198 17.8843 20.5442 17.8524C20.4687 17.8204 20.4002 17.7737 20.343 17.715L19.751 17.112C19.6942 17.0537 19.6263 17.0072 19.5514 16.9753C19.4765 16.9434 19.396 16.9268 19.3145 16.9263C19.2331 16.9258 19.1524 16.9416 19.0771 16.9726C19.0018 17.0036 18.9334 17.0493 18.876 17.107L17.126 18.849C17.0666 18.9085 17.0195 18.9792 16.9874 19.0569C16.9553 19.1346 16.9389 19.2179 16.939 19.302V23.342C16.939 23.692 17.218 23.976 17.561 23.976H19.601C19.6834 23.9753 19.765 23.9585 19.8409 23.9263C19.9169 23.8941 19.9857 23.8473 20.0436 23.7885C20.1014 23.7298 20.1471 23.6602 20.1781 23.5837C20.209 23.5073 20.2246 23.4255 20.224 23.343V21.843C20.224 21.493 20.503 21.21 20.846 21.21H23.481C23.5629 21.2099 23.644 21.1935 23.7196 21.1618C23.7951 21.13 23.8636 21.0835 23.921 21.025L26.781 18.112C26.8983 17.9924 26.964 17.8315 26.964 17.664V13.546C26.9642 13.3786 26.8989 13.2178 26.782 13.098L23.922 10.186C23.8647 10.1273 23.7963 10.0806 23.7207 10.0487C23.6452 10.0168 23.564 10.0002 23.482 10" fill="white"/>
</svg>
