<svg width="32" height="32" viewBox="0 0 32 32" fill="none" xmlns="http://www.w3.org/2000/svg">
<path d="M16 32C24.8366 32 32 24.8366 32 16C32 7.16344 24.8366 0 16 0C7.16344 0 0 7.16344 0 16C0 24.8366 7.16344 32 16 32Z" fill="#01A64F"/>
<path d="M20.663 7.992C21.879 9.292 22.5 10.924 22.5 12.832C22.5 14.769 21.879 16.402 20.662 17.702C19.689 18.725 18.527 19.333 17.176 19.555V20.689H19.932V21.934H17.148V22.598H19.932V23.759H17.176V26H14.824V23.76H12.094V22.598H14.851V21.934H12.095V20.689H14.825V19.527C13.5 19.306 12.338 18.697 11.365 17.674C10.122 16.374 9.5 14.741 9.5 12.805C9.5 10.841 10.095 9.209 11.338 7.936C12.58 6.636 14.122 6 16.014 6C17.879 6 19.419 6.636 20.663 7.992ZM18.122 15.378C18.635 14.714 18.906 13.856 18.906 12.805C18.906 11.782 18.636 10.925 18.068 10.26C17.528 9.569 16.825 9.237 16.014 9.237C15.176 9.237 14.474 9.569 13.933 10.233C13.391 10.897 13.121 11.726 13.121 12.778C13.121 13.856 13.392 14.714 13.933 15.378C14.474 16.042 15.176 16.374 16.013 16.374C16.879 16.374 17.608 16.042 18.122 15.378Z" fill="white"/>
</svg>
