<svg width="32" height="32" viewBox="0 0 32 32" fill="none" xmlns="http://www.w3.org/2000/svg">
<path d="M16 32C24.8366 32 32 24.8366 32 16C32 7.16344 24.8366 0 16 0C7.16344 0 0 7.16344 0 16C0 24.8366 7.16344 32 16 32Z" fill="#262626"/>
<path fill-rule="evenodd" clip-rule="evenodd" d="M16.931 9.625C19.384 9.806 20.574 11.27 20.574 11.535C20.574 11.722 20.529 12.13 20.529 12.38C20.529 12.547 20.589 12.814 20.709 13.18C20.679 13.43 20.514 13.556 20.213 13.556C19.763 13.556 19.889 13.051 19.221 12.051C18.501 10.974 17.773 10.748 16.927 10.701C16.944 12.997 17.007 19.317 17.012 21.491C19.267 21.163 20.519 19.479 20.844 19.479C21.024 19.479 21.25 19.619 21.25 19.949C21.25 20.644 19.468 22.216 16.978 22.527C16.792 24.556 15.832 27 13.45 27C12.323 27 11.376 26.13 11.376 25.12C11.376 24.462 11.872 24.18 12.323 24.18C12.773 24.18 13.224 24.509 13.224 25.12C13.224 25.527 13.089 25.81 12.819 25.966C13.089 26.154 13.359 26.248 13.63 26.248C14.532 26.248 15.21 24.616 15.326 22.518C12.698 22.096 10.249 19.592 10.249 15.953C10.249 11.86 12.799 10.09 15.3 9.695C15.35 7.855 16.311 5.045 18.77 5C20.257 5 20.888 6.222 20.888 6.88C20.888 7.538 20.415 7.82 19.942 7.82C19.468 7.82 18.995 7.444 18.995 6.88C18.995 6.504 19.145 6.238 19.445 6.081C19.235 5.893 18.965 5.799 18.635 5.799C17.384 5.799 16.991 8.437 16.93 9.625H16.931ZM15.344 21.413C15.34 18.979 15.309 13.37 15.301 10.793C12.993 11.36 12.234 14.106 12.234 15.953C12.234 18.881 13.618 20.892 15.344 21.413Z" fill="white"/>
</svg>
