<svg width="32" height="32" viewBox="0 0 32 32" fill="none" xmlns="http://www.w3.org/2000/svg">
<path d="M16 32C24.8366 32 32 24.8366 32 16C32 7.16344 24.8366 0 16 0C7.16344 0 0 7.16344 0 16C0 24.8366 7.16344 32 16 32Z" fill="#74D269"/>
<path d="M24.963 14.512H24.983L25 19.478L13.823 26L10.831 24.318V24.32L10.812 24.308L8 22.505V9.484L11.073 7.671L11.079 7.674L13.792 6L24.942 12.563L24.963 14.512ZM21.688 17.624L19.349 16.285L11.542 20.879L13.834 22.242L21.688 17.624ZM18.822 15.984L14.006 13.226L13.985 18.907L18.822 15.984ZM14.008 12.618L21.75 17.149V14.444L14.018 9.929L14.008 12.618ZM10.82 23.57L10.85 20.857L10.832 20.868V11.296L8.485 9.896V22.176L10.82 23.57ZM11.236 20.569L13.581 19.151V9.896L11.236 11.297V20.569ZM14.117 22.6L14.07 25.436L24.506 19.3L24.536 16.48L14.117 22.6ZM21.91 14.016L24.339 12.63L13.884 6.525L11.478 7.917L21.91 14.016Z" fill="white"/>
</svg>
