<svg width="32" height="32" viewBox="0 0 32 32" fill="none" xmlns="http://www.w3.org/2000/svg">
<path d="M16 32C24.8366 32 32 24.8366 32 16C32 7.16344 24.8366 0 16 0C7.16344 0 0 7.16344 0 16C0 24.8366 7.16344 32 16 32Z" fill="#00D395"/>
<path fill-rule="evenodd" clip-rule="evenodd" d="M8.57 21.5866C8.32144 21.4396 8.11523 21.2307 7.97151 20.9802C7.82779 20.7298 7.75147 20.4463 7.75 20.1576V16.9046C7.75 16.5176 8.072 16.2046 8.466 16.2066C8.592 16.2066 8.716 16.2396 8.826 16.3016L16.329 20.5826C16.768 20.8326 17.039 21.2926 17.039 21.7896V25.1596C17.0383 25.271 17.0157 25.3811 16.9723 25.4837C16.9289 25.5863 16.8657 25.6793 16.7862 25.7574C16.7067 25.8355 16.6126 25.897 16.5093 25.9386C16.4059 25.9802 16.2954 26.0009 16.184 25.9996C16.0257 25.9996 15.8703 25.9572 15.734 25.8766L8.57 21.5866ZM19.754 15.4106C20.194 15.6606 20.462 16.1216 20.464 16.6176V23.4576C20.464 23.6596 20.354 23.8466 20.173 23.9446L18.531 24.8486C18.5099 24.8603 18.4874 24.8694 18.464 24.8756V21.0776C18.464 20.5856 18.201 20.1296 17.768 19.8776L11.18 16.0196V11.7326C11.18 11.3456 11.502 11.0326 11.897 11.0346C12.0229 11.0347 12.1465 11.0675 12.256 11.1296L19.756 15.4106H19.754ZM23.039 10.3586C23.479 10.6086 23.75 11.0686 23.75 11.5676V21.5576C23.7487 21.6591 23.7201 21.7583 23.6671 21.8449C23.6142 21.9315 23.5388 22.0022 23.449 22.0496L21.892 22.8726V15.9166C21.892 15.4256 21.628 14.9706 21.199 14.7176L14.463 10.7646V6.69956C14.463 6.57556 14.498 6.45456 14.559 6.34756C14.6571 6.18672 14.8139 6.07038 14.9963 6.02315C15.1786 5.97593 15.3722 6.00154 15.536 6.09456L23.039 10.3596V10.3586Z" fill="white"/>
</svg>
