<svg width="32" height="32" viewBox="0 0 32 32" fill="none" xmlns="http://www.w3.org/2000/svg">
<path d="M16 32C24.8366 32 32 24.8366 32 16C32 7.16344 24.8366 0 16 0C7.16344 0 0 7.16344 0 16C0 24.8366 7.16344 32 16 32Z" fill="#34445B"/>
<path d="M15.9373 10.2219L17.9473 7.08591C18.4631 7.16956 18.9912 7.05114 19.4218 6.75529C19.8525 6.45944 20.1525 6.00894 20.2594 5.49752C20.3663 4.9861 20.2719 4.45315 19.9959 4.00956C19.7198 3.56596 19.2834 3.24588 18.7773 3.11591C18.3742 3.03243 17.9553 3.07348 17.576 3.23361C17.1968 3.39373 16.8752 3.66537 16.6539 4.01249C16.4326 4.35961 16.3221 4.7658 16.337 5.17718C16.3519 5.58857 16.4915 5.9857 16.7373 6.31591L14.2433 10.2069C13.2025 10.3093 12.1921 10.6158 11.2698 11.1088C10.3475 11.6019 9.53134 12.2718 8.86807 13.0805C8.20481 13.8891 7.70738 14.8204 7.40424 15.8214C7.10109 16.8223 6.99816 17.8732 7.10133 18.9139C7.30937 21.0152 8.34329 22.9479 9.97583 24.2872C11.6084 25.6264 13.7059 26.2626 15.8073 26.0559C17.9088 25.8481 19.8418 24.8143 21.1812 23.1817C22.5207 21.5492 23.157 19.4515 22.9503 17.3499C22.7708 15.5397 21.9772 13.8454 20.7014 12.5487C19.4256 11.2519 17.7444 10.4309 15.9373 10.2219ZM15.0223 22.3439C14.4676 22.3444 13.9181 22.2356 13.4055 22.0235C12.8928 21.8115 12.427 21.5005 12.0347 21.1083C11.6424 20.716 11.3312 20.2503 11.1191 19.7377C10.9069 19.2251 10.7979 18.6757 10.7983 18.1209C10.7978 17.5661 10.9067 17.0165 11.1188 16.5038C11.3309 15.9911 11.642 15.5253 12.0343 15.1329C12.4267 14.7406 12.8925 14.4295 13.4052 14.2174C13.918 14.0053 14.4675 13.8964 15.0223 13.8969C15.8804 13.8967 16.7182 14.1581 17.4239 14.6462C18.1296 15.1343 18.6698 15.8259 18.9723 16.6289C18.5754 16.1178 17.9919 15.7851 17.3499 15.7039C16.7079 15.6227 16.06 15.7997 15.5483 16.1959C15.037 16.5926 14.7041 17.1762 14.6229 17.8183C14.5417 18.4603 14.7188 19.1084 15.1153 19.6199C15.3431 19.9129 15.6346 20.1501 15.9678 20.3135C16.301 20.4769 16.667 20.5621 17.0381 20.5628C17.4092 20.5635 17.7756 20.4795 18.1093 20.3174C18.4431 20.1552 18.7355 19.9191 18.9643 19.6269C18.6605 20.4263 18.1207 21.1143 17.4166 21.5996C16.7126 22.0849 15.8775 22.3445 15.0223 22.3439Z" fill="white"/>
<path d="M15.9373 10.2219L17.9473 7.08591C18.4631 7.16956 18.9912 7.05114 19.4218 6.75529C19.8525 6.45944 20.1525 6.00894 20.2594 5.49752C20.3663 4.9861 20.2719 4.45315 19.9959 4.00956C19.7198 3.56596 19.2834 3.24588 18.7773 3.11591C18.3742 3.03243 17.9553 3.07348 17.576 3.23361C17.1968 3.39373 16.8752 3.66537 16.6539 4.01249C16.4326 4.35961 16.3221 4.7658 16.337 5.17718C16.3519 5.58857 16.4915 5.9857 16.7373 6.31591L14.2433 10.2069C13.2025 10.3093 12.1921 10.6158 11.2698 11.1088C10.3475 11.6019 9.53134 12.2718 8.86807 13.0805C8.20481 13.8891 7.70738 14.8204 7.40424 15.8214C7.10109 16.8223 6.99816 17.8732 7.10133 18.9139C7.30937 21.0152 8.34329 22.9479 9.97583 24.2872C11.6084 25.6264 13.7059 26.2626 15.8073 26.0559C17.9088 25.8481 19.8418 24.8143 21.1812 23.1817C22.5207 21.5492 23.157 19.4515 22.9503 17.3499C22.7708 15.5397 21.9772 13.8454 20.7014 12.5487C19.4256 11.2519 17.7444 10.4309 15.9373 10.2219ZM15.0223 22.3439C14.4676 22.3444 13.9181 22.2356 13.4055 22.0235C12.8928 21.8115 12.427 21.5005 12.0347 21.1083C11.6424 20.716 11.3312 20.2503 11.1191 19.7377C10.9069 19.2251 10.7979 18.6757 10.7983 18.1209C10.7978 17.5661 10.9067 17.0165 11.1188 16.5038C11.3309 15.9911 11.642 15.5253 12.0343 15.1329C12.4267 14.7406 12.8925 14.4295 13.4052 14.2174C13.918 14.0053 14.4675 13.8964 15.0223 13.8969C15.8804 13.8967 16.7182 14.1581 17.4239 14.6462C18.1296 15.1343 18.6698 15.8259 18.9723 16.6289C18.5754 16.1178 17.9919 15.7851 17.3499 15.7039C16.7079 15.6227 16.06 15.7997 15.5483 16.1959C15.037 16.5926 14.7041 17.1762 14.6229 17.8183C14.5417 18.4603 14.7188 19.1084 15.1153 19.6199C15.3431 19.9129 15.6346 20.1501 15.9678 20.3135C16.301 20.4769 16.667 20.5621 17.0381 20.5628C17.4092 20.5635 17.7756 20.4795 18.1093 20.3174C18.4431 20.1552 18.7355 19.9191 18.9643 19.6269C18.6605 20.4263 18.1207 21.1143 17.4166 21.5996C16.7126 22.0849 15.8775 22.3445 15.0223 22.3439Z" fill="white"/>
</svg>
