<svg width="32" height="32" viewBox="0 0 32 32" fill="none" xmlns="http://www.w3.org/2000/svg">
<path d="M16 32C24.8366 32 32 24.8366 32 16C32 7.16344 24.8366 0 16 0C7.16344 0 0 7.16344 0 16C0 24.8366 7.16344 32 16 32Z" fill="#3AB03E"/>
<path d="M17.161 16.779C17.5585 16.5885 17.8942 16.2898 18.1295 15.917C18.3647 15.5443 18.49 15.1128 18.491 14.672C18.491 13.378 17.429 12.329 16.121 12.329C14.811 12.329 13.748 13.378 13.748 14.672C13.7491 15.1129 13.8747 15.5445 14.1104 15.9171C14.346 16.2896 14.6821 16.5881 15.08 16.778V19.672H17.161V16.779ZM16.121 23.5C11.935 23.5 8.531 20.136 8.531 16C8.531 11.864 11.935 8.5 16.121 8.5C19.536 8.5 22.431 10.74 23.381 13.812H25.997C24.987 9.342 20.949 6 16.12 6C10.531 6 6 10.477 6 16C6 21.523 10.531 26 16.12 26C20.949 26 24.987 22.658 25.997 18.188H23.38C22.43 21.26 19.535 23.5 16.12 23.5" fill="white"/>
</svg>
