<svg width="32" height="32" viewBox="0 0 32 32" fill="none" xmlns="http://www.w3.org/2000/svg">
<path d="M16 32C24.8366 32 32 24.8366 32 16C32 7.16344 24.8366 0 16 0C7.16344 0 0 7.16344 0 16C0 24.8366 7.16344 32 16 32Z" fill="black"/>
<path d="M27.9856 14.6688V14.7328C26.5986 15.6008 25.2016 16.4588 23.8086 17.3248C23.7822 17.3439 23.7614 17.3698 23.7486 17.3998C24.1206 17.4998 24.5056 17.5748 24.8586 17.7368C25.1846 17.8818 25.5186 18.0708 25.7026 18.3878C25.8786 18.7098 25.9226 19.0878 25.8246 19.4408C25.7716 19.7048 25.6606 19.9528 25.5606 20.2038C25.1426 21.2058 24.7226 22.2048 24.3076 23.2108C24.2874 23.2606 24.2605 23.3073 24.2276 23.3498C24.0906 23.3468 23.9596 23.2968 23.8256 23.2658C23.1496 23.0988 22.4696 22.9348 21.7936 22.7658C21.5736 22.7038 21.3476 22.6678 21.1306 22.5958C21.1366 22.4588 21.2146 22.3418 21.2606 22.2188L22.1886 19.9978C22.2586 19.8438 22.2996 19.6518 22.1996 19.5018C22.0746 19.2878 21.8236 19.2068 21.6016 19.1458C20.7856 18.9358 19.9636 18.7418 19.1456 18.5388C19.0286 18.5138 18.9146 18.4608 18.7916 18.4768C18.7196 18.6028 18.6776 18.7448 18.6196 18.8808C18.2716 19.6968 17.9376 20.5178 17.5916 21.3338C17.5416 21.4478 17.5116 21.5738 17.4356 21.6738C17.2996 21.6738 17.1716 21.6208 17.0406 21.5898C16.3416 21.4178 15.6426 21.2418 14.9406 21.0718C14.7436 21.0188 14.5376 20.9858 14.3426 20.9188C14.345 20.8634 14.3572 20.8089 14.3786 20.7578L17.9116 12.2878C17.9238 12.2594 17.9431 12.2346 17.9676 12.2158C18.0906 12.2238 18.2076 12.2738 18.3276 12.3018C18.9226 12.4438 19.5186 12.5968 20.1146 12.7418C20.4236 12.8218 20.7406 12.8838 21.0476 12.9758C21.0636 13.0338 21.0356 13.0928 21.0136 13.1478C20.7736 13.6938 20.5536 14.2478 20.3206 14.7938L19.5996 16.5258C19.5186 16.7288 19.4126 16.9238 19.3566 17.1378C19.4606 17.1018 19.5496 17.0408 19.6406 16.9788L24.3466 14.0288C24.4326 13.9748 24.5106 13.9028 24.6086 13.8778C24.7526 13.8668 24.8886 13.9218 25.0256 13.9528C25.5056 14.0558 25.9776 14.1928 26.4536 14.3028C26.9696 14.4178 27.4756 14.5598 27.9856 14.6688ZM16.8816 12.9698C16.9066 13.4738 16.7146 13.9528 16.5176 14.4038C15.9856 15.6818 15.4476 16.9568 14.9186 18.2348C14.7266 18.6858 14.5596 19.1568 14.2646 19.5548C14.0546 19.8508 13.7626 20.0788 13.4246 20.2088C12.9985 20.342 12.5473 20.3746 12.1066 20.3038C11.3466 20.2088 10.6066 20.0038 9.86258 19.8248C8.85258 19.5718 7.83558 19.3268 6.82558 19.0728C6.15458 18.9118 5.47758 18.7388 4.85358 18.4328C4.58433 18.3022 4.35553 18.1011 4.19158 17.8508C4.06494 17.6442 4.00912 17.402 4.03258 17.1608C4.08558 16.7178 4.24958 16.2968 4.42758 15.8908L6.05758 11.9758C6.18758 11.6758 6.30157 11.3658 6.46858 11.0828C6.61145 10.821 6.80127 10.5878 7.02857 10.3948C7.29658 10.1908 7.61158 10.0598 7.94458 10.0128C8.18958 9.99079 8.43458 10.0028 8.67958 10.0078C9.43723 10.1198 10.1876 10.2767 10.9266 10.4778C11.9626 10.7278 12.9956 10.9908 14.0306 11.2408C14.5066 11.3578 14.9806 11.4778 15.4456 11.6368C15.7566 11.7508 16.0746 11.8668 16.3476 12.0648C16.6576 12.2658 16.8556 12.6008 16.8816 12.9698ZM13.2616 13.8608C13.2816 13.7138 13.1766 13.5878 13.0536 13.5238C12.8036 13.3878 12.5186 13.3378 12.2466 13.2678C11.5246 13.0878 10.8026 12.9098 10.0766 12.7338C9.87084 12.6735 9.65425 12.6598 9.44257 12.6938C9.19758 12.7638 9.07457 13.0118 8.99157 13.2288C8.58157 14.2038 8.18158 15.1808 7.76958 16.1528C7.72458 16.2668 7.67958 16.3808 7.66958 16.5028C7.66958 16.6428 7.76658 16.7648 7.88558 16.8228C8.06458 16.9148 8.25958 16.9658 8.44858 17.0158L10.7036 17.5698C10.9656 17.6308 11.2406 17.6978 11.5086 17.6398C11.7336 17.5668 11.8486 17.3358 11.9316 17.1328L13.0366 14.4818C13.1236 14.2818 13.2346 14.0838 13.2626 13.8618L13.2616 13.8608Z" fill="white"/>
</svg>
