<svg width="32" height="32" viewBox="0 0 32 32" fill="none" xmlns="http://www.w3.org/2000/svg">
<path d="M16 32C24.8366 32 32 24.8366 32 16C32 7.16344 24.8366 0 16 0C7.16344 0 0 7.16344 0 16C0 24.8366 7.16344 32 16 32Z" fill="#0899CD"/>
<path d="M26.97 16.867C26.783 19.536 25.718 21.838 23.775 23.775C23.285 24.266 22.772 24.701 22.235 25.08C22.2115 25.0444 22.1858 25.0103 22.158 24.978L26.848 16.853C26.888 16.86 26.928 16.865 26.97 16.867ZM21.733 25.415C20.043 26.472 18.131 27 16 27C13.963 27 12.126 26.517 10.489 25.552C10.735 25.697 10.985 25.83 11.24 25.952C11.2652 25.9107 11.2867 25.8672 11.304 25.822H20.696C20.7129 25.8672 20.734 25.9107 20.759 25.952C21.092 25.792 21.416 25.612 21.733 25.415ZM9.765 25.085C9.21164 24.6937 8.69305 24.2554 8.215 23.775C6.278 21.838 5.217 19.535 5.03 16.867C5.07063 16.8654 5.11108 16.8607 5.151 16.853L9.842 24.978C9.81334 25.0114 9.78759 25.0472 9.765 25.085ZM5 15.83C5.04 12.863 6.11 10.324 8.214 8.214C10.365 6.072 12.96 5 16 5C19.04 5 21.632 6.072 23.775 8.215C25.915 10.355 26.99 12.937 27 15.959C26.9996 15.6897 26.9896 15.4206 26.97 15.152C26.9293 15.1539 26.8889 15.1589 26.849 15.167L22.163 7.027C22.1919 6.99318 22.218 6.95706 22.241 6.919C21.7736 6.58801 21.2796 6.29634 20.764 6.047C20.737 6.09212 20.7142 6.13966 20.696 6.189H11.304C11.2858 6.13964 11.2631 6.0921 11.236 6.047C10.725 6.293 10.233 6.582 9.76 6.915C9.783 6.955 9.81 6.995 9.842 7.031L5.151 15.167C5.11079 15.1588 5.07 15.1538 5.029 15.152C5.014 15.376 5.004 15.602 5.001 15.831L5 15.83ZM26.346 15.458C26.2788 15.5338 26.2259 15.6213 26.19 15.716H22.313C22.268 15.5987 22.198 15.4926 22.108 15.405C22.0201 15.3148 21.9136 15.2449 21.796 15.2V7.572L26.346 15.459V15.458ZM26.19 16.301C26.226 16.3957 26.2788 16.4831 26.346 16.559L21.796 24.437V16.817C21.9136 16.7724 22.02 16.7028 22.108 16.613C22.1981 16.5251 22.268 16.4186 22.313 16.301H26.19ZM5.81 15.717C5.77403 15.6223 5.72117 15.5349 5.654 15.459L10.204 7.572V15.201C10.0864 15.2459 9.9799 15.3158 9.892 15.406C9.80199 15.4936 9.73205 15.5997 9.687 15.717H5.81ZM11.295 6.793C11.299 6.78669 11.3024 6.77999 11.305 6.773H20.697C20.7334 6.86751 20.7862 6.95486 20.853 7.031L17.983 11.991C17.7859 11.9522 17.5814 11.9867 17.408 12.088L11.295 6.793ZM11.305 15.717C11.26 15.5997 11.19 15.4936 11.1 15.406C11.0121 15.3159 10.9056 15.2459 10.788 15.201V7.572L15.343 15.449C15.2771 15.5285 15.2263 15.6193 15.193 15.717H11.305ZM18.637 13.14C18.673 13.0417 18.6909 12.9377 18.69 12.833C18.6923 12.6315 18.6212 12.436 18.49 12.283L21.214 7.573V15.2C21.1701 15.216 21.1276 15.2358 21.087 15.259L18.637 13.139V13.14ZM17.034 12.527C16.9944 12.6241 16.9743 12.7281 16.975 12.833C16.975 13.043 17.043 13.227 17.18 13.384L16.152 15.157C16.0523 15.1371 15.9497 15.1371 15.85 15.157L11.616 7.84L17.033 12.527H17.034ZM16.814 15.717C16.7786 15.6195 16.7261 15.5291 16.659 15.45L17.682 13.676C17.8791 13.7148 18.0836 13.6803 18.257 13.579L20.707 15.698C20.7042 15.7049 20.7009 15.7116 20.697 15.718H16.814V15.717ZM20.902 16.614C20.9899 16.7041 21.0964 16.7741 21.214 16.819V24.437L16.659 16.546C16.7214 16.4737 16.7707 16.3911 16.805 16.302H20.697C20.742 16.4196 20.8119 16.5261 20.902 16.614ZM15.86 16.848C15.957 16.861 16.0555 16.8593 16.152 16.843L20.385 24.174L14.973 19.493C15.0094 19.3948 15.0277 19.2908 15.027 19.186C15.0294 18.9844 14.9583 18.7889 14.827 18.636L15.86 16.848ZM20.707 25.217C20.7042 25.2239 20.7008 25.2306 20.697 25.237H11.305C11.2705 25.1424 11.2194 25.0546 11.154 24.978L14.018 20.028C14.2151 20.0669 14.4196 20.0324 14.593 19.931L20.707 25.217ZM14.32 18.343C14.1229 18.304 13.9184 18.3385 13.745 18.44L11.295 16.322C11.2989 16.3157 11.3023 16.309 11.305 16.302H15.197C15.231 16.392 15.281 16.477 15.348 16.555L14.32 18.343ZM13.37 18.879C13.3306 18.9765 13.3108 19.0808 13.312 19.186C13.312 19.396 13.38 19.579 13.517 19.736L10.788 24.442V16.818C10.8319 16.8024 10.8744 16.783 10.915 16.76L13.37 18.88V18.879ZM9.892 16.614C9.97994 16.7041 10.0864 16.774 10.204 16.819V24.437L5.654 16.56C5.72115 16.4841 5.77401 16.3967 5.81 16.302H9.687C9.73195 16.4196 9.8019 16.5261 9.892 16.614Z" fill="white"/>
</svg>
