<svg width="32" height="32" viewBox="0 0 32 32" fill="none" xmlns="http://www.w3.org/2000/svg">
<path d="M16 32C24.8366 32 32 24.8366 32 16C32 7.16344 24.8366 0 16 0C7.16344 0 0 7.16344 0 16C0 24.8366 7.16344 32 16 32Z" fill="#58BF00"/>
<path d="M25 22.58L18.01 19.322V12.102L25 9.623V22.58ZM14.823 26L8 22.821V9.958L14.823 13.138V26ZM24.833 9.157L24.72 9.197L18.01 11.578L17.842 11.638L14.999 12.646L8.269 9.51L17.842 6.114L17.926 6.084L18.103 6.021L18.165 6L24.895 9.136L24.832 9.157H24.833Z" fill="white"/>
</svg>
