<svg width="32" height="32" viewBox="0 0 32 32" fill="none" xmlns="http://www.w3.org/2000/svg">
<path d="M16 32C24.8366 32 32 24.8366 32 16C32 7.16344 24.8366 0 16 0C7.16344 0 0 7.16344 0 16C0 24.8366 7.16344 32 16 32Z" fill="#FEC907"/>
<path d="M12.161 22.816C12.779 22.816 13.281 23.306 13.281 23.908C13.281 24.511 12.779 25 12.161 25H10.708C10.388 25 10.08 24.876 9.854 24.655C9.74231 24.5469 9.65344 24.4174 9.59264 24.2743C9.53184 24.1313 9.50034 23.9775 9.5 23.822V8.149C9.5 7.844 9.624 7.552 9.845 7.336C10.065 7.121 10.365 7 10.678 7H12.235C12.853 7 13.355 7.489 13.355 8.092C13.355 8.382 13.236 8.659 13.026 8.864C12.816 9.068 12.531 9.184 12.235 9.184H11.89V22.816H12.161ZM24.331 11.364C25.11 12.702 25.5 14.199 25.5 15.855C25.5 17.511 25.105 19.008 24.318 20.347C23.531 21.686 22.656 22.712 21.219 23.641C19.899 24.495 18.521 24.999 16.812 24.999H16.245C15.627 24.999 15.125 24.51 15.125 23.907C15.125 23.304 15.627 22.816 16.245 22.816H16.935C18.145 22.816 19.024 22.315 20.011 21.746C20.997 21.178 21.629 20.247 22.201 19.243C22.774 18.24 23.061 17.119 23.061 15.881C23.06 14.626 22.77 13.497 22.189 12.493C21.6233 11.5041 20.8028 10.6851 19.813 10.121C18.809 9.544 17.693 9.255 16.466 9.255H16.169C15.551 9.255 15.049 8.767 15.049 8.164C15.049 7.874 15.168 7.596 15.378 7.392C15.588 7.187 15.872 7.072 16.169 7.072H16.518C18.21 7.072 19.74 7.452 21.108 8.214C22.4502 8.9495 23.5649 10.039 24.331 11.364Z" fill="white"/>
</svg>
