<svg width="32" height="32" viewBox="0 0 32 32" fill="none" xmlns="http://www.w3.org/2000/svg">
<path d="M16 32C24.8366 32 32 24.8366 32 16C32 7.16344 24.8366 0 16 0C7.16344 0 0 7.16344 0 16C0 24.8366 7.16344 32 16 32Z" fill="#50479E"/>
<path d="M20.36 13.66V18.444L16.053 20.811V16.029L20.359 13.662L20.36 13.66ZM25.5 12.434V19.565C25.5 20.072 25.36 20.568 25.097 20.999C24.837 21.429 24.46 21.794 23.993 22.051L20.781 23.816V19.11L21.187 18.887V13.208L25.121 11.045C25.365 11.465 25.5 11.94 25.5 12.435V12.434ZM8.007 22.051C7.56913 21.8119 7.19922 21.4654 6.932 21.044C6.65085 20.6023 6.50103 20.0897 6.5 19.566V15L10.924 18.455V18.647L10.931 18.845L11.275 19.048L15.691 21.476L16.055 21.676V26C15.51 26.0109 14.9715 25.8792 14.493 25.618L8.007 22.05V22.051ZM7.823 10.06L12.5 7.50004L15.68 10.58L10.924 13.203V13.603L6.51 16.027L6.5 12.433C6.5 11.926 6.64 11.428 6.905 10.997C7.137 10.617 7.451 10.297 7.823 10.059V10.06ZM23.993 9.94904C24.4614 10.2049 24.8514 10.5834 25.121 11.044L21.187 13.207V13.171L20.781 12.948L16.447 10.566L20.781 8.18304L23.993 9.94904ZM6.51 16.029L10.924 13.602V18.455L6.51 16.028V16.029ZM16.055 10.38V6.00004C16.5629 6.00775 17.0613 6.13921 17.507 6.38304L20.781 8.18304L16.447 10.565L16.055 10.38ZM15.691 10.58L11.283 8.15804L14.685 6.28704C15.1143 6.08951 15.5826 5.9914 16.055 6.00004V10.38L15.691 10.58ZM16.083 21.691L16.447 21.491L20.729 23.845L17.507 25.617C17.0612 25.8604 16.5628 25.9916 16.055 25.999V21.676L16.083 21.691ZM20.781 19.109V23.816L20.729 23.845L16.447 21.491L20.781 19.109Z" fill="white"/>
</svg>
