<svg width="32" height="32" viewBox="0 0 32 32" fill="none" xmlns="http://www.w3.org/2000/svg">
<path d="M16 32C24.8366 32 32 24.8366 32 16C32 7.16344 24.8366 0 16 0C7.16344 0 0 7.16344 0 16C0 24.8366 7.16344 32 16 32Z" fill="#82BD39"/>
<path d="M14.403 19.36L16 21.464V26L10 23.337V11.619C10 11.446 10.077 11.281 10.212 11.166L10.895 10.581C10.9608 10.5241 11.0376 10.4813 11.1206 10.4552C11.2035 10.4292 11.291 10.4204 11.3775 10.4295C11.464 10.4386 11.5478 10.4654 11.6235 10.5081C11.6993 10.5508 11.7655 10.6087 11.818 10.678L17.283 17.842L20.302 19.688V9.808L17.634 8.477L17.504 14.673L16.092 12.8L16.028 6L22 8.779V20.443L20.643 21.561L16.369 19.174L11.625 12.951L11.56 22.405L14.385 23.852L14.403 19.36Z" fill="white"/>
</svg>
