<svg width="32" height="32" viewBox="0 0 32 32" fill="none" xmlns="http://www.w3.org/2000/svg">
<path d="M16 32C24.8366 32 32 24.8366 32 16C32 7.16344 24.8366 0 16 0C7.16344 0 0 7.16344 0 16C0 24.8366 7.16344 32 16 32Z" fill="#FF0060"/>
<path d="M25.07 12.047H15.922C15.2137 12.0459 14.5186 12.2389 13.9123 12.6051C13.3059 12.9712 12.8115 13.4966 12.4828 14.124C12.154 14.7514 12.0034 15.4569 12.0475 16.1638C12.0915 16.8708 12.3284 17.5522 12.7324 18.1339C13.1364 18.7157 13.6922 19.1757 14.3393 19.4638C14.9863 19.7519 15.7 19.8573 16.4027 19.7683C17.1054 19.6794 17.7703 19.3996 18.3252 18.9593C18.8801 18.519 19.3037 17.9351 19.55 17.271H15.922C15.7876 17.2711 15.6545 17.2448 15.5304 17.1934C15.4062 17.142 15.2934 17.0667 15.1983 16.9717C15.1033 16.8766 15.028 16.7638 14.9766 16.6396C14.9253 16.5155 14.8989 16.3824 14.899 16.248V16.124C14.8989 15.9896 14.9253 15.8565 14.9766 15.7324C15.028 15.6082 15.1033 15.4954 15.1983 15.4003C15.2934 15.3053 15.4062 15.23 15.5304 15.1786C15.6545 15.1272 15.7876 15.1009 15.922 15.101H21.969C22.013 15.383 22.034 15.668 22.031 15.953C22.0251 17.16 21.6618 18.3381 20.9869 19.3388C20.312 20.3394 19.3559 21.1178 18.2391 21.5755C17.1223 22.0333 15.895 22.15 14.7119 21.9109C13.5289 21.6718 12.4432 21.0877 11.5918 20.2321C10.7404 19.3766 10.1616 18.288 9.92829 17.1038C9.695 15.9196 9.81771 14.6928 10.281 13.5783C10.7442 12.4638 11.5272 11.5115 12.5312 10.8415C13.5351 10.1716 14.715 9.81401 15.922 9.814L16.109 9.783C16.148 9.801 16.189 9.811 16.233 9.814H21.659C24.62 9.814 25.829 8.233 25.829 6H15.922C10.45 6 6.01001 10.433 6.00001 15.907C5.99201 21.381 10.418 25.827 15.892 25.845C21.366 25.862 25.819 21.443 25.845 15.969V12.837C25.847 12.734 25.8284 12.6316 25.7904 12.5358C25.7523 12.44 25.6956 12.3528 25.6234 12.2793C25.5512 12.2057 25.4651 12.1473 25.3701 12.1074C25.2751 12.0675 25.1731 12.047 25.07 12.047Z" fill="white"/>
</svg>
