<svg width="32" height="32" viewBox="0 0 32 32" fill="none" xmlns="http://www.w3.org/2000/svg">
<path d="M16 32C24.8366 32 32 24.8366 32 16C32 7.16344 24.8366 0 16 0C7.16344 0 0 7.16344 0 16C0 24.8366 7.16344 32 16 32Z" fill="#001D57"/>
<path d="M20.4991 5.28809L21.7021 6.49209L19.4251 8.83209C19.9051 9.56209 20.1631 10.4231 20.1631 11.3111C20.1712 12.4795 19.7193 13.6042 18.9051 14.4421C18.3105 15.0701 17.536 15.4984 16.6881 15.6681V17.7071C17.5318 17.8813 18.3033 18.3066 18.9011 18.9271C19.7177 19.7658 20.1711 20.8925 20.1631 22.0631C20.1709 23.2334 19.7175 24.3596 18.9011 25.1981C18.5031 25.6103 18.0262 25.9381 17.4987 26.1618C16.9712 26.3855 16.404 26.5006 15.8311 26.5001C15.2579 26.5018 14.6903 26.3874 14.1627 26.1636C13.635 25.9398 13.1582 25.6113 12.7611 25.1981C11.9471 24.3581 11.4944 23.2327 11.5001 22.0631C11.5001 20.8831 11.9481 19.7641 12.7581 18.9311C13.3527 18.3034 14.1272 17.8755 14.9751 17.7061V15.6661C14.1313 15.4918 13.3599 15.0665 12.7621 14.4461C11.9475 13.606 11.4944 12.4802 11.5001 11.3101C11.5001 10.1301 11.9481 9.01109 12.7621 8.17509C13.1599 7.76267 13.6368 7.43471 14.1643 7.21083C14.6918 6.98695 15.259 6.87174 15.8321 6.87209C16.6921 6.87209 17.5191 7.13409 18.2271 7.62109L20.5001 5.28809H20.4991ZM15.8321 19.3451C15.4849 19.3423 15.1409 19.411 14.8214 19.5469C14.5019 19.6828 14.2138 19.883 13.9751 20.1351C13.4746 20.6517 13.1964 21.3438 13.2001 22.0631C13.2001 22.7881 13.4751 23.4651 13.9751 23.9901C14.2156 24.2398 14.504 24.4384 14.8231 24.5742C15.1422 24.7099 15.4853 24.7799 15.8321 24.7801C16.1791 24.7827 16.5229 24.714 16.8422 24.5781C17.1615 24.4421 17.4494 24.242 17.6881 23.9901C18.1883 23.4737 18.4664 22.782 18.4631 22.0631C18.4631 21.3381 18.1881 20.6611 17.6851 20.1321C17.4466 19.8809 17.1591 19.6815 16.8403 19.5461C16.5215 19.4107 16.1784 19.3423 15.8321 19.3451ZM17.6851 13.2551C18.1871 12.738 18.4664 12.0448 18.4631 11.3241C18.4676 10.9675 18.4015 10.6135 18.2685 10.2825C18.1354 9.95162 17.9382 9.65034 17.6881 9.39609C17.4477 9.14641 17.1594 8.94776 16.8405 8.81203C16.5216 8.67629 16.1786 8.60625 15.8321 8.60609C15.4849 8.6033 15.1409 8.67201 14.8214 8.80792C14.5019 8.94383 14.2138 9.14404 13.9751 9.39609C13.4746 9.91272 13.1964 10.6048 13.2001 11.3241C13.2001 12.0491 13.4751 12.7261 13.9751 13.2511C14.2156 13.5008 14.504 13.6994 14.8231 13.8352C15.1422 13.9709 15.4853 14.0409 15.8321 14.0411C16.5431 14.0411 17.1991 13.7651 17.6851 13.2551Z" fill="white"/>
</svg>
