<svg width="32" height="32" viewBox="0 0 32 32" fill="none" xmlns="http://www.w3.org/2000/svg">
<path d="M16 32C24.8366 32 32 24.8366 32 16C32 7.16344 24.8366 0 16 0C7.16344 0 0 7.16344 0 16C0 24.8366 7.16344 32 16 32Z" fill="#006AE3"/>
<path d="M15.21 22.3599V9.75391H16.582V22.3599H15.21Z" fill="white"/>
<path d="M22.197 13.9538L17.957 15.0778L17.012 10.6778L18.272 10.3938L18.77 12.4778C18.77 12.4778 19.915 10.5998 18.388 8.65377C17.488 7.65377 17.061 7.61177 16.052 7.45377C15.164 7.32677 13.1 7.62677 12.485 10.0358C12.225 11.5878 12.518 12.7358 14.518 14.2388L14.406 15.9118C14.406 15.9118 12.173 14.3388 11.597 13.2358C11.152 12.3628 10.387 10.6388 11.767 8.23877C12.509 7.03877 13.973 5.88777 16.552 6.00877C17.848 6.06277 21.015 7.64877 20.524 11.3508C20.439 12.0448 20.079 12.9688 20.079 12.9688L21.819 12.5818L22.197 13.9538ZM19.776 23.8178C19 24.9968 17.506 26.1078 14.933 25.9208C13.636 25.8328 10.515 24.1628 11.103 20.4748C11.206 19.7848 11.591 18.8718 11.591 18.8718L9.842 19.2118L9.5 17.8328L13.77 16.8208L14.6 21.2448L13.33 21.4968L12.888 19.3968C12.888 19.3968 11.694 21.2418 13.167 23.2298C14.039 24.2538 14.464 24.3058 15.473 24.4898C16.355 24.6418 18.427 24.3938 19.106 22.0028C19.406 20.4598 19.142 19.3028 17.185 17.7448L17.342 16.0748C17.342 16.0748 19.533 17.7048 20.079 18.8238C20.497 19.7118 21.215 21.4568 19.776 23.8178Z" fill="white"/>
</svg>
