<svg width="32" height="32" viewBox="0 0 32 32" fill="none" xmlns="http://www.w3.org/2000/svg">
<path d="M16 32C24.8366 32 32 24.8366 32 16C32 7.16344 24.8366 0 16 0C7.16344 0 0 7.16344 0 16C0 24.8366 7.16344 32 16 32Z" fill="#ECB244"/>
<path d="M15.096 19.846H21.393V23.196H17.518C17.582 24.154 17.615 25.043 17.679 26H14.418V23.23H10.542C10.542 22.137 10.413 21.043 10.607 20.017C10.704 19.47 11.285 18.991 11.64 18.513C12.8683 16.9781 14.1063 15.4511 15.354 13.932C15.839 13.35 16.323 12.803 16.872 12.154H10.832V8.804H14.418V6H17.55V8.735H21.458C21.458 9.863 21.587 10.957 21.393 11.983C21.296 12.53 20.715 13.009 20.328 13.487C19.0998 15.0219 17.8618 16.5489 16.614 18.068C16.1268 18.6765 15.6206 19.2694 15.096 19.846Z" fill="white"/>
</svg>
