<svg width="32" height="32" viewBox="0 0 32 32" fill="none" xmlns="http://www.w3.org/2000/svg">
<path d="M16 32C24.8366 32 32 24.8366 32 16C32 7.16344 24.8366 0 16 0C7.16344 0 0 7.16344 0 16C0 24.8366 7.16344 32 16 32Z" fill="#302C2C"/>
<path fill-rule="evenodd" clip-rule="evenodd" d="M15.4963 27C15.2263 26.972 14.9563 26.947 14.6863 26.915C13.2346 26.7419 11.8327 26.278 10.5643 25.551C10.5453 25.541 10.5283 25.526 10.4913 25.501C12.6973 23.851 14.8933 22.211 17.1013 20.561L17.7663 21.208C18.1363 21.57 18.5083 21.928 18.8713 22.295C18.9613 22.385 19.0263 22.384 19.1313 22.33C20.2309 21.7811 21.1705 20.9579 21.8593 19.94L21.9663 19.782C21.9973 19.818 22.0263 19.847 22.0503 19.879C22.8173 20.901 23.5833 21.923 24.3533 22.942C24.4203 23.03 24.4123 23.082 24.3413 23.162C22.5583 25.188 20.3423 26.436 17.6713 26.863C17.3353 26.917 16.9943 26.937 16.6553 26.974C16.6103 26.979 16.5653 26.991 16.5213 27H15.4963ZM16.4663 5C16.6523 5.019 16.8393 5.039 17.0263 5.056C18.6023 5.206 20.0763 5.673 21.4493 6.456C21.4693 6.468 21.4863 6.482 21.5193 6.506L14.8013 11.325C14.7123 11.241 14.6263 11.161 14.5413 11.078C14.0693 10.618 13.5953 10.159 13.1263 9.695C13.0513 9.621 12.9943 9.613 12.9003 9.66C11.7812 10.2123 10.8261 11.048 10.1303 12.084L10.0303 12.234L7.56229 8.946C7.81129 8.682 8.04129 8.419 8.29029 8.176C9.91329 6.593 11.8403 5.586 14.0733 5.181C14.5033 5.103 14.9423 5.077 15.3773 5.026C15.4263 5.021 15.4753 5.009 15.5233 5H16.4653H16.4663ZM6.45829 10.534L11.4533 17.082L10.4453 18.116C10.1943 18.373 9.94529 18.633 9.68929 18.886C9.61729 18.958 9.61429 19.013 9.65829 19.101C10.2098 20.2204 11.0453 21.1755 12.0813 21.871C12.1163 21.893 12.1513 21.916 12.1843 21.941C12.1903 21.945 12.1933 21.955 12.2113 21.989L8.95029 24.435C7.00029 22.756 5.73529 20.687 5.22729 18.178C4.68329 15.492 5.12429 12.954 6.45929 10.534H6.45829ZM20.6333 14.904L21.5513 13.951C21.8073 13.685 22.0593 13.416 22.3213 13.157C22.4033 13.076 22.4023 13.015 22.3543 12.919C21.7992 11.7862 20.9539 10.8208 19.9043 10.121C19.8673 10.096 19.8313 10.069 19.7683 10.024L23.0473 7.564C24.9043 9.154 26.1373 11.114 26.7033 13.479C27.4103 16.431 26.7803 19.351 25.5563 21.407L20.6333 14.904Z" fill="white"/>
</svg>
