<svg width="32" height="32" viewBox="0 0 32 32" fill="none" xmlns="http://www.w3.org/2000/svg">
<path d="M16 32C24.8366 32 32 24.8366 32 16C32 7.16344 24.8366 0 16 0C7.16344 0 0 7.16344 0 16C0 24.8366 7.16344 32 16 32Z" fill="#FFAA5C"/>
<path fill-rule="evenodd" clip-rule="evenodd" d="M26 14.717C25.996 14.756 25.99 14.794 25.99 14.833C25.985 16.053 25.98 17.274 25.978 18.495L25.974 21.002C25.974 21.082 25.967 21.162 25.962 21.262C25.918 21.242 25.886 21.229 25.856 21.212L21.202 18.617C21.119 18.571 21.112 18.53 21.152 18.448C21.945 16.82 21.948 15.188 21.167 13.556C21.13 13.478 21.137 13.439 21.217 13.395L25.873 10.782C25.912 10.76 25.957 10.749 26 10.733V14.717ZM16.3 5C16.378 5.047 16.455 5.097 16.535 5.142L25.584 10.227C25.618 10.246 25.65 10.267 25.697 10.295C25.655 10.322 25.627 10.342 25.596 10.359L20.978 12.938C20.857 13.005 20.858 13.004 20.778 12.89C19.754 11.455 18.35 10.635 16.566 10.427C16.5129 10.4204 16.4595 10.417 16.406 10.417C16.312 10.417 16.276 10.381 16.276 10.282C16.275 9.269 16.269 8.255 16.266 7.242L16.263 5.143C16.263 5.095 16.274 5.048 16.28 5H16.3ZM15.68 27C15.646 26.975 15.615 26.947 15.58 26.927L6.463 21.802C6.42 21.778 6.379 21.752 6.32 21.718C6.36 21.691 6.386 21.67 6.416 21.653C7.946 20.798 9.476 19.944 11.006 19.087C11.098 19.035 11.141 19.055 11.198 19.134C12.154 20.46 13.46 21.244 15.099 21.511C15.266 21.538 15.437 21.551 15.606 21.559C15.702 21.563 15.74 21.589 15.74 21.689C15.739 22.586 15.743 23.483 15.746 24.379L15.751 26.925C15.751 26.95 15.744 26.975 15.74 27H15.68ZM6 20.45C6.005 20.42 6.015 20.389 6.016 20.358L6.02 19.095L6.027 16.268L6.04 11.809L6.045 10.848C6.045 10.82 6.049 10.792 6.052 10.747C6.096 10.768 6.128 10.781 6.158 10.798C7.68 11.648 9.201 12.498 10.725 13.346C10.814 13.395 10.826 13.433 10.782 13.526C9.982 15.167 9.986 16.81 10.782 18.453C10.847 18.585 10.849 18.584 10.719 18.657C9.191 19.517 7.663 20.375 6.134 21.232C6.095 21.254 6.044 21.256 6 21.267V20.451V20.45ZM19.473 19.52C19.636 18.947 19.689 18.37 19.653 17.784C19.611 17.066 19.433 16.384 19.059 15.758C18.629 15.036 18.007 14.513 17.249 14.133C17.049 14.032 17.027 14.083 17.146 13.833C17.415 13.27 17.886 12.92 18.466 12.696C18.8699 12.5487 19.2944 12.4657 19.724 12.45C19.7846 12.4525 19.8419 12.4783 19.884 12.522C20.6046 13.2732 21.0724 14.2309 21.222 15.261C21.605 17.868 19.906 20.315 17.268 20.963C14.341 21.683 11.372 19.881 10.764 17.019C10.196 14.34 11.912 11.749 14.472 11.065C16.395 10.552 18.101 10.961 19.594 12.235L19.763 12.379L19.742 12.411C19.595 12.393 19.449 12.371 19.302 12.357C18.389 12.271 17.491 12.331 16.62 12.63C15.551 12.9839 14.6552 13.7286 14.112 14.715C14.032 14.857 14.026 14.858 13.872 14.805C13.6746 14.7357 13.4966 14.6202 13.353 14.468C13.0684 14.1729 12.8535 13.8179 12.724 13.429C12.607 13.089 12.521 12.739 12.421 12.394C12.413 12.367 12.407 12.339 12.383 12.31C12.369 12.39 12.353 12.468 12.341 12.548C12.329 12.628 12.319 12.708 12.311 12.788C12.216 13.682 12.267 14.562 12.576 15.415C12.96 16.479 13.683 17.245 14.739 17.711C14.877 17.772 14.877 17.773 14.803 17.899C14.412 18.563 13.799 18.897 13.042 19.011C12.69 19.064 12.338 19.043 11.979 19.017C12.012 19.03 12.044 19.045 12.077 19.057C13.807 19.652 15.707 19.385 17.138 17.871C17.4978 17.4857 17.8125 17.0606 18.076 16.604C18.144 16.486 18.149 16.485 18.259 16.565C18.728 16.907 19.007 17.375 19.199 17.9C19.378 18.383 19.449 18.885 19.466 19.396C19.467 19.437 19.47 19.478 19.473 19.519V19.52ZM25.741 21.732L16.278 26.981C16.273 26.926 16.266 26.892 16.266 26.859C16.266 25.129 16.266 23.399 16.264 21.669C16.264 21.592 16.287 21.564 16.37 21.557C18.21 21.405 19.669 20.599 20.74 19.134C20.833 19.005 20.832 19.004 20.97 19.081L25.613 21.656C25.649 21.676 25.685 21.699 25.741 21.732ZM15.739 5.036C15.742 5.092 15.745 5.126 15.745 5.16C15.745 6.867 15.745 8.574 15.747 10.28C15.747 10.36 15.735 10.4 15.637 10.407C13.759 10.543 12.274 11.356 11.186 12.85C11.1 12.968 11.102 12.969 10.976 12.899L6.455 10.389C6.402 10.359 6.353 10.323 6.302 10.289C6.354 10.253 6.402 10.212 6.458 10.181L15.568 5.125C15.619 5.097 15.671 5.072 15.738 5.036H15.739Z" fill="white"/>
</svg>
