<svg width="32" height="32" viewBox="0 0 32 32" fill="none" xmlns="http://www.w3.org/2000/svg">
<path d="M16 32C24.8366 32 32 24.8366 32 16C32 7.16344 24.8366 0 16 0C7.16344 0 0 7.16344 0 16C0 24.8366 7.16344 32 16 32Z" fill="#2B2E7F"/>
<path d="M17.0574 19.0284V13.1684H17.8274C20.3724 13.1684 20.9994 10.7954 20.9994 10.7954H14.3164C11.1444 10.7954 10.6064 13.1694 10.6064 13.1694H14.5494V21.9864C14.5494 21.9864 17.0574 21.2334 17.0574 19.0284Z" fill="white"/>
<path d="M24.3952 23.5944C26.6432 21.2584 27.5052 18.0144 26.6962 14.9114C26.2693 13.2877 25.4126 11.8092 24.2162 10.6314C24.1082 10.5254 24.0002 10.4174 23.8742 10.3114L23.7662 10.2044C23.6929 10.1337 23.6147 10.0682 23.5322 10.0084L23.3882 9.90139L23.1732 9.74139L23.0462 9.65139C22.9604 9.59518 22.8767 9.5358 22.7952 9.47339L22.6322 9.36739C22.565 9.31851 22.493 9.27662 22.4172 9.24239L22.2552 9.13539C22.1832 9.09939 22.1112 9.04539 22.0392 9.01039L21.8772 8.92039C21.8052 8.88539 21.7332 8.84939 21.6432 8.81439L21.5882 8.79639C21.7862 8.95639 21.9832 9.13539 22.1632 9.31339C22.9837 10.1268 23.6349 11.0947 24.0793 12.1612C24.5237 13.2276 24.7525 14.3715 24.7525 15.5269C24.7525 16.6822 24.5237 17.8261 24.0793 18.8926C23.6349 19.959 22.9837 20.9269 22.1632 21.7404C17.7772 26.0904 10.6582 26.0904 6.27023 21.7404C6.10823 21.5804 5.96423 21.4204 5.80323 21.2604L5.67723 21.1174C5.58301 21.0078 5.49294 20.8947 5.40723 20.7784C5.97126 21.8845 6.70554 22.8952 7.58323 23.7734C12.1672 28.3194 19.6092 28.3194 24.1932 23.7734C24.2731 23.7292 24.3421 23.6677 24.3952 23.5934V23.5944Z" fill="white"/>
<path d="M10.4003 22.3862C10.2002 22.2231 10.008 22.0506 9.82427 21.8692C9.00299 21.055 8.35111 20.0862 7.90624 19.0187C7.46138 17.9512 7.23233 16.8062 7.23233 15.6497C7.23233 14.4933 7.46138 13.3482 7.90624 12.2807C8.35111 11.2133 9.00299 10.2444 9.82427 9.43023C14.2153 5.07623 21.3403 5.07623 25.7313 9.43023C26.0373 9.73423 26.3243 10.0552 26.5943 10.3942C26.0296 9.29272 25.2949 8.28706 24.4173 7.41423C19.8293 2.86323 12.3793 2.86323 7.79127 7.41423C7.73727 7.46723 7.68327 7.53923 7.61127 7.59223C4.57027 10.7692 4.15627 15.5162 6.58627 19.1212C7.54027 20.5112 8.87027 21.6712 10.4003 22.3862Z" fill="white"/>
</svg>
