<svg width="32" height="32" viewBox="0 0 32 32" fill="none" xmlns="http://www.w3.org/2000/svg">
<path d="M16 32C24.8366 32 32 24.8366 32 16C32 7.16344 24.8366 0 16 0C7.16344 0 0 7.16344 0 16C0 24.8366 7.16344 32 16 32Z" fill="#DF1A14"/>
<path d="M14.8597 11.527C15.1667 11.43 15.5157 11.603 15.6427 11.905C15.9497 12.607 16.2247 13.33 16.5427 14.031C16.7327 14.452 17.3797 14.506 17.6327 14.118C18.0567 13.416 18.3957 12.671 18.8087 11.958C19.1477 11.516 19.7617 11.732 20.2277 11.689C20.7147 11.657 21.0747 12.272 20.7987 12.693C19.4647 15.186 18.1207 17.669 16.7867 20.163C16.5637 20.616 15.8337 20.616 15.6327 20.141C15.3357 19.418 15.1027 18.662 14.8167 17.939C14.6467 17.464 13.9167 17.389 13.6737 17.842C13.2607 18.587 12.9007 19.364 12.4877 20.098C12.2867 20.432 11.8627 20.378 11.5347 20.378C11.2167 20.357 10.8357 20.454 10.5927 20.184C10.4863 20.0738 10.4192 19.9316 10.4018 19.7793C10.3845 19.6271 10.4178 19.4734 10.4967 19.342C11.7467 16.978 13.0167 14.604 14.2667 12.218C14.4147 11.948 14.5417 11.613 14.8597 11.528V11.527ZM10.4967 11.711C10.8671 11.6894 11.2384 11.6894 11.6087 11.711C12.0217 11.754 12.2867 12.283 12.0857 12.661C10.8457 15.003 9.59675 17.334 8.35875 19.666C8.20975 19.926 8.09375 20.271 7.77575 20.356C7.40575 20.411 7.02475 20.379 6.65375 20.379C6.19875 20.4 5.81775 19.806 6.09275 19.407C7.38475 16.989 8.67575 14.56 9.96775 12.132C10.0737 11.927 10.2537 11.722 10.4977 11.711H10.4967ZM23.6367 11.732C24.0387 11.613 24.4627 11.7 24.8757 11.667C25.1927 11.678 25.5957 11.613 25.8287 11.894C26.1147 12.186 26.0287 12.736 25.6687 12.92C24.9387 13.384 24.2187 13.88 23.4787 14.334C23.0117 14.657 22.3237 14.107 22.5247 13.567C22.7047 13.135 22.9587 12.737 23.1607 12.315C23.2767 12.099 23.3827 11.819 23.6367 11.732ZM20.1317 18.187C20.3437 18.057 20.6087 18.101 20.8097 18.209C21.3707 18.489 21.9317 18.792 22.5037 19.062C22.7477 19.17 23.0017 19.375 23.0117 19.666C23.0547 20.055 22.7257 20.432 22.3447 20.4C21.5297 20.4 20.7147 20.41 19.9097 20.4C19.5077 20.4 19.1897 19.925 19.3377 19.537C19.4437 19.256 19.6027 19.007 19.7297 18.737C19.8247 18.533 19.9197 18.284 20.1317 18.187Z" fill="white"/>
</svg>
