<svg width="32" height="32" viewBox="0 0 32 32" fill="none" xmlns="http://www.w3.org/2000/svg">
<path d="M16 32C24.8366 32 32 24.8366 32 16C32 7.16344 24.8366 0 16 0C7.16344 0 0 7.16344 0 16C0 24.8366 7.16344 32 16 32Z" fill="#E6007A"/>
<path d="M16.2721 6.625C12.5651 6.625 9.53613 9.637 9.53613 13.361C9.53613 14.11 9.66013 14.841 9.89213 15.553C9.97426 15.7881 10.1454 15.9815 10.3687 16.0916C10.592 16.2018 10.8496 16.2199 11.0861 16.142C11.321 16.0597 11.5142 15.8885 11.6242 15.6652C11.7341 15.4419 11.7521 15.1844 11.6741 14.948C11.4786 14.3929 11.3881 13.8062 11.4071 13.218C11.4781 10.706 13.5101 8.638 16.0231 8.514C16.6814 8.47941 17.3398 8.5791 17.9583 8.80698C18.5768 9.03487 19.1425 9.38619 19.621 9.83959C20.0995 10.293 20.4807 10.839 20.7415 11.4444C21.0023 12.0497 21.1373 12.7018 21.1381 13.361C21.1367 14.6007 20.6617 15.7929 19.8104 16.6941C18.9591 17.5952 17.7957 18.1371 16.5581 18.209C16.5581 18.209 15.6131 18.262 15.1501 18.334C14.9181 18.369 14.7401 18.405 14.6151 18.423C14.5611 18.441 14.5081 18.387 14.5251 18.333L14.6861 17.55L15.5591 13.522C15.61 13.2812 15.5638 13.03 15.4304 12.823C15.2971 12.6161 15.0875 12.4702 14.8471 12.417C14.6061 12.3661 14.3548 12.4125 14.1479 12.5461C13.9409 12.6796 13.7951 12.8895 13.7421 13.13C13.7421 13.13 11.6391 22.932 11.6211 23.039C11.5703 23.28 11.6167 23.5313 11.7502 23.7383C11.8837 23.9452 12.0936 24.091 12.3341 24.144C12.5751 24.1949 12.8264 24.1485 13.0334 24.0149C13.2403 23.8814 13.3862 23.6715 13.4391 23.431C13.4561 23.324 13.7421 22.023 13.7421 22.023C13.8434 21.546 14.0894 21.1119 14.4467 20.7801C14.8039 20.4482 15.255 20.2348 15.7381 20.169C16.0877 20.1307 16.4381 20.101 16.7891 20.08C18.4811 19.9481 20.0612 19.1832 21.2141 17.9378C22.367 16.6924 23.008 15.0581 23.0091 13.361C23.0091 9.637 19.9791 6.625 16.2721 6.625ZM16.7531 22.13C16.608 22.0987 16.4582 22.0965 16.3122 22.1236C16.1662 22.1506 16.0271 22.2063 15.9028 22.2875C15.7786 22.3687 15.6717 22.4738 15.5883 22.5966C15.5049 22.7194 15.4467 22.8575 15.4171 23.003C15.2921 23.609 15.6671 24.215 16.2901 24.34C16.4354 24.3714 16.5854 24.3737 16.7315 24.3467C16.8777 24.3196 17.017 24.2638 17.1414 24.1825C17.2657 24.1012 17.3727 23.996 17.4561 23.873C17.5395 23.75 17.5976 23.6117 17.6271 23.466C17.7511 22.843 17.3771 22.254 16.7531 22.13Z" fill="white"/>
</svg>
