<svg width="32" height="32" viewBox="0 0 32 32" fill="none" xmlns="http://www.w3.org/2000/svg">
<path d="M16 32C24.8366 32 32 24.8366 32 16C32 7.16344 24.8366 0 16 0C7.16344 0 0 7.16344 0 16C0 24.8366 7.16344 32 16 32Z" fill="#786DBC"/>
<path d="M15.9314 10.771L14.3024 9.13802C14.0831 8.92824 13.9561 8.63991 13.9493 8.33648C13.9425 8.03305 14.0566 7.73936 14.2664 7.52002C14.4762 7.30069 14.7645 7.17368 15.0679 7.16692C15.3714 7.16017 15.6651 7.27424 15.8844 7.48402L15.9224 7.52202L19.5584 11.158C20.0054 11.605 20.0054 12.328 19.5584 12.775L15.9184 16.411C15.7024 16.6171 15.4144 16.7305 15.116 16.727C14.8175 16.7235 14.5322 16.6033 14.3212 16.3923C14.1101 16.1812 13.99 15.8959 13.9865 15.5975C13.983 15.299 14.0963 15.011 14.3024 14.795L16.0094 13.088C14.8593 12.885 13.6747 13.0405 12.6159 13.5334C11.5572 14.0262 10.6756 14.8327 10.0905 15.8434C9.50551 16.8542 9.24536 18.0204 9.34535 19.1839C9.44534 20.3475 9.90063 21.4522 10.6495 22.3483C11.3984 23.2444 12.4047 23.8886 13.532 24.1936C14.6593 24.4987 15.8531 24.4497 16.9517 24.0535C18.0503 23.6573 19.0005 22.9329 19.6735 21.9785C20.3466 21.0241 20.7099 19.8859 20.7144 18.718V6.14202C20.7144 5.83888 20.8348 5.54815 21.0492 5.3338C21.2635 5.11945 21.5543 4.99902 21.8574 4.99902C22.1605 4.99902 22.4513 5.11945 22.6656 5.3338C22.88 5.54815 23.0004 5.83888 23.0004 6.14202V18.871C22.9685 20.4859 22.4485 22.0532 21.5089 23.367C20.5693 24.6807 19.254 25.6792 17.7361 26.2312C16.2182 26.7832 14.5688 26.8629 13.0048 26.4597C11.4408 26.0564 10.0354 25.1892 8.97361 23.9721C7.91181 22.7551 7.24327 21.2451 7.05595 19.6408C6.86862 18.0365 7.17127 16.4132 7.9241 14.9842C8.67692 13.5552 9.84466 12.3875 11.2737 11.6348C12.7027 10.8821 14.3262 10.5796 15.9304 10.767L15.9314 10.771Z" fill="white"/>
</svg>
