<svg width="32" height="32" viewBox="0 0 32 32" fill="none" xmlns="http://www.w3.org/2000/svg">
<path d="M16 32C24.8366 32 32 24.8366 32 16C32 7.16344 24.8366 0 16 0C7.16344 0 0 7.16344 0 16C0 24.8366 7.16344 32 16 32Z" fill="#0082C6"/>
<path d="M18.046 15.1032C18.0251 15.099 18.0034 15.1006 17.9833 15.1078C17.9632 15.1151 17.9454 15.1276 17.932 15.1442C17.9228 15.1558 17.9161 15.1691 17.9122 15.1834C17.9084 15.1977 17.9075 15.2126 17.9097 15.2272C17.9118 15.2418 17.917 15.2559 17.9248 15.2684C17.9326 15.281 17.9429 15.2918 17.955 15.3002C22.334 18.4782 16.101 25.7542 4 18.0112C14.26 27.6662 28.547 17.0012 18.046 15.1032ZM12.202 10.8552C3.116 13.7622 13.525 20.6182 14.428 17.1552C14.432 17.1408 14.433 17.1256 14.431 17.1108C14.4289 17.0959 14.4239 17.0816 14.4161 17.0688C14.4083 17.056 14.398 17.0449 14.3858 17.0362C14.3735 17.0275 14.3597 17.0214 14.345 17.0182C14.324 17.0128 14.3018 17.0131 14.281 17.0192C12.944 17.4542 5.58 15.3952 12.201 10.8552H12.202ZM28 12.6022C20.133 6.99223 5.372 11.6182 12.987 15.5792C13.0142 15.593 13.0457 15.5958 13.0749 15.5871C13.1041 15.5783 13.1288 15.5587 13.144 15.5322C13.152 15.5172 13.1565 15.5006 13.157 15.4836C13.1575 15.4666 13.1541 15.4497 13.147 15.4342C10.05 8.89023 25.781 10.8802 28 12.6022ZM21.472 20.7532C25.631 18.8632 22.249 12.3922 16.748 13.6412C16.7185 13.6479 16.6875 13.6427 16.6617 13.6268C16.6359 13.6109 16.6174 13.5856 16.61 13.5562C16.6053 13.536 16.6065 13.5148 16.6136 13.4953C16.6207 13.4757 16.6334 13.4587 16.65 13.4462C20.93 10.2302 28.964 17.7382 21.472 20.7532Z" fill="white"/>
</svg>
