<svg width="32" height="32" viewBox="0 0 32 32" fill="none" xmlns="http://www.w3.org/2000/svg">
<path d="M16 32C24.8366 32 32 24.8366 32 16C32 7.16344 24.8366 0 16 0C7.16344 0 0 7.16344 0 16C0 24.8366 7.16344 32 16 32Z" fill="#1C1C1C"/>
<path d="M15.7148 13.4332C16.0208 13.5582 16.3268 13.4952 16.5718 13.4332C16.7558 14.0572 17.0618 14.6182 17.3668 14.8672C17.1838 16.4272 16.6328 16.9882 16.0208 16.9882C15.1648 16.9882 14.7358 15.1792 14.7358 14.8682C14.9198 14.7432 15.4708 14.3682 15.7158 13.4332H15.7148ZM14.7968 18.9222C15.1648 18.6102 15.4088 18.1112 15.7148 17.3002C15.9598 17.4252 16.3268 17.3622 16.5718 17.3002C16.7558 18.1732 16.9388 18.7352 17.3668 18.9842C17.2448 19.9822 16.6328 20.6682 16.0818 20.6682C15.2868 20.6682 14.9198 19.4212 14.7968 18.9222ZM9.90179 20.8552C10.1468 20.5432 10.1468 20.0452 10.0248 19.1092C10.2078 19.1712 10.3918 19.1712 10.5148 19.1092C10.8808 19.9822 11.1868 20.5432 11.6768 20.8552C11.7378 21.2922 11.6768 21.7912 11.4928 21.8532C10.8198 22.1652 10.2078 21.3542 9.90279 20.8552H9.90179ZM7.33179 19.1712C7.45479 19.1712 7.51579 19.1712 7.63779 19.2342C8.06679 20.3562 8.80079 20.9802 8.80079 20.9802C9.04579 21.4792 9.16779 21.9782 8.98379 21.9782C8.43379 22.0402 8.00479 21.6662 7.57679 20.8552C7.63779 20.6682 7.57679 20.5432 7.33179 19.1712ZM5.67979 19.1712C6.29179 21.7912 7.45479 21.6662 7.39379 21.5412C7.14879 21.1052 6.90379 20.9182 6.65879 20.7312C6.10879 20.1692 5.67979 18.9842 5.67979 19.1712ZM13.1448 20.8552C13.5738 20.5432 13.6348 19.8572 13.6958 18.9852C13.9408 19.0462 14.2458 19.0462 14.4298 18.9852C14.5528 19.5452 14.7358 20.3562 15.2868 20.7312C15.2258 21.4172 15.0418 21.7912 14.6138 21.8532C14.3078 21.9782 13.4508 21.9782 13.1448 20.8552ZM7.88279 18.9222C8.12779 18.6102 8.18879 18.1112 8.24979 17.4252C8.43379 17.4872 8.67879 17.4872 8.79979 17.4252C8.98379 18.2352 9.28979 18.7352 9.65779 18.9852C9.77979 20.2942 9.65779 20.7312 9.41279 20.7312C8.86279 20.7312 8.12779 19.5452 7.88279 18.9212V18.9222ZM5.98579 18.9222C5.98579 18.7972 6.04679 17.9862 6.10879 17.4252H6.35279C6.65879 18.6102 7.08779 18.9852 7.08779 18.9852C7.39379 20.4192 7.39379 20.7932 7.14779 20.6682C6.59779 20.4812 6.16979 19.4212 5.98579 18.9222ZM10.8808 18.9222C11.1868 18.6722 11.3708 18.2362 11.4928 17.4252C11.7988 17.5492 12.1048 17.4872 12.2888 17.4252C12.4718 18.2352 12.7788 18.7352 13.2068 18.9852C13.2068 19.6702 13.1448 20.7932 12.2888 20.6052C11.5538 20.4192 10.9428 19.1712 10.8808 18.9222ZM10.3308 18.7352C9.59579 18.7352 9.16779 17.5492 9.16779 17.1752C9.53479 16.8012 9.71779 16.1152 9.90179 14.9302C10.0248 14.9922 10.2078 14.9922 10.3918 14.9302C10.4528 16.2402 10.8198 16.8012 11.1258 17.1132C11.0038 18.1732 10.6978 18.7352 10.3308 18.7352ZM6.53679 17.1752C6.65879 16.9252 6.65879 16.8632 7.02679 14.9302H7.33179C7.33179 16.2402 7.69879 16.8632 7.88279 17.1132C7.82179 17.7992 7.94379 18.7352 7.39279 18.7352C7.14879 18.7352 6.84279 18.4232 6.53679 17.1752ZM5.31279 14.9922C5.49679 15.0552 5.37379 16.6762 5.61879 17.2382C5.61879 17.2382 5.61879 18.7972 5.49679 18.6722C4.57879 17.5492 5.19079 14.9302 5.31279 14.9922ZM12.6558 17.1752C13.0838 16.8632 13.3288 16.1772 13.6958 14.9302C13.9408 14.9922 14.2458 14.9922 14.4298 14.9302C14.5528 15.8652 14.7968 16.5522 15.2868 17.0502C15.1648 18.0482 14.6748 18.7352 14.0628 18.7352C13.0838 18.7352 12.7168 17.3622 12.6558 17.1752ZM7.63779 14.7432C8.12779 14.5562 8.43379 13.4952 8.49479 13.3702C8.56212 13.4306 8.64936 13.464 8.73979 13.464C8.83022 13.464 8.91746 13.4306 8.98479 13.3702C8.98479 14.1812 9.22879 14.5562 9.41279 14.6802C9.22879 15.7402 8.98379 16.9882 8.43279 16.9882C7.94379 16.9882 7.69879 15.8652 7.63779 14.7432ZM6.10779 17.0502C5.67979 17.0502 5.55779 15.4292 5.67979 14.7432C5.67979 14.7432 6.04679 14.1812 6.29179 13.3702C6.35279 13.3702 6.47579 13.4332 6.53679 13.3702C6.47579 14.1812 6.59779 14.5562 6.71979 14.7432C6.71979 14.7432 6.41479 17.0502 6.10879 17.0502H6.10779ZM10.7588 14.7432C11.0038 14.6182 11.4928 13.9322 11.7378 13.3082C11.9828 13.4332 12.2278 13.4332 12.5328 13.3702C12.6558 14.0572 12.8388 14.4932 13.2678 14.7432C13.0838 15.8652 12.7168 16.9882 11.9218 16.9882C11.1868 16.9882 10.8198 15.4912 10.7588 14.7432ZM11.3088 13.0592C10.9428 14.0572 10.5748 14.6182 10.0858 14.6182C9.47379 14.6182 9.41279 13.3082 9.41279 13.1832C9.90279 12.8092 10.2688 12.0612 10.5748 11.4372H11.0038C10.8808 12.3722 11.1258 12.8092 11.3098 13.0592H11.3088ZM8.31079 11.4992C8.00479 12.3722 8.12779 12.8092 8.25079 13.1212C7.76079 14.3682 7.51579 14.6812 7.14879 14.6812C6.78179 14.6182 6.78179 13.8692 6.90379 13.2462C7.27079 12.9962 8.06679 11.5622 8.06679 11.4992H8.31079ZM6.53679 11.5622C6.71979 11.4992 6.04679 12.4352 6.10879 12.8722C6.16879 13.4952 5.43479 14.5562 5.37379 14.4932C5.12979 14.4312 5.61879 12.1852 6.53679 11.5622ZM15.2258 13.0592C15.0418 13.7452 14.7968 14.6182 13.7568 14.6182C13.2068 14.5562 12.9008 13.8082 12.7778 13.1832C13.3898 12.7472 13.6958 11.9982 13.8798 11.4372C14.0628 11.4992 14.3698 11.4992 14.5528 11.4372C14.6748 12.3722 14.9808 12.8092 15.2258 13.0592ZM6.90379 11.3742C7.02579 11.3122 7.82179 10.2522 8.24979 10.2522C8.49479 10.3142 7.82179 10.9382 7.88279 11.2502C7.69879 11.5622 6.84279 13.1202 6.53679 13.1202C6.29179 13.1202 6.29179 12.3102 6.90379 11.3742ZM21.9568 19.1092C21.8948 20.0442 21.8948 20.5432 22.0788 20.8552C21.8338 21.3552 21.1608 22.1032 20.4888 21.8532C20.2428 21.7912 20.2428 21.2922 20.3038 20.8552C20.8548 20.5432 21.2218 19.9202 21.4668 19.1092C21.5888 19.1712 21.7728 19.1712 21.9568 19.1092ZM24.4038 19.1092C24.4648 19.1712 24.5878 19.1712 24.7098 19.0462C24.4648 20.4192 24.4038 20.5432 24.4648 20.7312C24.0368 21.5412 23.6088 21.8532 23.0578 21.8532C22.8128 21.8532 22.9358 21.4172 23.2418 20.8552C23.2418 20.8552 23.9758 20.2322 24.4038 19.1092ZM25.3838 20.7312C25.1378 20.9802 24.8938 21.1052 24.7098 21.5412C24.6488 21.6662 25.8118 21.7912 26.4228 19.1712C26.3008 18.9842 25.9328 20.1692 25.3828 20.7312H25.3838ZM18.3458 19.1092C18.3458 19.8572 18.5298 20.5432 18.8968 20.9802C18.5908 22.0402 17.7348 22.0402 17.4288 21.9782C16.9998 21.8532 16.8778 21.4792 16.7558 20.8552C17.2448 20.4192 17.4898 19.6702 17.6118 19.1092C17.8568 19.1712 18.1018 19.1712 18.3458 19.1092ZM23.8528 17.3622C23.8528 18.1112 23.9148 18.6102 24.2208 18.8592C23.9758 19.4832 23.1808 20.6692 22.6908 20.6692C22.4458 20.6692 22.3238 20.2322 22.4458 18.9222C22.8128 18.6722 23.1188 18.0482 23.3028 17.3622C23.3868 17.4094 23.4815 17.4341 23.5778 17.4341C23.6741 17.4341 23.7688 17.4094 23.8528 17.3622ZM26.0558 17.4872C26.0558 17.9872 26.0558 18.7972 26.1788 18.9842C25.9338 19.4842 25.5058 20.5442 25.0158 20.7312C24.7098 20.7932 24.7708 20.4192 25.0768 19.0462C25.0768 19.0462 25.5058 18.6102 25.8118 17.4872H26.0558ZM20.6098 17.3622C20.7328 18.2362 20.8548 18.6722 21.2218 18.8592C21.1618 19.1712 20.4878 20.4192 19.8148 20.5432C18.9578 20.7312 18.8968 19.5452 18.8968 18.9222C19.3248 18.6722 19.6308 18.1112 19.8148 17.3622C19.9988 17.4252 20.3048 17.4872 20.6098 17.3622ZM22.9358 17.1752C22.8738 17.5492 22.3848 18.7352 21.7728 18.7352C21.4058 18.7352 21.0998 18.1112 20.9778 17.1132C21.2838 16.8632 21.6508 16.2402 21.7118 14.9302C21.8692 14.9927 22.0444 14.9927 22.2018 14.9302C22.4458 16.0532 22.6298 16.8012 22.9358 17.1752ZM25.0768 14.9302C25.3828 16.8632 25.4438 16.9262 25.5668 17.1752C25.2608 18.3602 24.9548 18.7352 24.7098 18.7352C24.1598 18.7352 24.2818 17.7372 24.2198 17.1132C24.4648 16.8632 24.7708 16.2402 24.7708 14.9302C24.8938 14.9922 24.9548 14.9302 25.0768 14.9302ZM26.3618 17.1752C26.6678 16.6762 26.5458 15.0552 26.6678 14.9302C26.8518 14.8672 27.4018 17.6122 26.4848 18.6102C26.3618 18.7352 26.3618 17.1752 26.3618 17.1752ZM18.5298 14.9302C18.7138 16.1772 19.0198 16.8632 19.5698 17.1752C19.5088 17.3622 19.0198 18.7352 18.1628 18.7352C17.4898 18.7972 17.1228 17.9862 16.9388 17.0502C17.3668 16.5522 17.6728 15.8652 17.7958 14.9302C17.9178 14.9922 18.2238 14.9922 18.5298 14.9302ZM23.6088 13.3702C23.6088 13.4952 23.9758 14.5562 24.4038 14.8672C24.4038 15.9272 24.0978 17.1132 23.6088 17.1132C23.0578 17.1132 22.8128 15.9282 22.6288 14.8052C22.8128 14.6182 23.0578 14.1812 23.0578 13.4332C23.1475 13.469 23.2447 13.4819 23.3407 13.4709C23.4367 13.4599 23.5284 13.4253 23.6078 13.3702H23.6088ZM26.3618 14.7432C26.4228 15.4292 26.3008 17.0502 25.9948 16.9882C25.6888 16.9882 25.3828 14.6802 25.3828 14.6802C25.5058 14.4932 25.6278 14.0572 25.5668 13.3702C25.6004 13.4005 25.644 13.4173 25.6893 13.4173C25.7345 13.4173 25.7782 13.4005 25.8118 13.3702C26.0558 14.1812 26.3618 14.7432 26.3618 14.7432ZM20.3658 13.3702C20.6098 13.9322 21.0388 14.6182 21.4058 14.8052C21.3448 15.5542 20.9158 17.0502 20.2428 17.0502C19.3248 17.1132 19.0808 15.9902 18.8968 14.8052C19.2638 14.5552 19.5088 14.0572 19.5698 13.4332C19.8148 13.4952 20.1198 13.4952 20.3658 13.3702ZM21.8958 14.5562C21.4668 14.6182 21.0998 14.0562 20.6718 13.0592C20.9158 12.8092 21.0998 12.3102 20.9778 11.4372C21.1608 11.4992 21.2838 11.4992 21.4058 11.4372C21.7728 12.1232 22.1398 12.8092 22.5678 13.1212C22.5678 13.3082 22.5078 14.5562 21.8948 14.5562H21.8958ZM23.8528 13.0592C23.9148 12.8092 24.0368 12.3722 23.6698 11.4372H23.9148C23.9148 11.4992 24.7708 12.9972 25.0768 13.1832C25.1998 13.8692 25.1998 14.5562 24.8318 14.6182C24.5268 14.6182 24.2818 14.3062 23.8528 13.0582V13.0592ZM25.9328 12.8712C25.9948 12.4352 25.3828 11.4992 25.4438 11.5612C26.4238 12.1852 26.7908 14.4312 26.6068 14.4932C26.5458 14.5562 25.8728 13.4332 25.9338 12.8712H25.9328ZM18.1628 14.5562C17.2448 14.6182 16.9998 13.7452 16.8168 13.0592C17.1228 12.8712 17.4288 12.3102 17.4898 11.4372C17.6728 11.4992 17.9798 11.4992 18.1628 11.4372C18.3458 11.9982 18.6528 12.7472 19.1418 13.1212C19.0808 13.8692 18.7748 14.4932 18.1618 14.5562H18.1628ZM23.8528 10.2522C24.1588 10.2522 25.0768 11.3122 25.1378 11.3742C25.8118 12.3722 25.8118 13.1212 25.5668 13.1212C25.1998 13.1212 24.4038 11.5612 24.2208 11.2502C24.2808 10.9382 23.6088 10.2522 23.8528 10.2522ZM10.2688 10.4392C10.1468 10.8132 10.0858 11.1872 10.2688 11.3742C9.90179 12.1232 9.28979 13.1842 8.73879 13.1212C8.12779 12.9962 8.61679 11.5612 8.67879 11.4372C9.04579 11.2502 9.90179 10.0652 10.2088 10.0652C10.3918 10.1272 10.2688 10.4392 10.2688 10.4392ZM13.1448 10.3772C13.1448 10.7512 13.2068 11.1872 13.5118 11.3742C13.2678 12.1232 12.7778 13.1212 11.9818 13.0592C11.4318 12.9962 11.3098 12.0612 11.4318 11.3742C11.9818 11.1872 12.4718 10.0022 12.8388 10.0022C13.1448 10.0022 13.1448 10.3142 13.1448 10.3772ZM21.8348 11.3742C21.9568 11.1872 21.9568 10.8142 21.8348 10.4392C21.8348 10.3772 21.7118 10.0652 21.8948 10.0652C22.2008 10.0652 23.0578 11.2502 23.4248 11.4372C23.4858 11.5622 23.9748 12.9972 23.3638 13.1212C22.7518 13.1832 22.2008 12.0612 21.8338 11.3742H21.8348ZM18.5908 11.3742C18.8358 11.1872 18.8968 10.7512 18.9578 10.3772C18.9578 10.3142 18.9578 10.0022 19.2638 10.0022C19.5698 9.94023 20.1818 11.1872 20.6718 11.3742C20.8548 12.1852 20.7318 12.9962 20.1208 13.0592C19.2638 13.1832 18.8358 12.0612 18.5908 11.3742ZM16.0208 10.0022C16.6328 10.0022 16.6328 11.1872 17.1228 11.4372C17.1228 11.7492 16.9388 13.1212 15.9598 13.1212C15.1028 13.1212 14.9198 11.9982 14.8588 11.4372C15.5928 11.1252 15.3488 10.0022 16.0208 10.0022Z" fill="white"/>
</svg>
