<svg width="32" height="32" viewBox="0 0 32 32" fill="none" xmlns="http://www.w3.org/2000/svg">
<path d="M16 32C24.8366 32 32 24.8366 32 16C32 7.16344 24.8366 0 16 0C7.16344 0 0 7.16344 0 16C0 24.8366 7.16344 32 16 32Z" fill="#2A2A2A"/>
<path d="M10 6.00598H18.111C18.209 5.97598 18.259 6.06598 18.323 6.11598C19.0875 6.83811 19.7734 7.63925 20.369 8.50598C21.2153 9.71808 21.8797 11.0475 22.341 12.452C22.823 13.936 23.051 15.506 22.991 17.066H18.856C18.8763 16.8586 18.8837 16.6502 18.878 16.442C18.835 14.971 18.381 13.528 17.666 12.25C16.901 10.881 15.833 9.69998 14.619 8.71898C13.297 7.64998 11.809 6.80598 10.259 6.12398C10.173 6.08398 10.083 6.05198 10 6.00598ZM13.002 13.333C14.3893 15.8427 15.7743 18.3537 17.157 20.866C17.49 21.472 17.827 22.076 18.157 22.683C16.436 23.785 14.72 24.897 13 26V13.333H13.002Z" fill="white"/>
</svg>
