<svg width="32" height="32" viewBox="0 0 32 32" fill="none" xmlns="http://www.w3.org/2000/svg">
<path d="M16 32C24.8366 32 32 24.8366 32 16C32 7.16344 24.8366 0 16 0C7.16344 0 0 7.16344 0 16C0 24.8366 7.16344 32 16 32Z" fill="#005FFF"/>
<path fill-rule="evenodd" clip-rule="evenodd" d="M13.701 18.007V13.19H14.826C15.069 13.19 15.266 13.384 15.266 13.623V14.039C15.266 14.491 15.658 14.879 16.115 14.879C16.572 14.879 16.919 14.491 16.919 14.039V13.639C16.919 13.391 17.122 13.189 17.374 13.189H18.627V14.407C18.627 14.655 18.423 14.857 18.172 14.857H17.747C17.529 14.8559 17.3194 14.9413 17.1642 15.0945C17.009 15.2476 16.9208 15.456 16.919 15.674C16.919 16.125 17.343 16.491 17.8 16.491H18.175C18.425 16.491 18.627 16.691 18.627 16.937V18.007H19.636C19.986 18.007 20.269 18.285 20.269 18.627V18.994C20.269 19.336 19.985 19.614 19.636 19.614H19.26C19.1777 19.6149 19.096 19.5996 19.0197 19.5689C18.9433 19.5383 18.8737 19.4928 18.8149 19.4353C18.7561 19.3777 18.7093 19.3091 18.677 19.2333C18.6448 19.1576 18.6278 19.0763 18.627 18.994V18.168H17.37C17.12 18.168 16.919 17.968 16.919 17.722V17.31C16.9148 17.0887 16.8245 16.8778 16.6673 16.7221C16.5101 16.5663 16.2983 16.478 16.077 16.476C15.62 16.476 15.265 16.876 15.265 17.351V17.725C15.265 17.97 15.065 18.168 14.817 18.168H13.701V18.994C13.701 19.336 13.418 19.614 13.068 19.614H12.693C12.6107 19.6149 12.529 19.5996 12.4527 19.5689C12.3763 19.5383 12.3067 19.4928 12.2479 19.4353C12.1891 19.3777 12.1423 19.3091 12.11 19.2333C12.0778 19.1576 12.0608 19.0763 12.06 18.994V18.627C12.06 18.285 12.343 18.007 12.693 18.007H13.701ZM19.636 13.029H18.626V12.043C18.626 11.701 18.91 11.423 19.26 11.423H19.636C19.986 11.423 20.269 11.701 20.269 12.043V12.41C20.269 12.752 19.985 13.03 19.636 13.03V13.029ZM13.701 13.029H12.693C12.6108 13.0299 12.5292 13.0146 12.4529 12.984C12.3766 12.9534 12.3071 12.9081 12.2483 12.8506C12.1895 12.7931 12.1426 12.7246 12.1103 12.649C12.078 12.5734 12.0609 12.4922 12.06 12.41V12.043C12.06 11.701 12.343 11.423 12.693 11.423H13.068C13.418 11.423 13.701 11.701 13.701 12.043V13.029ZM15.976 11.584C15.8937 11.5849 15.812 11.5696 15.7357 11.5389C15.6593 11.5083 15.5897 11.4628 15.5309 11.4053C15.4721 11.3477 15.4253 11.2791 15.393 11.2033C15.3608 11.1276 15.3438 11.0463 15.343 10.964V10.597C15.343 10.255 15.627 9.978 15.976 9.978H16.352C16.702 9.978 16.985 10.255 16.985 10.598V10.965C16.9841 11.0472 16.967 11.1284 16.9347 11.204C16.9024 11.2796 16.8555 11.3481 16.7967 11.4056C16.7379 11.4631 16.6684 11.5084 16.5921 11.539C16.5158 11.5696 16.4342 11.5849 16.352 11.584H15.976ZM15.976 21.38C15.8937 21.3809 15.812 21.3656 15.7357 21.3349C15.6593 21.3043 15.5897 21.2588 15.5309 21.2013C15.4721 21.1437 15.4253 21.0751 15.393 20.9993C15.3608 20.9236 15.3438 20.8423 15.343 20.76V20.393C15.343 20.051 15.627 19.773 15.976 19.773H16.352C16.702 19.773 16.985 20.051 16.985 20.393V20.761C16.9841 20.8432 16.967 20.9244 16.9347 21C16.9024 21.0756 16.8555 21.1441 16.7967 21.2016C16.7379 21.2591 16.6684 21.3044 16.5921 21.335C16.5158 21.3656 16.4342 21.3809 16.352 21.38H15.976ZM20.902 16.401C20.8198 16.4019 20.7382 16.3866 20.6619 16.356C20.5856 16.3254 20.5161 16.2801 20.4573 16.2226C20.3985 16.1651 20.3516 16.0966 20.3193 16.021C20.287 15.9454 20.2699 15.8642 20.269 15.782V15.415C20.269 15.073 20.552 14.795 20.902 14.795H21.277C21.627 14.795 21.91 15.073 21.91 15.415V15.782C21.91 16.124 21.627 16.402 21.277 16.402L20.902 16.401ZM10.887 16.401C10.8048 16.4019 10.7232 16.3866 10.6469 16.356C10.5706 16.3254 10.5011 16.2801 10.4423 16.2226C10.3835 16.1651 10.3366 16.0966 10.3043 16.021C10.272 15.9454 10.2549 15.8642 10.254 15.782V15.415C10.254 15.073 10.537 14.795 10.887 14.795H11.262C11.612 14.795 11.896 15.073 11.896 15.415V15.782C11.896 16.124 11.612 16.402 11.262 16.402L10.887 16.401ZM18.653 21.422C18.7931 21.365 18.9499 21.365 19.09 21.422C19.2301 21.479 19.3424 21.5884 19.403 21.727C19.4317 21.7954 19.4465 21.8689 19.4464 21.9432C19.4463 22.0174 19.4314 22.0909 19.4025 22.1593C19.3736 22.2276 19.3314 22.2896 19.2782 22.3414C19.2251 22.3932 19.1621 22.4339 19.093 22.461C18.953 22.518 18.7963 22.5182 18.6562 22.4614C18.5161 22.4046 18.4038 22.2954 18.343 22.157C18.3143 22.0885 18.2995 22.0149 18.2996 21.9406C18.2996 21.8663 18.3145 21.7928 18.3434 21.7243C18.3723 21.6558 18.4146 21.5938 18.4677 21.5419C18.5209 21.49 18.5839 21.4492 18.653 21.422ZM13.4 8.897C13.54 8.83995 13.6967 8.8398 13.8368 8.89658C13.9769 8.95336 14.0892 9.06259 14.15 9.201C14.1786 9.26946 14.1932 9.34294 14.1931 9.41713C14.1929 9.49133 14.178 9.56474 14.1491 9.63309C14.1202 9.70144 14.078 9.76334 14.025 9.81518C13.9719 9.86702 13.909 9.90775 13.84 9.935C13.6999 9.99236 13.5429 9.99267 13.4026 9.93587C13.2623 9.87907 13.1497 9.76965 13.089 9.631C13.0604 9.56254 13.0458 9.48906 13.0459 9.41487C13.0461 9.34067 13.061 9.26726 13.0899 9.19891C13.1188 9.13056 13.161 9.06866 13.214 9.01682C13.2671 8.96498 13.33 8.92425 13.399 8.897H13.4ZM21.954 13.325C21.9253 13.2564 21.9106 13.1828 21.9107 13.1084C21.9108 13.0341 21.9258 12.9605 21.9548 12.892C21.9838 12.8236 22.0261 12.7616 22.0794 12.7097C22.1327 12.6578 22.1958 12.6171 22.265 12.59C22.405 12.533 22.5617 12.5328 22.7018 12.5896C22.8419 12.6464 22.9542 12.7556 23.015 12.894C23.0437 12.9625 23.0585 13.0361 23.0584 13.1104C23.0584 13.1847 23.0435 13.2582 23.0146 13.3267C22.9857 13.3952 22.9434 13.4572 22.8903 13.5091C22.8371 13.561 22.7741 13.6018 22.705 13.629C22.565 13.686 22.4083 13.6862 22.2682 13.6294C22.1281 13.5726 22.0158 13.4634 21.955 13.325H21.954ZM9.312 18.463C9.28344 18.3945 9.26884 18.3209 9.26906 18.2467C9.26928 18.1725 9.28432 18.099 9.31328 18.0307C9.34224 17.9623 9.38455 17.9004 9.43774 17.8486C9.49092 17.7968 9.5539 17.7561 9.623 17.729C9.76307 17.6714 9.92014 17.6709 10.0605 17.7278C10.2009 17.7846 10.3135 17.8942 10.374 18.033C10.4026 18.1015 10.4172 18.1749 10.4171 18.2491C10.4169 18.3233 10.402 18.3967 10.3731 18.4651C10.3442 18.5334 10.302 18.5953 10.249 18.6472C10.1959 18.699 10.133 18.7398 10.064 18.767C9.92379 18.8247 9.76658 18.8251 9.62602 18.7683C9.48547 18.7115 9.37275 18.6019 9.312 18.463ZM9.312 12.894C9.37275 12.7553 9.4853 12.6459 9.62562 12.5891C9.76594 12.5323 9.92291 12.5326 10.063 12.59C10.1322 12.6171 10.1953 12.6578 10.2486 12.7097C10.3019 12.7616 10.3442 12.8236 10.3732 12.892C10.4022 12.9605 10.4172 13.0341 10.4173 13.1084C10.4174 13.1828 10.4027 13.2564 10.374 13.325C10.3132 13.4634 10.2009 13.5726 10.0608 13.6294C9.92069 13.6862 9.76398 13.686 9.624 13.629C9.55469 13.602 9.49149 13.5613 9.43812 13.5095C9.38475 13.4577 9.34227 13.3957 9.3132 13.3272C9.28413 13.2587 9.26905 13.1851 9.26885 13.1107C9.26864 13.0363 9.28331 12.9626 9.312 12.894ZM18.489 9.935C18.42 9.90775 18.3571 9.86702 18.304 9.81518C18.251 9.76334 18.2088 9.70144 18.1799 9.63309C18.151 9.56474 18.1361 9.49133 18.1359 9.41713C18.1358 9.34294 18.1504 9.26946 18.179 9.201C18.2398 9.06259 18.3521 8.95336 18.4922 8.89658C18.6323 8.8398 18.789 8.83995 18.929 8.897C18.998 8.92425 19.0609 8.96498 19.114 9.01682C19.167 9.06866 19.2092 9.13056 19.2381 9.19891C19.267 9.26726 19.2819 9.34067 19.2821 9.41487C19.2822 9.48906 19.2676 9.56254 19.239 9.631C19.1783 9.76941 19.0659 9.87864 18.9258 9.93542C18.7857 9.9922 18.629 9.99205 18.489 9.935ZM21.954 18.033C22.0145 17.8944 22.1269 17.785 22.2671 17.7282C22.4072 17.6714 22.564 17.6717 22.704 17.729C22.7732 17.7561 22.8363 17.7966 22.8896 17.8484C22.9429 17.9002 22.9853 17.962 23.0143 18.0304C23.0434 18.0988 23.0585 18.1722 23.0588 18.2465C23.0591 18.3208 23.0445 18.3944 23.016 18.463C22.9552 18.6014 22.8429 18.7106 22.7028 18.7674C22.5627 18.8242 22.406 18.824 22.266 18.767C22.1968 18.7399 22.1337 18.6994 22.0804 18.6476C22.0271 18.5958 21.9847 18.534 21.9557 18.4656C21.9266 18.3972 21.9115 18.3238 21.9112 18.2495C21.9109 18.1752 21.9255 18.1016 21.954 18.033ZM13.071 22.621C13.0019 22.5939 12.9389 22.5532 12.8858 22.5014C12.8326 22.4496 12.7904 22.3876 12.7615 22.3193C12.7326 22.2509 12.7177 22.1774 12.7176 22.1032C12.7175 22.0289 12.7323 21.9554 12.761 21.887C12.8217 21.7486 12.9341 21.6394 13.0742 21.5826C13.2143 21.5258 13.371 21.526 13.511 21.583C13.58 21.6102 13.6429 21.651 13.696 21.7028C13.749 21.7547 13.7912 21.8166 13.8201 21.8849C13.849 21.9533 13.8639 22.0267 13.8641 22.1009C13.8642 22.1751 13.8496 22.2485 13.821 22.317C13.7603 22.4554 13.6479 22.5646 13.5078 22.6214C13.3677 22.6782 13.211 22.678 13.071 22.621ZM21.514 20.991C21.5763 20.9309 21.6594 20.8973 21.746 20.8973C21.8326 20.8973 21.9157 20.9309 21.978 20.991C22.107 21.117 22.107 21.321 21.978 21.446C21.849 21.571 21.643 21.571 21.514 21.446C21.4836 21.4165 21.4594 21.3813 21.4429 21.3423C21.4263 21.3033 21.4178 21.2614 21.4178 21.219C21.4178 21.1766 21.4263 21.1347 21.4429 21.0957C21.4594 21.0567 21.4836 21.0215 21.514 20.992V20.991ZM10.35 9.912C10.478 9.787 10.686 9.787 10.814 9.912C10.942 10.037 10.942 10.242 10.814 10.367C10.7517 10.4271 10.6686 10.4607 10.582 10.4607C10.4954 10.4607 10.4123 10.4271 10.35 10.367C10.3196 10.3375 10.2954 10.3023 10.2789 10.2633C10.2623 10.2243 10.2538 10.1824 10.2538 10.14C10.2538 10.0976 10.2623 10.0557 10.2789 10.0167C10.2954 9.97774 10.3196 9.94246 10.35 9.913V9.912ZM21.514 10.367C21.4836 10.3375 21.4594 10.3023 21.4429 10.2633C21.4263 10.2243 21.4178 10.1824 21.4178 10.14C21.4178 10.0976 21.4263 10.0557 21.4429 10.0167C21.4594 9.97774 21.4836 9.94246 21.514 9.913C21.643 9.787 21.85 9.787 21.978 9.913C22.106 10.039 22.107 10.241 21.978 10.367C21.9157 10.4271 21.8326 10.4607 21.746 10.4607C21.6594 10.4607 21.5763 10.4271 21.514 10.367ZM10.35 21.446C10.3196 21.4165 10.2954 21.3813 10.2789 21.3423C10.2623 21.3033 10.2538 21.2614 10.2538 21.219C10.2538 21.1766 10.2623 21.1347 10.2789 21.0957C10.2954 21.0567 10.3196 21.0215 10.35 20.992C10.4123 20.9319 10.4954 20.8983 10.582 20.8983C10.6686 20.8983 10.7517 20.9319 10.814 20.992C10.942 21.117 10.942 21.321 10.814 21.446C10.686 21.571 10.478 21.571 10.35 21.446ZM23.88 15.599C23.88 15.421 24.028 15.277 24.209 15.277C24.39 15.277 24.537 15.421 24.537 15.599C24.5357 15.6848 24.5004 15.7667 24.439 15.8266C24.3775 15.8866 24.2949 15.9198 24.209 15.919C24.1231 15.9198 24.0405 15.8866 23.979 15.8266C23.9176 15.7667 23.8823 15.6848 23.881 15.599H23.88ZM7.955 15.599C7.955 15.421 8.102 15.277 8.284 15.277C8.464 15.277 8.612 15.421 8.612 15.599C8.61068 15.6848 8.57545 15.7667 8.51399 15.8266C8.45254 15.8866 8.36985 15.9198 8.284 15.919C8.19797 15.9201 8.11503 15.887 8.05336 15.827C7.99169 15.767 7.95632 15.685 7.955 15.599ZM16.165 8.212C16.1222 8.21266 16.0798 8.20488 16.04 8.18909C16.0003 8.1733 15.964 8.14983 15.9334 8.12C15.9027 8.09018 15.8782 8.0546 15.8614 8.01531C15.8445 7.97601 15.8355 7.93377 15.835 7.891C15.835 7.713 15.983 7.569 16.165 7.569C16.345 7.569 16.493 7.713 16.493 7.891C16.4917 7.97702 16.4563 8.05901 16.3946 8.119C16.333 8.17898 16.25 8.21207 16.164 8.211L16.165 8.212ZM16.165 23.788C16.1223 23.7887 16.0799 23.7809 16.0402 23.7652C16.0006 23.7495 15.9644 23.7261 15.9337 23.6964C15.9031 23.6666 15.8786 23.6312 15.8616 23.592C15.8447 23.5528 15.8357 23.5107 15.835 23.468C15.835 23.29 15.983 23.146 16.165 23.146C16.345 23.146 16.493 23.29 16.493 23.467C16.4925 23.5097 16.4836 23.5518 16.4667 23.5911C16.4499 23.6303 16.4255 23.6658 16.395 23.6956C16.3644 23.7255 16.3283 23.749 16.2887 23.7648C16.249 23.7806 16.2067 23.7885 16.164 23.788H16.165ZM26.343 15.598C26.343 15.421 26.491 15.278 26.672 15.278C26.852 15.278 27 15.421 27 15.598C26.9996 15.6407 26.9908 15.6829 26.9741 15.7221C26.9574 15.7614 26.9332 15.797 26.9027 15.8269C26.8722 15.8568 26.8362 15.8804 26.7966 15.8964C26.757 15.9124 26.7147 15.9204 26.672 15.92C26.6293 15.9205 26.587 15.9126 26.5473 15.8968C26.5077 15.881 26.4716 15.8575 26.441 15.8276C26.4105 15.7978 26.3861 15.7623 26.3693 15.7231C26.3524 15.6838 26.3435 15.6417 26.343 15.599V15.598ZM5.246 15.438C5.382 15.438 5.493 15.546 5.493 15.678C5.493 15.81 5.383 15.92 5.246 15.92C5.11 15.92 5 15.812 5 15.679C5 15.546 5.11 15.438 5.246 15.438ZM15.672 5.321C15.672 5.144 15.819 5 16 5C16.181 5 16.328 5.144 16.328 5.321C16.328 5.498 16.181 5.642 16 5.642C15.819 5.642 15.672 5.498 15.672 5.322V5.321ZM25.397 19.426C25.4497 19.3075 25.5467 19.2142 25.6672 19.1662C25.7877 19.1182 25.9222 19.1192 26.042 19.169C26.1011 19.1928 26.1549 19.2281 26.2002 19.2729C26.2455 19.3177 26.2815 19.3711 26.306 19.4299C26.3304 19.4887 26.343 19.5518 26.3428 19.6155C26.3426 19.6793 26.3298 19.7423 26.305 19.801C26.2527 19.9201 26.1556 20.0139 26.0346 20.0618C25.9137 20.1097 25.7787 20.108 25.659 20.057C25.6 20.0332 25.5464 19.9979 25.5012 19.9532C25.4559 19.9085 25.4201 19.8552 25.3957 19.7964C25.3713 19.7377 25.3589 19.6747 25.3591 19.6111C25.3593 19.5475 25.3722 19.4846 25.397 19.426ZM20.067 24.616C20.1067 24.6321 20.1429 24.6559 20.1732 24.6862C20.2036 24.7164 20.2277 24.7524 20.244 24.792C20.2603 24.8308 20.2686 24.8725 20.2685 24.9146C20.2683 24.9567 20.2596 24.9983 20.243 25.037C20.2168 25.0956 20.174 25.1454 20.12 25.1801C20.0659 25.2149 20.0029 25.2332 19.9387 25.2328C19.8744 25.2324 19.8117 25.2132 19.7581 25.1778C19.7046 25.1423 19.6625 25.092 19.637 25.033C19.6205 24.9943 19.612 24.9526 19.612 24.9105C19.612 24.8684 19.6205 24.8267 19.637 24.788C19.654 24.7487 19.6787 24.7131 19.7096 24.6834C19.7405 24.6537 19.777 24.6305 19.817 24.615C19.8975 24.5836 19.987 24.5843 20.067 24.617V24.616ZM6.442 11.289C6.522 11.323 6.585 11.385 6.618 11.464C6.63446 11.5029 6.64285 11.5448 6.64268 11.5871C6.64251 11.6294 6.63377 11.6712 6.617 11.71C6.59075 11.7686 6.548 11.8184 6.49397 11.8531C6.43993 11.8879 6.37695 11.9062 6.31269 11.9058C6.24844 11.9054 6.18571 11.8862 6.13213 11.8508C6.07856 11.8153 6.03647 11.765 6.011 11.706C5.99454 11.6671 5.98615 11.6252 5.98632 11.5829C5.98649 11.5406 5.99523 11.4988 6.012 11.46C6.02897 11.4209 6.05353 11.3856 6.08426 11.3561C6.11499 11.3265 6.15127 11.3034 6.191 11.288C6.27165 11.2559 6.3616 11.2563 6.442 11.289ZM5.526 19.539C5.56991 19.4401 5.65081 19.3623 5.75137 19.3223C5.85193 19.2823 5.96415 19.2833 6.064 19.325C6.11325 19.3447 6.15806 19.3741 6.19579 19.4114C6.23353 19.4486 6.26343 19.4931 6.28374 19.5421C6.30405 19.5911 6.31436 19.6437 6.31406 19.6967C6.31376 19.7498 6.30286 19.8022 6.282 19.851C6.2379 19.9497 6.15693 20.0273 6.05639 20.0671C5.95585 20.1069 5.84373 20.1058 5.744 20.064C5.69475 20.0443 5.64994 20.0149 5.61221 19.9776C5.57447 19.9404 5.54457 19.8959 5.52426 19.8469C5.50395 19.7979 5.49364 19.7453 5.49394 19.6923C5.49424 19.6392 5.50514 19.5868 5.526 19.538V19.539ZM19.863 6.252C19.8137 6.23238 19.7688 6.20309 19.7309 6.16584C19.6931 6.1286 19.6631 6.08417 19.6427 6.03515C19.6222 5.98614 19.6119 5.93353 19.6121 5.88044C19.6123 5.82735 19.6232 5.77484 19.644 5.726C19.6879 5.62709 19.7688 5.54931 19.8694 5.50931C19.9699 5.46931 20.0821 5.47028 20.182 5.512C20.2312 5.53172 20.2761 5.56108 20.3138 5.59836C20.3515 5.63565 20.3814 5.6801 20.4017 5.7291C20.422 5.77811 20.4324 5.83068 20.4321 5.88373C20.4318 5.93677 20.4209 5.98923 20.4 6.038C20.3561 6.13666 20.2754 6.21426 20.175 6.25424C20.0747 6.29422 19.9627 6.29342 19.863 6.252ZM26.004 11.119C26.0647 11.0947 26.1325 11.0951 26.193 11.12C26.2372 11.1382 26.275 11.1692 26.3014 11.2091C26.3279 11.2489 26.3419 11.2957 26.3415 11.3435C26.3412 11.3913 26.3266 11.438 26.2996 11.4774C26.2726 11.5169 26.2345 11.5474 26.19 11.565C26.1298 11.5891 26.0627 11.5888 26.0027 11.5641C25.9428 11.5395 25.8948 11.4924 25.869 11.433C25.8566 11.4037 25.8503 11.3722 25.8504 11.3404C25.8506 11.3086 25.8573 11.2771 25.87 11.248C25.8827 11.2187 25.9011 11.1923 25.9241 11.1701C25.9471 11.148 25.9743 11.1306 26.004 11.119ZM11.587 5.95C11.6131 5.89068 11.6615 5.84401 11.7218 5.82006C11.782 5.79612 11.8493 5.79681 11.909 5.822C11.9536 5.83984 11.9918 5.87071 12.0186 5.91058C12.0454 5.95046 12.0596 5.99748 12.0592 6.04552C12.0589 6.09357 12.0441 6.1404 12.0168 6.1799C11.9895 6.21941 11.9508 6.24976 11.906 6.267C11.8456 6.29114 11.7782 6.29078 11.718 6.266C11.6885 6.25406 11.6616 6.23636 11.639 6.21395C11.6164 6.19153 11.5985 6.16484 11.5863 6.13543C11.5741 6.10603 11.5679 6.07448 11.568 6.04265C11.5681 6.01081 11.5746 5.97932 11.587 5.95ZM11.65 24.912C11.682 24.912 11.714 24.919 11.745 24.932C11.7745 24.9438 11.8013 24.9614 11.8239 24.9838C11.8465 25.0061 11.8644 25.0327 11.8766 25.062C11.8888 25.0913 11.895 25.1228 11.8949 25.1546C11.8948 25.1863 11.8884 25.2178 11.876 25.247C11.8497 25.3061 11.8012 25.3526 11.7411 25.3766C11.6809 25.4005 11.6138 25.3999 11.554 25.375C11.5245 25.3631 11.4977 25.3456 11.4751 25.3233C11.4524 25.301 11.4345 25.2744 11.4222 25.2451C11.4099 25.2158 11.4036 25.1843 11.4035 25.1526C11.4035 25.1208 11.4098 25.0893 11.422 25.06C11.4414 25.0157 11.4733 24.9781 11.5138 24.9518C11.5543 24.9255 11.6017 24.9117 11.65 24.912ZM23.292 23.212C23.2297 23.2724 23.1463 23.3062 23.0595 23.3062C22.9727 23.3062 22.8893 23.2724 22.827 23.212C22.7966 23.1825 22.7724 23.1473 22.7559 23.1083C22.7393 23.0693 22.7308 23.0274 22.7308 22.985C22.7308 22.9426 22.7393 22.9007 22.7559 22.8617C22.7724 22.8227 22.7966 22.7875 22.827 22.758C22.8892 22.6972 22.973 22.6634 23.06 22.664C23.1467 22.6636 23.23 22.6974 23.292 22.758C23.3226 22.7875 23.3469 22.8228 23.3635 22.8619C23.3801 22.901 23.3887 22.943 23.3887 22.9855C23.3887 23.028 23.3801 23.07 23.3635 23.1091C23.3469 23.1482 23.3226 23.1835 23.292 23.213V23.212ZM7.935 8.033C8.02845 7.94252 8.15342 7.89193 8.2835 7.89193C8.41357 7.89193 8.53855 7.94252 8.632 8.033C8.67751 8.07727 8.71368 8.1302 8.73839 8.18869C8.76309 8.24717 8.77581 8.31001 8.77581 8.3735C8.77581 8.43699 8.76309 8.49983 8.73839 8.55831C8.71368 8.6168 8.67751 8.66973 8.632 8.714C8.53904 8.80542 8.41388 8.85666 8.2835 8.85666C8.15312 8.85666 8.02796 8.80542 7.935 8.714C7.88949 8.66973 7.85332 8.6168 7.82861 8.55831C7.80391 8.49983 7.79119 8.43699 7.79119 8.3735C7.79119 8.31001 7.80391 8.24717 7.82861 8.18869C7.85332 8.1302 7.88949 8.07727 7.935 8.033ZM23.46 8.123C23.5064 8.07732 23.5689 8.05171 23.634 8.05171C23.6991 8.05171 23.7616 8.07732 23.808 8.123C23.8306 8.14516 23.8486 8.17161 23.8609 8.2008C23.8731 8.22999 23.8794 8.26134 23.8794 8.293C23.8794 8.32466 23.8731 8.35601 23.8609 8.3852C23.8486 8.41439 23.8306 8.44084 23.808 8.463C23.7614 8.50821 23.699 8.53349 23.634 8.53349C23.569 8.53349 23.5066 8.50821 23.46 8.463C23.4371 8.44098 23.4189 8.41458 23.4065 8.38537C23.3941 8.35616 23.3877 8.32474 23.3877 8.293C23.3877 8.26126 23.3941 8.22984 23.4065 8.20063C23.4189 8.17142 23.4371 8.14502 23.46 8.123ZM8.027 22.735C8.07339 22.6893 8.13589 22.6637 8.201 22.6637C8.26611 22.6637 8.32861 22.6893 8.375 22.735C8.39774 22.7571 8.41582 22.7835 8.42816 22.8127C8.44051 22.8419 8.44687 22.8733 8.44687 22.905C8.44687 22.9367 8.44051 22.9681 8.42816 22.9973C8.41582 23.0265 8.39774 23.0529 8.375 23.075C8.32836 23.1202 8.26596 23.1455 8.201 23.1455C8.13605 23.1455 8.07364 23.1202 8.027 23.075C8.00426 23.0529 7.98618 23.0265 7.97384 22.9973C7.96149 22.9681 7.95513 22.9367 7.95513 22.905C7.95513 22.8733 7.96149 22.8419 7.97384 22.8127C7.98618 22.7835 8.00426 22.7571 8.027 22.735ZM16.082 27C15.9745 27.0011 15.8709 26.9594 15.7941 26.8843C15.7172 26.8091 15.6733 26.7065 15.672 26.599C15.672 26.377 15.855 26.197 16.082 26.197C16.309 26.197 16.492 26.377 16.492 26.599C16.4907 26.7065 16.4468 26.8091 16.3699 26.8843C16.2931 26.9594 16.1895 27.0011 16.082 27Z" fill="white"/>
</svg>
