<svg width="32" height="32" viewBox="0 0 32 32" fill="none" xmlns="http://www.w3.org/2000/svg">
<path d="M16 32C24.8366 32 32 24.8366 32 16C32 7.16344 24.8366 0 16 0C7.16344 0 0 7.16344 0 16C0 24.8366 7.16344 32 16 32Z" fill="#0CAFA5"/>
<path d="M8.41254 11.9188C8.37954 11.8988 8.35254 11.9148 8.35254 11.9538V14.2558C8.35361 14.2768 8.3596 14.2972 8.37002 14.3154C8.38044 14.3337 8.39501 14.3492 8.41254 14.3608L11.3225 16.0428C11.3401 16.0544 11.3546 16.0699 11.3651 16.0881C11.3755 16.1064 11.3815 16.1268 11.3825 16.1478V24.4778C11.3839 24.4989 11.3902 24.5195 11.401 24.5377C11.4118 24.5559 11.4267 24.5714 11.4445 24.5828L13.4375 25.7328C13.4705 25.7528 13.4975 25.7368 13.4975 25.6978V14.9278C13.4966 14.9066 13.4907 14.886 13.4803 14.8676C13.4698 14.8492 13.4552 14.8335 13.4375 14.8218L8.41254 11.9188ZM23.5865 11.9188C23.6195 11.8988 23.6465 11.9148 23.6465 11.9538V14.2558C23.6455 14.2768 23.6395 14.2972 23.6291 14.3154C23.6186 14.3337 23.6041 14.3492 23.5865 14.3608L20.6765 16.0408C20.6589 16.0525 20.6442 16.0682 20.6338 16.0866C20.6234 16.105 20.6175 16.1256 20.6165 16.1468V24.4768C20.6154 24.498 20.6093 24.5187 20.5987 24.5371C20.5881 24.5555 20.5733 24.5712 20.5555 24.5828L18.5625 25.7328C18.5285 25.7528 18.5015 25.7368 18.5015 25.6978V14.9278C18.5025 14.9067 18.5085 14.8861 18.5189 14.8676C18.5293 14.8492 18.5439 14.8335 18.5615 14.8218L23.5865 11.9188Z" fill="white"/>
<path d="M23.9796 7.50244C23.9796 7.46444 23.9526 7.44844 23.9196 7.46744L16.0596 12.0134C16.0409 12.0228 16.0204 12.0276 15.9996 12.0276C15.9787 12.0276 15.9582 12.0228 15.9396 12.0134L8.07955 7.46744C8.04555 7.44744 8.01855 7.46444 8.01855 7.50244V9.80444C8.01963 9.82542 8.02561 9.84585 8.03604 9.86409C8.04646 9.88233 8.06102 9.89787 8.07856 9.90944L14.8826 13.8434C14.9 13.8551 14.9146 13.8706 14.925 13.8888C14.9354 13.9071 14.9414 13.9275 14.9426 13.9484V28.2334C14.9436 28.2547 14.9496 28.2754 14.9603 28.2938C14.9709 28.3122 14.9857 28.3279 15.0036 28.3394L15.9386 28.8794C15.9575 28.8888 15.9784 28.8937 15.9996 28.8937C16.0207 28.8937 16.0416 28.8888 16.0606 28.8794L16.9956 28.3394C17.0132 28.3278 17.0279 28.3121 17.0383 28.2936C17.0487 28.2752 17.0546 28.2546 17.0556 28.2334V13.9494C17.0568 13.9284 17.063 13.9079 17.0736 13.8897C17.0842 13.8715 17.0989 13.856 17.1166 13.8444L23.9196 9.90944C23.9372 9.89777 23.9519 9.88208 23.9623 9.86365C23.9727 9.84523 23.9786 9.82459 23.9796 9.80344V7.50344V7.50244ZM16.0356 13.3184C16.0276 13.3184 16.0246 13.3124 16.0286 13.3054C16.0326 13.2984 16.0386 13.2984 16.0426 13.3054C16.0466 13.3124 16.0426 13.3184 16.0356 13.3184Z" fill="white"/>
<path d="M15.0114 7.20154C14.9921 7.20579 14.9749 7.21638 14.9624 7.23161C14.9499 7.24684 14.9428 7.26584 14.9424 7.28554V10.1585C14.9436 10.1796 14.9498 10.2001 14.9604 10.2183C14.971 10.2365 14.9857 10.252 15.0034 10.2635L15.9384 10.8035C15.9764 10.8235 16.0214 10.8235 16.0604 10.8035L16.9954 10.2635C17.0129 10.2519 17.0274 10.2364 17.0378 10.2181C17.0482 10.1999 17.0542 10.1795 17.0554 10.1585V7.28454C17.0552 7.26492 17.0484 7.24595 17.036 7.2307C17.0237 7.21545 17.0065 7.20483 16.9874 7.20054L16.0674 7.03154C16.022 7.02464 15.9758 7.02464 15.9304 7.03154L15.0114 7.20154Z" fill="white"/>
</svg>
