<svg width="32" height="32" viewBox="0 0 32 32" fill="none" xmlns="http://www.w3.org/2000/svg">
<path d="M16 32C24.8366 32 32 24.8366 32 16C32 7.16344 24.8366 0 16 0C7.16344 0 0 7.16344 0 16C0 24.8366 7.16344 32 16 32Z" fill="black"/>
<path d="M15.8973 4.39808C15.7513 4.06808 16.2793 3.83408 16.4253 4.14808C19.8573 10.0601 23.2893 15.9751 26.7213 21.8961C26.5383 21.8961 26.3623 21.8361 26.1863 21.8081L17.0263 19.9821C16.7263 19.9671 16.6603 19.4821 16.9533 19.4101L20.5473 18.4201C20.5902 18.4092 20.6301 18.389 20.6642 18.361C20.6983 18.3329 20.7258 18.2976 20.7448 18.2577C20.7637 18.2178 20.7735 18.1741 20.7736 18.13C20.7737 18.0858 20.7641 18.0421 20.7453 18.0021L15.8973 4.39008V4.39708V4.39808Z" fill="white"/>
<path d="M15.37 4.42773C15.403 4.47573 15.432 4.52773 15.457 4.58173C16.543 7.66173 17.657 10.7417 18.735 13.8217C18.831 14.0777 18.471 14.2907 18.295 14.0997C17.371 13.1317 16.491 12.1347 15.582 11.1667C15.435 11.0347 15.222 11.1227 15.127 11.2617L5.682 22.3577C5.572 22.4747 5.477 22.6507 5.293 22.6727C5.161 22.6727 5.073 22.5697 5 22.4677V22.2977C8.461 16.3437 11.918 10.3877 15.37 4.42773Z" fill="white"/>
<path d="M12.4799 14.9948C12.6559 14.9438 12.8899 15.0678 12.8319 15.2808C12.4649 16.5568 12.0769 17.8258 11.6949 19.0938C11.6369 19.2558 11.7829 19.4018 11.9369 19.4098C16.8799 20.3998 21.8229 21.4258 26.7649 22.4158C26.8609 22.4308 26.9269 22.5038 26.9999 22.5628V22.7678L26.8599 22.9148H5.87988C8.07988 20.2748 10.2729 17.6198 12.4799 14.9948Z" fill="white"/>
</svg>
