<svg width="32" height="32" viewBox="0 0 32 32" fill="none" xmlns="http://www.w3.org/2000/svg">
<path d="M16 32C24.8366 32 32 24.8366 32 16C32 7.16344 24.8366 0 16 0C7.16344 0 0 7.16344 0 16C0 24.8366 7.16344 32 16 32Z" fill="#C87035"/>
<path d="M15.992 27C9.917 26.996 5 22.07 5 15.986C5 9.915 9.932 4.996 16.015 5C22.08 5.004 27.008 9.934 27 16.002C26.988 22.004 22.164 26.992 15.992 27ZM11.509 21.03C11.54 20.971 11.564 20.924 11.587 20.886C12.571 19.15 13.557 17.416 14.543 15.684C15.407 14.166 16.269 12.646 17.128 11.126C17.1399 11.0968 17.161 11.0723 17.188 11.0561C17.2151 11.0398 17.2466 11.0328 17.278 11.036C18.282 11.041 19.29 11.041 20.293 11.041H20.436C19.042 13.501 17.658 15.944 16.263 18.401C16.313 18.405 16.341 18.405 16.368 18.405C18.887 18.405 21.404 18.406 23.92 18.409C24.005 18.409 24.032 18.378 24.051 18.304C24.4322 16.959 24.4684 15.5396 24.156 14.177C23.78 12.527 22.955 11.134 21.738 9.969C21.1919 9.44838 20.5719 9.01132 19.898 8.672C18.224 7.818 16.461 7.547 14.613 7.872C12.773 8.199 11.223 9.068 9.952 10.442C9.785 10.622 9.634 10.815 9.475 11.002C9.479 11.013 9.487 11.022 9.491 11.032H16.671C16.631 11.107 16.604 11.161 16.573 11.212C16.136 11.988 15.693 12.76 15.26 13.537C15.2429 13.5752 15.2142 13.607 15.1779 13.6279C15.1416 13.6487 15.0996 13.6575 15.058 13.653C12.796 13.649 10.534 13.648 8.274 13.649H8.138C6.992 17.252 8.611 21.771 12.672 23.579C16.604 25.335 20.727 23.719 22.66 21.022C18.945 21.029 15.228 21.032 11.51 21.029L11.509 21.03ZM24.152 22.928C25.547 21.378 26.787 18.828 26.709 15.765C26.647 13.242 25.783 11.025 24.168 9.065C23.664 9.573 23.172 10.066 22.684 10.559C25.244 13.638 25.354 18.191 22.711 21.46L24.152 22.928Z" fill="white"/>
</svg>
