<svg width="32" height="32" viewBox="0 0 32 32" fill="none" xmlns="http://www.w3.org/2000/svg">
<path d="M16 32C24.8366 32 32 24.8366 32 16C32 7.16344 24.8366 0 16 0C7.16344 0 0 7.16344 0 16C0 24.8366 7.16344 32 16 32Z" fill="#FF439B"/>
<path fill-rule="evenodd" clip-rule="evenodd" d="M18.226 13.804L23.859 23.5H8.245L10.116 20.397L18.528 20.399L16.396 16.919L18.226 13.804ZM12.476 16.06L18.203 6.54L26 19.667H22.256L18.136 12.507L16.135 16.061L12.476 16.06ZM17.361 19.679L6 19.625L13.807 6.5L15.667 9.646L11.364 16.564H15.531L17.361 19.679Z" fill="white"/>
</svg>
