<svg width="32" height="32" viewBox="0 0 32 32" fill="none" xmlns="http://www.w3.org/2000/svg">
<path d="M16 32C24.8366 32 32 24.8366 32 16C32 7.16344 24.8366 0 16 0C7.16344 0 0 7.16344 0 16C0 24.8366 7.16344 32 16 32Z" fill="#E30613"/>
<path opacity="0.75" fill-rule="evenodd" clip-rule="evenodd" d="M15.361 26.9999C9.64 26.9999 5 22.4069 5 16.7419C5 11.0769 9.639 6.48389 15.361 6.48389C21.084 6.48389 25.723 11.0769 25.723 16.7419C25.723 22.4069 21.083 26.9999 15.36 26.9999H15.361ZM17.15 9.42289C19.566 10.4119 21.302 12.2729 22.534 14.7809L23.464 14.1339C22.42 11.6219 20.491 9.64789 17.388 8.36789L17.15 9.42289Z" fill="white"/>
<path d="M26.9917 9.321C26.9917 6.935 25.0367 5 22.6267 5C20.2167 5 18.2617 6.935 18.2617 9.321C18.2617 9.549 18.2797 9.776 18.3157 10.001C19.7687 10.847 20.9357 12.061 21.8687 13.577C22.1187 13.62 22.3727 13.643 22.6267 13.643C25.0367 13.643 26.9917 11.708 26.9917 9.321Z" fill="white"/>
</svg>
