<svg width="32" height="32" viewBox="0 0 32 32" fill="none" xmlns="http://www.w3.org/2000/svg">
<path d="M16 32C24.8366 32 32 24.8366 32 16C32 7.16344 24.8366 0 16 0C7.16344 0 0 7.16344 0 16C0 24.8366 7.16344 32 16 32Z" fill="#622FBA"/>
<path fill-rule="evenodd" clip-rule="evenodd" d="M18.586 17.376C18.499 17.403 18.415 17.436 18.333 17.474L14.657 13.653C14.8025 13.4008 14.8885 13.1187 14.9082 12.8282C14.928 12.5377 14.8811 12.2465 14.7711 11.9769C14.6611 11.7073 14.4909 11.4664 14.2736 11.2727C14.0562 11.0789 13.7974 10.9375 13.517 10.859V8.18604L12.533 7.63604L14.806 6.32104C15.1689 6.11106 15.5807 6.00049 16 6.00049C16.4193 6.00049 16.8311 6.11106 17.194 6.32104L21.713 8.93704L19.927 9.97004C19.636 9.84095 19.3175 9.78659 19.0002 9.81188C18.6829 9.83717 18.3769 9.94132 18.1101 10.1149C17.8432 10.2884 17.624 10.5259 17.4722 10.8057C17.3204 11.0855 17.241 11.3987 17.241 11.717C17.2411 12.1248 17.3717 12.5219 17.6137 12.8501C17.8558 13.1783 18.1965 13.4204 18.586 13.541V17.376ZM19.724 17.376V13.54C19.9972 13.4553 20.248 13.3103 20.4577 13.1156C20.6673 12.921 20.8306 12.6818 20.9354 12.4156C21.0403 12.1494 21.084 11.8631 21.0633 11.5777C21.0426 11.2924 20.9581 11.0153 20.816 10.767L22.846 9.59304L23.816 10.153C24.1762 10.3615 24.4752 10.661 24.683 11.0215C24.8908 11.382 25.0002 11.7909 25 12.207V19.793C25 20.639 24.549 21.421 23.815 21.846L19.725 24.214V21.022C20.1134 20.9005 20.4529 20.6581 20.6938 20.3301C20.9348 20.0021 21.0647 19.6057 21.0646 19.1987C21.0645 18.7917 20.9344 18.3953 20.6932 18.0675C20.4521 17.7396 20.1125 17.4974 19.724 17.376ZM17.497 18.245C17.3541 18.4933 17.2689 18.7705 17.2476 19.0561C17.2263 19.3418 17.2696 19.6286 17.3742 19.8952C17.4787 20.1619 17.6419 20.4016 17.8517 20.5967C18.0615 20.7917 18.3124 20.9371 18.586 21.022V24.873L17.194 25.679C16.8311 25.889 16.4193 25.9996 16 25.9996C15.5807 25.9996 15.1689 25.889 14.806 25.679L9.94 22.863L11.768 21.435C12.1128 21.7245 12.5488 21.8828 12.999 21.882C13.2501 21.8824 13.4989 21.8333 13.731 21.7375C13.9631 21.6417 14.1741 21.5011 14.3519 21.3237C14.5296 21.1463 14.6707 20.9357 14.767 20.7037C14.8632 20.4718 14.9129 20.2232 14.913 19.972C14.9126 19.5552 14.7759 19.1499 14.5236 18.8181C14.2714 18.4862 13.9175 18.246 13.516 18.134V14.536C13.621 14.507 13.723 14.469 13.82 14.423L17.497 18.245ZM12.379 18.166C11.9196 18.3229 11.5372 18.6488 11.3095 19.0775C11.0817 19.5062 11.0258 20.0056 11.153 20.474L8.882 22.25L8.185 21.847C7.82463 21.6387 7.52541 21.3393 7.31741 20.9787C7.1094 20.6182 6.99994 20.2093 7 19.793V12.207C7 11.361 7.451 10.579 8.185 10.154L11.39 8.29804L12.38 8.85104V10.891C12.0036 11.0202 11.6769 11.2636 11.4456 11.5874C11.2142 11.9112 11.0898 12.2992 11.0897 12.6972C11.0896 13.0951 11.2138 13.4832 11.4449 13.8071C11.6761 14.1311 12.0026 14.3747 12.379 14.504V18.166ZM13 13.523C12.889 13.527 12.7784 13.5086 12.6747 13.469C12.571 13.4293 12.4764 13.3692 12.3965 13.2921C12.3165 13.2151 12.2529 13.1227 12.2094 13.0206C12.1659 12.9185 12.1434 12.8086 12.1433 12.6976C12.1431 12.5866 12.1654 12.4766 12.2086 12.3744C12.2519 12.2721 12.3153 12.1796 12.395 12.1024C12.4748 12.0252 12.5693 11.9648 12.6729 11.9249C12.7765 11.885 12.887 11.8663 12.998 11.87C13.2122 11.8772 13.4153 11.9673 13.5644 12.1213C13.7135 12.2753 13.797 12.4812 13.7973 12.6956C13.7975 12.9099 13.7145 13.116 13.5658 13.2704C13.4171 13.4247 13.2142 13.5153 13 13.523ZM13 20.798C12.889 20.802 12.7784 20.7836 12.6747 20.744C12.571 20.7043 12.4764 20.6442 12.3965 20.5671C12.3165 20.4901 12.2529 20.3977 12.2094 20.2956C12.1659 20.1935 12.1434 20.0836 12.1433 19.9726C12.1431 19.8616 12.1654 19.7516 12.2086 19.6494C12.2519 19.5471 12.3153 19.4546 12.395 19.3774C12.4748 19.3002 12.5693 19.2398 12.6729 19.1999C12.7765 19.16 12.887 19.1413 12.998 19.145C13.2122 19.1522 13.4153 19.2423 13.5644 19.3963C13.7135 19.5503 13.797 19.7562 13.7973 19.9706C13.7975 20.1849 13.7145 20.391 13.5658 20.5454C13.4171 20.6997 13.2142 20.7903 13 20.798ZM19.155 12.543C19.0441 12.547 18.9334 12.5286 18.8297 12.489C18.726 12.4493 18.6314 12.3892 18.5515 12.3121C18.4715 12.2351 18.4079 12.1427 18.3644 12.0406C18.3209 11.9385 18.2984 11.8286 18.2983 11.7176C18.2981 11.6066 18.3204 11.4966 18.3636 11.3944C18.4069 11.2921 18.4703 11.1996 18.55 11.1224C18.6298 11.0452 18.7243 10.9848 18.8279 10.9449C18.9315 10.905 19.042 10.8863 19.153 10.89C19.3672 10.8972 19.5703 10.9873 19.7194 11.1413C19.8685 11.2953 19.952 11.5012 19.9523 11.7156C19.9525 11.9299 19.8695 12.136 19.7208 12.2904C19.5721 12.4447 19.3692 12.5353 19.155 12.543ZM19.155 20.025C18.9357 20.0253 18.7252 19.9384 18.5699 19.7835C18.4146 19.6286 18.3273 19.4184 18.327 19.199C18.3267 18.9797 18.4136 18.7692 18.5685 18.614C18.7234 18.4587 18.9337 18.3713 19.153 18.371C19.3723 18.3708 19.5828 18.4577 19.7381 18.6126C19.8933 18.7675 19.9807 18.9777 19.981 19.197C19.9813 19.4164 19.8944 19.6268 19.7395 19.7821C19.5846 19.9374 19.3743 20.0248 19.155 20.025Z" fill="white"/>
</svg>
