<svg width="32" height="32" viewBox="0 0 32 32" fill="none" xmlns="http://www.w3.org/2000/svg">
<path d="M16 32C24.8366 32 32 24.8366 32 16C32 7.16344 24.8366 0 16 0C7.16344 0 0 7.16344 0 16C0 24.8366 7.16344 32 16 32Z" fill="#242D3D"/>
<path d="M23.1341 17.4663C22.5831 15.0393 20.8701 12.3633 20.8701 12.3633C22.8441 17.7503 22.0841 21.8133 21.5611 24.1183C21.5611 24.1183 20.8711 26.6963 22.3561 24.5483C24.2081 21.8603 23.1341 17.4663 23.1341 17.4663Z" fill="white"/>
<path d="M18.258 7.91072C19.285 11.5687 19.75 14.6737 19.895 17.2627C20.15 21.6747 19.477 24.5777 19.059 26.1107C18.925 26.6097 19.483 26.9807 19.808 26.6037L19.814 26.5977C20.626 25.6687 21.01 23.4927 21.19 21.5827L21.242 20.9557C21.41 18.6557 21.312 16.3347 20.772 14.1107C19.779 10.0067 18.258 7.91072 18.258 7.91072ZM16.418 14.3547C16.168 8.34672 15.715 3.01172 15.715 3.01172C15.715 3.01172 15.257 8.07972 15.007 13.9537C14.967 14.9067 14.931 15.8757 14.902 16.8507C14.862 18.2677 14.844 19.6907 14.844 21.0657C14.85 23.5097 14.944 25.8027 15.164 27.6317C15.251 28.3567 16.191 28.3567 16.278 27.6317C16.429 26.3837 16.516 24.8507 16.551 23.1667C16.5835 21.3461 16.5758 19.525 16.528 17.7047C16.498 16.5897 16.464 15.4637 16.418 14.3547ZM9.39999 21.5937C9.26297 20.4614 9.2315 19.3188 9.30599 18.1807C9.36399 17.2867 9.49199 16.3287 9.71299 15.3067C9.91599 14.3717 10.194 13.3907 10.572 12.3577C10.572 12.3577 9.36399 14.2447 8.65599 16.2817C8.51599 16.6717 8.40099 17.0717 8.31299 17.4607C8.31299 17.4607 8.08699 18.4827 8.05299 19.8467C8.02899 20.7927 8.10399 21.9127 8.40599 22.9697C8.55863 23.523 8.78749 24.0524 9.08599 24.5427C9.08599 24.5427 10.572 26.7547 9.88099 24.1127C9.66601 23.2844 9.50501 22.4429 9.39899 21.5937H9.39999Z" fill="white"/>
<path d="M11.5175 20.4101C11.469 19.214 11.4884 18.0161 11.5755 16.8221C11.6358 15.9406 11.7289 15.0617 11.8545 14.1871C12.1145 12.3061 12.5395 10.2221 13.1845 7.91113C13.1845 7.91113 11.6565 10.0071 10.6645 14.1111C10.6115 14.3311 10.5645 14.5521 10.5185 14.7671C10.3385 15.6611 10.2225 16.5671 10.1645 17.4841C10.0945 18.6341 10.1125 19.7941 10.1945 20.9501L10.2465 21.5831C10.4265 23.4931 10.8035 25.6691 11.6215 26.5981L11.6275 26.6041C11.9525 26.9761 12.5155 26.6041 12.3775 26.1111C12.0745 24.9791 11.6275 23.0981 11.5175 20.4101Z" fill="white"/>
<path d="M14.0547 20.6355C14.0219 19.3044 14.0159 17.9728 14.0367 16.6415C14.0487 15.7655 14.0717 14.8415 14.1127 13.8725C14.2117 11.3705 14.6817 7.75348 15.0067 4.68848C15.0067 4.68848 13.4047 8.00348 12.6727 13.9835C12.5747 14.8015 12.4817 15.6835 12.4117 16.6365L12.3597 17.3445C12.3597 17.3445 12.2727 18.6095 12.3067 20.3165C12.3537 22.5105 12.5967 25.4365 13.5027 27.3525C13.5327 27.4105 13.5667 27.4625 13.6127 27.5025L13.6187 27.5095C13.9617 27.8345 14.4897 27.5265 14.4437 27.0215C14.2307 24.8987 14.1006 22.7684 14.0537 20.6355H14.0547ZM17.3747 20.6355C17.4047 19.4395 17.4157 18.1055 17.3927 16.6415C17.3807 15.7655 17.3577 14.8415 17.3167 13.8725C17.2187 11.3705 16.7487 7.75348 16.4227 4.68848C16.4227 4.68848 18.0257 8.00348 18.7567 13.9835C18.8557 14.8015 18.9487 15.6835 19.0177 16.6365L19.0707 17.3445C19.0707 17.3445 19.1577 18.6095 19.1227 20.3165C19.0757 22.5105 18.8327 25.4365 17.9267 27.3525C17.9001 27.4091 17.8627 27.4601 17.8167 27.5025L17.8107 27.5095C17.4677 27.8345 16.9407 27.5265 16.9867 27.0215C17.1027 25.9245 17.2997 23.7475 17.3747 20.6355Z" fill="white"/>
</svg>
