<svg width="32" height="32" viewBox="0 0 32 32" fill="none" xmlns="http://www.w3.org/2000/svg">
<path d="M16 32C24.8366 32 32 24.8366 32 16C32 7.16344 24.8366 0 16 0C7.16344 0 0 7.16344 0 16C0 24.8366 7.16344 32 16 32Z" fill="#FDA616"/>
<path d="M11.9214 22C12.0384 22.364 13.4864 23.864 14.9934 23.864C17.2274 23.864 18.5324 22.516 18.5324 20.566C18.5324 18.76 17.6284 17.728 15.3444 16.724C12.5834 15.606 10.8764 13.971 10.8764 11.247C10.8764 8.237 13.0604 6 16.3484 6C18.0804 6 19.8354 7.09 20.4174 7.818L19.0204 9.273C18.4684 8.929 17.8054 8.064 16.2734 8.064C13.9644 8.064 13.0854 9.641 13.0854 10.96C13.0854 12.767 14.1154 13.656 16.4484 14.688C19.3104 15.95 20.7664 17.527 20.7664 20.365C20.7664 23.348 18.8224 26 14.8314 26C13.1994 26 11.4564 24.91 10.4084 23.576L11.9214 22ZM13.7834 11.697C13.4344 10.97 13.6674 10.243 13.6674 10.243C22.5114 8.788 20.8824 17.393 20.8824 17.393C20.1844 16.061 19.4864 15.818 19.4864 15.818C19.6024 10.848 13.7834 11.697 13.7834 11.697ZM17.7404 19.576C18.0904 20.425 17.6864 21.308 17.6864 21.308C7.61641 22.606 10.3364 13.398 10.3334 13.398C10.8674 14.812 11.5314 15.143 11.5314 15.143C11.3414 20.909 17.7404 19.576 17.7404 19.576Z" fill="white"/>
</svg>
