<svg width="32" height="32" viewBox="0 0 32 32" fill="none" xmlns="http://www.w3.org/2000/svg">
<path d="M16 32C24.8366 32 32 24.8366 32 16C32 7.16344 24.8366 0 16 0C7.16344 0 0 7.16344 0 16C0 24.8366 7.16344 32 16 32Z" fill="#65CB8D"/>
<path d="M18.454 18.4869H13.509V13.5129H18.454V18.4869ZM25.914 10.1629C25.705 8.96128 25.0663 7.8766 24.117 7.11089C23.2326 6.39157 22.127 5.9995 20.987 6.00089C17.63 6.00089 14.27 5.99789 10.913 6.00289C9.161 6.02289 7.505 7.03789 6.653 8.56389C6.179 9.38389 6.001 10.3039 6 11.2419C6.002 14.3039 5.999 17.3679 6.001 20.4289C5.995 21.1409 6.026 21.8259 6.248 22.5089C6.743 24.0909 8.078 25.3729 9.671 25.8189C9.189 25.4339 8.976 24.8989 8.819 24.3199C8.495 23.0499 8.47 21.7299 8.522 20.4299C8.517 17.3669 8.524 14.3039 8.518 11.2419C8.523 10.7149 8.562 10.2199 8.831 9.75389C9.246 9.00989 10.055 8.51189 10.913 8.52389C14.103 8.52089 17.298 8.52389 20.488 8.52189C20.97 8.52289 21.408 8.48689 21.868 8.66189C22.251 8.79511 22.5935 9.02396 22.8632 9.32673C23.1329 9.6295 23.3208 9.99614 23.409 10.3919C23.504 10.8549 23.479 11.3689 23.48 11.8419V20.8289C23.48 21.2699 23.431 21.7019 23.242 22.1049C22.851 22.9239 22.005 23.4919 21.089 23.4749C18.563 23.4789 16.035 23.4749 13.509 23.4769C13.505 22.6529 13.506 21.8279 13.509 21.0039C15.57 21.0039 17.631 21.0009 19.692 21.0059C20.136 21.0299 20.647 20.8049 20.852 20.3959C20.967 20.1859 20.986 19.9639 20.991 19.7309C20.989 17.2339 20.99 14.7379 20.99 12.2399C21.004 12.018 20.9537 11.7968 20.8452 11.6027C20.7366 11.4087 20.5744 11.2501 20.378 11.1459C20.037 10.9459 19.671 10.9979 19.292 10.9909C16.932 10.9969 14.569 10.9879 12.21 10.9959C11.535 10.9789 10.973 11.5669 10.994 12.2399C10.984 15.8279 10.994 19.4359 10.989 23.0259C11.008 23.7389 10.985 24.4149 11.398 25.0319C11.711 25.5419 12.24 25.8009 12.81 25.9139C13.483 26.0229 14.127 25.9969 14.804 25.9979C16.864 25.9979 18.925 25.9969 20.987 25.9999C22.012 26.0089 23.011 25.6759 23.852 25.0959C24.755 24.4299 25.455 23.5109 25.777 22.4289C26 21.6969 25.996 20.9859 26 20.2289V11.6419C25.996 11.1509 25.99 10.6489 25.915 10.1619" fill="white"/>
</svg>
