<svg width="32" height="32" viewBox="0 0 32 32" fill="none" xmlns="http://www.w3.org/2000/svg">
<path d="M16 32C24.8366 32 32 24.8366 32 16C32 7.16344 24.8366 0 16 0C7.16344 0 0 7.16344 0 16C0 24.8366 7.16344 32 16 32Z" fill="#105B2F"/>
<path fill-rule="evenodd" clip-rule="evenodd" d="M12.033 18.1801L11.643 20.1671L10.933 23.8181C10.913 23.9281 10.885 24.0021 10.745 24.0001C9.863 23.9871 8.981 23.9801 8.099 23.9701C8.078 23.9701 8.056 23.9561 8 23.9351L9.99 13.9951H8.313C8.317 13.9211 8.315 13.8771 8.323 13.8351C8.426 13.2981 8.537 12.7621 8.63 12.2231C8.656 12.0731 8.723 12.0351 8.863 12.0361C9.273 12.0401 9.683 12.0251 10.091 12.0391C10.286 12.0451 10.361 11.9891 10.399 11.7971C10.627 10.6091 10.871 9.42515 11.105 8.23915C11.133 8.09815 11.164 8.00115 11.348 8.00115C13.356 8.00715 15.365 7.98815 17.373 8.01415C18.545 8.02915 19.72 8.08915 20.873 8.32615C21.27 8.40815 21.673 8.51415 22.041 8.67815C23.099 9.14815 23.736 9.96215 23.913 11.0891C24.188 12.8401 23.817 14.4491 22.693 15.8511C21.863 16.8831 20.725 17.4621 19.454 17.8141C18.446 18.0931 17.412 18.1801 16.37 18.1821C15.015 18.1851 13.66 18.1821 12.305 18.1811H12.033V18.1801ZM12.588 15.4421H12.871C14.304 15.4421 15.737 15.4451 17.171 15.4401C17.476 15.4401 17.785 15.4271 18.088 15.3901C19.245 15.2521 20.124 14.6971 20.686 13.6901C20.9271 13.2534 21.0081 12.7462 20.915 12.2561C20.797 11.5591 20.381 11.1041 19.674 10.9761C19.1564 10.8775 18.6317 10.8207 18.105 10.8061C16.633 10.7791 15.161 10.7901 13.688 10.7861C13.635 10.7861 13.582 10.7941 13.511 10.8001L13.267 12.0481H17.357L16.981 13.9861H12.878L12.588 15.4421Z" fill="white"/>
</svg>
