<svg width="32" height="32" viewBox="0 0 32 32" fill="none" xmlns="http://www.w3.org/2000/svg">
<path d="M16 32C24.8366 32 32 24.8366 32 16C32 7.16344 24.8366 0 16 0C7.16344 0 0 7.16344 0 16C0 24.8366 7.16344 32 16 32Z" fill="#00316D"/>
<path d="M18.1558 19.8867C18.1428 19.8627 18.1408 19.8527 18.1358 19.8497C17.5158 19.5567 16.8958 19.2627 16.2738 18.9737C16.2408 18.9577 16.1738 18.9617 16.1528 18.9847C15.8828 19.2747 15.6188 19.5717 15.3508 19.8687C15.5448 20.0117 17.9938 20.0127 18.1558 19.8867ZM12.4818 12.7237L12.4198 12.5937C12.3678 12.6307 12.2998 12.6577 12.2658 12.7077C11.693 13.56 11.1236 14.4147 10.5578 15.2717C10.5228 15.3257 10.5248 15.4047 10.5078 15.4717C10.5778 15.4577 10.6558 15.4607 10.7128 15.4257C11.1986 15.1336 11.68 14.8342 12.1568 14.5277C12.2406 14.4686 12.2983 14.3794 12.3178 14.2787C12.3818 13.7787 12.4258 13.2757 12.4818 12.7237ZM24.4788 19.9737H25.3048C25.4638 19.9737 25.5248 19.9137 25.4238 19.7607C24.8988 18.9587 24.3758 18.1557 23.8488 17.3567C23.8208 17.3127 23.7568 17.2937 23.7088 17.2637C23.6838 17.3137 23.6408 17.3637 23.6358 17.4167C23.5748 18.1987 23.5198 18.9807 23.4598 19.7627C23.4488 19.9117 23.5008 19.9787 23.6528 19.9757C23.9278 19.9697 24.2028 19.9737 24.4788 19.9737ZM6.74483 19.9137C6.87083 19.9437 6.93283 19.9717 6.99383 19.9727C7.88683 19.9747 8.77983 19.9727 9.67183 19.9747C9.84483 19.9747 9.88883 19.9137 9.81583 19.7467C9.53568 19.1114 9.26167 18.4733 8.99383 17.8327C8.91583 17.6457 8.84383 17.6547 8.72083 17.7867C8.24483 18.3007 7.76483 18.8097 7.28683 19.3207C7.11983 19.5007 6.95683 19.6807 6.74483 19.9137ZM19.9398 15.3007C19.9978 15.4137 20.0168 15.4627 20.0458 15.5047L21.2538 17.2587C21.7528 17.9837 22.2508 18.7087 22.7538 19.4307C22.7878 19.4807 22.8538 19.5077 22.9038 19.5447C22.9298 19.4847 22.9718 19.4277 22.9798 19.3657C22.9998 19.1957 23.0038 19.0257 23.0148 18.8557C23.0688 18.0807 23.1288 17.3067 23.1748 16.5327C23.1948 16.2027 23.0518 16.0327 22.7388 15.9547C21.9038 15.7457 21.0688 15.5357 20.2328 15.3287C20.1578 15.3107 20.0788 15.3137 19.9398 15.3007ZM19.7278 10.1657L19.6518 10.1787C19.6418 10.3317 19.6268 10.4857 19.6218 10.6407L19.5108 14.4117C19.5058 14.5497 19.5468 14.6217 19.6898 14.6557C20.5558 14.8657 21.4198 15.0867 22.2858 15.2997C22.3608 15.3177 22.4438 15.3007 22.5228 15.2997C22.5028 15.2227 22.4988 15.1357 22.4618 15.0677C21.5988 13.4977 20.7338 11.9277 19.8668 10.3597C19.8288 10.2907 19.7748 10.2297 19.7278 10.1657ZM15.8428 17.8727C15.8668 17.7397 15.8898 17.6597 15.8928 17.5797C15.9058 17.1607 15.9068 16.7417 15.9258 16.3227C15.9438 16.0035 15.8489 15.6881 15.6578 15.4317C14.8638 14.33 14.0722 13.2267 13.2828 12.1217C13.2468 12.0717 13.2318 12.0067 13.2068 11.9487L13.1128 12.0047C13.0898 12.0887 13.0538 12.1717 13.0448 12.2567C12.9748 12.9367 12.9148 13.6167 12.8398 14.2947C12.8284 14.3661 12.834 14.4391 12.856 14.5079C12.8781 14.5767 12.916 14.6393 12.9668 14.6907C13.8618 15.6877 14.7508 16.6907 15.6438 17.6907C15.6918 17.7447 15.7498 17.7887 15.8428 17.8727ZM16.4198 17.6637L16.4798 17.7037C16.5348 17.6607 16.5998 17.6267 16.6438 17.5737C17.4042 16.6506 18.1618 15.7252 18.9168 14.7977C18.9631 14.7389 18.9903 14.6674 18.9948 14.5927C19.0308 13.3577 19.0618 12.1227 19.0898 10.8877C19.0918 10.8197 19.0528 10.7507 19.0318 10.6827C18.9768 10.7357 18.8998 10.7787 18.8688 10.8427C18.1688 12.3247 17.4998 13.8217 16.7658 15.2847C16.3778 16.0587 16.4398 16.8577 16.4198 17.6647V17.6637ZM12.9168 19.9747C13.3978 19.9747 13.8798 19.9817 14.3608 19.9687C14.4706 19.9635 14.5749 19.9192 14.6548 19.8437C14.9898 19.4927 15.3038 19.1207 15.6378 18.7687C15.7628 18.6387 15.7348 18.5587 15.6288 18.4427C15.0645 17.8306 14.5051 17.2139 13.9508 16.5927C13.8168 16.4427 13.7398 16.4437 13.6198 16.6077C12.8588 17.6487 12.0898 18.6827 11.3248 19.7217C11.2868 19.7737 11.2728 19.8427 11.2468 19.9037C11.3138 19.9277 11.3808 19.9707 11.4488 19.9707C11.9388 19.9767 12.4268 19.9747 12.9168 19.9747ZM13.4148 16.0087C13.1488 15.6997 12.8878 15.4087 12.6408 15.1037C12.5368 14.9767 12.4568 14.9637 12.3168 15.0507C11.4808 15.5767 10.6358 16.0887 9.80183 16.6177C9.65083 16.7137 9.53183 16.8627 9.40383 16.9937C9.28483 17.1157 9.30083 17.2497 9.36583 17.3997C9.69083 18.1427 10.0078 18.8887 10.3288 19.6337C10.4508 19.9137 10.4968 19.9187 10.6838 19.6687C11.1788 19.0087 11.6718 18.3457 12.1648 17.6847L13.4148 16.0087ZM19.2098 15.2207C19.1448 15.3257 19.1138 15.3897 19.0698 15.4417C18.2778 16.4077 17.4848 17.3737 16.6868 18.3357C16.5568 18.4927 16.6238 18.5547 16.7708 18.6217C17.6878 19.0417 18.6008 19.4687 19.5198 19.8867C19.6375 19.9397 19.7648 19.9683 19.8938 19.9707C20.6498 19.9777 21.4068 19.9757 22.1638 19.9717C22.2338 19.9717 22.3048 19.9397 22.3758 19.9217C22.3508 19.8477 22.3398 19.7627 22.2958 19.6997C21.5982 18.681 20.8986 17.6636 20.1968 16.6477C19.8868 16.1977 19.5748 15.7477 19.2098 15.2207ZM15.9928 20.9977C12.5508 20.9977 9.10883 20.9967 5.66683 20.9997C5.39883 20.9997 5.15683 20.9697 5.04083 20.6817C4.93083 20.4087 5.05883 20.2067 5.23783 20.0157C6.26583 18.9177 7.30783 17.8317 8.30783 16.7097C8.68983 16.2817 8.98483 15.7727 9.30783 15.2917C10.3428 13.7437 11.3698 12.1897 12.4098 10.6457C12.5118 10.4947 12.6678 10.3417 12.8318 10.2817C13.0578 10.1977 13.2508 10.3277 13.3948 10.5337C14.2318 11.7297 15.0748 12.9217 15.9158 14.1157C16.0888 14.3597 16.1508 14.3517 16.2788 14.0737L18.8728 8.42371C18.9748 8.20171 19.1098 8.01271 19.3728 8.00071C19.6478 7.98771 19.8148 8.15471 19.9438 8.39071C21.2458 10.7527 22.5178 13.1347 23.8708 15.4667C24.6888 16.8767 25.6358 18.2077 26.5248 19.5747C26.6348 19.7427 26.7458 19.9097 26.8538 20.0797C26.9838 20.2847 27.0608 20.5097 26.9388 20.7367C26.8188 20.9567 26.5968 20.9987 26.3638 20.9987C22.9068 20.9967 19.4498 20.9977 15.9928 20.9977Z" fill="white"/>
</svg>
