<svg width="32" height="32" viewBox="0 0 32 32" fill="none" xmlns="http://www.w3.org/2000/svg">
<path d="M16 32C24.8366 32 32 24.8366 32 16C32 7.16344 24.8366 0 16 0C7.16344 0 0 7.16344 0 16C0 24.8366 7.16344 32 16 32Z" fill="#E9570F"/>
<path d="M24.14 9.91417L25.747 8.32017C26.127 7.94417 26.048 7.25617 25.573 6.78517C25.098 6.31317 24.403 6.23617 24.024 6.61317L21.008 9.60317L20.905 9.70617L18.277 12.3112C17.4035 11.6812 16.3351 11.3809 15.2612 11.4632C14.1874 11.5456 13.1773 12.0054 12.41 12.7612C11.649 13.515 11.1845 14.5173 11.1011 15.5852C11.0178 16.6531 11.3212 17.7154 11.956 18.5782L9.95004 20.5682C9.42972 19.8748 9.02794 19.1 8.76104 18.2752C8.08804 16.2372 8.26904 14.0052 9.36104 12.1652C11.064 9.29517 14.111 8.04717 16.999 8.41317C17.1445 8.43356 17.2925 8.42379 17.434 8.38447C17.5755 8.34516 17.7074 8.27714 17.8215 8.18464C17.9356 8.09215 18.0294 7.97717 18.0971 7.84685C18.1648 7.71654 18.2049 7.57368 18.215 7.42717C18.234 7.09103 18.1225 6.76053 17.9038 6.50456C17.6851 6.24859 17.376 6.0869 17.041 6.05317C14.14 5.75617 11.141 6.70317 8.92604 8.89917C5.25604 12.5372 5.04104 18.3082 8.26604 22.2372L6.42604 24.0622C6.06304 24.4222 6.15304 25.0972 6.62904 25.5682C7.10404 26.0392 7.78404 26.1302 8.14704 25.7702L10.128 23.8062H10.129L11.561 22.3862L11.564 22.3822L13.886 20.0802C14.7117 20.4165 15.6179 20.5033 16.4924 20.3298C17.3669 20.1563 18.1713 19.7302 18.806 19.1042C19.4362 18.4807 19.8664 17.6837 20.0419 16.8147C20.2173 15.9458 20.13 15.0443 19.791 14.2252L22.425 11.6142C24.356 14.5222 23.973 18.5482 21.315 21.1822C20.5158 21.9784 19.5549 22.5939 18.4974 22.9871C17.4399 23.3802 16.3104 23.5419 15.185 23.4612C14.9317 23.4466 14.6826 23.5311 14.4904 23.6968C14.2982 23.8625 14.178 24.0965 14.155 24.3492L14.127 24.6692C14.1145 24.8091 14.1304 24.9502 14.174 25.0838C14.2176 25.2174 14.2878 25.3408 14.3805 25.4465C14.4731 25.5521 14.5863 25.6379 14.7131 25.6985C14.8398 25.7591 14.9776 25.7934 15.118 25.7992C16.5606 25.8766 18.0033 25.6499 19.3525 25.1337C20.7018 24.6176 21.9275 23.8236 22.95 22.8032C26.547 19.2362 26.963 13.7422 24.14 9.91317V9.91417ZM17.139 17.4492C16.7312 17.851 16.1816 18.0763 15.609 18.0763C15.0365 18.0763 14.4869 17.851 14.079 17.4492C13.8787 17.2507 13.7197 17.0145 13.6112 16.7542C13.5027 16.4939 13.4469 16.2147 13.4469 15.9327C13.4469 15.6507 13.5027 15.3715 13.6112 15.1112C13.7197 14.8509 13.8787 14.6147 14.079 14.4162C14.4868 14.0141 15.0364 13.7887 15.609 13.7887C16.1817 13.7887 16.7313 14.0141 17.139 14.4162C17.3393 14.6147 17.4983 14.8509 17.6068 15.1112C17.7154 15.3715 17.7712 15.6507 17.7712 15.9327C17.7712 16.2147 17.7154 16.4939 17.6068 16.7542C17.4983 17.0145 17.3393 17.2507 17.139 17.4492Z" fill="white"/>
</svg>
