<svg width="32" height="32" viewBox="0 0 32 32" fill="none" xmlns="http://www.w3.org/2000/svg">
<path d="M16 32C24.8366 32 32 24.8366 32 16C32 7.16344 24.8366 0 16 0C7.16344 0 0 7.16344 0 16C0 24.8366 7.16344 32 16 32Z" fill="#5244D4"/>
<path d="M15.7 27.4C9.238 27.4 4 22.162 4 15.7C4 9.238 9.238 4 15.7 4C22.162 4 27.4 9.238 27.4 15.7C27.4 22.162 22.162 27.4 15.7 27.4ZM18.59 19.7L15.7 15.7L12.81 19.7L10.46 15.7L13.08 11.22H18.32L20.94 15.7L18.59 19.7ZM19.45 9.3H11.95L8.21 15.7L11.96 22.1H19.45L23.19 15.7L19.45 9.3Z" fill="white"/>
</svg>
