<svg width="32" height="32" viewBox="0 0 32 32" fill="none" xmlns="http://www.w3.org/2000/svg">
<path d="M16 32C24.8366 32 32 24.8366 32 16C32 7.16344 24.8366 0 16 0C7.16344 0 0 7.16344 0 16C0 24.8366 7.16344 32 16 32Z" fill="#252525"/>
<path d="M25.628 21.209C25.7281 21.2111 25.8233 21.2526 25.893 21.3245C25.9626 21.3964 26.0011 21.4929 26 21.593V23.5H19.721L19.697 21.84C19.6974 21.7859 19.7094 21.7325 19.7324 21.6834C19.7553 21.6344 19.7886 21.5909 19.83 21.556C19.8548 21.5241 19.883 21.4949 19.914 21.469C22.681 19.539 23.744 15.864 22.456 12.685C21.167 9.506 17.884 7.707 14.609 8.385C11.335 9.062 8.978 12.029 8.977 15.475C8.975 17.83 10.097 20.035 11.978 21.37C12.019 21.3929 12.0523 21.4274 12.074 21.469C12.1423 21.5009 12.2001 21.5516 12.2407 21.6152C12.2813 21.6788 12.3029 21.7526 12.303 21.828L12.279 23.488H6V21.58C6 21.368 6.167 21.196 6.372 21.196C6.577 21.196 6.744 21.368 6.744 21.58V22.732H11.546L11.558 22.014H11.546C8.785 20.012 7.6 16.396 8.616 13.076C9.635 9.756 12.62 7.5 15.995 7.5C19.37 7.5 22.355 9.756 23.372 13.076C24.389 16.396 23.204 20.012 20.442 22.014L20.455 22.744H25.257V21.593C25.2559 21.4929 25.2944 21.3964 25.364 21.3245C25.4337 21.2526 25.5289 21.2111 25.629 21.209H25.628ZM20.67 16.033C21.498 17.086 21.75 18.027 21.39 18.646C21.114 19.129 20.526 19.389 19.673 19.389C19.1374 19.3759 18.6054 19.297 18.089 19.154C17.621 20.789 16.864 21.842 16 21.842C15.136 21.842 14.38 20.789 13.923 19.154C13.4066 19.297 12.8746 19.3759 12.339 19.389C11.486 19.389 10.898 19.129 10.622 18.646C10.178 17.878 10.682 16.677 11.834 15.451C11.6598 15.2701 11.4956 15.0798 11.342 14.881C10.514 13.828 10.262 12.899 10.622 12.255C10.898 11.772 11.486 11.512 12.339 11.512C12.8747 11.5254 13.4067 11.6046 13.923 11.748C14.391 10.113 15.148 9.06 16.012 9.06C16.876 9.06 17.632 10.113 18.089 11.76C18.6054 11.617 19.1374 11.5381 19.673 11.525C20.526 11.525 21.114 11.785 21.39 12.268C21.75 12.912 21.498 13.841 20.67 14.894C20.5163 15.0927 20.3521 15.2829 20.178 15.464C20.352 15.644 20.516 15.834 20.67 16.033ZM19.685 11.983C19.1868 11.9987 18.6918 12.0691 18.209 12.193C18.338 12.781 18.429 13.377 18.485 13.977C18.959 14.327 19.412 14.708 19.842 15.117C20.01 14.943 20.166 14.757 20.31 14.584C20.994 13.704 21.246 12.949 20.994 12.491C20.766 12.07 20.154 11.983 19.685 11.983ZM17.045 17.321C17.393 17.111 17.729 16.888 18.041 16.665C18.077 16.268 18.089 15.872 18.089 15.451C18.089 15.03 18.065 14.621 18.041 14.237C17.7169 14.0098 17.3843 13.795 17.044 13.593C16.7012 13.3977 16.3531 13.212 16 13.036C15.642 13.202 15.294 13.388 14.956 13.593C14.596 13.803 14.271 14.014 13.959 14.237C13.923 14.621 13.911 15.03 13.911 15.451C13.911 15.871 13.935 16.281 13.959 16.665C14.6077 17.1204 15.29 17.5259 16 17.878C16.358 17.712 16.706 17.526 17.044 17.321H17.045ZM17.993 17.284C17.753 17.432 17.525 17.581 17.285 17.73C17.045 17.878 16.805 18.015 16.565 18.138C16.959 18.316 17.364 18.469 17.777 18.597C17.861 18.188 17.933 17.754 17.993 17.284ZM15.46 18.138L14.74 17.73C14.5 17.581 14.26 17.432 14.031 17.284C14.074 17.726 14.146 18.164 14.247 18.597C14.659 18.467 15.064 18.314 15.46 18.138ZM13.491 16.305C13.4767 16.0205 13.4687 15.7358 13.467 15.451C13.467 15.154 13.479 14.881 13.491 14.596C13.142 14.86 12.809 15.145 12.495 15.451C12.811 15.754 13.144 16.04 13.491 16.305ZM14.031 13.643C14.2566 13.4846 14.4888 13.3358 14.727 13.197C14.98 13.048 15.22 12.912 15.46 12.788C15.065 12.61 14.66 12.458 14.247 12.33C14.163 12.738 14.091 13.172 14.031 13.643ZM16.552 12.788C16.792 12.912 17.032 13.048 17.272 13.197C17.512 13.345 17.752 13.494 17.981 13.643C17.9385 13.201 17.8663 12.7623 17.765 12.33C17.353 12.46 16.948 12.612 16.552 12.788ZM18.533 14.608C18.545 14.894 18.557 15.166 18.557 15.463C18.557 15.76 18.545 16.045 18.533 16.318C18.881 16.033 19.217 15.748 19.517 15.463C19.2084 15.1567 18.8796 14.8714 18.533 14.609V14.608ZM16.012 9.531C15.4 9.531 14.776 10.398 14.367 11.871C14.929 12.048 15.478 12.263 16.012 12.514C16.5453 12.2634 17.0949 12.0489 17.657 11.872C17.248 10.398 16.612 9.531 16.012 9.531ZM11.03 12.491C10.766 12.949 11.018 13.717 11.714 14.571C11.858 14.756 12.014 14.929 12.182 15.115C12.61 14.705 13.062 14.325 13.539 13.977C13.594 13.377 13.686 12.781 13.815 12.194C13.333 12.064 12.837 11.994 12.339 11.983C11.87 11.983 11.27 12.07 11.03 12.491ZM12.339 18.931C12.838 18.921 13.334 18.846 13.815 18.707C13.6863 18.1193 13.5941 17.5241 13.539 16.925C13.056 16.581 12.599 16.2 12.17 15.785C11.138 16.888 10.73 17.878 11.03 18.423C11.258 18.844 11.87 18.931 12.339 18.931ZM16.012 21.383C16.612 21.383 17.248 20.516 17.657 19.043C17.0948 18.8655 16.5453 18.6503 16.012 18.399C15.4785 18.6498 14.929 18.865 14.367 19.043C14.776 20.516 15.412 21.383 16.012 21.383ZM20.994 18.423C21.246 17.977 20.994 17.21 20.31 16.33C20.1608 16.1468 20.0047 15.9693 19.842 15.798C19.414 16.208 18.962 16.588 18.485 16.938C18.4301 17.5375 18.3379 18.133 18.209 18.721C18.691 18.85 19.187 18.921 19.685 18.931C20.154 18.931 20.754 18.844 20.994 18.423ZM16.012 13.643C16.982 13.643 17.77 14.45 17.777 15.451C17.777 16.448 16.994 17.257 16.028 17.259C15.062 17.261 14.276 16.456 14.271 15.459C14.267 14.462 15.046 13.649 16.012 13.643ZM16.012 16.801C16.726 16.795 17.303 16.2 17.309 15.463C17.309 14.724 16.729 14.126 16.012 14.126C15.295 14.126 14.715 14.724 14.715 15.463C14.715 16.202 15.296 16.801 16.012 16.801Z" fill="white"/>
</svg>
