<svg width="32" height="32" viewBox="0 0 32 32" fill="none" xmlns="http://www.w3.org/2000/svg">
<path d="M16 32C24.8366 32 32 24.8366 32 16C32 7.16344 24.8366 0 16 0C7.16344 0 0 7.16344 0 16C0 24.8366 7.16344 32 16 32Z" fill="#0971FE"/>
<path fill-rule="evenodd" clip-rule="evenodd" d="M15.7749 4.54799C15.3409 4.62199 15.3619 4.61299 14.3339 5.22399C13.7029 5.59899 13.3339 5.81399 13.3179 5.81399C13.2817 5.82996 13.2475 5.8501 13.2159 5.87399C13.1679 5.90899 12.9699 6.02899 12.7759 6.14399C12.3216 6.41371 11.8663 6.68171 11.4099 6.94799C11.1709 7.08799 10.6359 7.40199 10.2199 7.64799L9.14393 8.27799C8.58793 8.59999 6.89993 9.60399 6.79393 9.67699C6.50993 9.87299 6.14193 10.434 6.09093 10.747C6.07793 10.827 6.05293 10.902 6.03393 10.914C5.98193 10.948 5.99293 20.982 6.04493 21.132L6.16293 21.466C6.29893 21.854 6.62293 22.25 6.96293 22.446C7.04893 22.495 7.38693 22.693 7.71393 22.887C8.32908 23.2518 8.94509 23.6151 9.56193 23.977C9.59693 23.997 9.67693 24.047 9.73893 24.085C9.80093 24.125 9.88693 24.175 9.93193 24.197C9.97593 24.22 10.1839 24.342 10.3919 24.468C10.7719 24.698 10.8519 24.745 11.1849 24.933C11.2819 24.988 11.5059 25.119 11.6829 25.225C12.6699 25.8029 13.6552 26.3836 14.6389 26.967C15.7689 27.635 16.2389 27.663 17.1619 27.12C18.0083 26.6223 18.8543 26.124 19.6999 25.625C20.8299 24.962 21.5319 24.547 22.2069 24.145C22.5879 23.918 22.9702 23.6933 23.3539 23.471L23.7069 23.265C25.5119 22.228 25.6829 22.085 25.9239 21.403L25.9999 21.191L25.9989 16.009L25.9979 10.826L25.9239 10.61C25.7439 10.08 25.4539 9.765 24.8099 9.39199C24.5709 9.25399 23.9129 8.86799 23.3469 8.53499C22.1366 7.82197 20.9266 7.1083 19.7169 6.39399C18.5569 5.70799 18.1089 5.44399 17.9649 5.36199C17.6629 5.18799 16.9849 4.77999 16.9689 4.76199C16.9089 4.69399 16.1329 4.47699 16.0339 4.50199L15.7739 4.54799H15.7749ZM16.6039 7.43099C16.7999 7.49799 18.4929 8.47799 22.0299 10.573C23.0449 11.174 23.1779 11.287 23.4399 11.767C23.6629 12.178 23.6559 12.039 23.6449 16.09L23.6359 19.735L23.5639 19.939C23.4596 20.2376 23.2925 20.5104 23.0739 20.739C22.8969 20.917 22.7909 20.985 21.6219 21.671C21.4399 21.778 21.0689 21.997 20.7989 22.159C20.5279 22.321 20.2989 22.445 20.2889 22.436C20.2799 22.426 20.2689 20.313 20.2649 17.74L20.2579 13.062L20.1889 12.87C19.9899 12.312 19.8419 12.176 18.6879 11.495L17.7559 10.945L17.7399 12.825L17.7239 14.705H14.3819L14.3739 11.363L14.3659 8.02099L14.7629 7.78899C15.5809 7.30999 16.0109 7.226 16.6039 7.43099ZM11.8599 14.253C11.8599 19.025 11.8599 19.068 11.9899 19.346C12.1799 19.757 12.3819 19.94 13.1129 20.358C13.2979 20.464 13.5149 20.591 13.5949 20.64C13.8149 20.778 14.3249 21.066 14.3459 21.066C14.3559 21.066 14.3689 20.234 14.3739 19.217L14.3819 17.368L16.0619 17.359L17.7399 17.351L17.7319 20.661L17.7239 23.971L17.2579 24.245C16.2379 24.844 15.8079 24.831 14.6859 24.17L13.5299 23.491C13.089 23.2336 12.65 22.9729 12.2129 22.709L11.5949 22.344C11.3176 22.1779 11.0385 22.0146 10.7579 21.854C10.5072 21.7108 10.2585 21.5641 10.0119 21.414C9.8676 21.3268 9.72294 21.2401 9.57793 21.154C8.92993 20.774 8.64793 20.435 8.48793 19.849C8.39793 19.513 8.38393 12.578 8.47293 12.214C8.59293 11.725 8.88693 11.293 9.27293 11.038C9.66693 10.777 11.7479 9.56399 11.8029 9.56299C11.8579 9.56099 11.8599 9.79099 11.8599 14.253Z" fill="white"/>
</svg>
