<svg width="32" height="32" viewBox="0 0 32 32" fill="none" xmlns="http://www.w3.org/2000/svg">
<path d="M16 32C24.8366 32 32 24.8366 32 16C32 7.16344 24.8366 0 16 0C7.16344 0 0 7.16344 0 16C0 24.8366 7.16344 32 16 32Z" fill="#FF3B81"/>
<path d="M8.459 22.141V22.282H6.982V19.615L6.936 19.763L5.525 19.337L6.322 16.767L6.224 16.911L5 16.098L6.53 13.864L6.384 13.98L5.454 12.85L7.655 11.094L7.375 11.201L6.845 9.843L9.474 8.849L9.166 8.869L9.064 7.419L11.816 7.229L11.567 7.173L11.899 5.756L14.529 6.354L14.363 6.26L15.1 5L17.393 6.304L17.303 6.21L18.383 5.218L20.169 7.104L20.131 7.028L21.458 6.39L22.604 8.704L22.594 8.639L24.051 8.411L24.481 11.084L24.511 10.894L25.97 11.121L25.534 13.833L25.641 13.615L26.968 14.253L25.74 16.734L25.92 16.544L26.999 17.537L25.09 19.553L25.321 19.422L26.059 20.682L23.66 22.046L23.901 21.991L24.234 23.408L21.582 24.011L21.787 24.025L21.684 25.476L19.03 25.293L19.165 25.344L18.635 26.702L16.095 25.742L16.256 25.87L15.327 27L13.23 25.327L13.334 25.478L12.11 26.292L10.61 24.102L10.655 24.246L9.243 24.672L8.459 22.141ZM8.459 20.413L9.381 20.135L10.097 22.445L10.895 21.915L12.257 23.905L12.866 23.165L14.754 24.671L15.092 23.804L17.368 24.664L17.434 23.725L19.87 23.893L19.65 22.958L22.038 22.415L21.543 21.571L23.674 20.359L22.944 19.689L24.627 17.911L23.729 17.479L24.812 15.293L23.83 15.139L24.216 12.739L23.276 12.885L22.891 10.485L22.045 10.891L20.97 8.721L20.28 9.354L18.618 7.597L18.142 8.409L16.037 7.212L15.819 8.14L13.451 7.601L13.52 8.57L11.089 8.737L11.448 9.66L9.158 10.526L9.775 11.275L7.853 12.808L8.664 13.347L7.28 15.37L8.213 15.652L7.49 17.983H8.46L8.459 20.413ZM15.709 17.688C15.709 17.32 15.579 17.039 15.32 16.844C15.06 16.645 14.595 16.437 13.921 16.221C13.247 16.001 12.714 15.784 12.321 15.571C11.251 14.991 10.715 14.211 10.715 13.228C10.715 12.717 10.857 12.262 11.142 11.864C11.432 11.461 11.844 11.147 12.379 10.922C12.919 10.697 13.524 10.585 14.193 10.585C14.867 10.585 15.467 10.708 15.993 10.955C16.52 11.197 16.928 11.541 17.218 11.987C17.5132 12.4384 17.6664 12.9678 17.658 13.507H15.715C15.715 13.074 15.579 12.738 15.307 12.5C15.035 12.258 14.653 12.137 14.161 12.137C13.686 12.137 13.316 12.238 13.053 12.442C12.9275 12.5317 12.8259 12.6508 12.7571 12.7889C12.6882 12.927 12.6542 13.0798 12.658 13.234C12.658 13.541 12.811 13.799 13.118 14.007C13.428 14.214 13.884 14.409 14.484 14.591C15.59 14.924 16.395 15.338 16.9 15.831C17.406 16.325 17.658 16.94 17.658 17.675C17.658 18.494 17.349 19.136 16.732 19.604C16.114 20.067 15.283 20.299 14.238 20.299C13.5568 20.308 12.8814 20.1731 12.256 19.903C11.661 19.634 11.205 19.268 10.89 18.805C10.579 18.342 10.423 17.805 10.423 17.195H12.373C12.373 18.238 12.995 18.76 14.238 18.76C14.7 18.76 15.061 18.667 15.32 18.48C15.4455 18.3906 15.5467 18.2715 15.6147 18.1332C15.6826 17.9949 15.715 17.8419 15.709 17.688ZM21.639 11.89L19.766 18.742L18.223 18.634L19.39 11.57L21.639 11.89ZM20.005 19.456L19.518 21.877L17.466 21.278L17.937 18.956L20.005 19.456Z" fill="white"/>
</svg>
