<svg width="32" height="32" viewBox="0 0 32 32" fill="none" xmlns="http://www.w3.org/2000/svg">
<path d="M16 32C24.8366 32 32 24.8366 32 16C32 7.16344 24.8366 0 16 0C7.16344 0 0 7.16344 0 16C0 24.8366 7.16344 32 16 32Z" fill="#00004D"/>
<path d="M15.5052 6.2738C15.4132 6.6638 15.1372 7.89381 15.0112 8.7178C14.9612 9.0558 14.7512 9.5068 15.3372 9.7498C15.2032 9.7758 15.1622 9.7928 15.1202 9.7838C14.7022 9.7318 14.2752 9.6718 13.8572 9.6198C13.7652 9.6108 13.6482 9.5938 13.5642 9.6368C13.0042 9.9318 12.7542 10.6338 13.0372 11.2318C13.1972 11.5698 13.2472 11.8818 13.1802 12.2378C13.1717 12.33 13.189 12.4228 13.2302 12.5058C13.5562 13.3038 13.6152 14.1008 13.3552 14.9328C13.3132 15.0628 13.3392 15.2198 13.3472 15.3578C13.3642 15.6268 13.3802 15.8958 13.4052 16.1638C12.9952 15.8348 12.5452 15.5398 12.2012 15.1408C12.0302 14.9399 11.9008 14.707 11.8204 14.4557C11.7401 14.2044 11.7105 13.9397 11.7332 13.6768C11.7412 13.5728 11.6582 13.4508 11.5912 13.3558C11.3982 13.0698 11.1732 12.8098 11.0142 12.5058C10.7882 12.0728 10.5122 11.8908 10.0602 12.0298C9.83523 12.0988 9.62523 12.2458 9.43323 12.3938C9.26623 12.5138 9.12323 12.6708 8.97323 12.8098C8.95623 12.7918 8.93123 12.7748 8.91523 12.7578C8.94023 12.6968 8.94823 12.6278 8.98223 12.5668C9.21623 12.1338 9.20723 12.1418 8.88223 11.7778C8.25423 11.0758 7.71023 10.3218 7.47623 9.3678C7.35923 8.8918 7.21623 8.4228 7.09223 7.9548C6.46423 8.7348 6.38123 11.5448 7.00023 12.6538C6.80723 11.6738 6.61523 10.7468 6.83223 9.7928C6.87423 10.0098 6.89923 10.2178 6.90823 10.4348C6.94123 11.2058 7.12523 11.9348 7.45123 12.6188C7.51823 12.7658 7.71123 12.8528 7.85323 12.9568C7.90323 12.9918 7.97023 13.0088 8.02823 13.0348C8.02023 13.0698 8.02023 13.1048 8.01123 13.1298C7.70223 13.1128 7.40123 13.0778 7.09123 13.0698C6.89123 13.0608 6.65723 13.0088 6.49823 13.0958C6.28823 13.2078 6.12123 13.4258 6.00423 13.6418C5.97123 13.7018 6.13823 13.9448 6.26423 14.0408C6.59823 14.2918 6.82423 14.5688 6.77423 15.0368C6.76523 15.1498 6.89123 15.3498 7.00023 15.3928C7.30023 15.5058 7.38423 15.7308 7.43423 16.0168C7.46823 16.1988 7.49323 16.4328 7.61023 16.5368C7.98623 16.8838 8.10323 17.2998 8.11223 17.8028C8.12023 18.1228 8.28723 18.4528 8.24623 18.7648C8.21223 19.0338 8.26223 19.2328 8.37123 19.3888H8.36323L8.38823 19.4148C8.45523 19.5188 8.54723 19.6048 8.65523 19.6838L8.87323 19.8918C8.87323 19.8918 9.24923 20.2988 9.25723 20.6978C9.26623 21.0968 9.23223 21.1478 9.34923 21.5038C9.46723 21.8508 9.62523 22.1278 9.67623 22.4228C9.72623 22.7178 9.61723 22.8038 9.79323 22.9948C9.96823 23.1848 10.1612 23.3148 10.3612 23.5328C10.5542 23.7578 10.8302 23.8358 11.0142 24.0268C11.1982 24.2168 11.4902 24.5728 11.7162 24.7978C11.8332 24.9198 11.9922 25.0148 12.1092 25.0838C12.1432 25.1188 12.1592 25.1358 12.1512 25.1538C11.9922 25.4998 12.3182 25.4918 12.4442 25.6038C12.6612 25.7948 12.9712 25.9158 13.1292 26.1498C13.4142 26.5748 13.7822 26.7918 14.2422 26.9218C14.2842 26.9308 14.3342 26.9388 14.3502 26.9648C14.4092 27.0348 14.4502 27.1208 14.5012 27.1988C14.4842 27.2248 14.4592 27.2508 14.4422 27.2768C14.9022 27.4418 15.3622 27.6148 15.8222 27.7708C15.9142 27.8058 16.0322 27.8058 16.1152 27.7808C16.5002 27.6508 16.8852 27.5108 17.2692 27.3728C17.3442 27.3468 17.4612 27.2688 17.4532 27.2338C17.3952 26.9568 17.6202 26.9998 17.7462 26.9308C18.0462 26.7658 18.3982 26.6448 18.6242 26.4108C18.9002 26.1158 19.1512 25.8118 19.5192 25.6128C19.6692 25.5258 19.9702 25.4918 19.8192 25.1628C19.8112 25.1448 19.8952 25.0758 19.9372 25.0328C19.9952 24.9798 20.0622 24.9368 20.1462 24.8678C20.2042 24.8418 20.2712 24.7978 20.3802 24.7198C20.7204 24.4404 21.0365 24.133 21.3252 23.8008C21.5252 23.5498 21.8522 23.2378 21.8522 23.2378C21.8522 23.2378 21.6422 22.7438 21.7772 22.3098L22.4872 21.7818C22.6382 21.4608 22.6802 21.3388 22.8472 21.0098C23.0062 20.6798 23.0472 20.0478 23.2742 19.7958C23.4742 19.5798 23.7172 19.4058 23.7082 19.2678C23.7608 19.1205 23.7779 18.9629 23.7582 18.8078C23.7342 18.5828 23.8082 18.3478 23.8342 18.1228C23.8512 17.9328 23.8342 17.7418 23.8842 17.5598C23.9682 17.2648 24.0262 16.9188 24.2102 16.7098C24.4102 16.4848 24.5452 16.2858 24.5702 15.9818C24.5952 15.7218 24.6952 15.5138 24.9552 15.3918C25.0802 15.3318 25.2052 15.1238 25.2052 14.9848C25.1972 14.5948 25.3222 14.3178 25.6402 14.1098C25.7322 14.0498 25.8002 13.9448 25.8912 13.8758C26.0412 13.7628 26.0172 13.6328 25.9332 13.4858C25.7162 13.0958 25.3892 12.9568 24.9552 13.0358C24.6282 13.0958 24.1352 13.1298 23.9592 13.1298C23.7842 13.1298 23.9092 12.9998 23.9092 12.9998C24.5282 12.9828 24.6032 12.4718 24.7452 12.0558C24.8632 11.7088 24.9292 11.3448 24.9882 10.9808C25.0472 10.6338 25.0472 10.4688 25.1132 9.9308C25.1802 9.3938 25.3392 10.9718 25.0882 12.2638C25.5902 11.5008 25.4312 8.7348 24.8712 7.9208C24.8542 7.9378 24.8372 7.9468 24.8372 7.9638C24.8122 8.0678 24.7962 8.1718 24.7712 8.2758C24.5282 9.6018 24.0262 10.7898 23.0982 11.7608C22.7552 12.1158 22.7722 12.1248 23.0062 12.5838C23.0312 12.6278 23.0312 12.6878 23.0392 12.7488C22.8392 12.6538 22.6892 12.5148 22.5382 12.3848C22.4064 12.2575 22.2503 12.1581 22.0791 12.0926C21.908 12.0271 21.7254 11.9969 21.5422 12.0038C21.1422 12.0038 21.0322 12.2978 20.9152 12.5838C20.6982 13.1038 20.1882 13.4248 20.1712 14.1188C20.1462 15.1328 19.2432 15.6438 18.6572 16.3198C18.6492 16.3298 18.6242 16.3118 18.5902 16.3118C18.5822 16.2768 18.5572 16.2338 18.5652 16.1988C18.5652 15.5748 18.7332 14.9418 18.4572 14.3438C18.4402 14.3088 18.4482 14.2568 18.4572 14.2228C18.5652 13.3468 18.6662 12.4798 18.7832 11.6128C18.7992 11.5008 18.8582 11.3968 18.9082 11.2928C19.2012 10.6688 18.9832 9.9578 18.3902 9.6458C18.317 9.61259 18.236 9.60047 18.1562 9.6108C17.8292 9.6538 17.5122 9.7148 17.1942 9.7578C17.0342 9.7838 16.8682 9.7838 16.7092 9.7928C16.7002 9.7668 16.6922 9.7408 16.6842 9.7228C16.9512 9.6368 17.0852 9.47281 17.0272 9.1778L16.4242 6.1778C16.4082 6.0998 16.3912 5.7098 16.4832 5.9098C16.5752 6.1178 16.8682 7.0098 17.0352 7.5738C17.1942 8.1198 17.3192 8.6838 17.4612 9.2378C17.2272 7.6868 16.8682 6.1778 15.9812 4.7998C15.7451 5.09564 15.5562 5.42622 15.4212 5.7798C15.206 6.41079 15.0053 7.04663 14.8192 7.6868C14.6772 8.1808 14.3092 9.1518 14.4682 9.1768C14.6262 9.2038 15.4042 6.2908 15.4542 6.0828C15.5042 5.8748 15.5972 5.8828 15.5042 6.2728L15.5052 6.2738Z" fill="white"/>
</svg>
