<svg width="32" height="32" viewBox="0 0 32 32" fill="none" xmlns="http://www.w3.org/2000/svg">
<path d="M16 32C24.8366 32 32 24.8366 32 16C32 7.16344 24.8366 0 16 0C7.16344 0 0 7.16344 0 16C0 24.8366 7.16344 32 16 32Z" fill="#4A90E2"/>
<path d="M24.95 11C24.092 11 23.367 11.693 23.367 12.583C23.367 13.837 23.169 14.166 21.783 14.166H21.651C21.263 14.1987 20.9016 14.3764 20.6388 14.6636C20.376 14.9509 20.2311 15.3267 20.233 15.716V15.75C20.233 16.97 20.003 17.267 18.65 17.267C18.584 17.267 18.518 17.267 18.485 17.3C17.693 17.399 17.067 18.058 17.067 18.85C17.067 19.708 17.759 20.433 18.65 20.433C19.475 20.433 20.167 19.773 20.2 18.982V18.85C20.2 17.729 20.563 17.3 21.75 17.267H21.783C22.608 17.267 23.301 16.607 23.333 15.783V15.683C23.333 14.529 23.696 14.1 24.917 14.1C25.774 14.1 26.5 13.408 26.5 12.517C26.5 11.693 25.807 11 24.95 11ZM15.648 14.166C16.0327 14.2007 16.3917 14.3736 16.6587 14.6527C16.9257 14.9318 17.0825 15.2982 17.1 15.684C17.1 16.574 16.407 17.267 15.516 17.267C14.626 17.267 13.933 16.541 13.933 15.684C13.933 14.562 13.57 14.134 12.35 14.134C11.13 14.134 10.767 14.562 10.767 15.717V15.816C10.734 16.607 10.041 17.266 9.217 17.266C8.327 17.266 7.633 16.541 7.633 15.684C7.633 14.859 8.26 14.199 9.052 14.134H9.184C10.569 14.134 10.767 13.837 10.767 12.584C10.7816 12.1739 10.9547 11.7855 11.25 11.5005C11.5453 11.2155 11.9396 11.0563 12.35 11.0563C12.7604 11.0563 13.1547 11.2155 13.45 11.5005C13.7453 11.7855 13.9184 12.1739 13.933 12.584C13.933 13.837 14.131 14.166 15.516 14.166H15.648ZM6.083 20.433C5.66316 20.433 5.26052 20.2662 4.96365 19.9694C4.66678 19.6725 4.5 19.2698 4.5 18.85C4.5 18.4302 4.66678 18.0275 4.96365 17.7306C5.26052 17.4338 5.66316 17.267 6.083 17.267C6.50284 17.267 6.90548 17.4338 7.20235 17.7306C7.49922 18.0275 7.666 18.4302 7.666 18.85C7.666 19.2698 7.49922 19.6725 7.20235 19.9694C6.90548 20.2662 6.50284 20.433 6.083 20.433Z" fill="white"/>
</svg>
