<svg width="32" height="32" viewBox="0 0 32 32" fill="none" xmlns="http://www.w3.org/2000/svg">
<path d="M16 32C24.8366 32 32 24.8366 32 16C32 7.16344 24.8366 0 16 0C7.16344 0 0 7.16344 0 16C0 24.8366 7.16344 32 16 32Z" fill="#23BEE2"/>
<path d="M19.879 13.469L23.118 10.057C24.512 11.7213 25.2744 13.824 25.271 15.995C25.271 21.112 21.121 25.261 16 25.261C14.4376 25.2629 12.9003 24.8682 11.532 24.114L19.77 19.868L21.112 19.176L19.869 18.317L18.981 17.703L21.571 16.381L22.859 15.723L21.705 14.851L19.879 13.469ZM12.121 19.003L9.101 22.183C7.57141 20.4852 6.7262 18.2802 6.729 15.995C6.729 10.877 10.879 6.728 16 6.728C17.7348 6.72566 19.4351 7.21226 20.906 8.132L12.23 12.604L10.888 13.297L12.131 14.155L13.019 14.769L10.429 16.092L9.141 16.749L10.295 17.622L12.121 19.003ZM8.536 22.78L7.911 23.438C6.03759 21.4124 4.99795 18.7541 5 15.995C5 9.932 9.935 5 16 5C18.493 5 20.796 5.834 22.643 7.237L21.741 7.702C20.0559 6.53065 18.0523 5.90385 16 5.906C10.435 5.906 5.907 10.432 5.907 15.995C5.907 18.605 6.903 20.986 8.537 22.779L8.536 22.78ZM23.684 9.46L24.312 8.8C26.0478 10.7948 27.0027 13.3507 27 15.995C27 22.057 22.065 26.989 16 26.989C13.765 26.9916 11.5828 26.3097 9.747 25.035L10.671 24.558C12.269 25.5565 14.1157 26.085 16 26.083C21.565 26.083 26.093 21.557 26.093 15.995C26.093 13.505 25.186 11.223 23.684 9.461V9.46ZM10.842 16.9L14.783 14.887L12.646 13.411L24.476 7.313L18.523 13.581L21.158 15.574L17.217 17.587L19.354 19.063L7.524 25.161L13.477 18.893L10.842 16.9Z" fill="white"/>
</svg>
