<svg width="32" height="32" viewBox="0 0 32 32" fill="none" xmlns="http://www.w3.org/2000/svg">
<path d="M16 32C24.8366 32 32 24.8366 32 16C32 7.16344 24.8366 0 16 0C7.16344 0 0 7.16344 0 16C0 24.8366 7.16344 32 16 32Z" fill="#32A4BE"/>
<path fill-rule="evenodd" clip-rule="evenodd" d="M25 24.217L9.977 9.52105C11.6409 7.89784 13.8755 6.9926 16.2 7.00005C21.06 7.00005 25 10.854 25 15.609V24.217ZM7 7.78305L22.023 22.479C20.3591 24.1022 18.1245 25.0075 15.8 25C10.94 25 7 21.146 7 16.391V7.78305Z" fill="white"/>
</svg>
