<svg width="32" height="32" viewBox="0 0 32 32" fill="none" xmlns="http://www.w3.org/2000/svg">
<path d="M16 32C24.8366 32 32 24.8366 32 16C32 7.16344 24.8366 0 16 0C7.16344 0 0 7.16344 0 16C0 24.8366 7.16344 32 16 32Z" fill="#565656"/>
<path d="M11.133 14.296H8.005V12.577H10.475L8.58 7.627L10.144 7L13.694 16.267L18.295 16.297L21.856 7L23.421 7.627L21.525 12.577H23.995V14.297H20.867L20.096 16.307L24 16.332L23.99 18.051L19.44 18.022L16 27L12.544 17.979L8 17.949L8.01 16.231L11.884 16.256L11.133 14.296ZM14.353 17.99L16 22.288L17.638 18.011L14.353 17.99Z" fill="white"/>
</svg>
