<svg width="32" height="32" viewBox="0 0 32 32" fill="none" xmlns="http://www.w3.org/2000/svg">
<path d="M16 32C24.8366 32 32 24.8366 32 16C32 7.16344 24.8366 0 16 0C7.16344 0 0 7.16344 0 16C0 24.8366 7.16344 32 16 32Z" fill="#F89022"/>
<path fill-rule="evenodd" clip-rule="evenodd" d="M28 18.962H25.636L23.959 17.526L22.288 18.956H20.29L19.335 17.796H16.043L16.876 16.767H18.495L17.262 15.259L12.957 20.5H10.96L12.206 18.978H10.125L9 15.824L7.884 18.954H5.773L4 14.041H5.62L6.812 17.387L8 14.056H10L11.185 17.38L12.369 14.055H13.994L12.206 18.978L12.604 18.492L16.256 14.047H18.266L21.305 17.755L22.767 16.498L18.14 12.5H20.515L28 18.962ZM25.655 15.99L24.54 15.034L25.653 14.086L27.903 14.088L25.655 15.99Z" fill="white"/>
</svg>
