<svg width="32" height="32" viewBox="0 0 32 32" fill="none" xmlns="http://www.w3.org/2000/svg">
<path d="M16 32C24.8366 32 32 24.8366 32 16C32 7.16344 24.8366 0 16 0C7.16344 0 0 7.16344 0 16C0 24.8366 7.16344 32 16 32Z" fill="#FFD81B"/>
<path d="M24 15.562C24 19.985 20.574 21.489 17.69 21.489V22.642H19.915V24.204H17.691V26H14.211V24.204H12.084V22.642H14.207V21.474C13.284 21.474 8 21.255 8 15.241V8H11.455V15.518C11.455 18.657 14.221 18.628 14.221 18.628V8H17.691V18.628C17.691 18.628 20.545 18.788 20.545 15.475V8H24V15.562Z" fill="white"/>
</svg>
