<svg width="32" height="32" viewBox="0 0 32 32" fill="none" xmlns="http://www.w3.org/2000/svg">
<path d="M16 32C24.8366 32 32 24.8366 32 16C32 7.16344 24.8366 0 16 0C7.16344 0 0 7.16344 0 16C0 24.8366 7.16344 32 16 32Z" fill="#006AD2"/>
<path fill-rule="evenodd" clip-rule="evenodd" d="M12.368 24.9999L12.847 23.7179L11.997 23.8019L11.691 24.6119C11.667 24.6729 11.647 24.7369 11.616 24.7949C11.549 24.9199 11.446 24.9979 11.303 24.9989C10.673 24.9999 10.045 24.9989 9.415 24.9979C9.4 24.9979 9.385 24.9889 9.352 24.9789L9.754 23.8939C9.021 23.8739 8.308 23.8619 7.598 23.7809C7.61 23.6479 11.66 13.4359 11.821 13.1289C11.861 13.1259 11.908 13.1189 11.956 13.1189H15.226C15.259 13.1189 15.292 13.1189 15.324 13.1209C15.655 13.1459 15.839 13.4259 15.724 13.7439C15.571 14.1639 15.409 14.5819 15.252 14.9999L13.194 20.4739C13.173 20.5299 13.155 20.5879 13.129 20.6639C13.187 20.6669 13.232 20.6729 13.277 20.6709C16.373 20.5359 18.645 19.0579 20.113 16.2809C20.434 15.674 20.66 15.0214 20.783 14.3459C20.856 13.9509 20.879 13.5549 20.78 13.1599C20.6802 12.7431 20.4321 12.377 20.082 12.1299C19.614 11.7929 19.088 11.6489 18.52 11.6459H7.5C7.524 11.5859 7.535 11.5459 7.554 11.5099L8.942 9.00889C9.00676 8.87849 9.10789 8.76963 9.23317 8.69546C9.35845 8.62128 9.50253 8.58496 9.648 8.59089H15.514L16.115 7.00089H17.897C17.941 7.00089 17.985 6.99789 18.027 7.00389C18.154 7.02389 18.227 7.12389 18.208 7.25389C18.2 7.30789 18.18 7.35989 18.16 7.41189C18.037 7.74289 17.911 8.07289 17.788 8.40389C17.767 8.45989 17.75 8.51689 17.728 8.58389H18.533C18.553 8.54089 18.573 8.49689 18.591 8.45189L19.087 7.13489C19.137 7.00189 19.139 7.00089 19.272 7.00089C19.836 7.00089 20.401 6.99889 20.965 7.00089C21.203 7.00189 21.288 7.12789 21.203 7.35789C21.068 7.72689 20.929 8.09289 20.791 8.45989C20.772 8.51089 20.755 8.56289 20.731 8.63289C20.786 8.64289 20.831 8.65289 20.876 8.65889C21.661 8.75489 22.425 8.93289 23.15 9.25989C23.701 9.50889 24.202 9.83389 24.614 10.2899C25.172 10.9049 25.449 11.6399 25.493 12.4699C25.535 13.2749 25.388 14.0509 25.121 14.7999C24.489 16.5749 23.591 18.1879 22.291 19.5469C21.395 20.4829 20.361 21.2269 19.227 21.8289C18.003 22.4789 16.709 22.9339 15.369 23.2559C15.249 23.2859 15.186 23.3379 15.145 23.4559C14.998 23.8659 14.842 24.2739 14.688 24.6819C14.593 24.9319 14.498 24.9999 14.236 24.9999H12.368Z" fill="white"/>
</svg>
