<svg width="32" height="32" viewBox="0 0 32 32" fill="none" xmlns="http://www.w3.org/2000/svg">
<path d="M16 32C24.8366 32 32 24.8366 32 16C32 7.16344 24.8366 0 16 0C7.16344 0 0 7.16344 0 16C0 24.8366 7.16344 32 16 32Z" fill="#152743"/>
<path d="M16.0491 8.31604C14.7331 8.31604 13.6661 7.58304 13.6661 6.67804C13.6661 5.77304 14.7331 5.04004 16.0491 5.04004C17.3651 5.04004 18.4311 5.77304 18.4311 6.67804C18.4311 7.58304 17.3651 8.31604 16.0491 8.31604ZM14.8161 26.6V9.10404H20.1281C20.3251 9.10404 20.4641 9.25104 20.4641 9.44804V19.156C20.4641 19.352 20.3241 19.52 20.1281 19.52H17.2001V26.6C17.2001 26.797 17.0501 26.976 16.8531 26.976H15.1851C15.0874 26.9722 14.9949 26.9313 14.9263 26.8617C14.8578 26.792 14.8184 26.6988 14.8161 26.601V26.6ZM13.9201 19.519H11.9101C11.813 19.5181 11.7199 19.4797 11.6502 19.4119C11.5806 19.3442 11.5397 19.2522 11.5361 19.155V9.44804C11.5361 9.25104 11.7131 9.10404 11.9091 9.10404H13.9201V19.52V19.519Z" fill="white"/>
</svg>
