<svg width="32" height="32" viewBox="0 0 32 32" fill="none" xmlns="http://www.w3.org/2000/svg">
<path d="M16 32C24.8366 32 32 24.8366 32 16C32 7.16344 24.8366 0 16 0C7.16344 0 0 7.16344 0 16C0 24.8366 7.16344 32 16 32Z" fill="#8D181B"/>
<path d="M25.696 15.7321C26.416 15.7321 27 16.3021 27 17.0071C27 17.7121 26.416 18.2821 25.696 18.2821C25.146 18.2821 24.675 17.9481 24.484 17.4771H20.764L19.392 19.9171C19.166 20.3191 18.547 20.2001 18.493 19.7451L18.185 17.1381L17.045 25.5921C16.969 26.1541 16.128 26.1281 16.089 25.5621L15.154 11.8951L14.164 20.9491C14.104 21.4891 13.311 21.5171 13.214 20.9821L12.166 15.2261L11.682 17.1211C11.6547 17.2237 11.5942 17.3143 11.5098 17.3787C11.4255 17.4432 11.3221 17.4778 11.216 17.4771H6.48C6.215 17.4771 6 17.2671 6 17.0071C6 16.7471 6.215 16.5371 6.48 16.5371H10.84L11.779 12.8661C11.905 12.3741 12.627 12.3991 12.719 12.8981L13.568 17.5671L14.787 6.42009C14.85 5.84909 15.705 5.86509 15.744 6.43809L16.725 20.7781L17.739 13.2541C17.813 12.7051 18.628 12.7111 18.693 13.2611L19.275 18.1761L20.059 16.7801C20.1014 16.7059 20.1627 16.6443 20.2366 16.6016C20.3106 16.5589 20.3946 16.5367 20.48 16.5371H24.484C24.5832 16.2977 24.7514 16.0932 24.9673 15.9498C25.1832 15.8065 25.4369 15.7307 25.696 15.7321Z" fill="white"/>
</svg>
