<svg width="32" height="32" viewBox="0 0 32 32" fill="none" xmlns="http://www.w3.org/2000/svg">
<path d="M16 32C24.8366 32 32 24.8366 32 16C32 7.16344 24.8366 0 16 0C7.16344 0 0 7.16344 0 16C0 24.8366 7.16344 32 16 32Z" fill="#347FFB"/>
<path fill-rule="evenodd" clip-rule="evenodd" d="M19.7 13.055L16.831 20.805L16.813 20.852L16.287 19.797L15.187 20.297L18.072 12.5L19.172 12L19.699 13.055H19.7ZM26.88 13.238L24.012 21L23.485 19.942L22.385 20.442L22.452 20.26L25.319 12.5L26.419 12L26.944 13.055L26.88 13.238ZM20.74 19.95L22.429 15.387L21.326 15.887L20.802 14.83L19.108 19.392L19.633 20.45L20.74 19.95ZM11.603 15.45H6.558L7.418 16.25L6.558 17.063H11.598L12.454 16.25L11.603 15.45ZM5.86 18.833H14.015L13.158 19.64L14.015 20.445H5.86L5 19.64L5.86 18.832V18.833ZM8.361 12.065H16.511L15.657 12.873L16.512 13.678H8.362L7.502 12.872L8.362 12.065H8.361Z" fill="white"/>
</svg>
