<svg width="32" height="32" viewBox="0 0 32 32" fill="none" xmlns="http://www.w3.org/2000/svg">
<path d="M16 32C24.8366 32 32 24.8366 32 16C32 7.16344 24.8366 0 16 0C7.16344 0 0 7.16344 0 16C0 24.8366 7.16344 32 16 32Z" fill="#2DC4E7"/>
<path d="M5.15467 9.03617C6.22567 9.03617 7.33267 8.96417 8.40467 9.06017C8.88067 9.59517 8.98767 10.3452 9.35667 10.9642C14.1667 10.9882 18.9997 10.9642 23.8097 10.9642C24.1667 10.9882 24.6067 11.0002 24.7857 11.3572C24.9997 11.7502 24.8457 12.2142 24.6427 12.5712C23.6667 14.2262 22.7377 15.9052 21.7857 17.5712C21.4287 18.1672 21.1897 18.8332 20.6547 19.2982C20.2147 19.6672 19.6067 19.6902 19.0477 19.6902H12.3797C12.0227 19.6902 11.6417 19.6552 11.4277 19.3692C10.7377 18.5952 10.3677 17.6072 9.91567 16.7022C9.13291 15.135 8.36686 13.5596 7.61767 11.9762C7.46267 11.6192 7.27267 11.2982 7.09367 10.9642C6.46367 10.9642 5.83167 10.9642 5.21367 10.9402C5.09367 10.3102 5.09367 9.66717 5.15367 9.03617H5.15467ZM12.6667 20.9762C13.1511 20.8611 13.6548 20.8529 14.1427 20.9522C14.6897 21.0722 15.1667 21.4882 15.2977 22.0362C15.4397 22.6662 15.4397 23.3462 15.1897 23.9522C14.9517 24.5002 14.3567 24.7622 13.7977 24.8102C13.1547 24.8572 12.4167 24.8102 11.9397 24.3332C11.4287 23.7622 11.4287 22.9292 11.5357 22.2142C11.6067 21.6192 12.0827 21.1072 12.6657 20.9762H12.6667ZM18.6187 20.9762C19.2137 20.8462 19.8567 20.8572 20.4287 21.0712C20.9757 21.2982 21.2617 21.8932 21.3087 22.4522C21.3807 23.1072 21.3087 23.8572 20.8327 24.3572C20.3927 24.7742 19.7497 24.8332 19.1667 24.8212C18.5947 24.7982 17.9767 24.5832 17.6787 24.0482C17.3947 23.4679 17.3188 22.8077 17.4637 22.1782C17.5837 21.5952 18.0357 21.1082 18.6187 20.9762Z" fill="white"/>
</svg>
