<svg width="32" height="32" viewBox="0 0 32 32" fill="none" xmlns="http://www.w3.org/2000/svg">
<path d="M16 32C24.8366 32 32 24.8366 32 16C32 7.16344 24.8366 0 16 0C7.16344 0 0 7.16344 0 16C0 24.8366 7.16344 32 16 32Z" fill="#5E4778"/>
<path fill-rule="evenodd" clip-rule="evenodd" d="M10.5 12.241H16.653V13.496H10.5V12.241ZM22.5 12.831C22.5 15.805 20.39 17.726 17.472 17.726H13.43V24H11.83V16.307H17.255C19.43 16.307 20.85 15.015 20.85 12.831C20.85 10.673 19.43 9.418 17.28 9.418H15.592L11.549 9.431V8H17.459C20.389 8 22.499 9.857 22.499 12.831H22.5Z" fill="white" stroke="white"/>
</svg>
