<svg width="32" height="32" viewBox="0 0 32 32" fill="none" xmlns="http://www.w3.org/2000/svg">
<path d="M16 32C24.8366 32 32 24.8366 32 16C32 7.16344 24.8366 0 16 0C7.16344 0 0 7.16344 0 16C0 24.8366 7.16344 32 16 32Z" fill="#408AF1"/>
<path d="M23.0488 10.2772C23.1554 10.0961 23.2972 9.93811 23.4658 9.81265C23.6344 9.68719 23.8264 9.59677 24.0305 9.54672C24.2347 9.49667 24.4467 9.48801 24.6543 9.52123C24.8618 9.55446 25.0605 9.62891 25.2388 9.74019C25.9888 10.2102 26.2248 11.2102 25.7648 11.9772C24.0608 14.8152 22.1378 17.7852 20.5348 20.0532C18.1948 23.3632 17.6878 24.5002 15.9998 24.5002C14.3118 24.5002 13.9318 23.4972 11.5248 20.0442C10.0948 17.9942 8.30182 15.2492 6.25482 12.0082C6.02553 11.6455 5.94687 11.2075 6.03559 10.7877C6.1243 10.3678 6.37339 9.99917 6.72982 9.76019C6.90537 9.6446 7.10231 9.56537 7.309 9.52717C7.51569 9.48897 7.72794 9.49259 7.93322 9.5378C8.13849 9.58301 8.33261 9.6689 8.50413 9.7904C8.67565 9.9119 8.82107 10.0665 8.93182 10.2452C10.9548 13.4472 15.5248 20.1212 16.0128 20.7162C16.5228 20.1122 21.3848 13.0492 23.0488 10.2762V10.2772Z" fill="white"/>
</svg>
