<svg width="32" height="32" viewBox="0 0 32 32" fill="none" xmlns="http://www.w3.org/2000/svg">
<path d="M16 32C24.8366 32 32 24.8366 32 16C32 7.16344 24.8366 0 16 0C7.16344 0 0 7.16344 0 16C0 24.8366 7.16344 32 16 32Z" fill="#F2941B"/>
<path d="M16.566 5H16.577C18.649 7.05 20.698 9.12 22.758 11.181H27.898L16.328 27.574C16.136 25.649 15.988 23.724 15.818 21.8C17.494 19.389 19.215 17 20.891 14.6L17.064 10.785C17.0606 10.3338 17.0228 9.88348 16.951 9.438C16.826 7.966 16.747 6.472 16.566 5ZM4.011 21.46C7.894 16.004 11.743 10.525 15.615 5.057L16.102 10.853C14.415 13.264 12.717 15.642 11.03 18.042C12.287 19.298 13.543 20.577 14.823 21.834C14.993 23.758 15.14 25.706 15.333 27.642H15.309L9.162 21.483C7.442 21.506 5.721 21.472 4 21.506V21.46H4.011Z" fill="white"/>
</svg>
