<svg width="32" height="32" viewBox="0 0 32 32" fill="none" xmlns="http://www.w3.org/2000/svg">
<path d="M16 32C24.8366 32 32 24.8366 32 16C32 7.16344 24.8366 0 16 0C7.16344 0 0 7.16344 0 16C0 24.8366 7.16344 32 16 32Z" fill="#30C0F2"/>
<path d="M10.1233 7H21.8973C21.8973 7 22.2093 8.554 23.8773 8.658C23.8773 8.658 29.3993 21.508 15.9584 27C15.9584 27 3.55935 23.062 7.93535 8.762C7.93535 8.762 9.81135 8.658 10.1233 7ZM21.2734 8.023H10.7534L10.7394 8.247C10.6514 8.736 10.4063 9.077 10.0473 9.307C9.82486 9.44728 9.57555 9.53958 9.31535 9.578L9.13135 9.596L9.07935 9.774C8.11035 13.084 8.07735 15.944 8.84035 18.384C9.46635 20.384 10.5993 22.024 12.0924 23.334C12.8803 24.025 13.7522 24.6139 14.6874 25.087C14.9974 25.244 15.2873 25.373 15.5463 25.477C15.7033 25.54 15.8183 25.581 15.8813 25.602L15.9794 25.632L16.0743 25.592C19.7803 24.008 22.0223 21.614 23.0263 18.632C23.8563 16.172 23.7823 13.553 23.1633 11.073C23.0443 10.5972 22.9008 10.1279 22.7333 9.667C22.7198 9.63048 22.7058 9.59414 22.6913 9.558L22.6274 9.4L22.4563 9.389C21.9703 9.357 21.6613 9.159 21.4703 8.841C21.3687 8.67002 21.3055 8.4789 21.2853 8.281L21.2734 8.023ZM11.2283 8.568C17.5954 8.569 20.7783 8.57 20.7783 8.571C20.8223 8.758 20.8933 8.944 20.9983 9.121C21.2543 9.546 21.6653 9.833 22.2413 9.915C22.3925 10.3383 22.5226 10.7689 22.6314 11.205C23.2274 13.593 23.2973 16.111 22.5064 18.459C21.5614 21.266 19.4604 23.526 15.9553 25.049C15.6078 24.918 15.2676 24.7681 14.9363 24.6C14.0424 24.1483 13.2088 23.5859 12.4553 22.926C11.0343 21.678 9.95835 20.122 9.36435 18.223C8.64635 15.928 8.66535 13.23 9.55835 10.089C9.83625 10.0255 10.1016 9.91602 10.3434 9.765C10.7793 9.49246 11.0956 9.06467 11.2283 8.568ZM18.5883 14.15H18.2853C18.3153 13.542 18.1803 12.218 16.5353 11.85C16.0574 11.7357 15.5569 11.7586 15.0913 11.916C14.4493 12.144 13.6834 12.717 13.6544 14.15H13.4313C13.2041 14.15 12.9861 14.2399 12.825 14.4001C12.6639 14.5603 12.5727 14.7778 12.5714 15.005V18.58C12.5727 18.8072 12.6639 19.0247 12.825 19.1849C12.9861 19.3451 13.2041 19.435 13.4313 19.435H18.5894C18.8166 19.435 19.0346 19.3451 19.1957 19.1849C19.3568 19.0247 19.448 18.8072 19.4493 18.58V15.005C19.448 14.7778 19.3568 14.5603 19.1957 14.4001C19.0346 14.2399 18.8166 14.15 18.5894 14.15H18.5883ZM16.5834 18.192H15.4374L15.7403 16.685C15.5979 16.6236 15.481 16.5148 15.4095 16.377C15.338 16.2393 15.3163 16.0811 15.348 15.9292C15.3798 15.7773 15.4631 15.6411 15.5838 15.5435C15.7045 15.446 15.8552 15.3932 16.0104 15.394C16.102 15.3545 16.2012 15.3359 16.3009 15.3394C16.4006 15.343 16.4983 15.3687 16.5868 15.4147C16.6754 15.4606 16.7526 15.5257 16.8129 15.6052C16.8732 15.6847 16.9151 15.7766 16.9355 15.8742C16.956 15.9719 16.9544 16.0729 16.931 16.1699C16.9076 16.2668 16.863 16.3574 16.8002 16.435C16.7375 16.5126 16.6584 16.5753 16.5684 16.6185C16.4785 16.6618 16.3801 16.6845 16.2804 16.685L16.5834 18.192ZM14.3954 14.15C14.4234 13.682 14.6214 12.574 15.8544 12.492C15.8544 12.492 17.4804 12.403 17.4514 14.15H14.3954Z" fill="white"/>
</svg>
