<svg width="32" height="32" viewBox="0 0 32 32" fill="none" xmlns="http://www.w3.org/2000/svg">
<path d="M16 32C24.8366 32 32 24.8366 32 16C32 7.16344 24.8366 0 16 0C7.16344 0 0 7.16344 0 16C0 24.8366 7.16344 32 16 32Z" fill="black"/>
<path d="M25.847 9.44814C25.487 9.17614 25.056 8.80514 24.271 8.71214C23.535 8.61914 22.785 9.09014 22.278 9.40214C21.771 9.71314 20.813 10.6291 20.417 10.9071C20.021 11.1861 19.007 11.4451 17.375 12.3801C15.743 13.3151 9.34 17.2401 9.34 17.2401L11.007 17.2601L3.577 20.9151H4.319L3.25 21.6911C3.25 21.6911 4.194 21.9301 4.986 21.4521V21.6711C4.986 21.6711 13.833 18.3411 15.542 19.2041L14.5 19.4951C14.59 19.4951 16.27 19.6021 16.27 19.6021C16.27 19.6021 16.326 20.6031 17.34 21.2461C18.354 21.8831 18.375 22.2351 18.375 22.2351C18.375 22.2351 17.847 22.4401 17.847 22.6991C17.847 22.6991 18.625 22.4731 19.347 22.4931C20.069 22.5131 20.701 22.6991 20.701 22.6991C20.701 22.6991 20.646 22.4201 19.944 22.2351C19.236 22.0421 18.549 21.3191 18.208 20.9211C18.001 20.6721 17.8653 20.3717 17.8153 20.0518C17.7653 19.7319 17.8029 19.4044 17.924 19.1041C18.167 18.5011 19.014 18.1691 20.764 17.3071C22.826 16.2851 23.299 15.5291 23.59 14.9391C23.882 14.3491 24.312 13.1751 24.556 12.6241C24.861 11.9141 25.236 11.5361 25.549 11.3111C25.854 11.0851 27.25 10.5881 27.25 10.5881C27.25 10.5881 26.187 9.70614 25.847 9.44814Z" fill="white"/>
</svg>
