<svg width="32" height="32" viewBox="0 0 32 32" fill="none" xmlns="http://www.w3.org/2000/svg">
<path d="M16 32C24.8366 32 32 24.8366 32 16C32 7.16344 24.8366 0 16 0C7.16344 0 0 7.16344 0 16C0 24.8366 7.16344 32 16 32Z" fill="#0F8FF8"/>
<path fill-rule="evenodd" clip-rule="evenodd" d="M8 19.004L8.81 17H9.667C9.6448 16.6571 9.63346 16.3136 9.633 15.97C9.633 15.522 9.652 15.106 9.689 14.72H8L8.81 12.717H10.084C11.27 8.906 13.944 7 18.103 7C19.47 7 20.769 7.177 22 7.532V10.056C20.8415 9.53832 19.5859 9.27376 18.317 9.28C15.824 9.28 14.221 10.426 13.507 12.718H20.93L20.12 14.721H13.023C12.9805 15.0509 12.9618 15.3834 12.967 15.716C12.967 16.195 12.982 16.623 13.012 17.001H19.195L18.395 19.004H13.44C13.973 20.393 14.623 21.359 15.389 21.904C16.154 22.448 17.247 22.72 18.666 22.72C19.68 22.72 20.791 22.473 22 21.979V24.352C20.851 24.784 19.485 25 17.9 25C13.733 25 11.097 23.001 9.994 19.004H8Z" fill="white"/>
</svg>
