<svg width="32" height="32" viewBox="0 0 32 32" fill="none" xmlns="http://www.w3.org/2000/svg">
<path d="M16 32C24.8366 32 32 24.8366 32 16C32 7.16344 24.8366 0 16 0C7.16344 0 0 7.16344 0 16C0 24.8366 7.16344 32 16 32Z" fill="#242424"/>
<path d="M13.0601 23.8737L15.7431 21.1767L18.4371 23.8737L16.7181 25.5957C16.5902 25.7239 16.4382 25.8257 16.2709 25.8951C16.1036 25.9645 15.9242 26.0003 15.7431 26.0003C15.562 26.0003 15.3826 25.9645 15.2153 25.8951C15.048 25.8257 14.896 25.7239 14.7681 25.5957L13.0601 23.8737ZM20.0101 14.6317L17.3181 11.9347L20.0111 9.23765L22.7031 11.9347L20.0101 14.6317ZM19.3411 22.9947L16.6481 20.2977L23.8781 13.0557L25.5961 14.7767C26.1351 15.3167 26.1351 16.1897 25.5961 16.7297L19.3411 22.9947ZM11.9381 22.7167L9.2461 20.0197L16.4641 12.7897L19.1561 15.4867L11.9381 22.7167ZM8.1161 18.9167L6.3971 17.1947C6.14039 16.9339 5.99759 16.5819 6.00003 16.216C6.00247 15.85 6.14994 15.5 6.4101 15.2427L8.1281 13.5207L10.8211 16.2187L8.1161 18.9167ZM18.8831 8.12865L11.6531 15.3667L8.9601 12.6697L15.2151 6.40365C15.343 6.27539 15.495 6.17363 15.6623 6.1042C15.8296 6.03476 16.009 5.99902 16.1901 5.99902C16.3712 5.99902 16.5506 6.03476 16.7179 6.1042C16.8852 6.17363 17.0372 6.27539 17.1651 6.40365L18.8831 8.12865Z" fill="white"/>
</svg>
