<svg width="32" height="32" viewBox="0 0 32 32" fill="none" xmlns="http://www.w3.org/2000/svg">
<path d="M16 32C24.8366 32 32 24.8366 32 16C32 7.16344 24.8366 0 16 0C7.16344 0 0 7.16344 0 16C0 24.8366 7.16344 32 16 32Z" fill="#939393"/>
<path fill-rule="evenodd" clip-rule="evenodd" d="M13.707 19.86C14.072 19.623 16.525 18.12 18.915 16.656C20.638 15.602 20.638 15.602 20.608 15.499C20.578 15.374 9.908 8.89 9.799 8.825C9.59632 8.70531 9.39563 8.58229 9.197 8.456C9.393 8.32 9.774 8.06 10.23 7.75L11.34 7L12.102 7.456C13.042 8.018 23.362 14.348 24.808 15.249C24.218 15.604 22.128 16.841 19.318 18.496L13.735 21.786C13.7248 21.4948 13.7182 21.2034 13.715 20.912C13.7087 20.5617 13.7064 20.2113 13.708 19.861L13.707 19.86ZM11.339 13.564C11.524 13.674 11.844 13.867 12.238 14.112L13.267 14.75L13.289 16.68C13.354 22.257 13.354 22.257 13.435 22.314L13.489 22.351L13.549 22.329C13.579 22.32 13.59 22.316 24.42 15.927L25 15.585L24.809 18.268L24.739 18.308C20.2799 20.8694 15.8169 23.4241 11.35 25.972C11.346 25.273 11.34 22.887 11.339 19.776V13.564ZM9 24.8L9.025 8.833L9.413 9.062C9.725 9.244 11.829 10.527 14.206 11.981C15.9081 13.0245 17.6128 14.0639 19.32 15.099L20.035 15.529L17.671 16.975L17.199 16.7C16.2523 16.1283 15.3089 15.5509 14.369 14.968C13.4525 14.3996 12.5325 13.837 11.609 13.28L10.957 12.9L10.952 19.669C10.95 22.723 10.947 25.261 10.945 26.001C10.752 25.884 10.423 25.681 10.037 25.441L9 24.8Z" fill="white"/>
</svg>
