<svg width="32" height="32" viewBox="0 0 32 32" fill="none" xmlns="http://www.w3.org/2000/svg">
<path d="M16 32C24.8366 32 32 24.8366 32 16C32 7.16344 24.8366 0 16 0C7.16344 0 0 7.16344 0 16C0 24.8366 7.16344 32 16 32Z" fill="#1387C9"/>
<path d="M16.0534 18.3729L25.6474 12.7889L16.0534 7.10487L6.55538 12.7889L16.0534 18.3729ZM6.04738 15.4529C6.04718 15.5857 6.08179 15.7162 6.14776 15.8315C6.21373 15.9468 6.30876 16.0428 6.42338 16.1099L16.0504 21.7179L25.8354 15.9299C25.9477 15.8649 26.0752 15.8306 26.205 15.8306C26.3348 15.8305 26.4623 15.8646 26.5748 15.9295C26.6872 15.9944 26.7805 16.0877 26.8454 16.2001C26.9103 16.3126 26.9444 16.4401 26.9444 16.5699V19.1959C26.9443 19.3242 26.9111 19.4503 26.8478 19.5619C26.7845 19.6736 26.6934 19.7669 26.5834 19.8329L16.4264 25.8959C16.3137 25.9632 16.185 25.999 16.0538 25.9995C15.9225 26.0001 15.7936 25.9653 15.6804 25.8989L5.26038 19.7729C5.1403 19.7018 5.05311 19.5862 5.01773 19.4512C4.98234 19.3162 5.00162 19.1727 5.07138 19.0519C5.10565 18.9921 5.15143 18.9397 5.20607 18.8978C5.26072 18.8558 5.32314 18.8251 5.38973 18.8074C5.45632 18.7898 5.52575 18.7855 5.59401 18.7948C5.66226 18.8042 5.72799 18.827 5.78738 18.8619L16.0504 24.8949L25.8974 19.0169V17.1169L16.4244 22.7199C16.3122 22.7864 16.1842 22.8218 16.0538 22.8223C15.9233 22.8229 15.7951 22.7885 15.6824 22.7229L5.89938 17.0229C5.62532 16.8627 5.39807 16.6334 5.24032 16.3579C5.08257 16.0824 4.99984 15.7703 5.00038 15.4529V12.9799C5.00006 12.8689 5.02901 12.7598 5.0843 12.6636C5.1396 12.5674 5.21929 12.4875 5.31534 12.4319C5.41138 12.3763 5.52039 12.347 5.63136 12.347C5.74232 12.347 5.85133 12.3763 5.94738 12.4319L6.55538 12.7889L5.79138 13.2459C5.71831 13.29 5.63552 13.3155 5.55027 13.3202C5.46502 13.3248 5.37994 13.3085 5.3025 13.2725C5.22507 13.2366 5.15766 13.1821 5.1062 13.114C5.05473 13.0459 5.0208 12.9662 5.00738 12.8819C4.98965 12.7769 5.00403 12.6689 5.04864 12.5722C5.09324 12.4755 5.166 12.3945 5.25738 12.3399L15.6764 6.10387C15.7896 6.03592 15.9191 5.99987 16.0511 5.99951C16.1831 5.99916 16.3128 6.03453 16.4264 6.10187L26.6374 12.1519C26.7485 12.2181 26.8403 12.3121 26.904 12.4247C26.9676 12.5373 27.0008 12.6645 27.0003 12.7938C26.9998 12.9231 26.9656 13.0501 26.9011 13.1621C26.8366 13.2742 26.744 13.3675 26.6324 13.4329L16.4204 19.3769C16.3081 19.4425 16.1803 19.4769 16.0502 19.4768C15.9202 19.4766 15.7925 19.4418 15.6804 19.3759L5.42038 13.3429C5.47464 13.3748 5.53544 13.3939 5.59818 13.3988C5.66093 13.4038 5.72398 13.3944 5.78256 13.3714C5.84113 13.3483 5.8937 13.3123 5.93629 13.2659C5.97888 13.2196 6.01037 13.1642 6.02838 13.1039C6.04118 13.0638 6.04792 13.022 6.04838 12.9799V15.4539L6.04738 15.4529Z" fill="white"/>
</svg>
