<svg width="32" height="32" viewBox="0 0 32 32" fill="none" xmlns="http://www.w3.org/2000/svg">
<path d="M16 32C24.8366 32 32 24.8366 32 16C32 7.16344 24.8366 0 16 0C7.16344 0 0 7.16344 0 16C0 24.8366 7.16344 32 16 32Z" fill="#14C8FF"/>
<path d="M25.08 11.4781C25.713 11.9911 26.112 13.0521 25.972 13.8311L24.612 21.3551C24.47 22.1391 23.72 23.0021 22.948 23.2731L15.529 25.8781C14.757 26.1491 13.609 25.9531 12.977 25.4401L6.919 20.5231C6.286 20.0101 5.886 18.9541 6.029 18.1701L7.389 10.6461C7.53 9.86214 8.28 9.00014 9.053 8.72814L16.473 6.12214C17.246 5.85014 18.393 6.04814 19.026 6.56014L25.08 11.4781ZM18.769 14.8561L19.071 13.3261L16.239 13.3311L16.639 11.3151H15.724C15.064 12.3266 14.1026 13.105 12.976 13.5401L12.719 14.8591H13.957C13.957 14.8591 13.538 16.7531 13.397 17.4521C13.047 19.2321 13.927 20.4941 15.279 20.4941H17.567L17.967 18.8041H16.053C15.203 18.8041 15.248 18.3391 15.413 17.5141L15.94 14.8521L18.769 14.8561Z" fill="white"/>
</svg>
