<svg width="32" height="32" viewBox="0 0 32 32" fill="none" xmlns="http://www.w3.org/2000/svg">
<path d="M16 32C24.8366 32 32 24.8366 32 16C32 7.16344 24.8366 0 16 0C7.16344 0 0 7.16344 0 16C0 24.8366 7.16344 32 16 32Z" fill="#2D9CDB"/>
<path d="M18.061 9.084C21.465 12.65 22.329 13.28 23.156 13.507C20.281 13.147 18.659 12.943 15.95 11.521L14.24 13.511L25 15.9C21.634 18.762 20.176 20.287 18.061 22.914H13.99C12.201 20.296 11.008 19.446 8.71 18.387C11.768 18.669 13.468 18.857 15.95 20.327L17.811 18.237L7 15.9C9.514 13.828 10.977 12.446 13.989 9.084H18.061ZM14.24 8.587C15.17 7.442 15.55 6.885 16.05 6C16.54 6.912 16.919 7.475 17.81 8.587H14.24ZM17.81 23.413C16.879 24.558 16.498 25.115 16 26C15.51 25.088 15.13 24.525 14.24 23.413H17.81Z" fill="white"/>
</svg>
