<svg width="32" height="32" viewBox="0 0 32 32" fill="none" xmlns="http://www.w3.org/2000/svg">
<path d="M16 32C24.8366 32 32 24.8366 32 16C32 7.16344 24.8366 0 16 0C7.16344 0 0 7.16344 0 16C0 24.8366 7.16344 32 16 32Z" fill="#EEC315"/>
<path d="M18.99 8.185C18.9901 8.09509 18.9725 8.00604 18.9382 7.92294C18.9039 7.83984 18.8535 7.76431 18.79 7.70069C18.7265 7.63707 18.651 7.5866 18.568 7.55216C18.4849 7.51772 18.3959 7.5 18.306 7.5H13.132L13.14 7.51H8.147C7.513 7.51 7 8.024 7 8.658V23.342C7 23.976 7.513 24.49 8.147 24.49H10.002C10.636 24.49 11.149 23.976 11.149 23.342V12.618C11.149 11.602 12.371 11.087 13.097 11.797L17.072 15.683C17.731 16.327 18.797 15.963 18.99 15.133C19.01 15.047 19.02 14.957 19.02 14.862L18.99 8.185Z" fill="white"/>
<path d="M23.9655 7.50977H21.8855C21.3155 7.50977 20.8515 7.97376 20.8515 8.54576V19.6478C20.8515 20.5648 19.7485 21.0298 19.0935 20.3878L14.7385 16.1308C14.0825 15.4908 12.9805 15.9548 12.9805 16.8718V19.2358C12.9805 19.2718 12.9825 19.3078 12.9855 19.3438L12.9805 19.3388V23.5628C12.9805 24.0808 13.3995 24.4998 13.9165 24.4998H19.6565L19.6425 24.4898H23.9655C24.5375 24.4898 25.0005 24.0258 25.0005 23.4538V8.54576C25.0005 7.97376 24.5375 7.50977 23.9655 7.50977Z" fill="white"/>
</svg>
