<svg width="32" height="32" viewBox="0 0 32 32" fill="none" xmlns="http://www.w3.org/2000/svg">
<path d="M16 32C24.8366 32 32 24.8366 32 16C32 7.16344 24.8366 0 16 0C7.16344 0 0 7.16344 0 16C0 24.8366 7.16344 32 16 32Z" fill="#417BA4"/>
<path d="M7.686 10.633C7.653 10.855 7.662 11.009 7.78 11.126C7.628 11.391 7.51 11.588 7.397 11.808C7.511 11.588 7.628 11.395 7.78 11.168C8.119 11.592 9.178 11.592 10.619 11.126C10.789 11.084 10.789 11.465 10.789 11.465C10.789 11.677 10.746 11.973 8.924 12.228C8.415 12.312 7.694 12.27 7.356 11.888C7.271 11.762 7.229 11.592 7.229 11.38C7.229 11.338 7.229 11.296 7.271 11.21C7.27266 11.2077 7.27433 11.2053 7.276 11.203C7.29304 11.1316 7.31996 11.0629 7.356 10.999C7.398 10.872 7.483 10.787 7.568 10.66C7.525 10.745 7.441 10.914 7.356 10.999C7.40102 10.8719 7.47339 10.7561 7.568 10.66L7.686 10.633ZM7.94 10.088C8.002 9.996 8.07 9.905 8.161 9.813L8.034 9.983C8.02656 9.99022 8.01922 9.99756 8.012 10.005C8.057 9.942 8.106 9.879 8.161 9.813L8.034 9.983C8.00081 10.0163 7.96943 10.0513 7.94 10.088ZM7.94 10.088C7.887 10.166 7.838 10.243 7.78 10.321C7.77451 10.3265 7.76917 10.3322 7.764 10.338C7.72891 10.3932 7.69457 10.4489 7.661 10.505L7.94 10.088ZM8.841 9.073C8.968 8.967 9.094 8.848 9.221 8.753C9.10239 8.90401 9.01564 9.07751 8.966 9.263C8.924 9.389 8.924 9.516 9.008 9.601C9.00031 9.60864 8.99264 9.61631 8.985 9.624C9.265 9.936 10.181 9.844 11.339 9.347C11.72 9.177 12.102 9.007 12.441 8.797C12.568 8.754 12.737 8.966 12.78 9.007C12.822 9.05 12.864 9.177 12.78 9.262C12.356 9.516 11.89 9.77 11.381 9.94C9.925 10.564 8.754 10.657 8.432 10.259L8.415 10.279C8.373 10.152 8.331 10.067 8.373 9.898C8.373 9.855 8.373 9.813 8.415 9.77C8.45343 9.72023 8.49519 9.67312 8.54 9.629C8.48085 9.68708 8.42509 9.74851 8.373 9.813C8.373 9.77 8.415 9.686 8.415 9.643C8.5 9.473 8.585 9.347 8.712 9.177C8.742 9.155 8.77 9.132 8.8 9.108C8.928 8.928 9.117 8.773 9.305 8.584C9.645 8.288 9.645 8.288 9.814 8.161C9.84982 8.12411 9.88899 8.09064 9.931 8.061C9.91665 8.07298 9.90232 8.08498 9.888 8.097C10.008 8.007 10.132 7.918 10.262 7.831L10.28 7.821L10.345 7.775C10.9527 7.37613 11.5978 7.0372 12.271 6.763C12.381 6.701 12.491 6.647 12.601 6.599C12.536 6.625 12.484 6.648 12.423 6.674C12.3176 6.72039 12.2109 6.76375 12.103 6.804C11.933 6.847 11.933 6.847 11.593 7.017C11.423 7.101 11.423 7.101 11.127 7.271C11 7.356 11 7.356 10.703 7.525C10.5818 7.60557 10.4624 7.68892 10.345 7.775C13.119 6.41 12.925 6.469 12.73 6.546C12.4882 6.6206 12.2503 6.70704 12.017 6.805C11.035 7.225 10.111 7.821 9.533 8.374C9.446 8.444 9.405 8.484 9.305 8.584C9.359 8.533 9.416 8.482 9.475 8.431C9.38479 8.51945 9.29965 8.61293 9.22 8.711C9.087 8.844 8.954 8.951 8.841 9.073ZM6.434 18.903C6.444 18.939 6.455 18.973 6.466 19.006C6.4967 19.1175 6.55519 19.2193 6.636 19.302C6.55714 19.0718 6.4828 18.8401 6.413 18.607C6.409 18.882 6.492 19.123 6.636 19.302C6.54019 19.0413 6.46921 18.7721 6.424 18.498C7.186 19.557 10.068 19.302 13.754 17.735C18.458 15.744 22.737 12.355 23.331 10.152C23.458 9.601 23.373 9.22 23.076 8.923C23.288 9.135 23.5 9.389 23.712 9.601C23.966 9.898 24.008 10.279 23.882 10.787C23.288 13.032 18.924 16.464 14.093 18.497C9.899 20.323 6.736 20.404 6.433 18.904C6.36 18.657 6.286 18.338 6.212 18.116C6.254 18.243 6.297 18.37 6.382 18.498L6.407 18.587C6.40456 18.6401 6.40657 18.6933 6.413 18.746C6.40976 18.6974 6.40909 18.6487 6.411 18.6C6.40966 18.5957 6.40833 18.5913 6.407 18.587L6.434 18.903ZM13.314 6.363L13.373 6.339C14.644 6 15.449 6.169 15.28 6.889C15.237 7.144 15.068 7.398 14.814 7.652C14.602 7.737 14.136 7.652 14.051 7.567C14.263 7.313 14.39 7.101 14.432 6.932C14.564 6.372 13.954 6.222 12.96 6.481L12.916 6.497L13.314 6.363ZM13.237 6.393L13.415 6.339C13.3813 6.34634 13.3476 6.35401 13.314 6.362L13.237 6.393ZM6.212 17.408V17.438C6.092 17.318 6.047 17.161 6.042 16.966C6.03123 16.8814 6.02888 16.796 6.035 16.711C6.04 16.7916 6.04266 16.8723 6.043 16.953C6.03139 16.8699 6.02871 16.7857 6.035 16.702C6.023 16.48 6 16.226 6 16.04C6 16.295 6.085 16.464 6.17 16.633C6.17 16.761 6.18 16.898 6.19 17.036C6.17 16.898 6.17 16.761 6.17 16.633C9.008 19.641 21.763 11.846 21.89 8.542C21.932 7.949 21.593 7.737 21.424 7.61L21.763 7.822L22.186 8.118C22.526 8.415 22.653 8.838 22.526 9.389C21.975 11.507 17.822 14.769 13.288 16.676C9.698 18.225 6.925 18.428 6.212 17.408ZM6.191 14.176L6.254 13.922C6.169 14.262 6.212 14.558 6.381 14.727C6.37999 14.7303 6.37899 14.7337 6.378 14.737C6.461 14.837 6.575 14.909 6.72 14.981C6.847 15.151 6.763 15.574 6.763 15.574C6.72 15.701 6.678 15.871 6.593 15.829C6.169 15.617 6 15.278 6.043 14.769C6.00204 15.0219 6.06279 15.2807 6.212 15.489L6.216 15.465C6.09768 15.2692 6.05135 15.0383 6.085 14.812L6.102 14.702C6.09195 14.7379 6.08624 14.7748 6.085 14.812L6.169 14.219L6.254 13.879V13.795L6.191 14.176ZM6.813 13.136C6.73289 13.3056 6.67347 13.4842 6.636 13.668C6.508 13.498 6.466 13.287 6.508 13.032C6.508 12.948 6.508 12.905 6.551 12.821C6.63182 12.574 6.73075 12.3334 6.847 12.101C6.80619 12.2268 6.79266 12.3598 6.80732 12.4912C6.82198 12.6226 6.86448 12.7493 6.932 12.863L6.905 12.926C7.436 13.622 9.372 13.446 11.847 12.397C15.025 10.999 17.949 8.711 18.331 7.271C18.458 6.721 18.288 6.381 17.822 6.211C17.907 6.169 17.907 6.169 18.161 6.254C18.331 6.297 18.458 6.339 18.542 6.339C19.093 6.551 19.305 6.932 19.136 7.525C18.712 9.135 15.534 11.635 12.059 13.117C9.305 14.261 7.186 14.473 6.636 13.668L6.813 13.136ZM13.351 25.346C12.842 25.363 12.42 25.31 12.101 25.191C11.847 25.064 11.508 24.937 11.297 24.81C11.814 25.024 12.492 25.077 13.272 25C17.737 24.56 25.567 19.868 26 16.803L25.958 16.93C25.9107 17.1819 25.8823 17.4369 25.873 17.693C25.873 17.735 25.873 17.777 25.831 17.82C25.322 19.641 21.721 22.48 17.78 24.174C16.005 24.931 14.47 25.307 13.353 25.346C13.3523 25.346 13.3517 25.346 13.351 25.346ZM13.847 23.604L13.924 23.497C13.898 23.532 13.874 23.567 13.849 23.603C14.492 23.423 15.184 23.19 15.915 22.903C16.381 22.776 16.551 23.073 16.551 23.073C16.593 23.115 16.593 23.285 16.339 23.412C15.275 23.828 14.295 24.127 13.434 24.307C13.4276 24.3193 13.4213 24.3316 13.415 24.344L13.428 24.308C11.926 24.623 10.787 24.578 10.195 24.174C9.983 24.004 9.686 23.794 9.475 23.624C10.157 24.208 11.735 24.195 13.847 23.604ZM8.542 22.692C8.372 22.48 8.161 22.268 8.034 22.056C8.204 22.268 8.458 22.564 8.627 22.776C8.62535 22.7541 8.61584 22.7335 8.60022 22.7181C8.5846 22.7027 8.56392 22.6934 8.542 22.692ZM15.28 6.042C15.534 6.042 15.873 6 16.127 6C17.017 6 17.441 6.339 17.271 7.017C17.059 7.822 15.915 8.966 14.432 9.982C14.136 10.109 13.839 9.728 13.924 9.559C13.924 9.516 13.966 9.516 13.966 9.516C15.28 8.626 16.254 7.652 16.466 6.932C16.636 6.254 16.085 5.958 15.11 6.042H15.28ZM20.364 7.017C20.873 7.271 21.084 7.695 20.915 8.33C20.407 10.236 16.678 13.16 12.61 14.897C11.847 15.235 11.085 15.49 10.407 15.701C10.025 15.744 9.983 15.235 10.153 14.981C10.195 14.897 10.237 14.897 10.28 14.854C10.915 14.684 11.593 14.431 12.314 14.134C16.169 12.482 19.686 9.686 20.153 7.906C20.322 7.271 20.068 6.847 19.517 6.636C19.771 6.763 20.11 6.89 20.364 7.016V7.017ZM24.771 11.211L24.898 11.423C25.025 11.762 25.025 11.762 25.025 11.931V11.973C24.898 11.931 24.645 11.423 24.602 11.211C24.602 10.957 24.559 10.787 24.432 10.618L24.772 11.211H24.771ZM25.661 13.456C25.703 13.668 25.703 13.922 25.619 14.219C25.11 16.083 21.932 18.836 18.076 20.828C17.653 20.997 17.398 20.7 17.483 20.404C17.5174 20.2947 17.5936 20.2034 17.695 20.15C21.593 18.116 24.855 15.32 25.365 13.414C25.449 13.074 25.449 12.778 25.365 12.524C25.492 12.863 25.619 13.202 25.661 13.456ZM25.958 15.236V15.574C25.958 15.744 25.958 15.871 25.915 16.083C25.619 17.227 24.22 18.709 22.314 20.15C22.017 20.362 21.847 20.065 21.89 19.853C21.9297 19.7233 22.0028 19.6064 22.102 19.514C24.093 18.032 25.534 16.506 25.831 15.32C25.873 15.108 25.915 14.897 25.873 14.685L25.958 15.235V15.236ZM8.415 10.278C8.373 10.151 8.331 10.066 8.373 9.897C8.331 10.066 8.373 10.151 8.415 10.277V10.278ZM7.355 11.888C7.271 11.761 7.229 11.591 7.229 11.379C7.229 11.591 7.229 11.719 7.356 11.888H7.355ZM6.635 13.667C6.508 13.497 6.466 13.286 6.508 13.031C6.466 13.286 6.508 13.498 6.636 13.667H6.635ZM22.61 15.15C22.6431 15.2415 22.6526 15.3398 22.6378 15.4359C22.6229 15.532 22.5841 15.6228 22.525 15.7C20.661 17.395 17.907 19.09 15.025 20.318C10.745 22.098 7.525 22.225 7.229 20.699C7.186 20.572 7.229 20.657 7.271 20.615C7.271 20.657 7.271 20.869 7.441 21.123C7.398 21.038 7.356 20.996 7.314 20.911C7.271 20.869 7.271 20.827 7.229 20.784C7.144 20.657 7.102 20.488 7.017 20.361C7.822 21.42 10.788 21.208 14.602 19.556C17.483 18.327 20.237 16.59 22.102 14.938C22.441 14.768 22.568 15.023 22.61 15.15ZM11.89 22.902C11.932 22.987 11.975 23.157 11.805 23.199C10.28 23.453 9.178 23.326 8.669 22.775C8.5 22.563 8.246 22.267 8.076 22.055C8.542 22.648 9.686 22.818 11.339 22.563C11.636 22.563 11.847 22.818 11.889 22.903L11.89 22.902ZM25.237 19.81C25.364 19.556 25.492 19.174 25.577 18.92C25.067 20.572 21.805 23.114 18.246 24.64C16.042 25.571 14.22 25.91 13.246 25.614C13.5 25.698 13.881 25.784 14.178 25.826C16.89 26.249 23.754 22.86 25.238 19.81H25.237ZM23.034 22.86C23.034 22.902 22.949 23.03 22.78 23.157C21.847 23.919 20.576 24.682 19.263 25.232C18.161 25.698 17.186 25.952 16.466 25.995H15.406C16.254 26.037 17.483 25.741 18.966 25.148C20.449 24.512 21.89 23.665 22.949 22.775C22.992 22.775 22.992 22.733 23.034 22.733C23.034 22.733 23.034 22.775 23.076 22.775C23.076 22.775 23.076 22.818 23.034 22.86ZM6.508 12.863C6.508 12.821 6.551 12.736 6.551 12.693C6.636 12.439 6.805 12.058 6.89 11.803C6.89 11.931 6.847 12.016 6.805 12.143C6.678 12.355 6.593 12.609 6.508 12.863Z" fill="white"/>
</svg>
