<svg width="32" height="32" viewBox="0 0 32 32" fill="none" xmlns="http://www.w3.org/2000/svg">
<path d="M16 32C24.8366 32 32 24.8366 32 16C32 7.16344 24.8366 0 16 0C7.16344 0 0 7.16344 0 16C0 24.8366 7.16344 32 16 32Z" fill="#1666AF"/>
<path d="M15.699 11.006V13.066H10.999C10.389 13.066 9.638 13.28 9.079 13.676C8.386 14.168 7.999 14.905 7.999 16.003C7.999 17.101 8.386 17.838 9.079 18.33C9.638 18.726 10.389 18.94 10.999 18.94H12.999V21H10.999C9.90646 20.9892 8.8424 20.6502 7.945 20.027C6.717 19.155 6 17.789 6 16.003C6 14.217 6.717 12.851 7.945 11.979C8.84209 11.3559 9.9058 11.0169 10.998 11.006H15.699ZM10.699 17.188V15.128H15.699V21H13.7V17.188H10.699ZM19 13.06V11H26V21H16.998V13.067H18.998V18.939H24V13.061L19 13.06Z" fill="white"/>
</svg>
