<svg width="32" height="32" viewBox="0 0 32 32" fill="none" xmlns="http://www.w3.org/2000/svg">
<path d="M16 32C24.8366 32 32 24.8366 32 16C32 7.16344 24.8366 0 16 0C7.16344 0 0 7.16344 0 16C0 24.8366 7.16344 32 16 32Z" fill="#FF2D55"/>
<path d="M12.793 11.534L5.74801 19.988C5.25155 18.7171 4.99783 17.3644 5.00001 16C5.00001 9.923 9.92301 5 16 5C22.078 5 27 9.923 27 16C27 19.36 25.493 22.369 23.117 24.387H8.88301C8.25992 23.853 7.69571 23.254 7.20001 22.6H19.762V17.837L23.727 22.6H24.8L19.757 16.55L18.365 18.222L12.794 11.534H12.793ZM19.758 9.4C19.0415 9.41932 18.3608 9.71753 17.8609 10.2312C17.3609 10.7448 17.0812 11.4332 17.0812 12.15C17.0812 12.8668 17.3609 13.5552 17.8609 14.0688C18.3608 14.5825 19.0415 14.8807 19.758 14.9C20.4745 14.8807 21.1552 14.5825 21.6551 14.0688C22.1551 13.5552 22.4348 12.8668 22.4348 12.15C22.4348 11.4332 22.1551 10.7448 21.6551 10.2312C21.1552 9.71753 20.4745 9.41932 19.758 9.4ZM12.795 7.409C12.6113 7.40404 12.4284 7.43596 12.2572 7.50286C12.0859 7.56975 11.9299 7.67028 11.7981 7.79849C11.6664 7.92671 11.5617 8.08002 11.4902 8.24937C11.4188 8.41872 11.3819 8.60068 11.3819 8.7845C11.3819 8.96832 11.4188 9.15028 11.4902 9.31963C11.5617 9.48898 11.6664 9.64229 11.7981 9.7705C11.9299 9.89872 12.0859 9.99925 12.2572 10.0661C12.4284 10.133 12.6113 10.165 12.795 10.16C13.1534 10.1503 13.4939 10.0012 13.7439 9.74428C13.994 9.48737 14.1339 9.14301 14.1339 8.7845C14.1339 8.42599 13.994 8.08163 13.7439 7.82472C13.4939 7.56782 13.1534 7.41866 12.795 7.409ZM9.98901 25.212H22.012C20.2247 26.3804 18.1353 27.0018 16 27C13.865 27.0016 11.776 26.3802 9.98901 25.212ZM17.832 18.866L15.406 21.775H6.63901C6.28872 21.2074 5.9905 20.6093 5.74801 19.988H12.794V12.82L17.832 18.865V18.866Z" fill="#16141A"/>
</svg>
