<svg width="32" height="32" viewBox="0 0 32 32" fill="none" xmlns="http://www.w3.org/2000/svg">
<path d="M16 32C24.8366 32 32 24.8366 32 16C32 7.16344 24.8366 0 16 0C7.16344 0 0 7.16344 0 16C0 24.8366 7.16344 32 16 32Z" fill="#444FA1"/>
<path d="M5 24L16 5L27 24H5ZM11.872 14.324C13.157 13.466 14.535 13.033 16 13.033C17.465 13.033 18.843 13.466 20.128 14.324L16 7.194L11.872 14.324ZM9.921 17.694L6.924 22.871H25.076L22.079 17.695C20.269 19.684 18.236 20.694 16 20.694C13.764 20.694 11.73 19.684 9.92 17.694H9.921ZM16 19.565C17.938 19.565 19.711 18.675 21.338 16.865C19.711 15.052 17.938 14.163 16 14.163C14.062 14.163 12.289 15.053 10.662 16.864C12.289 18.676 14.062 19.566 16 19.566V19.565ZM16 19.082C14.84 19.082 13.899 18.107 13.899 16.904C13.899 15.702 14.839 14.727 16 14.727C17.161 14.727 18.101 15.702 18.101 16.904C18.101 18.107 17.161 19.082 16 19.082ZM16 17.952C16.559 17.952 17.012 17.483 17.012 16.904C17.012 16.325 16.559 15.856 16 15.856C15.441 15.856 14.988 16.326 14.988 16.904C14.988 17.484 15.441 17.953 16 17.953V17.952Z" fill="white"/>
</svg>
