<svg width="32" height="32" viewBox="0 0 32 32" fill="none" xmlns="http://www.w3.org/2000/svg">
<path d="M16 32C24.8366 32 32 24.8366 32 16C32 7.16344 24.8366 0 16 0C7.16344 0 0 7.16344 0 16C0 24.8366 7.16344 32 16 32Z" fill="#3CB054"/>
<path fill-rule="evenodd" clip-rule="evenodd" d="M9 7.5C21.093 7.947 25.756 15.206 23.415 21.683C22.752 23.486 22.047 24.473 20.565 25.5C20.625 25.24 20.687 24.98 20.735 24.713C21.611 19.66 19.95 13.579 11.823 10.22C18.289 14.068 20.898 20.915 17.883 25.335C12.75 26.142 9 21.759 9 16.709V7.5Z" fill="white"/>
</svg>
