<svg width="32" height="32" viewBox="0 0 32 32" fill="none" xmlns="http://www.w3.org/2000/svg">
<path d="M16 32C24.8366 32 32 24.8366 32 16C32 7.16344 24.8366 0 16 0C7.16344 0 0 7.16344 0 16C0 24.8366 7.16344 32 16 32Z" fill="#0050DB"/>
<path d="M16 26C15.3512 25.9997 14.7144 25.8253 14.156 25.495L8.85001 22.375C8.285 22.0389 7.81727 21.5615 7.49288 20.9897C7.16848 20.4178 6.99862 19.7714 7.00001 19.114V12.884C7.00015 12.2272 7.17068 11.5816 7.49494 11.0104C7.8192 10.4391 8.2861 9.96181 8.85001 9.625L14.156 6.505C14.7175 6.17507 15.3568 6.00075 16.008 6C16.653 6 17.288 6.174 17.844 6.505L23.15 9.626C23.7147 9.96191 24.1823 10.4391 24.5066 11.0105C24.831 11.5819 25.001 12.2279 25 12.885V19.115C25 19.772 24.8296 20.4178 24.5053 20.9892C24.1811 21.5606 23.7141 22.0381 23.15 22.375L17.844 25.495C17.284 25.825 16.648 26 16 26ZM12.948 19.571L11.965 20.571C12.2184 20.8336 12.5226 21.0419 12.859 21.1832C13.1954 21.3245 13.5571 21.3959 13.922 21.393C15.452 21.391 16.694 20.129 16.696 18.57V17.718C17.116 17.965 17.593 18.095 18.078 18.094C18.4437 18.1009 18.807 18.0323 19.1451 17.8926C19.4831 17.7529 19.7888 17.5451 20.043 17.282L19.061 16.282C18.801 16.548 18.447 16.698 18.078 16.698C17.7084 16.694 17.3554 16.5437 17.0963 16.28C16.8373 16.0163 16.6933 15.6607 16.696 15.291V10.595H15.314V18.579C15.314 19.358 14.694 19.989 13.929 19.989C13.7459 19.9884 13.5647 19.9512 13.3962 19.8794C13.2277 19.8076 13.0753 19.7027 12.948 19.571Z" fill="white"/>
</svg>
