<svg width="32" height="32" viewBox="0 0 32 32" fill="none" xmlns="http://www.w3.org/2000/svg">
<path d="M16 32C24.8366 32 32 24.8366 32 16C32 7.16344 24.8366 0 16 0C7.16344 0 0 7.16344 0 16C0 24.8366 7.16344 32 16 32Z" fill="#67B2E8"/>
<path fill-rule="evenodd" clip-rule="evenodd" d="M6.145 11.9542C6.05142 11.185 6.003 10.411 6 9.6362C7.31251 8.88858 8.70536 8.29178 10.152 7.8572C12.1817 7.24642 14.2949 6.95857 16.414 7.0042C16.982 7.0152 17.804 7.0782 18.428 7.1452C17.6362 7.56982 16.9498 8.16671 16.4193 8.89187C15.8889 9.61703 15.5279 10.452 15.363 11.3352C15.303 11.6492 15.27 11.9752 15.259 12.3232C15.243 12.8592 15.191 13.2812 15.079 13.6762C14.8272 14.5665 14.3088 15.3583 13.5936 15.9452C12.8784 16.5321 12.0006 16.8859 11.0783 16.9591C10.156 17.0323 9.23345 16.8213 8.43463 16.3545C7.63581 15.8878 6.99906 15.1876 6.61 14.3482C6.56601 14.2521 6.53249 14.1515 6.51 14.0482C6.35162 13.3571 6.22978 12.6581 6.145 11.9542ZM22.758 20.5142C22.52 20.8842 22.268 21.2442 22.006 21.5992C22.0141 20.5893 21.7628 19.5941 21.276 18.7092C20.7753 17.777 20.0343 16.9957 19.13 16.4462L19.04 16.3912C18.99 16.3618 18.9403 16.3318 18.891 16.3012C17.754 15.5782 17.061 14.5662 16.817 13.2602C16.6052 12.1225 16.8381 10.947 17.4675 9.97592C18.097 9.00487 19.075 8.31237 20.2 8.0412C21.02 7.8432 21.83 7.8712 22.637 8.1242C23.256 8.3192 23.882 8.5742 24.645 8.9312C25.085 9.1382 25.529 9.3682 26.001 9.6352C25.9945 11.0298 25.8431 12.4199 25.549 13.7832C25.0358 16.1778 24.0904 18.4587 22.759 20.5142H22.758ZM19.721 24.1872C18.5919 25.2632 17.3439 26.2069 16.001 27.0002C15.654 26.8002 15.3147 26.5871 14.984 26.3612C11.7765 24.204 9.24881 21.179 7.696 17.6392C8.43574 18.0743 9.26173 18.3422 10.116 18.4242C11.3719 18.5514 12.636 18.281 13.73 17.6512C14.2559 17.3516 14.8355 17.1582 15.436 17.0822C16.5007 16.9477 17.5785 17.1964 18.4766 17.7837C19.3747 18.3711 20.0345 19.2589 20.338 20.2882C20.673 21.4092 20.575 22.5102 20.055 23.5952C20.011 23.6872 19.973 23.7612 19.883 23.9382L19.839 24.0252C19.8093 24.0856 19.7694 24.1404 19.721 24.1872Z" fill="white"/>
</svg>
