<svg width="32" height="32" viewBox="0 0 32 32" fill="none" xmlns="http://www.w3.org/2000/svg">
<path d="M16 32C24.8366 32 32 24.8366 32 16C32 7.16344 24.8366 0 16 0C7.16344 0 0 7.16344 0 16C0 24.8366 7.16344 32 16 32Z" fill="#136485"/>
<path fill-rule="evenodd" clip-rule="evenodd" d="M10.436 31.006C8.34082 30.2275 6.43185 29.0189 4.83203 27.458L4.97903 27.201C7.36703 23.428 9.51203 19.523 11.127 15.351C12.84 10.926 14.211 6.384 15.517 1.824C15.634 1.417 15.773 1.017 15.901 0.614C16.039 0.772 16.089 0.919 16.131 1.068C16.951 3.994 17.744 6.928 18.595 9.844C20.145 15.157 22.325 20.197 25.212 24.921C25.549 25.471 26.122 26.393 26.932 27.683C25.2078 29.2991 23.1466 30.5129 20.897 31.237C19.239 26.1773 17.5717 21.1206 15.895 16.067L15.741 16.065C14.575 19.342 12.807 24.322 10.436 31.006ZM16.075 0.049H15.951L16 0L16.075 0.049Z" fill="white"/>
</svg>
