<svg width="32" height="32" viewBox="0 0 32 32" fill="none" xmlns="http://www.w3.org/2000/svg">
<path d="M16 32C24.8366 32 32 24.8366 32 16C32 7.16344 24.8366 0 16 0C7.16344 0 0 7.16344 0 16C0 24.8366 7.16344 32 16 32Z" fill="#57BEEA"/>
<path d="M7.02601 19.009C6.64541 19.0534 6.25974 19.0166 5.8944 18.9011C5.52905 18.7855 5.19234 18.5939 4.90643 18.3388C4.62052 18.0837 4.39192 17.7709 4.23569 17.421C4.07945 17.0712 3.99913 16.6922 4.00001 16.309C3.99838 15.5939 4.27929 14.907 4.78158 14.398C5.28388 13.8889 5.96691 13.5989 6.68201 13.591C7.64201 9.181 11.552 5.88 16.228 5.88C17.101 5.88 17.948 5.995 18.753 6.21C18.9992 5.83796 19.3337 5.53273 19.7267 5.32158C20.1197 5.11043 20.5589 4.99994 21.005 5C21.7241 5.00185 22.413 5.28922 22.9203 5.79892C23.4275 6.30862 23.7116 6.99891 23.71 7.718C23.71 8.187 23.592 8.628 23.384 9.012C25.0696 10.83 26.0043 13.2188 26 15.698C26.0023 16.9965 25.7468 18.2826 25.2483 19.4816C24.7498 20.6807 24.0182 21.7688 23.096 22.683C23.422 23.131 23.614 23.684 23.614 24.282C23.6148 24.6381 23.5454 24.991 23.4099 25.3203C23.2743 25.6496 23.0752 25.949 22.8239 26.2014C22.5726 26.4538 22.2741 26.6542 21.9454 26.7913C21.6167 26.9283 21.2642 26.9992 20.908 27C20.3634 26.9994 19.8317 26.8345 19.3823 26.5269C18.9329 26.2193 18.5868 25.7834 18.389 25.276C17.6802 25.4362 16.9557 25.5167 16.229 25.516C11.988 25.516 8.37801 22.802 7.02601 19.009ZM7.51601 18.904C8.81601 22.472 12.226 25.019 16.228 25.019C16.923 25.019 17.6 24.942 18.251 24.797C18.1742 24.4045 18.1851 23.9999 18.283 23.6121C18.3809 23.2244 18.5633 22.863 18.8173 22.5541C19.0712 22.2451 19.3903 21.9961 19.7518 21.8249C20.1132 21.6538 20.5081 21.5647 20.908 21.564C21.628 21.564 22.284 21.847 22.768 22.308C23.6374 21.441 24.3268 20.4107 24.7965 19.2763C25.2662 18.1419 25.507 16.9258 25.505 15.698C25.505 13.288 24.595 11.092 23.1 9.438C22.604 10.048 21.85 10.437 21.005 10.437C20.6488 10.4362 20.2962 10.3653 19.9674 10.2282C19.6386 10.0911 19.34 9.89058 19.0887 9.63808C18.8374 9.38558 18.6384 9.08605 18.5029 8.7566C18.3674 8.42715 18.2981 8.07423 18.299 7.718C18.299 7.344 18.375 6.987 18.511 6.662C17.7648 6.47273 16.9979 6.37732 16.228 6.378C11.812 6.378 8.11601 9.479 7.18101 13.633C7.80751 13.7467 8.3741 14.0771 8.78173 14.5662C9.18936 15.0554 9.4121 15.6723 9.41101 16.309C9.41192 16.8869 9.22859 17.4501 8.88764 17.9168C8.54669 18.3834 8.06587 18.7292 7.51501 18.904H7.51601ZM16.228 18.42C15.8715 18.4191 15.5186 18.3479 15.1896 18.2107C14.8605 18.0734 14.5617 17.8726 14.3103 17.6198C14.0588 17.3671 13.8596 17.0673 13.724 16.7375C13.5884 16.4078 13.5191 16.0545 13.52 15.698C13.52 14.195 14.732 12.977 16.228 12.977C17.724 12.977 18.937 14.195 18.937 15.698C18.9379 16.0546 18.8686 16.4079 18.7329 16.7378C18.5973 17.0676 18.398 17.3674 18.1464 17.6202C17.8948 17.873 17.5959 18.0737 17.2668 18.2109C16.9376 18.3482 16.5846 18.4192 16.228 18.42Z" fill="white"/>
</svg>
