<svg width="32" height="32" viewBox="0 0 32 32" fill="none" xmlns="http://www.w3.org/2000/svg">
<path d="M16 32C24.8366 32 32 24.8366 32 16C32 7.16344 24.8366 0 16 0C7.16344 0 0 7.16344 0 16C0 24.8366 7.16344 32 16 32Z" fill="#2FD2E5"/>
<path d="M16.57 4.00711C13.868 3.91324 11.2158 4.75105 9.058 6.38011C8.84879 6.53735 8.67717 6.73915 8.55557 6.97089C8.43396 7.20263 8.36541 7.45852 8.35488 7.72002C8.34435 7.98151 8.39211 8.24208 8.49469 8.48285C8.59727 8.72362 8.75211 8.93856 8.948 9.11211C9.57 9.70011 10.528 9.74611 11.204 9.22111C12.8593 7.9329 14.9372 7.31176 17.0279 7.48022C19.1186 7.64867 21.0703 8.59449 22.498 10.1311C23.088 10.7411 23.106 11.7021 22.54 12.3341C22.3977 12.4867 22.2268 12.6097 22.037 12.6962C21.8472 12.7827 21.6421 12.831 21.4337 12.8382C21.2252 12.8455 21.0173 12.8116 20.8219 12.7385C20.6266 12.6653 20.4475 12.5544 20.295 12.4121L20.218 12.3341C19.5061 11.5535 18.5748 11.0063 17.5463 10.7646C16.5178 10.5228 15.4402 10.5977 14.4551 10.9795C13.4699 11.3612 12.6233 12.032 12.0262 12.9036C11.4292 13.7753 11.1097 14.8071 11.1097 15.8636C11.1097 16.9201 11.4292 17.952 12.0262 18.8236C12.6233 19.6953 13.4699 20.366 14.4551 20.7477C15.4402 21.1295 16.5178 21.2044 17.5463 20.9626C18.5748 20.7209 19.5061 20.1738 20.218 19.3931C20.4461 19.1379 20.7519 18.965 21.0881 18.9012C21.4244 18.8374 21.7723 18.8862 22.078 19.0401C22.2955 19.1492 22.4848 19.3071 22.6311 19.5014C22.7775 19.6958 22.8769 19.9214 22.9217 20.1605C22.9664 20.3997 22.9552 20.6459 22.889 20.88C22.8228 21.1142 22.7034 21.3298 22.54 21.5101C21.1182 23.0665 19.164 24.0325 17.064 24.217C14.964 24.4014 12.8713 23.7908 11.2 22.5061C10.8693 22.2541 10.4602 22.127 10.0449 22.1471C9.62966 22.1673 9.23481 22.3333 8.93 22.6161C8.73541 22.7944 8.58275 23.0136 8.48302 23.258C8.38328 23.5024 8.33894 23.7658 8.35319 24.0293C8.36744 24.2929 8.43992 24.55 8.56542 24.7822C8.69092 25.0143 8.86632 25.2158 9.079 25.3721C10.5707 26.4783 12.3014 27.2186 14.1317 27.5331C15.962 27.8476 17.8405 27.7276 19.6159 27.1828C21.3913 26.638 23.0138 25.6836 24.3526 24.3966C25.6915 23.1096 26.7091 21.526 27.3235 19.7735C27.9379 18.021 28.1319 16.1486 27.8898 14.3073C27.6478 12.4661 26.9764 10.7075 25.9299 9.17335C24.8833 7.63921 23.4909 6.37246 21.8649 5.47526C20.239 4.57805 18.4249 4.07549 16.569 4.00811L16.57 4.00711ZM16.35 18.7951C15.9648 18.7937 15.5837 18.7164 15.2284 18.5676C14.8731 18.4189 14.5506 18.2017 14.2793 17.9283C14.0079 17.6549 13.7931 17.3308 13.6471 16.9744C13.501 16.618 13.4266 16.2363 13.428 15.8511C13.4294 15.4659 13.5067 15.0848 13.6555 14.7295C13.8042 14.3742 14.0215 14.0517 14.2948 13.7804C14.5682 13.5091 14.8924 13.2942 15.2488 13.1482C15.6052 13.0021 15.9868 12.9277 16.372 12.9291C17.1499 12.9319 17.8948 13.2436 18.4429 13.7956C18.9909 14.3476 19.2973 15.0947 19.2945 15.8726C19.2917 16.6505 18.98 17.3954 18.428 17.9435C17.876 18.4916 17.1289 18.7979 16.351 18.7951H16.35Z" fill="white"/>
</svg>
