<svg width="32" height="32" viewBox="0 0 32 32" fill="none" xmlns="http://www.w3.org/2000/svg">
<path d="M16 32C24.8366 32 32 24.8366 32 16C32 7.16344 24.8366 0 16 0C7.16344 0 0 7.16344 0 16C0 24.8366 7.16344 32 16 32Z" fill="#610089"/>
<path fill-rule="evenodd" clip-rule="evenodd" d="M16.4901 5.00283C21.6201 5.27883 25.7721 8.83884 26.7911 13.8708C26.9251 14.5348 26.9611 15.2218 26.9981 15.9008C27.0311 16.5008 26.6401 16.9058 26.0991 16.9048C25.5691 16.9048 25.2221 16.5208 25.2091 15.9248C25.1121 11.5378 22.1491 7.91983 17.8711 7.00483C17.2311 6.86883 16.5631 6.86683 15.9091 6.79283C15.4111 6.73683 15.0811 6.35383 15.0951 5.86783C15.1091 5.38683 15.4691 5.02883 15.9711 5.00383C16.1441 4.99583 16.3171 5.00283 16.4901 5.00283ZM15.5321 26.9998C10.6091 26.8518 6.18111 23.1198 5.24711 18.2878C5.10511 17.5478 5.05111 16.7888 5.00211 16.0358C4.97211 15.5758 5.26511 15.2458 5.69211 15.1358C6.04611 15.0438 6.45811 15.1948 6.63811 15.5318C6.72811 15.7028 6.77111 15.9188 6.77511 16.1158C6.84811 20.3198 9.69111 23.9378 13.7711 24.9438C14.5071 25.1258 15.2831 25.1548 16.0431 25.2358C16.4771 25.2808 16.8251 25.5758 16.8831 25.9988C16.9381 26.3988 16.6861 26.8458 16.3031 26.9408C16.0561 27.0018 15.7891 26.9828 15.5321 26.9998ZM15.9841 11.9968C18.1611 11.9898 19.9891 13.7748 20.0041 15.9218C20.0091 16.6618 19.3311 17.1278 18.7041 16.8088C18.3641 16.6368 18.2181 16.3488 18.2041 15.9658C18.1936 15.4476 18.0007 14.9496 17.6592 14.5596C17.3176 14.1696 16.8495 13.9126 16.3371 13.8338C15.1851 13.6378 14.0651 14.4198 13.8411 15.5768C13.6121 16.7588 14.3521 17.9098 15.5041 18.1588C15.6621 18.1928 15.8241 18.2118 15.9841 18.2208C16.5201 18.2488 16.8961 18.6178 16.8921 19.1208C16.8881 19.6308 16.4851 20.0088 15.9391 20.0138C14.2231 20.0288 12.6051 18.7768 12.1371 17.0728C11.4381 14.5278 13.3501 12.0048 15.9841 11.9968ZM23.5391 15.7538C23.5191 15.9238 23.5261 16.1368 23.4641 16.3268C23.3341 16.7308 22.9041 16.9648 22.4841 16.8968C22.0471 16.8248 21.7361 16.4668 21.7311 15.9768C21.7241 15.2308 21.6031 14.5068 21.2971 13.8298C20.2841 11.5948 18.5511 10.3958 16.0931 10.2798C15.4921 10.2498 15.0931 9.89783 15.0971 9.35983C15.1021 8.82183 15.5041 8.47083 16.1141 8.47283C19.7841 8.47983 22.9911 11.3198 23.4561 14.9768C23.4881 15.2238 23.5091 15.4708 23.5391 15.7538ZM8.47811 16.2148C8.42711 15.8078 8.53111 15.4068 8.99611 15.1928C9.60811 14.9098 10.2491 15.3478 10.2611 16.0668C10.2731 16.7558 10.3911 17.4188 10.6391 18.0608C11.0426 19.1229 11.7536 20.0406 12.6813 20.6964C13.609 21.3523 14.7113 21.7166 15.8471 21.7428C16.6231 21.7628 17.0741 22.3248 16.8271 22.9628C16.6891 23.3228 16.3851 23.5318 15.9691 23.5278C13.7671 23.5078 11.9101 22.6828 10.4251 21.0658C9.20192 19.7435 8.50878 18.0169 8.47811 16.2158V16.2148ZM20.0121 19.0348C19.9751 19.4818 19.8221 19.7648 19.4861 19.9218C19.1521 20.0778 18.8131 20.0538 18.5461 19.8068C18.0623 19.3583 17.595 18.8924 17.1451 18.4098C16.8351 18.0778 16.8651 17.5548 17.1691 17.2278C17.4791 16.8948 18.0331 16.8258 18.3721 17.1368C18.8741 17.5948 19.3491 18.0848 19.8121 18.5838C19.9341 18.7158 19.9681 18.9288 20.0121 19.0338V19.0348Z" fill="white"/>
</svg>
