<svg width="32" height="32" viewBox="0 0 32 32" fill="none" xmlns="http://www.w3.org/2000/svg">
<path d="M16 32C24.8366 32 32 24.8366 32 16C32 7.16344 24.8366 0 16 0C7.16344 0 0 7.16344 0 16C0 24.8366 7.16344 32 16 32Z" fill="#F5342E"/>
<path d="M6.00053 16.1239C5.98913 15.0099 6.1604 13.9015 6.50753 12.8429C6.89945 11.6424 7.51532 10.5271 8.32253 9.55591C9.23837 8.44165 10.3891 7.54357 11.6925 6.92591C12.5563 6.51494 13.4775 6.23745 14.4245 6.10291C14.9938 6.01867 15.5695 5.98653 16.1445 6.00691C17.2802 6.04844 18.3995 6.29085 19.4505 6.72291C19.4665 6.72991 19.4855 6.73691 19.4875 6.75691C19.4895 6.78291 19.4665 6.79091 19.4475 6.79891L19.0875 6.93891C18.3032 7.24357 17.5367 7.59212 16.7915 7.98291C15.9645 8.41991 15.1705 8.90991 14.4335 9.49491C13.7935 10.0039 13.2085 10.5699 12.7335 11.2479C12.4135 11.7039 12.1615 12.1939 12.0235 12.7409C11.8475 13.4329 11.8905 14.1179 12.0905 14.7969C12.2375 15.2989 12.4585 15.7689 12.7025 16.2269C13.0105 16.8069 13.3595 17.3619 13.6805 17.9339C13.9725 18.4539 14.2445 18.9839 14.4245 19.5589C14.5495 19.9599 14.6245 20.3709 14.6165 20.7929C14.6031 21.3402 14.462 21.8768 14.2045 22.3599C13.9015 22.9439 13.4865 23.4359 13.0245 23.8899C12.5975 24.3089 12.1335 24.6779 11.6545 25.0299C11.5845 25.0819 11.5295 25.0799 11.4565 25.0419C10.7587 24.6873 10.1057 24.2505 9.51153 23.7409C8.79097 23.123 8.1623 22.4055 7.64453 21.6099C6.79446 20.3036 6.25594 18.8194 6.07053 17.2719C6.02106 16.8913 5.99767 16.5077 6.00053 16.1239Z" fill="white"/>
<path d="M12.0469 25.241C12.0649 25.198 12.1099 25.197 12.1439 25.185C12.8426 24.9296 13.5299 24.644 14.2039 24.329C14.9939 23.957 15.7629 23.545 16.4909 23.064C17.0595 22.6946 17.5948 22.2763 18.0909 21.814C18.5789 21.354 19.0109 20.85 19.3469 20.27C19.6189 19.8 19.8029 19.299 19.8629 18.758C19.9125 18.2661 19.866 17.7692 19.7259 17.295C19.5759 16.766 19.3409 16.273 19.0769 15.792C18.7609 15.215 18.4019 14.662 18.0709 14.094C17.7899 13.611 17.5279 13.119 17.3379 12.592C17.1463 12.0857 17.0652 11.5442 17.0999 11.004C17.1269 10.634 17.2229 10.278 17.3719 9.936C17.5959 9.422 17.9189 8.973 18.2939 8.559C18.8419 7.952 19.4789 7.449 20.1429 6.975C20.2159 6.922 20.2769 6.916 20.3579 6.957C21.0639 7.311 21.7239 7.733 22.3329 8.234C22.9559 8.747 23.5099 9.324 23.9929 9.967C25.14 11.4849 25.8247 13.3016 25.9649 15.199C25.9869 15.514 26.0069 15.829 25.9979 16.145C25.9764 17.0646 25.8311 17.9772 25.5659 18.858C25.0487 20.5521 24.0919 22.0789 22.7929 23.283C21.3602 24.6112 19.5761 25.4998 17.6529 25.843C16.9756 25.9619 16.2883 26.0135 15.6009 25.997C14.4174 25.9668 13.2481 25.7316 12.1449 25.302C12.1089 25.286 12.0669 25.282 12.0469 25.242V25.241Z" fill="white"/>
</svg>
