<svg width="32" height="32" viewBox="0 0 32 32" fill="none" xmlns="http://www.w3.org/2000/svg">
<path d="M16 32C24.8366 32 32 24.8366 32 16C32 7.16344 24.8366 0 16 0C7.16344 0 0 7.16344 0 16C0 24.8366 7.16344 32 16 32Z" fill="#FF8C00"/>
<path d="M22.59 19.445C22.641 19.846 22.527 20.001 22.4 20.001C22.273 20.001 22.095 19.846 21.905 19.536C21.715 19.226 21.638 18.876 21.74 18.696C21.803 18.579 21.943 18.527 22.108 18.592C22.438 18.722 22.565 19.225 22.59 19.445ZM20.813 20.325C21.206 20.661 21.321 21.048 21.117 21.333C21.053 21.4078 20.9731 21.4674 20.8831 21.5076C20.7932 21.5477 20.6955 21.5673 20.597 21.565C20.3778 21.5672 20.1654 21.4889 20 21.345C19.645 21.035 19.543 20.518 19.771 20.234C19.8197 20.1738 19.8819 20.1259 19.9527 20.0945C20.0235 20.063 20.1007 20.0488 20.178 20.053C20.381 20.053 20.61 20.143 20.813 20.324V20.325ZM7 14.894C7 9.981 10.91 6 15.734 6C20.559 6 24.469 9.982 24.469 14.894C24.4691 16.4974 24.0444 18.0721 23.238 19.458C23.212 19.497 23.148 19.484 23.136 19.432C22.832 17.247 21.524 16.045 19.62 15.683C19.454 15.657 19.429 15.553 19.645 15.528C20.229 15.476 21.054 15.489 21.485 15.567C21.5113 15.3393 21.5243 15.1102 21.524 14.881C21.524 11.636 18.934 8.999 15.747 8.999C12.561 8.999 9.971 11.636 9.971 14.881C9.971 18.127 12.561 20.764 15.747 20.764H16.014C15.9233 20.2391 15.8848 19.7065 15.899 19.174C15.912 18.812 15.989 18.76 16.141 19.044C16.941 20.454 18.083 21.721 20.318 22.224C22.146 22.639 23.974 23.117 25.942 25.664C26.119 25.884 25.853 26.116 25.65 25.935C23.644 24.125 21.816 23.53 20.153 23.53C18.286 23.544 17.017 23.79 15.734 23.79C10.91 23.79 7 19.806 7 14.893V14.894Z" fill="white"/>
</svg>
