<svg width="32" height="32" viewBox="0 0 32 32" fill="none" xmlns="http://www.w3.org/2000/svg">
<path d="M16 32C24.8366 32 32 24.8366 32 16C32 7.16344 24.8366 0 16 0C7.16344 0 0 7.16344 0 16C0 24.8366 7.16344 32 16 32Z" fill="#23336F"/>
<path d="M16.4854 19.46C16.4854 19.46 19.3984 20.177 21.7054 18.364C24.0124 16.552 23.9404 13.819 23.9404 13.819C23.9404 13.819 21.3304 13.006 18.9584 14.735C16.5874 16.463 16.4854 19.46 16.4854 19.46ZM16.4764 20.827C16.4764 20.827 16.9524 22.877 18.8174 23.747C20.6824 24.617 22.3714 23.706 22.3714 23.706C22.3714 23.706 22.0544 21.814 20.2184 20.876C18.3824 19.94 16.4764 20.827 16.4764 20.827ZM20.8654 19.94C20.8654 19.94 21.8724 21.059 23.3414 20.958C24.8114 20.856 25.5514 19.701 25.5514 19.701C25.5514 19.701 24.6974 18.627 23.2264 18.675C21.7564 18.724 20.8654 19.94 20.8654 19.94ZM19.3924 12.873C19.3924 12.873 17.8404 10.307 14.9264 9.95696C12.0134 9.60696 10.1324 11.591 10.1324 11.591C10.1324 11.591 11.4034 14.011 14.3024 14.466C17.2014 14.921 19.3924 12.873 19.3924 12.873ZM20.3654 11.913C20.3654 11.913 21.4794 10.128 20.7754 8.19296C20.0704 6.25996 18.2304 5.70996 18.2304 5.70996C18.2304 5.70996 17.1204 7.27296 17.7554 9.23196C18.3894 11.192 20.3644 11.914 20.3644 11.914L20.3654 11.913ZM16.6354 9.43796C16.6354 9.43796 16.7144 7.93396 15.6034 6.96596C14.4924 5.99996 13.1504 6.29196 13.1504 6.29196C13.1504 6.29196 12.9954 7.65596 14.0704 8.66196C15.1464 9.66996 16.6344 9.43796 16.6344 9.43796H16.6354ZM14.0224 16.4C14.0224 16.4 11.4544 17.952 11.1054 20.866C10.7554 23.779 12.7384 25.66 12.7384 25.66C12.7384 25.66 15.1584 24.391 15.6134 21.49C16.0684 18.589 14.0224 16.4 14.0224 16.4ZM13.0604 15.426C13.0604 15.426 11.2734 14.312 9.34045 15.016C7.40745 15.721 6.85645 17.559 6.85645 17.559C6.85645 17.559 8.42045 18.669 10.3784 18.035C12.3384 17.401 13.0604 15.425 13.0604 15.425V15.426ZM10.5864 19.157C10.5864 19.157 9.08245 19.077 8.11645 20.188C7.14845 21.3 7.43945 22.641 7.43945 22.641C7.43945 22.641 8.80345 22.796 9.81045 21.721C10.8174 20.645 10.5864 19.157 10.5864 19.157Z" fill="white"/>
</svg>
