<svg width="32" height="32" viewBox="0 0 32 32" fill="none" xmlns="http://www.w3.org/2000/svg">
<path d="M16 32C24.8366 32 32 24.8366 32 16C32 7.16344 24.8366 0 16 0C7.16344 0 0 7.16344 0 16C0 24.8366 7.16344 32 16 32Z" fill="#F5D100"/>
<path d="M15.972 4C9.372 4 4 9.372 4 15.972C4 22.572 9.372 27.954 15.982 27.954C22.591 27.954 27.963 22.582 27.963 15.972C27.963 9.363 22.582 4 15.973 4H15.972ZM15.972 27.03C9.88 27.03 4.914 22.074 4.914 15.972C4.924 9.88 9.88 4.923 15.972 4.923C22.065 4.923 27.031 9.88 27.031 15.982C27.031 22.074 22.074 27.031 15.972 27.031V27.03Z" fill="white"/>
<path d="M9.77441 10.6559L10.6544 9.7749L15.3424 14.4619L14.4614 15.3419L9.77441 10.6559ZM16.5924 17.4769L17.4734 16.5959L22.1604 21.2829L21.2794 22.1629L16.5924 17.4769ZM15.0974 15.9749L15.9774 15.0949L16.8654 15.9809L15.9854 16.8629L15.0974 15.9749ZM16.6054 14.4999L21.2924 9.8139L22.1724 10.6949L17.4864 15.3819L16.6054 14.4999ZM9.80841 21.2879L14.4944 16.6019L15.3754 17.4819L10.6894 22.1689L9.80841 21.2879Z" fill="white"/>
</svg>
