<svg width="32" height="32" viewBox="0 0 32 32" fill="none" xmlns="http://www.w3.org/2000/svg">
<path d="M16 32C24.8366 32 32 24.8366 32 16C32 7.16344 24.8366 0 16 0C7.16344 0 0 7.16344 0 16C0 24.8366 7.16344 32 16 32Z" fill="#00BDCD"/>
<path d="M21.833 9.744C20.4213 8.54467 18.6273 7.88958 16.775 7.897C12.58 7.897 9.125 11.214 8.837 15.454H8.015C8.303 10.71 12.128 7.057 16.775 7.057C18.832 7.057 20.805 7.813 22.409 9.157L21.833 9.744ZM21.545 12.515C21.005 11.7517 20.2903 11.1286 19.4606 10.6977C18.6308 10.2668 17.71 10.0406 16.775 10.038C13.526 10.038 10.894 12.725 10.894 16C10.894 19.316 13.526 22.004 16.774 22.004C18.66 22.004 20.433 21.084 21.545 19.526L22.122 20.114C20.846 21.835 18.872 22.844 16.775 22.844C13.073 22.844 10.071 19.778 10.071 16C10.071 12.264 13.073 9.198 16.775 9.198C17.8178 9.20229 18.8451 9.45159 19.7738 9.92579C20.7026 10.4 21.507 11.0858 22.122 11.928L21.545 12.515ZM22.491 10.374L23.068 9.786C23.273 9.996 23.438 10.206 23.602 10.416L23.026 11.003C22.8596 10.7831 22.681 10.5728 22.491 10.373V10.374ZM16.734 24.984C12.087 24.984 8.262 21.332 7.974 16.588H8.796C9.084 20.828 12.539 24.145 16.734 24.145C18.584 24.145 20.354 23.515 21.792 22.298L22.368 22.885C20.7998 24.2332 18.8021 24.9779 16.734 24.985V24.984ZM22.491 21.668C22.697 21.458 22.861 21.248 23.026 21.038L23.602 21.625C23.437 21.835 23.273 22.045 23.068 22.255L22.491 21.668ZM6.823 16C6.823 21.584 11.305 26.16 16.775 26.16C19.736 26.16 22.532 24.859 24.425 22.466L25 23.053C22.944 25.573 19.983 27 16.775 27C10.812 27 6 22.045 6 16C6 9.912 10.853 5 16.775 5C19.94 5 22.945 6.427 25 8.947L24.424 9.535C22.532 7.184 19.736 5.84 16.774 5.84C11.304 5.84 6.823 10.416 6.823 16Z" fill="white"/>
</svg>
