<svg width="32" height="32" viewBox="0 0 32 32" fill="none" xmlns="http://www.w3.org/2000/svg">
<path d="M16 32C24.8366 32 32 24.8366 32 16C32 7.16344 24.8366 0 16 0C7.16344 0 0 7.16344 0 16C0 24.8366 7.16344 32 16 32Z" fill="#048657"/>
<path d="M2.63184 16.57L4.58184 14.349H11.5198L15.7828 19.787L26.9378 4.33398C27.6226 4.95198 28.2455 5.63521 28.7978 6.37398C29.3735 7.13969 29.8744 7.95876 30.2938 8.81998L16.5988 27.763C16.3398 28.035 16.0678 28.171 15.7828 28.171C15.4968 28.171 15.2098 28.035 14.9208 27.763L6.25984 16.569H2.63184V16.57Z" fill="white"/>
</svg>
