<svg width="32" height="32" viewBox="0 0 32 32" fill="none" xmlns="http://www.w3.org/2000/svg">
<path d="M16 32C24.8366 32 32 24.8366 32 16C32 7.16344 24.8366 0 16 0C7.16344 0 0 7.16344 0 16C0 24.8366 7.16344 32 16 32Z" fill="#AA15DD"/>
<path d="M15.999 25.6121C16.239 25.6131 16.434 25.8121 16.435 26.0561C16.4361 26.1726 16.3909 26.2848 16.3093 26.368C16.2278 26.4513 16.1166 26.4987 16 26.5001C15.9422 26.4995 15.8851 26.4876 15.8319 26.465C15.7788 26.4425 15.7306 26.4096 15.6901 26.3684C15.6496 26.3271 15.6176 26.2783 15.596 26.2248C15.5744 26.1712 15.5635 26.1138 15.564 26.0561C15.5635 25.9983 15.5744 25.941 15.596 25.8874C15.6176 25.8338 15.6496 25.785 15.6901 25.7438C15.7306 25.7025 15.7788 25.6697 15.8319 25.6471C15.8851 25.6245 15.9422 25.6126 16 25.6121H15.999ZM7.21903 11.3581C7.11801 11.2976 7.04468 11.2001 7.01477 11.0862C6.98486 10.9724 7.00075 10.8513 7.05903 10.7491C7.10181 10.673 7.16644 10.6115 7.24455 10.5726C7.32267 10.5337 7.41066 10.5191 7.49716 10.5307C7.58366 10.5423 7.66467 10.5797 7.72972 10.6378C7.79477 10.696 7.84086 10.7724 7.86203 10.8571C7.88452 10.942 7.88164 11.0317 7.85374 11.1151C7.82584 11.1984 7.77414 11.2718 7.70503 11.3261C7.63663 11.3797 7.55367 11.4114 7.46697 11.4171C7.38027 11.4228 7.29386 11.4022 7.21903 11.3581ZM7.21903 20.6521C7.26877 20.6232 7.32373 20.6046 7.38074 20.5972C7.43775 20.5898 7.49566 20.5938 7.55111 20.609C7.60656 20.6241 7.65844 20.6501 7.70375 20.6855C7.74905 20.7209 7.78688 20.7649 7.81503 20.8151C7.87289 20.9169 7.88855 21.0374 7.85864 21.1507C7.82873 21.264 7.75564 21.361 7.65503 21.4211C7.60536 21.4502 7.55038 21.469 7.49331 21.4766C7.43624 21.4841 7.37825 21.4802 7.32272 21.465C7.2672 21.4498 7.21527 21.4237 7.16999 21.3882C7.1247 21.3526 7.08698 21.3084 7.05903 21.2581C7.00116 21.1562 6.9855 21.0357 7.01541 20.9224C7.04532 20.8091 7.11841 20.7121 7.21903 20.6521ZM24.779 11.3581C24.7293 11.3869 24.6743 11.4055 24.6173 11.4129C24.5603 11.4203 24.5024 11.4163 24.4469 11.4012C24.3915 11.386 24.3396 11.36 24.2943 11.3246C24.249 11.2892 24.2112 11.2452 24.183 11.1951C24.1392 11.1186 24.1188 11.031 24.1241 10.9431C24.1294 10.8551 24.1603 10.7707 24.213 10.7001C24.265 10.6301 24.3369 10.5774 24.4194 10.5488C24.5018 10.5203 24.5909 10.5172 24.675 10.5401C24.7596 10.564 24.8353 10.6122 24.8926 10.6789C24.95 10.7455 24.9865 10.8275 24.9976 10.9147C25.0087 11.0019 24.9939 11.0904 24.955 11.1692C24.9161 11.2481 24.8549 11.3137 24.779 11.3581ZM16 6.38807C15.8846 6.38518 15.7748 6.33701 15.6946 6.25394C15.6143 6.17087 15.5699 6.05957 15.571 5.94407C15.571 5.76407 15.679 5.60107 15.842 5.53307C15.9223 5.49965 16.0109 5.49132 16.096 5.50917C16.1812 5.52702 16.2589 5.57021 16.319 5.63307C16.3798 5.69645 16.4207 5.77624 16.4367 5.8626C16.4527 5.94896 16.4431 6.03811 16.409 6.11907C16.3756 6.19969 16.3188 6.26843 16.2458 6.31638C16.1729 6.36434 16.0873 6.38931 16 6.38807ZM23.8 20.5821C23.694 20.7691 23.6581 20.9878 23.6988 21.199C23.7395 21.4101 23.8541 21.5998 24.022 21.7341L16.871 25.9341C16.8435 25.7224 16.7402 25.5278 16.5802 25.3865C16.4203 25.2451 16.2145 25.1664 16.001 25.1651C15.7876 25.1664 15.5818 25.2451 15.4219 25.3865C15.2619 25.5278 15.1586 25.7224 15.131 25.9341L7.97803 21.7341C8.14541 21.5996 8.25947 21.4099 8.29978 21.199C8.34009 20.9881 8.30402 20.7698 8.19803 20.5831C8.09455 20.3973 7.92669 20.2558 7.72609 20.1852C7.52549 20.1147 7.30601 20.12 7.10903 20.2001V11.8001C7.30577 11.88 7.52493 11.8852 7.72529 11.8149C7.92565 11.7445 8.09341 11.6034 8.19703 11.4181C8.30308 11.2318 8.33948 11.0139 8.29973 10.8032C8.25998 10.5926 8.14667 10.4029 7.98003 10.2681L15.131 6.06807C15.1586 6.27976 15.2619 6.4743 15.4219 6.61568C15.5818 6.75706 15.7876 6.83571 16.001 6.83707C16.2147 6.83568 16.4205 6.75689 16.5805 6.6153C16.7405 6.47372 16.8437 6.27894 16.871 6.06707L24.024 10.2671C23.8569 10.4015 23.743 10.591 23.7027 10.8016C23.6624 11.0123 23.6983 11.2304 23.804 11.4171C23.9075 11.6028 24.0754 11.7443 24.276 11.8149C24.4766 11.8854 24.696 11.8802 24.893 11.8001V20.1951C24.6952 20.1149 24.4748 20.11 24.2736 20.1813C24.0724 20.2526 23.9042 20.3952 23.801 20.5821H23.8ZM17.688 19.2951C16.9111 19.7518 15.992 19.903 15.1097 19.7193C14.2274 19.5356 13.445 19.03 12.915 18.3011L17.633 15.5371L19.241 14.5931L20.003 14.1431L20.047 14.1221L23.287 12.2161C23.487 12.0991 23.557 11.8391 23.443 11.6351C23.4169 11.5861 23.381 11.543 23.3375 11.5084C23.2941 11.4739 23.2441 11.4485 23.1905 11.434C23.1369 11.4195 23.0809 11.4161 23.026 11.424C22.9711 11.4319 22.9183 11.451 22.871 11.4801L20.489 12.8851C20.0361 12.2076 19.4412 11.6367 18.7457 11.2119C18.0502 10.7871 17.2706 10.5187 16.461 10.4251V7.69607C16.4616 7.63881 16.4508 7.58201 16.4294 7.52891C16.408 7.47581 16.3763 7.42745 16.3362 7.38659C16.296 7.34573 16.2483 7.31318 16.1956 7.29078C16.1429 7.26838 16.0863 7.25659 16.029 7.25607C15.9717 7.25646 15.915 7.26816 15.8622 7.29049C15.8094 7.31283 15.7615 7.34537 15.7212 7.38624C15.681 7.42711 15.6493 7.47551 15.6278 7.52868C15.6063 7.58184 15.5955 7.63873 15.596 7.69607V10.4001C14.7074 10.4436 13.8426 10.7024 13.076 11.1541C12.3842 11.5596 11.7864 12.1073 11.322 12.7611L9.13803 11.4801C9.09045 11.4522 9.03778 11.4341 8.98312 11.4269C8.92846 11.4197 8.8729 11.4234 8.81971 11.438C8.76652 11.4525 8.71677 11.4775 8.67338 11.5115C8.62999 11.5455 8.59383 11.5879 8.56703 11.6361C8.51195 11.7336 8.49712 11.8488 8.52569 11.9571C8.55427 12.0655 8.62399 12.1584 8.72003 12.2161L10.887 13.4901C10.4235 14.4193 10.2196 15.4565 10.297 16.4921L10.498 17.6361C10.588 17.9461 10.701 18.2481 10.839 18.5391L8.72003 19.7841C8.62336 19.842 8.55328 19.9355 8.52485 20.0445C8.49643 20.1535 8.51193 20.2694 8.56803 20.3671C8.59511 20.4152 8.63152 20.4575 8.67513 20.4915C8.71874 20.5254 8.76867 20.5503 8.82202 20.5648C8.87536 20.5792 8.93104 20.5828 8.98582 20.5755C9.04059 20.5682 9.09335 20.55 9.14103 20.5221L11.268 19.2761C11.7548 19.9868 12.3974 20.577 13.147 21.0016C13.8965 21.4262 14.7331 21.674 15.593 21.7261V24.3041C15.593 24.5471 15.787 24.7441 16.026 24.7441C16.0833 24.7435 16.1399 24.7317 16.1926 24.7094C16.2453 24.687 16.293 24.6544 16.3332 24.6135C16.3733 24.5727 16.405 24.5243 16.4264 24.4712C16.4478 24.4181 16.4586 24.3613 16.458 24.3041V21.7041C17.2361 21.6241 17.9874 21.3749 18.659 20.9741C19.4168 20.5238 20.0562 19.8991 20.524 19.1521L22.861 20.5201C23.061 20.6341 23.313 20.5631 23.428 20.3611C23.4835 20.2641 23.4991 20.1493 23.4715 20.0411C23.4439 19.9328 23.3752 19.8396 23.28 19.7811L20.928 18.4011C20.934 18.3881 20.948 18.3731 20.948 18.3571C21.662 16.7131 19.751 16.0071 19.326 17.2731C19.0421 18.1231 18.4599 18.8414 17.687 19.2951H17.688ZM24.78 20.6521C24.8805 20.7125 24.9535 20.8097 24.9833 20.9231C25.0132 21.0364 24.9977 21.157 24.94 21.2591C24.912 21.3093 24.8742 21.3534 24.8289 21.3889C24.7836 21.4243 24.7316 21.4503 24.6761 21.4654C24.6206 21.4805 24.5626 21.4844 24.5056 21.4767C24.4486 21.4691 24.3936 21.4502 24.344 21.4211C24.2434 21.361 24.1703 21.264 24.1404 21.1507C24.1105 21.0374 24.1262 20.9169 24.184 20.8151C24.212 20.7647 24.2497 20.7205 24.295 20.685C24.3403 20.6494 24.3922 20.6233 24.4477 20.6081C24.5032 20.5929 24.5612 20.589 24.6183 20.5966C24.6754 20.6041 24.7304 20.623 24.78 20.6521ZM12.284 16.5871C12.241 14.9201 12.439 13.7571 14.018 12.8291C14.6556 12.4538 15.3929 12.2829 16.1306 12.3394C16.8683 12.3959 17.571 12.6771 18.144 13.1451L12.284 16.5871Z" fill="white"/>
</svg>
