<svg width="32" height="32" viewBox="0 0 32 32" fill="none" xmlns="http://www.w3.org/2000/svg">
<path d="M16 32C24.8366 32 32 24.8366 32 16C32 7.16344 24.8366 0 16 0C7.16344 0 0 7.16344 0 16C0 24.8366 7.16344 32 16 32Z" fill="#EFB914"/>
<path fill-rule="evenodd" clip-rule="evenodd" d="M21.0018 9.855C21.8393 10.5121 22.5362 11.3307 23.0512 12.2623C23.5662 13.1938 23.8888 14.2194 23.9998 15.278L21.1528 14.57C20.8849 13.6753 20.3877 12.8663 19.7106 12.223C19.0335 11.5798 18.2001 11.1247 17.2928 10.903C14.4268 10.19 11.5328 11.894 10.8278 14.709C10.1228 17.524 11.8778 20.384 14.7448 21.097C15.651 21.3258 16.6013 21.3142 17.5016 21.0634C18.402 20.8126 19.2214 20.3313 19.8788 19.667L22.7258 20.374C22.1293 21.2571 21.3617 22.0116 20.4686 22.593C19.5754 23.1744 18.5748 23.5709 17.5258 23.759L16.7158 27L14.1198 26.355L14.7638 23.78C14.3232 23.7075 13.8891 23.5995 13.4658 23.457L12.8228 26.032L10.2268 25.386L11.0368 22.145C8.65883 20.27 7.46183 17.149 8.23283 14.064C9.00383 10.979 11.5298 8.783 14.5128 8.241L15.3228 5L17.9188 5.645L17.2748 8.22C17.7155 8.29249 18.1496 8.40051 18.5728 8.543L19.2158 5.968L21.8118 6.614L21.0018 9.855Z" fill="white"/>
</svg>
