<svg width="32" height="32" viewBox="0 0 32 32" fill="none" xmlns="http://www.w3.org/2000/svg">
<path d="M16 32C24.8366 32 32 24.8366 32 16C32 7.16344 24.8366 0 16 0C7.16344 0 0 7.16344 0 16C0 24.8366 7.16344 32 16 32Z" fill="#136AAD"/>
<path fill-rule="evenodd" clip-rule="evenodd" d="M7 11.09L9.667 12.22V18.573L16 14.786L22.394 18.573V12.22L25 11.09V23.064L16 17.749L7 23.064V11.09ZM7.303 10.601L16 5.5L24.758 10.601L22.394 11.579L16 7.883L9.667 11.579L7.303 10.601ZM9.182 22.422L11.152 21.292L16.03 24.117L20.848 21.292L22.878 22.422L16.03 26.5L9.182 22.422Z" fill="white"/>
</svg>
