<svg width="32" height="32" viewBox="0 0 32 32" fill="none" xmlns="http://www.w3.org/2000/svg">
<path d="M16 32C24.8366 32 32 24.8366 32 16C32 7.16344 24.8366 0 16 0C7.16344 0 0 7.16344 0 16C0 24.8366 7.16344 32 16 32Z" fill="#FF007A"/>
<path d="M12.2613 5.76724C11.9763 5.72324 11.9643 5.71724 12.0983 5.69724C12.3553 5.65724 12.9633 5.71223 13.3823 5.81123C14.3593 6.04423 15.2483 6.63924 16.1983 7.69624L16.4503 7.97623L16.8103 7.91924C18.3303 7.67424 19.8773 7.86923 21.1703 8.46623C21.5263 8.63023 22.0873 8.95723 22.1573 9.04223C22.1803 9.06823 22.2213 9.24124 22.2483 9.42524C22.3443 10.0622 22.2963 10.5502 22.1023 10.9152C21.9963 11.1132 21.9903 11.1752 22.0613 11.3452C22.095 11.4155 22.1477 11.4748 22.2135 11.5165C22.2792 11.5582 22.3554 11.5807 22.4333 11.5812C22.7553 11.5812 23.1013 11.0612 23.2613 10.3382L23.3253 10.0512L23.4513 10.1942C24.1433 10.9782 24.6863 12.0472 24.7793 12.8072L24.8043 13.0062L24.6873 12.8262C24.4873 12.5162 24.2873 12.3042 24.0293 12.1332C23.5653 11.8262 23.0743 11.7222 21.7743 11.6532C20.6003 11.5912 19.9353 11.4912 19.2773 11.2762C18.1563 10.9112 17.5913 10.4242 16.2593 8.67724C15.6683 7.90124 15.3023 7.47223 14.9393 7.12723C14.1123 6.34123 13.3003 5.92924 12.2613 5.76724Z" fill="white"/>
<path d="M22.4227 7.50014C22.4527 6.98014 22.5227 6.63714 22.6647 6.32414C22.7207 6.20014 22.7737 6.09814 22.7817 6.09814C22.7728 6.16834 22.7543 6.23698 22.7267 6.30214C22.6237 6.60614 22.6067 7.02214 22.6777 7.50514C22.7677 8.11914 22.8197 8.20714 23.4677 8.87014C23.7727 9.18114 24.1267 9.57314 24.2547 9.74214L24.4877 10.0481L24.2547 9.82914C23.9697 9.56214 23.3137 9.03914 23.1687 8.96514C23.0717 8.91514 23.0567 8.91614 22.9967 8.97514C22.9417 9.03114 22.9297 9.11314 22.9227 9.50414C22.9107 10.1121 22.8277 10.5041 22.6267 10.8941C22.5187 11.1041 22.5017 11.0601 22.5997 10.8211C22.6727 10.6431 22.6797 10.5651 22.6797 9.97614C22.6797 8.79214 22.5387 8.50814 21.7137 8.02014C21.4654 7.8761 21.2105 7.74395 20.9497 7.62414C20.8208 7.57246 20.6959 7.51164 20.5757 7.44214C20.5987 7.41914 21.4027 7.65314 21.7257 7.77814C22.2077 7.96314 22.2867 7.98714 22.3457 7.96414C22.3847 7.94914 22.4037 7.83514 22.4227 7.50014ZM12.8157 9.52514C12.2367 8.72814 11.8787 7.50514 11.9557 6.59114L11.9797 6.30814L12.1117 6.33214C12.3597 6.37714 12.7867 6.53614 12.9867 6.65814C13.5347 6.99114 13.7727 7.43014 14.0137 8.55614C14.0847 8.88614 14.1777 9.25914 14.2207 9.38614C14.2887 9.58914 14.5487 10.0641 14.7607 10.3731C14.9127 10.5951 14.8107 10.7001 14.4747 10.6701C13.9607 10.6231 13.2647 10.1431 12.8157 9.52514ZM21.7207 15.4601C19.0137 14.3701 18.0607 13.4241 18.0607 11.8281C18.0607 11.5931 18.0687 11.4011 18.0777 11.4011C18.0877 11.4011 18.1927 11.4781 18.3107 11.5731C18.8597 12.0131 19.4747 12.2011 21.1757 12.4491C22.1767 12.5961 22.7407 12.7141 23.2607 12.8861C24.9127 13.4341 25.9347 14.5461 26.1787 16.0601C26.2487 16.5001 26.2077 17.3251 26.0927 17.7601C26.0027 18.1041 25.7257 18.7231 25.6527 18.7471C25.6327 18.7531 25.6127 18.6761 25.6067 18.5691C25.5787 18.0011 25.2917 17.4471 24.8087 17.0321C24.2597 16.5611 23.5227 16.1851 21.7197 15.4601H21.7207ZM19.8207 15.9121C19.7887 15.719 19.745 15.528 19.6897 15.3401L19.6197 15.1341L19.7487 15.2781C19.9257 15.4781 20.0667 15.7321 20.1847 16.0721C20.2757 16.3311 20.2857 16.4081 20.2847 16.8291C20.2847 17.2431 20.2737 17.3291 20.1897 17.5631C20.0729 17.9063 19.8773 18.2172 19.6187 18.4711C19.1237 18.9751 18.4887 19.2531 17.5707 19.3691C17.4107 19.3891 16.9467 19.4231 16.5377 19.4441C15.5077 19.4981 14.8307 19.6081 14.2217 19.8221C14.1668 19.8468 14.1078 19.861 14.0477 19.8641C14.0237 19.8391 14.4377 19.5921 14.7807 19.4271C15.2637 19.1941 15.7437 19.0671 16.8207 18.8881C17.3527 18.7991 17.9027 18.6921 18.0417 18.6491C19.3597 18.2451 20.0367 17.2031 19.8197 15.9121H19.8207Z" fill="white"/>
<path d="M21.0607 18.1161C20.7007 17.3431 20.6187 16.5961 20.8157 15.9001C20.8367 15.8261 20.8707 15.7651 20.8907 15.7651C20.9584 15.7896 21.0221 15.824 21.0797 15.8671C21.2457 15.9791 21.5777 16.1671 22.4627 16.6491C23.5677 17.2521 24.1977 17.7191 24.6267 18.2511C25.0017 18.7181 25.2337 19.2501 25.3457 19.8981C25.4087 20.2651 25.3717 21.1481 25.2777 21.5181C24.9807 22.6841 24.2897 23.6001 23.3057 24.1341C23.2129 24.1879 23.1167 24.2356 23.0177 24.2771C23.0037 24.2771 23.0557 24.1441 23.1347 23.9801C23.4647 23.2881 23.5037 22.6141 23.2527 21.8641C23.0997 21.4051 22.7867 20.8441 22.1557 19.8981C21.4217 18.7981 21.2417 18.5041 21.0607 18.1161ZM10.8937 22.2871C11.8987 21.4391 13.1477 20.8371 14.2867 20.6521C14.7767 20.5721 15.5947 20.6041 16.0487 20.7201C16.7767 20.9061 17.4287 21.3241 17.7677 21.8211C18.0977 22.3071 18.2407 22.7311 18.3877 23.6731C18.4477 24.0451 18.5107 24.4181 18.5297 24.5031C18.6397 24.9911 18.8567 25.3821 19.1247 25.5781C19.5497 25.8891 20.2827 25.9081 21.0027 25.6281C21.078 25.5936 21.1573 25.5687 21.2387 25.5541C21.2647 25.5801 20.9027 25.8231 20.6467 25.9511C20.3446 26.1128 20.0063 26.1947 19.6637 26.1891C19.0037 26.1891 18.4557 25.8541 17.9987 25.1691C17.9087 25.0341 17.7067 24.6311 17.5487 24.2721C17.0667 23.1721 16.8287 22.8361 16.2687 22.4691C15.7797 22.1491 15.1507 22.0921 14.6777 22.3241C14.0557 22.6291 13.8827 23.4241 14.3277 23.9271C14.5047 24.1271 14.8347 24.3001 15.1047 24.3331C15.2225 24.3487 15.3423 24.3389 15.4559 24.3042C15.5696 24.2696 15.6744 24.2109 15.7635 24.1322C15.8525 24.0535 15.9236 23.9566 15.9719 23.8481C16.0203 23.7396 16.0448 23.6219 16.0437 23.5031C16.0437 23.1711 15.9157 22.9831 15.5957 22.8381C15.1587 22.6411 14.6887 22.8711 14.6907 23.2821C14.6917 23.4571 14.7677 23.5671 14.9437 23.6471C15.0567 23.6971 15.0587 23.7021 14.9667 23.6831C14.5657 23.5991 14.4717 23.1161 14.7947 22.7951C15.1817 22.4091 15.9827 22.5791 16.2577 23.1051C16.3737 23.3261 16.3867 23.7671 16.2857 24.0331C16.0607 24.6281 15.4027 24.9401 14.7357 24.7701C14.2817 24.6541 14.0967 24.5291 13.5497 23.9651C12.5987 22.9851 12.2297 22.7951 10.8577 22.5811L10.5947 22.5401L10.8947 22.2871H10.8937Z" fill="white"/>
<path fill-rule="evenodd" clip-rule="evenodd" d="M6.19629 3.35003L6.29229 3.46704C10.0003 8.00704 11.9163 10.363 12.0383 10.531C12.2383 10.809 12.1633 11.058 11.8193 11.254C11.6283 11.363 11.2343 11.473 11.0383 11.473C10.8153 11.473 10.5643 11.366 10.3813 11.193C10.2523 11.07 9.73129 10.292 8.52829 8.42504C7.96494 7.54263 7.39426 6.66493 6.81629 5.79203C6.76729 5.74603 6.76829 5.74704 8.43429 8.72803C9.48029 10.6 9.83429 11.261 9.83429 11.35C9.83429 11.53 9.78429 11.624 9.56229 11.872C9.19229 12.285 9.02729 12.749 8.90729 13.709C8.77329 14.786 8.39729 15.546 7.35329 16.847C6.74329 17.609 6.64329 17.749 6.48829 18.056C6.29429 18.442 6.24129 18.659 6.21929 19.147C6.19629 19.663 6.24129 19.997 6.39929 20.49C6.53729 20.922 6.68129 21.208 7.04929 21.778C7.36729 22.271 7.55029 22.637 7.55029 22.78C7.55029 22.894 7.57229 22.894 8.06529 22.783C9.24429 22.517 10.2013 22.048 10.7403 21.474C11.0733 21.119 11.1513 20.923 11.1543 20.436C11.1553 20.118 11.1443 20.051 11.0583 19.868C10.9183 19.57 10.6633 19.322 10.1013 18.938C9.36429 18.434 9.05029 18.028 8.96329 17.471C8.89129 17.014 8.97429 16.691 9.38229 15.837C9.80329 14.953 9.90829 14.577 9.97929 13.686C10.0243 13.11 10.0873 12.883 10.2533 12.701C10.4253 12.511 10.5813 12.446 11.0083 12.388C11.7043 12.293 12.1473 12.113 12.5113 11.778C12.8273 11.486 12.9593 11.205 12.9793 10.783L12.9953 10.463L12.8183 10.257C12.5643 9.96104 10.4633 7.64303 6.51429 3.30104L6.40829 3.18604L6.19629 3.35104V3.35003ZM7.91029 19.732C7.98005 19.6085 8.00089 19.4633 7.96866 19.3251C7.93644 19.187 7.85351 19.0659 7.73629 18.986C7.50829 18.834 7.15329 18.906 7.15329 19.104C7.15329 19.164 7.18629 19.208 7.26129 19.247C7.38829 19.312 7.39729 19.386 7.29829 19.535C7.19729 19.687 7.20529 19.821 7.32129 19.912C7.50729 20.058 7.77129 19.977 7.91129 19.732H7.91029ZM13.4343 12.556C13.1073 12.656 12.7903 13.003 12.6913 13.366C12.6313 13.587 12.6653 13.976 12.7553 14.096C12.9003 14.29 13.0413 14.341 13.4213 14.338C14.1653 14.333 14.8113 14.014 14.8873 13.615C14.9493 13.288 14.6643 12.835 14.2733 12.635C14.0713 12.533 13.6423 12.492 13.4343 12.556ZM14.3043 13.236C14.4193 13.073 14.3683 12.896 14.1743 12.778C13.8023 12.551 13.2403 12.738 13.2403 13.09C13.2403 13.264 13.5333 13.455 13.8013 13.455C13.9813 13.455 14.2253 13.348 14.3043 13.236Z" fill="white"/>
</svg>
