<svg width="32" height="32" viewBox="0 0 32 32" fill="none" xmlns="http://www.w3.org/2000/svg">
<path d="M16 32C24.8366 32 32 24.8366 32 16C32 7.16344 24.8366 0 16 0C7.16344 0 0 7.16344 0 16C0 24.8366 7.16344 32 16 32Z" fill="#598182"/>
<path fill-rule="evenodd" clip-rule="evenodd" d="M13.5476 25.4078C14.393 24.3155 15.2383 23.2232 16.0836 22.1308C17.0326 22.2788 17.9676 22.1948 18.8616 21.8068C19.1846 21.6668 19.4736 21.4488 19.7776 21.2648C19.8206 21.2388 19.8606 21.2048 19.8936 21.1798L22.9656 24.2178C22.7106 24.3878 22.4576 24.5718 22.1886 24.7298C21.1479 25.3331 20.0007 25.7304 18.8096 25.8998C18.1068 25.9983 17.3959 26.0251 16.6876 25.9798C15.6201 25.9308 14.5639 25.7384 13.5476 25.4078ZM12.5816 25.0318C12.2403 24.8792 11.9078 24.7076 11.5856 24.5178C9.93942 23.5638 8.63992 22.1102 7.87564 20.3678C7.47224 19.459 7.20697 18.495 7.08864 17.5078C6.99579 16.7421 6.97503 15.9694 7.02664 15.1998C7.14964 13.2248 7.75064 11.4098 8.96164 9.81281C10.0796 8.33881 11.5476 7.32981 13.2846 6.68281C14.1087 6.37005 14.9717 6.17154 15.8496 6.09281C16.5126 6.03581 17.1826 5.97881 17.8456 6.00781C18.2556 6.02481 18.6586 6.06481 19.0556 6.12781C18.1983 7.37248 17.341 8.61714 16.4836 9.86181C15.6259 9.93369 14.7986 10.2138 14.0736 10.6778C12.7436 11.5218 11.9476 12.7378 11.5736 14.2378C11.415 14.8698 11.3423 15.5204 11.3576 16.1718C11.3666 16.5138 11.3956 16.8488 11.4466 17.1758L11.1386 17.6228C10.8906 17.9828 11.1956 18.4588 11.6366 18.4008L11.7486 18.3868C12.0066 19.1158 12.3976 19.7968 12.9386 20.4218C13.2746 20.8078 13.6496 21.1318 14.0626 21.3918L12.6176 24.8828C12.5978 24.9306 12.5856 24.9812 12.5816 25.0328V25.0318ZM20.0246 6.33381C20.9149 6.57101 21.7588 6.95676 22.5206 7.47481C22.6586 7.56881 22.7846 7.67981 22.9166 7.78281C22.9416 7.80181 22.9676 7.81881 22.9996 7.84081C22.9576 7.88881 22.9336 7.92081 22.9046 7.94881C21.9936 8.84681 21.0806 9.74181 20.1726 10.6428C20.0726 10.7428 20.0096 10.7588 19.8886 10.6728C19.5221 10.4123 19.1168 10.2111 18.6876 10.0768L19.9706 6.70181L20.0046 6.61481C20.0388 6.52515 20.0457 6.42741 20.0246 6.33381ZM16.3206 17.2818L11.5676 17.9028L19.4756 6.41981L19.5196 6.43981L16.4646 14.4708L22.0396 13.5908L13.1406 25.1008L13.0976 25.0708L16.3206 17.2818Z" fill="white"/>
</svg>
