<svg width="32" height="32" viewBox="0 0 32 32" fill="none" xmlns="http://www.w3.org/2000/svg">
<path d="M16 32C24.8366 32 32 24.8366 32 16C32 7.16344 24.8366 0 16 0C7.16344 0 0 7.16344 0 16C0 24.8366 7.16344 32 16 32Z" fill="#13A0F6"/>
<path fill-rule="evenodd" clip-rule="evenodd" d="M8.29669 11.568C7.90527 11.3627 7.57749 11.0541 7.34886 10.6759C7.12024 10.2976 6.99949 9.86396 6.99969 9.42196C6.82878 9.09788 6.7338 8.73917 6.72196 8.37297C6.71013 8.00678 6.78173 7.64269 6.93136 7.30824C7.08099 6.9738 7.30472 6.67777 7.58563 6.44255C7.86654 6.20733 8.19727 6.03908 8.5528 5.95053C8.90832 5.86198 9.27933 5.85545 9.63775 5.93143C9.99618 6.00742 10.3326 6.16393 10.6216 6.38912C10.9107 6.61431 11.1447 6.90228 11.306 7.23125C11.4673 7.56022 11.5516 7.92157 11.5527 8.28796C12.9181 7.48946 14.4719 7.06969 16.0537 7.07196C20.9937 7.07196 24.9997 11.086 24.9997 16.036C24.9997 20.986 20.9947 25 16.0537 25C11.1127 25 7.10769 20.987 7.10769 16.036C7.10539 14.4681 7.51543 12.9273 8.29669 11.568ZM16.0537 20.446C18.4837 20.446 20.4537 18.472 20.4537 16.036C20.4537 13.6 18.4837 11.626 16.0537 11.626C13.6237 11.626 11.6537 13.601 11.6537 16.036C11.6537 18.471 13.6237 20.446 16.0537 20.446Z" fill="white"/>
</svg>
