<svg width="32" height="32" viewBox="0 0 32 32" fill="none" xmlns="http://www.w3.org/2000/svg">
<path d="M16 32C24.8366 32 32 24.8366 32 16C32 7.16344 24.8366 0 16 0C7.16344 0 0 7.16344 0 16C0 24.8366 7.16344 32 16 32Z" fill="#25AAE1"/>
<path fill-rule="evenodd" clip-rule="evenodd" d="M16.3459 24.9931C14.7059 25.0111 13.3289 24.7151 12.0309 24.0701C11.9509 24.0301 11.8909 24.0281 11.8109 24.0731C11.0225 24.5187 10.157 24.8112 9.25991 24.9351C8.87591 24.9851 8.48791 25.0391 8.10191 24.9601C7.86422 24.9135 7.64321 24.8045 7.46154 24.6443C7.27986 24.484 7.14405 24.2784 7.06804 24.0484C6.99202 23.8184 6.97852 23.5724 7.02893 23.3354C7.07934 23.0985 7.19185 22.8793 7.35491 22.7001C7.81315 22.1796 8.15721 21.5688 8.36491 20.9071C8.37712 20.8741 8.38104 20.8386 8.37633 20.8038C8.37163 20.7689 8.35843 20.7357 8.33791 20.7071C7.63 19.5835 7.19284 18.3107 7.06091 16.9891C6.76691 14.0671 7.67591 11.5641 9.77091 9.51214C11.0894 8.20614 12.7956 7.36266 14.6339 7.10814C17.1709 6.73714 19.4829 7.32314 21.5139 8.89614C23.3259 10.3001 24.4539 12.1491 24.8469 14.4071C25.3449 17.2651 24.6239 19.8111 22.7069 21.9871C21.2899 23.5951 19.4899 24.5501 17.3719 24.8891C16.9699 24.9541 16.5619 24.9721 16.3459 24.9931ZM9.91591 22.6051C9.98091 22.5871 10.0189 22.5771 10.0559 22.5651C10.6247 22.373 11.1618 22.0977 11.6499 21.7481C12.0019 21.5001 12.3489 21.4881 12.7199 21.7001C13.5159 22.1561 14.3689 22.4401 15.2839 22.5371C16.7709 22.6961 18.1739 22.4131 19.4289 21.6071C21.5989 20.2151 22.6789 18.2111 22.5619 15.6161C22.4869 13.9541 21.8359 12.5191 20.6569 11.3501C19.2359 9.94214 17.5069 9.30014 15.5039 9.43814C14.1539 9.53214 12.9339 9.99614 11.8949 10.8631C9.88191 12.5431 9.10491 14.6971 9.55091 17.2801C9.69691 18.1301 10.0359 18.9101 10.5139 19.6301C10.6051 19.7588 10.6676 19.9056 10.6971 20.0605C10.7266 20.2155 10.7225 20.3749 10.6849 20.5281C10.5706 21.0254 10.4099 21.5109 10.2049 21.9781C10.1159 22.1811 10.0199 22.3801 9.91691 22.6051H9.91591ZM16.0069 12.1931L16.5769 13.3501C16.7769 13.7601 16.9829 14.1701 17.1769 14.5841C17.2269 14.6921 17.2939 14.7301 17.4059 14.7451C18.2459 14.8621 19.0849 14.9851 19.9239 15.1061C19.9529 15.1111 19.9819 15.1191 20.0179 15.1261C19.8629 15.2861 19.7189 15.4421 19.5679 15.5891C19.0939 16.0521 18.6189 16.5131 18.1409 16.9711C18.0579 17.0511 18.0249 17.1261 18.0469 17.2491C18.1969 18.0921 18.3369 18.9371 18.4789 19.7821C18.4819 19.8031 18.4819 19.8251 18.4849 19.8661C18.4389 19.8481 18.4039 19.8371 18.3719 19.8201C17.6299 19.4291 16.8869 19.0391 16.1479 18.6421C16.0479 18.5881 15.9699 18.5831 15.8659 18.6391C15.1219 19.0361 14.3749 19.4271 13.6279 19.8191C13.5979 19.8361 13.5659 19.8491 13.5079 19.8771C13.5449 19.6501 13.5769 19.4471 13.6119 19.2451C13.7299 18.5631 13.8469 17.8801 13.9719 17.1991C13.9899 17.0991 13.9339 17.0521 13.8779 16.9971C13.2825 16.4119 12.6858 15.8279 12.0879 15.2451C12.0539 15.2111 12.0059 15.1921 11.9639 15.1661L11.9949 15.1181L12.9109 14.9861C13.4869 14.9041 14.0619 14.8201 14.6389 14.7411C14.7309 14.7281 14.7729 14.6791 14.8109 14.6011C15.1879 13.8321 15.5689 13.0651 15.9479 12.2971C15.9619 12.2701 15.9779 12.2451 16.0079 12.1931H16.0069Z" fill="white"/>
</svg>
