<svg width="32" height="32" viewBox="0 0 32 32" fill="none" xmlns="http://www.w3.org/2000/svg">
<path d="M16 32C24.8366 32 32 24.8366 32 16C32 7.16344 24.8366 0 16 0C7.16344 0 0 7.16344 0 16C0 24.8366 7.16344 32 16 32Z" fill="#1B75BC"/>
<path fill-rule="evenodd" clip-rule="evenodd" d="M11.587 8.602L16 13.208L20.305 8.602L23 11.36L18.604 16L23 20.603L20.305 23.396L16 18.792L11.587 23.396L9 20.68L13.36 15.974L9 11.36L11.587 8.603V8.602ZM11.942 8.226L15.982 4L20.022 8.226L17.896 10.491L15.982 8.377L14.068 10.491L11.942 8.226ZM11.942 23.774L14.068 21.509L15.982 23.623L17.896 21.509L20.022 23.774L15.982 28L11.942 23.774Z" fill="white"/>
</svg>
