<svg width="32" height="32" viewBox="0 0 32 32" fill="none" xmlns="http://www.w3.org/2000/svg">
<path d="M16 32C24.8366 32 32 24.8366 32 16C32 7.16344 24.8366 0 16 0C7.16344 0 0 7.16344 0 16C0 24.8366 7.16344 32 16 32Z" fill="black"/>
<path fill-rule="evenodd" clip-rule="evenodd" d="M14.225 23.483H17.733V26.991H14.225V23.483ZM14.225 8H17.733V11.508H14.225V8ZM22.492 8H26V11.508H22.492V8ZM6 8H9.508V11.508H6V8ZM18.358 15.742H21.866V19.25H18.358V15.742ZM10.083 15.742H13.591V19.25H10.083V15.742Z" fill="white"/>
</svg>
