<svg width="32" height="32" viewBox="0 0 32 32" fill="none" xmlns="http://www.w3.org/2000/svg">
<path d="M16 32C24.8366 32 32 24.8366 32 16C32 7.16344 24.8366 0 16 0C7.16344 0 0 7.16344 0 16C0 24.8366 7.16344 32 16 32Z" fill="#1693D4"/>
<path fill-rule="evenodd" clip-rule="evenodd" d="M9.928 16.574C9.90222 16.2145 9.90055 15.8537 9.923 15.494H7.123L4 12.996H10.494C11.1005 11.5164 12.134 10.251 13.4627 9.36122C14.7913 8.47142 16.3549 7.99753 17.954 8.00001C22.398 8.00001 26 11.582 26 16C26 20.418 22.398 24 17.954 24C16.3674 24.0024 14.8156 23.5359 13.4933 22.6591C12.171 21.7823 11.1373 20.5344 10.522 19.072H4L7.123 16.574H9.928ZM22.537 16.149C22.537 15.319 22.425 14.595 22.2 13.977C21.975 13.359 21.663 12.841 21.265 12.427C20.866 12.012 20.394 11.699 19.847 11.489C19.3 11.279 18.707 11.173 18.064 11.173C17.37 11.173 16.724 11.291 16.126 11.527C15.528 11.763 15.011 12.095 14.574 12.522C14.137 12.95 13.794 13.466 13.543 14.072C13.292 14.678 13.167 15.352 13.167 16.092C13.167 16.844 13.292 17.517 13.543 18.11C13.793 18.703 14.14 19.204 14.583 19.612C15.027 20.021 15.551 20.336 16.155 20.56C16.7918 20.7889 17.4643 20.9024 18.141 20.895C19.876 20.895 21.201 20.282 22.113 19.057L20.57 17.833C20.313 18.203 19.986 18.493 19.587 18.703C19.189 18.913 18.7 19.019 18.122 19.019C17.788 19.019 17.466 18.962 17.158 18.847C16.85 18.732 16.573 18.576 16.328 18.378C16.082 18.1822 15.8796 17.9373 15.7336 17.6589C15.5876 17.3805 15.5012 17.0747 15.48 16.761H22.518C22.531 16.659 22.537 16.557 22.537 16.455V16.149ZM20.223 15.115H15.48C15.532 14.465 15.798 13.932 16.28 13.517C16.763 13.103 17.35 12.895 18.045 12.895C18.417 12.895 18.742 12.955 19.018 13.077C19.294 13.199 19.523 13.361 19.703 13.565C19.883 13.769 20.014 14.005 20.098 14.273C20.1823 14.5457 20.2245 14.8296 20.223 15.115Z" fill="white"/>
</svg>
