<svg width="32" height="32" viewBox="0 0 32 32" fill="none" xmlns="http://www.w3.org/2000/svg">
<path d="M16 32C24.8366 32 32 24.8366 32 16C32 7.16344 24.8366 0 16 0C7.16344 0 0 7.16344 0 16C0 24.8366 7.16344 32 16 32Z" fill="#0F1529"/>
<path fill-rule="evenodd" clip-rule="evenodd" d="M24.833 15.346C24.632 15.391 24.494 15.417 24.359 15.453C23.514 15.674 22.663 15.849 21.783 15.816C20.607 15.771 19.597 15.298 18.706 14.536C18.346 14.227 18.012 13.886 17.668 13.558C17.501 13.4 17.461 13.22 17.588 13.014L17.913 12.487L18.352 12.969C18.985 13.671 19.662 14.31 20.555 14.651C21.432 14.985 22.325 14.936 23.222 14.785C24.49 14.573 25.661 14.066 26.809 13.497C26.847 13.478 26.889 13.466 27 13.422C26.924 13.565 26.882 13.65 26.834 13.73C25.158 16.548 23.482 19.366 21.804 22.183C21.598 22.529 21.521 22.555 21.163 22.38C18.797 21.218 16.319 20.997 13.761 21.437C13.361 21.506 13.29 21.472 13.099 21.062C12.89 20.614 12.892 20.626 13.365 20.535C14.683 20.2775 16.0325 20.2226 17.367 20.372C18.616 20.512 19.861 20.696 21.007 21.284C21.171 21.369 21.258 21.298 21.34 21.162C22.067 19.948 22.794 18.734 23.525 17.522C23.916 16.873 24.315 16.229 24.708 15.582C24.742 15.526 24.769 15.467 24.833 15.346ZM7.179 15.467C7.347 15.75 7.515 16.033 7.685 16.315L11.049 21.895C11.209 22.161 11.209 22.169 10.932 22.296C10.335 22.571 10.409 22.642 10.044 22.031C8.754 19.866 7.466 17.699 6.178 15.533L5.134 13.778C5.084 13.695 5.044 13.605 5 13.518L5.039 13.466C5.186 13.531 5.334 13.592 5.479 13.66C6.362 14.073 7.255 14.457 8.201 14.691C9.415 14.993 10.614 15.028 11.771 14.451C12.491 14.092 13.084 13.563 13.618 12.96C14.473 11.992 15.167 10.906 15.796 9.774L15.949 9.5C16.032 9.624 16.085 9.718 16.152 9.8C16.521 10.252 16.434 10.654 16.123 11.122C15.429 12.166 14.73 13.2 13.806 14.048C12.98 14.806 12.054 15.378 10.966 15.639C10.112 15.844 9.254 15.803 8.397 15.644C8.005 15.571 7.615 15.489 7.224 15.411L7.179 15.467Z" fill="white"/>
</svg>
