<svg width="32" height="32" viewBox="0 0 32 32" fill="none" xmlns="http://www.w3.org/2000/svg">
<path d="M16 32C24.8366 32 32 24.8366 32 16C32 7.16344 24.8366 0 16 0C7.16344 0 0 7.16344 0 16C0 24.8366 7.16344 32 16 32Z" fill="#2F2F2F"/>
<path fill-rule="evenodd" clip-rule="evenodd" d="M25.1494 10.295C25.2634 10.355 25.5244 10.497 25.4994 10.806L25.4834 21.223C25.4907 21.3213 25.4675 21.4194 25.4168 21.5039C25.3661 21.5884 25.2905 21.6552 25.2004 21.695L22.9004 23.038L21.0804 24.1L16.2364 26.928C16.175 26.975 16.0997 27.0003 16.0224 27C15.9249 26.9968 15.8304 26.9663 15.7494 26.912L12.4074 24.984C10.5514 23.913 8.63139 22.805 6.73939 21.717C6.58039 21.64 6.48739 21.461 6.50139 21.257L6.50839 18.505C6.51439 16.029 6.51839 13.514 6.52039 11.082V11.072C6.52177 11.0554 6.52211 11.0387 6.52139 11.022V10.991C6.51739 10.856 6.51139 10.579 6.77139 10.454C7.83139 9.821 8.91539 9.178 9.96439 8.556L11.7014 7.526C13.0234 6.743 14.3694 5.944 15.6714 5.171L15.6814 5.165C15.7666 5.11627 15.8555 5.07447 15.9474 5.04L16.0504 5L16.1464 5.057C17.0924 5.605 18.0544 6.165 18.9834 6.707L20.7194 7.717L22.4144 8.703L25.0814 10.255H25.0834L25.0854 10.257L25.1494 10.295ZM16.3804 25.965L19.3424 24.235C21.1384 23.188 22.9341 22.1403 24.7294 21.092L24.7394 15.243L24.7444 11.378L20.8944 13.63V15.406C20.89 16.5143 20.892 17.6227 20.9004 18.731V18.807L20.8554 18.869C20.8063 18.9349 20.7435 18.9895 20.6714 19.029L20.6454 19.045H20.6444L19.4004 19.77C18.9504 20.03 18.4854 20.3 18.0304 20.567L16.3864 21.522L16.3804 25.965ZM12.1844 13.41C13.0252 13.8933 13.8665 14.3756 14.7084 14.857L16.0124 15.606L19.7894 13.398L16.0064 11.166L12.1844 13.41ZM11.7944 14.06L11.8654 18.449L15.6334 20.644L15.6394 16.265L11.7944 14.06ZM7.27439 11.466L7.25539 21.141L15.6294 25.971L15.6324 21.52L13.9924 20.565L12.9644 19.966C12.4374 19.66 11.8924 19.343 11.3574 19.03C11.2024 18.957 11.1054 18.779 11.1164 18.584L11.0354 13.625L7.27439 11.466ZM24.3684 10.72L22.8994 9.864L21.2774 8.919C19.7334 8.023 17.9024 6.959 16.0134 5.853C14.1003 6.98342 12.1882 8.11575 10.2774 9.25L7.65139 10.807L11.4294 12.972L15.7634 10.427C15.8383 10.3788 15.9258 10.354 16.0149 10.3557C16.104 10.3575 16.1905 10.3858 16.2634 10.437L20.5394 12.958L24.3684 10.72ZM16.3864 20.647C17.6496 19.9109 18.9136 19.1762 20.1784 18.443V14.05L16.3894 16.264L16.3864 20.647ZM21.5134 19.854C21.4758 19.8654 21.4367 19.8712 21.3974 19.871C21.3443 19.8718 21.2916 19.8618 21.2424 19.8417C21.1933 19.8216 21.1487 19.7918 21.1114 19.754C21.051 19.6996 21.0059 19.6304 20.9805 19.5532C20.955 19.4761 20.9502 19.3936 20.9664 19.314C20.9833 19.21 21.0362 19.1152 21.1159 19.0463C21.1956 18.9774 21.297 18.9387 21.4024 18.937C21.5254 18.937 21.6454 18.993 21.7324 19.09L21.7334 19.092C21.7935 19.1596 21.8329 19.2431 21.8467 19.3325C21.8605 19.4219 21.8483 19.5134 21.8114 19.596C21.7861 19.6598 21.7458 19.7165 21.6939 19.7614C21.6421 19.8064 21.5801 19.8381 21.5134 19.854ZM23.5774 21.262C23.519 21.2165 23.4728 21.1572 23.4428 21.0896C23.4128 21.0219 23.3999 20.9478 23.4054 20.874C23.4134 20.715 23.4954 20.574 23.6274 20.494C23.6928 20.4513 23.7692 20.4284 23.8474 20.428C23.9334 20.428 24.0174 20.455 24.0914 20.505C24.1655 20.5536 24.224 20.6226 24.2598 20.7037C24.2957 20.7848 24.3073 20.8745 24.2934 20.962C24.2802 21.0721 24.2274 21.1735 24.1447 21.2474C24.062 21.3212 23.9552 21.3623 23.8444 21.363C23.7461 21.3627 23.6513 21.3268 23.5774 21.262ZM10.3884 18.942C10.5134 18.942 10.6324 18.999 10.7154 19.098C10.7749 19.1643 10.8138 19.2465 10.8275 19.3346C10.8412 19.4226 10.829 19.5127 10.7924 19.594C10.7586 19.6762 10.7009 19.7463 10.6267 19.7952C10.5525 19.8441 10.4652 19.8694 10.3764 19.868C10.3094 19.8655 10.2439 19.8483 10.1843 19.8177C10.1248 19.787 10.0727 19.7435 10.0319 19.6905C9.99102 19.6374 9.96235 19.576 9.94792 19.5105C9.93349 19.4451 9.93365 19.3773 9.94839 19.312C9.96846 19.2094 10.0231 19.1167 10.1031 19.0494C10.1831 18.9821 10.2838 18.9442 10.3884 18.942ZM22.3444 20.518C22.2809 20.4649 22.2326 20.3959 22.2043 20.3181C22.1761 20.2404 22.1688 20.1565 22.1834 20.075C22.1996 19.9692 22.2522 19.8723 22.3322 19.8011C22.4121 19.73 22.5144 19.6889 22.6214 19.685C22.7314 19.685 22.8374 19.729 22.9214 19.807C23.0484 19.925 23.1014 20.096 23.0594 20.256C23.0454 20.3311 23.0121 20.4013 22.9626 20.4595C22.9131 20.5178 22.8493 20.5621 22.7774 20.588C22.7055 20.616 22.6275 20.6244 22.5513 20.612C22.4752 20.5997 22.4037 20.5673 22.3444 20.518ZM9.43939 19.795C9.57239 19.905 9.63439 20.08 9.60039 20.242C9.58956 20.3145 9.56061 20.3832 9.51621 20.4416C9.47181 20.4999 9.4134 20.5462 9.34639 20.576H9.34539C9.28597 20.6042 9.22115 20.6192 9.15539 20.62C9.07671 20.6189 8.99987 20.5961 8.93339 20.554C8.85898 20.5075 8.79916 20.4411 8.76078 20.3622C8.7224 20.2833 8.70702 20.1952 8.71639 20.108C8.72181 20.0219 8.75196 19.9392 8.80323 19.8699C8.85449 19.8005 8.92469 19.7474 9.00539 19.717C9.05436 19.696 9.10709 19.6851 9.16039 19.685C9.26039 19.685 9.35739 19.723 9.43939 19.795ZM15.9494 6.167C16.0794 6.167 16.2024 6.223 16.2894 6.321C16.3964 6.434 16.4364 6.591 16.3964 6.741C16.3769 6.82785 16.3315 6.90672 16.2661 6.9671C16.2007 7.02749 16.1185 7.06652 16.0304 7.079H16.0254C15.9349 7.09677 15.8412 7.08703 15.7564 7.05102C15.6715 7.01501 15.5994 6.9544 15.5494 6.877C15.5072 6.8119 15.4825 6.737 15.4778 6.65955C15.473 6.5821 15.4884 6.50475 15.5224 6.435L15.5234 6.433C15.5557 6.36381 15.6048 6.30384 15.6663 6.25859C15.7278 6.21333 15.7997 6.18425 15.8754 6.174C15.9001 6.16945 15.9252 6.1671 15.9504 6.167H15.9494ZM8.15039 20.49C8.29539 20.572 8.38339 20.72 8.38239 20.88C8.38667 20.9606 8.36938 21.0409 8.33229 21.1127C8.2952 21.1844 8.23966 21.2449 8.17139 21.288C8.09881 21.3355 8.01413 21.3612 7.92739 21.362C7.85577 21.3626 7.78531 21.344 7.72339 21.308C7.65076 21.2678 7.59044 21.2086 7.54887 21.1367C7.5073 21.0648 7.48605 20.983 7.48739 20.9C7.48739 20.727 7.57639 20.57 7.71839 20.49C7.78357 20.4507 7.85825 20.4299 7.93439 20.4299C8.01052 20.4299 8.08521 20.4507 8.15039 20.49ZM16.1904 9.205C16.261 9.24891 16.3183 9.31119 16.3561 9.38518C16.394 9.45917 16.411 9.54207 16.4054 9.625C16.3998 9.70722 16.3714 9.78625 16.3233 9.8532C16.2753 9.92016 16.2095 9.97238 16.1334 10.004C16.0706 10.0326 16.0024 10.0476 15.9334 10.048C15.8309 10.0491 15.7311 10.0152 15.6504 9.952C15.5888 9.90648 15.5401 9.84582 15.5089 9.77591C15.4777 9.706 15.4651 9.62921 15.4724 9.553C15.4766 9.47741 15.5003 9.40419 15.5411 9.34042C15.5819 9.27666 15.6385 9.2245 15.7054 9.189C15.7741 9.14944 15.8521 9.12874 15.9314 9.129C16.0236 9.12885 16.1138 9.15523 16.1914 9.205H16.1904ZM15.6204 8.447C15.5679 8.40081 15.5271 8.34283 15.5014 8.27781C15.4757 8.21279 15.4657 8.1426 15.4724 8.073V8.07C15.4789 7.99832 15.5022 7.92917 15.5402 7.86806C15.5782 7.80694 15.63 7.75556 15.6914 7.718C15.7636 7.66992 15.8486 7.64451 15.9354 7.645C16.0154 7.645 16.0954 7.666 16.1684 7.705L16.1694 7.706C16.2428 7.74553 16.3038 7.80473 16.3455 7.87697C16.3872 7.94921 16.4079 8.03163 16.4054 8.115C16.4046 8.20273 16.3782 8.28832 16.3293 8.36119C16.2804 8.43405 16.2113 8.491 16.1304 8.525C16.0676 8.55362 15.9994 8.56861 15.9304 8.569C15.8151 8.57032 15.7039 8.52654 15.6204 8.447Z" fill="white"/>
</svg>
