<svg width="32" height="32" viewBox="0 0 32 32" fill="none" xmlns="http://www.w3.org/2000/svg">
<path d="M16 32C24.8366 32 32 24.8366 32 16C32 7.16344 24.8366 0 16 0C7.16344 0 0 7.16344 0 16C0 24.8366 7.16344 32 16 32Z" fill="black"/>
<path fill-rule="evenodd" clip-rule="evenodd" d="M15.943 26.3111C21.683 26.3111 26.031 22.4651 26.933 17.4331H22.036C21.304 20.1051 19.032 22.0611 16.001 22.0611C12.992 22.0611 10.691 20.0911 9.928 17.4331H5C5.869 22.4831 10.18 26.3111 15.943 26.3111Z" fill="white"/>
<path d="M15.9713 10.054C17.367 10.054 18.4983 8.92262 18.4983 7.527C18.4983 6.13138 17.367 5 15.9713 5C14.5757 5 13.4443 6.13138 13.4443 7.527C13.4443 8.92262 14.5757 10.054 15.9713 10.054Z" fill="white"/>
<path fill-rule="evenodd" clip-rule="evenodd" d="M9.65527 17.4329V17.3829C9.65527 13.7899 12.2293 10.8569 15.9403 10.8569C19.6523 10.8569 22.2803 13.8399 22.2863 17.4329H9.65527Z" fill="white"/>
</svg>
