<svg width="32" height="32" viewBox="0 0 32 32" fill="none" xmlns="http://www.w3.org/2000/svg">
<path d="M16 32C24.8366 32 32 24.8366 32 16C32 7.16344 24.8366 0 16 0C7.16344 0 0 7.16344 0 16C0 24.8366 7.16344 32 16 32Z" fill="#0093DD"/>
<path fill-rule="evenodd" clip-rule="evenodd" d="M13.54 16.0001L18.714 21.3301L21.979 17.9671C22.114 17.8262 22.276 17.7142 22.4555 17.6376C22.6349 17.561 22.8279 17.5216 23.023 17.5216C23.2181 17.5216 23.4111 17.561 23.5905 17.6376C23.77 17.7142 23.932 17.8262 24.067 17.9671C24.3447 18.2565 24.4998 18.642 24.4998 19.0431C24.4998 19.4442 24.3447 19.8297 24.067 20.1191L19.758 24.5591C19.6223 24.6987 19.46 24.8096 19.2807 24.8854C19.1014 24.9612 18.9087 25.0002 18.714 25.0002C18.5193 25.0002 18.3266 24.9612 18.1473 24.8854C17.968 24.8096 17.8057 24.6987 17.67 24.5591L11.454 18.1531V21.9611C11.454 22.7971 10.788 23.4831 9.977 23.4831C9.161 23.4831 8.5 22.8011 8.5 21.9611V10.0401C8.5 9.20009 9.161 8.51809 9.977 8.51809C10.792 8.51809 11.454 9.20009 11.454 10.0401V13.8481L17.67 7.44209C17.8057 7.3025 17.968 7.19155 18.1473 7.11578C18.3266 7.04001 18.5193 7.00098 18.714 7.00098C18.9087 7.00098 19.1014 7.04001 19.2807 7.11578C19.46 7.19155 19.6223 7.3025 19.758 7.44209L24.068 11.8821C24.3457 12.1715 24.5008 12.557 24.5008 12.9581C24.5008 13.3592 24.3457 13.7447 24.068 14.0341C23.933 14.1752 23.7708 14.2876 23.5912 14.3643C23.4116 14.4411 23.2183 14.4806 23.023 14.4806C22.8277 14.4806 22.6344 14.4411 22.4548 14.3643C22.2752 14.2876 22.113 14.1752 21.978 14.0341L18.714 10.6701L13.54 16.0001ZM18.716 14.4771C19.532 14.4771 20.194 15.1591 20.194 16.0001C20.194 16.8411 19.532 17.5231 18.716 17.5231C17.9 17.5231 17.238 16.8411 17.238 16.0001C17.238 15.1591 17.9 14.4771 18.716 14.4771Z" fill="white"/>
</svg>
