<svg width="32" height="32" viewBox="0 0 32 32" fill="none" xmlns="http://www.w3.org/2000/svg">
<path d="M16 32C24.8366 32 32 24.8366 32 16C32 7.16344 24.8366 0 16 0C7.16344 0 0 7.16344 0 16C0 24.8366 7.16344 32 16 32Z" fill="#D65892"/>
<path fill-rule="evenodd" clip-rule="evenodd" d="M13.7942 7.02015C15.6562 7.17715 18.1212 8.20015 20.4962 9.93215C22.8622 11.6742 24.5982 13.7472 25.3362 15.4982C25.8762 16.7692 25.8942 17.8942 25.3542 18.6682L21.6482 23.9752C21.1082 24.7492 20.0552 25.0902 18.7152 24.9802C16.8532 24.8142 14.3792 23.8002 12.0132 22.0592C9.63823 20.3262 7.91123 18.2532 7.16323 16.5022C6.62423 15.2312 6.60623 14.1062 7.14623 13.3322L10.8612 8.02515C11.4012 7.25115 12.4452 6.91015 13.7942 7.02015ZM21.5822 19.4682C21.5474 19.4626 21.5118 19.4709 21.4831 19.4913C21.4545 19.5118 21.435 19.5427 21.4289 19.5774C21.4229 19.6122 21.4307 19.6479 21.4508 19.6768C21.4709 19.7058 21.5016 19.7257 21.5362 19.7322C22.2682 19.8622 22.9232 19.8852 23.4702 19.7962C23.5035 19.7886 23.5326 19.7686 23.5516 19.7404C23.5707 19.7121 23.5782 19.6776 23.5727 19.644C23.5673 19.6103 23.5492 19.58 23.5221 19.5592C23.4951 19.5385 23.4612 19.5288 23.4272 19.5322C22.9132 19.6162 22.2872 19.5932 21.5822 19.4682ZM20.3912 19.3212C20.3863 19.3381 20.3849 19.3558 20.3868 19.3734C20.3888 19.3909 20.3942 19.4078 20.4028 19.4232C20.4113 19.4387 20.4228 19.4523 20.4366 19.4632C20.4504 19.4742 20.4663 19.4823 20.4832 19.4872C20.6592 19.5372 20.8332 19.5822 21.0042 19.6222C21.0373 19.6266 21.0709 19.6185 21.0983 19.5995C21.1258 19.5806 21.1451 19.552 21.1526 19.5195C21.1601 19.487 21.1552 19.4528 21.1389 19.4237C21.1225 19.3946 21.0959 19.3727 21.0642 19.3622C20.8982 19.3222 20.7282 19.2782 20.5552 19.2292C20.5213 19.2196 20.4849 19.2239 20.4542 19.2412C20.4234 19.2585 20.4008 19.2872 20.3912 19.3212ZM11.3742 8.40315L11.3562 8.43915C10.9512 9.05715 11.0412 9.93215 11.4642 10.9272C12.1742 12.6042 13.8392 14.5672 16.0972 16.2262C18.3552 17.8842 20.7032 18.8702 22.4752 19.0182C23.5372 19.1012 24.3732 18.9082 24.8152 18.3272L24.8412 18.2812C25.2732 17.6722 25.1832 16.7692 24.7612 15.7562C24.0502 14.0882 22.3852 12.1262 20.1182 10.4662C17.8602 8.80815 15.5122 7.82215 13.7402 7.67515C12.6602 7.58215 11.8062 7.78515 11.3742 8.40315ZM10.6302 10.8512C10.5964 10.8613 10.5679 10.8845 10.551 10.9156C10.5342 10.9467 10.5303 10.9832 10.5402 11.0172C10.9962 12.5812 12.1542 14.0702 13.9752 15.7472L14.1802 15.9352C14.3212 16.063 14.4632 16.1896 14.6062 16.3152C14.6622 16.3632 14.7462 16.3572 14.7942 16.3012C14.8176 16.2744 14.8293 16.2394 14.8269 16.204C14.8244 16.1685 14.808 16.1355 14.7812 16.1122C14.6712 16.0172 14.5652 15.9222 14.4592 15.8272L14.2522 15.6392C12.4092 13.9562 11.2422 12.4732 10.7952 10.9422C10.7904 10.9253 10.7823 10.9096 10.7714 10.8959C10.7605 10.8822 10.747 10.8708 10.7316 10.8624C10.7163 10.8539 10.6994 10.8486 10.682 10.8467C10.6646 10.8447 10.647 10.8463 10.6302 10.8512ZM15.8812 10.5682C16.7632 10.6512 17.9412 11.1392 19.0662 11.9682C20.1992 12.7982 21.0362 13.7842 21.3862 14.6222C21.5942 15.0922 21.6482 15.5072 21.4412 15.7922C21.2432 16.0782 20.8382 16.1622 20.3432 16.1152C19.4532 16.0412 18.2832 15.5442 17.1502 14.7152C16.0162 13.8852 15.1802 12.9082 14.8292 12.0702C14.6312 11.6002 14.5772 11.1852 14.7752 10.9002C14.9732 10.6142 15.3772 10.5312 15.8812 10.5682ZM10.4842 9.79015C10.4489 9.79171 10.4155 9.80721 10.3916 9.83325C10.3676 9.8593 10.3549 9.89378 10.3562 9.92915C10.3642 10.1112 10.3832 10.2942 10.4152 10.4792C10.4183 10.4964 10.4246 10.5128 10.434 10.5275C10.4434 10.5423 10.4556 10.555 10.4699 10.565C10.4842 10.5751 10.5003 10.5822 10.5173 10.586C10.5344 10.5898 10.552 10.5902 10.5692 10.5872C10.5864 10.5841 10.6029 10.5778 10.6176 10.5684C10.6324 10.559 10.6451 10.5468 10.6551 10.5325C10.6652 10.5182 10.6723 10.5021 10.6761 10.485C10.6799 10.468 10.6803 10.4504 10.6772 10.4332C10.6478 10.2628 10.6295 10.0908 10.6222 9.91815C10.6216 9.90069 10.6175 9.88351 10.6102 9.86762C10.6029 9.85173 10.5926 9.83743 10.5798 9.82555C10.567 9.81366 10.5519 9.80441 10.5355 9.79834C10.5191 9.79227 10.5017 9.78949 10.4842 9.79015Z" fill="white"/>
</svg>
