<svg width="32" height="32" viewBox="0 0 32 32" fill="none" xmlns="http://www.w3.org/2000/svg">
<path d="M16 32C24.8366 32 32 24.8366 32 16C32 7.16344 24.8366 0 16 0C7.16344 0 0 7.16344 0 16C0 24.8366 7.16344 32 16 32Z" fill="#FDDE6C"/>
<path fill-rule="evenodd" clip-rule="evenodd" d="M16 27C9.925 27 5 22.075 5 16C5 9.925 9.925 5 16 5C22.075 5 27 9.925 27 16C27 22.075 22.075 27 16 27ZM16 25.454C18.5074 25.454 20.912 24.458 22.685 22.685C24.458 20.912 25.454 18.5074 25.454 16C25.454 13.4926 24.458 11.088 22.685 9.31501C20.912 7.54204 18.5074 6.546 16 6.546C13.4926 6.546 11.088 7.54204 9.31501 9.31501C7.54204 11.088 6.546 13.4926 6.546 16C6.546 18.5074 7.54204 20.912 9.31501 22.685C11.088 24.458 13.4926 25.454 16 25.454ZM16.072 22.541C12.475 22.541 9.578 19.791 9.578 16.036V16C9.578 12.334 12.403 9.46 16.216 9.46C18.788 9.46 20.443 10.538 21.559 12.083L18.932 14.113C18.212 13.215 17.385 12.64 16.18 12.64C14.417 12.64 13.176 14.131 13.176 15.964V16C13.176 17.887 14.417 19.36 16.18 19.36C17.493 19.36 18.267 18.75 19.022 17.833L21.649 19.702C20.461 21.337 18.86 22.541 16.072 22.541Z" fill="white"/>
</svg>
