<svg width="32" height="32" viewBox="0 0 32 32" fill="none" xmlns="http://www.w3.org/2000/svg">
<path d="M16 32C24.8366 32 32 24.8366 32 16C32 7.16344 24.8366 0 16 0C7.16344 0 0 7.16344 0 16C0 24.8366 7.16344 32 16 32Z" fill="#346FCE"/>
<path fill-rule="evenodd" clip-rule="evenodd" d="M20.1605 18.7063L21.1165 20.5033C21.6603 21.5262 21.7755 22.7233 21.4368 23.8312C21.0981 24.9391 20.3333 25.8672 19.3105 26.4113L19.1865 26.4773C18.6799 26.7467 18.1252 26.9137 17.5541 26.9687C16.983 27.0238 16.4066 26.9658 15.8579 26.7981C15.3092 26.6304 14.7989 26.3562 14.3562 25.9913C13.9134 25.6264 13.5469 25.1778 13.2775 24.6713L10.0545 18.6093C9.53045 17.6238 9.40343 16.4752 9.69947 15.3991C9.99551 14.323 10.6921 13.401 11.6465 12.8223L10.6905 11.0253C10.1467 10.0022 10.0317 8.80499 10.3705 7.69706C10.7094 6.58912 11.4745 5.66116 12.4975 5.11725L12.6215 5.05125C13.6444 4.50746 14.8415 4.39222 15.9494 4.7309C17.0573 5.06958 17.9854 5.83443 18.5295 6.85725L21.7525 12.9193C22.2766 13.9046 22.4037 15.0531 22.1079 16.1292C21.812 17.2053 21.1156 18.1274 20.1615 18.7063H20.1605ZM20.1605 18.7063L17.8935 14.4413C17.3494 13.4184 16.4213 12.6536 15.3134 12.3149C14.2055 11.9762 13.0084 12.0915 11.9855 12.6353L11.8615 12.7003C11.7885 12.7403 11.7165 12.7803 11.6465 12.8223L13.9145 17.0873C14.4585 18.1101 15.3866 18.8749 16.4945 19.2136C17.6024 19.5523 18.7995 19.4371 19.8225 18.8933L19.9465 18.8283C20.0195 18.7883 20.0915 18.7483 20.1615 18.7063H20.1605Z" fill="white"/>
</svg>
