<svg width="32" height="32" viewBox="0 0 32 32" fill="none" xmlns="http://www.w3.org/2000/svg">
<path d="M16 32C24.8366 32 32 24.8366 32 16C32 7.16344 24.8366 0 16 0C7.16344 0 0 7.16344 0 16C0 24.8366 7.16344 32 16 32Z" fill="#767DFF"/>
<path fill-rule="evenodd" clip-rule="evenodd" d="M13.77 6.5H18.23C18.3846 6.49992 18.5363 6.54102 18.6697 6.61905C18.8031 6.69709 18.9133 6.80925 18.989 6.944L25.895 19.263C25.9677 19.3929 26.0059 19.5392 26.0059 19.688C26.0059 19.8368 25.9677 19.9831 25.895 20.113L23.685 24.055C23.6096 24.1898 23.4996 24.3021 23.3663 24.3803C23.2331 24.4585 23.0815 24.4998 22.927 24.5H9.07301C8.91837 24.5 8.76652 24.4587 8.63311 24.3805C8.49971 24.3023 8.38956 24.1899 8.31401 24.055L6.10501 20.113C6.03231 19.9831 5.99414 19.8368 5.99414 19.688C5.99414 19.5392 6.03231 19.3929 6.10501 19.263L13.011 6.944C13.0867 6.80925 13.1969 6.69709 13.3303 6.61905C13.4637 6.54102 13.6155 6.49992 13.77 6.5ZM16 11.401L11.347 19.688H20.653L16 11.401Z" fill="white"/>
</svg>
