<svg width="32" height="32" viewBox="0 0 32 32" fill="none" xmlns="http://www.w3.org/2000/svg">
<path d="M16 32C24.8366 32 32 24.8366 32 16C32 7.16344 24.8366 0 16 0C7.16344 0 0 7.16344 0 16C0 24.8366 7.16344 32 16 32Z" fill="#2E6BF6"/>
<path fill-rule="evenodd" clip-rule="evenodd" d="M17.314 6.3L23.934 9.65C24.894 10.15 25.5 11.1 25.5 12.2V13.75H23.074V12.2C23.074 12.05 22.974 11.9 22.822 11.8L16.202 8.45C16.102 8.4 15.949 8.4 15.798 8.45L9.178 11.8C9.027 11.85 8.926 12 8.926 12.2V13.75H6.5V12.2C6.5 11.15 7.106 10.15 8.066 9.65L14.686 6.3C15.495 5.9 16.455 5.9 17.314 6.3ZM18.072 15.9C18.072 14.75 17.112 13.85 16 13.85C14.838 13.85 13.928 14.75 13.928 15.9C13.928 17.05 14.888 17.95 16 17.95C17.112 17.95 18.072 17.05 18.072 15.9ZM22.772 20.2C22.922 20.15 23.024 20 23.024 19.8V18.25H25.449V19.8C25.449 20.85 24.843 21.85 23.883 22.35L17.263 25.7C16.859 25.9 16.404 26 15.949 26C15.495 26 15.039 25.9 14.636 25.7L8.066 22.35C7.106 21.85 6.5 20.9 6.5 19.8V18.25H8.926V19.8C8.926 19.95 9.026 20.1 9.178 20.2L14.788 23V20.2C12.867 19.65 11.503 17.95 11.503 15.9C11.503 13.45 13.523 11.4 16.051 11.4C18.527 11.4 20.598 13.4 20.598 15.9C20.598 17.95 19.184 19.7 17.314 20.2V23L22.771 20.2H22.772Z" fill="white"/>
</svg>
