<svg width="32" height="32" viewBox="0 0 32 32" fill="none" xmlns="http://www.w3.org/2000/svg">
<path d="M16 32C24.8366 32 32 24.8366 32 16C32 7.16344 24.8366 0 16 0C7.16344 0 0 7.16344 0 16C0 24.8366 7.16344 32 16 32Z" fill="#FF914D"/>
<path fill-rule="evenodd" clip-rule="evenodd" d="M16.0002 27.2582C9.78219 27.2582 4.74219 22.2182 4.74219 16.0002C4.74219 9.78219 9.78219 4.74219 16.0002 4.74219C22.2182 4.74219 27.2582 9.78219 27.2582 16.0002C27.2582 22.2182 22.2182 27.2582 16.0002 27.2582ZM16.0002 26.5962C21.8522 26.5962 26.5962 21.8522 26.5962 16.0002C26.5962 10.1482 21.8522 5.40419 16.0002 5.40419C10.1482 5.40419 5.40419 10.1482 5.40419 16.0002C5.40419 21.8522 10.1482 26.5962 16.0002 26.5962Z" fill="white"/>
<path d="M14.09 24.1319C14.338 24.0299 15.308 23.2819 16.245 22.4769C17.4063 21.4892 18.5234 20.4505 19.593 19.3639C20.619 18.3379 21 17.8969 21.063 17.6689C21.285 16.8679 18.858 8.06295 18.364 7.87395C18.063 7.75795 15.371 9.99695 12.987 12.3409C11.589 13.7149 11.202 14.1719 11.172 14.4709C11.152 14.7019 11.232 15.2809 11.381 15.9669C11.974 18.6889 13.053 22.4499 13.599 23.6849C13.828 24.2089 13.854 24.2319 14.089 24.1319H14.09Z" fill="white"/>
</svg>
