<svg width="32" height="32" viewBox="0 0 32 32" fill="none" xmlns="http://www.w3.org/2000/svg">
<path d="M16 32C24.8366 32 32 24.8366 32 16C32 7.16344 24.8366 0 16 0C7.16344 0 0 7.16344 0 16C0 24.8366 7.16344 32 16 32Z" fill="#1061E3"/>
<path fill-rule="evenodd" clip-rule="evenodd" d="M24.2812 20.8672C24.3652 21.7282 24.0962 22.5782 23.2632 23.1302C22.8642 23.3952 22.4192 23.5002 21.9412 23.5002C17.9812 23.4982 14.0212 23.4992 10.0612 23.4982C9.97451 23.4982 9.88781 23.4959 9.80122 23.4912C8.93322 23.4442 8.11322 22.8152 7.83322 21.9942C7.70922 21.6312 7.69022 21.2592 7.70522 20.8672H10.1152C10.3472 20.8662 10.5012 20.6972 10.4492 20.4862C10.422 20.4044 10.3741 20.331 10.3102 20.2732C9.32722 19.2912 8.34122 18.3132 7.35622 17.3332L6.45422 16.4352C6.11522 16.1002 5.95222 15.6952 6.01222 15.2232C6.04222 14.9912 6.11722 14.7632 6.19222 14.5392C6.61316 13.2704 7.28174 12.0977 8.15922 11.0892C9.40218 9.64275 11.0234 8.57104 12.8412 7.9942C14.0246 7.60687 15.2702 7.44507 16.5132 7.5172C19.4492 7.6932 21.8942 8.8872 23.8322 11.0882C24.8237 12.2138 25.5453 13.5507 25.9422 14.9972C26.0922 15.5362 25.9502 16.0212 25.5512 16.4182C24.8012 17.1662 24.0452 17.9082 23.2922 18.6532C22.7392 19.2002 22.1872 19.7492 21.6352 20.2982C21.4532 20.4782 21.4712 20.7182 21.6792 20.8252C21.7392 20.8552 21.8142 20.8652 21.8822 20.8652C22.6422 20.8682 23.4032 20.8672 24.1642 20.8672H24.2812ZM8.44222 21.4072C8.45322 21.7292 8.53922 22.0152 8.72722 22.2652C9.03922 22.6812 9.46022 22.8772 9.98222 22.8762H22.0102C22.0572 22.8762 22.1042 22.8742 22.1502 22.8712C22.3717 22.8627 22.5883 22.8033 22.783 22.6975C22.9778 22.5917 23.1456 22.4424 23.2732 22.2612C23.4592 22.0112 23.5462 21.7252 23.5512 21.4082L8.44222 21.4072ZM18.7102 13.6602C18.7392 13.6792 18.7602 13.6902 18.7772 13.7032C19.7652 14.4392 20.3912 15.4032 20.6292 16.6102C20.7592 17.2662 20.7412 17.9202 20.5872 18.5712C20.4469 19.1626 20.1921 19.7207 19.8372 20.2142C19.8038 20.2561 19.7803 20.3051 19.7686 20.3574C19.7568 20.4097 19.757 20.464 19.7692 20.5162C19.8382 20.7882 20.1472 20.8762 20.3512 20.6772C20.6512 20.3862 20.9442 20.0892 21.2412 19.7952C22.4372 18.6052 23.6332 17.4162 24.8302 16.2282C25.0902 15.9702 25.2042 15.6622 25.1402 15.3022C25.1112 15.1462 25.0552 14.9942 25.0022 14.8442C24.6139 13.7172 24.0433 12.6615 23.3132 11.7192C22.7547 10.996 22.0906 10.3609 21.3432 9.8352C21.3051 9.80783 21.2787 9.76714 21.2692 9.7212C21.2583 9.61513 21.2226 9.51311 21.165 9.42333C21.1075 9.33355 21.0297 9.25851 20.9379 9.20425C20.8461 9.14999 20.7428 9.11801 20.6364 9.11088C20.53 9.10375 20.4234 9.12167 20.3252 9.1632C20.2845 9.17933 20.2392 9.17969 20.1982 9.1642C19.1441 8.66246 18.0035 8.36779 16.8382 8.2962C15.912 8.2266 14.9807 8.27905 14.0682 8.4522C13.3058 8.59746 12.5655 8.84152 11.8662 9.1782C11.8396 9.19337 11.8094 9.20134 11.7787 9.20134C11.748 9.20134 11.7179 9.19337 11.6912 9.1782C11.5912 9.12892 11.4803 9.10555 11.3689 9.11025C11.2574 9.11495 11.149 9.14756 11.0534 9.20509C10.9579 9.26263 10.8783 9.34324 10.822 9.43953C10.7657 9.53582 10.7345 9.64471 10.7312 9.7562C10.7312 9.8162 10.7092 9.8512 10.6632 9.8872C10.3572 10.1302 10.0392 10.3612 9.75322 10.6262C8.40922 11.8712 7.49522 13.3902 6.90822 15.1132C6.76022 15.5492 6.85822 15.9232 7.18322 16.2462L10.7432 19.7852C11.0412 20.0822 11.3382 20.3792 11.6392 20.6742C11.8122 20.8442 12.0732 20.8142 12.1862 20.6132C12.2632 20.4742 12.2442 20.3372 12.1532 20.2092C11.6747 19.5469 11.3807 18.7694 11.3012 17.9562C11.2315 17.2876 11.3101 16.612 11.5312 15.9772C11.5812 15.8322 11.6432 15.6902 11.7022 15.5402L13.1142 16.3702C12.8211 17.0791 12.8001 17.8712 13.0552 18.5946C13.3102 19.3181 13.8234 19.9219 14.4962 20.2902C15.1315 20.6381 15.8678 20.7547 16.5794 20.6201C17.2911 20.4855 17.9339 20.1081 18.3982 19.5522C18.8582 19.0052 19.1022 18.3702 19.1162 17.6552C19.1362 16.5892 18.6952 15.7392 17.8662 15.0772L18.7102 13.6602ZM23.3752 16.7002C23.3492 16.5342 23.3252 16.3812 23.2992 16.2282C23.203 15.6635 23.0377 15.1127 22.8072 14.5882C22.7822 14.5282 22.7762 14.4822 22.8062 14.4202C22.8457 14.337 22.8674 14.2465 22.87 14.1544C22.8726 14.0624 22.856 13.9708 22.8213 13.8855C22.7866 13.8002 22.7345 13.7231 22.6684 13.659C22.6023 13.5949 22.5236 13.5452 22.4372 13.5132C22.3526 13.4812 22.2623 13.4665 22.1719 13.47C22.0815 13.4735 21.9926 13.4951 21.9107 13.5335C21.8287 13.5719 21.7553 13.6264 21.6948 13.6937C21.6343 13.7609 21.5878 13.8397 21.5582 13.9252C21.5288 14.0107 21.5172 14.1014 21.5243 14.1915C21.5314 14.2817 21.5569 14.3694 21.5993 14.4493C21.6416 14.5292 21.7 14.5996 21.7707 14.656C21.8414 14.7124 21.9229 14.7536 22.0102 14.7772C22.0576 14.7862 22.1017 14.8078 22.1379 14.8396C22.1741 14.8714 22.2012 14.9124 22.2162 14.9582C22.5202 15.7032 22.6892 16.4752 22.7132 17.2782C22.7152 17.3261 22.6995 17.3731 22.6692 17.4102C22.2122 17.8702 21.7512 18.3262 21.2922 18.7832C21.2762 18.7982 21.2572 18.8102 21.2502 18.8172C21.6882 16.6472 21.1552 14.7662 19.4122 13.3502C17.6012 11.8802 15.5832 11.7672 13.4642 12.7232L12.8172 11.6062C13.0482 11.5032 13.2702 11.3962 13.4972 11.3022C14.0819 11.0688 14.696 10.9173 15.3222 10.8522C15.4032 10.8432 15.4622 10.8562 15.5252 10.9202C15.5871 10.984 15.6613 11.0346 15.7433 11.0691C15.8253 11.1035 15.9134 11.121 16.0023 11.1205C16.0912 11.12 16.1791 11.1016 16.2607 11.0663C16.3423 11.0311 16.416 10.9797 16.4772 10.9152C16.4983 10.8906 16.5254 10.8717 16.5559 10.8605C16.5863 10.8493 16.6192 10.8461 16.6512 10.8512C18.1842 11.0172 19.5142 11.6192 20.6362 12.6722C20.7262 12.7572 20.8112 12.8462 20.8982 12.9342C21.0532 13.0902 21.2242 13.0942 21.3822 12.9422L22.4332 11.9252L22.5312 11.8322C22.6572 11.9922 22.7842 12.1462 22.9022 12.3062C23.5851 13.2295 24.109 14.2603 24.4522 15.3562C24.4762 15.4207 24.4803 15.4908 24.4641 15.5576C24.4478 15.6244 24.412 15.6849 24.3612 15.7312L23.4372 16.6502C23.4212 16.6652 23.4022 16.6772 23.3752 16.7002ZM22.1092 11.3902L21.2112 12.2592C21.1842 12.2362 21.1592 12.2152 21.1362 12.1932C20.2013 11.2936 19.0442 10.6586 17.7832 10.3532C17.4302 10.2672 17.0652 10.2272 16.7062 10.1692C16.6432 10.1592 16.6002 10.1462 16.5612 10.0862C16.4994 9.99223 16.4151 9.91512 16.316 9.86184C16.217 9.80855 16.1062 9.78075 15.9937 9.78095C15.8812 9.78114 15.7705 9.80933 15.6716 9.86297C15.5727 9.91661 15.4887 9.99401 15.4272 10.0882C15.3972 10.1286 15.3528 10.1558 15.3032 10.1642C12.9892 10.4182 11.1732 11.5022 9.84323 13.3962C9.82833 13.4194 9.80835 13.439 9.78479 13.4534C9.76123 13.4678 9.7347 13.4766 9.70722 13.4792C9.24122 13.5552 9.00422 14.0092 9.19722 14.4392C9.21238 14.4778 9.21238 14.5206 9.19722 14.5592C8.9174 15.1969 8.7305 15.8714 8.64222 16.5622C8.63622 16.6052 8.62722 16.6472 8.61722 16.7062L8.53122 16.6262C8.24522 16.3412 7.96122 16.0532 7.67122 15.7722C7.53722 15.6422 7.49322 15.5042 7.55622 15.3222C8.22922 13.3922 9.29922 11.7402 10.9662 10.5072C10.9852 10.4932 11.0052 10.4812 11.0232 10.4662C11.0832 10.4132 11.1382 10.3982 11.2272 10.4222C11.3169 10.4472 11.4107 10.4533 11.5028 10.44C11.595 10.4267 11.6833 10.3944 11.7622 10.3451C11.8412 10.2958 11.909 10.2306 11.9613 10.1537C12.0136 10.0767 12.0494 9.98973 12.0662 9.8982C12.0713 9.87862 12.0801 9.86023 12.0923 9.84409C12.1045 9.82796 12.1198 9.8144 12.1372 9.8042C12.5691 9.59121 13.0197 9.41848 13.4832 9.2882C14.5782 8.9772 15.6962 8.8962 16.8262 8.9772C17.8671 9.04324 18.8863 9.30374 19.8312 9.7452C19.8912 9.7732 19.9212 9.8052 19.9312 9.8752C19.9457 9.97634 19.9831 10.0728 20.0406 10.1573C20.0981 10.2418 20.1741 10.312 20.2629 10.3625C20.3517 10.4131 20.4508 10.4427 20.5528 10.4491C20.6548 10.4554 20.7569 10.4384 20.8512 10.3992C20.8832 10.3872 20.9342 10.3862 20.9592 10.4032C21.3682 10.6852 21.7442 11.0052 22.0912 11.3582C22.0982 11.3652 22.1012 11.3752 22.1092 11.3902ZM18.4452 17.5702C18.4522 18.9012 17.3552 19.9982 16.0092 20.0062C15.3621 20.0081 14.7406 19.7538 14.2804 19.2988C13.8202 18.8439 13.5588 18.2253 13.5532 17.5782C13.5472 16.2452 14.6422 15.1512 15.9912 15.1442C16.6382 15.1405 17.2601 15.3938 17.7203 15.8486C18.1805 16.3033 18.4413 16.9222 18.4452 17.5692V17.5702ZM10.7472 18.8342L10.1152 18.1992C9.85522 17.9392 9.59322 17.6832 9.33522 17.4212C9.30169 17.3871 9.28178 17.3419 9.27922 17.2942C9.30312 16.4672 9.48223 15.652 9.80722 14.8912C9.81554 14.8665 9.83048 14.8446 9.85041 14.8279C9.87034 14.8111 9.89449 14.8002 9.92022 14.7962C10.3692 14.6912 10.5782 14.2992 10.4192 13.8712C10.4092 13.8412 10.4092 13.7962 10.4242 13.7712C10.9156 13.0443 11.5465 12.4223 12.2802 11.9412C12.2832 11.9392 12.2862 11.9392 12.3002 11.9352L12.5652 12.3872L13.1212 13.3472C13.2332 13.5432 13.3792 13.5862 13.5722 13.4692C14.0767 13.1633 14.6357 12.9582 15.2182 12.8652C16.2198 12.6958 17.2493 12.8547 18.1532 13.3182C18.1622 13.3232 18.1692 13.3302 18.1872 13.3442L17.3482 14.7512C15.7632 14.1562 14.4532 14.5112 13.3952 15.8282L11.9882 15.0012C12.1142 14.8322 12.2342 14.6692 12.3572 14.5092C12.4072 14.4432 12.4652 14.3832 12.5212 14.3212C12.6072 14.2252 12.6072 14.1712 12.5192 14.0812C12.4418 14.0026 12.3638 13.9246 12.2852 13.8472C12.1792 13.7432 12.1272 13.7432 12.0272 13.8512C11.6006 14.3079 11.258 14.8363 11.0152 15.4122C10.6711 16.219 10.5343 17.099 10.6172 17.9722C10.6432 18.2522 10.7002 18.5292 10.7472 18.8342ZM15.9952 10.8242C15.896 10.8222 15.8014 10.7817 15.7313 10.7115C15.6612 10.6412 15.621 10.5465 15.6192 10.4472C15.6225 10.348 15.6638 10.2539 15.7345 10.1843C15.8053 10.1147 15.9 10.0749 15.9992 10.0732C16.0985 10.0755 16.193 10.1162 16.2629 10.1867C16.3328 10.2571 16.3727 10.3519 16.3742 10.4512C16.3721 10.5506 16.3314 10.6453 16.2606 10.7151C16.1899 10.785 16.0946 10.8244 15.9952 10.8252V10.8242ZM11.3952 9.4102C11.4446 9.40887 11.4938 9.41737 11.5399 9.43521C11.586 9.45305 11.6281 9.47986 11.6637 9.5141C11.6993 9.54834 11.7278 9.58932 11.7475 9.63466C11.7671 9.68 11.7776 9.72879 11.7782 9.7782C11.7782 9.87845 11.7384 9.9746 11.6675 10.0455C11.5966 10.1164 11.5005 10.1562 11.4002 10.1562C11.3 10.1562 11.2038 10.1164 11.1329 10.0455C11.062 9.9746 11.0222 9.87845 11.0222 9.7782C11.0233 9.68006 11.0631 9.58632 11.1329 9.51739C11.2028 9.44846 11.2971 9.40993 11.3952 9.4102ZM22.1962 14.5102C22.1009 14.5062 22.0108 14.4658 21.9444 14.3973C21.8781 14.3288 21.8406 14.2374 21.8397 14.142C21.8388 14.0467 21.8746 13.9546 21.9396 13.8848C22.0047 13.8151 22.094 13.773 22.1892 13.7672C22.238 13.7667 22.2864 13.7759 22.3317 13.7941C22.3769 13.8124 22.4181 13.8394 22.4529 13.8735C22.4878 13.9077 22.5155 13.9484 22.5346 13.9933C22.5537 14.0382 22.5638 14.0864 22.5642 14.1352C22.5647 14.184 22.5555 14.2324 22.5373 14.2776C22.519 14.3229 22.4921 14.3641 22.4579 14.3989C22.4237 14.4337 22.383 14.4615 22.3381 14.4806C22.2932 14.4997 22.245 14.5097 22.1962 14.5102ZM20.5932 9.4102C20.8062 9.4102 20.9682 9.5702 20.9672 9.7822C20.967 9.88008 20.928 9.97389 20.8589 10.0432C20.7898 10.1125 20.6961 10.1517 20.5982 10.1522C20.5489 10.153 20.5 10.144 20.4542 10.1259C20.4084 10.1077 20.3666 10.0806 20.3313 10.0462C20.296 10.0118 20.2678 9.9708 20.2484 9.92549C20.229 9.88018 20.2187 9.83149 20.2182 9.7822C20.2175 9.73286 20.2268 9.68389 20.2454 9.6382C20.2641 9.5925 20.2917 9.55102 20.3267 9.51622C20.3617 9.48143 20.4033 9.45402 20.4491 9.43563C20.4949 9.41725 20.5439 9.40826 20.5932 9.4092V9.4102ZM10.1752 14.1382C10.1755 14.1875 10.1659 14.2363 10.1471 14.2818C10.1282 14.3273 10.1005 14.3686 10.0655 14.4033C10.0304 14.4379 9.98884 14.4652 9.94313 14.4836C9.89741 14.502 9.84848 14.511 9.79922 14.5102C9.74988 14.5109 9.70091 14.5016 9.65522 14.483C9.60953 14.4644 9.56805 14.4367 9.53325 14.4018C9.49845 14.3668 9.47104 14.3251 9.45266 14.2794C9.43427 14.2336 9.42528 14.1845 9.42622 14.1352C9.42675 14.0372 9.46611 13.9435 9.53565 13.8745C9.6052 13.8055 9.69927 13.7669 9.79722 13.7672C9.84653 13.7663 9.89553 13.7752 9.94135 13.7934C9.98717 13.8116 10.0289 13.8388 10.0641 13.8734C10.0993 13.9079 10.1272 13.9491 10.1463 13.9946C10.1654 14.0401 10.1752 14.0889 10.1752 14.1382Z" fill="white"/>
</svg>
