<svg width="32" height="32" viewBox="0 0 32 32" fill="none" xmlns="http://www.w3.org/2000/svg">
<path d="M16 32C24.8366 32 32 24.8366 32 16C32 7.16344 24.8366 0 16 0C7.16344 0 0 7.16344 0 16C0 24.8366 7.16344 32 16 32Z" fill="#602A52"/>
<path fill-rule="evenodd" clip-rule="evenodd" d="M20.5824 16.312C20.3041 15.5359 19.8075 14.8567 19.1524 14.356L19.1454 14.348C19.076 14.2955 19.0049 14.2451 18.9324 14.197L18.9184 14.187C18.8469 14.1401 18.7742 14.0951 18.7004 14.052L18.6804 14.04C18.608 13.998 18.5336 13.9597 18.4574 13.925L18.4354 13.913C18.3574 13.8764 18.2788 13.8414 18.1994 13.808L18.1734 13.798C17.9165 13.6914 17.6499 13.6096 17.3774 13.554C17.2203 13.8388 17.0184 14.0965 16.7794 14.317C17.3407 14.3618 17.8831 14.5412 18.3604 14.84L18.3874 14.856L18.5194 14.946L18.5794 14.988C18.6194 15.018 18.6564 15.048 18.6974 15.078L18.7644 15.132C18.8004 15.162 18.8334 15.192 18.8674 15.223L18.9354 15.288L19.0284 15.382L19.0964 15.455L19.1794 15.552L19.2444 15.633L19.3194 15.733C19.3444 15.766 19.3614 15.792 19.3814 15.821C19.4014 15.85 19.4274 15.888 19.4484 15.923L19.5064 16.019C19.5244 16.051 19.5464 16.087 19.5644 16.121C19.5844 16.154 19.6004 16.191 19.6184 16.227C19.6354 16.263 19.6524 16.293 19.6674 16.327C19.6861 16.3714 19.7041 16.4161 19.7214 16.461C19.8163 16.6978 19.8834 16.9448 19.9214 17.197L20.0304 17.601C20.0764 17.769 20.5014 19.257 21.4864 19.758C22.6154 20.337 24.1104 21.052 24.6984 21.335L16.9324 25.895V22.77C16.9324 22.277 17.9324 21.7 18.3954 21.497L18.4224 21.482C18.5174 21.435 18.6124 21.384 18.7024 21.33L18.7414 21.31C18.9417 21.1894 19.1323 21.0533 19.3114 20.903L19.3594 20.86L19.4144 20.811C19.4707 20.7604 19.5257 20.7084 19.5794 20.655L19.6074 20.628C19.6664 20.569 19.7254 20.513 19.7774 20.444L19.8264 20.388C19.8704 20.336 19.9124 20.283 19.9534 20.229L19.9894 20.184C20.0394 20.118 20.0854 20.05 20.1314 19.981L20.1474 19.961C20.2094 19.864 20.2644 19.767 20.3224 19.666C20.1046 19.4031 19.918 19.1159 19.7664 18.81C19.7044 18.983 19.6264 19.151 19.5364 19.312C19.4984 19.382 19.4584 19.45 19.4184 19.516L19.4004 19.543C19.3626 19.5991 19.3233 19.6542 19.2824 19.708L19.2464 19.754C19.2056 19.8066 19.163 19.8576 19.1184 19.907L19.0944 19.935C18.8051 20.251 18.4595 20.5104 18.0754 20.7L18.0024 20.737C17.8054 20.824 16.0694 21.594 16.0694 22.765V25.891L8.27939 21.323C8.78039 21.017 10.2444 20.165 11.4484 19.79C11.9194 19.646 12.9194 20.263 13.4864 20.716L13.5204 20.746C13.5954 20.816 13.6744 20.883 13.7564 20.946L13.7844 20.971C13.9644 21.115 14.1564 21.244 14.3574 21.358L14.4924 21.431L14.5194 21.445C14.6504 21.511 14.7844 21.571 14.9214 21.624L14.9814 21.647L15.0214 21.663C15.2184 21.735 15.4214 21.791 15.6264 21.833C15.7877 21.5446 15.9959 21.2851 16.2424 21.065C15.9138 21.0407 15.5902 20.97 15.2814 20.855L15.2284 20.835L15.1264 20.794L15.0744 20.772L14.9754 20.726C14.7461 20.6148 14.5298 20.4786 14.3304 20.32L14.0204 20.044C13.7357 19.7989 13.4276 19.5825 13.1004 19.398C12.3304 18.968 11.6864 18.828 11.1924 18.98C10.1624 19.298 9.00239 19.916 8.29439 20.324L16.0724 6.60701V12.614C16.0724 12.827 15.7524 13.383 14.6834 13.855L14.6094 13.895C14.5054 13.945 14.4044 13.999 14.3054 14.057L14.2854 14.067C13.9562 14.2609 13.6543 14.4976 13.3874 14.771L13.3774 14.781C13.2762 14.8851 13.1804 14.9942 13.0904 15.108L13.0794 15.123C13.0359 15.1785 12.9936 15.2348 12.9524 15.292L12.9384 15.312C12.9013 15.366 12.8653 15.4206 12.8304 15.476L12.8184 15.493C12.7832 15.5498 12.7495 15.6074 12.7174 15.666L12.6944 15.707C12.6654 15.763 12.6364 15.823 12.6074 15.875L12.5944 15.902C12.5686 15.9547 12.5443 16.008 12.5214 16.062L12.4964 16.122C12.4734 16.178 12.4524 16.238 12.4314 16.292L12.4114 16.352C12.3961 16.3949 12.3821 16.4383 12.3694 16.482C12.3624 16.506 12.3544 16.529 12.3484 16.554C12.291 16.7548 12.2492 16.9598 12.2234 17.167L12.2134 17.26C12.2087 17.3022 12.205 17.3446 12.2024 17.387C12.2004 17.43 12.2024 17.472 12.1954 17.514C12.1884 17.557 12.1954 17.566 12.1954 17.594V17.689C12.1954 17.899 12.2114 18.109 12.2434 18.318C12.5784 18.3997 12.9026 18.5206 13.2094 18.678C13.1152 18.3761 13.0647 18.0622 13.0594 17.746V17.689C13.0594 17.613 13.0594 17.538 13.0684 17.458V17.398C13.0684 17.333 13.0814 17.267 13.0904 17.202V17.174C13.1007 17.1017 13.1147 17.0299 13.1324 16.959L13.1444 16.904C13.1594 16.844 13.1744 16.786 13.1934 16.727L13.2054 16.689C13.2254 16.62 13.2504 16.553 13.2764 16.486L13.2964 16.441C13.3184 16.386 13.3424 16.331 13.3674 16.276L13.3864 16.234C13.4174 16.169 13.4514 16.106 13.4864 16.043L13.5054 16.012C13.5369 15.9578 13.5699 15.9044 13.6044 15.852L13.6294 15.815C13.6704 15.755 13.7124 15.699 13.7574 15.637L13.7654 15.627C13.8084 15.572 13.8534 15.519 13.8994 15.467L13.9244 15.437C14.1354 15.205 14.3774 15.002 14.6444 14.834L15.0124 14.664C15.2094 14.577 16.9374 13.786 16.9374 12.614V6.60701L24.7764 20.427C24.0764 20.09 22.8464 19.495 21.8864 19.007C21.3384 18.727 20.9644 17.74 20.8684 17.386L20.7624 16.971C20.7232 16.7483 20.6656 16.5292 20.5904 16.316L20.5824 16.312ZM25.8924 20.662L17.2524 5.43601C17.1761 5.30284 17.0658 5.1923 16.9328 5.1157C16.7998 5.0391 16.6489 4.99918 16.4954 5.00001C16.3422 4.99953 16.1917 5.03962 16.0591 5.11621C15.9265 5.19279 15.8165 5.30313 15.7404 5.43601L7.11039 20.663C7.00175 20.855 6.97338 21.0821 7.03145 21.2949C7.08951 21.5076 7.22931 21.6888 7.42039 21.799L16.0574 26.879C16.1921 26.9577 16.3453 26.9992 16.5014 26.9992C16.6574 26.9992 16.8107 26.9577 16.9454 26.879L25.5814 21.803C25.7724 21.693 25.9122 21.5121 25.9704 21.2995C26.0287 21.087 26.0006 20.86 25.8924 20.668L25.8944 20.662H25.8924Z" fill="white"/>
</svg>
