<svg width="32" height="32" viewBox="0 0 32 32" fill="none" xmlns="http://www.w3.org/2000/svg">
<path d="M16 32C24.8366 32 32 24.8366 32 16C32 7.16344 24.8366 0 16 0C7.16344 0 0 7.16344 0 16C0 24.8366 7.16344 32 16 32Z" fill="#4C6BAE"/>
<path opacity="0.5" fill-rule="evenodd" clip-rule="evenodd" d="M6.383 17.0097L5 17.1527C5.74 15.0827 7.203 13.4267 9.391 12.1847C9.598 13.9007 10.411 15.3197 11.831 16.4437L10.531 16.5787C10.6577 17.7724 11.1711 18.8918 11.9931 19.7666C12.8151 20.6413 13.9005 21.2232 15.084 21.4237C14.2125 22.0793 13.1809 22.4886 12.097 22.6087C12.778 23.8087 13.584 24.7917 14.514 25.5557C12.406 25.2272 10.4658 24.211 8.99525 22.6654C7.5247 21.1198 6.60631 19.1314 6.383 17.0097ZM25.617 14.9897L27 14.8467C26.26 16.9167 24.797 18.5727 22.609 19.8147C22.402 18.0987 21.589 16.6797 20.169 15.5557L21.469 15.4207C21.341 14.2145 20.8181 13.0843 19.9815 12.206C19.1449 11.3276 18.0416 10.7503 16.843 10.5637C17.7115 9.91498 18.7375 9.51002 19.815 9.39073C19.128 8.18173 18.316 7.19473 17.377 6.42773C19.5072 6.73493 21.4741 7.74372 22.9665 9.29446C24.459 10.8452 25.3916 12.8493 25.617 14.9897Z" fill="white"/>
<path fill-rule="evenodd" clip-rule="evenodd" d="M16.9217 25.626L17.0647 27C14.9947 26.26 13.3387 24.797 12.0967 22.609C13.8117 22.402 15.2307 21.589 16.3547 20.169L16.4907 21.479C17.7142 21.369 18.8656 20.8529 19.7617 20.0127C20.6579 19.1726 21.2471 18.0568 21.4357 16.843C22.0845 17.7115 22.4894 18.7375 22.6087 19.815C23.8177 19.128 24.8047 18.316 25.5717 17.377C25.2624 19.5222 24.2416 21.5014 22.6731 22.9972C21.1046 24.493 19.0792 25.4188 16.9217 25.626ZM14.9897 6.383L14.8467 5C16.9167 5.74 18.5727 7.203 19.8147 9.391C18.0987 9.598 16.6797 10.411 15.5557 11.831L15.4207 10.531C14.2145 10.659 13.0843 11.1819 12.206 12.0185C11.3276 12.8551 10.7503 13.9584 10.5637 15.157C9.91498 14.2885 9.51002 13.2625 9.39073 12.185C8.18173 12.872 7.19473 13.684 6.42773 14.623C6.73493 12.4928 7.74372 10.5259 9.29446 9.03346C10.8452 7.54104 12.8493 6.60836 14.9897 6.383Z" fill="white"/>
</svg>
