<svg width="32" height="32" viewBox="0 0 32 32" fill="none" xmlns="http://www.w3.org/2000/svg">
<path d="M16 32C24.8366 32 32 24.8366 32 16C32 7.16344 24.8366 0 16 0C7.16344 0 0 7.16344 0 16C0 24.8366 7.16344 32 16 32Z" fill="#666666"/>
<path fill-rule="evenodd" clip-rule="evenodd" d="M25.0824 21.15C24.8766 21.4934 24.5446 21.7427 24.1574 21.8445C23.7702 21.9464 23.3585 21.8927 23.0104 21.695L18.2314 18.985V17.265L19.7494 16.405L24.5274 19.114C25.2534 19.525 25.5014 20.437 25.0824 21.149V21.15ZM17.5174 24.809C17.5174 25.632 16.8384 26.299 16.0004 26.299C15.1624 26.299 14.4834 25.632 14.4834 24.809V19.39L16.0004 18.53L17.5174 19.39V24.809ZM8.99036 21.695C8.6421 21.8926 8.23034 21.9461 7.84313 21.8441C7.45592 21.7421 7.124 21.4926 6.91836 21.149C6.81909 20.9795 6.75467 20.7918 6.72886 20.5971C6.70306 20.4023 6.71639 20.2044 6.76809 20.0148C6.81978 19.8253 6.90878 19.648 7.02989 19.4933C7.151 19.3386 7.30177 19.2097 7.47336 19.114L12.2514 16.404L13.7694 17.265V18.985L8.99036 21.695ZM7.47336 12.886C7.30177 12.7903 7.151 12.6614 7.02989 12.5067C6.90878 12.352 6.81978 12.1747 6.76809 11.9852C6.71639 11.7956 6.70306 11.5977 6.72886 11.4029C6.75467 11.2082 6.81909 11.0205 6.91836 10.851C7.124 10.5074 7.45592 10.2579 7.84313 10.1559C8.23034 10.0539 8.6421 10.1074 8.99036 10.305L13.7694 13.015V14.735L12.2514 15.595L7.47336 12.886ZM14.4834 7.191C14.4834 6.368 15.1634 5.701 16.0004 5.701C16.8384 5.701 17.5174 6.368 17.5174 7.191V12.609L16.0004 13.47L14.4834 12.61V7.191ZM18.2314 15.545L19.0354 16L18.2314 16.455V15.545ZM16.7144 13.875L17.5174 13.419V14.33L16.7144 13.875ZM14.4834 14.33V13.42L15.2864 13.875L14.4834 14.33ZM13.7694 16.455L12.9654 16L13.7694 15.545V16.455ZM15.2864 18.125L14.4834 18.581V17.67L15.2864 18.125ZM17.5174 17.67V18.58L16.7144 18.125L17.5174 17.67ZM16.0004 17.72L14.4834 16.86V15.14L16.0004 14.28L17.5174 15.14V16.86L16.0004 17.72ZM23.0104 10.305C23.3586 10.1074 23.7704 10.0539 24.1576 10.1559C24.5448 10.2579 24.8767 10.5074 25.0824 10.851C25.5024 11.563 25.2524 12.475 24.5274 12.886L19.7494 15.596L18.2314 14.735V13.015L23.0104 10.305ZM24.8844 18.507L20.4634 16L24.8844 13.493C25.1369 13.3525 25.3588 13.1629 25.537 12.9354C25.7153 12.7079 25.8463 12.4471 25.9224 12.1684C25.9985 11.8896 26.0182 11.5984 25.9802 11.3119C25.9422 11.0254 25.8474 10.7494 25.7014 10.5C25.0854 9.452 23.7204 9.093 22.6534 9.698L18.2314 12.205V7.19C18.2314 5.981 17.2324 5 16.0004 5C14.7684 5 13.7694 5.981 13.7694 7.191V12.205L9.34736 9.698C8.28036 9.093 6.91536 9.452 6.30036 10.5C6.15428 10.7494 6.05947 11.0254 6.02151 11.3119C5.98355 11.5984 6.0032 11.8896 6.0793 12.1684C6.1554 12.4471 6.28643 12.7079 6.46469 12.9354C6.64294 13.1629 6.86484 13.3525 7.11736 13.493L11.5374 16L7.11736 18.507C6.86476 18.6475 6.64276 18.837 6.46441 19.0644C6.28605 19.2918 6.15492 19.5526 6.07872 19.8314C6.00252 20.1102 5.98279 20.4014 6.02068 20.688C6.05857 20.9745 6.15332 21.2506 6.29936 21.5C6.91536 22.548 8.28036 22.907 9.34736 22.302L13.7694 19.795V24.809C13.7694 26.019 14.7684 27 16.0004 27C17.2324 27 18.2314 26.019 18.2314 24.809V19.795L22.6534 22.302C23.7204 22.907 25.0854 22.548 25.7014 21.5C25.8474 21.2506 25.9422 20.9746 25.9802 20.6881C26.0182 20.4016 25.9985 20.1104 25.9224 19.8316C25.8463 19.5529 25.7153 19.2921 25.537 19.0646C25.3588 18.8371 25.1369 18.6475 24.8844 18.507Z" fill="white"/>
</svg>
