<svg width="32" height="32" viewBox="0 0 32 32" fill="none" xmlns="http://www.w3.org/2000/svg">
<path d="M16 32C24.8366 32 32 24.8366 32 16C32 7.16344 24.8366 0 16 0C7.16344 0 0 7.16344 0 16C0 24.8366 7.16344 32 16 32Z" fill="#EF494D"/>
<path fill-rule="evenodd" clip-rule="evenodd" d="M6 11.386C6 11.173 6.173 11 6.387 11H11.411C13.729 11 15.179 12.196 15.179 13.885C15.179 14.59 14.857 15.231 14.213 15.808C15.114 16.321 15.565 17.09 15.565 18.115C15.565 20.52 13.246 21 11.7 21H6.386C6.28363 21 6.18545 20.9593 6.11306 20.8869C6.04067 20.8146 6 20.7164 6 20.614V19.464C6 19.25 6.173 19.077 6.386 19.077H11.7C12.795 19.077 13.343 18.724 13.343 18.019C13.343 17.314 12.795 16.929 11.7 16.865H6.386C6.2838 16.865 6.18577 16.8245 6.11341 16.7523C6.04105 16.6801 6.00027 16.5822 6 16.48V15.33C6 15.116 6.173 14.943 6.386 14.943H11.7C12.473 14.815 12.86 14.495 12.86 13.982C12.86 13.277 12.473 12.924 11.7 12.924H6.386C6.33523 12.924 6.28495 12.914 6.23805 12.8945C6.19116 12.8751 6.14856 12.8465 6.1127 12.8106C6.07685 12.7746 6.04844 12.732 6.0291 12.685C6.00976 12.6381 5.99987 12.5878 6 12.537V11.387V11.386ZM16.435 11.386C16.435 11.173 16.608 11 16.821 11H21.942C22.155 11 22.329 11.173 22.329 11.386V20.614C22.329 20.6648 22.319 20.7151 22.2995 20.7619C22.2801 20.8088 22.2515 20.8514 22.2156 20.8873C22.1796 20.9232 22.137 20.9516 22.09 20.9709C22.0431 20.9902 21.9928 21.0001 21.942 21H20.492C20.3896 21 20.2914 20.9593 20.2191 20.8869C20.1467 20.8146 20.106 20.7164 20.106 20.614V13.31C20.1061 13.2592 20.0962 13.2089 20.0769 13.162C20.0576 13.115 20.0292 13.0724 19.9933 13.0364C19.9574 13.0005 19.9148 12.9719 19.8679 12.9525C19.8211 12.933 19.7708 12.923 19.72 12.923H16.82C16.7176 12.923 16.6194 12.8823 16.5471 12.8099C16.4747 12.7376 16.434 12.6394 16.434 12.537L16.435 11.386ZM23.68 11H25.613C25.826 11 25.999 11.173 25.999 11.386V12.536C25.9991 12.5868 25.9892 12.6371 25.9699 12.684C25.9506 12.731 25.9222 12.7736 25.8863 12.8096C25.8504 12.8455 25.8078 12.8741 25.7609 12.8935C25.7141 12.913 25.6638 12.923 25.613 12.923H23.68C23.5776 12.923 23.4794 12.8823 23.4071 12.8099C23.3347 12.7376 23.294 12.6394 23.294 12.537V11.387C23.294 11.173 23.467 11 23.68 11Z" fill="white"/>
</svg>
