<svg width="32" height="32" viewBox="0 0 32 32" fill="none" xmlns="http://www.w3.org/2000/svg">
<path d="M16 32C24.8366 32 32 24.8366 32 16C32 7.16344 24.8366 0 16 0C7.16344 0 0 7.16344 0 16C0 24.8366 7.16344 32 16 32Z" fill="#01AEF0"/>
<path fill-rule="evenodd" clip-rule="evenodd" d="M21.0692 18.8898C21.0562 20.9638 19.8582 22.7298 17.9472 23.4548C17.4992 23.6248 17.0332 23.7498 16.5692 23.8658C16.2922 23.9358 16.1412 24.0728 16.1192 24.3758C16.0912 24.7578 16.0522 25.1388 15.9992 25.5158C15.9352 25.9618 15.7822 26.0638 15.3722 25.9658C14.6662 25.7978 14.5902 25.6838 14.6842 24.9428C14.6922 24.8798 14.7012 24.8168 14.7082 24.7528C14.7782 24.1458 14.6922 24.0588 14.1112 24.0878C13.8502 24.1008 13.7412 24.2298 13.7162 24.4858C13.6822 24.8538 13.6462 25.2228 13.5862 25.5858C13.5262 25.9578 13.3702 26.0498 13.0122 25.9718C12.2482 25.8068 12.1922 25.7218 12.2922 24.9138C12.4182 23.9108 12.4152 23.9218 11.4892 23.6428C11.0792 23.5188 10.6812 23.3468 10.2802 23.1878C10.0362 23.0918 9.95617 22.9098 10.0222 22.6388C10.1062 22.2938 10.1642 21.9408 10.2362 21.5918C10.3602 20.9968 10.6482 20.8168 11.1982 21.0328C12.1722 21.4158 13.1722 21.6518 14.2132 21.6768C15.1522 21.6998 16.0812 21.6378 16.9382 21.1768C17.5042 20.8718 17.9202 20.4248 18.1292 19.7838C18.4392 18.8318 18.1612 18.0618 17.2692 17.6788C16.5342 17.3638 15.7452 17.1888 15.0042 16.8868C14.3462 16.6188 13.6622 16.3508 13.0942 15.9298C11.8172 14.9858 11.5942 13.5898 11.8742 12.0988C12.1922 10.4178 13.2212 9.32783 14.7482 8.74883C15.1552 8.59583 15.3392 8.38184 15.3462 7.92484C15.3522 7.42984 15.4312 6.93484 15.4912 6.44184C15.5372 6.06284 15.6852 5.95684 16.0392 6.01484C16.7912 6.13784 16.8812 6.25684 16.8072 7.03784C16.7782 7.34284 16.7532 7.64784 16.7172 7.95084C16.6872 8.20584 16.7682 8.32284 17.0352 8.33084C17.6442 8.34884 17.6702 8.33784 17.7422 7.70784C17.7882 7.30284 17.8222 6.89684 17.8772 6.49284C17.9372 6.04484 18.0822 5.94284 18.4952 6.02684C19.1902 6.16984 19.2672 6.27584 19.1992 6.99984C19.1692 7.31684 19.1542 7.63684 19.0992 7.94984C19.0362 8.30983 19.1462 8.47684 19.5042 8.55984C20.1852 8.71784 20.8592 8.91784 21.5282 9.12584C22.0312 9.28184 22.0512 9.33884 21.9542 9.86184C21.8972 10.1748 21.8402 10.4888 21.7662 10.7978C21.6282 11.3798 21.3382 11.5528 20.7842 11.3668C19.8362 11.0468 18.8842 10.7578 17.8792 10.7148C16.9992 10.6778 16.1312 10.6908 15.3672 11.2438C14.2912 12.0218 14.2852 13.6038 15.4292 14.2698C16.1572 14.6938 16.9982 14.9098 17.7872 15.2218C18.2682 15.4118 18.7622 15.5758 19.2242 15.8058C20.4622 16.4238 21.0832 17.4568 21.0692 18.8908" fill="white"/>
</svg>
