<svg width="32" height="32" viewBox="0 0 32 32" fill="none" xmlns="http://www.w3.org/2000/svg">
<path d="M16 32C24.8366 32 32 24.8366 32 16C32 7.16344 24.8366 0 16 0C7.16344 0 0 7.16344 0 16C0 24.8366 7.16344 32 16 32Z" fill="#3355B5"/>
<path d="M16 4C9.373 4 4 9.373 4 16C4 22.627 9.373 28 16 28C22.627 28 28 22.627 28 16C28 12.8174 26.7357 9.76515 24.4853 7.51472C22.2348 5.26428 19.1826 4 16 4ZM16 27.77C9.5 27.77 4.23 22.5 4.23 16C4.23 9.5 9.5 4.23 16 4.23C22.5 4.23 27.77 9.5 27.77 16C27.77 19.1216 26.53 22.1153 24.3226 24.3226C22.1153 26.53 19.1216 27.77 16 27.77Z" fill="white"/>
<path fill-rule="evenodd" clip-rule="evenodd" d="M19.2904 13.4997L19.2604 13.3897L19.2304 13.2797L19.2004 13.1597L19.1604 13.0597L19.1304 12.9497L19.0904 12.8497L19.0404 12.7397L19.0004 12.6397L18.9504 12.5497L18.9004 12.4497L18.8504 12.3597L18.7904 12.2697L18.7404 12.1897L18.6804 12.0997L18.6204 12.0297L18.5504 11.9497L18.4904 11.8797L18.4304 11.8097L18.3604 11.7497L18.2904 11.6897L18.2204 11.6297L18.1504 11.5797L18.0704 11.5297L18.0004 11.4897L17.9204 11.4397L17.8504 11.4097L17.7704 11.3697L17.6904 11.3397L17.6104 11.3097L17.5204 11.2897L17.4404 11.2697L17.3604 11.2497L17.2704 11.2397L17.1804 11.2297L17.1004 11.2197H16.8304L16.7404 11.2297L16.6504 11.2397L16.5504 11.2497L16.4604 11.2697L16.3704 11.2897L16.2804 11.3097L16.1804 11.3397L16.0904 11.3697L15.9904 11.3997L15.8904 11.4397L15.8004 11.4797L15.7004 11.5297L15.6104 11.5697L15.5104 11.6197L15.4104 11.6797L15.3204 11.7297L15.2204 11.7897L15.1204 11.8597L15.0304 11.9197L14.9304 11.9897L14.8304 12.0697L14.7304 12.1397L14.6404 12.2197L14.5404 12.2997L14.4504 12.3897L14.3504 12.4797L14.2504 12.5697L14.1604 12.6697L14.0604 12.7697L13.9704 12.8697L13.8804 12.9697L13.7804 13.0797L13.6904 13.1897L13.6004 13.2997L13.5104 13.4197L13.4204 13.5397L13.3304 13.6697L13.2104 13.8397L13.0904 14.0197L12.9704 14.2097L12.8604 14.3897L12.7504 14.5897L12.6404 14.7797L12.5404 14.9697L12.4404 15.1697L12.3504 15.3697L12.2604 15.5697L12.1804 15.7697L12.1104 15.9297L19.3004 13.5797L19.2904 13.4997ZM12.8004 17.0097L19.1704 16.9597L19.2004 16.8197L19.2304 16.6797L19.2604 16.5397L19.2904 16.3897L19.3104 16.2497L19.3404 16.1097L19.3604 15.9697L19.3704 15.8297L19.3904 15.6897L19.4004 15.5497L19.4104 15.4197L19.4204 15.2797L19.4304 15.1397V14.8497L12.8004 17.0097Z" fill="white"/>
<path d="M15.9996 4.55957C9.68157 4.55957 4.55957 9.68157 4.55957 15.9996C4.55957 22.3176 9.68157 27.4396 15.9996 27.4396C22.3176 27.4396 27.4396 22.3176 27.4396 15.9996C27.4396 14.4972 27.1437 13.0096 26.5688 11.6217C25.9938 10.2337 25.1512 8.97257 24.0889 7.91027C23.0266 6.84797 21.7654 6.0053 20.3775 5.43039C18.9895 4.85547 17.5019 4.55957 15.9996 4.55957ZM22.4796 16.9196L22.2796 18.0996H20.4896L20.4296 18.2996L20.3196 18.5996L20.2096 18.8996L20.0896 19.1996L19.9996 19.4996L19.8696 19.7896L19.7296 20.0796L19.5896 20.3696L19.4396 20.6496L19.2896 20.9296L19.1296 21.1996L18.9696 21.4696L18.7996 21.7396L18.5996 21.9996L18.5096 22.1296L18.4196 22.2596L17.4896 20.6996L17.5796 20.5696L17.6696 20.4396L17.7496 20.3096L17.8296 20.1796L17.9096 20.0496L17.9896 19.9196L18.0696 19.7896L18.1396 19.6596L18.2096 19.5196L18.2796 19.3796L18.3496 19.2396L18.4196 19.0996L18.4796 18.9596L18.5396 18.8196L18.5996 18.6796L18.6596 18.5396L18.7196 18.3996L18.7696 18.2596V18.1396L11.4996 18.1996V20.0496L9.63957 21.3396V18.1996H9.09957L8.89957 18.2696L8.55957 17.0796L10.2396 16.5296V16.3996L10.3096 16.1896L10.4096 15.9996L10.4796 15.7996L10.5596 15.5996L10.6396 15.3996L10.7196 15.1996L10.7996 14.9996L10.8896 14.7996L10.9796 14.5996L11.0696 14.3996L11.1596 14.2096L11.2596 14.0196L11.3596 13.8296L11.4596 13.6396L11.5596 13.4496L11.6696 13.2596L11.7796 13.0796L11.8896 12.8996L11.9996 12.7096L12.1096 12.5296L12.2296 12.3596L12.3496 12.1896L12.4596 11.9996L12.5796 11.8296L12.6996 11.6696L12.8296 11.5096L12.9996 11.3696L13.1296 11.2196L13.2596 11.0696L13.3896 10.9196L13.5296 10.7796L13.6696 10.6396L13.8096 10.4996L13.9496 10.3696L14.0896 10.2396L14.2296 10.1096L14.3396 9.99957L14.4896 9.87957L14.6396 9.76957L14.7896 9.65957L14.9396 9.54957L15.0896 9.44957L15.2396 9.35957L15.3896 9.26957L15.5396 9.18957L15.6896 9.10957L15.8196 8.99957L15.9996 8.94957L16.1396 8.88957L16.2796 8.82957L16.4196 8.77957H18.8296L18.9396 8.82957L19.0496 8.87957L19.1596 8.93957L19.2696 8.99957L19.3696 9.06957L19.4696 9.13957L19.5696 9.21957L19.6696 9.29957L19.7596 9.38957L19.8496 9.47957L19.9396 9.57957L20.0296 9.67957L20.1096 9.78957L20.1896 9.89957L20.2696 10.0096L20.3496 10.1296L20.4196 10.2496L20.4896 10.3796L20.5596 10.5096L20.6196 10.6496L20.6796 10.7896L20.7396 10.9296L20.7996 11.0796L20.8496 11.2296V12.9996L21.8496 12.6796L22.1896 13.8696L20.9096 14.2896V15.9196L20.8596 16.2196L20.7996 16.5196L20.7296 16.8196V16.9496L22.4796 16.9196Z" fill="white"/>
</svg>
