<svg width="32" height="32" viewBox="0 0 32 32" fill="none" xmlns="http://www.w3.org/2000/svg">
<path d="M16 32C24.8366 32 32 24.8366 32 16C32 7.16344 24.8366 0 16 0C7.16344 0 0 7.16344 0 16C0 24.8366 7.16344 32 16 32Z" fill="#183C87"/>
<path fill-rule="evenodd" clip-rule="evenodd" d="M5 15.615L9.495 13.077L13.989 15.615V20.462L9.495 23L5 20.462V15.615ZM18.01 15.615L22.505 13.077L27 15.615V20.462L22.505 23L18.011 20.462V15.615H18.01ZM17.538 19.825L15.961 20.692L14.462 19.869V15.23L10.362 12.914V11.23L15.961 8L21.559 11.23V12.96L17.538 15.23V19.826V19.825Z" fill="white"/>
</svg>
