<svg width="32" height="32" viewBox="0 0 32 32" fill="none" xmlns="http://www.w3.org/2000/svg">
<path d="M16 32C24.8366 32 32 24.8366 32 16C32 7.16344 24.8366 0 16 0C7.16344 0 0 7.16344 0 16C0 24.8366 7.16344 32 16 32Z" fill="#2DAEE4"/>
<path fill-rule="evenodd" clip-rule="evenodd" d="M8.30343 11.9573H8.41343C9.37643 11.9393 10.2134 11.5753 10.9234 10.8663C11.6134 10.1203 11.9594 9.26531 11.9594 8.30131C11.9594 7.81031 12.1364 7.38731 12.4914 7.03231C12.6597 6.85983 12.8615 6.72364 13.0843 6.63214C13.3072 6.54064 13.5465 6.49578 13.7874 6.50031C14.2774 6.50031 14.7014 6.67731 15.0554 7.03231C15.4104 7.38731 15.5874 7.81031 15.5874 8.30131C15.5874 8.79131 15.4194 9.21531 15.0834 9.57031C14.929 9.74022 14.7419 9.87729 14.5333 9.97333C14.3247 10.0694 14.0989 10.1224 13.8694 10.1293C12.8324 10.0923 11.9414 10.4473 11.1954 11.1933C10.4494 11.9393 10.0954 12.8123 10.1314 13.8133C10.1674 14.8493 10.5414 15.7133 11.2504 16.4043C12.0324 17.0953 12.9054 17.4323 13.8694 17.4143C14.099 17.4213 14.3248 17.4745 14.5334 17.5708C14.742 17.667 14.9291 17.8042 15.0834 17.9743C15.4194 18.3283 15.5874 18.7423 15.5874 19.2143C15.5874 19.7243 15.4104 20.1563 15.0554 20.5113C14.8916 20.6819 14.6946 20.817 14.4765 20.9085C14.2584 21 14.0239 21.0459 13.7874 21.0433C13.2774 21.0433 12.8464 20.8653 12.4914 20.5113C12.3189 20.3431 12.1827 20.1413 12.0913 19.9184C11.9998 19.6955 11.9549 19.4562 11.9594 19.2153C11.9671 18.7483 11.8791 18.2847 11.7007 17.853C11.5224 17.4213 11.2575 17.0307 10.9224 16.7053C10.5988 16.362 10.2104 16.0863 9.77953 15.8941C9.34871 15.7018 8.88405 15.5969 8.41243 15.5853C8.06743 15.6043 7.77243 15.5493 7.52643 15.4223C7.28476 15.2984 7.07836 15.1154 6.92643 14.8903C6.76974 14.6587 6.65844 14.3994 6.59843 14.1263C6.53553 13.8536 6.52198 13.5718 6.55843 13.2943C6.79443 12.4033 7.37643 11.9573 8.30343 11.9573ZM8.32843 17.4143C8.80143 17.4143 9.21543 17.5873 9.56943 17.9333C9.92443 18.2783 10.1104 18.6883 10.1294 19.1613C10.1104 20.1613 10.4564 21.0343 11.1654 21.7803C11.8754 22.5073 12.7294 22.8713 13.7304 22.8713H13.8124C14.7944 22.8713 15.6394 22.5073 16.3494 21.7803C17.0764 21.0523 17.4314 20.1803 17.4134 19.1603C17.4121 18.6831 17.3119 18.2114 17.1193 17.7747C16.9268 17.3381 16.6459 16.9461 16.2944 16.6233C15.5764 15.9403 14.7414 15.5943 13.7874 15.5863H13.6754C13.4459 15.5794 13.2201 15.5264 13.0115 15.4303C12.803 15.3343 12.6159 15.1972 12.4614 15.0273C12.2978 14.8595 12.169 14.6609 12.0824 14.4432C11.9957 14.2254 11.9529 13.9927 11.9564 13.7583C11.9564 13.2683 12.1344 12.8443 12.4884 12.4893C12.7894 12.1893 13.1464 12.0153 13.5584 11.9693L13.6784 11.9573L13.7244 11.9583C13.7721 11.9571 13.8198 11.9574 13.8674 11.9593C14.8074 11.9473 15.6254 11.5923 16.3244 10.8933C17.0704 10.1473 17.4344 9.26531 17.4154 8.24631C17.4154 7.84631 17.5524 7.48231 17.8254 7.15531L17.8524 7.12831L17.8794 7.10031C17.8794 7.08231 17.8894 7.07331 17.9064 7.07331L17.9344 7.04631V7.01931H17.9614V6.99031C17.9794 6.99031 17.9884 6.98131 17.9884 6.96331L18.0154 6.93631H18.0704C18.0704 6.91731 18.0804 6.90831 18.0974 6.90831L18.1254 6.88131V6.85431H18.1794C18.1794 6.83531 18.1894 6.82631 18.2064 6.82631L18.2344 6.79931L18.2614 6.77231H18.2884C18.2884 6.75431 18.2984 6.74531 18.3164 6.74531C18.3344 6.74531 18.3434 6.73531 18.3434 6.71731H18.3704L18.3974 6.69031H18.4524V6.66331H18.4794L18.5074 6.63531H18.5614V6.61031H18.6164L18.6434 6.58331H18.6984L18.7254 6.55631H18.8074L18.8344 6.52831H18.9164C18.9344 6.52831 18.9434 6.51931 18.9434 6.50131H19.5164L19.5304 6.51531C19.5394 6.52431 19.5524 6.52831 19.5704 6.52831H19.6254L19.6394 6.54231C19.6484 6.55131 19.6614 6.55631 19.6794 6.55631H19.7344L19.7614 6.58331H19.8164L19.8434 6.61031H19.8984C19.9164 6.62831 19.9344 6.63731 19.9524 6.63731L19.9804 6.66531H20.0344V6.69231H20.0624L20.0894 6.71931L20.1024 6.73331C20.1124 6.74331 20.1254 6.74731 20.1434 6.74731L20.1714 6.77431H20.1984C20.1984 6.79231 20.2164 6.80131 20.2524 6.80131L20.2804 6.82831V6.85631H20.3074C20.3074 6.87431 20.3254 6.88331 20.3624 6.88331C20.3624 6.90131 20.3714 6.91031 20.3894 6.91031V6.93831H20.4164L20.4444 6.96531C20.4624 6.98331 20.4804 6.99231 20.4984 6.99231L20.5254 7.02031C20.5254 7.03831 20.5354 7.04731 20.5534 7.04731V7.07431H20.5804C20.5804 7.09231 20.5854 7.10631 20.5944 7.11431L20.6074 7.12931C20.6074 7.14731 20.6174 7.15631 20.6354 7.15631L20.6624 7.18331C20.6624 7.20131 20.6664 7.21531 20.6754 7.22431L20.6894 7.23831L20.7164 7.26531L20.7444 7.29231V7.34731L20.7714 7.37431V7.40031H20.7984C20.7984 7.41931 20.8034 7.43231 20.8124 7.44131L20.8254 7.45531C20.8254 7.47331 20.8354 7.48231 20.8534 7.48231V7.51031C20.8534 7.52831 20.8574 7.54131 20.8664 7.55031L20.8804 7.56431L20.9074 7.59131C20.9074 7.62831 20.9174 7.64631 20.9354 7.64631V7.67331C20.9354 7.69231 20.9394 7.70531 20.9484 7.71431L20.9624 7.72831V7.78231L20.9894 7.81031V7.89231C21.0074 7.91031 21.0164 7.92831 21.0164 7.94631V8.02831C21.0354 8.04631 21.0444 8.06431 21.0444 8.08331V8.30031C21.0444 9.26431 21.3894 10.1193 22.0804 10.8653C22.7904 11.5743 23.6364 11.9383 24.6184 11.9563C25.1084 11.9383 25.5454 12.1063 25.9284 12.4613C26.3094 12.8153 26.5004 13.2473 26.5004 13.7573C26.5004 14.2663 26.3234 14.6973 25.9684 15.0533C25.8045 15.224 25.6073 15.3592 25.389 15.4507C25.1708 15.5422 24.9361 15.588 24.6994 15.5853C24.4652 15.5887 24.2327 15.5458 24.0151 15.4592C23.7975 15.3725 23.5992 15.2438 23.4314 15.0803C23.2593 14.9216 23.121 14.7299 23.0247 14.5164C22.9285 14.303 22.8764 14.0724 22.8714 13.8383C22.8904 12.8383 22.5264 11.9563 21.7814 11.1923C21.0534 10.4643 20.1714 10.1103 19.1344 10.1283C18.6629 10.1398 18.1983 10.2445 17.7674 10.4366C17.3366 10.6287 16.9481 10.9042 16.6244 11.2473C16.2893 11.5727 16.0244 11.9632 15.846 12.3949C15.6677 12.8266 15.5797 13.2903 15.5874 13.7573L15.5864 13.8413C15.6064 14.7713 15.9514 15.5983 16.6224 16.3213C17.3314 17.0313 18.1774 17.3953 19.1594 17.4133C19.8134 17.3773 20.3144 17.6133 20.6594 18.1233C21.0054 18.6133 21.1144 19.1333 20.9874 19.6783C20.7324 20.5883 20.1504 21.0423 19.2414 21.0423H19.1594C18.1404 21.0783 17.2944 21.4523 16.6224 22.1613C15.9304 22.8523 15.5854 23.6983 15.5854 24.6983C15.5854 25.1893 15.4084 25.6123 15.0534 25.9673C14.8895 26.138 14.6923 26.2732 14.474 26.3647C14.2558 26.4562 14.0211 26.502 13.7844 26.4993H13.7304C13.2394 26.4993 12.8204 26.3223 12.4754 25.9673C12.3082 25.8014 12.176 25.6036 12.0869 25.3856C11.9977 25.1676 11.9533 24.9338 11.9564 24.6983C11.9564 23.6983 11.6114 22.8523 10.9204 22.1613C10.5967 21.8182 10.2082 21.5427 9.77741 21.3506C9.34659 21.1585 8.88198 21.0538 8.41043 21.0423C8.16271 21.0561 7.91482 21.0184 7.68245 20.9314C7.45007 20.8445 7.23826 20.7103 7.06043 20.5373C6.87889 20.3689 6.73511 20.1639 6.63858 19.9359C6.54206 19.7078 6.49497 19.4619 6.50043 19.2143C6.50043 18.7233 6.67743 18.3003 7.03243 17.9453C7.20066 17.7728 7.40245 17.6366 7.62535 17.5451C7.84824 17.4536 8.08752 17.4088 8.32843 17.4133V17.4143Z" fill="white"/>
</svg>
