<svg width="32" height="32" viewBox="0 0 32 32" fill="none" xmlns="http://www.w3.org/2000/svg">
<path d="M16 32C24.8366 32 32 24.8366 32 16C32 7.16344 24.8366 0 16 0C7.16344 0 0 7.16344 0 16C0 24.8366 7.16344 32 16 32Z" fill="#374851"/>
<path fill-rule="evenodd" clip-rule="evenodd" d="M17.7 15.4V22.998C17.904 22.948 18.104 22.891 18.3 22.825V25.735C16.9883 26.0436 15.6279 26.0848 14.3 25.856V15.4H10.8V12.6H21.2V15.4H17.7ZM19.1 25.51V22.5C20.5742 21.7967 21.7655 20.6131 22.4783 19.1434C23.1911 17.6738 23.3829 16.0054 23.0224 14.4123C22.6619 12.8192 21.7704 11.3961 20.4943 10.3765C19.2182 9.35692 17.6334 8.80154 16 8.80154C14.3666 8.80154 12.7818 9.35692 11.5057 10.3765C10.2296 11.3961 9.3381 12.8192 8.97757 14.4123C8.61705 16.0054 8.80893 17.6738 9.5217 19.1434C10.2345 20.6131 11.4258 21.7967 12.9 22.5V25.51C8.895 24.205 6 20.44 6 16C6 10.477 10.477 6 16 6C21.523 6 26 10.477 26 16C26 20.44 23.105 24.205 19.1 25.51Z" fill="white"/>
</svg>
