<svg width="32" height="32" viewBox="0 0 32 32" fill="none" xmlns="http://www.w3.org/2000/svg">
<path d="M16 32C24.8366 32 32 24.8366 32 16C32 7.16344 24.8366 0 16 0C7.16344 0 0 7.16344 0 16C0 24.8366 7.16344 32 16 32Z" fill="#FAB431"/>
<path fill-rule="evenodd" clip-rule="evenodd" d="M24.5 19.267L20.315 16.756L20.795 14.767L22.582 15.822V12.19L16.842 8.768V16.668L15.477 17.423L23.015 21.893L16 26L7.5 21.022V11.067L16 6L24.5 11.067V19.267ZM9.418 12.19V18.668L14.936 15.468V8.9L9.418 12.189V12.19ZM13.515 18.534L10.377 20.453L16 23.745L19.175 21.885L13.515 18.533V18.534Z" fill="white"/>
</svg>
