<svg width="32" height="32" viewBox="0 0 32 32" fill="none" xmlns="http://www.w3.org/2000/svg">
<path d="M16 32C24.8366 32 32 24.8366 32 16C32 7.16344 24.8366 0 16 0C7.16344 0 0 7.16344 0 16C0 24.8366 7.16344 32 16 32Z" fill="#7543E3"/>
<path fill-rule="evenodd" clip-rule="evenodd" d="M11.8958 12.56C11.8598 12.865 11.8258 13.186 11.8038 13.507C11.2678 13.893 10.7668 14.287 10.3018 14.681C10.0618 14.885 9.82983 15.089 9.61183 15.301C7.89083 13.485 7.15683 11.852 7.62983 11.014C8.04583 10.27 9.44183 10.059 11.4018 10.46C11.4798 10.11 11.5568 9.775 11.6488 9.454C9.27283 8.958 7.46083 9.286 6.77683 10.504C6.59292 10.8307 6.49809 11.2001 6.50183 11.575V11.612C6.51583 13.339 8.15883 15.65 10.9018 17.83C11.1828 18.056 11.4868 18.282 11.7968 18.508C11.8717 19.4651 12.006 20.4166 12.1988 21.357C9.82283 21.992 8.09483 21.832 7.62283 20.993C7.20683 20.25 7.72883 18.887 9.03983 17.334L8.35583 16.59C6.73383 18.486 6.08583 20.286 6.76983 21.51C7.24983 22.371 8.28583 22.78 9.68183 22.78C11.0848 22.78 12.8468 22.364 14.7788 21.555C15.1757 21.3879 15.5682 21.2105 15.9558 21.023L15.9998 21C16.6138 21.291 17.2198 21.554 17.8198 21.78C18.0798 21.882 18.3408 21.97 18.5948 22.057C17.9388 24.506 16.9378 25.978 15.9998 25.978C15.1678 25.978 14.2868 24.827 13.6448 22.858C13.3292 22.9725 13.0093 23.0749 12.6858 23.165C13.4608 25.542 14.6378 27 15.9998 27C17.9808 27 19.5598 23.924 20.1038 19.44C20.1388 19.135 20.1668 18.814 20.1948 18.5C20.7518 18.1 21.2748 17.684 21.7608 17.261C21.972 17.079 22.1787 16.892 22.3808 16.7C24.1088 18.508 24.8408 20.148 24.3688 20.986C23.9818 21.679 22.7048 21.912 20.9568 21.613L20.6038 21.547C20.531 21.8799 20.449 22.2107 20.3578 22.539C20.5058 22.568 20.6538 22.597 20.7948 22.619C21.3045 22.7107 21.821 22.7595 22.3388 22.765C23.7558 22.765 24.7638 22.335 25.2288 21.504C25.8498 20.396 25.3988 18.784 23.9528 16.977C23.2058 16.037 22.2328 15.089 21.1048 14.185C20.8148 13.952 20.5128 13.725 20.2098 13.5C20.1571 12.8207 20.0723 12.1443 19.9558 11.473C19.9058 11.189 19.8568 10.912 19.8008 10.643C20.2018 10.533 20.5908 10.445 20.9638 10.38C22.7128 10.08 23.9888 10.314 24.3768 11.007C24.7848 11.736 24.2848 13.07 23.0158 14.593C23.2618 14.841 23.4878 15.089 23.6998 15.329C23.7884 15.2281 23.8728 15.1237 23.9528 15.016C25.3918 13.208 25.8498 11.597 25.2298 10.489C24.6098 9.381 23.0368 8.98 20.8018 9.366C19.7648 9.541 18.6298 9.884 17.4518 10.351C17.4028 10.372 17.3608 10.387 17.3118 10.409C16.9168 10.569 16.5218 10.744 16.1268 10.934C16.0918 10.948 16.0568 10.97 16.0208 10.984C15.4235 10.694 14.8143 10.4291 14.1948 10.19C13.9348 10.088 13.6728 10 13.4198 9.913C14.0738 7.471 15.0758 6 16.0128 6C16.8448 6 17.7328 7.159 18.3748 9.127C18.6998 9.017 19.0168 8.916 19.3348 8.821C18.5358 6.465 17.3598 5 15.9908 5C14.0168 5 12.4308 8.076 11.8948 12.56H11.8958ZM18.1988 12.188C18.1848 12.173 18.1638 12.166 18.1488 12.158C17.8188 11.962 17.4788 11.772 17.1558 11.59C17.1824 11.5747 17.2106 11.5623 17.2398 11.553C17.6418 11.378 18.0438 11.218 18.4318 11.08C18.5658 11.028 18.6998 10.985 18.8268 10.941C18.8828 11.211 18.9318 11.481 18.9818 11.765C19.0378 12.093 19.0798 12.428 19.1218 12.771C18.8168 12.5725 18.5091 12.3781 18.1988 12.188ZM13.0028 11.801C13.0518 11.502 13.1008 11.218 13.1648 10.941C13.7333 11.1329 14.2932 11.3494 14.8428 11.59C14.5108 11.772 14.1728 11.962 13.8418 12.158C13.8258 12.1653 13.8112 12.1755 13.7988 12.188C13.4818 12.378 13.1718 12.574 12.8688 12.771C12.9108 12.435 12.9528 12.115 13.0028 11.801ZM14.3348 18.974C14.0985 18.8367 13.8657 18.6933 13.6368 18.544C13.3336 18.3521 13.0352 18.1527 12.7418 17.946C12.6985 17.3006 12.6772 16.6539 12.6778 16.007C12.6778 15.657 12.6848 15.315 12.6988 14.979C12.7128 14.666 12.7278 14.367 12.7488 14.069C13.2488 13.719 13.7788 13.376 14.3348 13.04C14.5468 12.91 14.7648 12.785 14.9768 12.669C15.3148 12.479 15.6538 12.304 15.9918 12.129C16.5554 12.4118 17.1081 12.7157 17.6488 13.04C17.8888 13.186 18.1208 13.325 18.3468 13.47C18.6568 13.667 18.9528 13.864 19.2428 14.068C19.3078 15.0556 19.3219 16.0459 19.2848 17.035C19.2708 17.341 19.2568 17.647 19.2348 17.946C18.7348 18.296 18.2058 18.639 17.6488 18.974C17.5008 19.062 17.3598 19.149 17.2118 19.229C16.8378 19.448 16.4648 19.645 16.0978 19.834C16.0628 19.849 16.0278 19.871 15.9918 19.885C15.4289 19.6013 14.8762 19.2978 14.3348 18.975V18.974ZM10.8518 16.474C10.6688 16.321 10.4998 16.16 10.3298 16.007C10.5628 15.796 10.8028 15.577 11.0568 15.366C11.2678 15.191 11.4868 15.009 11.7188 14.834C11.7048 15.125 11.6988 15.424 11.6988 15.723V16.007C11.6988 16.408 11.7048 16.795 11.7188 17.181C11.4212 16.9561 11.132 16.7203 10.8518 16.474ZM20.2928 16.299V16.007C20.2928 15.607 20.2858 15.22 20.2718 14.834C20.7531 15.2004 21.2144 15.5923 21.6538 16.008C21.4708 16.175 21.2798 16.35 21.0828 16.518C21.0548 16.539 21.0258 16.568 20.9978 16.59C20.7658 16.787 20.5178 16.991 20.2648 17.188C20.2788 16.897 20.2928 16.598 20.2928 16.298V16.299ZM13.0098 20.249C12.9549 19.9152 12.9079 19.5801 12.8688 19.244C13.1718 19.441 13.4748 19.63 13.7918 19.82C13.8058 19.834 13.8278 19.842 13.8418 19.849C14.1728 20.046 14.5038 20.235 14.8418 20.417C14.8418 20.417 14.8358 20.417 14.8358 20.425C14.4929 20.5725 14.1471 20.7136 13.7988 20.848C13.7498 20.869 13.7008 20.884 13.6508 20.906C13.4888 20.964 13.3268 21.023 13.1648 21.074C13.1074 20.8004 13.0557 20.5257 13.0098 20.25V20.249ZM18.0368 20.789C17.7361 20.6727 17.4374 20.5514 17.1408 20.425L17.2678 20.359C17.5578 20.199 17.8458 20.031 18.1428 19.863C18.4689 19.6618 18.7933 19.4578 19.1158 19.251C19.0728 19.579 19.0308 19.907 18.9818 20.213C18.9318 20.513 18.8758 20.797 18.8188 21.081C18.5658 20.986 18.3048 20.891 18.0368 20.789ZM14.7228 16.007C14.7228 15.286 15.2938 14.695 15.9928 14.695C16.6898 14.695 17.2608 15.285 17.2608 16.007C17.2608 16.729 16.6908 17.319 15.9918 17.319C15.2938 17.319 14.7228 16.729 14.7228 16.007Z" fill="white"/>
</svg>
