<svg width="32" height="32" viewBox="0 0 32 32" fill="none" xmlns="http://www.w3.org/2000/svg">
<path d="M16 32C24.8366 32 32 24.8366 32 16C32 7.16344 24.8366 0 16 0C7.16344 0 0 7.16344 0 16C0 24.8366 7.16344 32 16 32Z" fill="#4700C2"/>
<path fill-rule="evenodd" clip-rule="evenodd" d="M13.6817 14.5097C13.3717 14.7117 13.0167 14.9257 12.6487 15.1497V17.1707C12.9827 17.0017 13.3267 16.8307 13.6817 16.6617V14.5087V14.5097ZM8.51473 18.2467C8.6086 18.4287 8.77035 18.5664 8.96499 18.63C9.15962 18.6937 9.37148 18.6781 9.55473 18.5867L10.5207 18.0997C10.5267 17.2877 10.5307 16.6707 10.5307 16.4257V16.3607C9.71073 16.7687 9.08873 17.0817 8.84973 17.2007C8.66667 17.2951 8.52855 17.4583 8.46574 17.6544C8.40292 17.8505 8.42054 18.0636 8.51473 18.2467ZM13.9737 18.0417C13.9733 18.1431 13.993 18.2435 14.0315 18.3373C14.07 18.4311 14.1267 18.5163 14.1982 18.5881C14.2697 18.66 14.3547 18.7169 14.4484 18.7558C14.542 18.7947 14.6424 18.8147 14.7437 18.8147H14.7527C14.9576 18.8145 15.1539 18.7329 15.2987 18.588C15.4434 18.443 15.5247 18.2466 15.5247 18.0417V11.6387C15.5247 11.5287 15.5011 11.4199 15.4557 11.3197C15.4103 11.2195 15.344 11.1301 15.2613 11.0575C15.1785 10.9849 15.0813 10.9308 14.976 10.8988C14.8707 10.8667 14.7599 10.8575 14.6507 10.8717C14.4644 10.8947 14.293 10.9851 14.1688 11.1259C14.0446 11.2666 13.9763 11.448 13.9767 11.6357V14.8337C13.9737 15.9077 13.9737 16.9737 13.9737 18.0417Z" fill="white"/>
<path fill-rule="evenodd" clip-rule="evenodd" d="M24.985 13.0828C24.936 12.7088 24.688 12.5008 24.311 12.4028C24.011 12.3258 23.701 12.3108 23.385 12.3078C22.649 12.3048 21.919 12.4238 21.195 12.5648C20.149 12.7678 19.115 13.0278 18.098 13.3448C17.791 13.4388 17.488 13.5368 17.181 13.6348L17.178 13.6228L17.233 13.5768C17.825 13.0708 18.413 12.5648 19.009 12.0648C20.315 10.9608 21.493 9.74979 22.587 8.47179C22.885 8.12479 23.142 7.75379 23.274 7.33079C23.474 6.69579 23.25 6.30079 22.606 6.12279C22.3331 6.05674 22.0528 6.02582 21.772 6.03079C21.158 6.02779 20.552 6.12879 19.953 6.25079C19.328 6.38079 18.423 6.61079 17.81 6.79679C16.829 7.09679 15.617 7.61279 14.535 8.05079C13.983 8.26579 13.395 8.54179 12.845 8.75679L10.766 9.60279C8.00602 10.7898 7.20302 9.93679 7.20302 9.93679C7.20302 9.94079 7.20402 9.94379 7.20602 9.94679C7.20078 9.93911 7.19674 9.93068 7.19402 9.92179C6.65702 10.9798 7.10402 12.9018 10.208 11.5288C10.696 11.3388 11.192 11.1328 11.677 10.9458C12.612 10.5808 13.538 10.1298 14.477 9.76879C15.1229 9.5031 15.774 9.25038 16.43 9.01079L17.022 8.78079C17.629 8.58079 18.236 8.38279 18.855 8.22879C19.53 8.05479 20.119 7.94979 20.475 7.99579C20.511 7.99879 20.548 8.00179 20.582 8.00879C20.744 8.02979 20.83 8.11579 20.815 8.22879C20.809 8.40379 20.527 8.98379 17.96 11.1208C17.773 11.2808 17.586 11.4428 17.399 11.6018C17.111 11.8508 16.832 12.0958 16.549 12.3418L16.313 12.5498L16.31 12.5528L16.2 12.6508C16.1914 12.6599 16.182 12.6683 16.172 12.6758L16.145 12.6998L15.93 12.8628C15.9154 12.8769 15.9 12.8902 15.884 12.9028V15.6158C16.792 15.3058 21.21 13.8318 21.686 14.2638C21.723 14.3138 22.284 14.6628 17.147 18.1768C16.945 18.3298 16.749 18.4828 16.547 18.6368L15.804 19.2038C14.875 19.8758 13.952 20.5498 13.024 21.2218L12.621 21.5128C12.615 22.2458 12.612 22.9478 12.609 23.5928L22.409 16.3608C23.0067 15.8572 23.5731 15.3175 24.105 14.7448C24.405 14.4238 24.675 14.0828 24.853 13.6938C24.945 13.4908 25.013 13.2948 24.985 13.0838V13.0828ZM9.01802 24.2048C8.89171 24.3623 8.82729 24.5605 8.83686 24.7621C8.84644 24.9638 8.92936 25.155 9.07002 25.2998C9.19839 25.4359 9.36939 25.524 9.5547 25.5497C9.74001 25.5753 9.92852 25.5369 10.089 25.4408L10.481 25.1528C10.484 24.5638 10.491 23.8468 10.496 23.0728L9.17202 24.0548C9.11482 24.0984 9.06311 24.1487 9.01802 24.2048Z" fill="white"/>
<path fill-rule="evenodd" clip-rule="evenodd" d="M12.3637 12.9449C12.3151 12.7633 12.202 12.6055 12.0456 12.5012C11.8891 12.3969 11.7001 12.353 11.5137 12.3779C11.3274 12.4009 11.156 12.4913 11.0318 12.632C10.9076 12.7728 10.8393 12.9542 10.8397 13.1419V16.3399C10.8397 16.9869 10.8117 20.1979 10.7877 22.8619C10.7817 23.6259 10.7747 24.3429 10.7717 24.9419C10.7657 25.7019 10.7627 26.2719 10.7627 26.5049C10.7623 26.6063 10.7819 26.7067 10.8205 26.8005C10.859 26.8942 10.9156 26.9795 10.9872 27.0513C11.0587 27.1231 11.1437 27.1801 11.2373 27.219C11.331 27.2579 11.4313 27.2779 11.5327 27.2779H11.5417C11.7467 27.2779 11.9433 27.1965 12.0883 27.0515C12.2333 26.9065 12.3147 26.7099 12.3147 26.5049C12.3147 25.9689 12.3207 24.9899 12.3267 23.7909C12.3297 23.1509 12.3367 22.4449 12.3387 21.7119C12.3607 18.3789 12.3907 14.4519 12.3887 13.1419C12.388 13.0755 12.3796 13.0094 12.3637 12.9449Z" fill="white"/>
</svg>
