<svg width="32" height="32" viewBox="0 0 32 32" fill="none" xmlns="http://www.w3.org/2000/svg">
<path d="M16 32C24.8366 32 32 24.8366 32 16C32 7.16344 24.8366 0 16 0C7.16344 0 0 7.16344 0 16C0 24.8366 7.16344 32 16 32Z" fill="#0B1529"/>
<path fill-rule="evenodd" clip-rule="evenodd" d="M8.627 20.124L13.899 23.216V24.945L7 20.885V10.295L16 5L25 10.295V20.885L18.101 24.945V23.215L23.372 20.124L22.012 19.338L22.19 19.029L23.533 19.805V11.953L16.713 15.995V27.555L16 28L15.286 27.555V15.995L8.467 11.953V19.804L9.809 19.029L9.987 19.339L8.627 20.124ZM15.802 6.814L9.18 10.699L16 14.742L22.82 10.699L16.159 6.791V8.395H15.802V6.814ZM15.802 9.406H16.159V11.063H15.802V9.406ZM15.802 12.074H16.159V13.731L15.98 13.812L15.802 13.732V12.074ZM21.362 18.524L21.184 18.834L19.748 18.004L19.927 17.695L21.362 18.525V18.524ZM19.097 17.19L18.918 17.5L17.483 16.67L17.503 16.476L17.661 16.362L19.097 17.19ZM10.637 18.524L12.072 17.695L12.251 18.005L10.816 18.833L10.637 18.524ZM12.903 17.19L14.338 16.362L14.498 16.476L14.516 16.671L13.081 17.499L12.903 17.19Z" fill="white"/>
</svg>
