<svg width="32" height="32" viewBox="0 0 32 32" fill="none" xmlns="http://www.w3.org/2000/svg">
<path d="M16 32C24.8366 32 32 24.8366 32 16C32 7.16344 24.8366 0 16 0C7.16344 0 0 7.16344 0 16C0 24.8366 7.16344 32 16 32Z" fill="#101341"/>
<path fill-rule="evenodd" clip-rule="evenodd" d="M11.0217 7H21.2497L26.4997 16L21.2497 25H10.9307L16.0907 16L11.0207 7H11.0217ZM16.4517 10.166L19.8027 16L16.4527 21.834H19.4407L22.7887 16L19.4387 10.166H16.4527H16.4517Z" fill="white"/>
<path opacity="0.5" fill-rule="evenodd" clip-rule="evenodd" d="M12.113 11.0261L9.211 16.0001L12.087 20.9301L10.248 24.1391L5.5 16.0001L10.289 7.78906L12.113 11.0261Z" fill="white"/>
</svg>
