<svg width="32" height="32" viewBox="0 0 32 32" fill="none" xmlns="http://www.w3.org/2000/svg">
<path d="M16 32C24.8366 32 32 24.8366 32 16C32 7.16344 24.8366 0 16 0C7.16344 0 0 7.16344 0 16C0 24.8366 7.16344 32 16 32Z" fill="#36B0F3"/>
<path fill-rule="evenodd" clip-rule="evenodd" d="M14.0903 4.2611C14.8903 4.1011 15.7053 4.0321 16.5203 4.0551C17.0283 4.0551 17.5363 4.1011 18.0373 4.1921C19.0123 4.3261 19.9523 4.6361 20.8693 4.9841C21.5363 5.2821 22.2353 5.5621 22.7773 6.0681C22.9283 6.1781 22.8473 6.3981 22.7133 6.4851C22.4033 6.6841 22.0303 6.7411 21.6763 6.8191C20.0803 7.0931 18.4563 7.2161 16.8883 7.6411C16.1853 7.7991 15.5093 8.0571 14.8403 8.3241C13.5973 8.8801 12.4543 9.6971 11.6273 10.7891C11.4693 11.0201 11.3172 11.2552 11.1713 11.4941C11.0403 11.7491 10.9083 12.0041 10.8013 12.2711C10.7213 12.4621 10.6473 12.6551 10.5773 12.8491C10.4363 13.2621 10.3673 13.6931 10.2623 14.1171C10.2293 14.3951 10.2103 14.6751 10.1523 14.9501C10.1153 15.5801 10.1333 16.2101 10.1383 16.8401C10.1383 17.0501 10.1953 17.2561 10.1983 17.4671C10.2013 17.6611 10.2283 17.8541 10.2803 18.0411C10.3803 18.5661 10.5023 19.0981 10.7253 19.5891C11.0143 20.2861 11.4643 20.9391 12.1043 21.3541C12.6353 21.7481 13.2923 21.9161 13.9363 22.0161C14.7963 22.1281 15.6693 22.0261 16.5163 21.8721C16.9593 21.7921 17.3993 21.6921 17.8363 21.5751C18.1133 21.4971 18.3983 21.4451 18.6723 21.3521C18.7774 21.334 18.8837 21.3239 18.9903 21.3221C18.6473 21.6281 18.3023 21.9321 17.9143 22.1791C16.5923 23.0311 15.0553 23.4751 13.5223 23.7611C12.8293 23.9031 12.1243 23.9871 11.4263 24.1071C10.6313 24.2221 9.80729 24.3171 9.09029 24.7071C8.87629 24.8571 8.71029 25.0611 8.56129 25.2731C8.51629 25.3651 8.43129 25.2731 8.38129 25.2401C8.21829 25.0531 8.00929 24.9161 7.83229 24.7431C7.64347 24.5613 7.45811 24.3759 7.27629 24.1871C6.98529 23.8481 6.68629 23.5141 6.42929 23.1491C5.91729 22.4551 5.46429 21.7121 5.13229 20.9161L5.07429 20.8901C5.03229 20.6611 4.91629 20.4591 4.83929 20.2421C4.65772 19.7666 4.51067 19.2787 4.39929 18.7821C4.35531 18.6304 4.32091 18.4761 4.29629 18.3201C4.24256 18.1446 4.21033 17.9633 4.20029 17.7801C4.10229 17.3501 4.12029 16.9061 4.05829 16.4721C4.05829 16.1101 4.03429 15.7451 4.07829 15.3841C4.12629 15.0841 4.10629 14.7771 4.16829 14.4781C4.22929 14.2351 4.21729 13.9811 4.29429 13.7421C4.39036 13.2073 4.53085 12.6815 4.71429 12.1701C4.78629 11.9821 4.85129 11.7921 4.91829 11.6031C4.95829 11.5161 4.99129 11.4271 5.01829 11.3361L5.07129 11.2731C5.13538 11.0853 5.21812 10.9044 5.31829 10.7331C5.41787 10.5246 5.5263 10.3204 5.64329 10.1211C5.67729 10.0501 5.71529 9.9811 5.75529 9.9111C6.38529 8.9241 7.12129 7.9891 8.00729 7.2171C9.10639 6.23874 10.3685 5.46063 11.7363 4.9181C12.4968 4.61916 13.2859 4.399 14.0913 4.2611H14.0903Z" fill="white"/>
<path fill-rule="evenodd" clip-rule="evenodd" d="M23.2409 7.3904C23.4609 7.2624 23.6119 7.0554 23.7639 6.8584C24.9642 7.88465 25.9502 9.13769 26.6654 10.5457C27.3806 11.9537 27.8109 13.489 27.9317 15.0636C28.0524 16.6382 27.8613 18.2212 27.3692 19.7218C26.8771 21.2224 26.0937 22.6111 25.0639 23.8084C23.2269 25.9664 20.5889 27.4324 17.7779 27.8214C16.4849 28.0114 15.1679 27.9614 13.8759 27.7844C12.8859 27.6444 11.9179 27.3744 10.9989 26.9794C10.4989 26.7594 10.0019 26.5014 9.61089 26.1114C9.50989 26.0234 9.44589 25.8774 9.51289 25.7504C9.61289 25.5954 9.79289 25.5184 9.96289 25.4634C10.4479 25.3234 10.9469 25.2414 11.4459 25.1644C12.3479 25.0074 13.2589 24.9064 14.1539 24.7094C15.6409 24.3884 17.1279 23.9334 18.4139 23.0994C19.2879 22.5414 20.0579 21.8154 20.6249 20.9454C21.4389 19.7174 21.8149 18.2464 21.9049 16.7884C21.9499 15.7034 21.9249 14.6084 21.6979 13.5424C21.4909 12.6224 21.1279 11.6954 20.4409 11.0254C19.9159 10.4864 19.2009 10.1514 18.4629 10.0234C17.2379 9.7944 15.9869 10.0154 14.7869 10.2854C14.2249 10.4184 13.6709 10.5854 13.1029 10.6954C13.9109 9.9344 14.8999 9.3904 15.9389 9.0184C16.5359 8.7974 17.1559 8.6504 17.7729 8.5054C19.1249 8.2014 20.5089 8.0854 21.8729 7.8514C22.3489 7.7514 22.8329 7.6554 23.2409 7.3904Z" fill="white"/>
</svg>
