<svg width="32" height="32" viewBox="0 0 32 32" fill="none" xmlns="http://www.w3.org/2000/svg">
<path d="M16 32C24.8366 32 32 24.8366 32 16C32 7.16344 24.8366 0 16 0C7.16344 0 0 7.16344 0 16C0 24.8366 7.16344 32 16 32Z" fill="#2AB0FD"/>
<path fill-rule="evenodd" clip-rule="evenodd" d="M25.5148 14.8038C25.6798 14.8018 25.7848 14.8238 25.8508 14.8838C25.9208 14.9478 25.9488 15.0518 25.9638 15.2148C26.4298 20.5938 22.3618 25.4558 16.9658 25.9548C11.4018 26.4698 6.57182 22.4548 6.04382 16.8748C5.52982 11.4558 9.59882 6.53984 15.0298 6.04584C18.1058 5.76584 20.7618 6.73184 22.9978 8.86184C23.0208 8.88384 23.0158 8.97584 22.9898 9.00184C22.4877 9.51339 21.981 10.0204 21.4698 10.5228C21.4408 10.5508 21.3368 10.5468 21.3048 10.5178C18.9978 8.40384 16.3248 7.77784 13.4018 8.84284C10.4458 9.91984 8.75482 12.1498 8.41982 15.2898C7.96982 19.5388 11.1768 23.2838 15.4548 23.6068C19.3328 23.8988 22.8468 21.1538 23.4898 17.3218C23.4958 17.2838 23.4098 17.1888 23.3658 17.1888C20.9708 17.1818 18.5758 17.1838 16.1818 17.1748C16.1198 17.1748 16.0048 17.0598 16.0028 16.9968C15.9903 16.3276 15.9903 15.6581 16.0028 14.9888C16.0038 14.9288 16.1108 14.8208 16.1698 14.8198C17.7658 14.8108 23.9958 14.8248 25.5138 14.8028L25.5148 14.8038Z" fill="white"/>
</svg>
