<svg width="32" height="32" viewBox="0 0 32 32" fill="none" xmlns="http://www.w3.org/2000/svg">
<path d="M16 32C24.8366 32 32 24.8366 32 16C32 7.16344 24.8366 0 16 0C7.16344 0 0 7.16344 0 16C0 24.8366 7.16344 32 16 32Z" fill="#64D1FF"/>
<path fill-rule="evenodd" clip-rule="evenodd" d="M10.5 15.238H12.264V7H16.811C17.655 7 18.425 7.099 19.121 7.297C19.817 7.495 20.413 7.797 20.91 8.201C21.407 8.605 21.796 9.118 22.078 9.737C22.359 10.357 22.5 11.097 22.5 11.958C22.5 12.819 22.35 13.568 22.053 14.205C21.772 14.8194 21.3556 15.3623 20.835 15.793C20.3003 16.2261 19.6836 16.5469 19.022 16.736C18.2873 16.9481 17.5257 17.0525 16.761 17.046H14.251V19.654H18.251V21.359H14.251V25H12.264V21.359H10.5V19.654H12.264V17.046H10.5V15.238ZM16.81 15.238C17.953 15.238 18.852 14.967 19.506 14.425C20.16 13.882 20.488 13.06 20.488 11.958C20.488 10.857 20.16 10.056 19.506 9.557C18.852 9.057 17.953 8.807 16.811 8.807H14.251V15.238H16.81Z" fill="white"/>
</svg>
