<svg width="32" height="32" viewBox="0 0 32 32" fill="none" xmlns="http://www.w3.org/2000/svg">
<path d="M16 32C24.8366 32 32 24.8366 32 16C32 7.16344 24.8366 0 16 0C7.16344 0 0 7.16344 0 16C0 24.8366 7.16344 32 16 32Z" fill="#383939"/>
<path fill-rule="evenodd" clip-rule="evenodd" d="M19.473 11.479L22.14 10.868L23.173 9.167L22.153 7.494L20.847 6.592L18.164 6L16.509 6.933L13.861 6.461L10.225 8.98L9.942 11.922L8.399 12.566L8.577 15.295L7.5 16.153L8.576 19.225L8.738 19.547L9.876 22.71L12.215 23.538L13.949 25.302L15.943 26L16.845 25.74L18.276 25.575L20.374 24.974L23.5 23.209L22.682 19.977L21.108 19.357L20.324 20.254L18.119 20.796L14.912 20.288L13.877 19.091L14.237 17.92L12.721 15.521L13.996 13.965L14.132 11.32L15.958 10.272L17.21 9.772L18.91 10.079L19.473 11.479Z" fill="white"/>
</svg>
