<svg width="32" height="32" viewBox="0 0 32 32" fill="none" xmlns="http://www.w3.org/2000/svg">
<path d="M16 32C24.8366 32 32 24.8366 32 16C32 7.16344 24.8366 0 16 0C7.16344 0 0 7.16344 0 16C0 24.8366 7.16344 32 16 32Z" fill="#1D1D1D"/>
<path fill-rule="evenodd" clip-rule="evenodd" d="M9.962 16.954C9.96212 17.4611 10.0624 17.9631 10.2572 18.4313C10.4519 18.8994 10.7372 19.3245 11.0968 19.6821C11.4563 20.0397 11.8829 20.3227 12.3521 20.5149C12.8214 20.7071 13.3239 20.8046 13.831 20.802C15.953 20.789 17.677 19.086 17.678 17.002C17.6827 16.4935 17.5861 15.9893 17.394 15.5185C17.2019 15.0477 16.9181 14.6198 16.5591 14.2597C16.2 13.8997 15.773 13.6146 15.3027 13.4212C14.8325 13.2278 14.3285 13.1298 13.82 13.133C11.688 13.136 9.962 14.845 9.962 16.954ZM9.966 21.094V22.367H8V8C8.559 8.01 9.031 8.21 9.41 8.605C9.773 8.985 9.954 9.44 9.952 9.968C9.947 10.915 9.95 11.862 9.95 12.854C11.323 11.707 12.852 11.142 14.633 11.414C16.398 11.684 17.753 12.572 18.677 14.091C20.072 16.386 19.62 19.317 17.599 21.141C15.628 22.921 12.353 23.197 9.966 21.094ZM16.325 22.341C16.403 22.294 16.444 22.266 16.487 22.244C17.1063 21.9397 17.6653 21.5256 18.137 21.022C18.1847 20.9678 18.2431 20.9239 18.3084 20.8931C18.3738 20.8623 18.4448 20.8452 18.517 20.843C20.187 20.747 21.692 19.403 21.975 17.759C22.347 15.599 21.035 13.693 18.865 13.279C18.5669 13.2339 18.2943 13.0852 18.095 12.859C17.695 12.417 17.209 12.072 16.692 11.775C16.648 11.75 16.606 11.723 16.534 11.679C17.518 11.409 18.477 11.345 19.449 11.566C20.416 11.785 21.249 12.259 22.029 12.906V11.631H24V26C23.7381 25.9984 23.4792 25.9443 23.2385 25.8409C22.9979 25.7375 22.7804 25.5869 22.599 25.398C22.4196 25.2173 22.2782 25.0024 22.1834 24.766C22.0886 24.5296 22.0422 24.2766 22.047 24.022V21.152C20.349 22.575 18.471 23.001 16.325 22.341Z" fill="white"/>
</svg>
