<svg width="32" height="32" viewBox="0 0 32 32" fill="none" xmlns="http://www.w3.org/2000/svg">
<path d="M16 32C24.8366 32 32 24.8366 32 16C32 7.16344 24.8366 0 16 0C7.16344 0 0 7.16344 0 16C0 24.8366 7.16344 32 16 32Z" fill="#F28F01"/>
<path fill-rule="evenodd" clip-rule="evenodd" d="M18.151 13.719L16.21 9.903C16.614 9.023 16.816 8.523 16.816 8.408C16.816 7.995 16.544 7.693 16.001 7.5H21.949C21.216 7.83 20.564 8.655 19.994 9.976L18.151 13.719ZM15.235 19.647L14.33 21.487H19.667C22.084 21.487 23.7 21.034 24.515 20.127L21.663 24.5H7.078C8.653 24.197 10.242 22.3 11.844 18.806C12.384 17.732 12.879 16.74 13.331 15.832L15.235 19.647ZM5 20.25C6.181 19.549 10.5 12.078 10.5 9.976C10.5 9.481 10.201 9.013 9.604 8.573H14.248L18.281 16.495L22.193 8.573H27C24.963 9.109 20.93 18.719 20.93 19.837C20.93 20.057 20.97 20.195 21.052 20.25H16.815L13.189 12.988L9.604 20.25H5Z" fill="white"/>
</svg>
