<svg width="32" height="32" viewBox="0 0 32 32" fill="none" xmlns="http://www.w3.org/2000/svg">
<path d="M16 32C24.8366 32 32 24.8366 32 16C32 7.16344 24.8366 0 16 0C7.16344 0 0 7.16344 0 16C0 24.8366 7.16344 32 16 32Z" fill="#FFE600"/>
<path fill-rule="evenodd" clip-rule="evenodd" d="M3.99316 5.42502C4.78436 4.52734 5.67318 3.72069 6.64316 3.02002L11.0952 18.938L13.0682 10.5H16.8082L18.7802 18.938L21.1172 10.5H24.8662L24.9012 10.65L28.9752 25.364C28.2368 26.3857 27.3809 27.3171 26.4252 28.139L22.9882 15.729L21.0282 22.807L20.9932 22.957H16.8072L14.9382 16.025L13.0682 22.957H8.88216L8.84716 22.807L3.99316 5.42502Z" fill="white"/>
</svg>
