<svg width="32" height="32" viewBox="0 0 32 32" fill="none" xmlns="http://www.w3.org/2000/svg">
<path d="M16 32C24.8366 32 32 24.8366 32 16C32 7.16344 24.8366 0 16 0C7.16344 0 0 7.16344 0 16C0 24.8366 7.16344 32 16 32Z" fill="#05BCA9"/>
<path fill-rule="evenodd" clip-rule="evenodd" d="M27.9947 15.9541C28.0047 15.9998 27.9989 16.0476 27.9782 16.0896C27.9575 16.1316 27.9231 16.1653 27.8807 16.1851L27.8047 16.2211L25.4987 18.5331L26.3927 21.8781C26.4067 21.9307 26.3994 21.9868 26.3722 22.034C26.345 22.0813 26.3002 22.1158 26.2477 22.1301L23.0387 22.9911L22.1537 26.3011C22.1398 26.3536 22.1057 26.3984 22.0588 26.4258C22.012 26.4531 21.9562 26.4608 21.9037 26.4471L18.5137 25.5371L16.1157 27.9401C16.0967 27.9593 16.0741 27.9745 16.0492 27.9849C16.0243 27.9953 15.9976 28.0006 15.9707 28.0006C15.9437 28.0006 15.917 27.9953 15.8921 27.9849C15.8672 27.9745 15.8446 27.9593 15.8257 27.9401L13.4567 25.5651L10.1747 26.4471C10.1487 26.454 10.1217 26.4558 10.095 26.4523C10.0684 26.4487 10.0428 26.44 10.0195 26.4265C9.99632 26.413 9.97598 26.3951 9.9597 26.3738C9.94341 26.3524 9.9315 26.3281 9.92465 26.3021L9.03865 22.9921L5.83065 22.1301C5.80454 22.1231 5.78007 22.1111 5.75863 22.0946C5.7372 22.0782 5.71923 22.0577 5.70575 22.0342C5.69227 22.0108 5.68356 21.985 5.68011 21.9582C5.67666 21.9314 5.67855 21.9042 5.68565 21.8781L6.55065 18.6411L4.06065 16.1441C4.02242 16.1055 4.00098 16.0534 4.00098 15.9991C4.00098 15.9448 4.02242 15.8927 4.06065 15.8541L6.48165 13.4251L5.61665 10.1891C5.60261 10.1363 5.61011 10.0801 5.63748 10.0329C5.66486 9.98562 5.70988 9.95117 5.76265 9.9371L9.11765 9.0351L9.99165 5.7651C10.0057 5.71233 10.0402 5.6673 10.0874 5.63993C10.1347 5.61255 10.1909 5.60506 10.2437 5.6191L13.4177 6.4721L15.8257 4.0581C15.8647 4.02081 15.9166 4 15.9707 4C16.0247 4 16.0766 4.02081 16.1157 4.0581L18.5527 6.5001L21.8347 5.6181C21.8607 5.61116 21.8879 5.60943 21.9146 5.61302C21.9414 5.6166 21.9671 5.62543 21.9905 5.63899C22.0138 5.65256 22.0342 5.67059 22.0505 5.69206C22.0669 5.71352 22.0788 5.73801 22.0857 5.7641L22.1087 5.8501C22.1137 5.86302 22.1174 5.87642 22.1197 5.8901L22.9597 9.0341L26.3157 9.9361C26.4257 9.9661 26.4897 10.0781 26.4607 10.1881L25.5667 13.5321L27.8237 15.7951C27.8648 15.801 27.9032 15.8192 27.9338 15.8475C27.9643 15.8757 27.9855 15.9125 27.9947 15.9531V15.9541ZM25.3757 18.0741L26.7217 16.7261L25.2047 17.4331L25.3757 18.0751V18.0741ZM25.8667 21.5011L25.1637 18.8691L23.7667 20.2691V20.2701L25.8667 21.5011ZM23.6567 20.6811L23.1617 22.5331L25.6667 21.8601L23.6567 20.6821V20.6811ZM21.8587 25.8171L22.5817 23.1141L20.6077 23.6441L21.8587 25.8171ZM19.3547 24.6921L18.8477 25.2011L20.8367 25.7351L19.3547 24.6921ZM16.1757 27.2981L18.0557 25.4131L16.1757 24.9081V27.2981ZM15.7657 24.9451L13.9147 25.4421L15.7647 27.2981V24.9451H15.7657ZM10.5767 25.9131L13.1227 25.2301L11.7587 23.8621L10.5767 25.9131ZM9.49665 23.1141L10.0617 25.2281L10.2317 23.3121L9.49665 23.1141ZM6.40665 21.8591L8.91665 22.5331L8.41665 20.6661L6.40665 21.8591ZM8.21365 20.3091L6.88565 18.9771L6.21165 21.4971L8.21365 20.3091ZM4.73365 16.2391L6.67365 18.1831L7.19265 16.2391H4.73365ZM6.81365 14.6641L6.60465 13.8841L4.97065 15.5221L6.81365 14.6641ZM6.14165 10.5621L6.81665 13.0891L8.16665 11.7361L6.14165 10.5621ZM8.47965 11.4221L8.99565 9.4941L6.34565 10.2061L8.46665 11.4351L8.47965 11.4221ZM10.2517 6.3821L9.57565 8.9121L11.4227 8.4161L10.2517 6.3831V6.3821ZM12.5937 7.2981L13.0827 6.8081L11.1667 6.2931L12.5937 7.2981ZM15.7657 4.7001L13.8757 6.5951L15.7657 7.1031V4.7001ZM16.1757 7.1401L18.0957 6.6241L16.1757 4.7001V7.1401ZM21.5717 6.1161L18.8877 6.8361L20.3257 8.2791L21.5717 6.1161ZM21.8747 8.7441L22.5027 8.9121L22.0197 7.1051L21.8747 8.7441ZM25.7247 10.2041L23.0827 9.4941L23.5927 11.4061L25.7237 10.2031L25.7247 10.2041ZM23.7997 11.7611L25.2317 13.1961L25.9387 10.5531L23.7997 11.7611ZM27.2417 15.7921L25.4447 13.9911L24.9627 15.7921H27.2417ZM24.8757 16.2031L25.0957 17.0281L26.8667 16.2031H24.8767H24.8757ZM24.5657 17.2751L24.7187 17.2051L24.6517 16.9551L24.5667 17.2751H24.5657ZM24.4277 17.7931L23.9777 19.4741L25.0407 18.4091L24.8267 17.6071L24.4277 17.7931ZM23.1867 20.8501L20.9037 23.1381L22.7037 22.6551L23.1867 20.8501ZM20.3197 23.1431L23.3987 20.0561L23.9427 18.0191L18.7597 20.4341L20.3197 23.1431ZM20.2317 23.8131L19.6497 24.3961L21.1937 25.4831L20.2317 23.8131ZM19.1407 24.0381L19.3087 24.1561L19.5317 23.9321L19.1407 24.0381ZM18.6237 24.1761L16.8317 24.6581L18.3907 25.0771L19.0147 24.4511L18.6247 24.1761H18.6237ZM15.2467 24.6581L12.3597 23.8821L13.5797 25.1061L15.2467 24.6581ZM10.6897 22.7901L10.6697 23.0031L10.9867 23.0881L10.6897 22.7901ZM10.3107 22.4101L8.94165 21.0401L9.37365 22.6571L10.2687 22.8971L10.3107 22.4121V22.4101ZM8.14965 19.6631L7.42565 16.9551L7.00765 18.5181L8.14965 19.6631ZM7.12465 15.8281L6.92065 15.0671L5.28765 15.8271H7.12465V15.8281ZM7.58865 14.7551L7.29865 14.8911L7.42565 15.3671L7.58865 14.7551ZM7.72765 14.2381L8.26765 12.2161L6.93965 13.5481L7.19065 14.4881L7.72765 14.2381ZM9.05965 10.8401L10.9187 8.9771L9.45265 9.3711L9.05965 10.8411V10.8401ZM11.7437 8.15009L12.2997 7.5931L10.8237 6.5541L11.7437 8.15009ZM12.9037 8.0181L12.6407 7.8331L12.2907 8.18309L12.9037 8.0181ZM13.4207 7.8791L15.2467 7.3891L13.5407 6.9311L12.9347 7.5371L13.4207 7.8791ZM16.8307 7.3891L19.6007 8.1331L18.4307 6.9601L16.8307 7.3891ZM21.4077 9.3631L21.4357 9.0511L20.9727 8.9271L21.4077 9.3631ZM21.7857 9.7431L23.0677 11.0281L22.6247 9.3711L21.8377 9.1591L21.7857 9.7431ZM23.8597 12.4031L24.6517 15.3671L25.1097 13.6561L23.8597 12.4041V12.4031ZM18.0857 19.2641L18.5537 20.0771L24.0817 17.5021L24.4287 16.2041H21.2137L21.0507 18.0381C21.0468 18.0812 21.0294 18.1219 21.0009 18.1545C20.9724 18.1871 20.9344 18.2099 20.8922 18.2195C20.8501 18.2292 20.8059 18.2252 20.7661 18.2083C20.7263 18.1913 20.6929 18.1622 20.6707 18.1251L19.6727 16.4351L18.0857 19.2641ZM17.3017 20.6611L18.1807 20.2511L17.8517 19.6811L17.3017 20.6611ZM13.8157 20.2911L18.7027 23.7311L19.9857 23.3861L18.3857 20.6091L16.8977 21.3031C16.8581 21.3218 16.8137 21.3273 16.7708 21.3189C16.7279 21.3105 16.6888 21.2887 16.6593 21.2565C16.6297 21.2244 16.6111 21.1836 16.6063 21.1402C16.6016 21.0967 16.6108 21.0529 16.6327 21.0151L17.5657 19.3521L14.3357 19.3881L13.8157 20.2901V20.2911ZM13.6097 20.6481L12.0397 23.3721L16.0397 24.4461L18.1857 23.8691L13.6097 20.6481ZM13.8587 19.3931L12.5617 19.4081L13.4787 20.0531L13.8587 19.3931ZM11.2687 16.2391L10.7367 22.2571L11.6707 23.1921L13.2727 20.4101L11.8047 19.3781C11.7692 19.353 11.7426 19.3173 11.7287 19.2762C11.7148 19.235 11.7142 19.1905 11.7271 19.149C11.7399 19.1076 11.7656 19.0712 11.8004 19.0452C11.8351 19.0191 11.8772 19.0048 11.9207 19.0041L13.9047 18.9811L12.2847 16.2391H11.2697H11.2687ZM10.8587 16.2391H7.65865L8.72865 20.2441L10.3587 21.8771L10.8587 16.2391ZM12.0407 15.8281L11.4017 14.7461L11.3057 15.8281H12.0407ZM13.4907 12.0061L8.07465 14.5301L7.72765 15.8281H10.8947L11.0497 14.0741C11.0541 14.0314 11.0719 13.9911 11.1004 13.959C11.1288 13.9268 11.1667 13.9044 11.2086 13.8948C11.2504 13.8852 11.2943 13.8889 11.3339 13.9055C11.3736 13.922 11.407 13.9506 11.4297 13.9871L12.4327 15.6841L13.9997 12.8911L13.4897 12.0061H13.4907ZM13.2847 11.6491L11.6547 8.8201L8.84765 11.6351L8.21265 14.0121L13.2847 11.6491ZM18.2917 11.8111L13.3417 8.3261L12.0457 8.6751L13.6577 11.4751L15.2577 10.7291C15.2972 10.7104 15.3416 10.7049 15.3845 10.7133C15.4274 10.7216 15.4665 10.7435 15.496 10.7757C15.5256 10.8078 15.5442 10.8486 15.549 10.892C15.5537 10.9354 15.5445 10.9793 15.5227 11.0171L14.5867 12.6851L17.8087 12.6491L18.2917 11.8111ZM18.4977 11.4531L20.0887 8.69009L16.0387 7.6021L13.8587 8.1881L18.4977 11.4531ZM18.2857 12.6431L19.4557 12.6311L18.6287 12.0481L18.2857 12.6441V12.6431ZM20.8017 16.2041H20.0117L20.6987 17.3661L20.8017 16.2041ZM14.2337 12.4741L14.8537 11.3711L13.8637 11.8321L14.2337 12.4751V12.4741ZM17.7967 18.9411L19.4307 16.0271L17.6857 13.0731L17.6807 13.0621L14.3537 13.0991L12.6737 16.0931L14.3787 18.9761L17.7767 18.9381C17.7837 18.9381 17.7897 18.9401 17.7967 18.9411ZM21.7387 10.2771L21.2497 15.7931H24.3417L23.2797 11.8231L21.7387 10.2771ZM20.8387 15.7931L21.3607 9.8971L20.4137 8.9481L18.8337 11.6901L20.2137 12.6601C20.2495 12.6851 20.2765 12.7208 20.2907 12.7621C20.3049 12.8035 20.3056 12.8482 20.2927 12.89C20.2798 12.9317 20.2539 12.9683 20.2188 12.9944C20.1838 13.0205 20.1413 13.0347 20.0977 13.0351L18.1527 13.0561L19.7697 15.7931H20.8377H20.8387ZM21.4717 8.6361L21.6317 6.8331L20.7117 8.4311L21.4717 8.6361ZM10.6337 23.4201L10.4687 25.2781L11.4187 23.6301L10.6337 23.4201Z" fill="white"/>
</svg>
