<svg width="32" height="32" viewBox="0 0 32 32" fill="none" xmlns="http://www.w3.org/2000/svg">
<path d="M16 32C24.8366 32 32 24.8366 32 16C32 7.16344 24.8366 0 16 0C7.16344 0 0 7.16344 0 16C0 24.8366 7.16344 32 16 32Z" fill="#6CDE07"/>
<path fill-rule="evenodd" clip-rule="evenodd" d="M22.5 19.154C22.5 21.724 20.414 23.43 17.334 23.687V26H15.224V23.664C13.1407 23.4291 11.1613 22.6289 9.5 21.35L11.052 19.224C12.435 20.299 13.744 21 15.321 21.234V16.654C11.78 15.766 10.131 14.481 10.131 11.841C10.131 9.318 12.192 7.589 15.224 7.355V6H17.334V7.402C18.9831 7.58518 20.5554 8.19754 21.894 9.178L20.535 11.374C19.468 10.603 18.377 10.112 17.237 9.879V14.318C20.924 15.206 22.5 16.631 22.5 19.154ZM15.32 13.827V9.715C13.793 9.832 12.993 10.65 12.993 11.678C12.993 12.658 13.453 13.29 15.321 13.828L15.32 13.827ZM19.638 19.317C19.638 18.267 19.128 17.636 17.237 17.098V21.328C18.765 21.21 19.638 20.439 19.638 19.318V19.317Z" fill="white"/>
</svg>
