<svg width="32" height="32" viewBox="0 0 32 32" fill="none" xmlns="http://www.w3.org/2000/svg">
<path d="M16 32C24.8366 32 32 24.8366 32 16C32 7.16344 24.8366 0 16 0C7.16344 0 0 7.16344 0 16C0 24.8366 7.16344 32 16 32Z" fill="#2080A2"/>
<path fill-rule="evenodd" clip-rule="evenodd" d="M15.98 20.297C14.835 21.604 14.807 23.397 15.993 24.591C17.114 23.511 17.115 21.498 15.98 20.297ZM15.981 8.105C13.276 11.233 13.378 14.931 15.979 18.004C18.627 14.868 18.634 11.188 15.981 8.104V8.105ZM17.893 17.13C20.143 14.83 22.888 14.304 26 14.802C24.997 17.102 23.582 18.939 21.082 19.9C21.634 19.467 22.137 19.113 22.592 18.707C23.352 18.03 23.89 17.21 24.159 16.225C24.244 15.914 24.134 15.826 23.848 15.78C22.801 15.612 21.818 15.832 20.879 16.26C19.299 16.98 18.012 18.089 16.805 19.294C16.784 19.316 16.775 19.348 16.737 19.417C19.102 19.507 20.903 20.451 21.97 22.632C20.584 22.94 19.316 22.875 18.14 22.119C19.026 22.391 19.91 22.589 20.88 22.129C20.76 21.929 20.69 21.695 20.53 21.564C20.093 21.207 19.645 20.846 19.15 20.574C18.385 20.156 17.53 19.96 16.584 19.766C17.861 22.003 17.541 24.034 15.98 26C15.254 25.085 14.746 24.128 14.607 22.998C14.467 21.864 14.786 20.834 15.333 19.848C14.123 19.654 11.512 21.055 11.108 22.135C12.045 22.609 12.959 22.393 13.9 22.043C13.224 22.739 11.275 23.024 10.004 22.605C11.059 20.455 12.851 19.508 15.269 19.418C15.091 19.238 14.959 19.099 14.821 18.966C13.815 17.996 12.746 17.106 11.49 16.458C10.463 15.928 9.386 15.596 8.203 15.773C8.063 15.794 7.924 15.828 7.728 15.868C8.088 17.718 9.328 18.865 10.862 19.832C9.25 19.637 6.53 16.82 6 14.798C9.11 14.294 11.87 14.846 14.11 17.197C12.257 13.07 13.243 9.417 15.98 6C18.695 9.39 19.691 13.017 17.893 17.13Z" fill="white"/>
</svg>
