<svg width="32" height="32" viewBox="0 0 32 32" fill="none" xmlns="http://www.w3.org/2000/svg">
<path d="M16 32C24.8366 32 32 24.8366 32 16C32 7.16344 24.8366 0 16 0C7.16344 0 0 7.16344 0 16C0 24.8366 7.16344 32 16 32Z" fill="#044AAC"/>
<path fill-rule="evenodd" clip-rule="evenodd" d="M10.082 17.21L7.46401 19.83L6.23401 21.06C5.42121 19.4973 4.99788 17.7614 5.00001 16C5.00001 9.935 9.93501 5 16 5C22.065 5 27 9.935 27 16C27 22.065 22.065 27 16 27C13.654 27 11.478 26.261 9.69001 25.005C9.23889 24.6882 8.81204 24.3383 8.41301 23.958L9.57501 22.795L17.992 14.378C18.0249 13.9724 18.2091 13.594 18.5082 13.3179C18.8072 13.0419 19.1991 12.8884 19.606 12.888C20.0068 12.8884 20.3933 13.0374 20.6906 13.3061C20.988 13.5748 21.1752 13.9443 21.216 14.343L25.09 18.217C25.267 17.4913 25.3563 16.747 25.356 16C25.356 10.84 21.159 6.644 16 6.644C10.841 6.644 6.64401 10.84 6.64401 16C6.64401 16.718 6.72501 17.417 6.87901 18.089L9.36701 15.6C9.42785 15.2196 9.6222 14.8733 9.91521 14.6231C10.2082 14.373 10.5807 14.2354 10.966 14.235C11.3458 14.2354 11.7134 14.3691 12.0045 14.613C12.2957 14.8568 12.492 15.1952 12.559 15.569L14.142 17.151L12.979 18.313L11.865 17.199C11.6019 17.3761 11.2922 17.4716 10.975 17.4734C10.6578 17.4751 10.3471 17.3832 10.082 17.209V17.21ZM18.791 15.904L10.873 23.822C12.3948 24.8246 14.1776 25.358 16 25.356C19.753 25.356 22.997 23.135 24.486 19.938L20.441 15.892C20.1927 16.0428 19.9082 16.1235 19.6177 16.1256C19.3272 16.1277 19.0415 16.0511 18.791 15.904ZM19.635 13.788C19.5372 13.7845 19.4397 13.8008 19.3483 13.8358C19.2569 13.8709 19.1736 13.924 19.1032 13.992C19.0328 14.06 18.9768 14.1415 18.9387 14.2316C18.9005 14.3218 18.8809 14.4187 18.8811 14.5165C18.8812 14.6144 18.9011 14.7112 18.9395 14.8013C18.9779 14.8913 19.034 14.9726 19.1046 15.0404C19.1752 15.1083 19.2587 15.1612 19.3502 15.196C19.4417 15.2308 19.5392 15.2468 19.637 15.243C19.8253 15.2358 20.0034 15.1558 20.134 15.02C20.2645 14.8841 20.3373 14.7029 20.337 14.5145C20.3368 14.3261 20.2635 14.1452 20.1326 14.0097C20.0016 13.8742 19.8233 13.7947 19.635 13.788ZM10.975 15.115C10.7819 15.115 10.5968 15.1917 10.4602 15.3282C10.3237 15.4648 10.247 15.6499 10.247 15.843C10.247 16.0361 10.3237 16.2212 10.4602 16.3578C10.5968 16.4943 10.7819 16.571 10.975 16.571C11.1681 16.571 11.3533 16.4943 11.4898 16.3578C11.6263 16.2212 11.703 16.0361 11.703 15.843C11.703 15.6499 11.6263 15.4648 11.4898 15.3282C11.3533 15.1917 11.1681 15.115 10.975 15.115Z" fill="white"/>
</svg>
