<svg width="32" height="32" viewBox="0 0 32 32" fill="none" xmlns="http://www.w3.org/2000/svg">
<path d="M16 32C24.8366 32 32 24.8366 32 16C32 7.16344 24.8366 0 16 0C7.16344 0 0 7.16344 0 16C0 24.8366 7.16344 32 16 32Z" fill="#C99705"/>
<path fill-rule="evenodd" clip-rule="evenodd" d="M8 24.254L8.043 24.079C8.198 23.482 8.604 23.114 9.21 22.947C9.825 22.777 10.412 22.842 10.945 23.204C11.12 23.322 11.252 23.473 11.337 23.662C11.361 23.713 11.408 23.755 11.445 23.802C11.485 23.756 11.542 23.716 11.562 23.664C11.693 23.315 11.84 22.97 11.939 22.614C12.475 20.674 12.999 18.733 13.525 16.792C13.546 16.716 13.559 16.637 13.578 16.545C13.438 16.545 13.308 16.546 13.179 16.545C12.737 16.537 12.293 16.55 11.853 16.516C11.254 16.47 10.847 16.101 10.836 15.534C10.826 15.038 11.119 14.657 11.68 14.56C12.072 14.492 12.484 14.518 12.887 14.511C13.274 14.505 13.66 14.511 14.047 14.507C14.082 14.507 14.141 14.467 14.15 14.436C14.248 14.092 14.339 13.746 14.43 13.399C14.436 13.379 14.431 13.356 14.431 13.322C13.993 13.322 13.56 13.335 13.128 13.318C12.788 13.304 12.46 13.227 12.176 13.031C11.823 12.788 11.726 12.441 11.783 12.057C11.841 11.669 12.09 11.409 12.488 11.3C12.628 11.262 12.78 11.246 12.926 11.245C13.5503 11.2389 14.1747 11.2402 14.799 11.249C14.95 11.252 15.017 11.203 15.077 11.077C15.285 10.644 15.489 10.207 15.73 9.79204C16.17 9.03504 16.686 8.32404 17.326 7.70604C18.169 6.89404 19.162 6.31804 20.352 6.10704C21.142 5.96704 21.938 5.93304 22.714 6.19904C23.18 6.35904 23.526 6.65604 23.744 7.08304C23.881 7.35304 24.014 7.62004 23.999 7.93704C23.956 8.83704 23.191 9.40904 22.498 9.43204C21.966 9.45004 21.508 9.30604 21.154 8.92104C20.821 8.55904 20.78 8.13804 20.914 7.68904C20.924 7.65604 20.937 7.62304 20.949 7.58904L20.922 7.55504C20.854 7.59904 20.777 7.63504 20.72 7.68904C20.4212 7.97788 20.1682 8.31073 19.97 8.67604C19.55 9.42804 19.247 10.224 18.997 11.04C18.989 11.065 18.991 11.093 18.987 11.136C19.203 11.136 19.416 11.139 19.627 11.136C19.935 11.131 20.241 11.132 20.534 11.242C20.891 11.376 21.164 11.595 21.236 11.97C21.309 12.351 21.234 12.65 20.878 12.941C20.588 13.179 20.248 13.228 19.893 13.24C19.419 13.256 18.943 13.26 18.469 13.268C18.406 13.269 18.356 13.268 18.338 13.348C18.261 13.675 18.177 14.001 18.096 14.327C18.092 14.343 18.097 14.361 18.099 14.389C18.432 14.389 18.763 14.379 19.093 14.391C19.448 14.404 19.776 14.497 20.035 14.753C20.351 15.067 20.395 15.517 20.131 15.87C20.045 15.985 19.942 16.09 19.849 16.2C19.655 16.428 19.384 16.507 19.096 16.518C18.603 16.538 18.109 16.543 17.616 16.54C17.482 16.54 17.429 16.58 17.399 16.698C17.224 17.392 17.056 18.088 16.862 18.778C16.472 20.165 16.038 21.538 15.326 22.814C14.9836 23.4346 14.552 24.0017 14.045 24.497C13.302 25.219 12.422 25.714 11.37 25.897C10.652 26.021 9.928 26.064 9.22 25.849C8.62 25.667 8.205 25.294 8.045 24.695L8 24.52V24.254Z" fill="white"/>
</svg>
