<svg width="32" height="32" viewBox="0 0 32 32" fill="none" xmlns="http://www.w3.org/2000/svg">
<path d="M16 32C24.8366 32 32 24.8366 32 16C32 7.16344 24.8366 0 16 0C7.16344 0 0 7.16344 0 16C0 24.8366 7.16344 32 16 32Z" fill="#EBA809"/>
<path fill-rule="evenodd" clip-rule="evenodd" d="M16 27C9.925 27 5 22.075 5 16C5 9.925 9.925 5 16 5C22.075 5 27 9.925 27 16C27 22.075 22.075 27 16 27ZM15.012 6.74C15.014 7.615 15.014 8.49 15.014 9.365L16.324 9.367C16.327 8.47 16.329 7.572 16.324 6.675C15.887 6.69 15.448 6.711 15.012 6.74ZM18.164 9.407C19.316 9.562 20.554 9.738 21.471 10.515C22.872 11.772 22.691 14.411 20.976 15.322C22.003 15.562 23.02 16.245 23.273 17.324C23.603 18.738 23.341 20.434 22.204 21.43C21.078 22.355 19.554 22.477 18.161 22.61C18.167 23.428 18.165 24.246 18.163 25.066C21.093 24.351 23.623 22.171 24.698 19.351C25.718 16.749 25.478 13.688 24.036 11.291C22.763 9.131 20.599 7.541 18.169 6.933C18.163 7.758 18.163 8.583 18.165 9.407H18.164ZM9.418 9.372C10.688 9.432 11.958 9.42 13.228 9.418C13.228 8.646 13.231 7.874 13.224 7.102C11.802 7.563 10.536 8.39 9.417 9.372H9.418ZM7.936 11.362C6.443 13.902 6.275 17.161 7.52 19.834C8.595 22.23 10.728 24.094 13.225 24.897C13.23 24.127 13.228 23.355 13.228 22.585C11.953 22.572 10.675 22.619 9.403 22.55C9.417 21.84 9.583 21.146 9.826 20.479C10.45 20.466 11.101 20.575 11.704 20.372C12.056 20.076 11.956 19.587 11.974 19.182C11.956 16.868 11.984 14.553 11.962 12.239C11.985 11.866 11.751 11.463 11.362 11.389C10.722 11.262 10.065 11.312 9.418 11.308C9.342 10.788 9.334 10.261 9.325 9.734C9.33544 9.68055 9.33452 9.62551 9.32228 9.57244C9.31005 9.51938 9.28679 9.46948 9.254 9.426C8.888 10.12 8.306 10.669 7.936 11.361V11.362ZM15.066 11.463V14.875C16.207 14.855 17.472 14.981 18.47 14.319C19.298 13.778 19.245 12.405 18.39 11.919C17.392 11.327 16.174 11.495 15.067 11.463H15.066ZM15.066 16.711V20.496C16.474 20.382 18.054 20.619 19.279 19.77C20.155 19.189 20.05 17.751 19.147 17.248C17.92 16.515 16.429 16.748 15.067 16.711H15.066ZM15.015 22.636C15.015 23.511 15.013 24.386 15.01 25.263C15.466 25.293 15.922 25.311 16.378 25.323C16.382 24.428 16.38 23.532 16.38 22.636H15.015Z" fill="white"/>
</svg>
