<svg width="32" height="32" viewBox="0 0 32 32" fill="none" xmlns="http://www.w3.org/2000/svg">
<path d="M16 32C24.8366 32 32 24.8366 32 16C32 7.16344 24.8366 0 16 0C7.16344 0 0 7.16344 0 16C0 24.8366 7.16344 32 16 32Z" fill="#48B254"/>
<path fill-rule="evenodd" clip-rule="evenodd" d="M22.681 7.368L23.626 8.226L11.694 15.038L5.918 11.713L6.458 10.64L11.694 13.617L22.681 7.367V7.368ZM20.279 6L21.547 6.644L11.694 12.276L7.106 9.674L7.888 8.736L11.694 10.908L20.28 6H20.279ZM24.463 9.111L25.164 10.05L11.694 17.747L5.189 14.046L5.486 12.866L11.694 16.406L24.463 9.111ZM26.406 12.571C26.802 13.68 27 14.841 27 16.057C27 17.273 26.802 18.454 26.406 19.597L26.136 20.322C25.5816 21.6224 24.7847 22.8055 23.788 23.808C22.7794 24.7983 21.5871 25.582 20.278 26.115C18.893 26.705 17.463 27 15.987 27C14.493 27 13.062 26.705 11.694 26.115C10.4005 25.5682 9.21983 24.7859 8.212 23.808C7.20383 22.8149 6.40537 21.6295 5.864 20.322C5.294 18.972 4.999 17.522 5 16.057V15.333L11.694 19.115L25.812 11.069L26.406 12.571Z" fill="white"/>
</svg>
