<svg width="32" height="32" viewBox="0 0 32 32" fill="none" xmlns="http://www.w3.org/2000/svg">
<circle cx="16" cy="16" r="16" fill="#2D2D2D"/>
<path d="M21.7419 16C21.7419 15.3943 22.233 14.9032 22.8387 14.9032C23.4444 14.9032 23.9355 15.3943 23.9355 16C23.9355 16.6057 23.4444 17.0968 22.8387 17.0968C22.233 17.0968 21.7419 16.6057 21.7419 16Z" fill="white"/>
<path d="M14.9032 22.8387C14.9032 23.4444 15.3943 23.9355 16 23.9355C16.6057 23.9355 17.0968 23.4444 17.0968 22.8387C17.0968 22.233 16.6057 21.7419 16 21.7419C15.3943 21.7419 14.9032 22.233 14.9032 22.8387Z" fill="white"/>
<path d="M14.9032 9.16129C14.9032 8.55557 15.3943 8.06452 16 8.06452C16.6057 8.06452 17.0968 8.55557 17.0968 9.16129C17.0968 9.76701 16.6057 10.2581 16 10.2581C15.3943 10.2581 14.9032 9.76701 14.9032 9.16129Z" fill="white"/>
<path d="M9.16129 14.9032C9.76701 14.9032 10.2581 15.3943 10.2581 16C10.2581 16.6057 9.76701 17.0968 9.16129 17.0968C8.55557 17.0968 8.06452 16.6057 8.06452 16C8.06452 15.3943 8.55557 14.9032 9.16129 14.9032Z" fill="white"/>
<path fill-rule="evenodd" clip-rule="evenodd" d="M12.8387 9.16129C12.8387 7.41535 14.254 6 16 6C17.746 6 19.1613 7.41535 19.1613 9.16129C19.1613 9.92008 18.8939 10.6164 18.4483 11.1613L18.2776 11.3537C18.2497 11.3826 18.2213 11.411 18.1924 11.4389L17.7326 11.8986C17.0785 12.5527 17.0785 13.6133 17.7326 14.2675C18.3868 14.9216 19.4475 14.9216 20.1016 14.2675L20.5558 13.8132C21.1313 13.2126 21.9413 12.8387 22.8387 12.8387C24.5847 12.8387 26 14.2541 26 16C26 17.7459 24.5847 19.1613 22.8387 19.1613C21.9413 19.1613 21.1313 18.7874 20.5558 18.1868L20.1016 17.7325C19.4475 17.0784 18.3868 17.0784 17.7326 17.7325C17.0785 18.3867 17.0785 19.4473 17.7326 20.1014L18.1924 20.5611C18.2213 20.589 18.2497 20.6174 18.2776 20.6463L18.4483 20.8387C18.8939 21.3836 19.1613 22.0799 19.1613 22.8387C19.1613 24.5846 17.746 26 16 26C14.254 26 12.8387 24.5846 12.8387 22.8387C12.8387 22.0799 13.1061 21.3836 13.5517 20.8387L13.7224 20.6463C13.7349 20.6333 13.7476 20.6204 13.7603 20.6076C13.776 20.592 13.7917 20.5765 13.8076 20.5611L14.2674 20.1014C14.9215 19.4473 14.9215 18.3867 14.2674 17.7325C13.6132 17.0784 12.5525 17.0784 11.8984 17.7325L11.4442 18.1868C10.8687 18.7874 10.0587 19.1613 9.16129 19.1613C7.41532 19.1613 6 17.7459 6 16C6 14.2541 7.41532 12.8387 9.16129 12.8387C10.0587 12.8387 10.8687 13.2126 11.4442 13.8132L11.8984 14.2675C12.5525 14.9216 13.6132 14.9216 14.2674 14.2675C14.9215 13.6133 14.9215 12.5527 14.2674 11.8986L13.8076 11.4389L13.7825 11.4144L13.7576 11.3896C13.7457 11.3777 13.734 11.3657 13.7224 11.3537L13.5517 11.1613C13.1061 10.6164 12.8387 9.92008 12.8387 9.16129ZM24.5806 16C24.5806 15.038 23.8008 14.2581 22.8387 14.2581C21.8766 14.2581 21.0968 15.038 21.0968 16C21.0968 16.962 21.8766 17.7419 22.8387 17.7419C23.8008 17.7419 24.5806 16.962 24.5806 16ZM16 21.0968C15.0379 21.0968 14.2581 21.8767 14.2581 22.8387C14.2581 23.8007 15.0379 24.5806 16 24.5806C16.9621 24.5806 17.7419 23.8007 17.7419 22.8387C17.7419 21.8767 16.9621 21.0968 16 21.0968ZM17.7419 9.16129C17.7419 10.1233 16.9621 10.9032 16 10.9032C15.0379 10.9032 14.2581 10.1233 14.2581 9.16129C14.2581 8.19925 15.0379 7.41935 16 7.41935C16.9621 7.41935 17.7419 8.19925 17.7419 9.16129ZM7.41935 16C7.41935 16.962 8.19922 17.7419 9.16129 17.7419C10.1234 17.7419 10.9032 16.962 10.9032 16C10.9032 15.038 10.1234 14.2581 9.16129 14.2581C8.19922 14.2581 7.41935 15.038 7.41935 16Z" fill="white"/>
</svg>
