<svg width="32" height="32" viewBox="0 0 32 32" fill="none" xmlns="http://www.w3.org/2000/svg">
<path d="M16 32C24.8366 32 32 24.8366 32 16C32 7.16344 24.8366 0 16 0C7.16344 0 0 7.16344 0 16C0 24.8366 7.16344 32 16 32Z" fill="#00A8D6"/>
<path fill-rule="evenodd" clip-rule="evenodd" d="M14.432 18.95V17.033H17.386C19.356 17.033 20.341 16.541 20.341 15.557V10.393C20.341 9.41 19.356 8.918 17.386 8.918H12.66V12.016H10V7H17.09C21.03 7 23 8.082 23 10.246V15.705C23 17.869 21.03 18.951 17.09 18.951H14.432V18.95ZM20.341 20.131H23V21.754C23 23.918 21.03 25 17.09 25H10V13.492H17.09C17.507 13.492 17.9 13.504 18.273 13.528V15.449C17.9782 15.4214 17.6821 15.408 17.386 15.409H12.66V23.082H17.387C19.357 23.082 20.342 22.59 20.342 21.607V20.13L20.341 20.131Z" fill="white"/>
</svg>
