<svg width="32" height="32" viewBox="0 0 32 32" fill="none" xmlns="http://www.w3.org/2000/svg">
<path d="M16 32C24.8366 32 32 24.8366 32 16C32 7.16344 24.8366 0 16 0C7.16344 0 0 7.16344 0 16C0 24.8366 7.16344 32 16 32Z" fill="#222222"/>
<path fill-rule="evenodd" clip-rule="evenodd" d="M12.73 18.655L15.876 25.037L17.492 20.264L12.731 18.655H12.73ZM6.977 15.886L11.741 17.503L13.359 12.733L6.977 15.886ZM13.008 17.91C13.083 17.95 13.114 17.974 13.149 17.986C14.685 18.508 16.219 19.034 17.759 19.543C17.884 19.583 18.062 19.549 18.185 19.489C19.946 18.63 21.702 17.761 23.458 16.894C23.958 16.647 24.456 16.397 25.001 16.125C24.881 16.079 24.819 16.053 24.754 16.031C23.267 15.526 21.78 15.018 20.288 14.527C20.1304 14.4806 19.9615 14.4912 19.811 14.557C17.939 15.467 16.074 16.392 14.208 17.313C13.819 17.505 13.432 17.699 13.008 17.91ZM19.507 13.845C18.377 11.551 17.261 9.291 16.117 6.97L12.637 17.237L19.507 13.845ZM5 16.002C6.094 15.461 7.126 14.947 8.16 14.437C9.918 13.57 11.676 12.702 13.437 11.841C13.5242 11.8028 13.602 11.7459 13.6649 11.6744C13.7278 11.6028 13.7742 11.5184 13.801 11.427C14.489 9.374 15.187 7.325 15.883 5.275C15.909 5.199 15.94 5.125 15.988 5C16.058 5.136 16.11 5.232 16.158 5.329C17.503 8.059 18.846 10.789 20.202 13.513C20.268 13.645 20.442 13.755 20.591 13.806C22.627 14.508 24.667 15.198 26.706 15.891C26.783 15.917 26.859 15.945 27 15.995C26.812 16.09 26.673 16.163 26.533 16.232C23.905 17.529 21.278 18.829 18.646 20.117C18.5273 20.1691 18.4215 20.2467 18.3363 20.3444C18.2511 20.442 18.1885 20.5573 18.153 20.682C17.474 22.716 16.778 24.744 16.087 26.774C16.068 26.83 16.045 26.884 16 27C15.823 26.645 15.67 26.342 15.52 26.038C14.296 23.556 13.071 21.074 11.854 18.588C11.8126 18.4914 11.7505 18.405 11.672 18.335C11.5936 18.2651 11.5007 18.2132 11.4 18.183C9.358 17.5 7.32 16.803 5.281 16.11C5.206 16.084 5.133 16.053 5 16.002Z" fill="white"/>
</svg>
