<svg width="32" height="32" viewBox="0 0 32 32" fill="none" xmlns="http://www.w3.org/2000/svg">
<path d="M16 32C24.8366 32 32 24.8366 32 16C32 7.16344 24.8366 0 16 0C7.16344 0 0 7.16344 0 16C0 24.8366 7.16344 32 16 32Z" fill="#2AABE4"/>
<path fill-rule="evenodd" clip-rule="evenodd" d="M7.9 7H14.1C14.3387 7 14.5676 7.09482 14.7364 7.2636C14.9052 7.43239 15 7.66131 15 7.9V14.1C15 14.3387 14.9052 14.5676 14.7364 14.7364C14.5676 14.9052 14.3387 15 14.1 15H7.9C7.66131 15 7.43239 14.9052 7.2636 14.7364C7.09482 14.5676 7 14.3387 7 14.1V7.9C7 7.66131 7.09482 7.43239 7.2636 7.2636C7.43239 7.09482 7.66131 7 7.9 7ZM17.9 7H24.1C24.3387 7 24.5676 7.09482 24.7364 7.2636C24.9052 7.43239 25 7.66131 25 7.9V14.1C25 14.3387 24.9052 14.5676 24.7364 14.7364C24.5676 14.9052 24.3387 15 24.1 15H17.9C17.6613 15 17.4324 14.9052 17.2636 14.7364C17.0948 14.5676 17 14.3387 17 14.1V7.9C17 7.66131 17.0948 7.43239 17.2636 7.2636C17.4324 7.09482 17.6613 7 17.9 7ZM17.9 17H24.1C24.3387 17 24.5676 17.0948 24.7364 17.2636C24.9052 17.4324 25 17.6613 25 17.9V24.1C25 24.3387 24.9052 24.5676 24.7364 24.7364C24.5676 24.9052 24.3387 25 24.1 25H17.9C17.6613 25 17.4324 24.9052 17.2636 24.7364C17.0948 24.5676 17 24.3387 17 24.1V17.9C17 17.6613 17.0948 17.4324 17.2636 17.2636C17.4324 17.0948 17.6613 17 17.9 17ZM7.9 17H14.1C14.3387 17 14.5676 17.0948 14.7364 17.2636C14.9052 17.4324 15 17.6613 15 17.9V24.1C15 24.3387 14.9052 24.5676 14.7364 24.7364C14.5676 24.9052 14.3387 25 14.1 25H7.9C7.66131 25 7.43239 24.9052 7.2636 24.7364C7.09482 24.5676 7 24.3387 7 24.1V17.9C7 17.6613 7.09482 17.4324 7.2636 17.2636C7.43239 17.0948 7.66131 17 7.9 17Z" fill="white"/>
</svg>
