<svg width="32" height="32" viewBox="0 0 32 32" fill="none" xmlns="http://www.w3.org/2000/svg">
<path d="M16 32C24.8366 32 32 24.8366 32 16C32 7.16344 24.8366 0 16 0C7.16344 0 0 7.16344 0 16C0 24.8366 7.16344 32 16 32Z" fill="#BC3FE0"/>
<path fill-rule="evenodd" clip-rule="evenodd" d="M11.087 14.815V12.483C11.087 8.807 13.306 6.5 17.162 6.5C20.094 6.5 21.732 7.742 23 9.34L20.517 11.24C19.566 10.075 18.667 9.39 17.189 9.39C15.419 9.39 14.362 10.607 14.362 12.56V14.815H20.94V17.452H14.362V21.787H22.947V24.5H9V22.523L11.087 21.914V17.452H9V14.815H11.087Z" fill="white"/>
</svg>
