<svg width="32" height="32" viewBox="0 0 32 32" fill="none" xmlns="http://www.w3.org/2000/svg">
<path d="M16 32C24.8366 32 32 24.8366 32 16C32 7.16344 24.8366 0 16 0C7.16344 0 0 7.16344 0 16C0 24.8366 7.16344 32 16 32Z" fill="#5411B3"/>
<path fill-rule="evenodd" clip-rule="evenodd" d="M16.053 5C16.583 5.319 17.109 5.645 17.643 5.956C20.178 7.426 22.713 8.894 25.251 10.358C25.418 10.454 25.492 10.561 25.492 10.766C25.487 14.258 25.488 17.75 25.5 21.242C25.5 21.47 25.396 21.565 25.23 21.661C22.213 23.407 19.198 25.156 16.183 26.905C16.137 26.932 16.096 26.968 16.053 27H15.943C15.033 26.464 14.123 25.923 13.21 25.392C11.056 24.141 8.90001 22.892 6.74201 21.649C6.55901 21.544 6.49901 21.424 6.50001 21.214C6.51001 17.75 6.51201 14.286 6.50501 10.821C6.50501 10.573 6.59001 10.448 6.79401 10.331C9.78301 8.607 12.767 6.877 15.752 5.147C15.821 5.107 15.88 5.049 15.943 5H16.053ZM18.859 22.48C19.272 22.763 19.676 23.06 20.092 23.36C20.115 23.35 20.149 23.336 20.18 23.319C21.53 22.538 22.883 21.759 24.229 20.969C24.309 20.922 24.379 20.784 24.379 20.689C24.386 17.563 24.385 14.438 24.376 11.313C24.3715 11.2586 24.3552 11.2058 24.3282 11.1584C24.3013 11.1109 24.2644 11.0698 24.22 11.038C22.89 10.256 21.553 9.488 20.222 8.709C20.084 8.629 20.007 8.653 19.89 8.744C19.567 8.997 16.391 10.937 15.147 11.684C14.175 12.266 13.225 12.88 12.473 13.754C11.436 14.959 11.339 16.629 12.246 17.939C12.695 18.589 13.294 19.083 13.936 19.522C14.448 19.871 14.976 20.195 15.496 20.53C15.482 20.55 15.474 20.57 15.46 20.578C14.774 20.976 14.09 21.378 13.396 21.765C13.329 21.802 13.19 21.765 13.114 21.717C12.3767 21.2412 11.7004 20.677 11.1 20.037C9.37001 18.223 9.01801 15.25 10.28 13.081C10.8613 12.0804 11.6697 11.2305 12.64 10.6C13.9 9.776 17.41 7.693 17.875 7.408C17.835 7.356 17.824 7.328 17.803 7.315C17.251 6.993 16.703 6.665 16.143 6.358C16.061 6.313 15.912 6.33 15.823 6.376C15.515 6.535 15.22 6.718 14.921 6.893C14.657 7.047 14.394 7.203 14.091 7.382L15.529 8.286C14.794 8.72 14.099 9.136 13.396 9.539C13.34 9.571 13.22 9.546 13.159 9.504C12.8109 9.2697 12.4713 9.02288 12.141 8.764C11.996 8.649 11.9 8.638 11.738 8.733C10.4302 9.49777 9.11887 10.2564 7.80401 11.009C7.65901 11.092 7.61201 11.189 7.61201 11.357C7.61701 14.455 7.61601 17.553 7.61101 20.65C7.61101 20.816 7.65401 20.914 7.80301 21C9.10901 21.748 10.411 22.504 11.71 23.265C11.854 23.35 11.95 23.346 12.095 23.249C13.027 22.626 17.291 19.953 18.476 19.216C18.677 19.091 18.846 18.912 19.028 18.758L18.998 18.688H14.572C15.022 17.906 15.442 17.168 15.877 16.439C15.917 16.373 16.064 16.345 16.162 16.345C18.169 16.34 20.177 16.342 22.184 16.342C22.264 16.342 22.344 16.351 22.441 16.356C22.446 16.451 22.468 16.536 22.45 16.61C22.318 17.159 22.23 17.726 22.03 18.25C21.556 19.496 20.677 20.454 19.606 21.192C18.436 21.997 14.711 24.192 14.079 24.569C14.109 24.622 14.113 24.644 14.126 24.652C14.511 24.879 14.924 25.069 15.275 25.341C15.78 25.731 16.22 25.729 16.725 25.341C17.089 25.062 17.515 24.865 17.956 24.606L16.492 23.691C16.532 23.656 16.555 23.628 16.584 23.611C17.254 23.222 17.924 22.831 18.6 22.451C18.664 22.416 18.794 22.435 18.859 22.48ZM21.753 13.143C22.098 13.755 22.355 14.542 22.393 15.149C21.715 15.149 21.061 15.153 20.406 15.144C20.346 15.143 20.252 15.074 20.233 15.016C19.913 14.028 19.23 13.326 18.423 12.736C17.85 12.317 17.24 11.948 16.647 11.556C16.597 11.524 16.548 11.489 16.467 11.433C16.602 11.352 16.707 11.287 16.815 11.224C17.367 10.904 17.915 10.577 18.475 10.269C18.575 10.213 18.755 10.179 18.836 10.232C20.006 11.001 21.051 11.899 21.753 13.143Z" fill="white"/>
</svg>
