<svg width="32" height="32" viewBox="0 0 32 32" fill="none" xmlns="http://www.w3.org/2000/svg">
<path d="M16 32C24.8366 32 32 24.8366 32 16C32 7.16344 24.8366 0 16 0C7.16344 0 0 7.16344 0 16C0 24.8366 7.16344 32 16 32Z" fill="#1F4C9F"/>
<path fill-rule="evenodd" clip-rule="evenodd" d="M6 19.25L16 6.5L26 19.25V23.5L16 10.75L6 23.5V19.25ZM16.5 20.5C15.837 20.5 15.2011 20.2366 14.7322 19.7678C14.2634 19.2989 14 18.663 14 18C14 17.337 14.2634 16.7011 14.7322 16.2322C15.2011 15.7634 15.837 15.5 16.5 15.5C17.163 15.5 17.7989 15.7634 18.2678 16.2322C18.7366 16.7011 19 17.337 19 18C19 18.663 18.7366 19.2989 18.2678 19.7678C17.7989 20.2366 17.163 20.5 16.5 20.5Z" fill="white"/>
</svg>
