<svg width="32" height="32" viewBox="0 0 32 32" fill="none" xmlns="http://www.w3.org/2000/svg">
<path d="M16 32C24.8366 32 32 24.8366 32 16C32 7.16344 24.8366 0 16 0C7.16344 0 0 7.16344 0 16C0 24.8366 7.16344 32 16 32Z" fill="#40649F"/>
<path fill-rule="evenodd" clip-rule="evenodd" d="M12.997 7.25C14.748 7.25 19.077 8.085 23.187 11.056C27.297 14.027 25.451 18.203 24.532 19.018C23.612 19.833 16.424 20.909 15.976 21.653C15.528 22.396 15.006 25.25 12.766 25.25C10.526 25.25 9.484 22.98 8.956 21.663C8.426 20.346 7.75 18.115 7.75 14.987C7.75 11.859 9.1 7.25 12.997 7.25ZM11.603 15.529L11.467 15.534C10.114 15.635 9.477 17.619 9.62 19.781C9.763 21.943 11.393 23.785 12.376 23.785C13.359 23.785 14.816 22.479 14.526 19.655C14.235 16.83 12.82 15.432 11.467 15.534L11.603 15.529ZM19.059 12.014C17.164 11.277 14.365 10.607 15.249 12.544C15.547 13.195 15.787 14.327 15.97 15.939C19.494 15.679 21.61 15.259 22.315 14.679C23.372 13.811 20.953 12.752 19.059 12.014Z" fill="white"/>
</svg>
