<svg width="32" height="32" viewBox="0 0 32 32" fill="none" xmlns="http://www.w3.org/2000/svg">
<path d="M16 32C24.8366 32 32 24.8366 32 16C32 7.16344 24.8366 0 16 0C7.16344 0 0 7.16344 0 16C0 24.8366 7.16344 32 16 32Z" fill="#F1CB60"/>
<path d="M15.2629 24.8556V26.3186H15.9999V24.1296H14.5369V24.8556H15.2629ZM7.92589 16.8256H7.19989V20.4776H7.92589V19.0146H8.66289V17.5516H7.92589V16.8256ZM16.7369 21.2036H17.4629V23.3926H16.7369V21.2036ZM15.9999 23.3926H16.7369V24.1296H15.9999V23.3926ZM8.66289 22.6666H10.8629V24.8556H8.66289V22.6666ZM7.19989 15.3626H7.93689V16.0886H7.19989V15.3626ZM11.5999 13.8996H12.3369V14.6366H11.5999V13.8996ZM15.9999 13.1626H16.7369V14.6256H15.9999V13.1626ZM6.46289 10.9736H8.66289V13.1626H6.46289V10.9736ZM13.0629 24.8556H13.7999V26.3186H13.0629V24.8556ZM13.7999 13.1626H13.0739V14.6256H13.7999V13.8996H14.5369V12.4366H13.7999V13.1626ZM14.5369 11.7106H15.2629V12.4366H14.5369V11.7106ZM14.5369 13.8996H15.2629V14.6256H14.5369V13.8996ZM10.8629 15.3626H13.0629V16.0886H10.8629V15.3626Z" fill="white"/>
<path d="M13.8 12.437V11.711H14.526V10.974H13.8V9.52197H11.6V10.248H13.063V10.974H12.326V11.7H11.6V12.426H10.874V11.711H10.126V10.985H10.863V11.7H11.6V10.974H10.874V9.52197H5V14.637H10.874V13.9H11.6V12.437H12.337V13.163H13.074V12.437H13.8ZM9.4 13.9H5.737V10.248H9.4V13.9ZM10.126 13.9V12.437H10.863V13.9H10.126ZM13.063 11.7V10.985H13.8V11.7H13.063ZM18.937 19.741V19.015H17.463V17.552H16.737V18.278H16.011V17.552H16.737V15.352H15.274V16.089H14.526V17.552H13.8V18.278H14.537V17.552H15.263V19.741H13.8V19.015H13.063V17.552H12.337V16.826H10.863V16.1H10.126V15.374H8.663V16.1H7.926V16.826H8.663V17.552H9.4V16.826H10.137V17.552H9.4V18.278H10.137V19.004H10.863V18.278H11.6V17.552H12.326V18.278H11.6V19.004H10.874V20.467H12.337V21.204H10.863V20.478H10.126V21.204H8.663V20.478H7.937V21.204H7.2V26.319H12.337V21.93H13.063V24.13H14.537V23.404H15.274V21.93H14.537V21.204H13.8V21.93H13.074V20.467H15.274V21.193H16.011V19.741H17.463V20.478H18.2V19.741H18.937ZM11.6 25.582H7.937V21.93H11.6V25.582ZM12.337 19.741H11.6V19.015H12.337V19.741ZM13.8 22.667H14.537V23.393H13.8V22.667ZM18.937 9.52197H19.663V10.974H18.937V9.52197ZM17.463 9.52197H16.737V11.711H16V12.437H16.737V13.163H17.463V14.626H18.2V13.163H18.937V14.637H19.663V13.9H20.4V12.437H18.937V10.974H17.463V9.52197Z" fill="white"/>
<path fill-rule="evenodd" clip-rule="evenodd" d="M24.0632 17.5518H22.6002V18.2778H21.8632V19.0148H21.1372V16.8258H21.8632V16.0888H21.1372V16.8148H20.4002V17.5518H19.6632V16.0888H18.9372V17.5518H18.2002V18.2888L18.9372 18.2778H19.6632V19.7408H21.8632V20.4778H19.6632V21.2038H18.9372V21.9298H18.2002V22.6668H18.9372V23.3928H18.2002V24.1298H18.9372V24.8558H19.6632V25.5818H18.9372V26.3188H24.8002V21.9298H24.0632V25.5818H20.4002V21.9298H22.6002V19.0148H23.3372V19.7408H24.8002V18.2888H24.0742V17.5518H24.8002V15.3628H24.0632V17.5518Z" fill="white"/>
<path d="M18.1997 20.4776H18.9367V21.2036H18.1997V20.4776ZM21.8627 16.8256H22.5997V17.5516H21.8627V16.8256ZM23.3367 20.4776H24.7997V21.2146H23.3367V20.4776ZM23.3367 10.9846H25.5367V13.1736H23.3367V10.9846ZM20.3997 13.8996H21.1367V14.6366H20.3997V13.8996ZM17.4627 15.3626H18.1997V16.0886H17.4627V15.3626ZM22.5997 15.3626H23.3367V16.0886H22.5997V15.3626ZM21.1367 22.6666H23.3367V24.8556H21.1367V22.6666ZM20.3997 15.3626H21.1367V16.0886H20.3997V15.3626ZM15.2627 10.9736H15.9997V11.7106H15.2627V10.9736Z" fill="white"/>
<path d="M20.3996 9.52178V10.2478H21.8626V10.9738H21.1256V11.6998H20.3996V10.9738H19.6626V11.7108H20.3996V12.4258H21.1366V13.1518H21.8736V14.6148H26.9996V9.52178H20.3996ZM26.2626 13.8998H22.5996V10.2478H26.2626V13.8998ZM9.85057 8.23478C10.3566 8.57578 10.9286 8.64178 11.3796 8.66378C11.7646 8.68578 12.4136 8.68578 13.0956 8.68578C14.3606 8.68578 15.8456 8.70778 15.9996 8.70778C16.4066 8.71878 17.6496 8.71878 18.7496 8.71878C19.4316 8.71878 20.0696 8.70778 20.4656 8.69678C20.9166 8.67478 21.4886 8.59778 21.9946 8.26778C22.6326 7.83878 22.9516 7.13478 22.9516 6.17778C22.9516 5.40778 22.6326 4.94578 22.3686 4.68178C21.6536 3.98878 20.5536 4.03278 20.1906 4.04378H20.1466C19.9266 4.04378 19.1346 4.16478 18.1996 4.69278C17.3746 5.15478 16.6596 5.81478 16.0766 6.63978L16.0106 6.80478L15.9556 6.71678C15.3396 5.79278 14.5366 5.16578 13.6456 4.65978C12.7216 4.13178 11.9296 4.02178 11.7096 4.02178H11.6656C11.3026 4.01078 10.2026 3.96678 9.48757 4.65978C9.00357 5.12178 8.90457 5.72678 8.90457 6.15578C8.89357 7.10178 9.21257 7.80578 9.85057 8.23478ZM18.7386 5.77078C19.5196 5.31978 20.1136 5.25378 20.1576 5.25378H20.2346C20.8616 5.23178 21.3016 5.33078 21.5326 5.55078C21.6756 5.69378 21.7526 5.89178 21.7526 6.17778C21.7526 7.22278 21.2576 7.45378 20.4106 7.49778C19.6956 7.53078 18.0346 7.51978 16.9566 7.50878C17.4001 6.79291 18.0118 6.19627 18.7386 5.77078ZM10.3126 5.51778C10.5216 5.31978 10.8956 5.22078 11.4346 5.22078H11.6986C11.7426 5.22078 12.3366 5.28678 13.1176 5.73778C13.8216 6.14478 14.4266 6.72778 14.9106 7.47578C13.8216 7.48678 12.1606 7.49778 11.4456 7.46478C10.5986 7.42078 10.1036 7.18978 10.1036 6.14478C10.1036 5.85878 10.1696 5.66078 10.3126 5.51778ZM17.4626 24.8558H16.7366V26.3188H17.4736V24.8558H18.1996V24.1298H17.4626V24.8558Z" fill="white"/>
</svg>
