<svg width="32" height="32" viewBox="0 0 32 32" fill="none" xmlns="http://www.w3.org/2000/svg">
<path d="M16 32C24.8366 32 32 24.8366 32 16C32 7.16344 24.8366 0 16 0C7.16344 0 0 7.16344 0 16C0 24.8366 7.16344 32 16 32Z" fill="#5BC1D4"/>
<path fill-rule="evenodd" clip-rule="evenodd" d="M13.785 16.9284L12.135 18.6524C11.838 18.9624 11.547 19.2754 11.249 19.5834C11.199 19.6354 11.128 19.6664 11.067 19.7074C10.937 19.6864 10.837 19.6054 10.82 19.4874C10.7924 19.3078 10.7677 19.1277 10.746 18.9474C10.716 18.7094 10.643 18.6434 10.402 18.6134C9.905 18.5534 9.409 18.4884 8.912 18.4234L7.778 18.2764C7.552 18.2464 7.47 18.0844 7.588 17.8914C7.86 17.4534 8.134 17.0174 8.407 16.5814L10.077 13.9134C10.143 13.8054 10.217 13.7314 10.359 13.7354C10.449 13.7374 10.543 13.7154 10.632 13.6924C10.738 13.6664 10.821 13.6984 10.895 13.7684C11.026 13.8914 11.159 14.0134 11.289 14.1374L12.797 15.5684C13.122 15.8764 13.45 16.1824 13.775 16.4904C13.943 16.6484 13.943 16.7624 13.785 16.9284ZM24.875 19.2474C24.969 19.3254 25.071 19.3994 25.091 19.5324C25.116 19.7024 25.048 19.8254 24.904 19.9184C24.054 20.4684 23.204 21.0214 22.354 21.5724L20.711 22.6374C20.6592 22.6702 20.6097 22.7066 20.563 22.7464C20.5216 22.7803 20.4887 22.8235 20.467 22.8725C20.4453 22.9215 20.4354 22.9749 20.438 23.0284C20.446 23.2334 20.458 23.4384 20.461 23.6424C20.464 23.8774 20.291 24.0244 20.055 23.9974C19.97 23.9861 19.8928 23.942 19.84 23.8744C19.6423 23.6463 19.445 23.418 19.248 23.1894C19.001 22.9034 18.755 22.6154 18.507 22.3304C18.4559 22.2793 18.4172 22.2173 18.3938 22.149C18.3704 22.0807 18.3629 22.008 18.372 21.9364L18.406 20.7414C18.41 20.6014 18.493 20.5114 18.605 20.4394L19.963 19.5714C20.723 19.0864 21.485 18.6034 22.243 18.1134C22.403 18.0104 22.552 17.9794 22.728 18.0694C22.858 18.1354 23.005 18.1474 23.146 18.1034C23.357 18.0364 23.519 18.0954 23.682 18.2394C24.072 18.5834 24.477 18.9114 24.876 19.2474H24.875ZM17.577 20.2394C17.6387 20.2996 17.6827 20.3758 17.704 20.4594C17.741 20.6464 17.667 20.7734 17.491 20.8584C16.906 21.1404 16.322 21.4254 15.732 21.6984C15.626 21.7464 15.493 21.7524 15.372 21.7584C14.883 21.7804 14.394 21.7934 13.905 21.8134C13.616 21.8244 13.328 21.8424 13.062 21.8564H12.866C12.8217 21.8575 12.7776 21.8496 12.7363 21.8333C12.6951 21.817 12.6576 21.7925 12.626 21.7614C12.564 21.7044 12.5 21.6494 12.439 21.5914C12.095 21.2644 11.757 20.9314 11.406 20.6114C11.21 20.4334 11.207 20.1944 11.394 20.0034C11.815 19.5694 12.231 19.1314 12.649 18.6934C13.1 18.2214 13.551 17.7474 14.001 17.2734C14.0351 17.2332 14.0771 17.2004 14.1244 17.1771C14.1717 17.1538 14.2233 17.1404 14.2759 17.1378C14.3286 17.1351 14.3812 17.1433 14.4306 17.1618C14.48 17.1803 14.525 17.2088 14.563 17.2454L16.363 19.0344C16.767 19.4364 17.175 19.8344 17.577 20.2394ZM20.055 12.1904C19.862 11.8924 20.08 11.4804 20.401 11.4274C21.259 11.2844 22.114 11.1204 22.971 10.9714C23.16 10.9384 23.31 11.0254 23.414 11.1814C23.594 11.4514 23.771 11.7224 23.949 11.9934C24.325 12.5634 24.702 13.1334 25.074 13.7054C25.124 13.7824 25.149 13.8754 25.186 13.9604L25.164 13.9704C25.1579 14.1163 25.1037 14.2562 25.01 14.3684C24.486 15.0724 23.956 15.7734 23.433 16.4784C23.3836 16.5409 23.3198 16.5905 23.2469 16.6228C23.1741 16.6551 23.0945 16.6691 23.015 16.6637C22.9355 16.6583 22.8585 16.6336 22.7907 16.5917C22.723 16.5498 22.6664 16.492 22.626 16.4234C21.861 15.1534 21.088 13.8874 20.318 12.6204C20.231 12.4764 20.146 12.3304 20.055 12.1904ZM18.55 15.7224L18.4 17.0574C18.358 17.4274 18.313 17.7954 18.271 18.1654L18.123 19.4654C18.113 19.5564 18.112 19.6494 18.093 19.7374C18.083 19.7804 18.051 19.8354 18.015 19.8494C17.979 19.8634 17.915 19.8434 17.883 19.8164C17.741 19.6934 17.606 19.5634 17.47 19.4344C16.98 18.9704 16.493 18.5054 16.003 18.0434C15.577 17.6404 15.15 17.2404 14.722 16.8404C14.58 16.7084 14.579 16.6664 14.716 16.5234L16.674 14.4734L18.011 13.0694L18.667 12.3794C18.686 12.3594 18.702 12.3324 18.725 12.3244C18.772 12.3074 18.83 12.2844 18.871 12.2974C18.905 12.3094 18.921 12.3704 18.931 12.3874L18.831 13.2674L18.702 14.3984L18.55 15.7224ZM22.356 16.7424C22.42 16.8454 22.43 16.9434 22.36 17.0504C22.2837 17.1704 22.2512 17.3131 22.268 17.4544C22.28 17.5804 22.228 17.6574 22.121 17.7244C21.284 18.2554 20.451 18.7904 19.617 19.3244C19.355 19.4924 19.093 19.6594 18.83 19.8254C18.726 19.8914 18.619 19.8864 18.562 19.8024C18.53 19.7564 18.526 19.6924 18.517 19.6604L18.627 18.8524L18.872 17.0704L19.142 15.1204L19.405 13.2134L19.505 12.5034C19.507 12.4844 19.508 12.4624 19.518 12.4484C19.544 12.4154 19.573 12.3664 19.606 12.3604C19.642 12.3544 19.698 12.3824 19.721 12.4134C19.782 12.4954 19.831 12.5864 19.885 12.6744L21.84 15.8904C22.012 16.1744 22.182 16.4594 22.356 16.7414V16.7424ZM18.303 11.8384C18.334 11.8584 18.394 11.8794 18.426 11.9224C18.475 11.9884 18.432 12.0504 18.381 12.1034L17.701 12.8184L15.719 14.8924C15.305 15.3274 14.893 15.7644 14.479 16.1984C14.329 16.3544 14.209 16.3544 14.053 16.2064C13.57 15.7484 13.087 15.2884 12.603 14.8314C12.133 14.3874 11.661 13.9444 11.189 13.5014C11.126 13.4414 11.076 13.3764 11.083 13.2844C11.093 13.1594 11.165 13.0884 11.308 13.0644C11.569 13.0174 11.831 12.9714 12.093 12.9264L14.608 12.4864L17.578 11.9654L18.303 11.8384ZM11.564 12.4704C12.03 12.1514 12.496 11.8344 12.963 11.5174L17.473 8.44535C17.623 8.34335 17.718 8.36435 17.793 8.52635C18.104 9.19235 18.413 9.85935 18.723 10.5264C18.763 10.6124 18.801 10.6994 18.842 10.7864C18.875 10.8564 18.853 10.9134 18.811 10.9764C18.7564 11.0536 18.7101 11.1364 18.673 11.2234C18.64 11.3064 18.59 11.3514 18.5 11.3674C17.836 11.4854 17.173 11.6074 16.51 11.7254L14.156 12.1484L11.586 12.6104C11.55 12.6164 11.513 12.6104 11.476 12.6104L11.454 12.5694C11.491 12.5364 11.524 12.4984 11.564 12.4704ZM6.874 13.9964C6.58 13.9904 6.405 13.7044 6.546 13.4414C6.665 13.2194 6.797 13.0054 6.925 12.7884C7.293 12.1594 7.663 11.5324 8.029 10.9034C8.08872 10.8006 8.1751 10.716 8.279 10.6584C9.255 10.0974 10.229 9.53335 11.205 8.97135C11.267 8.93344 11.3349 8.90638 11.406 8.89135C11.4726 8.8782 11.5416 8.88482 11.6045 8.91041C11.6674 8.936 11.7215 8.97943 11.76 9.03535C11.8026 9.09 11.8285 9.1558 11.8345 9.22482C11.8405 9.29385 11.8265 9.36315 11.794 9.42435C11.647 9.73835 11.494 10.0494 11.344 10.3614C11.064 10.9334 10.784 11.5044 10.507 12.0774C10.4808 12.1407 10.4399 12.1969 10.3878 12.2414C10.3356 12.2859 10.2737 12.3174 10.207 12.3334C10.083 12.3629 9.96949 12.4262 9.87914 12.5162C9.78879 12.6062 9.72506 12.7194 9.695 12.8434C9.67981 12.9045 9.64882 12.9607 9.60512 13.0061C9.56142 13.0516 9.50655 13.0848 9.446 13.1024C8.644 13.3844 7.843 13.6724 7.042 13.9574C6.988 13.9774 6.931 13.9834 6.875 13.9974L6.874 13.9964ZM11.027 12.1704C11.031 12.1286 11.0425 12.088 11.061 12.0504L12.109 9.75335C12.327 9.27535 12.548 8.79835 12.763 8.31935C12.813 8.20935 12.886 8.15435 13.01 8.14935C13.337 8.13935 13.664 8.12235 13.991 8.10935L15.921 8.03635C16.147 8.02635 16.374 8.01135 16.601 8.00035C16.763 7.99335 16.874 8.09135 16.875 8.25035C16.882 8.34735 16.82 8.41035 16.74 8.46535L16.122 8.88635L12.428 11.3994L11.248 12.2034C11.2205 12.2242 11.191 12.2422 11.16 12.2574C11.09 12.2874 11.023 12.2454 11.027 12.1704ZM9.664 13.8204C9.501 14.0834 9.336 14.3444 9.172 14.6064C8.559 15.5864 7.946 16.5674 7.332 17.5464C7.30668 17.5933 7.27275 17.635 7.232 17.6694C7.126 17.7454 6.985 17.6924 6.935 17.5594C6.855 17.3454 6.779 17.1294 6.702 16.9144L6.033 15.0324C6.017 14.9854 6.006 14.9374 6 14.9144C6.001 14.7874 6.043 14.7334 6.162 14.6944C6.518 14.5794 6.874 14.4664 7.23 14.3534L9.245 13.7134L9.51 13.6314C9.573 13.6114 9.636 13.5844 9.688 13.6544C9.735 13.7174 9.696 13.7694 9.664 13.8204ZM25.782 16.4294L25.984 17.5854C25.99 17.6224 25.994 17.6604 26 17.7094C25.99 17.7594 25.979 17.8194 25.963 17.8774L25.698 18.8334C25.622 19.1084 25.404 19.1734 25.184 18.9874C24.733 18.6074 24.28 18.2274 23.827 17.8494C23.724 17.7634 23.681 17.6644 23.705 17.5284C23.7344 17.3929 23.7182 17.2516 23.659 17.1264C23.597 17.0034 23.617 16.8944 23.698 16.7864C24.068 16.2904 24.435 15.7924 24.804 15.2964L25.029 14.9924C25.104 14.8894 25.203 14.8394 25.329 14.8674C25.461 14.8974 25.529 14.9874 25.551 15.1164L25.781 16.4294H25.782ZM18.218 8.48535L18.198 8.44335C18.171 8.38335 18.16 8.31335 18.221 8.27935C18.2745 8.25535 18.335 8.25179 18.391 8.26935C18.479 8.29635 18.558 8.34635 18.641 8.38735L22.003 10.0664L22.6 10.3664C22.667 10.3994 22.72 10.4384 22.706 10.5224C22.692 10.6054 22.629 10.6234 22.556 10.6364C21.748 10.7804 20.941 10.9264 20.134 11.0714L20.055 11.0874C20.032 11.0724 19.988 11.0554 19.96 11.0234C19.8881 10.9329 19.7976 10.859 19.6945 10.8068C19.5915 10.7545 19.4784 10.725 19.363 10.7204C19.273 10.7164 19.227 10.6634 19.193 10.5884C19.051 10.2804 18.906 9.97435 18.763 9.66735L18.218 8.48535Z" fill="white"/>
</svg>
