<svg width="32" height="32" viewBox="0 0 32 32" fill="none" xmlns="http://www.w3.org/2000/svg">
<path d="M16 32C24.8366 32 32 24.8366 32 16C32 7.16344 24.8366 0 16 0C7.16344 0 0 7.16344 0 16C0 24.8366 7.16344 32 16 32Z" fill="#00A5FF"/>
<path fill-rule="evenodd" clip-rule="evenodd" d="M18.0801 12.574C18.0771 13.467 18.0711 14.359 18.0701 15.251C18.0691 16.735 18.0671 18.22 18.0741 19.704C18.0741 19.884 18.0241 19.991 17.8671 20.086C17.2571 20.453 16.6571 20.836 16.0131 21.239V20.914C16.0131 18.617 16.0101 16.319 16.0171 14.022C16.0181 13.831 15.9671 13.723 15.7951 13.63C15.2601 13.34 14.7371 13.028 14.2091 12.726C14.1511 12.693 14.0891 12.666 14.0001 12.622V12.937C14.0001 14.996 13.9961 17.055 14.0061 19.113C14.0061 19.32 13.9401 19.428 13.7661 19.525C13.2411 19.815 12.7281 20.125 12.2091 20.427C12.1361 20.469 12.0591 20.506 11.9431 20.567V20.247C11.9431 18.179 11.9381 16.111 11.9501 14.044C11.9511 13.804 11.8701 13.684 11.6701 13.574C11.0861 13.248 10.5131 12.902 9.90607 12.547C10.5781 12.16 11.2241 11.784 11.8771 11.423C11.9371 11.39 12.0621 11.433 12.1371 11.476C12.7061 11.796 13.2731 12.119 13.8341 12.452C13.9701 12.532 14.0691 12.542 14.2111 12.455C14.7291 12.138 15.2651 11.847 15.7811 11.525C15.9671 11.409 16.1011 11.428 16.2781 11.534C16.8751 11.891 17.4821 12.234 18.0861 12.581L18.0801 12.574ZM18.0861 12.581C18.1301 12.535 18.1681 12.476 18.2211 12.445C18.7841 12.117 19.3471 11.787 19.9201 11.477C19.9755 11.4528 20.0354 11.4405 20.0959 11.4411C20.1564 11.4416 20.2161 11.4549 20.2711 11.48C20.8531 11.793 21.4271 12.121 21.9941 12.459C22.0721 12.505 22.1501 12.627 22.1501 12.714C22.1591 14.877 22.1581 17.041 22.1541 19.204C22.1541 19.274 22.1361 19.384 22.0891 19.412C21.4411 19.798 20.7861 20.173 20.0911 20.575V20.246C20.0911 18.162 20.0891 16.078 20.0951 13.995C20.0951 13.818 20.0531 13.711 19.8871 13.62C19.2791 13.282 18.6811 12.924 18.0801 12.574L18.0861 12.581ZM6.93907 18.788C6.75166 18.7903 6.56565 18.7554 6.39175 18.6855C6.21785 18.6156 6.05947 18.5121 5.92574 18.3807C5.79201 18.2494 5.68556 18.093 5.61251 17.9204C5.53945 17.7478 5.50124 17.5624 5.50007 17.375C5.49822 17.1874 5.53359 17.0013 5.60413 16.8274C5.67468 16.6536 5.779 16.4955 5.91105 16.3622C6.04311 16.2289 6.20028 16.1232 6.37348 16.0511C6.54668 15.9789 6.73246 15.9419 6.92007 15.942C7.10766 15.9392 7.29393 15.9737 7.46809 16.0435C7.64224 16.1133 7.8008 16.2169 7.93458 16.3485C8.06835 16.48 8.17467 16.6368 8.24737 16.8098C8.32006 16.9827 8.35769 17.1684 8.35807 17.356C8.36019 17.5436 8.32503 17.7297 8.25463 17.9035C8.18423 18.0773 8.08 18.2355 7.94798 18.3687C7.81596 18.5019 7.65879 18.6076 7.48559 18.6796C7.3124 18.7516 7.12663 18.7884 6.93907 18.788ZM8.85407 23.075C8.49766 23.078 8.15457 22.9397 7.89975 22.6905C7.64492 22.4413 7.49908 22.1014 7.49407 21.745C7.4932 21.3885 7.63226 21.0459 7.88134 20.7908C8.13042 20.5358 8.46964 20.3886 8.82607 20.381C9.55107 20.365 10.1781 20.981 10.1861 21.718C10.1887 22.0744 10.0501 22.4173 9.80039 22.6717C9.55073 22.926 9.21045 23.0711 8.85407 23.075ZM7.76707 11.399C8.48707 11.401 9.06507 11.979 9.06507 12.694C9.06507 13.421 8.47307 14.006 7.74507 13.998C7.57483 13.9969 7.40652 13.9619 7.24993 13.8951C7.09334 13.8283 6.95159 13.731 6.83295 13.6089C6.7143 13.4868 6.62112 13.3423 6.55882 13.1839C6.49652 13.0255 6.46635 12.8562 6.47007 12.686C6.46844 12.5157 6.50095 12.3468 6.56568 12.1893C6.63041 12.0317 6.72605 11.8887 6.84695 11.7688C6.96784 11.6488 7.11155 11.5543 7.26959 11.4908C7.42762 11.4273 7.59678 11.3961 7.76707 11.399ZM25.2891 16.305C24.9668 16.305 24.6578 16.177 24.4299 15.9491C24.2021 15.7213 24.0741 15.4122 24.0741 15.09C24.0741 14.7678 24.2021 14.4587 24.4299 14.2309C24.6578 14.003 24.9668 13.875 25.2891 13.875C25.6113 13.875 25.9203 14.003 26.1482 14.2309C26.3761 14.4587 26.5041 14.7678 26.5041 15.09C26.5041 15.4122 26.3761 15.7213 26.1482 15.9491C25.9203 16.177 25.6113 16.305 25.2891 16.305ZM9.54207 8.61701C9.53992 8.47126 9.56702 8.32655 9.62178 8.19146C9.67653 8.05637 9.75783 7.93363 9.86086 7.83051C9.96388 7.72739 10.0865 7.64598 10.2216 7.5911C10.3566 7.53622 10.5013 7.50899 10.6471 7.51101C10.7929 7.51087 10.9374 7.5397 11.072 7.59585C11.2066 7.65199 11.3287 7.73432 11.4312 7.83806C11.5338 7.9418 11.6147 8.06488 11.6692 8.20014C11.7238 8.33541 11.7509 8.48017 11.7491 8.62601C11.7496 8.77174 11.7212 8.91613 11.6656 9.05081C11.6099 9.1855 11.5281 9.30782 11.4249 9.41068C11.3217 9.51354 11.1991 9.5949 11.0642 9.65006C10.9293 9.70521 10.7848 9.73307 10.6391 9.73201C10.4933 9.73271 10.3488 9.70421 10.2143 9.6482C10.0797 9.59219 9.95765 9.50979 9.85541 9.40587C9.75317 9.30196 9.67277 9.17862 9.61895 9.04313C9.56514 8.90765 9.539 8.76276 9.54207 8.61701ZM24.6361 20.91C24.4904 20.9131 24.3456 20.8869 24.2102 20.8329C24.0749 20.7789 23.9518 20.6982 23.8482 20.5957C23.7447 20.4932 23.6628 20.3709 23.6074 20.2361C23.5521 20.1013 23.5244 19.9567 23.5261 19.811C23.524 19.6653 23.5506 19.5206 23.6046 19.3852C23.6585 19.2499 23.7386 19.1265 23.8404 19.0221C23.9421 18.9178 24.0634 18.8346 24.1974 18.7772C24.3314 18.7199 24.4754 18.6896 24.6211 18.688C24.7667 18.6876 24.9111 18.716 25.0458 18.7714C25.1805 18.8268 25.3029 18.9083 25.4061 19.0111C25.5093 19.1139 25.5912 19.2361 25.6472 19.3706C25.7031 19.5051 25.7319 19.6493 25.7321 19.795C25.7357 19.9408 25.71 20.0859 25.6564 20.2215C25.6029 20.3572 25.5226 20.4807 25.4203 20.5847C25.3181 20.6888 25.196 20.7711 25.0612 20.827C24.9265 20.8829 24.7819 20.9111 24.6361 20.91ZM15.9861 6.85501C15.9858 6.9651 15.9632 7.074 15.9198 7.17517C15.8764 7.27635 15.8131 7.36772 15.7335 7.44382C15.654 7.51992 15.5599 7.57918 15.4569 7.61805C15.3539 7.65691 15.2441 7.67459 15.1341 7.67001C15.024 7.66799 14.9154 7.64391 14.8148 7.59918C14.7142 7.55445 14.6236 7.48999 14.5483 7.40961C14.4731 7.32924 14.4147 7.23458 14.3767 7.13124C14.3387 7.0279 14.3218 6.91799 14.3271 6.80801C14.3341 6.59032 14.426 6.38401 14.5832 6.23321C14.7404 6.08241 14.9503 5.99907 15.1681 6.00101C15.2783 6.00201 15.3871 6.02506 15.4883 6.06878C15.5894 6.11251 15.6808 6.17603 15.7571 6.25561C15.8333 6.33519 15.8928 6.42922 15.9321 6.53216C15.9715 6.63511 15.9898 6.74488 15.9861 6.85501ZM21.7571 24.357C21.6488 24.3576 21.5415 24.3365 21.4415 24.2951C21.3415 24.2537 21.2508 24.1927 21.1746 24.1158C21.0984 24.0389 21.0384 23.9475 20.9979 23.8471C20.9575 23.7467 20.9375 23.6392 20.9391 23.531C20.9385 23.4204 20.9602 23.3108 21.0029 23.2087C21.0457 23.1066 21.1085 23.0143 21.1878 22.9371C21.267 22.8599 21.3611 22.7994 21.4642 22.7594C21.5673 22.7193 21.6775 22.7005 21.7881 22.704C22.2481 22.71 22.6081 23.074 22.6061 23.534C22.6061 24.006 22.2381 24.361 21.7571 24.357ZM17.4771 26C17.3732 26.0022 17.27 25.9833 17.1737 25.9444C17.0773 25.9055 16.9899 25.8475 16.9167 25.7738C16.8435 25.7001 16.786 25.6123 16.7477 25.5158C16.7095 25.4192 16.6912 25.3158 16.6941 25.212C16.6937 25.108 16.714 25.0049 16.7539 24.9088C16.7939 24.8127 16.8526 24.7256 16.9266 24.6525C17.0007 24.5793 17.0885 24.5218 17.1851 24.483C17.2817 24.4443 17.385 24.4253 17.4891 24.427C17.699 24.4294 17.8996 24.5141 18.0475 24.6631C18.1955 24.812 18.279 25.0131 18.2801 25.223C18.2799 25.3272 18.2587 25.4303 18.218 25.5262C18.1772 25.622 18.1176 25.7088 18.0428 25.7812C17.9679 25.8537 17.8793 25.9103 17.7821 25.9479C17.6849 25.9855 17.5812 26.0032 17.4771 26ZM20.1051 8.27701C19.9168 8.27595 19.7366 8.20013 19.6042 8.06623C19.4718 7.93233 19.398 7.75131 19.3991 7.56301C19.4001 7.37471 19.476 7.19454 19.6099 7.06214C19.7438 6.92973 19.9248 6.85595 20.1131 6.85701C20.4971 6.85901 20.8231 7.18801 20.8221 7.57101C20.8172 7.7586 20.7397 7.93699 20.606 8.06865C20.4723 8.20032 20.2927 8.275 20.1051 8.27701ZM13.5671 24.559C13.5668 24.6407 13.5502 24.7216 13.5182 24.7968C13.4862 24.872 13.4395 24.9401 13.3808 24.9969C13.3221 25.0538 13.2525 25.0983 13.1763 25.1279C13.1001 25.1574 13.0188 25.1714 12.9371 25.169C12.8552 25.169 12.7743 25.1523 12.6991 25.1201C12.6238 25.088 12.5559 25.0409 12.4994 24.9817C12.4428 24.9226 12.3989 24.8526 12.3701 24.776C12.3414 24.6994 12.3284 24.6177 12.3321 24.536C12.3331 24.4545 12.3502 24.374 12.3824 24.2991C12.4146 24.2242 12.4612 24.1564 12.5197 24.0996C12.5781 24.0427 12.6471 23.998 12.7229 23.9678C12.7986 23.9377 12.8796 23.9228 12.9611 23.924C13.0426 23.9258 13.1229 23.9437 13.1975 23.9766C13.2721 24.0095 13.3395 24.0568 13.3958 24.1158C13.4521 24.1748 13.4962 24.2443 13.5256 24.3204C13.555 24.3964 13.5691 24.4775 13.5671 24.559ZM24.2301 10.58C24.233 10.6505 24.2219 10.7209 24.1973 10.7871C24.1728 10.8533 24.1353 10.914 24.0871 10.9655C24.0389 11.0171 23.9809 11.0585 23.9165 11.0875C23.8521 11.1164 23.7826 11.1322 23.7121 11.134C23.57 11.1364 23.4326 11.0826 23.33 10.9843C23.2274 10.886 23.1677 10.7511 23.1641 10.609C23.1613 10.5385 23.1726 10.4682 23.1973 10.4022C23.2221 10.3362 23.2598 10.2758 23.3083 10.2245C23.3567 10.1733 23.4149 10.1322 23.4794 10.1038C23.544 10.0754 23.6136 10.0602 23.6841 10.059C23.9831 10.049 24.2241 10.28 24.2301 10.581V10.58Z" fill="white"/>
</svg>
