<svg width="32" height="32" viewBox="0 0 32 32" fill="none" xmlns="http://www.w3.org/2000/svg">
<path d="M16 32C24.8366 32 32 24.8366 32 16C32 7.16344 24.8366 0 16 0C7.16344 0 0 7.16344 0 16C0 24.8366 7.16344 32 16 32Z" fill="#20EE82"/>
<path fill-rule="evenodd" clip-rule="evenodd" d="M16 7.5C18.2543 7.5 20.4163 8.39553 22.0104 9.98959C23.6045 11.5837 24.5 13.7457 24.5 16V24.5H16C13.7457 24.5 11.5837 23.6045 9.98959 22.0104C8.39553 20.4163 7.5 18.2543 7.5 16C7.5 13.7457 8.39553 11.5837 9.98959 9.98959C11.5837 8.39553 13.7457 7.5 16 7.5ZM21.1 21.1V16.077C21.1 13.257 18.845 10.914 16.026 10.9C15.3521 10.8974 14.6843 11.0281 14.0612 11.2848C13.4381 11.5415 12.872 11.919 12.3955 12.3955C11.919 12.872 11.5415 13.4381 11.2848 14.0612C11.0281 14.6843 10.8974 15.3521 10.9 16.026C10.914 18.845 13.258 21.1 16.077 21.1H21.1Z" fill="white"/>
</svg>
