<svg width="32" height="32" viewBox="0 0 32 32" fill="none" xmlns="http://www.w3.org/2000/svg">
<path d="M16 32C24.8366 32 32 24.8366 32 16C32 7.16344 24.8366 0 16 0C7.16344 0 0 7.16344 0 16C0 24.8366 7.16344 32 16 32Z" fill="#3058A6"/>
<path d="M15.9946 27.2279C9.79664 27.2279 4.77164 22.2029 4.77164 16.0049C4.77164 9.80689 9.79664 4.78189 15.9946 4.78189C22.1926 4.78189 27.2176 9.80689 27.2176 16.0049C27.2176 22.2029 22.1926 27.2279 15.9946 27.2279ZM15.9946 4.06689C9.41164 4.06689 4.05664 9.42189 4.05664 16.0049C4.05664 22.5879 9.41164 27.9429 15.9946 27.9429C22.5776 27.9429 27.9326 22.5879 27.9326 16.0049C27.9326 9.42189 22.5776 4.06689 15.9946 4.06689Z" fill="white"/>
<path fill-rule="evenodd" clip-rule="evenodd" d="M20.1983 20.2747L19.5753 22.9737L19.4253 23.6267H18.7553L15.3103 23.6247H15.2963C13.9153 23.6017 12.8313 23.2347 12.1203 22.5867C12.7343 23.6697 14.0383 24.2967 15.8583 24.3267H15.8723L19.3163 24.3287H19.9863L20.1373 23.6757L20.7603 20.9767L20.2743 19.9457L20.1983 20.2747ZM19.1153 8.70366L18.6233 7.68066L18.5533 8.00066L18.0863 10.1277H18.8023L19.1153 8.70366ZM21.6023 11.1647L20.9823 13.7897L20.8283 14.4377H17.0953L16.1473 18.7657C16.1273 18.8897 16.1153 19.0157 16.1153 19.0857C16.1153 19.1467 16.1223 19.1857 16.1283 19.2047C16.1995 19.2314 16.2752 19.2443 16.3513 19.2427H16.7593L17.6573 15.1407H21.3903L21.5433 14.4917L22.1633 11.8667L21.6813 10.8307L21.6013 11.1647H21.6023ZM12.3403 14.4377H9.73926L10.6353 15.1407H12.1873L12.3403 14.4377Z" fill="white"/>
<path fill-rule="evenodd" clip-rule="evenodd" d="M16.4332 20.0858H16.3382C15.6142 20.0668 15.2722 19.6898 15.2722 19.0858C15.2722 18.9418 15.2962 18.7508 15.3202 18.6078L16.4182 13.5958H20.1622L20.7822 10.9708H17.0382L17.7302 7.8208H14.6762L13.9832 10.9708H10.6692L10.0732 13.5958H13.3872L12.0972 19.4908C12.0272 19.7768 12.0022 20.1108 12.0022 20.2778C12.0022 21.9598 13.3292 22.7498 15.3102 22.7828L18.7542 22.7838L19.3772 20.0858H16.4332Z" fill="white"/>
</svg>
