<svg width="32" height="32" viewBox="0 0 32 32" fill="none" xmlns="http://www.w3.org/2000/svg">
<path d="M16 32C24.8366 32 32 24.8366 32 16C32 7.16344 24.8366 0 16 0C7.16344 0 0 7.16344 0 16C0 24.8366 7.16344 32 16 32Z" fill="#1C98F7"/>
<path fill-rule="evenodd" clip-rule="evenodd" d="M16.28 23.325C16.9837 23.2761 17.6813 23.1623 18.364 22.985C19.2065 23.2421 20.0972 23.3003 20.966 23.155C21.0004 23.1495 21.0352 23.1468 21.07 23.147C21.38 23.147 21.787 23.327 22.38 23.707V23.082C22.3801 22.9739 22.409 22.8677 22.4636 22.7744C22.5183 22.6811 22.5968 22.604 22.691 22.551C22.949 22.405 23.189 22.237 23.408 22.052C24.272 21.32 24.76 20.344 24.76 19.31C24.76 18.963 24.705 18.626 24.601 18.304C24.862 17.817 25.073 17.305 25.228 16.774C25.7292 17.525 25.9977 18.4071 26 19.31C26 20.715 25.346 22.025 24.215 22.983C24.0262 23.1428 23.8275 23.2904 23.62 23.425V24.886C23.62 25.389 23.04 25.678 22.631 25.379C22.2442 25.0899 21.8438 24.8196 21.431 24.569C21.3128 24.4983 21.1898 24.4358 21.063 24.382C20.723 24.433 20.375 24.459 20.024 24.459C18.612 24.459 17.308 24.036 16.281 23.325H16.28ZM8.814 20.403C7.03 18.89 6 16.829 6 14.62C6 10.107 10.258 6.5 15.457 6.5C20.657 6.5 24.915 10.107 24.915 14.62C24.915 19.134 20.656 22.741 15.457 22.741C14.873 22.741 14.295 22.696 13.729 22.606C13.484 22.664 12.505 23.246 11.094 24.276C10.583 24.65 9.858 24.289 9.858 23.66V21.168C9.4926 20.9376 9.14375 20.682 8.814 20.403ZM13.763 21.069C13.806 21.069 13.85 21.072 13.893 21.079C14.403 21.165 14.927 21.209 15.457 21.209C19.849 21.209 23.364 18.231 23.364 14.62C23.364 11.01 19.849 8.032 15.457 8.032C11.067 8.032 7.55 11.01 7.55 14.62C7.55 16.366 8.371 18.01 9.823 19.24C10.188 19.548 10.589 19.828 11.019 20.072C11.26 20.208 11.409 20.462 11.409 20.736V22.173C12.525 21.424 13.259 21.069 13.763 21.069ZM11.426 16.153C10.741 16.153 10.186 15.603 10.186 14.927C10.186 14.25 10.741 13.701 11.426 13.701C12.111 13.701 12.666 14.25 12.666 14.927C12.666 15.604 12.111 16.153 11.426 16.153ZM15.457 16.153C14.772 16.153 14.217 15.603 14.217 14.927C14.217 14.25 14.772 13.701 15.457 13.701C16.142 13.701 16.697 14.25 16.697 14.927C16.697 15.604 16.142 16.153 15.457 16.153ZM19.488 16.153C18.803 16.153 18.248 15.603 18.248 14.927C18.248 14.25 18.803 13.701 19.488 13.701C20.173 13.701 20.728 14.25 20.728 14.927C20.728 15.604 20.173 16.153 19.488 16.153Z" fill="white"/>
</svg>
