<svg width="32" height="32" viewBox="0 0 32 32" fill="none" xmlns="http://www.w3.org/2000/svg">
<path d="M16 32C24.8366 32 32 24.8366 32 16C32 7.16344 24.8366 0 16 0C7.16344 0 0 7.16344 0 16C0 24.8366 7.16344 32 16 32Z" fill="#3B5998"/>
<path fill-rule="evenodd" clip-rule="evenodd" d="M14.1162 6.00977H15.9962V11.8918L14.1162 9.92877V6.00977Z" fill="white"/>
<path fill-rule="evenodd" clip-rule="evenodd" d="M6.01077 7.9927H10.9598C12.6368 9.7477 14.3208 11.4997 15.9978 13.2587C16.9688 12.2497 17.9368 11.2337 18.9038 10.2217C19.6188 9.4807 20.3308 8.7357 21.0438 7.9917H25.9808C23.6768 10.3217 21.3758 12.6537 19.0708 14.9817C18.8288 15.2247 18.5858 15.4697 18.3488 15.7157C18.4068 15.7777 18.4688 15.8387 18.5208 15.9047L25.2918 22.7507L25.9828 23.4467H22.1528C22.0538 23.4467 21.9548 23.4527 21.8578 23.4397C21.5848 23.4317 21.3108 23.4437 21.0378 23.4337C20.5428 22.9227 20.0538 22.4047 19.5588 21.8917C18.5858 20.8797 17.6168 19.8617 16.6438 18.8477C16.4278 18.6237 16.2168 18.3937 15.9958 18.1757C15.5258 18.6757 15.0438 19.1687 14.5708 19.6687L11.8938 22.4627C11.5818 22.7877 11.2738 23.1147 10.9598 23.4337C10.6898 23.4417 10.4178 23.4337 10.1458 23.4377C9.99077 23.4567 9.83377 23.4437 9.67877 23.4477H6.00977L13.2778 16.0977C13.4028 15.9717 13.5268 15.8447 13.6478 15.7157L6.00977 7.9927H6.01077Z" fill="white"/>
<path fill-rule="evenodd" clip-rule="evenodd" d="M16 19.5308C16.626 20.1938 17.26 20.8498 17.888 21.5108C17.892 22.8178 17.888 24.1228 17.888 25.4308H15.998C15.998 23.4638 15.998 21.4978 16.002 19.5308H16Z" fill="white"/>
</svg>
