<svg width="32" height="32" viewBox="0 0 32 32" fill="none" xmlns="http://www.w3.org/2000/svg">
<path d="M16 32C24.8366 32 32 24.8366 32 16C32 7.16344 24.8366 0 16 0C7.16344 0 0 7.16344 0 16C0 24.8366 7.16344 32 16 32Z" fill="#3165D4"/>
<path fill-rule="evenodd" clip-rule="evenodd" d="M8.84588 7.4281C9.39688 6.9551 10.1699 6.5681 10.8419 6.8411C12.0519 7.3311 15.2979 13.8851 15.2979 13.8851C15.2979 13.8851 19.8409 7.4251 21.4719 6.8371C22.0289 6.6361 22.7919 6.9891 23.3739 7.4251C25.4159 8.9531 25.6269 11.0851 25.4509 11.6771C25.2289 12.4211 13.9459 26.7501 13.9459 26.7501C13.6079 26.6121 6.92288 14.1931 6.56088 12.0681C6.21488 10.0371 7.39288 8.6571 8.84588 7.4281Z" fill="white"/>
</svg>
