<svg width="32" height="32" viewBox="0 0 32 32" fill="none" xmlns="http://www.w3.org/2000/svg">
<path d="M16 32C24.8366 32 32 24.8366 32 16C32 7.16344 24.8366 0 16 0C7.16344 0 0 7.16344 0 16C0 24.8366 7.16344 32 16 32Z" fill="#00ACFF"/>
<path fill-rule="evenodd" clip-rule="evenodd" d="M15.0798 20.156C15.1419 20.1302 15.2086 20.117 15.2759 20.1171C15.3432 20.1171 15.4098 20.1305 15.4719 20.1565C15.534 20.1824 15.5903 20.2204 15.6377 20.2682C15.685 20.316 15.7225 20.3727 15.7478 20.435C15.7996 20.5608 15.7995 20.7019 15.7476 20.8276C15.6957 20.9534 15.5962 21.0534 15.4708 21.106L12.0648 22.52L11.6128 25H9.26879L9.52579 23.574L8.14379 24.147C8.08164 24.1728 8.015 24.1861 7.94771 24.186C7.88041 24.1859 7.8138 24.1725 7.75171 24.1466C7.68961 24.1207 7.63326 24.0827 7.58591 24.0349C7.53855 23.9871 7.50113 23.9304 7.47579 23.868C7.42432 23.7424 7.42455 23.6015 7.47642 23.476C7.5283 23.3506 7.62762 23.2506 7.75279 23.198L9.74279 22.372L9.89279 21.533L7.20579 22.648C7.1437 22.6737 7.07715 22.6868 7.00996 22.6867C6.94278 22.6865 6.87629 22.6731 6.81431 22.6472C6.75233 22.6212 6.69608 22.5833 6.6488 22.5356C6.60152 22.4879 6.56413 22.4313 6.53879 22.369C6.48701 22.2433 6.48707 22.1021 6.53897 21.9764C6.59086 21.8507 6.69038 21.7506 6.81579 21.698L10.1088 20.331L12.5068 7.01004H19.2798C23.4268 6.86704 25.4998 8.25204 25.4998 11.165C25.4998 14.86 22.7978 17.718 18.2148 17.718H12.9398L12.6568 19.274L14.1438 18.657C14.2059 18.6314 14.2724 18.6183 14.3396 18.6184C14.4068 18.6186 14.4733 18.632 14.5353 18.6579C14.5973 18.6838 14.6535 18.7218 14.7008 18.7695C14.7481 18.8172 14.7854 18.8738 14.8108 18.936C14.8623 19.0617 14.862 19.2026 14.8102 19.328C14.7583 19.4535 14.659 19.5534 14.5338 19.606L12.4368 20.477L12.2838 21.317L15.0798 20.156ZM14.5098 9.10904L13.3378 15.534H18.5558C21.7678 15.534 22.9858 13.349 22.9858 11.764C22.9858 10.18 22.2198 9.10904 19.6638 9.10904H14.5098Z" fill="white"/>
</svg>
