<svg width="32" height="32" viewBox="0 0 32 32" fill="none" xmlns="http://www.w3.org/2000/svg">
<path d="M16 32C24.8366 32 32 24.8366 32 16C32 7.16344 24.8366 0 16 0C7.16344 0 0 7.16344 0 16C0 24.8366 7.16344 32 16 32Z" fill="#396A28"/>
<path fill-rule="evenodd" clip-rule="evenodd" d="M18.073 13.212L16 11.14L13.913 13.226L11.749 11.062L16 5L20.28 11.005L18.073 13.212ZM13.19 13.95L11.14 16L13.212 18.073L11.056 20.229L5 16L10.99 11.75L13.19 13.95ZM18.774 18.087L20.86 16L18.796 13.936L21.022 11.71L27 16L20.956 20.269L18.774 18.087ZM13.936 18.797L16 20.86L18.05 18.81L20.232 20.993L16 27L11.796 20.936L13.936 18.797ZM16 12.527L19.472 16L16 19.472L12.528 16L16 12.527Z" fill="white"/>
</svg>
