<svg width="32" height="32" viewBox="0 0 32 32" fill="none" xmlns="http://www.w3.org/2000/svg">
<path d="M16 32C24.8366 32 32 24.8366 32 16C32 7.16344 24.8366 0 16 0C7.16344 0 0 7.16344 0 16C0 24.8366 7.16344 32 16 32Z" fill="#FEC807"/>
<path fill-rule="evenodd" clip-rule="evenodd" d="M24.9842 17.6307H20.0562L19.1763 14.9907H24.9762C25.1746 14.9907 25.3649 14.9119 25.5052 14.7716C25.6454 14.6313 25.7243 14.441 25.7243 14.2427C25.7243 14.0443 25.6454 13.854 25.5052 13.7137C25.3649 13.5735 25.1746 13.4947 24.9762 13.4947H18.7003L16.1833 5.82166C16.1513 5.56816 16.0301 5.33434 15.8413 5.1622C15.6525 4.99005 15.4085 4.89085 15.1531 4.88242C14.8977 4.87399 14.6477 4.95687 14.448 5.11619C14.2482 5.27551 14.1118 5.50082 14.0632 5.75166L8.04325 24.0547C8.02725 24.1547 8.02725 24.2547 8.04325 24.3547C8.04742 24.5985 8.13953 24.8327 8.30262 25.0141C8.46571 25.1954 8.68882 25.3118 8.93088 25.3417C9.17295 25.3716 9.41768 25.3132 9.62004 25.177C9.82241 25.0408 9.96879 24.8362 10.0322 24.6007L15.0833 9.20066L16.5262 13.4947H15.2762C15.0779 13.4947 14.8876 13.5735 14.7473 13.7137C14.6071 13.854 14.5282 14.0443 14.5282 14.2427C14.5282 14.441 14.6071 14.6313 14.7473 14.7716C14.8876 14.9119 15.0779 14.9907 15.2762 14.9907H17.0362L17.9163 17.6307H15.2762C15.178 17.6307 15.0808 17.65 14.99 17.6876C14.8993 17.7252 14.8168 17.7803 14.7473 17.8497C14.6779 17.9192 14.6228 18.0017 14.5852 18.0924C14.5476 18.1832 14.5282 18.2804 14.5282 18.3787C14.5282 18.4769 14.5476 18.5742 14.5852 18.6649C14.6228 18.7557 14.6779 18.8381 14.7473 18.9076C14.8168 18.977 14.8993 19.0321 14.99 19.0697C15.0808 19.1073 15.178 19.1267 15.2762 19.1267H18.4363L19.8612 23.3507H12.3022C12.0222 23.3507 11.7536 23.4619 11.5555 23.66C11.3575 23.858 11.2463 24.1266 11.2463 24.4067C11.2463 24.6867 11.3575 24.9553 11.5555 25.1534C11.7536 25.3514 12.0222 25.4627 12.3022 25.4627H21.2432C21.7972 25.4627 22.2463 25.0137 22.2463 24.4597C22.2468 24.3076 22.2137 24.1574 22.1493 24.0197L20.5392 19.1267H24.9392C25.0375 19.1267 25.1347 19.1073 25.2255 19.0697C25.3162 19.0321 25.3987 18.977 25.4682 18.9076C25.5376 18.8381 25.5927 18.7557 25.6303 18.6649C25.6679 18.5742 25.6873 18.4769 25.6873 18.3787C25.6873 18.2804 25.6679 18.1832 25.6303 18.0924C25.5927 18.0017 25.5376 17.9192 25.4682 17.8497C25.3987 17.7803 25.3162 17.7252 25.2255 17.6876C25.1347 17.65 25.0375 17.6307 24.9392 17.6307H24.9832H24.9842Z" fill="white"/>
</svg>
