<svg width="32" height="32" viewBox="0 0 32 32" fill="none" xmlns="http://www.w3.org/2000/svg">
<path d="M16 32C24.8366 32 32 24.8366 32 16C32 7.16344 24.8366 0 16 0C7.16344 0 0 7.16344 0 16C0 24.8366 7.16344 32 16 32Z" fill="#104FCA"/>
<path d="M7 9.56787L11.234 16.6709V23.9999C8.896 23.9999 7 22.1639 7 19.8989V9.56787Z" fill="white" fill-opacity="0.5"/>
<path d="M20.7646 16.663L24.9966 9.56396H24.9986V19.9C24.9996 22.164 23.1036 24 20.7646 24V16.663Z" fill="white" fill-opacity="0.6"/>
<path d="M15.997 16.4579L13.88 20.0099C13.441 19.8999 12.969 19.4739 12.464 18.7329L7 9.56788C9.025 8.43488 11.615 9.10788 12.784 11.0679L15.997 16.4579Z" fill="white" fill-opacity="0.8"/>
<path d="M19.2159 11.0598C20.3849 9.09779 22.9749 8.42579 24.9999 9.55879L19.5359 18.7238C19.1412 19.2959 18.6128 19.7629 17.9966 20.0843C17.3803 20.4057 16.6949 20.5716 15.9999 20.5678C15.3417 20.5691 14.6919 20.4203 14.0999 20.1328L13.8799 20.0098L19.2159 11.0598Z" fill="white"/>
</svg>
