<svg width="32" height="32" viewBox="0 0 32 32" fill="none" xmlns="http://www.w3.org/2000/svg">
<path d="M16 32C24.8366 32 32 24.8366 32 16C32 7.16344 24.8366 0 16 0C7.16344 0 0 7.16344 0 16C0 24.8366 7.16344 32 16 32Z" fill="#00EA90"/>
<path d="M18.2148 7.50781L25.9918 11.5758L18.4988 16.1688L18.2148 7.50781ZM13.7848 24.4488L6.00781 20.3808L13.5008 15.7868L13.7848 24.4488Z" fill="white" fill-opacity="0.698"/>
<path d="M25.9918 20.679L15.1788 27V18.131L25.9918 11.576V20.679ZM6.00781 11.279L16.8208 5V13.834L6.00781 20.381V11.278V11.279Z" fill="white"/>
</svg>
