<svg width="32" height="32" viewBox="0 0 32 32" fill="none" xmlns="http://www.w3.org/2000/svg">
<path d="M16 32C24.8366 32 32 24.8366 32 16C32 7.16344 24.8366 0 16 0C7.16344 0 0 7.16344 0 16C0 24.8366 7.16344 32 16 32Z" fill="#0D1E30"/>
<g filter="url(#filter0_d_578_6197)">
<path d="M15.7246 6.05958C16.2036 5.81258 16.7886 6.38358 16.5346 6.85458C16.3856 7.23858 15.8246 7.34058 15.5386 7.04758C15.2356 6.76758 15.3346 6.21158 15.7246 6.05858V6.05958ZM10.5696 6.60558C10.8606 6.48758 11.2296 6.74958 11.1996 7.06258C11.2296 7.40058 10.8096 7.65058 10.5126 7.48958C10.1196 7.33958 10.1646 6.71158 10.5696 6.60558ZM21.1276 7.49858C20.6726 7.44458 20.6006 6.74058 21.0376 6.59858C21.3776 6.43658 21.6896 6.74158 21.7396 7.05858C21.6676 7.32858 21.4376 7.57658 21.1276 7.49858ZM11.7426 8.76358C12.2296 8.46058 12.9236 8.91158 12.8486 9.46858C12.8236 10.0296 12.0656 10.3556 11.6376 9.97558C11.2236 9.67758 11.2866 8.99358 11.7426 8.76358ZM19.1726 9.08558C19.3896 8.53558 20.2696 8.51758 20.5166 9.05358C20.7616 9.47058 20.4606 9.98758 20.0256 10.1296C19.4486 10.2356 18.9016 9.62158 19.1726 9.08558ZM15.1036 10.0986C15.0986 9.62458 15.5366 9.27258 15.9936 9.23958C16.2976 9.29958 16.6276 9.42658 16.7576 9.72758C17.0006 10.1436 16.7846 10.7146 16.3476 10.9056C16.1476 11.0156 15.9096 10.9746 15.6916 10.9616C15.3586 10.8016 15.0776 10.4846 15.1036 10.0986ZM7.43756 10.7886C7.88256 10.5186 8.48256 11.0086 8.31356 11.4846C8.22156 11.8956 7.65956 12.0626 7.33856 11.8006C6.99556 11.5546 7.04956 10.9636 7.43856 10.7876L7.43756 10.7886ZM23.8996 10.7866C24.2766 10.4986 24.8996 10.8296 24.8536 11.2976C24.8796 11.7246 24.3406 12.0476 23.9666 11.8276C23.5546 11.6446 23.5116 11.0206 23.8996 10.7876V10.7866ZM17.2596 11.6376C17.8816 11.4176 18.6216 11.6806 18.9756 12.2276C19.4436 12.8946 19.1956 13.9106 18.4686 14.2936C17.7166 14.7466 16.6176 14.3636 16.3386 13.5356C16.0236 12.7956 16.4836 11.8696 17.2586 11.6376H17.2596ZM13.6066 11.7106C14.2966 11.3906 15.2256 11.6586 15.5586 12.3526C15.9506 13.0286 15.6476 13.9696 14.9466 14.3186C14.2446 14.7116 13.2536 14.4136 12.9146 13.6886C12.5336 12.9866 12.8716 12.0336 13.6066 11.7106ZM9.94956 12.9396C10.0026 12.5026 10.4216 12.2176 10.8446 12.1876C11.0652 12.2109 11.2713 12.3083 11.4294 12.464C11.5874 12.6197 11.6879 12.8244 11.7146 13.0446C11.6846 13.4946 11.3316 13.9326 10.8476 13.9306C10.3146 13.9756 9.84756 13.4536 9.94956 12.9396ZM20.7516 12.2836C21.2986 11.9706 22.0576 12.4256 22.0336 13.0436C22.0706 13.6986 21.2306 14.1596 20.6866 13.7756C20.1206 13.4556 20.1646 12.5556 20.7516 12.2836ZM12.1216 14.5906C12.7596 14.4176 13.4916 14.7136 13.8046 15.2916C14.1476 15.8736 14.0076 16.6816 13.4746 17.1096C12.7896 17.7356 11.5286 17.4836 11.1646 16.6296C10.7456 15.8466 11.2546 14.7966 12.1206 14.5896L12.1216 14.5906ZM19.0486 14.5876C19.6696 14.4126 20.3996 14.6476 20.7336 15.2046C21.1756 15.8416 20.9646 16.7926 20.3076 17.2026C19.6176 17.6796 18.5516 17.4296 18.1716 16.6836C17.7116 15.9126 18.1746 14.8226 19.0486 14.5876ZM8.00856 15.3136C8.56056 15.1086 9.17256 15.7076 8.94856 16.2466C8.81256 16.7366 8.10956 16.9186 7.74656 16.5566C7.32156 16.2166 7.47856 15.4616 8.00856 15.3136ZM22.9776 16.0956C22.9672 15.8755 23.0442 15.6601 23.1917 15.4965C23.3393 15.3328 23.5455 15.234 23.7656 15.2216C24.1436 15.2816 24.5116 15.5816 24.4816 15.9866C24.5166 16.5216 23.8616 16.8846 23.3976 16.6336C23.1806 16.5246 23.0696 16.3056 22.9776 16.0956ZM5.29356 15.5796C5.62556 15.4366 6.03656 15.7196 5.96056 16.0826C5.94256 16.4936 5.32556 16.6526 5.09956 16.3086C4.89956 16.0696 5.01956 15.7026 5.29356 15.5786V15.5796ZM26.2426 15.5706C26.4766 15.4076 26.8526 15.5246 26.9446 15.7936C27.1016 16.0876 26.8136 16.4896 26.4776 16.4406C26.0056 16.4826 25.8536 15.7756 26.2426 15.5706ZM13.9256 17.5436C14.7996 17.3206 15.7396 18.0376 15.7456 18.9236C15.8016 19.8186 14.8756 20.6116 13.9816 20.4056C13.2896 20.2956 12.7466 19.6396 12.7696 18.9526C12.7676 18.2946 13.2716 17.6826 13.9256 17.5436ZM17.3876 17.5426C18.2746 17.2986 19.2426 18.0286 19.2286 18.9346C19.2756 19.8126 18.3786 20.5796 17.5026 20.4046C16.6776 20.3006 16.0696 19.4096 16.2996 18.6216C16.4156 18.0976 16.8616 17.6716 17.3876 17.5416V17.5426ZM10.7116 18.0876C11.3256 17.9846 11.9016 18.6576 11.6526 19.2316C11.4706 19.8436 10.5666 20.0086 10.1666 19.5096C9.69856 19.0296 10.0486 18.1536 10.7116 18.0876ZM20.8656 18.1146C21.4136 17.8886 22.0856 18.3546 22.0436 18.9396C22.0656 19.5826 21.2356 20.0266 20.7006 19.6506C20.0936 19.3136 20.2046 18.3206 20.8656 18.1146ZM23.7036 20.9146C23.4896 20.5216 23.8786 20.0006 24.3236 20.0736C24.5436 20.0696 24.6986 20.2406 24.8396 20.3846C24.8686 20.6176 24.9176 20.8956 24.7206 21.0746C24.4536 21.4076 23.8486 21.3126 23.7036 20.9146ZM7.43556 20.1826C7.85056 19.9116 8.44756 20.3166 8.35356 20.7926C8.30356 21.2156 7.76356 21.4566 7.40856 21.2166C7.02656 20.9996 7.04056 20.3806 7.43556 20.1826ZM15.6286 21.0656C16.1716 20.8306 16.8636 21.2956 16.8116 21.8836C16.8516 22.5336 15.9966 22.9836 15.4656 22.5936C14.8756 22.2586 14.9746 21.2726 15.6286 21.0656ZM11.8346 21.9366C12.2966 21.6976 12.9166 22.1106 12.8746 22.6206C12.8886 23.0386 12.4746 23.3946 12.0546 23.3326C11.7076 23.3256 11.4816 23.0186 11.3696 22.7276C11.3756 22.4106 11.5086 22.0576 11.8346 21.9376V21.9366ZM19.5206 21.9446C19.9966 21.6546 20.6726 22.0706 20.6276 22.6146C20.6396 23.1846 19.8756 23.5486 19.4326 23.1746C19.0046 22.8816 19.0566 22.1776 19.5206 21.9446ZM20.8576 25.1946C20.6456 24.8806 20.8946 24.5016 21.2376 24.4296C21.5146 24.4846 21.8076 24.6896 21.7486 25.0036C21.7086 25.4306 21.0746 25.5606 20.8576 25.1956V25.1946ZM10.2466 24.9216C10.3306 24.6716 10.5346 24.4246 10.8336 24.4896C11.2686 24.5196 11.3976 25.1656 11.0166 25.3646C10.6746 25.5916 10.2766 25.2806 10.2466 24.9216ZM15.3666 25.2086C15.4496 24.8386 15.9346 24.6596 16.2546 24.8556C16.4666 24.9456 16.5286 25.1776 16.5826 25.3756C16.554 25.4784 16.5273 25.5818 16.5026 25.6856C16.3716 25.8376 16.2026 25.9906 15.9846 25.9856C15.5796 26.0326 15.2136 25.5816 15.3656 25.2086H15.3666Z" fill="black"/>
</g>
<path d="M15.7246 6.05958C16.2036 5.81258 16.7886 6.38358 16.5346 6.85458C16.3856 7.23858 15.8246 7.34058 15.5386 7.04758C15.2356 6.76758 15.3346 6.21158 15.7246 6.05858V6.05958ZM10.5696 6.60558C10.8606 6.48758 11.2296 6.74958 11.1996 7.06258C11.2296 7.40058 10.8096 7.65058 10.5126 7.48958C10.1196 7.33958 10.1646 6.71158 10.5696 6.60558ZM21.1276 7.49858C20.6726 7.44458 20.6006 6.74058 21.0376 6.59858C21.3776 6.43658 21.6896 6.74158 21.7396 7.05858C21.6676 7.32858 21.4376 7.57658 21.1276 7.49858ZM11.7426 8.76358C12.2296 8.46058 12.9236 8.91158 12.8486 9.46858C12.8236 10.0296 12.0656 10.3556 11.6376 9.97558C11.2236 9.67758 11.2866 8.99358 11.7426 8.76358ZM19.1726 9.08558C19.3896 8.53558 20.2696 8.51758 20.5166 9.05358C20.7616 9.47058 20.4606 9.98758 20.0256 10.1296C19.4486 10.2356 18.9016 9.62158 19.1726 9.08558ZM15.1036 10.0986C15.0986 9.62458 15.5366 9.27258 15.9936 9.23958C16.2976 9.29958 16.6276 9.42658 16.7576 9.72758C17.0006 10.1436 16.7846 10.7146 16.3476 10.9056C16.1476 11.0156 15.9096 10.9746 15.6916 10.9616C15.3586 10.8016 15.0776 10.4846 15.1036 10.0986ZM7.43756 10.7886C7.88256 10.5186 8.48256 11.0086 8.31356 11.4846C8.22156 11.8956 7.65956 12.0626 7.33856 11.8006C6.99556 11.5546 7.04956 10.9636 7.43856 10.7876L7.43756 10.7886ZM23.8996 10.7866C24.2766 10.4986 24.8996 10.8296 24.8536 11.2976C24.8796 11.7246 24.3406 12.0476 23.9666 11.8276C23.5546 11.6446 23.5116 11.0206 23.8996 10.7876V10.7866ZM17.2596 11.6376C17.8816 11.4176 18.6216 11.6806 18.9756 12.2276C19.4436 12.8946 19.1956 13.9106 18.4686 14.2936C17.7166 14.7466 16.6176 14.3636 16.3386 13.5356C16.0236 12.7956 16.4836 11.8696 17.2586 11.6376H17.2596ZM13.6066 11.7106C14.2966 11.3906 15.2256 11.6586 15.5586 12.3526C15.9506 13.0286 15.6476 13.9696 14.9466 14.3186C14.2446 14.7116 13.2536 14.4136 12.9146 13.6886C12.5336 12.9866 12.8716 12.0336 13.6066 11.7106ZM9.94956 12.9396C10.0026 12.5026 10.4216 12.2176 10.8446 12.1876C11.0652 12.2109 11.2713 12.3083 11.4294 12.464C11.5874 12.6197 11.6879 12.8244 11.7146 13.0446C11.6846 13.4946 11.3316 13.9326 10.8476 13.9306C10.3146 13.9756 9.84756 13.4536 9.94956 12.9396ZM20.7516 12.2836C21.2986 11.9706 22.0576 12.4256 22.0336 13.0436C22.0706 13.6986 21.2306 14.1596 20.6866 13.7756C20.1206 13.4556 20.1646 12.5556 20.7516 12.2836ZM12.1216 14.5906C12.7596 14.4176 13.4916 14.7136 13.8046 15.2916C14.1476 15.8736 14.0076 16.6816 13.4746 17.1096C12.7896 17.7356 11.5286 17.4836 11.1646 16.6296C10.7456 15.8466 11.2546 14.7966 12.1206 14.5896L12.1216 14.5906ZM19.0486 14.5876C19.6696 14.4126 20.3996 14.6476 20.7336 15.2046C21.1756 15.8416 20.9646 16.7926 20.3076 17.2026C19.6176 17.6796 18.5516 17.4296 18.1716 16.6836C17.7116 15.9126 18.1746 14.8226 19.0486 14.5876ZM8.00856 15.3136C8.56056 15.1086 9.17256 15.7076 8.94856 16.2466C8.81256 16.7366 8.10956 16.9186 7.74656 16.5566C7.32156 16.2166 7.47856 15.4616 8.00856 15.3136ZM22.9776 16.0956C22.9672 15.8755 23.0442 15.6601 23.1917 15.4965C23.3393 15.3328 23.5455 15.234 23.7656 15.2216C24.1436 15.2816 24.5116 15.5816 24.4816 15.9866C24.5166 16.5216 23.8616 16.8846 23.3976 16.6336C23.1806 16.5246 23.0696 16.3056 22.9776 16.0956ZM5.29356 15.5796C5.62556 15.4366 6.03656 15.7196 5.96056 16.0826C5.94256 16.4936 5.32556 16.6526 5.09956 16.3086C4.89956 16.0696 5.01956 15.7026 5.29356 15.5786V15.5796ZM26.2426 15.5706C26.4766 15.4076 26.8526 15.5246 26.9446 15.7936C27.1016 16.0876 26.8136 16.4896 26.4776 16.4406C26.0056 16.4826 25.8536 15.7756 26.2426 15.5706ZM13.9256 17.5436C14.7996 17.3206 15.7396 18.0376 15.7456 18.9236C15.8016 19.8186 14.8756 20.6116 13.9816 20.4056C13.2896 20.2956 12.7466 19.6396 12.7696 18.9526C12.7676 18.2946 13.2716 17.6826 13.9256 17.5436ZM17.3876 17.5426C18.2746 17.2986 19.2426 18.0286 19.2286 18.9346C19.2756 19.8126 18.3786 20.5796 17.5026 20.4046C16.6776 20.3006 16.0696 19.4096 16.2996 18.6216C16.4156 18.0976 16.8616 17.6716 17.3876 17.5416V17.5426ZM10.7116 18.0876C11.3256 17.9846 11.9016 18.6576 11.6526 19.2316C11.4706 19.8436 10.5666 20.0086 10.1666 19.5096C9.69856 19.0296 10.0486 18.1536 10.7116 18.0876ZM20.8656 18.1146C21.4136 17.8886 22.0856 18.3546 22.0436 18.9396C22.0656 19.5826 21.2356 20.0266 20.7006 19.6506C20.0936 19.3136 20.2046 18.3206 20.8656 18.1146ZM23.7036 20.9146C23.4896 20.5216 23.8786 20.0006 24.3236 20.0736C24.5436 20.0696 24.6986 20.2406 24.8396 20.3846C24.8686 20.6176 24.9176 20.8956 24.7206 21.0746C24.4536 21.4076 23.8486 21.3126 23.7036 20.9146ZM7.43556 20.1826C7.85056 19.9116 8.44756 20.3166 8.35356 20.7926C8.30356 21.2156 7.76356 21.4566 7.40856 21.2166C7.02656 20.9996 7.04056 20.3806 7.43556 20.1826ZM15.6286 21.0656C16.1716 20.8306 16.8636 21.2956 16.8116 21.8836C16.8516 22.5336 15.9966 22.9836 15.4656 22.5936C14.8756 22.2586 14.9746 21.2726 15.6286 21.0656ZM11.8346 21.9366C12.2966 21.6976 12.9166 22.1106 12.8746 22.6206C12.8886 23.0386 12.4746 23.3946 12.0546 23.3326C11.7076 23.3256 11.4816 23.0186 11.3696 22.7276C11.3756 22.4106 11.5086 22.0576 11.8346 21.9376V21.9366ZM19.5206 21.9446C19.9966 21.6546 20.6726 22.0706 20.6276 22.6146C20.6396 23.1846 19.8756 23.5486 19.4326 23.1746C19.0046 22.8816 19.0566 22.1776 19.5206 21.9446ZM20.8576 25.1946C20.6456 24.8806 20.8946 24.5016 21.2376 24.4296C21.5146 24.4846 21.8076 24.6896 21.7486 25.0036C21.7086 25.4306 21.0746 25.5606 20.8576 25.1956V25.1946ZM10.2466 24.9216C10.3306 24.6716 10.5346 24.4246 10.8336 24.4896C11.2686 24.5196 11.3976 25.1656 11.0166 25.3646C10.6746 25.5916 10.2766 25.2806 10.2466 24.9216ZM15.3666 25.2086C15.4496 24.8386 15.9346 24.6596 16.2546 24.8556C16.4666 24.9456 16.5286 25.1776 16.5826 25.3756C16.554 25.4784 16.5273 25.5818 16.5026 25.6856C16.3716 25.8376 16.2026 25.9906 15.9846 25.9856C15.5796 26.0326 15.2136 25.5816 15.3656 25.2086H15.3666Z" fill="white"/>
<defs>
<filter id="filter0_d_578_6197" x="4" y="5.5" width="23.9883" height="21.9893" filterUnits="userSpaceOnUse" color-interpolation-filters="sRGB">
<feFlood flood-opacity="0" result="BackgroundImageFix"/>
<feColorMatrix in="SourceAlpha" type="matrix" values="0 0 0 0 0 0 0 0 0 0 0 0 0 0 0 0 0 0 127 0" result="hardAlpha"/>
<feOffset dy="0.5"/>
<feGaussianBlur stdDeviation="0.5"/>
<feColorMatrix type="matrix" values="0 0 0 0 0 0 0 0 0 0 0 0 0 0 0 0 0 0 0.204257 0"/>
<feBlend mode="normal" in2="BackgroundImageFix" result="effect1_dropShadow_578_6197"/>
<feBlend mode="normal" in="SourceGraphic" in2="effect1_dropShadow_578_6197" result="shape"/>
</filter>
</defs>
</svg>
