<svg width="32" height="32" viewBox="0 0 32 32" fill="none" xmlns="http://www.w3.org/2000/svg">
<path d="M16 32C24.8366 32 32 24.8366 32 16C32 7.16344 24.8366 0 16 0C7.16344 0 0 7.16344 0 16C0 24.8366 7.16344 32 16 32Z" fill="black"/>
<path d="M8.67285 22.0068L15.6289 26.3827H16.4709L23.3149 22.0068L22.2489 21.1658L16.0219 25.1488L9.57085 21.1658L8.67285 22.0068ZM12.0389 11.8537L15.9659 5.90675L20.0049 11.9097L20.9589 11.0677L16.4709 4.33675C16.4709 4.33675 16.0779 3.83175 15.4609 4.33675L10.8609 11.2367L12.0389 11.8537Z" fill="white" fill-opacity="0.703"/>
<path d="M16.0775 23.8589C16.3015 23.0729 16.5825 22.3439 16.8075 21.5589C17.8175 18.4169 18.8265 15.2189 19.8365 12.0779C19.8925 11.9099 19.9485 11.6849 20.0045 11.5179C20.1165 11.1799 20.2845 11.0119 20.6215 11.0119C20.7679 11.0081 20.9107 11.057 21.024 11.1497C21.1372 11.2424 21.2134 11.3727 21.2385 11.5169C21.5185 12.6389 21.7435 13.8169 22.0235 14.9389C22.5285 17.0709 22.9775 19.2589 23.4825 21.3899C23.5945 21.8949 23.4265 22.2319 23.0335 22.3439C22.6405 22.4559 22.3605 22.1759 22.2485 21.6709C21.6875 19.2589 21.1265 16.8459 20.6215 14.3779C20.6215 14.2659 20.5655 14.2099 20.5095 14.0409C20.463 14.1944 20.4065 14.3447 20.3405 14.4909C19.2755 17.7439 18.2655 20.9979 17.1995 24.2509C17.0315 24.8679 16.8065 25.4289 16.6385 26.0459C16.5265 26.4389 16.3015 26.6069 15.9655 26.6069C15.6285 26.6069 15.4045 26.4389 15.2925 26.0469C14.0585 22.1759 12.8235 18.3049 11.6455 14.4339C11.5895 14.3219 11.5895 14.2659 11.5335 14.0409C11.4335 14.5485 11.3214 15.0536 11.1975 15.5559C10.7475 17.5759 10.2995 19.6509 9.85053 21.6709C9.73853 22.2309 9.29053 22.5119 8.84053 22.2309C8.56053 22.0629 8.50453 21.7829 8.56053 21.4459C9.17753 18.6409 9.85053 15.8359 10.4675 13.0319C10.5795 12.5819 10.6925 12.1339 10.7475 11.6849C10.8605 11.2369 11.0845 11.0119 11.4215 11.0119C11.7585 11.0119 11.9815 11.2369 12.0945 11.6849C13.3845 15.7249 14.6745 19.8199 15.9095 23.8589H16.0775Z" fill="white"/>
</svg>
