<svg width="32" height="32" viewBox="0 0 32 32" fill="none" xmlns="http://www.w3.org/2000/svg">
<path d="M16 32C24.8366 32 32 24.8366 32 16C32 7.16344 24.8366 0 16 0C7.16344 0 0 7.16344 0 16C0 24.8366 7.16344 32 16 32Z" fill="#051D2D"/>
<path d="M15.993 19.986C14.6099 19.986 13.2579 19.5759 12.1079 18.8075C10.9579 18.0391 10.0616 16.9469 9.53231 15.6691C9.00303 14.3913 8.86455 12.9852 9.13437 11.6287C9.4042 10.2722 10.0702 9.02619 11.0482 8.04821C12.0262 7.07022 13.2722 6.4042 14.6287 6.13437C15.9852 5.86455 17.3913 6.00303 18.6691 6.53231C19.9469 7.0616 21.0391 7.95791 21.8075 9.1079C22.5759 10.2579 22.986 11.6099 22.986 12.993C22.9836 14.8469 22.2461 16.6242 20.9352 17.9352C19.6242 19.2461 17.8469 19.9836 15.993 19.986ZM16 12.951C15.9903 12.951 15.9808 12.9539 15.9728 12.9593C15.9647 12.9646 15.9584 12.9723 15.9547 12.9813C15.951 12.9902 15.9501 13.0001 15.9519 13.0096C15.9538 13.0191 15.9585 13.0278 15.9654 13.0347C15.9722 13.0415 15.9809 13.0462 15.9904 13.0481C15.9999 13.05 16.0098 13.049 16.0188 13.0453C16.0277 13.0416 16.0354 13.0353 16.0407 13.0272C16.0461 13.0192 16.049 13.0097 16.049 13C16.0479 12.9871 16.0422 12.975 16.0331 12.9659C16.024 12.9568 16.0119 12.9511 15.999 12.95L16 12.951Z" fill="url(#paint0_linear_578_6104)"/>
<path d="M15.993 26.986C14.6099 26.986 13.2579 26.5759 12.1079 25.8075C10.9579 25.0391 10.0616 23.9469 9.53231 22.6691C9.00303 21.3913 8.86455 19.9852 9.13437 18.6287C9.4042 17.2722 10.0702 16.0262 11.0482 15.0482C12.0262 14.0702 13.2722 13.4042 14.6287 13.1344C15.9852 12.8645 17.3913 13.003 18.6691 13.5323C19.9469 14.0616 21.0391 14.9579 21.8075 16.1079C22.5759 17.2579 22.986 18.6099 22.986 19.993C22.9836 21.8469 22.2461 23.6242 20.9352 24.9352C19.6242 26.2461 17.8469 26.9836 15.993 26.986ZM16 19.951C15.9903 19.951 15.9808 19.9539 15.9728 19.9593C15.9647 19.9646 15.9584 19.9723 15.9547 19.9813C15.951 19.9902 15.9501 20.0001 15.9519 20.0096C15.9538 20.0191 15.9585 20.0278 15.9654 20.0347C15.9722 20.0415 15.9809 20.0462 15.9904 20.0481C15.9999 20.05 16.0098 20.049 16.0188 20.0453C16.0277 20.0416 16.0354 20.0353 16.0407 20.0272C16.0461 20.0192 16.049 20.0097 16.049 20C16.0479 19.9871 16.0422 19.975 16.0331 19.9659C16.024 19.9568 16.0119 19.9511 15.999 19.95L16 19.951Z" fill="url(#paint1_linear_578_6104)"/>
<defs>
<linearGradient id="paint0_linear_578_6104" x1="15.993" y1="6" x2="15.993" y2="26.0334" gradientUnits="userSpaceOnUse">
<stop stop-color="white"/>
<stop offset="0.03" stop-color="white" stop-opacity="0.83"/>
<stop offset="0.07" stop-color="white" stop-opacity="0.66"/>
<stop offset="0.11" stop-color="white" stop-opacity="0.5"/>
<stop offset="0.15" stop-color="white" stop-opacity="0.37"/>
<stop offset="0.19" stop-color="white" stop-opacity="0.25"/>
<stop offset="0.25" stop-color="white" stop-opacity="0.16"/>
<stop offset="0.3" stop-color="white" stop-opacity="0.09"/>
<stop offset="0.37" stop-color="white" stop-opacity="0.04"/>
<stop offset="0.47" stop-color="white" stop-opacity="0.01"/>
<stop offset="1" stop-color="white" stop-opacity="0"/>
</linearGradient>
<linearGradient id="paint1_linear_578_6104" x1="15.993" y1="13" x2="15.993" y2="33.0334" gradientUnits="userSpaceOnUse">
<stop stop-color="white"/>
<stop offset="0.03" stop-color="white" stop-opacity="0.83"/>
<stop offset="0.07" stop-color="white" stop-opacity="0.66"/>
<stop offset="0.11" stop-color="white" stop-opacity="0.5"/>
<stop offset="0.15" stop-color="white" stop-opacity="0.37"/>
<stop offset="0.19" stop-color="white" stop-opacity="0.25"/>
<stop offset="0.25" stop-color="white" stop-opacity="0.16"/>
<stop offset="0.3" stop-color="white" stop-opacity="0.09"/>
<stop offset="0.37" stop-color="white" stop-opacity="0.04"/>
<stop offset="0.47" stop-color="white" stop-opacity="0.01"/>
<stop offset="1" stop-color="white" stop-opacity="0"/>
</linearGradient>
</defs>
</svg>
