<svg width="32" height="32" viewBox="0 0 32 32" fill="none" xmlns="http://www.w3.org/2000/svg">
<circle cx="16" cy="16" r="16" fill="#8150E6"/>
<mask id="mask0_579_3606" style="mask-type:alpha" maskUnits="userSpaceOnUse" x="0" y="0" width="32" height="32">
<circle cx="16" cy="16" r="16" fill="#8150E6"/>
</mask>
<g mask="url(#mask0_579_3606)">
<path d="M21.4428 33.7869L10.0723 22.4163L11.1281 22.0914V9.90869H20.9555L33.1383 22.0914L21.4428 33.7869Z" fill="#3C176B"/>
<path fill-rule="evenodd" clip-rule="evenodd" d="M15.9285 9.25879H12.1826V24.5278H15.9285C17.5678 24.5278 19.774 24.4661 21.4901 23.1335C22.03 22.7142 22.5162 22.2224 22.934 21.6683C23.9689 20.2959 24.5278 18.6174 24.5278 16.8933C24.5278 15.1692 23.9689 13.4907 22.934 12.1184C22.5162 11.5643 22.03 11.0724 21.4901 10.6531C19.774 9.3205 17.5678 9.25879 15.9285 9.25879ZM14.7816 21.9288V11.8578H15.9285C17.638 11.8578 18.9673 11.9846 19.8961 12.7059C20.2551 12.9847 20.5794 13.3125 20.8589 13.6831C21.4542 14.4726 21.8166 15.4172 21.9067 16.4058H21.6045C21.6045 17.5691 21.2271 18.6975 20.5346 19.6159C19.8423 20.534 18.8749 21.1899 17.7852 21.4871L17.8779 21.8273C17.2961 21.9065 16.6458 21.9288 15.9285 21.9288H14.7816Z" fill="#9B74EC"/>
<path fill-rule="evenodd" clip-rule="evenodd" d="M10.0723 6.98486H13.9102C15.5466 6.98486 17.7343 7.04843 19.4513 8.35618C20.0174 8.7874 20.5266 9.29666 20.9625 9.87257C22.0124 11.2596 22.5799 12.9567 22.5799 14.7006C22.5799 16.4445 22.0124 18.1416 20.9625 19.5286C20.5266 20.1045 20.0174 20.6138 19.4513 21.045C17.7343 22.3528 15.5466 22.4163 13.9102 22.4163H10.0723V6.98486ZM12.6713 9.58385V19.8174H13.9102C15.6104 19.8174 16.9391 19.6915 17.8765 18.9775C18.2555 18.6888 18.5971 18.3473 18.8902 17.9601C19.5965 17.027 19.9809 15.8813 19.9809 14.7006C19.9809 13.5199 19.5965 12.3742 18.8902 11.4411C18.5971 11.0539 18.2554 10.7124 17.8765 10.4237C16.9391 9.70973 15.6104 9.58385 13.9102 9.58385H12.6713Z" fill="white"/>
</g>
</svg>
