<svg width="32" height="32" viewBox="0 0 32 32" fill="none" xmlns="http://www.w3.org/2000/svg">
<path d="M16 32C24.8366 32 32 24.8366 32 16C32 7.16344 24.8366 0 16 0C7.16344 0 0 7.16344 0 16C0 24.8366 7.16344 32 16 32Z" fill="#1A4199"/>
<path opacity="0.7" d="M10.676 7.12512L21.408 13.3161V19.6351L5 10.1591L10.265 7.12512C10.3288 7.08825 10.4013 7.06885 10.475 7.06885C10.5487 7.06885 10.6212 7.08825 10.685 7.12512" fill="white"/>
<path opacity="0.9" d="M21.4084 7L15.9414 10.16L21.4084 13.316V7Z" fill="white"/>
<path d="M21.4082 7L26.6722 10.036C26.7384 10.0718 26.7937 10.1248 26.8324 10.1894C26.8711 10.2539 26.8918 10.3277 26.8922 10.403V22.792L21.4082 19.635V7Z" fill="white"/>
<path opacity="0.9" d="M26.8808 22.7921L21.6168 25.8251C21.5524 25.8601 21.4802 25.8785 21.4068 25.8785C21.3335 25.8785 21.2613 25.8601 21.1968 25.8251L10.4648 19.6351V13.3071L26.8808 22.7921Z" fill="white"/>
<path opacity="0.6" d="M5 10.1602V22.5472C5.00024 22.6226 5.02079 22.6966 5.05951 22.7613C5.09822 22.8261 5.15366 22.8792 5.22 22.9152L10.485 25.9512V13.3072L5 10.1602Z" fill="white"/>
<path opacity="0.7" d="M10.4756 25.9498L15.9406 22.7918L10.4756 19.6348V25.9498Z" fill="white"/>
</svg>
