<svg width="32" height="32" viewBox="0 0 32 32" fill="none" xmlns="http://www.w3.org/2000/svg">
<path d="M16 32C24.8366 32 32 24.8366 32 16C32 7.16344 24.8366 0 16 0C7.16344 0 0 7.16344 0 16C0 24.8366 7.16344 32 16 32Z" fill="#49C1BF"/>
<path d="M9 7.281L20.114 12.664L22.959 11.382L11.891 6L9 7.281Z" fill="white" fill-opacity="0.304"/>
<path d="M20.1143 12.6511L22.9593 11.3701V14.2351L20.1143 15.5161V12.6511ZM20.1143 25.9351V16.9981L22.9593 15.7031V24.6541L20.1143 25.9351Z" fill="white" fill-opacity="0.646"/>
<path d="M9 7.28418V10.1812L16.693 13.9182L9 17.7282V20.5842L20.114 25.9572V23.0832L12.566 19.4122L20.114 15.5312V12.6662L9 7.28418Z" fill="white"/>
</svg>
