<svg width="297" height="264" viewBox="0 0 297 264" fill="none" xmlns="http://www.w3.org/2000/svg">
<g clip-path="url(#clip0_828_8819)">
<path d="M179.536 166.276C176.381 166.856 174.591 168.584 174.591 171.84C174.591 174.064 174.561 175.426 176.136 177.094C177.282 178.306 178.186 179.194 179.691 180.03C180.494 180.476 180.31 180.535 180.532 179.566C180.607 179.239 181.402 176.636 181.94 177.712C182.366 178.563 182.018 179.985 182.318 180.957C182.416 181.278 183.844 183.126 183.382 183.258C180.978 183.945 176.923 181.82 175.278 180.116C174.422 179.229 173.64 178.041 172.857 177.076C171.776 175.746 170.364 174.957 169.509 173.402C169.15 172.75 167.239 168.457 166.864 168.44C164.041 168.311 161.173 168.44 158.348 168.44C156.748 168.44 155.104 168.639 153.506 168.749C152.831 168.795 152.331 169.327 151.789 169.676C151.173 170.072 150.436 170.034 149.763 170.294C146.819 171.432 146.157 174.778 146.157 177.54C146.157 179.039 146.424 180.532 146.466 182.039C146.503 183.355 147.652 184.038 148.321 185.061C149.047 186.171 149.994 187.565 151.583 187.276C153.694 186.892 153.027 184.397 151.48 183.824C150.703 183.537 150.513 182.991 150.038 182.674C149.205 182.119 152.073 183.11 152.836 183.756C154.156 184.872 156.647 188.025 154.193 189.456C150.841 191.411 147.727 190.976 143.994 190.71C141.974 190.565 140.479 192.238 138.43 192.238C137.543 192.238 136.707 192.042 136.593 193.182C136.422 194.895 136.347 197.041 136.731 198.728C137.343 201.421 137.179 203.027 139.358 205.081C140.343 206.01 142.162 205.711 143.341 206.3C144.207 206.733 145.204 208.179 145.539 209.099C145.805 209.831 146.075 210.878 146.775 211.331C148.036 212.147 143.123 211.744 142.895 211.709C140.744 211.378 138.202 211.373 136.301 210.164C134.903 209.274 133.956 207.953 132.713 206.901C131.116 205.55 131.095 202.971 129.159 202.197C127.824 201.663 125.495 202.128 124.076 202.128C122.157 202.128 118.648 202.986 117.157 204.291C116.506 204.86 116.956 205.819 116.487 206.523C115.745 207.636 114.912 208.389 115.319 209.854C115.592 210.838 121.255 216.225 120.024 216.929C118.662 217.707 114.893 216.894 113.774 216.036C112.331 214.928 111.524 214.021 110.769 212.344C109.922 210.462 110.598 208.42 110.151 206.455C109.81 204.952 109.653 203.57 109.687 202.025C109.713 200.873 110.493 200.392 110.855 199.415C111.608 197.381 113.705 197.391 113.705 194.865C113.705 191.743 112.067 189.478 109.997 187.293C109.383 186.646 109.208 185.719 108.297 185.438C107.208 185.103 106.511 184.86 105.343 184.666C102.728 184.23 90.4231 184.539 91.8991 188.598C92.7054 190.815 94.0846 192.61 95.5048 194.436C96.1715 195.293 102.323 199.983 100.656 201.201C99.9857 201.69 98.5879 203.055 97.7885 203.055C95.4501 203.055 93.5755 202.832 91.4355 201.819C89.4716 200.889 88.6188 200.665 88.2933 198.591C88.1084 197.412 88.2254 196.082 87.1944 195.328C86.8328 195.064 86.0808 194.213 85.7178 194.109C83.937 193.601 81.8106 194.837 80.6869 196.101C79.3391 197.617 79.7586 199.645 79.7082 201.51C79.661 203.258 78.472 204.656 78.472 206.455C78.472 209.742 81.2197 210.7 84.0179 211.4C84.3275 211.477 84.6404 211.709 84.9623 211.709C85.2756 211.709 85.2714 211.296 85.2714 211.434C85.2714 214.442 83.6418 215.075 80.7728 215.109C78.5024 215.135 78.1399 214.677 76.9438 212.808C76.1093 211.504 74.9249 210.816 73.3209 210.816C69.2493 210.816 69.4942 213.924 68.2728 216.654C67.114 219.244 68.5021 221.848 67.5173 224.38C66.4296 227.178 72.4233 228.774 74.1451 229.635C75.0654 230.095 75.5782 230.949 76.6176 231.18C77.2492 231.32 78.3003 232.185 78.4548 232.88C78.6615 233.81 70.2831 235.198 69.1313 235.198C66.5832 235.198 64.5488 234.887 62.5551 233.189C61.2111 232.044 60.0816 231.489 58.3656 231.489C54.5229 231.489 54.897 234.05 54.2962 237.121C54.1073 238.086 53.5441 240.125 54.5881 240.761C56.2806 241.791 58.5288 243.18 60.3745 243.852C61.0843 244.11 60.8299 245.189 61.1643 245.775C62.1196 247.446 60.8796 248.151 59.31 248.178C54.5918 248.261 49.4834 247.416 47.7372 242.495C47.4065 241.563 46.0653 240.072 46.0202 239.216C45.9562 237.999 46.5791 237.573 46.8787 236.503C47.1372 235.579 40.3482 234.759 39.547 233.824C38.8939 233.062 37.3181 234.444 36.8856 234.889C35.79 236.017 36.2053 237.708 35.2029 238.769C34.3154 239.709 33.77 240.144 33.9838 241.534C34.2141 243.03 36.2276 243.579 36.7139 244.916C37.0447 245.826 33.8236 246.196 33.3485 246.255C32.5864 246.351 30.6578 246.648 30.0862 245.946C29.5332 245.268 29.6683 243.726 29.5024 242.924C29.0532 240.753 27.7416 238.55 28.7641 236.314C29.5789 234.532 31.3553 232.864 32.7304 231.489C34.9824 229.237 37.3944 228.089 40.5257 228.089C42.805 228.089 46.0935 227.317 47.411 225.291C48.1915 224.09 49.1511 222.677 49.4886 221.29C49.8682 219.729 49.4903 218.511 49.4199 216.963C49.3057 214.451 45.0916 211.84 42.9467 211.125C41.2255 210.551 41.3273 211.099 40.3883 212.327C39.5166 213.467 39.5298 212.443 39.5298 213.872" stroke="#F3D2BB" stroke-width="1.89536" stroke-linecap="round"/>
<path d="M38.6012 215.417C38.9134 217.983 39.0445 219.189 41.503 220.19C41.8017 220.312 43.5161 220.701 42.6191 221.221C39.741 222.887 33.543 223.731 32.2654 219.899C31.3336 217.103 29.9453 211.965 32.1109 209.545C33.3973 208.107 30.4027 208.309 29.6384 208.309C28.4762 208.309 27.3607 208.618 26.1872 208.618C24.8528 208.618 23.0448 207.995 21.7401 208.343C18.4816 209.212 17.2822 212.375 16.6405 215.263C16.2243 217.136 19.2553 217.856 18.203 219.435" stroke="#F3D2BB" stroke-width="1.89536" stroke-linecap="round"/>
<path d="M16.6603 222.527C13.3473 220.168 8.57499 217.841 10.8224 213.066C12.0633 210.429 13.5635 207.953 14.9432 205.391C15.9211 203.575 16.3709 201.677 18.0511 200.308C19.3396 199.258 20.5116 198.212 22.0346 197.51C22.6216 197.239 22.6731 196.537 23.3052 196.256C24.3155 195.807 24.6467 194.579 25.9322 194.745C27.7876 194.985 29.6959 195.729 31.5125 195.003C33.0781 194.376 34.3079 193.528 35.7536 192.685C37.2712 191.799 37.0035 191.932 36.1313 190.624C35.5103 189.693 35.0721 188.753 34.2769 187.911C33.1924 186.763 33.6399 185.875 33.2811 184.512C32.6741 182.205 30.8591 179.921 31.9418 177.334C32.5821 175.805 34.7161 175.419 35.8223 174.312" stroke="#F3D2BB" stroke-width="1.89536" stroke-linecap="round"/>
<path d="M37.0579 173.385C36.0406 173.385 30.2584 174.202 30.2584 172.612C30.2584 169.994 29.1518 168.879 27.7172 166.825C26.5626 165.172 26.0956 164.13 26.8587 162.413C27.1634 161.727 27.4089 160.954 26.8587 160.404" stroke="#F3D2BB" stroke-width="1.89536" stroke-linecap="round"/>
<path d="M27.1672 164.731C25.261 163.627 23.4284 162.349 21.295 161.709C19.0662 161.04 16.5503 161.331 14.2552 161.331C12.0299 161.331 9.35899 160.702 8.00522 162.808C6.64844 164.918 6.05777 166.438 5.8246 168.886C5.77542 169.402 5.19116 169.931 5.73875 170.157C6.34691 170.407 7.40958 170.648 7.69616 171.221" stroke="#F3D2BB" stroke-width="1.89536" stroke-linecap="round"/>
<path d="M8.93612 170.603C8.01383 171.701 6.22654 173.123 6.48077 174.775C6.66047 175.943 5.47273 175.548 4.54053 175.548C1.64619 175.548 -0.315295 170.366 0.0419238 167.821C0.30543 165.944 2.16366 164.642 2.41142 162.722C2.57403 161.461 2.09152 160.273 2.1367 159.099C2.1998 157.458 6.03768 156.674 7.01305 155.699C7.85711 154.855 7.92699 153.411 8.83309 152.505C9.63285 151.706 11.0816 150.382 12.3358 150.514C13.2409 150.609 14.1572 151.659 15.1346 151.887C17.3269 152.399 19.8714 151.802 22.0198 151.372C23.6139 151.053 26.8676 150.785 27.8921 149.294C28.3584 148.616 28.0799 147.348 28.0981 146.564C28.1227 145.508 29.3 144.743 29.3 143.869C29.3 142.473 26.5198 144.148 26.2437 144.332" stroke="#F3D2BB" stroke-width="1.89536" stroke-linecap="round"/>
<path d="M27.1672 144.023C25.2834 144.08 22.9285 144.356 22.8403 146.736C22.821 147.259 23.0116 147.801 22.5313 148.041" stroke="#F3D2BB" stroke-width="1.89536" stroke-linecap="round"/>
<path d="M16.3475 148.968C16.3475 144.514 14.8591 137.571 20.8117 136.125C23.1752 135.551 25.8012 136.191 28.2121 135.816C31.4729 135.309 34.4896 135.061 37.8103 135.061C40.2519 135.061 43.1391 135.504 45.1076 137.104C46.3559 138.118 46.044 138.69 47.8034 139.01C49.1164 139.248 50.5565 139.078 51.8899 139.078" stroke="#F3D2BB" stroke-width="1.89536" stroke-linecap="round"/>
<path d="M57.1456 138.77C58.65 136.043 58.9941 134.134 62.3997 134.134" stroke="#F3D2BB" stroke-width="1.89536" stroke-linecap="round"/>
<path d="M60.5473 131.662C61.1513 129.472 61.5472 128.006 59.002 127.403C58.0216 127.171 55.2236 126.899 54.366 127.403C53.8844 127.687 53.1991 129.824 52.8894 130.357C52.4873 131.048 52.8199 132.589 52.2026 132.898" stroke="#F3D2BB" stroke-width="1.89536" stroke-linecap="round"/>
<path d="M46.6399 131.043C45.1254 127.956 45.0946 125.536 45.0946 122.217C45.0946 121.183 45.2481 120.013 45.0946 118.989C44.9495 118.022 41.7161 117.551 40.9394 117.444C39.7781 117.284 38.1754 116.733 37.1104 117.478C36.1627 118.142 35.9749 119.674 35.2045 120.535C34.331 121.511 34.1519 122.617 34.2945 123.9C34.3554 124.448 34.8742 124.872 34.2773 125.171" stroke="#F3D2BB" stroke-width="1.89536" stroke-linecap="round"/>
<path d="M26.5465 125.789C26.021 123.643 25.3649 121.451 25.6537 119.213C25.783 118.21 26.6506 117.203 26.993 116.225C27.8022 113.913 27.5547 112.607 29.6372 110.885C33.0691 108.047 38.067 109.099 42.3088 109.099C45.6605 109.099 43.8395 105.657 46.8246 104.772C49.0272 104.12 50.4045 103.604 52.5766 104.463C54.9612 105.407 57.0815 106.822 59.6164 107.245" stroke="#F3D2BB" stroke-width="1.89536" stroke-linecap="round"/>
<path d="M64.5633 102.918C66.4588 102.502 68.0058 101.12 69.8346 100.755C71.1523 100.491 72.4467 100.44 73.7666 100.205C75.0796 99.9719 76.0974 100.005 76.634 98.5741C77.2783 96.8559 78.7631 95.8498 80.566 95.8097C81.972 95.7785 83.7758 95.5518 85.1161 95.9986C87.246 96.7085 88.553 98.5058 90.8338 98.8317C94.2889 99.3252 97.1494 100.755 100.724 100.755" stroke="#F3D2BB" stroke-width="1.89536" stroke-linecap="round"/>
<path d="M109.069 99.2093C111.034 98.8627 111.788 98.3487 113.242 97.2176C113.925 96.6864 114.95 97.3468 115.56 96.7368" stroke="#F3D2BB" stroke-width="1.89536" stroke-linecap="round"/>
<path d="M121.741 94.8823C120.044 93.9654 118.893 92.6046 117.415 91.4139C115.891 90.187 116.178 88.7453 116.178 86.9668C116.178 84.9664 116.084 83.1974 117.535 81.747C118.438 80.8441 116.087 79.7609 115.56 79.4977C113.327 78.3813 111.028 78.5019 108.606 78.5019C106.489 78.5019 107.615 81.8562 106.288 82.5197" stroke="#F3D2BB" stroke-width="1.89536" stroke-linecap="round"/>
<path d="M103.504 88.0827C99.9997 84.3221 100.131 77.5851 103.04 73.5567C104.339 71.7582 106.264 71.0417 108.123 70.0196C108.998 69.538 109.361 68.7279 110.149 68.1824C110.887 67.6714 112.168 67.9483 112.707 67.0664C113.776 65.3172 113.422 61.6911 116.33 62.1385C118.006 62.3964 119.208 63.0485 120.966 63.0485C122.671 63.0485 124.461 63.2744 126.066 62.7394" stroke="#F3D2BB" stroke-width="1.89536" stroke-linecap="round"/>
<path d="M121.742 54.7037C121.742 52.317 122.328 51.2298 123.871 49.4668C124.687 48.5348 123.919 46.7619 123.579 45.7409C123.183 44.5513 121.534 44.2138 120.437 44.1956C118.582 44.1646 118.473 44.7261 117.037 45.6722C115.767 46.5093 112.738 49.2124 112.487 50.8404C112.313 51.9752 112.47 53.2456 112.47 54.3947" stroke="#F3D2BB" stroke-width="1.89536" stroke-linecap="round"/>
<path d="M107.524 57.1769C105.536 53.5726 105.278 48.5384 107.456 44.883C108.6 42.9626 110.607 40.2955 112.538 39.0795C113.313 38.5917 114.545 39.1161 115.405 38.925C116.023 38.7878 116.411 38.0061 117.037 37.7746C118.299 37.3068 119.194 34.1151 119.286 32.7437C119.482 29.8083 122.11 29.9793 124.368 29.9793C126.649 29.9793 129.287 29.9339 131.528 29.5328C134.09 29.0745 136.855 28.4424 139.358 27.7471C141.309 27.2052 144.38 25.1346 145.367 23.3C145.944 22.2303 145.46 21.2327 146.466 20.2266C147.386 19.3068 148.865 18.5114 150.003 17.9257C152.004 16.8969 153.269 15.1133 155.137 14.0624C156.239 13.4425 157.591 13.2577 158.76 12.7403C160.06 12.1652 161.223 11.3924 162.538 10.8173C164.814 9.8214 167.467 9.32377 169.578 8.10436C170.894 7.34356 172.483 7.24426 173.784 6.47319C175.001 5.75217 175.964 4.70343 177.304 4.1552C179.421 3.28925 181.59 3.33328 183.709 2.62705C185.554 2.01199 187.219 2.05207 189.117 1.78571C189.796 1.69038 191.202 1.58964 191.727 1.06456C192.65 0.141339 193.684 0 194.989 0" stroke="#F3D2BB" stroke-width="1.89536" stroke-linecap="round"/>
<path d="M184.791 169.985C186.404 170.024 187.879 170.584 189.496 170.604C191.913 170.633 194.156 170.417 196.501 169.831C199.105 169.18 199.317 167.636 199.317 165.349C199.317 164.166 199.632 162.456 198.853 161.503C198.109 160.593 196.585 160.371 195.608 161.023" stroke="#F3D2BB" stroke-width="1.89536" stroke-linecap="round"/>
<path d="M193.447 165.658C190.521 165.101 185.872 166.161 183.934 163.254C183.378 162.419 183.29 161.374 182.561 160.644C181.757 159.841 180.985 159.213 180.328 158.258C179.635 157.249 178.249 155.724 178.629 154.394C178.908 153.415 180.106 153.503 179.539 152.368" stroke="#F3D2BB" stroke-width="1.89536" stroke-linecap="round"/>
<path d="M172.429 153.605C172.429 151.198 172.196 150.054 174.386 148.797C175.574 148.116 176.848 147.647 178.146 147.252C179.191 146.934 182.483 146.806 181.392 146.806" stroke="#F3D2BB" stroke-width="1.89536" stroke-linecap="round"/>
<path d="M182.626 148.66C184.148 149.435 185.79 150.166 186.953 151.458C187.717 152.307 188.344 152.973 189.357 153.536C190.42 154.126 192.825 154.534 192.825 152.987" stroke="#F3D2BB" stroke-width="1.89536" stroke-linecap="round"/>
<path d="M188.191 147.114C186.325 144.906 186.027 144.139 186.027 141.414C186.027 140.429 186.027 139.445 186.027 138.46" stroke="#F3D2BB" stroke-width="1.89536" stroke-linecap="round"/>
<path d="M189.735 118.372C187.851 119.712 184.109 122.54 185.579 125.48C186.131 126.584 187.293 127.288 187.846 128.433C188.485 129.758 188.265 131.269 188.567 132.657C189.122 135.211 190.543 136.684 192.963 137.362C193.914 137.628 196.843 136.944 196.843 137.843" stroke="#F3D2BB" stroke-width="1.89536" stroke-linecap="round"/>
<path d="M196.223 132.279C194.048 130.9 193.816 129.459 194.129 126.956C194.354 125.153 194.32 123.62 196.292 123.076C198.078 122.583 200.2 123.464 201.89 123.934C203.28 124.322 204.845 124.476 206.182 124.999C208.389 125.862 210.291 126.668 212.673 126.956C215.342 127.28 218.256 127.334 220.949 127.334C221.943 127.334 223.393 127.605 224.28 127.025C224.932 126.599 226.188 125.023 224.657 125.789" stroke="#F3D2BB" stroke-width="1.89536" stroke-linecap="round"/>
<path d="M199.935 108.79C200.612 111.274 203.019 115.589 206.116 115.589" stroke="#F3D2BB" stroke-width="1.89536" stroke-linecap="round"/>
<path d="M211.679 115.59C210.404 113.556 208.588 111.759 208.588 109.271C208.588 107.507 210.053 106.083 211.129 104.773C212.311 103.335 213.474 101.538 215.37 101.064C216.542 100.771 216.429 99.7952 217.929 99.8278C219.56 99.8632 221.496 100.404 222.977 101.081C224.511 101.782 225.249 102.938 226.514 103.914C227.965 105.033 228.48 105.483 230.394 105.374C233.198 105.214 235.079 103.106 236.404 100.824C237.176 99.4933 236.92 99.5984 236.404 98.437C236.321 98.2502 235.989 96.8745 235.957 96.8745C234.617 96.8745 227.506 100.12 226.892 98.5229C225.7 95.4243 225.124 91.9813 223.423 89.0792C221.797 86.3058 225.109 85.7064 227.132 85.3018" stroke="#F3D2BB" stroke-width="1.89536" stroke-linecap="round"/>
<path d="M206.734 78.1931C206.554 79.3406 206.488 80.4414 206.425 81.5929C206.372 82.5818 205.388 83.0405 205.069 83.928C204.613 85.1932 204.154 87.0181 205.189 88.0832C205.804 88.7158 206.78 89.1549 207.215 89.9376C207.673 90.7612 207.733 91.5203 208.451 92.2384C209.493 93.28 211.237 93.3373 212.641 93.3373C215.048 93.3373 214.308 92.7787 213.912 90.7961C213.702 89.7465 213.822 88.9064 213.208 87.9458C212.861 87.4049 211.989 86.8525 211.989 86.1601C211.989 85.2176 212.533 83.422 213.414 83.0008C214.912 82.2842 217.463 80.8445 219.08 80.6828C220.007 80.5901 220.345 79.9625 221.192 79.4294C222.34 78.7065 224.322 79.0776 225.553 79.4294C226.303 79.6438 226.54 81.4244 227.442 81.9019C229.373 82.9245 230.169 84.5705 231.837 85.9198C232.855 86.743 234.934 88.5473 236.387 87.9115C238.202 87.1177 238.287 82.8055 236.405 82.0736C235.739 81.8147 233.72 81.9633 234.31 80.6657C235.295 78.4979 235.786 76.8918 235.786 74.4844" stroke="#F3D2BB" stroke-width="1.89536" stroke-linecap="round"/>
<path d="M233.622 66.1396C235.683 68.2617 236.419 71.565 238.876 73.2481C239.69 73.8062 242.009 75.0577 241.966 73.1794C241.927 71.447 240.421 70.3624 240.421 68.5434C240.421 66.389 241.36 65.8155 242.584 64.2165C243.92 62.4726 244.346 60.4327 245.915 58.7907C246.627 58.0464 247.206 57.1068 248.148 56.6273C248.789 56.3005 249.785 56.4402 250.311 55.9405C250.777 55.4975 250.771 54.7132 251.376 54.3951C252.32 53.8978 253.59 53.7961 254.638 53.777C256.621 53.741 257.596 55.2118 256.492 56.8677" stroke="#F3D2BB" stroke-width="1.89536" stroke-linecap="round"/>
<path d="M250.62 61.812C251.85 62.6801 257.076 63.0869 257.076 64.9198C257.076 66.6565 254.173 66.3318 257.111 67.0661" stroke="#F3D2BB" stroke-width="1.89536" stroke-linecap="round"/>
<path d="M266.383 56.249C266.907 58.3428 267.65 60.3255 266.212 62.2243C265.345 63.3684 264.278 64.1082 262.984 64.5938" stroke="#F3D2BB" stroke-width="1.89536" stroke-linecap="round"/>
<path d="M255.565 69.5396C254.216 71.4511 253.781 75.3124 254.501 77.5752C255 79.1446 255.153 82.5203 257.179 82.5203C258.877 82.5203 261.287 82.0371 262.159 80.3911C262.569 79.616 262.798 78.4364 262.536 77.5752C262.342 76.9347 261.646 76.6411 261.472 76.0299C260.799 73.6751 264.751 72.4958 266.073 71.3939" stroke="#F3D2BB" stroke-width="1.89536" stroke-linecap="round"/>
<path d="M277.511 57.4858C276.562 57.5052 275.732 57.4107 275.038 58.104" stroke="#F3D2BB" stroke-width="1.89536" stroke-linecap="round"/>
<path d="M270.712 63.3574C269.738 65.6 268.752 67.406 269.716 69.7791C270.108 70.744 270.698 71.6611 271.021 72.6294" stroke="#F3D2BB" stroke-width="1.89536" stroke-linecap="round"/>
<path d="M271.638 76.0291C273.079 76.0291 274.618 76.2449 275.982 75.7201C276.219 75.6289 277.73 75.493 277.802 75.2393C277.962 74.6806 277.82 72.8601 277.82 74.4838" stroke="#F3D2BB" stroke-width="1.89536" stroke-linecap="round"/>
<path d="M280.292 77.5747C281.085 80.4975 280.257 81.1669 279.228 83.7732C278.51 85.5924 277.587 87.7738 275.347 87.7738C274.368 87.7738 273.186 87.594 272.222 87.8082C271.051 88.0684 270.558 89.3188 269.475 89.6282C268.074 90.0287 268.239 91.6865 268.239 92.8562C268.239 94.7276 267.485 95.6488 266.865 97.3377C266.39 98.635 265.641 99.4886 265.457 100.909C265.193 102.956 264.034 104.189 263.483 106.026C262.982 107.695 264.28 109.213 265.08 110.576C266.017 112.174 266.849 111.919 268.479 112.499C271.52 113.58 270.223 104.085 271.021 102.334C271.488 101.308 272.566 100.995 273.321 100.239C274.147 99.4137 274.629 98.3314 275.347 97.4235C276.373 96.1278 277.45 94.9117 278.438 93.5774C279.049 92.7529 283.485 91.6867 284.001 92.7189" stroke="#F3D2BB" stroke-width="1.89536" stroke-linecap="round"/>
<path d="M259.894 235.816C257.753 234.765 255.607 233.687 253.163 233.687C251.849 233.687 250.54 235.084 249.42 235.644C248.099 236.305 247.169 237.463 245.917 238.219C244.809 238.889 242.565 239.161 243.204 240.761" stroke="#F3D2BB" stroke-width="1.89536" stroke-linecap="round"/>
<path d="M262.366 243.543C260.715 248.04 254.264 246.594 252.785 251.029C251.666 254.387 249.1 256.593 250.313 260.232" stroke="#F3D2BB" stroke-width="1.89536" stroke-linecap="round"/>
<path d="M270.403 246.324C271.681 248.843 272.951 252.642 275.777 253.827C276.998 254.339 278.677 254.05 279.984 254.05" stroke="#F3D2BB" stroke-width="1.89536" stroke-linecap="round"/>
<path d="M283.073 241.688C280.732 242.365 277.412 243.247 278.438 246.324" stroke="#F3D2BB" stroke-width="1.89536" stroke-linecap="round"/>
<path d="M290.181 249.415C287.854 248.717 285.785 247.978 283.381 248.178" stroke="#F3D2BB" stroke-width="1.89536" stroke-linecap="round"/>
<path d="M46.0208 191.62C45.831 192.632 45.9156 193.474 44.7845 193.474" stroke="#F3D2BB" stroke-width="1.89536" stroke-linecap="round"/>
<path d="M44.7825 195.946C43.4572 194.597 42.2296 193.51 41.6918 191.688C41.5281 191.133 41.1334 189.146 40.7646 189.146" stroke="#F3D2BB" stroke-width="1.89536" stroke-linecap="round"/>
<path d="M41.6913 188.838C40.2776 186.788 39.5414 185.015 40.0258 182.485C40.4672 180.18 41.9282 176.883 44.1982 175.874C46.3003 174.94 48.8983 175.087 50.8946 173.934C51.3609 173.665 52.4822 172.096 52.8176 172.766" stroke="#F3D2BB" stroke-width="1.89536" stroke-linecap="round"/>
<path d="M45.0963 182.966C47.3263 183.471 49.3778 184.753 50.6594 186.675" stroke="#F3D2BB" stroke-width="1.89536" stroke-linecap="round"/>
<path d="M58.386 192.547C55.632 190.386 55.6044 189.269 55.6044 186.057" stroke="#F3D2BB" stroke-width="1.89536" stroke-linecap="round"/>
<path d="M53.1309 179.875C54.6446 180.623 56.0902 181.49 57.7668 181.73" stroke="#F3D2BB" stroke-width="1.89536" stroke-linecap="round"/>
<path d="M61.7826 178.639C60.4878 174.755 60.5206 171.285 64.856 169.573C67.119 168.68 69.6236 169.367 71.9817 169.367" stroke="#F3D2BB" stroke-width="1.89536" stroke-linecap="round"/>
<path d="M48.4895 163.186C47.0708 163.186 43.4753 162.528 42.4799 163.855C41.7328 164.852 41.618 166.328 41.381 167.513" stroke="#F3D2BB" stroke-width="1.89536" stroke-linecap="round"/>
<path d="M45.4016 155.768C42.9051 156.325 39.4133 156.564 37.5376 158.55C37.0231 159.094 36.9663 159.55 37.675 159.786" stroke="#F3D2BB" stroke-width="1.89536" stroke-linecap="round"/>
<path d="M69.8178 150.823C70.1923 153.519 70.7391 155.971 72.1186 158.343C72.3904 158.811 73.1882 160.404 73.5266 160.404" stroke="#F3D2BB" stroke-width="1.89536" stroke-linecap="round"/>
<path d="M61.4738 150.514C62.4742 148.18 63.1723 145.846 64.0149 143.475C64.7219 141.485 66.4504 142.592 67.9641 143.097" stroke="#F3D2BB" stroke-width="1.89536" stroke-linecap="round"/>
<path d="M77.2341 154.222C77.9995 153.819 85.8879 149.577 85.8879 151.75" stroke="#F3D2BB" stroke-width="1.89536" stroke-linecap="round"/>
<path d="M95.7801 152.059C96.5331 154.6 97.224 156.381 96.3982 158.858" stroke="#F3D2BB" stroke-width="1.89536" stroke-linecap="round"/>
<path d="M91.1439 164.113C90.1066 167.349 89.0233 172.157 93.6164 173.076" stroke="#F3D2BB" stroke-width="1.89536" stroke-linecap="round"/>
<path d="M103.196 178.639C102.669 176.416 103.383 175.468 104.054 173.453C104.213 172.978 103.959 172.584 103.814 172.148" stroke="#F3D2BB" stroke-width="1.89536" stroke-linecap="round"/>
<path d="M103.812 164.422C105.332 162.463 108.479 158.256 111.538 159.786" stroke="#F3D2BB" stroke-width="1.89536" stroke-linecap="round"/>
<path d="M113.709 170.603C112.714 175.023 115.613 172.438 117.109 174.93" stroke="#F3D2BB" stroke-width="1.89536" stroke-linecap="round"/>
<path d="M117.106 182.348C118.867 184.145 119.457 185.874 120.815 187.911C121.681 189.21 122.838 189.934 123.906 191.001" stroke="#F3D2BB" stroke-width="1.89536" stroke-linecap="round"/>
<path d="M123.286 178.33C122.467 175.656 124.23 175.386 126.376 174.312" stroke="#F3D2BB" stroke-width="1.89536" stroke-linecap="round"/>
<path d="M126.995 164.422C127.287 167.499 127.374 171.034 129.364 173.573C130.599 175.149 132.346 176.504 134.069 177.523C134.272 177.643 135.936 178.424 135.511 177.574C134.775 176.102 133.503 175.663 133.245 173.831C132.87 171.172 134.166 167.621 135.529 165.315C136.615 163.476 137.503 163.16 137.503 161.022" stroke="#F3D2BB" stroke-width="1.89536" stroke-linecap="round"/>
<path d="M131.632 154.532C132.703 154.007 134.825 152.449 136.165 152.884C137.58 153.343 138.95 154.978 139.908 156.043C141.316 157.608 141.005 159.575 142.192 161.177C143.025 162.301 150.439 166.248 149.798 163.426C148.887 159.416 144.081 155.946 146.656 151.579C147.908 149.456 149.201 146.904 150.863 145.088C151.683 144.192 152.757 143.834 153.936 143.732C154.553 143.678 154.128 143.715 153.885 143.715" stroke="#F3D2BB" stroke-width="1.89536" stroke-linecap="round"/>
<path d="M153.266 155.459C153.791 155.55 157.378 155.721 156.666 156.077" stroke="#F3D2BB" stroke-width="1.89536" stroke-linecap="round"/>
<path d="M124.835 149.896C123.513 149.695 118.032 147.878 117.177 149.724C116.344 151.524 117.547 153.863 118.345 155.459C119.185 157.139 120.774 159.007 120.817 160.953C120.834 161.68 120.424 162.174 119.89 161.64" stroke="#F3D2BB" stroke-width="1.89536" stroke-linecap="round"/>
<path d="M115.56 134.443H111.542" stroke="#F3D2BB" stroke-width="1.89536" stroke-linecap="round"/>
<path d="M102.889 139.388C102.235 140.458 101.133 142.004 101.567 143.354C101.828 144.166 102.722 144.867 103.198 145.569C103.891 146.589 104.188 147.456 104.366 148.66C104.58 150.104 104.125 151.377 104.125 152.746C104.125 154.094 103.568 152.874 102.889 152.059" stroke="#F3D2BB" stroke-width="1.89536" stroke-linecap="round"/>
<path d="M94.5434 143.097C94.5434 141.251 94.3611 139.403 94.303 137.602C94.2563 136.153 97.2681 135.907 97.634 134.443" stroke="#F3D2BB" stroke-width="1.89536" stroke-linecap="round"/>
<path d="M94.2336 126.716C91.2951 125.992 88.2218 124.966 85.2021 124.621C83.7091 124.45 82.425 125.29 82.0599 126.75C81.7059 128.166 81.5064 130.622 82.1801 131.97" stroke="#F3D2BB" stroke-width="1.89536" stroke-linecap="round"/>
<path d="M84.0383 139.697C81.6777 140.877 80.6617 140.375 78.6125 138.838C77.1934 137.774 75.6768 136.624 75.1441 134.855C74.8397 133.844 74.5364 132.711 75.3158 131.867C75.6216 131.536 75.6936 131.507 75.6936 131.043" stroke="#F3D2BB" stroke-width="1.89536" stroke-linecap="round"/>
<path d="M71.0578 123.007C72.2599 121.101 73.6692 119.551 75.0413 117.787C75.4501 117.262 75.7683 117.057 75.0757 116.826" stroke="#F3D2BB" stroke-width="1.89536" stroke-linecap="round"/>
<path d="M64.871 116.826C64.9046 114.368 65.364 113.242 67.0344 111.572" stroke="#F3D2BB" stroke-width="1.89536" stroke-linecap="round"/>
<path d="M53.4368 117.135C52.445 117.641 50.9396 117.924 52.2005 118.68" stroke="#F3D2BB" stroke-width="1.89536" stroke-linecap="round"/>
<path d="M112.159 114.971C110.521 116.434 109.536 117.496 110.099 119.796C110.656 122.069 112.952 123.699 114.872 124.793C115.58 125.196 117.277 126.674 117.053 125.892C116.651 124.484 115.956 123.598 115.885 121.943C115.799 119.922 116.14 117.838 117.723 116.414C118.958 115.302 120.895 115.068 122.359 114.336C124.515 113.258 127.37 112.926 128.849 110.954" stroke="#F3D2BB" stroke-width="1.89536" stroke-linecap="round"/>
<path d="M127.923 123.935C126.146 126.118 123.858 127.336 123.905 130.356C123.929 131.859 124.072 134.498 125.76 135.061" stroke="#F3D2BB" stroke-width="1.89536" stroke-linecap="round"/>
<path d="M132.87 122.081C132.908 123.974 133.354 125.335 134.776 126.682C136.172 128.005 139.123 128.296 140.064 129.962C140.387 130.532 140.019 131.232 140.734 131.421C141.738 131.687 142.411 131.675 143.378 131.353" stroke="#F3D2BB" stroke-width="1.89536" stroke-linecap="round"/>
<path d="M140.902 124.553C137.547 121.061 138.303 118.268 140.884 114.526C141.912 113.036 143.257 111.867 144.301 110.405C144.955 109.489 146.132 109.124 146.928 108.327C148.194 107.062 150.166 107.221 151.77 106.61C154.322 105.638 157.119 106.342 159.549 105.391C160.152 105.155 160.518 104.564 161.008 104.172C161.939 103.427 163.277 103.106 164.356 102.627C165.966 101.911 167.79 101.613 167.79 103.846" stroke="#F3D2BB" stroke-width="1.89536" stroke-linecap="round"/>
<path d="M157.903 126.098C162.041 126.642 164.094 128.089 162.247 132.245C160.987 135.081 163.035 136.273 163.844 138.769C164.85 141.871 172.12 147.802 172.12 141.242" stroke="#F3D2BB" stroke-width="1.89536" stroke-linecap="round"/>
<path d="M168.41 114.044C169.21 114.971 170.848 116.279 170.848 117.65C170.848 119.188 170.156 120.714 169.784 122.183C169.061 125.027 168.982 127.689 171.981 129.034C172.388 129.216 176.407 130.73 175.158 129.48C174.146 128.469 173.394 128.473 173.973 127.025" stroke="#F3D2BB" stroke-width="1.89536" stroke-linecap="round"/>
<path d="M177.992 119.298C179.416 117.596 181.008 115.823 182.954 114.696C183.79 114.213 187.663 113.439 185.41 113.117" stroke="#F3D2BB" stroke-width="1.89536" stroke-linecap="round"/>
<path d="M161.611 139.388C159.532 138.377 153.93 135.095 153.266 139.079" stroke="#F3D2BB" stroke-width="1.89536" stroke-linecap="round"/>
<path d="M142.447 144.641C141.023 142.988 141.601 141.5 143.185 140.091C143.646 139.682 144.357 139.586 144.611 139.078" stroke="#F3D2BB" stroke-width="1.89536" stroke-linecap="round"/>
<path d="M127.923 77.5747C126.96 78.7262 119.287 87.2102 124.523 88.0829" stroke="#F3D2BB" stroke-width="1.89536" stroke-linecap="round"/>
<path d="M128.543 82.52C130.159 84.4303 132.669 87.2487 131.324 89.9376" stroke="#F3D2BB" stroke-width="1.89536" stroke-linecap="round"/>
<path d="M129.777 72.9386C130.607 72.8489 132.281 72.3535 133.108 72.7669C133.471 72.9483 133.579 73.5233 133.863 73.7971C134.414 74.3273 135.174 74.0088 135.718 74.5526C137.122 75.9567 138.081 77.9734 138.843 79.7724C139.139 80.4736 139.287 82.175 139.976 82.5196" stroke="#F3D2BB" stroke-width="1.89536" stroke-linecap="round"/>
<path d="M146.466 87.4647C148.186 87.9476 148.863 88.4672 150.106 87.2243C150.938 86.3923 150.842 85.7571 150.484 84.6831" stroke="#F3D2BB" stroke-width="1.89536" stroke-linecap="round"/>
<path d="M143.376 78.1922C143.059 75.424 142.021 67.9644 146.363 67.7012C148.363 67.58 154.342 67.0659 152.339 67.0659" stroke="#F3D2BB" stroke-width="1.89536" stroke-linecap="round"/>
<path d="M130.396 57.7949C130.476 60.555 130.798 63.6987 133.693 64.8862C135.597 65.6676 141.727 66.4487 139.668 66.4487" stroke="#F3D2BB" stroke-width="1.89536" stroke-linecap="round"/>
<path d="M137.505 58.7223C138.756 55.7181 138.453 51.6112 141.54 49.7595C143.174 48.7788 147.934 46.2812 145.849 44.1963" stroke="#F3D2BB" stroke-width="1.89536" stroke-linecap="round"/>
<path d="M131.632 46.3598C130.839 44.4349 130.07 42.3997 127.683 42.4793C126.616 42.5149 125.997 43.2459 125.76 44.1963" stroke="#F3D2BB" stroke-width="1.89536" stroke-linecap="round"/>
<path d="M149.555 54.7041C153.56 56.7622 157.492 60.1954 162.09 60.8167C163.808 61.0489 167.79 61.0825 167.79 58.7219" stroke="#F3D2BB" stroke-width="1.89536" stroke-linecap="round"/>
<path d="M158.212 52.5411C156.418 50.7096 156.248 50.4163 156.821 48.0596C157.047 47.1319 157.071 45.9084 157.594 45.1235" stroke="#F3D2BB" stroke-width="1.89536" stroke-linecap="round"/>
<path d="M156.974 36.1597C158.516 40.992 161.805 43.6206 166.864 44.367C167.642 44.4818 172.427 44.9617 172.427 43.8863" stroke="#F3D2BB" stroke-width="1.89536" stroke-linecap="round"/>
<path d="M165.629 35.8512C166.678 34.1786 167.91 32.6871 168.995 31.0607C169.425 30.416 169.469 29.5395 169.956 29.0518" stroke="#F3D2BB" stroke-width="1.89536" stroke-linecap="round"/>
<path d="M168.408 19.7798C171.589 19.985 178.633 19.5371 180.239 23.4886C180.824 24.9293 180.642 27.424 179.861 28.7255C178.335 31.2682 180.99 32.5061 183.243 33.0696" stroke="#F3D2BB" stroke-width="1.89536" stroke-linecap="round"/>
<path d="M185.409 28.7428C185.064 26.5837 184.103 21.2435 186.182 19.7971C186.982 19.2403 192.987 17.3192 193.136 17.6165" stroke="#F3D2BB" stroke-width="1.89536" stroke-linecap="round"/>
<path d="M184.173 42.9595C186.602 45.8744 182.119 47.5057 179.863 48.3681C177.852 49.137 177.194 50.735 176.378 52.6092C175.641 54.3 174.283 56.5925 174.283 58.4127" stroke="#F3D2BB" stroke-width="1.89536" stroke-linecap="round"/>
<path d="M175.517 64.9033C177.506 66.3877 179.185 68.2137 181.698 67.3758" stroke="#F3D2BB" stroke-width="1.89536" stroke-linecap="round"/>
<path d="M188.191 61.8129C186.65 60.9571 185.3 60.5767 183.555 60.5767" stroke="#F3D2BB" stroke-width="1.89536" stroke-linecap="round"/>
<path d="M189.116 57.7947C188.576 57.0354 186.748 54.1886 185.717 54.7041" stroke="#F3D2BB" stroke-width="1.89536" stroke-linecap="round"/>
<path d="M194.37 64.9033C195.732 66.2137 197.701 68.6409 199.315 66.5173C199.946 65.6871 199.753 65.8459 198.697 65.2124" stroke="#F3D2BB" stroke-width="1.89536" stroke-linecap="round"/>
<path d="M196.846 58.7216C196.846 55.3342 197.301 52.4897 199.868 49.9648C200.928 48.9212 203.764 49.3641 201.791 49.7587" stroke="#F3D2BB" stroke-width="1.89536" stroke-linecap="round"/>
<path d="M172.118 70.7749C172.673 73.0612 172.479 75.9482 175.208 76.3381" stroke="#F3D2BB" stroke-width="1.89536" stroke-linecap="round"/>
<path d="M177.991 83.7564C175.475 82.9348 172.388 83.6408 170.127 82.1939C168.019 80.8446 166.503 78.9191 163.826 78.5366C162.755 78.3836 160.538 78.1654 159.757 79.1204C158.757 80.3418 159.651 83.1456 159.139 84.6836" stroke="#F3D2BB" stroke-width="1.89536" stroke-linecap="round"/>
<path d="M161.609 88.0825C161.353 89.6933 161.411 90.6663 162.536 91.7913" stroke="#F3D2BB" stroke-width="1.89536" stroke-linecap="round"/>
<path d="M161.921 97.6639C161.52 97.4845 156.302 95.2192 156.976 94.8823" stroke="#F3D2BB" stroke-width="1.89536" stroke-linecap="round"/>
<path d="M170.574 90.5551C172.434 90.3548 173.501 90.2444 174.661 91.7914C175.01 92.2562 175.549 93.0129 174.901 93.3367" stroke="#F3D2BB" stroke-width="1.89536" stroke-linecap="round"/>
<path d="M183.243 92.1006C182.004 93.7868 181.698 94.7375 181.698 96.7366" stroke="#F3D2BB" stroke-width="1.89536" stroke-linecap="round"/>
<path d="M183.245 103.536C184.654 105.79 185.232 107.863 188.19 107.863C190.252 107.863 189.515 106.982 189.117 105.391" stroke="#F3D2BB" stroke-width="1.89536" stroke-linecap="round"/>
<path d="M190.972 101.373C192.046 100.529 194.614 98.8333 195.917 100.137" stroke="#F3D2BB" stroke-width="1.89536" stroke-linecap="round"/>
<path d="M189.118 95.8096C191.873 95.0749 201.171 91.9555 201.171 97.3549" stroke="#F3D2BB" stroke-width="1.89536" stroke-linecap="round"/>
<path d="M182.626 72.939C183.865 73.0301 192.343 75.0041 191.589 77.2659" stroke="#F3D2BB" stroke-width="1.89536" stroke-linecap="round"/>
<path d="M197.153 43.8866C200.092 43.6167 204.183 42.002 206.974 43.5776C208.476 44.4253 209.509 46.1943 210.443 47.5954" stroke="#F3D2BB" stroke-width="1.89536" stroke-linecap="round"/>
<path d="M209.514 55.9399C211.575 56.7695 213.671 57.5721 215.661 58.567C215.937 58.7052 217.908 60.0572 217.55 59.3397" stroke="#F3D2BB" stroke-width="1.89536" stroke-linecap="round"/>
<path d="M215.697 49.7588C215.973 48.258 216.233 47.8685 217.242 46.8398C217.956 46.1123 218.515 44.7735 219.406 44.2643C220.151 43.8384 222.212 44.5047 223.114 44.5047" stroke="#F3D2BB" stroke-width="1.89536" stroke-linecap="round"/>
<path d="M214.46 72.6299C209.932 72.3687 209.308 68.1936 208.588 64.5942" stroke="#F3D2BB" stroke-width="1.89536" stroke-linecap="round"/>
<path d="M217.861 67.994C217.148 67.4034 216.602 66.821 216.006 66.1396" stroke="#F3D2BB" stroke-width="1.89536" stroke-linecap="round"/>
<path d="M223.114 57.794C224.141 57.8214 226.565 57.5877 227.132 58.7212" stroke="#F3D2BB" stroke-width="1.89536" stroke-linecap="round"/>
<path d="M226.823 48.8315C228.81 49.3356 231.262 49.7023 232.97 50.9263C233.745 51.4815 233.916 52.3124 233.005 52.5403" stroke="#F3D2BB" stroke-width="1.89536" stroke-linecap="round"/>
<path d="M235.786 58.7222C235.513 59.3642 235.256 59.7711 234.859 60.2675" stroke="#F3D2BB" stroke-width="1.89536" stroke-linecap="round"/>
<path d="M224.659 37.3956C221.976 36.3108 218.169 34.6066 218.169 31.2144" stroke="#F3D2BB" stroke-width="1.89536" stroke-linecap="round"/>
<path d="M228.368 34.6146C227.678 33.9102 227.091 33.2205 226.514 32.4512" stroke="#F3D2BB" stroke-width="1.89536" stroke-linecap="round"/>
<path d="M233.623 43.8869C235.662 42.784 238.319 41.5117 240.542 42.9941C242.189 44.0918 242.383 45.4963 240.422 45.7413" stroke="#F3D2BB" stroke-width="1.89536" stroke-linecap="round"/>
<path d="M222.187 18.543C222.187 20.8196 222.112 23.0381 221.946 25.308C221.838 26.7917 222.123 27.4738 223.423 28.124" stroke="#F3D2BB" stroke-width="1.89536" stroke-linecap="round"/>
<path d="M232.077 20.0894C230.506 22.324 228.508 24.668 230.532 27.1978" stroke="#F3D2BB" stroke-width="1.89536" stroke-linecap="round"/>
<path d="M228.06 12.0531C226.523 10.3947 224.635 7.99472 222.188 8.34436" stroke="#F3D2BB" stroke-width="1.89536" stroke-linecap="round"/>
<path d="M207.661 2.16309C207.495 3.20003 207.352 4.20587 207.352 5.25373" stroke="#F3D2BB" stroke-width="1.89536" stroke-linecap="round"/>
<path d="M215.697 14.5258C216.457 14.3441 219.98 14.3064 219.096 12.9805" stroke="#F3D2BB" stroke-width="1.89536" stroke-linecap="round"/>
<path d="M204.88 10.5078C204.174 11.6487 202.217 16.0888 200.227 15.2468C198.858 14.6676 198.306 13.0931 198.081 11.7441" stroke="#F3D2BB" stroke-width="1.89536" stroke-linecap="round"/>
<path d="M214.769 7.10819C218.054 5.15953 219.422 3.39941 223.508 3.39941C225.433 3.39941 226.994 3.39821 228.848 3.84584C229.812 4.07845 230.803 3.95282 231.767 4.17208C232.017 4.22894 233.857 5.05059 233.862 5.04776C235.917 3.94147 237.251 3.56152 239.185 5.2538" stroke="#F3D2BB" stroke-width="1.89536" stroke-linecap="round"/>
<path d="M255.566 14.5256C253.945 13.4941 248.26 8.61016 246.311 10.5592C245.594 11.2765 245.407 12.4364 244.766 13.2378C244.453 13.6283 244.024 13.8101 243.821 14.2165" stroke="#F3D2BB" stroke-width="1.89536" stroke-linecap="round"/>
<path d="M249.695 20.707C246.884 22.9227 243.761 22.959 240.491 21.4797C239.259 20.922 238.659 20.707 237.332 20.707" stroke="#F3D2BB" stroke-width="1.89536" stroke-linecap="round"/>
<path d="M238.257 29.979C241.017 29.4655 249.025 28.135 246.396 33.5676C245.369 35.6901 240.73 38.7945 244.645 40.6246C245.72 41.1275 250.112 44.5183 250.62 41.981C250.926 40.4486 250.929 38.9464 250.929 37.3966" stroke="#F3D2BB" stroke-width="1.89536" stroke-linecap="round"/>
<path d="M250.932 34.9239C252.449 32.8653 254.978 30.0646 257.491 32.5201C258.427 33.4347 261.214 34.9544 260.204 36.4692" stroke="#F3D2BB" stroke-width="1.89536" stroke-linecap="round"/>
<path d="M264.22 45.7412C264.636 48.473 265.7 52.8712 269.474 51.6134" stroke="#F3D2BB" stroke-width="1.89536" stroke-linecap="round"/>
<path d="M271.328 42.65C271.367 40.1666 271.404 39.9426 273.664 39.4907C275.416 39.1402 276.481 38.0745 278.403 38.4948C279.389 38.7107 279.762 39.2716 279.999 38.2029C280.1 37.7524 280.785 39.0839 280.909 39.2503" stroke="#F3D2BB" stroke-width="1.89536" stroke-linecap="round"/>
<path d="M282.456 47.9048C280.529 49.54 280.799 52.2875 278.438 53.4679" stroke="#F3D2BB" stroke-width="1.89536" stroke-linecap="round"/>
<path d="M289.566 41.4146C288.74 42.9194 285.776 47.5554 288.329 48.8321" stroke="#F3D2BB" stroke-width="1.89536" stroke-linecap="round"/>
<path d="M290.491 66.1396C293.367 67.3619 292.491 70.3214 290.663 72.1492C289.597 73.2155 289.666 74.3312 288.946 75.4116" stroke="#F3D2BB" stroke-width="1.89536" stroke-linecap="round"/>
<path d="M290.8 85.6108C292.332 85.5795 292.807 85.5365 293.581 84.3745" stroke="#F3D2BB" stroke-width="1.89536" stroke-linecap="round"/>
<path d="M204.477 164.399C207.108 166.014 209.77 166.926 212.506 168.278C214.679 169.352 216.248 170.664 218.051 172.247C219.231 173.283 220.947 173.976 221.011 175.74C221.063 177.163 221.745 177.855 222.44 179.051C223.142 180.26 223.122 181.591 223.891 182.794C225.33 185.042 226.683 187.313 228.042 189.609C229.188 191.546 230.488 193.428 231.217 195.574C231.879 197.522 232.373 199.465 233.259 201.335C234 202.901 233.979 204.334 234.121 206.019C234.244 207.486 235.15 209.705 234.438 211.1C233.744 212.458 234.498 213.743 235.096 215.023C235.947 216.847 236.078 218.861 236.956 220.648C238.276 223.336 240.618 226.128 241.174 229.131C241.596 231.405 242.445 233.952 242.445 236.253" stroke="#F3D2BB" stroke-width="1.89536" stroke-linecap="round"/>
<path d="M204.476 133.576C207.403 134.055 210.426 134.274 213.288 135.073C217.268 136.183 221.28 137.477 224.957 139.382C229.267 141.615 232.554 145.08 236.116 148.318C237.169 149.276 238.276 150.224 238.656 151.641C239.035 153.051 239.516 153.738 240.618 154.714C242.835 156.68 244.94 158.391 246.527 160.929" stroke="#F3D2BB" stroke-width="1.89536" stroke-linecap="round"/>
<path d="M252.65 170.932C254.147 172.429 255.02 173.483 255.621 175.536C256.259 177.714 256.822 179.903 257.549 182.057C258.455 184.741 259.149 187.264 260.679 189.689C261.642 191.216 262.834 192.731 262.834 194.622C262.834 197.167 260.982 198.789 262.289 201.279C262.911 202.463 263.058 203.575 263.389 204.828C263.77 206.266 264.244 207.63 264.49 209.104" stroke="#F3D2BB" stroke-width="1.89536" stroke-linecap="round"/>
<path d="M264.696 217.269C264.696 219.029 264.437 221.109 264.9 222.825C265.374 224.583 265.43 226.295 265.104 228.087" stroke="#F3D2BB" stroke-width="1.89536" stroke-linecap="round"/>
<path d="M274.696 222.985C274.583 220.869 274.931 218.942 275.105 216.861" stroke="#F3D2BB" stroke-width="1.89536" stroke-linecap="round"/>
<path d="M274.697 192.161C273.762 188.6 272.192 185.296 270.886 181.864C269.575 178.42 268.191 175.01 266.94 171.544" stroke="#F3D2BB" stroke-width="1.89536" stroke-linecap="round"/>
<path d="M264.49 163.175C261.79 159.11 259.355 154.783 256.528 150.814C255.534 149.417 254.407 148.132 253.444 146.708C252.737 145.664 252.046 144.695 251.028 143.919C248.951 142.334 246.688 140.95 244.587 139.382C242.256 137.644 240.333 135.428 237.953 133.78" stroke="#F3D2BB" stroke-width="1.89536" stroke-linecap="round"/>
<path d="M218.969 107.039C222.625 107.606 226.382 108.074 229.992 108.876C232.519 109.438 234.936 110.351 237.375 111.201C239.749 112.028 242.173 112.827 244.248 114.286C246.071 115.568 247.649 117.138 249.317 118.606C251.261 120.319 253.275 121.936 255.146 123.732C260.135 128.525 265.154 133.46 268.936 139.291C269.848 140.698 271.035 142.165 271.68 143.714C271.84 144.098 271.825 144.546 272.247 144.758C273.766 145.517 271.766 141.3 270.886 139.847C268.3 135.578 264.821 130.976 263.594 126.068C263.129 124.207 261.729 123.643 260.204 122.553" stroke="#F3D2BB" stroke-width="1.89536" stroke-linecap="round"/>
<path d="M245.303 105.813C248.619 107.217 251.342 109.522 254.33 111.484C258.093 113.955 261.932 116.35 265.285 119.377C267.616 121.481 269.902 123.637 271.885 126.079C273.788 128.423 275.947 130.598 277.759 133.008C279.242 134.979 279.864 137.354 280.572 139.676C281.385 142.346 282.751 144.811 283.758 147.41C284.815 150.136 285.878 152.794 287.558 155.213C288.945 157.211 290.283 159.176 291.289 161.405C291.835 162.617 291.699 164.129 291.538 165.419C291.289 167.413 291.941 168.485 292.774 170.273C293.844 172.567 294.608 175.003 295.269 177.44C295.913 179.817 296.09 181.746 296.142 184.21C296.225 188.092 297.152 191.836 297.152 195.721C297.152 198.489 296.947 201.236 296.947 204" stroke="#F3D2BB" stroke-width="1.89536" stroke-linecap="round"/>
<path d="M250.2 101.323C248.333 100.252 246.377 99.6154 244.485 98.6694" stroke="#F3D2BB" stroke-width="1.89536" stroke-linecap="round"/>
</g>
<defs>
<clipPath id="clip0_828_8819">
<rect width="297" height="264" fill="white"/>
</clipPath>
</defs>
</svg>
