<svg width="28" height="28" viewBox="0 0 28 28" fill="none" xmlns="http://www.w3.org/2000/svg">
<g clip-path="url(#clip0_7011_197662)">
<path d="M14.0058 28.0117C21.741 28.0117 28.0117 21.741 28.0117 14.0058C28.0117 6.27062 21.741 0 14.0058 0C6.27062 0 0 6.27062 0 14.0058C0 21.741 6.27062 28.0117 14.0058 28.0117Z" fill="url(#paint0_linear_7011_197662)"/>
<path fill-rule="evenodd" clip-rule="evenodd" d="M6.33244 13.8543C10.4141 12.0817 13.1313 10.9039 14.4957 10.3325C18.3791 8.71147 19.1954 8.43158 19.7202 8.41992C19.8368 8.41992 20.0934 8.44325 20.2683 8.58319C20.4082 8.69981 20.4432 8.85141 20.4665 8.96803C20.4899 9.08465 20.5132 9.32954 20.4899 9.51613C20.28 11.7319 19.3703 17.108 18.9039 19.5803C18.7056 20.6298 18.3208 20.9797 17.9476 21.0147C17.1313 21.0846 16.5132 20.4782 15.7319 19.9651C14.4957 19.1604 13.8077 18.659 12.6065 17.866C11.2187 16.9564 12.1167 16.4549 12.9097 15.6386C13.1196 15.4287 16.6998 12.1634 16.7698 11.8718C16.7814 11.8368 16.7814 11.6969 16.6998 11.6269C16.6181 11.5569 16.5015 11.5803 16.4082 11.6036C16.28 11.6269 14.3208 12.933 10.5074 15.5103C9.9476 15.8951 9.44614 16.0817 8.99133 16.0701C8.48987 16.0584 7.5336 15.7902 6.81057 15.5569C5.93594 15.2771 5.23623 15.1255 5.29454 14.6357C5.32952 14.3791 5.67938 14.1225 6.33244 13.8543Z" fill="white"/>
</g>
<defs>
<linearGradient id="paint0_linear_7011_197662" x1="13.9942" y1="0" x2="13.9942" y2="27.7901" gradientUnits="userSpaceOnUse">
<stop stop-color="#2AABEE"/>
<stop offset="1" stop-color="#229ED9"/>
</linearGradient>
<clipPath id="clip0_7011_197662">
<rect width="28" height="28" fill="white"/>
</clipPath>
</defs>
</svg>
