<svg width="28" height="23" viewBox="0 0 28 23" fill="none" xmlns="http://www.w3.org/2000/svg">
<path d="M28 2.70001C26.9703 3.15628 25.8642 3.46457 24.7013 3.60392C25.9012 2.88596 26.7988 1.75599 27.2268 0.424844C26.0995 1.09443 24.8658 1.56575 23.5791 1.81831C22.7139 0.89451 21.5679 0.282201 20.3191 0.0764462C19.0702 -0.129308 17.7884 0.0830035 16.6725 0.680419C15.5567 1.27783 14.6693 2.22693 14.1482 3.38035C13.627 4.53377 13.5012 5.82699 13.7904 7.05922C11.5062 6.94453 9.27163 6.35083 7.23174 5.31665C5.19185 4.28247 3.39221 2.83093 1.94962 1.05622C1.45635 1.9071 1.17273 2.89362 1.17273 3.94427C1.17218 4.89009 1.4051 5.82143 1.85081 6.65564C2.29653 7.48986 2.94127 8.20116 3.72783 8.72644C2.81563 8.69741 1.92356 8.45093 1.12587 8.00751V8.0815C1.12578 9.40805 1.58464 10.6938 2.42461 11.7205C3.26457 12.7473 4.43389 13.4518 5.73417 13.7146C4.88796 13.9436 4.00077 13.9773 3.13961 13.8132C3.50647 14.9546 4.22108 15.9528 5.1834 16.6679C6.14572 17.383 7.30757 17.7792 8.5063 17.8012C6.47139 19.3987 3.95829 20.2652 1.37127 20.2614C0.913004 20.2615 0.455128 20.2347 0 20.1812C2.62597 21.8696 5.68279 22.7657 8.80472 22.7622C19.3729 22.7622 25.1502 14.0093 25.1502 6.41797C25.1502 6.17134 25.144 5.92225 25.1329 5.67562C26.2567 4.86294 27.2267 3.85658 27.9975 2.70371L28 2.70001Z" fill="#1DA1F2"/>
</svg>
